<svg width="238" height="62" viewBox="0 0 238 62" fill="none" xmlns="http://www.w3.org/2000/svg">
<mask id="path-1-inside-1_6306_10250" fill="white">
<path d="M0 31C0 13.8792 13.8792 0 31 0H207C224.121 0 238 13.8792 238 31C238 48.1208 224.121 62 207 62H31C13.8792 62 0 48.1208 0 31Z"/>
</mask>
<path d="M0 31C0 13.8792 13.8792 0 31 0H207C224.121 0 238 13.8792 238 31C238 48.1208 224.121 62 207 62H31C13.8792 62 0 48.1208 0 31Z" fill="url(#paint0_linear_6306_10250)"/>
<path d="M-1 30.5C-1 13.103 13.103 -1 30.5 -1H207.5C224.897 -1 239 13.103 239 30.5L237 31C237 14.4315 223.569 1 207 1H31C14.4315 1 1 14.4315 1 31L-1 30.5ZM238 62H0H238ZM30.5 62C13.103 62 -1 47.897 -1 30.5C-1 13.103 13.103 -1 30.5 -1L31 1C14.4315 1 1 14.4315 1 31C1 48.1208 14.4315 62 31 62H30.5ZM207.5 -1C224.897 -1 239 13.103 239 30.5C239 47.897 224.897 62 207.5 62H207C223.569 62 237 48.1208 237 31C237 14.4315 223.569 1 207 1L207.5 -1Z" fill="white" fill-opacity="0.1" mask="url(#path-1-inside-1_6306_10250)"/>
<path d="M27.876 19H25.008V10.324H27.828C30.42 10.324 32.172 12.076 32.172 14.668C32.172 17.248 30.444 19 27.876 19ZM27.744 11.404H26.184V17.908H27.792C29.724 17.908 30.948 16.66 30.948 14.668C30.948 12.652 29.724 11.404 27.744 11.404ZM35.1922 19.144C33.9322 19.144 33.1882 18.436 33.1882 17.368C33.1882 16.288 33.9922 15.616 35.3722 15.508L37.2202 15.364V15.196C37.2202 14.212 36.6322 13.864 35.8402 13.864C34.8922 13.864 34.3522 14.284 34.3522 14.992H33.3682C33.3682 13.768 34.3762 12.964 35.8882 12.964C37.3402 12.964 38.3242 13.732 38.3242 15.316V19H37.3642L37.2442 18.052C36.9442 18.724 36.1402 19.144 35.1922 19.144ZM35.5162 18.268C36.5842 18.268 37.2322 17.572 37.2322 16.468V16.156L35.7322 16.276C34.7362 16.372 34.3282 16.756 34.3282 17.332C34.3282 17.956 34.7842 18.268 35.5162 18.268ZM43.2463 13.084V14.116H42.7423C41.6743 14.116 41.0143 14.764 41.0143 15.892V19H39.8863V13.144H40.9423L41.0143 14.032C41.2543 13.42 41.8423 13.012 42.6463 13.012C42.8503 13.012 43.0183 13.036 43.2463 13.084ZM45.4323 19H44.3043V13.132H45.3123L45.4203 13.9C45.7203 13.348 46.3443 12.964 47.1723 12.964C48.0843 12.964 48.7323 13.42 49.0323 14.152C49.3083 13.42 50.0163 12.964 50.9283 12.964C52.2723 12.964 53.0883 13.804 53.0883 15.16V19H51.9843V15.436C51.9843 14.512 51.4683 13.984 50.6763 13.984C49.8243 13.984 49.2603 14.584 49.2603 15.52V19H48.1443V15.424C48.1443 14.5 47.6403 13.996 46.8483 13.996C45.9963 13.996 45.4323 14.584 45.4323 15.52V19ZM54.2679 16.06C54.2679 14.248 55.5639 12.976 57.3279 12.976C59.0799 12.976 60.3759 14.248 60.3759 16.06C60.3759 17.872 59.0799 19.144 57.3279 19.144C55.5639 19.144 54.2679 17.872 54.2679 16.06ZM55.4079 16.06C55.4079 17.284 56.1879 18.136 57.3279 18.136C58.4559 18.136 59.2479 17.284 59.2479 16.06C59.2479 14.836 58.4559 13.984 57.3279 13.984C56.1879 13.984 55.4079 14.836 55.4079 16.06ZM62.6151 19L60.6951 13.132H61.8591L62.8311 16.18C62.9631 16.612 63.0831 17.056 63.1911 17.572C63.2871 17.056 63.4431 16.564 63.5751 16.18L64.5591 13.132H65.7111L66.6831 16.18C66.7791 16.468 66.9711 17.152 67.0671 17.572C67.1631 17.104 67.2711 16.696 67.4391 16.18L68.4231 13.132H69.5991L67.5951 19H66.5271L65.5071 15.856C65.3151 15.268 65.1951 14.812 65.1351 14.488C65.0751 14.776 64.9671 15.16 64.7511 15.868L63.7311 19H62.6151ZM72.0125 19.144C70.7525 19.144 70.0085 18.436 70.0085 17.368C70.0085 16.288 70.8125 15.616 72.1925 15.508L74.0405 15.364V15.196C74.0405 14.212 73.4525 13.864 72.6605 13.864C71.7125 13.864 71.1725 14.284 71.1725 14.992H70.1885C70.1885 13.768 71.1965 12.964 72.7085 12.964C74.1605 12.964 75.1445 13.732 75.1445 15.316V19H74.1845L74.0645 18.052C73.7645 18.724 72.9605 19.144 72.0125 19.144ZM72.3365 18.268C73.4045 18.268 74.0525 17.572 74.0525 16.468V16.156L72.5525 16.276C71.5565 16.372 71.1485 16.756 71.1485 17.332C71.1485 17.956 71.6045 18.268 72.3365 18.268ZM81.7039 19.144C80.4439 19.144 79.6999 18.436 79.6999 17.368C79.6999 16.288 80.5039 15.616 81.8839 15.508L83.7319 15.364V15.196C83.7319 14.212 83.1439 13.864 82.3519 13.864C81.4039 13.864 80.8639 14.284 80.8639 14.992H79.8799C79.8799 13.768 80.8879 12.964 82.3999 12.964C83.8519 12.964 84.8359 13.732 84.8359 15.316V19H83.8759L83.7559 18.052C83.4559 18.724 82.6519 19.144 81.7039 19.144ZM82.0279 18.268C83.0959 18.268 83.7439 17.572 83.7439 16.468V16.156L82.2439 16.276C81.2479 16.372 80.8399 16.756 80.8399 17.332C80.8399 17.956 81.2959 18.268 82.0279 18.268ZM87.55 19H86.422V10.168H87.55V15.892L90.154 13.132H91.57L89.326 15.472L91.558 19H90.262L88.546 16.288L87.55 17.332V19ZM94.1478 19H93.0198V14.08H91.8678V13.132H93.0198V11.296H94.1478V13.132H95.2998V14.08H94.1478V19ZM100.368 13.132H101.484V19H100.476L100.356 18.112C100.02 18.724 99.2401 19.144 98.3761 19.144C97.0081 19.144 96.2401 18.22 96.2401 16.78V13.132H97.3681V16.408C97.3681 17.668 97.9081 18.148 98.7721 18.148C99.8041 18.148 100.368 17.488 100.368 16.228V13.132ZM104.837 19.144C103.577 19.144 102.833 18.436 102.833 17.368C102.833 16.288 103.637 15.616 105.017 15.508L106.865 15.364V15.196C106.865 14.212 106.277 13.864 105.485 13.864C104.537 13.864 103.997 14.284 103.997 14.992H103.013C103.013 13.768 104.021 12.964 105.533 12.964C106.985 12.964 107.969 13.732 107.969 15.316V19H107.009L106.889 18.052C106.589 18.724 105.785 19.144 104.837 19.144ZM105.161 18.268C106.229 18.268 106.877 17.572 106.877 16.468V16.156L105.377 16.276C104.381 16.372 103.973 16.756 103.973 17.332C103.973 17.956 104.429 18.268 105.161 18.268ZM110.683 19H109.555V10.168H110.683V19ZM112.895 11.74C112.487 11.74 112.151 11.404 112.151 10.996C112.151 10.576 112.487 10.252 112.895 10.252C113.303 10.252 113.639 10.576 113.639 10.996C113.639 11.404 113.303 11.74 112.895 11.74ZM112.343 19V13.132H113.471V19H112.343ZM119.321 19H114.749V18.088L117.917 14.08H114.749V13.132H119.321V14.056L116.129 18.052H119.321V19ZM122.309 19.144C121.049 19.144 120.305 18.436 120.305 17.368C120.305 16.288 121.109 15.616 122.489 15.508L124.337 15.364V15.196C124.337 14.212 123.749 13.864 122.957 13.864C122.009 13.864 121.469 14.284 121.469 14.992H120.485C120.485 13.768 121.493 12.964 123.005 12.964C124.457 12.964 125.441 13.732 125.441 15.316V19H124.481L124.361 18.052C124.061 18.724 123.257 19.144 122.309 19.144ZM122.633 18.268C123.701 18.268 124.349 17.572 124.349 16.468V16.156L122.849 16.276C121.853 16.372 121.445 16.756 121.445 17.332C121.445 17.956 121.901 18.268 122.633 18.268ZM126.62 16.072C126.62 14.236 127.784 12.964 129.5 12.964C130.976 12.964 132.008 13.804 132.212 15.112H131.084C130.892 14.368 130.292 13.972 129.536 13.972C128.468 13.972 127.736 14.788 127.736 16.06C127.736 17.32 128.42 18.136 129.488 18.136C130.292 18.136 130.892 17.716 131.096 17.02H132.224C131.996 18.292 130.904 19.144 129.488 19.144C127.76 19.144 126.62 17.92 126.62 16.072ZM133.978 11.74C133.558 11.74 133.234 11.404 133.234 10.996C133.234 10.576 133.558 10.252 133.978 10.252C134.374 10.252 134.722 10.576 134.722 10.996C134.722 11.404 134.374 11.74 133.978 11.74ZM131.926 21.664L132.118 20.644C132.346 20.704 132.478 20.728 132.658 20.728C133.198 20.728 133.414 20.416 133.414 19.756V13.132H134.542V19.864C134.542 21.04 133.894 21.772 132.754 21.772C132.454 21.772 132.262 21.76 131.926 21.664ZM137.895 19.144C136.635 19.144 135.891 18.436 135.891 17.368C135.891 16.288 136.695 15.616 138.075 15.508L139.923 15.364V15.196C139.923 14.212 139.335 13.864 138.543 13.864C137.595 13.864 137.055 14.284 137.055 14.992H136.071C136.071 13.768 137.079 12.964 138.591 12.964C140.043 12.964 141.027 13.732 141.027 15.316V19H140.067L139.947 18.052C139.647 18.724 138.843 19.144 137.895 19.144ZM138.219 18.268C139.287 18.268 139.935 17.572 139.935 16.468V16.156L138.435 16.276C137.439 16.372 137.031 16.756 137.031 17.332C137.031 17.956 137.487 18.268 138.219 18.268ZM145.871 21.628V13.132H146.891L146.975 14.188C147.371 13.384 148.163 12.964 149.099 12.964C150.779 12.964 151.823 14.224 151.823 16.024C151.823 17.812 150.839 19.156 149.099 19.156C148.163 19.156 147.383 18.76 146.999 18.04V21.628H145.871ZM147.011 16.072C147.011 17.272 147.707 18.136 148.859 18.136C150.011 18.136 150.695 17.272 150.695 16.072C150.695 14.86 150.011 13.996 148.859 13.996C147.707 13.996 147.011 14.848 147.011 16.072ZM154.782 19.144C153.522 19.144 152.778 18.436 152.778 17.368C152.778 16.288 153.582 15.616 154.962 15.508L156.81 15.364V15.196C156.81 14.212 156.222 13.864 155.43 13.864C154.482 13.864 153.942 14.284 153.942 14.992H152.958C152.958 13.768 153.966 12.964 155.478 12.964C156.93 12.964 157.914 13.732 157.914 15.316V19H156.954L156.834 18.052C156.534 18.724 155.73 19.144 154.782 19.144ZM155.106 18.268C156.174 18.268 156.822 17.572 156.822 16.468V16.156L155.322 16.276C154.326 16.372 153.918 16.756 153.918 17.332C153.918 17.956 154.374 18.268 155.106 18.268ZM160.604 19H159.476V13.132H160.496L160.616 14.032C160.988 13.36 161.732 12.964 162.56 12.964C164.108 12.964 164.816 13.912 164.816 15.412V19H163.688V15.664C163.688 14.476 163.136 13.996 162.272 13.996C161.216 13.996 160.604 14.752 160.604 15.892V19ZM168.911 19.144C167.183 19.144 165.995 17.896 165.995 16.072C165.995 14.236 167.159 12.964 168.863 12.964C170.531 12.964 171.622 14.116 171.622 15.856V16.276L167.087 16.288C167.171 17.524 167.819 18.208 168.935 18.208C169.811 18.208 170.387 17.848 170.579 17.176H171.635C171.347 18.436 170.363 19.144 168.911 19.144ZM168.863 13.912C167.879 13.912 167.255 14.5 167.111 15.532H170.495C170.495 14.56 169.859 13.912 168.863 13.912ZM174.034 19H172.906V10.168H174.034V19ZM179.751 13.132H180.867V19H179.859L179.739 18.112C179.403 18.724 178.623 19.144 177.759 19.144C176.391 19.144 175.623 18.22 175.623 16.78V13.132H176.751V16.408C176.751 17.668 177.291 18.148 178.155 18.148C179.187 18.148 179.751 17.488 179.751 16.228V13.132Z" fill="white"/>
<path d="M26.9318 26.1818H27.6364V30.3409C27.6364 30.7121 27.5682 31.0275 27.4318 31.2869C27.2955 31.5464 27.1032 31.7434 26.8551 31.8778C26.607 32.0123 26.3144 32.0795 25.9773 32.0795C25.6591 32.0795 25.3759 32.0218 25.1278 31.9062C24.8797 31.7888 24.6847 31.6222 24.5426 31.4062C24.4006 31.1903 24.3295 30.9337 24.3295 30.6364H25.0227C25.0227 30.8011 25.0634 30.9451 25.1449 31.0682C25.2282 31.1894 25.3419 31.2841 25.4858 31.3523C25.6297 31.4205 25.7936 31.4545 25.9773 31.4545C26.1799 31.4545 26.3523 31.4119 26.4943 31.3267C26.6364 31.2415 26.7443 31.1165 26.8182 30.9517C26.8939 30.785 26.9318 30.5814 26.9318 30.3409V26.1818ZM30.7869 32.0909C30.3665 32.0909 30.0038 31.9981 29.6989 31.8125C29.3958 31.625 29.1619 31.3636 28.9972 31.0284C28.8343 30.6913 28.7528 30.2992 28.7528 29.8523C28.7528 29.4053 28.8343 29.0114 28.9972 28.6705C29.1619 28.3277 29.3911 28.0606 29.6847 27.8693C29.9801 27.6761 30.3248 27.5795 30.7188 27.5795C30.946 27.5795 31.1705 27.6174 31.392 27.6932C31.6136 27.7689 31.8153 27.892 31.9972 28.0625C32.179 28.2311 32.3239 28.4545 32.4318 28.733C32.5398 29.0114 32.5938 29.3542 32.5938 29.7614V30.0455H29.2301V29.4659H31.9119C31.9119 29.2197 31.8627 29 31.7642 28.8068C31.6676 28.6136 31.5294 28.4612 31.3494 28.3494C31.1714 28.2377 30.9612 28.1818 30.7188 28.1818C30.4517 28.1818 30.2206 28.2481 30.0256 28.3807C29.8324 28.5114 29.6837 28.6818 29.5795 28.892C29.4754 29.1023 29.4233 29.3277 29.4233 29.5682V29.9545C29.4233 30.2841 29.4801 30.5634 29.5938 30.7926C29.7093 31.0199 29.8693 31.1932 30.0739 31.3125C30.2784 31.4299 30.5161 31.4886 30.7869 31.4886C30.9631 31.4886 31.1222 31.464 31.2642 31.4148C31.4081 31.3636 31.5322 31.2879 31.6364 31.1875C31.7405 31.0852 31.821 30.9583 31.8778 30.8068L32.5256 30.9886C32.4574 31.2083 32.3428 31.4015 32.1818 31.5682C32.0208 31.733 31.822 31.8617 31.5852 31.9545C31.3485 32.0455 31.0824 32.0909 30.7869 32.0909ZM36.7045 28.6136L36.1023 28.7841C36.0644 28.6837 36.0085 28.5862 35.9347 28.4915C35.8627 28.3949 35.7642 28.3153 35.6392 28.2528C35.5142 28.1903 35.3542 28.1591 35.1591 28.1591C34.892 28.1591 34.6695 28.2206 34.4915 28.3438C34.3153 28.465 34.2273 28.6193 34.2273 28.8068C34.2273 28.9735 34.2879 29.1051 34.4091 29.2017C34.5303 29.2983 34.7197 29.3788 34.9773 29.4432L35.625 29.6023C36.0152 29.697 36.3059 29.8419 36.4972 30.0369C36.6884 30.2301 36.7841 30.4792 36.7841 30.7841C36.7841 31.0341 36.7121 31.2576 36.5682 31.4545C36.4261 31.6515 36.2273 31.8068 35.9716 31.9205C35.7159 32.0341 35.4186 32.0909 35.0795 32.0909C34.6345 32.0909 34.2661 31.9943 33.9744 31.8011C33.6828 31.608 33.4981 31.3258 33.4205 30.9545L34.0568 30.7955C34.1174 31.0303 34.232 31.2064 34.4006 31.3239C34.571 31.4413 34.7936 31.5 35.0682 31.5C35.3807 31.5 35.6288 31.4337 35.8125 31.3011C35.9981 31.1667 36.0909 31.0057 36.0909 30.8182C36.0909 30.6667 36.0379 30.5398 35.9318 30.4375C35.8258 30.3333 35.6629 30.2557 35.4432 30.2045L34.7159 30.0341C34.3163 29.9394 34.0227 29.7926 33.8352 29.5938C33.6496 29.393 33.5568 29.142 33.5568 28.8409C33.5568 28.5947 33.6259 28.3769 33.7642 28.1875C33.9044 27.9981 34.0947 27.8494 34.3352 27.7415C34.5777 27.6335 34.8523 27.5795 35.1591 27.5795C35.5909 27.5795 35.9299 27.6742 36.1761 27.8636C36.4242 28.053 36.6004 28.303 36.7045 28.6136ZM34.8523 27.0455L35.5455 25.7273H36.3295L35.4432 27.0455H34.8523ZM38.4638 26.1818V32H37.7933V26.1818H38.4638ZM39.6918 32V27.6364H40.3622V32H39.6918ZM40.0327 26.9091C39.902 26.9091 39.7893 26.8646 39.6946 26.7756C39.6018 26.6866 39.5554 26.5795 39.5554 26.4545C39.5554 26.3295 39.6018 26.2225 39.6946 26.1335C39.7893 26.0445 39.902 26 40.0327 26C40.1634 26 40.2751 26.0445 40.3679 26.1335C40.4626 26.2225 40.5099 26.3295 40.5099 26.4545C40.5099 26.5795 40.4626 26.6866 40.3679 26.7756C40.2751 26.8646 40.1634 26.9091 40.0327 26.9091ZM46.9311 28.6136L46.3288 28.7841C46.291 28.6837 46.2351 28.5862 46.1612 28.4915C46.0893 28.3949 45.9908 28.3153 45.8658 28.2528C45.7408 28.1903 45.5807 28.1591 45.3857 28.1591C45.1186 28.1591 44.8961 28.2206 44.718 28.3438C44.5419 28.465 44.4538 28.6193 44.4538 28.8068C44.4538 28.9735 44.5144 29.1051 44.6357 29.2017C44.7569 29.2983 44.9463 29.3788 45.2038 29.4432L45.8516 29.6023C46.2417 29.697 46.5324 29.8419 46.7237 30.0369C46.915 30.2301 47.0107 30.4792 47.0107 30.7841C47.0107 31.0341 46.9387 31.2576 46.7947 31.4545C46.6527 31.6515 46.4538 31.8068 46.1982 31.9205C45.9425 32.0341 45.6451 32.0909 45.3061 32.0909C44.861 32.0909 44.4927 31.9943 44.201 31.8011C43.9093 31.608 43.7247 31.3258 43.647 30.9545L44.2834 30.7955C44.344 31.0303 44.4586 31.2064 44.6271 31.3239C44.7976 31.4413 45.0201 31.5 45.2947 31.5C45.6072 31.5 45.8554 31.4337 46.0391 31.3011C46.2247 31.1667 46.3175 31.0057 46.3175 30.8182C46.3175 30.6667 46.2644 30.5398 46.1584 30.4375C46.0523 30.3333 45.8894 30.2557 45.6697 30.2045L44.9425 30.0341C44.5429 29.9394 44.2493 29.7926 44.0618 29.5938C43.8762 29.393 43.7834 29.142 43.7834 28.8409C43.7834 28.5947 43.8525 28.3769 43.9908 28.1875C44.1309 27.9981 44.3213 27.8494 44.5618 27.7415C44.8042 27.6335 45.0788 27.5795 45.3857 27.5795C45.8175 27.5795 46.1565 27.6742 46.4027 27.8636C46.6508 28.053 46.8269 28.303 46.9311 28.6136ZM49.8494 32.0909C49.429 32.0909 49.0663 31.9981 48.7614 31.8125C48.4583 31.625 48.2244 31.3636 48.0597 31.0284C47.8968 30.6913 47.8153 30.2992 47.8153 29.8523C47.8153 29.4053 47.8968 29.0114 48.0597 28.6705C48.2244 28.3277 48.4536 28.0606 48.7472 27.8693C49.0426 27.6761 49.3873 27.5795 49.7812 27.5795C50.0085 27.5795 50.233 27.6174 50.4545 27.6932C50.6761 27.7689 50.8778 27.892 51.0597 28.0625C51.2415 28.2311 51.3864 28.4545 51.4943 28.733C51.6023 29.0114 51.6562 29.3542 51.6562 29.7614V30.0455H48.2926V29.4659H50.9744C50.9744 29.2197 50.9252 29 50.8267 28.8068C50.7301 28.6136 50.5919 28.4612 50.4119 28.3494C50.2339 28.2377 50.0237 28.1818 49.7812 28.1818C49.5142 28.1818 49.2831 28.2481 49.0881 28.3807C48.8949 28.5114 48.7462 28.6818 48.642 28.892C48.5379 29.1023 48.4858 29.3277 48.4858 29.5682V29.9545C48.4858 30.2841 48.5426 30.5634 48.6562 30.7926C48.7718 31.0199 48.9318 31.1932 49.1364 31.3125C49.3409 31.4299 49.5786 31.4886 49.8494 31.4886C50.0256 31.4886 50.1847 31.464 50.3267 31.4148C50.4706 31.3636 50.5947 31.2879 50.6989 31.1875C50.803 31.0852 50.8835 30.9583 50.9403 30.8068L51.5881 30.9886C51.5199 31.2083 51.4053 31.4015 51.2443 31.5682C51.0833 31.733 50.8845 31.8617 50.6477 31.9545C50.411 32.0455 50.1449 32.0909 49.8494 32.0909ZM52.6761 27.6364H53.3466V32.3182C53.3466 32.5871 53.3002 32.8201 53.2074 33.017C53.1165 33.214 52.9782 33.3665 52.7926 33.4744C52.6089 33.5824 52.3769 33.6364 52.0966 33.6364C52.0739 33.6364 52.0511 33.6364 52.0284 33.6364C52.0057 33.6364 51.983 33.6364 51.9602 33.6364V33.0114C51.983 33.0114 52.0038 33.0114 52.0227 33.0114C52.0417 33.0114 52.0625 33.0114 52.0852 33.0114C52.2898 33.0114 52.4394 32.9508 52.5341 32.8295C52.6288 32.7102 52.6761 32.5398 52.6761 32.3182V27.6364ZM53.0057 26.9091C52.875 26.9091 52.7623 26.8646 52.6676 26.7756C52.5748 26.6866 52.5284 26.5795 52.5284 26.4545C52.5284 26.3295 52.5748 26.2225 52.6676 26.1335C52.7623 26.0445 52.875 26 53.0057 26C53.1364 26 53.2481 26.0445 53.3409 26.1335C53.4356 26.2225 53.483 26.3295 53.483 26.4545C53.483 26.5795 53.4356 26.6866 53.3409 26.7756C53.2481 26.8646 53.1364 26.9091 53.0057 26.9091ZM54.5746 32V27.6364H55.2223V28.3182H55.2791C55.37 28.0852 55.5168 27.9044 55.7195 27.7756C55.9221 27.6449 56.1655 27.5795 56.4496 27.5795C56.7375 27.5795 56.977 27.6449 57.1683 27.7756C57.3615 27.9044 57.5121 28.0852 57.62 28.3182H57.6655C57.7772 28.0928 57.9448 27.9138 58.1683 27.7812C58.3918 27.6468 58.6598 27.5795 58.9723 27.5795C59.3625 27.5795 59.6816 27.7017 59.9297 27.946C60.1778 28.1884 60.3018 28.5663 60.3018 29.0795V32H59.6314V29.0795C59.6314 28.7576 59.5433 28.5275 59.3672 28.3892C59.1911 28.2509 58.9837 28.1818 58.745 28.1818C58.4382 28.1818 58.2005 28.2746 58.032 28.4602C57.8634 28.6439 57.7791 28.8769 57.7791 29.1591V32H57.0973V29.0114C57.0973 28.7633 57.0168 28.5634 56.8558 28.4119C56.6948 28.2585 56.4875 28.1818 56.2337 28.1818C56.0594 28.1818 55.8965 28.2282 55.745 28.321C55.5954 28.4138 55.4742 28.5426 55.3814 28.7074C55.2905 28.8703 55.245 29.0587 55.245 29.2727V32H54.5746ZM65.4254 32.0909C65.0618 32.0909 64.7408 31.9991 64.4624 31.8153C64.1839 31.6297 63.9661 31.3684 63.8089 31.0312C63.6518 30.6922 63.5732 30.2917 63.5732 29.8295C63.5732 29.3712 63.6518 28.9735 63.8089 28.6364C63.9661 28.2992 64.1849 28.0388 64.4652 27.8551C64.7455 27.6714 65.0694 27.5795 65.4368 27.5795C65.7209 27.5795 65.9453 27.6269 66.1101 27.7216C66.2768 27.8144 66.4036 27.9205 66.4908 28.0398C66.5798 28.1572 66.6489 28.2538 66.6982 28.3295H66.755V26.1818H67.4254V32H66.7777V31.3295H66.6982C66.6489 31.4091 66.5788 31.5095 66.4879 31.6307C66.397 31.75 66.2673 31.857 66.0987 31.9517C65.9302 32.0445 65.7057 32.0909 65.4254 32.0909ZM65.5163 31.4886C65.7853 31.4886 66.0125 31.4186 66.1982 31.2784C66.3838 31.1364 66.5249 30.9403 66.6214 30.6903C66.718 30.4384 66.7663 30.1477 66.7663 29.8182C66.7663 29.4924 66.719 29.2074 66.6243 28.9631C66.5296 28.7169 66.3894 28.5256 66.2038 28.3892C66.0182 28.2509 65.7891 28.1818 65.5163 28.1818C65.2322 28.1818 64.9955 28.2547 64.8061 28.4006C64.6186 28.5445 64.4775 28.7405 64.3828 28.9886C64.29 29.2348 64.2436 29.5114 64.2436 29.8182C64.2436 30.1288 64.291 30.411 64.3857 30.6648C64.4822 30.9167 64.6243 31.1174 64.8118 31.267C65.0012 31.4148 65.236 31.4886 65.5163 31.4886ZM70.5192 32.0909C70.1252 32.0909 69.7796 31.9972 69.4822 31.8097C69.1868 31.6222 68.9557 31.3598 68.7891 31.0227C68.6243 30.6856 68.5419 30.2917 68.5419 29.8409C68.5419 29.3864 68.6243 28.9896 68.7891 28.6506C68.9557 28.3116 69.1868 28.0483 69.4822 27.8608C69.7796 27.6733 70.1252 27.5795 70.5192 27.5795C70.9131 27.5795 71.2578 27.6733 71.5533 27.8608C71.8506 28.0483 72.0817 28.3116 72.2464 28.6506C72.4131 28.9896 72.4964 29.3864 72.4964 29.8409C72.4964 30.2917 72.4131 30.6856 72.2464 31.0227C72.0817 31.3598 71.8506 31.6222 71.5533 31.8097C71.2578 31.9972 70.9131 32.0909 70.5192 32.0909ZM70.5192 31.4886C70.8184 31.4886 71.0646 31.4119 71.2578 31.2585C71.451 31.1051 71.594 30.9034 71.6868 30.6534C71.7796 30.4034 71.826 30.1326 71.826 29.8409C71.826 29.5492 71.7796 29.2775 71.6868 29.0256C71.594 28.7737 71.451 28.5701 71.2578 28.4148C71.0646 28.2595 70.8184 28.1818 70.5192 28.1818C70.2199 28.1818 69.9737 28.2595 69.7805 28.4148C69.5874 28.5701 69.4444 28.7737 69.3516 29.0256C69.2588 29.2775 69.2124 29.5492 69.2124 29.8409C69.2124 30.1326 69.2588 30.4034 69.3516 30.6534C69.4444 30.9034 69.5874 31.1051 69.7805 31.2585C69.9737 31.4119 70.2199 31.4886 70.5192 31.4886ZM75.1676 32.0909C74.804 32.0909 74.483 31.9991 74.2045 31.8153C73.9261 31.6297 73.7083 31.3684 73.5511 31.0312C73.3939 30.6922 73.3153 30.2917 73.3153 29.8295C73.3153 29.3712 73.3939 28.9735 73.5511 28.6364C73.7083 28.2992 73.9271 28.0388 74.2074 27.8551C74.4877 27.6714 74.8116 27.5795 75.179 27.5795C75.4631 27.5795 75.6875 27.6269 75.8523 27.7216C76.0189 27.8144 76.1458 27.9205 76.233 28.0398C76.322 28.1572 76.3911 28.2538 76.4403 28.3295H76.4972V26.1818H77.1676V32H76.5199V31.3295H76.4403C76.3911 31.4091 76.321 31.5095 76.2301 31.6307C76.1392 31.75 76.0095 31.857 75.8409 31.9517C75.6723 32.0445 75.4479 32.0909 75.1676 32.0909ZM75.2585 31.4886C75.5275 31.4886 75.7547 31.4186 75.9403 31.2784C76.1259 31.1364 76.267 30.9403 76.3636 30.6903C76.4602 30.4384 76.5085 30.1477 76.5085 29.8182C76.5085 29.4924 76.4612 29.2074 76.3665 28.9631C76.2718 28.7169 76.1316 28.5256 75.946 28.3892C75.7604 28.2509 75.5313 28.1818 75.2585 28.1818C74.9744 28.1818 74.7377 28.2547 74.5483 28.4006C74.3608 28.5445 74.2197 28.7405 74.125 28.9886C74.0322 29.2348 73.9858 29.5114 73.9858 29.8182C73.9858 30.1288 74.0331 30.411 74.1278 30.6648C74.2244 30.9167 74.3665 31.1174 74.554 31.267C74.7434 31.4148 74.9782 31.4886 75.2585 31.4886ZM79.7727 32.1023C79.4962 32.1023 79.2453 32.0502 79.0199 31.946C78.7945 31.84 78.6155 31.6875 78.483 31.4886C78.3504 31.2879 78.2841 31.0455 78.2841 30.7614C78.2841 30.5114 78.3333 30.3087 78.4318 30.1534C78.5303 29.9962 78.6619 29.8731 78.8267 29.7841C78.9915 29.6951 79.1733 29.6288 79.3722 29.5852C79.5729 29.5398 79.7746 29.5038 79.9773 29.4773C80.2424 29.4432 80.4574 29.4176 80.6222 29.4006C80.7888 29.3816 80.91 29.3504 80.9858 29.3068C81.0634 29.2633 81.1023 29.1875 81.1023 29.0795V29.0568C81.1023 28.7765 81.0256 28.5587 80.8722 28.4034C80.7206 28.2481 80.4905 28.1705 80.1818 28.1705C79.8617 28.1705 79.6108 28.2405 79.429 28.3807C79.2472 28.5208 79.1193 28.6705 79.0455 28.8295L78.4091 28.6023C78.5227 28.3371 78.6742 28.1307 78.8636 27.983C79.0549 27.8333 79.2633 27.7292 79.4886 27.6705C79.7159 27.6098 79.9394 27.5795 80.1591 27.5795C80.2992 27.5795 80.4602 27.5966 80.642 27.6307C80.8258 27.6629 81.0028 27.7301 81.1733 27.8324C81.3456 27.9347 81.4886 28.089 81.6023 28.2955C81.7159 28.5019 81.7727 28.7784 81.7727 29.125V32H81.1023V31.4091H81.0682C81.0227 31.5038 80.947 31.6051 80.8409 31.7131C80.7348 31.821 80.5938 31.9129 80.4176 31.9886C80.2415 32.0644 80.0265 32.1023 79.7727 32.1023ZM79.875 31.5C80.1402 31.5 80.3636 31.4479 80.5455 31.3438C80.7292 31.2396 80.8674 31.1051 80.9602 30.9403C81.0549 30.7756 81.1023 30.6023 81.1023 30.4205V29.8068C81.0739 29.8409 81.0114 29.8722 80.9148 29.9006C80.8201 29.9271 80.7102 29.9508 80.5852 29.9716C80.4621 29.9905 80.3419 30.0076 80.2244 30.0227C80.1089 30.036 80.0152 30.0473 79.9432 30.0568C79.7689 30.0795 79.6061 30.1165 79.4545 30.1676C79.3049 30.2169 79.1837 30.2917 79.0909 30.392C79 30.4905 78.9545 30.625 78.9545 30.7955C78.9545 31.0284 79.0407 31.2045 79.2131 31.3239C79.3873 31.4413 79.608 31.5 79.875 31.5ZM84.8942 27.6364V28.2045H82.6328V27.6364H84.8942ZM83.2919 26.5909H83.9624V30.75C83.9624 30.9394 83.9898 31.0814 84.0447 31.1761C84.1016 31.2689 84.1735 31.3314 84.2607 31.3636C84.3497 31.3939 84.4434 31.4091 84.5419 31.4091C84.6158 31.4091 84.6764 31.4053 84.7237 31.3977C84.7711 31.3883 84.8089 31.3807 84.8374 31.375L84.9737 31.9773C84.9283 31.9943 84.8648 32.0114 84.7834 32.0284C84.7019 32.0473 84.5987 32.0568 84.4737 32.0568C84.2843 32.0568 84.0987 32.0161 83.9169 31.9347C83.737 31.8532 83.5874 31.7292 83.468 31.5625C83.3506 31.3958 83.2919 31.1856 83.2919 30.9318V26.5909ZM86.6214 30.4091L86.6101 29.5795H86.7464L88.6555 27.6364H89.4851L87.451 29.6932H87.3942L86.6214 30.4091ZM85.9964 32V26.1818H86.6669V32H85.9964ZM88.7692 32L87.0646 29.8409L87.5419 29.375L89.6214 32H88.7692ZM91.9411 32.0909C91.5471 32.0909 91.2015 31.9972 90.9041 31.8097C90.6087 31.6222 90.3776 31.3598 90.2109 31.0227C90.0462 30.6856 89.9638 30.2917 89.9638 29.8409C89.9638 29.3864 90.0462 28.9896 90.2109 28.6506C90.3776 28.3116 90.6087 28.0483 90.9041 27.8608C91.2015 27.6733 91.5471 27.5795 91.9411 27.5795C92.335 27.5795 92.6797 27.6733 92.9751 27.8608C93.2725 28.0483 93.5036 28.3116 93.6683 28.6506C93.835 28.9896 93.9183 29.3864 93.9183 29.8409C93.9183 30.2917 93.835 30.6856 93.6683 31.0227C93.5036 31.3598 93.2725 31.6222 92.9751 31.8097C92.6797 31.9972 92.335 32.0909 91.9411 32.0909ZM91.9411 31.4886C92.2403 31.4886 92.4865 31.4119 92.6797 31.2585C92.8729 31.1051 93.0159 30.9034 93.1087 30.6534C93.2015 30.4034 93.2479 30.1326 93.2479 29.8409C93.2479 29.5492 93.2015 29.2775 93.1087 29.0256C93.0159 28.7737 92.8729 28.5701 92.6797 28.4148C92.4865 28.2595 92.2403 28.1818 91.9411 28.1818C91.6418 28.1818 91.3956 28.2595 91.2024 28.4148C91.0092 28.5701 90.8662 28.7737 90.7734 29.0256C90.6806 29.2775 90.6342 29.5492 90.6342 29.8409C90.6342 30.1326 90.6806 30.4034 90.7734 30.6534C90.8662 30.9034 91.0092 31.1051 91.2024 31.2585C91.3956 31.4119 91.6418 31.4886 91.9411 31.4886ZM95.782 32L94.4524 27.6364H95.157L96.1001 30.9773H96.1456L97.0774 27.6364H97.7933L98.7138 30.9659H98.7592L99.7024 27.6364H100.407L99.0774 32H98.4183L97.4638 28.6477H97.3956L96.4411 32H95.782ZM102.918 32.0909C102.524 32.0909 102.178 31.9972 101.881 31.8097C101.585 31.6222 101.354 31.3598 101.188 31.0227C101.023 30.6856 100.94 30.2917 100.94 29.8409C100.94 29.3864 101.023 28.9896 101.188 28.6506C101.354 28.3116 101.585 28.0483 101.881 27.8608C102.178 27.6733 102.524 27.5795 102.918 27.5795C103.312 27.5795 103.656 27.6733 103.952 27.8608C104.249 28.0483 104.48 28.3116 104.645 28.6506C104.812 28.9896 104.895 29.3864 104.895 29.8409C104.895 30.2917 104.812 30.6856 104.645 31.0227C104.48 31.3598 104.249 31.6222 103.952 31.8097C103.656 31.9972 103.312 32.0909 102.918 32.0909ZM102.918 31.4886C103.217 31.4886 103.463 31.4119 103.656 31.2585C103.849 31.1051 103.992 30.9034 104.085 30.6534C104.178 30.4034 104.224 30.1326 104.224 29.8409C104.224 29.5492 104.178 29.2775 104.085 29.0256C103.992 28.7737 103.849 28.5701 103.656 28.4148C103.463 28.2595 103.217 28.1818 102.918 28.1818C102.618 28.1818 102.372 28.2595 102.179 28.4148C101.986 28.5701 101.843 28.7737 101.75 29.0256C101.657 29.2775 101.611 29.5492 101.611 29.8409C101.611 30.1326 101.657 30.4034 101.75 30.6534C101.843 30.9034 101.986 31.1051 102.179 31.2585C102.372 31.4119 102.618 31.4886 102.918 31.4886ZM109.157 32L107.827 27.6364H108.532L109.475 30.9773H109.521L110.452 27.6364H111.168L112.089 30.9659H112.134L113.077 27.6364H113.782L112.452 32H111.793L110.839 28.6477H110.771L109.816 32H109.157ZM114.668 33.6364V27.6364H115.316V28.3295H115.396C115.445 28.2538 115.513 28.1572 115.6 28.0398C115.689 27.9205 115.816 27.8144 115.981 27.7216C116.147 27.6269 116.373 27.5795 116.657 27.5795C117.024 27.5795 117.348 27.6714 117.629 27.8551C117.909 28.0388 118.128 28.2992 118.285 28.6364C118.442 28.9735 118.521 29.3712 118.521 29.8295C118.521 30.2917 118.442 30.6922 118.285 31.0312C118.128 31.3684 117.91 31.6297 117.631 31.8153C117.353 31.9991 117.032 32.0909 116.668 32.0909C116.388 32.0909 116.164 32.0445 115.995 31.9517C115.826 31.857 115.697 31.75 115.606 31.6307C115.515 31.5095 115.445 31.4091 115.396 31.3295H115.339V33.6364H114.668ZM115.327 29.8182C115.327 30.1477 115.376 30.4384 115.472 30.6903C115.569 30.9403 115.71 31.1364 115.896 31.2784C116.081 31.4186 116.308 31.4886 116.577 31.4886C116.858 31.4886 117.092 31.4148 117.279 31.267C117.469 31.1174 117.611 30.9167 117.705 30.6648C117.802 30.411 117.85 30.1288 117.85 29.8182C117.85 29.5114 117.803 29.2348 117.708 28.9886C117.615 28.7405 117.474 28.5445 117.285 28.4006C117.097 28.2547 116.862 28.1818 116.577 28.1818C116.305 28.1818 116.076 28.2509 115.89 28.3892C115.704 28.5256 115.564 28.7169 115.469 28.9631C115.375 29.2074 115.327 29.4924 115.327 29.8182ZM119.543 32V27.6364H120.191V28.2955H120.237C120.316 28.0795 120.46 27.9044 120.668 27.7699C120.877 27.6354 121.112 27.5682 121.373 27.5682C121.422 27.5682 121.484 27.5691 121.558 27.571C121.631 27.5729 121.687 27.5758 121.725 27.5795V28.2614C121.702 28.2557 121.65 28.2472 121.569 28.2358C121.489 28.2225 121.405 28.2159 121.316 28.2159C121.104 28.2159 120.915 28.2604 120.748 28.3494C120.583 28.4366 120.452 28.5578 120.356 28.7131C120.261 28.8665 120.214 29.0417 120.214 29.2386V32H119.543ZM124.16 32.0909C123.766 32.0909 123.42 31.9972 123.123 31.8097C122.827 31.6222 122.596 31.3598 122.43 31.0227C122.265 30.6856 122.183 30.2917 122.183 29.8409C122.183 29.3864 122.265 28.9896 122.43 28.6506C122.596 28.3116 122.827 28.0483 123.123 27.8608C123.42 27.6733 123.766 27.5795 124.16 27.5795C124.554 27.5795 124.898 27.6733 125.194 27.8608C125.491 28.0483 125.722 28.3116 125.887 28.6506C126.054 28.9896 126.137 29.3864 126.137 29.8409C126.137 30.2917 126.054 30.6856 125.887 31.0227C125.722 31.3598 125.491 31.6222 125.194 31.8097C124.898 31.9972 124.554 32.0909 124.16 32.0909ZM124.16 31.4886C124.459 31.4886 124.705 31.4119 124.898 31.2585C125.092 31.1051 125.235 30.9034 125.327 30.6534C125.42 30.4034 125.467 30.1326 125.467 29.8409C125.467 29.5492 125.42 29.2775 125.327 29.0256C125.235 28.7737 125.092 28.5701 124.898 28.4148C124.705 28.2595 124.459 28.1818 124.16 28.1818C123.861 28.1818 123.614 28.2595 123.421 28.4148C123.228 28.5701 123.085 28.7737 122.992 29.0256C122.899 29.2775 122.853 29.5492 122.853 29.8409C122.853 30.1326 122.899 30.4034 122.992 30.6534C123.085 30.9034 123.228 31.1051 123.421 31.2585C123.614 31.4119 123.861 31.4886 124.16 31.4886ZM128.001 32L126.671 27.6364H127.376L128.319 30.9773H128.364L129.296 27.6364H130.012L130.933 30.9659H130.978L131.921 27.6364H132.626L131.296 32H130.637L129.683 28.6477H129.614L128.66 32H128.001ZM134.796 32.1023C134.52 32.1023 134.269 32.0502 134.043 31.946C133.818 31.84 133.639 31.6875 133.506 31.4886C133.374 31.2879 133.308 31.0455 133.308 30.7614C133.308 30.5114 133.357 30.3087 133.455 30.1534C133.554 29.9962 133.685 29.8731 133.85 29.7841C134.015 29.6951 134.197 29.6288 134.396 29.5852C134.596 29.5398 134.798 29.5038 135.001 29.4773C135.266 29.4432 135.481 29.4176 135.646 29.4006C135.812 29.3816 135.933 29.3504 136.009 29.3068C136.087 29.2633 136.126 29.1875 136.126 29.0795V29.0568C136.126 28.7765 136.049 28.5587 135.896 28.4034C135.744 28.2481 135.514 28.1705 135.205 28.1705C134.885 28.1705 134.634 28.2405 134.452 28.3807C134.271 28.5208 134.143 28.6705 134.069 28.8295L133.433 28.6023C133.546 28.3371 133.698 28.1307 133.887 27.983C134.078 27.8333 134.287 27.7292 134.512 27.6705C134.739 27.6098 134.963 27.5795 135.183 27.5795C135.323 27.5795 135.484 27.5966 135.665 27.6307C135.849 27.6629 136.026 27.7301 136.197 27.8324C136.369 27.9347 136.512 28.089 136.626 28.2955C136.739 28.5019 136.796 28.7784 136.796 29.125V32H136.126V31.4091H136.092C136.046 31.5038 135.97 31.6051 135.864 31.7131C135.758 31.821 135.617 31.9129 135.441 31.9886C135.265 32.0644 135.05 32.1023 134.796 32.1023ZM134.898 31.5C135.164 31.5 135.387 31.4479 135.569 31.3438C135.753 31.2396 135.891 31.1051 135.984 30.9403C136.078 30.7756 136.126 30.6023 136.126 30.4205V29.8068C136.097 29.8409 136.035 29.8722 135.938 29.9006C135.844 29.9271 135.734 29.9508 135.609 29.9716C135.486 29.9905 135.365 30.0076 135.248 30.0227C135.132 30.036 135.039 30.0473 134.967 30.0568C134.792 30.0795 134.629 30.1165 134.478 30.1676C134.328 30.2169 134.207 30.2917 134.114 30.392C134.023 30.4905 133.978 30.625 133.978 30.7955C133.978 31.0284 134.064 31.2045 134.237 31.3239C134.411 31.4413 134.631 31.5 134.898 31.5ZM139.668 32.0909C139.304 32.0909 138.983 31.9991 138.705 31.8153C138.426 31.6297 138.208 31.3684 138.051 31.0312C137.894 30.6922 137.815 30.2917 137.815 29.8295C137.815 29.3712 137.894 28.9735 138.051 28.6364C138.208 28.2992 138.427 28.0388 138.707 27.8551C138.988 27.6714 139.312 27.5795 139.679 27.5795C139.963 27.5795 140.188 27.6269 140.352 27.7216C140.519 27.8144 140.646 27.9205 140.733 28.0398C140.822 28.1572 140.891 28.2538 140.94 28.3295H140.997V26.1818H141.668V32H141.02V31.3295H140.94C140.891 31.4091 140.821 31.5095 140.73 31.6307C140.639 31.75 140.509 31.857 140.341 31.9517C140.172 32.0445 139.948 32.0909 139.668 32.0909ZM139.759 31.4886C140.027 31.4886 140.255 31.4186 140.44 31.2784C140.626 31.1364 140.767 30.9403 140.864 30.6903C140.96 30.4384 141.009 30.1477 141.009 29.8182C141.009 29.4924 140.961 29.2074 140.866 28.9631C140.772 28.7169 140.632 28.5256 140.446 28.3892C140.26 28.2509 140.031 28.1818 139.759 28.1818C139.474 28.1818 139.238 28.2547 139.048 28.4006C138.861 28.5445 138.72 28.7405 138.625 28.9886C138.532 29.2348 138.486 29.5114 138.486 29.8182C138.486 30.1288 138.533 30.411 138.628 30.6648C138.724 30.9167 138.866 31.1174 139.054 31.267C139.243 31.4148 139.478 31.4886 139.759 31.4886ZM142.864 32V31.4886L145.341 28.3068V28.2614H142.943V27.6364H146.205V28.1705L143.795 31.3295V31.375H146.284V32H142.864ZM147.317 32V27.6364H147.987V32H147.317ZM147.658 26.9091C147.527 26.9091 147.414 26.8646 147.32 26.7756C147.227 26.6866 147.18 26.5795 147.18 26.4545C147.18 26.3295 147.227 26.2225 147.32 26.1335C147.414 26.0445 147.527 26 147.658 26C147.788 26 147.9 26.0445 147.993 26.1335C148.088 26.2225 148.135 26.3295 148.135 26.4545C148.135 26.5795 148.088 26.6866 147.993 26.7756C147.9 26.8646 147.788 26.9091 147.658 26.9091ZM24.6136 42V37.6364H25.2614V38.2955H25.3068C25.3864 38.0795 25.5303 37.9044 25.7386 37.7699C25.947 37.6354 26.1818 37.5682 26.4432 37.5682C26.4924 37.5682 26.554 37.5691 26.6278 37.571C26.7017 37.5729 26.7576 37.5758 26.7955 37.5795V38.2614C26.7727 38.2557 26.7206 38.2472 26.6392 38.2358C26.5597 38.2225 26.4754 38.2159 26.3864 38.2159C26.1742 38.2159 25.9848 38.2604 25.8182 38.3494C25.6534 38.4366 25.5227 38.5578 25.4261 38.7131C25.3314 38.8665 25.2841 39.0417 25.2841 39.2386V42H24.6136ZM28.8743 42.1023C28.5978 42.1023 28.3468 42.0502 28.1214 41.946C27.8961 41.84 27.7171 41.6875 27.5845 41.4886C27.4519 41.2879 27.3857 41.0455 27.3857 40.7614C27.3857 40.5114 27.4349 40.3087 27.5334 40.1534C27.6319 39.9962 27.7635 39.8731 27.9283 39.7841C28.093 39.6951 28.2749 39.6288 28.4737 39.5852C28.6745 39.5398 28.8762 39.5038 29.0788 39.4773C29.344 39.4432 29.5589 39.4176 29.7237 39.4006C29.8904 39.3816 30.0116 39.3504 30.0874 39.3068C30.165 39.2633 30.2038 39.1875 30.2038 39.0795V39.0568C30.2038 38.7765 30.1271 38.5587 29.9737 38.4034C29.8222 38.2481 29.5921 38.1705 29.2834 38.1705C28.9633 38.1705 28.7124 38.2405 28.5305 38.3807C28.3487 38.5208 28.2209 38.6705 28.147 38.8295L27.5107 38.6023C27.6243 38.3371 27.7758 38.1307 27.9652 37.983C28.1565 37.8333 28.3648 37.7292 28.5902 37.6705C28.8175 37.6098 29.041 37.5795 29.2607 37.5795C29.4008 37.5795 29.5618 37.5966 29.7436 37.6307C29.9273 37.6629 30.1044 37.7301 30.2749 37.8324C30.4472 37.9347 30.5902 38.089 30.7038 38.2955C30.8175 38.5019 30.8743 38.7784 30.8743 39.125V42H30.2038V41.4091H30.1697C30.1243 41.5038 30.0485 41.6051 29.9425 41.7131C29.8364 41.821 29.6953 41.9129 29.5192 41.9886C29.343 42.0644 29.1281 42.1023 28.8743 42.1023ZM28.9766 41.5C29.2417 41.5 29.4652 41.4479 29.647 41.3438C29.8307 41.2396 29.969 41.1051 30.0618 40.9403C30.1565 40.7756 30.2038 40.6023 30.2038 40.4205V39.8068C30.1754 39.8409 30.1129 39.8722 30.0163 39.9006C29.9216 39.9271 29.8118 39.9508 29.6868 39.9716C29.5637 39.9905 29.4434 40.0076 29.326 40.0227C29.2105 40.036 29.1167 40.0473 29.0447 40.0568C28.8705 40.0795 28.7076 40.1165 28.5561 40.1676C28.4065 40.2169 28.2853 40.2917 28.1925 40.392C28.1016 40.4905 28.0561 40.625 28.0561 40.7955C28.0561 41.0284 28.1423 41.2045 28.3146 41.3239C28.4889 41.4413 28.7095 41.5 28.9766 41.5ZM32.098 43.6364V37.6364H32.7457V38.3295H32.8253C32.8745 38.2538 32.9427 38.1572 33.0298 38.0398C33.1188 37.9205 33.2457 37.8144 33.4105 37.7216C33.5772 37.6269 33.8026 37.5795 34.0866 37.5795C34.4541 37.5795 34.7779 37.6714 35.0582 37.8551C35.3385 38.0388 35.5573 38.2992 35.7145 38.6364C35.8717 38.9735 35.9503 39.3712 35.9503 39.8295C35.9503 40.2917 35.8717 40.6922 35.7145 41.0312C35.5573 41.3684 35.3395 41.6297 35.0611 41.8153C34.7827 41.9991 34.4616 42.0909 34.098 42.0909C33.8177 42.0909 33.5933 42.0445 33.4247 41.9517C33.2562 41.857 33.1264 41.75 33.0355 41.6307C32.9446 41.5095 32.8745 41.4091 32.8253 41.3295H32.7685V43.6364H32.098ZM32.7571 39.8182C32.7571 40.1477 32.8054 40.4384 32.902 40.6903C32.9986 40.9403 33.1397 41.1364 33.3253 41.2784C33.5109 41.4186 33.7382 41.4886 34.0071 41.4886C34.2874 41.4886 34.5213 41.4148 34.7088 41.267C34.8982 41.1174 35.0402 40.9167 35.1349 40.6648C35.2315 40.411 35.2798 40.1288 35.2798 39.8182C35.2798 39.5114 35.2325 39.2348 35.1378 38.9886C35.045 38.7405 34.9039 38.5445 34.7145 38.4006C34.527 38.2547 34.2912 38.1818 34.0071 38.1818C33.7344 38.1818 33.5052 38.2509 33.3196 38.3892C33.134 38.5256 32.9938 38.7169 32.8991 38.9631C32.8045 39.2074 32.7571 39.4924 32.7571 39.8182ZM38.7457 42.0909C38.3518 42.0909 38.0062 41.9972 37.7088 41.8097C37.4134 41.6222 37.1823 41.3598 37.0156 41.0227C36.8509 40.6856 36.7685 40.2917 36.7685 39.8409C36.7685 39.3864 36.8509 38.9896 37.0156 38.6506C37.1823 38.3116 37.4134 38.0483 37.7088 37.8608C38.0062 37.6733 38.3518 37.5795 38.7457 37.5795C39.1397 37.5795 39.4844 37.6733 39.7798 37.8608C40.0772 38.0483 40.3082 38.3116 40.473 38.6506C40.6397 38.9896 40.723 39.3864 40.723 39.8409C40.723 40.2917 40.6397 40.6856 40.473 41.0227C40.3082 41.3598 40.0772 41.6222 39.7798 41.8097C39.4844 41.9972 39.1397 42.0909 38.7457 42.0909ZM38.7457 41.4886C39.045 41.4886 39.2912 41.4119 39.4844 41.2585C39.6776 41.1051 39.8205 40.9034 39.9134 40.6534C40.0062 40.4034 40.0526 40.1326 40.0526 39.8409C40.0526 39.5492 40.0062 39.2775 39.9134 39.0256C39.8205 38.7737 39.6776 38.5701 39.4844 38.4148C39.2912 38.2595 39.045 38.1818 38.7457 38.1818C38.4465 38.1818 38.2003 38.2595 38.0071 38.4148C37.8139 38.5701 37.6709 38.7737 37.5781 39.0256C37.4853 39.2775 37.4389 39.5492 37.4389 39.8409C37.4389 40.1326 37.4853 40.4034 37.5781 40.6534C37.6709 40.9034 37.8139 41.1051 38.0071 41.2585C38.2003 41.4119 38.4465 41.4886 38.7457 41.4886ZM41.7464 42V37.6364H42.3942V38.2955H42.4396C42.5192 38.0795 42.6631 37.9044 42.8714 37.7699C43.0798 37.6354 43.3146 37.5682 43.576 37.5682C43.6252 37.5682 43.6868 37.5691 43.7607 37.571C43.8345 37.5729 43.8904 37.5758 43.9283 37.5795V38.2614C43.9055 38.2557 43.8535 38.2472 43.772 38.2358C43.6925 38.2225 43.6082 38.2159 43.5192 38.2159C43.3071 38.2159 43.1177 38.2604 42.951 38.3494C42.7862 38.4366 42.6555 38.5578 42.5589 38.7131C42.4643 38.8665 42.4169 39.0417 42.4169 39.2386V42H41.7464ZM46.8942 37.6364V38.2045H44.6328V37.6364H46.8942ZM45.2919 36.5909H45.9624V40.75C45.9624 40.9394 45.9898 41.0814 46.0447 41.1761C46.1016 41.2689 46.1735 41.3314 46.2607 41.3636C46.3497 41.3939 46.4434 41.4091 46.5419 41.4091C46.6158 41.4091 46.6764 41.4053 46.7237 41.3977C46.7711 41.3883 46.8089 41.3807 46.8374 41.375L46.9737 41.9773C46.9283 41.9943 46.8648 42.0114 46.7834 42.0284C46.7019 42.0473 46.5987 42.0568 46.4737 42.0568C46.2843 42.0568 46.0987 42.0161 45.9169 41.9347C45.737 41.8532 45.5874 41.7292 45.468 41.5625C45.3506 41.3958 45.2919 41.1856 45.2919 40.9318V36.5909ZM49.6286 42.0909C49.2346 42.0909 48.889 41.9972 48.5916 41.8097C48.2962 41.6222 48.0651 41.3598 47.8984 41.0227C47.7337 40.6856 47.6513 40.2917 47.6513 39.8409C47.6513 39.3864 47.7337 38.9896 47.8984 38.6506C48.0651 38.3116 48.2962 38.0483 48.5916 37.8608C48.889 37.6733 49.2346 37.5795 49.6286 37.5795C50.0225 37.5795 50.3672 37.6733 50.6626 37.8608C50.96 38.0483 51.1911 38.3116 51.3558 38.6506C51.5225 38.9896 51.6058 39.3864 51.6058 39.8409C51.6058 40.2917 51.5225 40.6856 51.3558 41.0227C51.1911 41.3598 50.96 41.6222 50.6626 41.8097C50.3672 41.9972 50.0225 42.0909 49.6286 42.0909ZM49.6286 41.4886C49.9278 41.4886 50.174 41.4119 50.3672 41.2585C50.5604 41.1051 50.7034 40.9034 50.7962 40.6534C50.889 40.4034 50.9354 40.1326 50.9354 39.8409C50.9354 39.5492 50.889 39.2775 50.7962 39.0256C50.7034 38.7737 50.5604 38.5701 50.3672 38.4148C50.174 38.2595 49.9278 38.1818 49.6286 38.1818C49.3293 38.1818 49.0831 38.2595 48.8899 38.4148C48.6967 38.5701 48.5537 38.7737 48.4609 39.0256C48.3681 39.2775 48.3217 39.5492 48.3217 39.8409C48.3217 40.1326 48.3681 40.4034 48.4609 40.6534C48.5537 40.9034 48.6967 41.1051 48.8899 41.2585C49.0831 41.4119 49.3293 41.4886 49.6286 41.4886ZM53.4695 42L52.1399 37.6364H52.8445L53.7876 40.9773H53.8331L54.7649 37.6364H55.4808L56.4013 40.9659H56.4467L57.3899 37.6364H58.0945L56.7649 42H56.1058L55.1513 38.6477H55.0831L54.1286 42H53.4695ZM60.2649 42.1023C59.9884 42.1023 59.7375 42.0502 59.5121 41.946C59.2867 41.84 59.1077 41.6875 58.9751 41.4886C58.8426 41.2879 58.7763 41.0455 58.7763 40.7614C58.7763 40.5114 58.8255 40.3087 58.924 40.1534C59.0225 39.9962 59.1541 39.8731 59.3189 39.7841C59.4837 39.6951 59.6655 39.6288 59.8643 39.5852C60.0651 39.5398 60.2668 39.5038 60.4695 39.4773C60.7346 39.4432 60.9496 39.4176 61.1143 39.4006C61.281 39.3816 61.4022 39.3504 61.478 39.3068C61.5556 39.2633 61.5945 39.1875 61.5945 39.0795V39.0568C61.5945 38.7765 61.5178 38.5587 61.3643 38.4034C61.2128 38.2481 60.9827 38.1705 60.674 38.1705C60.3539 38.1705 60.103 38.2405 59.9212 38.3807C59.7393 38.5208 59.6115 38.6705 59.5376 38.8295L58.9013 38.6023C59.0149 38.3371 59.1664 38.1307 59.3558 37.983C59.5471 37.8333 59.7554 37.7292 59.9808 37.6705C60.2081 37.6098 60.4316 37.5795 60.6513 37.5795C60.7914 37.5795 60.9524 37.5966 61.1342 37.6307C61.3179 37.6629 61.495 37.7301 61.6655 37.8324C61.8378 37.9347 61.9808 38.089 62.0945 38.2955C62.2081 38.5019 62.2649 38.7784 62.2649 39.125V42H61.5945V41.4091H61.5604C61.5149 41.5038 61.4392 41.6051 61.3331 41.7131C61.227 41.821 61.0859 41.9129 60.9098 41.9886C60.7337 42.0644 60.5187 42.1023 60.2649 42.1023ZM60.3672 41.5C60.6323 41.5 60.8558 41.4479 61.0376 41.3438C61.2214 41.2396 61.3596 41.1051 61.4524 40.9403C61.5471 40.7756 61.5945 40.6023 61.5945 40.4205V39.8068C61.5661 39.8409 61.5036 39.8722 61.407 39.9006C61.3123 39.9271 61.2024 39.9508 61.0774 39.9716C60.9543 39.9905 60.834 40.0076 60.7166 40.0227C60.6011 40.036 60.5073 40.0473 60.4354 40.0568C60.2611 40.0795 60.0982 40.1165 59.9467 40.1676C59.7971 40.2169 59.6759 40.2917 59.5831 40.392C59.4922 40.4905 59.4467 40.625 59.4467 40.7955C59.4467 41.0284 59.5329 41.2045 59.7053 41.3239C59.8795 41.4413 60.1001 41.5 60.3672 41.5ZM64.1591 39.375V42H63.4886V37.6364H64.1364V38.3182H64.1932C64.2955 38.0966 64.4508 37.9186 64.6591 37.7841C64.8674 37.6477 65.1364 37.5795 65.4659 37.5795C65.7614 37.5795 66.0199 37.6402 66.2415 37.7614C66.4631 37.8807 66.6354 38.0625 66.7585 38.3068C66.8816 38.5492 66.9432 38.8561 66.9432 39.2273V42H66.2727V39.2727C66.2727 38.9299 66.1837 38.6629 66.0057 38.4716C65.8277 38.2784 65.5833 38.1818 65.2727 38.1818C65.0587 38.1818 64.8674 38.2282 64.6989 38.321C64.5322 38.4138 64.4006 38.5492 64.304 38.7273C64.2074 38.9053 64.1591 39.1212 64.1591 39.375ZM68.1683 42V37.6364H68.8388V42H68.1683ZM68.5092 36.9091C68.3786 36.9091 68.2659 36.8646 68.1712 36.7756C68.0784 36.6866 68.032 36.5795 68.032 36.4545C68.032 36.3295 68.0784 36.2225 68.1712 36.1335C68.2659 36.0445 68.3786 36 68.5092 36C68.6399 36 68.7517 36.0445 68.8445 36.1335C68.9392 36.2225 68.9865 36.3295 68.9865 36.4545C68.9865 36.5795 68.9392 36.6866 68.8445 36.7756C68.7517 36.8646 68.6399 36.9091 68.5092 36.9091ZM71.8963 42.0909C71.4759 42.0909 71.1132 41.9981 70.8082 41.8125C70.5052 41.625 70.2713 41.3636 70.1065 41.0284C69.9437 40.6913 69.8622 40.2992 69.8622 39.8523C69.8622 39.4053 69.9437 39.0114 70.1065 38.6705C70.2713 38.3277 70.5005 38.0606 70.794 37.8693C71.0895 37.6761 71.4342 37.5795 71.8281 37.5795C72.0554 37.5795 72.2798 37.6174 72.5014 37.6932C72.723 37.7689 72.9247 37.892 73.1065 38.0625C73.2884 38.2311 73.4332 38.4545 73.5412 38.733C73.6491 39.0114 73.7031 39.3542 73.7031 39.7614V40.0455H70.3395V39.4659H73.0213C73.0213 39.2197 72.9721 39 72.8736 38.8068C72.777 38.6136 72.6387 38.4612 72.4588 38.3494C72.2808 38.2377 72.0705 38.1818 71.8281 38.1818C71.5611 38.1818 71.33 38.2481 71.1349 38.3807C70.9418 38.5114 70.7931 38.6818 70.6889 38.892C70.5848 39.1023 70.5327 39.3277 70.5327 39.5682V39.9545C70.5327 40.2841 70.5895 40.5634 70.7031 40.7926C70.8187 41.0199 70.9787 41.1932 71.1832 41.3125C71.3878 41.4299 71.6255 41.4886 71.8963 41.4886C72.0724 41.4886 72.2315 41.464 72.3736 41.4148C72.5175 41.3636 72.6416 41.2879 72.7457 41.1875C72.8499 41.0852 72.9304 40.9583 72.9872 40.8068L73.6349 40.9886C73.5668 41.2083 73.4522 41.4015 73.2912 41.5682C73.1302 41.733 72.9313 41.8617 72.6946 41.9545C72.4579 42.0455 72.1918 42.0909 71.8963 42.0909ZM78.7457 42.0909C78.3366 42.0909 77.9844 41.9943 77.6889 41.8011C77.3935 41.608 77.1662 41.3419 77.0071 41.0028C76.848 40.6638 76.7685 40.2765 76.7685 39.8409C76.7685 39.3977 76.8499 39.0066 77.0128 38.6676C77.1776 38.3267 77.4067 38.0606 77.7003 37.8693C77.9957 37.6761 78.3404 37.5795 78.7344 37.5795C79.0412 37.5795 79.3177 37.6364 79.5639 37.75C79.8101 37.8636 80.0118 38.0227 80.169 38.2273C80.3262 38.4318 80.4238 38.6705 80.4616 38.9432H79.7912C79.7401 38.7443 79.6264 38.5682 79.4503 38.4148C79.276 38.2595 79.0412 38.1818 78.7457 38.1818C78.4844 38.1818 78.2552 38.25 78.0582 38.3864C77.8632 38.5208 77.7107 38.7112 77.6009 38.9574C77.4929 39.2017 77.4389 39.4886 77.4389 39.8182C77.4389 40.1553 77.492 40.4489 77.598 40.6989C77.706 40.9489 77.8575 41.143 78.0526 41.2812C78.2495 41.4195 78.4806 41.4886 78.7457 41.4886C78.92 41.4886 79.0781 41.4583 79.2202 41.3977C79.3622 41.3371 79.4825 41.25 79.581 41.1364C79.6795 41.0227 79.7495 40.8864 79.7912 40.7273H80.4616C80.4238 40.9848 80.33 41.2169 80.1804 41.4233C80.0327 41.6278 79.8366 41.7907 79.5923 41.9119C79.3499 42.0312 79.0677 42.0909 78.7457 42.0909ZM83.2713 42.0909C82.8509 42.0909 82.4882 41.9981 82.1832 41.8125C81.8802 41.625 81.6463 41.3636 81.4815 41.0284C81.3187 40.6913 81.2372 40.2992 81.2372 39.8523C81.2372 39.4053 81.3187 39.0114 81.4815 38.6705C81.6463 38.3277 81.8755 38.0606 82.169 37.8693C82.4645 37.6761 82.8092 37.5795 83.2031 37.5795C83.4304 37.5795 83.6548 37.6174 83.8764 37.6932C84.098 37.7689 84.2997 37.892 84.4815 38.0625C84.6634 38.2311 84.8082 38.4545 84.9162 38.733C85.0241 39.0114 85.0781 39.3542 85.0781 39.7614V40.0455H81.7145V39.4659H84.3963C84.3963 39.2197 84.3471 39 84.2486 38.8068C84.152 38.6136 84.0137 38.4612 83.8338 38.3494C83.6558 38.2377 83.4455 38.1818 83.2031 38.1818C82.9361 38.1818 82.705 38.2481 82.5099 38.3807C82.3168 38.5114 82.1681 38.6818 82.0639 38.892C81.9598 39.1023 81.9077 39.3277 81.9077 39.5682V39.9545C81.9077 40.2841 81.9645 40.5634 82.0781 40.7926C82.1937 41.0199 82.3537 41.1932 82.5582 41.3125C82.7628 41.4299 83.0005 41.4886 83.2713 41.4886C83.4474 41.4886 83.6065 41.464 83.7486 41.4148C83.8925 41.3636 84.0166 41.2879 84.1207 41.1875C84.2249 41.0852 84.3054 40.9583 84.3622 40.8068L85.0099 40.9886C84.9418 41.2083 84.8272 41.4015 84.6662 41.5682C84.5052 41.733 84.3063 41.8617 84.0696 41.9545C83.8329 42.0455 83.5668 42.0909 83.2713 42.0909ZM86.7685 39.375V42H86.098V37.6364H86.7457V38.3182H86.8026C86.9048 38.0966 87.0601 37.9186 87.2685 37.7841C87.4768 37.6477 87.7457 37.5795 88.0753 37.5795C88.3707 37.5795 88.6293 37.6402 88.8509 37.7614C89.0724 37.8807 89.2448 38.0625 89.3679 38.3068C89.491 38.5492 89.5526 38.8561 89.5526 39.2273V42H88.8821V39.2727C88.8821 38.9299 88.7931 38.6629 88.6151 38.4716C88.437 38.2784 88.1927 38.1818 87.8821 38.1818C87.6681 38.1818 87.4768 38.2282 87.3082 38.321C87.1416 38.4138 87.0099 38.5492 86.9134 38.7273C86.8168 38.9053 86.7685 39.1212 86.7685 39.375ZM94.9254 37.6364V38.2045H92.6641V37.6364H94.9254ZM93.3232 36.5909H93.9936V40.75C93.9936 40.9394 94.0211 41.0814 94.076 41.1761C94.1328 41.2689 94.2048 41.3314 94.2919 41.3636C94.3809 41.3939 94.4747 41.4091 94.5732 41.4091C94.647 41.4091 94.7076 41.4053 94.755 41.3977C94.8023 41.3883 94.8402 41.3807 94.8686 41.375L95.005 41.9773C94.9595 41.9943 94.8961 42.0114 94.8146 42.0284C94.7332 42.0473 94.63 42.0568 94.505 42.0568C94.3156 42.0568 94.13 42.0161 93.9482 41.9347C93.7682 41.8532 93.6186 41.7292 93.4993 41.5625C93.3819 41.3958 93.3232 41.1856 93.3232 40.9318V36.5909ZM95.9339 42V37.6364H96.5817V38.2955H96.6271C96.7067 38.0795 96.8506 37.9044 97.0589 37.7699C97.2673 37.6354 97.5021 37.5682 97.7635 37.5682C97.8127 37.5682 97.8743 37.5691 97.9482 37.571C98.022 37.5729 98.0779 37.5758 98.1158 37.5795V38.2614C98.093 38.2557 98.041 38.2472 97.9595 38.2358C97.88 38.2225 97.7957 38.2159 97.7067 38.2159C97.4946 38.2159 97.3052 38.2604 97.1385 38.3494C96.9737 38.4366 96.843 38.5578 96.7464 38.7131C96.6518 38.8665 96.6044 39.0417 96.6044 39.2386V42H95.9339ZM100.195 42.1023C99.9181 42.1023 99.6671 42.0502 99.4418 41.946C99.2164 41.84 99.0374 41.6875 98.9048 41.4886C98.7723 41.2879 98.706 41.0455 98.706 40.7614C98.706 40.5114 98.7552 40.3087 98.8537 40.1534C98.9522 39.9962 99.0838 39.8731 99.2486 39.7841C99.4134 39.6951 99.5952 39.6288 99.794 39.5852C99.9948 39.5398 100.196 39.5038 100.399 39.4773C100.664 39.4432 100.879 39.4176 101.044 39.4006C101.211 39.3816 101.332 39.3504 101.408 39.3068C101.485 39.2633 101.524 39.1875 101.524 39.0795V39.0568C101.524 38.7765 101.447 38.5587 101.294 38.4034C101.143 38.2481 100.912 38.1705 100.604 38.1705C100.284 38.1705 100.033 38.2405 99.8509 38.3807C99.669 38.5208 99.5412 38.6705 99.4673 38.8295L98.831 38.6023C98.9446 38.3371 99.0961 38.1307 99.2855 37.983C99.4768 37.8333 99.6851 37.7292 99.9105 37.6705C100.138 37.6098 100.361 37.5795 100.581 37.5795C100.721 37.5795 100.882 37.5966 101.064 37.6307C101.248 37.6629 101.425 37.7301 101.595 37.8324C101.768 37.9347 101.911 38.089 102.024 38.2955C102.138 38.5019 102.195 38.7784 102.195 39.125V42H101.524V41.4091H101.49C101.445 41.5038 101.369 41.6051 101.263 41.7131C101.157 41.821 101.016 41.9129 100.839 41.9886C100.663 42.0644 100.448 42.1023 100.195 42.1023ZM100.297 41.5C100.562 41.5 100.786 41.4479 100.967 41.3438C101.151 41.2396 101.289 41.1051 101.382 40.9403C101.477 40.7756 101.524 40.6023 101.524 40.4205V39.8068C101.496 39.8409 101.433 39.8722 101.337 39.9006C101.242 39.9271 101.132 39.9508 101.007 39.9716C100.884 39.9905 100.764 40.0076 100.646 40.0227C100.531 40.036 100.437 40.0473 100.365 40.0568C100.191 40.0795 100.028 40.1165 99.8764 40.1676C99.7268 40.2169 99.6056 40.2917 99.5128 40.392C99.4219 40.4905 99.3764 40.625 99.3764 40.7955C99.3764 41.0284 99.4626 41.2045 99.6349 41.3239C99.8092 41.4413 100.03 41.5 100.297 41.5ZM104.089 39.375V42H103.418V37.6364H104.066V38.3182H104.123C104.225 38.0966 104.38 37.9186 104.589 37.7841C104.797 37.6477 105.066 37.5795 105.396 37.5795C105.691 37.5795 105.95 37.6402 106.171 37.7614C106.393 37.8807 106.565 38.0625 106.688 38.3068C106.811 38.5492 106.873 38.8561 106.873 39.2273V42H106.202V39.2727C106.202 38.9299 106.113 38.6629 105.935 38.4716C105.757 38.2784 105.513 38.1818 105.202 38.1818C104.988 38.1818 104.797 38.2282 104.629 38.321C104.462 38.4138 104.33 38.5492 104.234 38.7273C104.137 38.9053 104.089 39.1212 104.089 39.375ZM111.189 38.6136L110.587 38.7841C110.549 38.6837 110.493 38.5862 110.419 38.4915C110.347 38.3949 110.249 38.3153 110.124 38.2528C109.999 38.1903 109.839 38.1591 109.643 38.1591C109.376 38.1591 109.154 38.2206 108.976 38.3438C108.8 38.465 108.712 38.6193 108.712 38.8068C108.712 38.9735 108.772 39.1051 108.893 39.2017C109.015 39.2983 109.204 39.3788 109.462 39.4432L110.109 39.6023C110.5 39.697 110.79 39.8419 110.982 40.0369C111.173 40.2301 111.268 40.4792 111.268 40.7841C111.268 41.0341 111.196 41.2576 111.053 41.4545C110.911 41.6515 110.712 41.8068 110.456 41.9205C110.2 42.0341 109.903 42.0909 109.564 42.0909C109.119 42.0909 108.75 41.9943 108.459 41.8011C108.167 41.608 107.982 41.3258 107.905 40.9545L108.541 40.7955C108.602 41.0303 108.716 41.2064 108.885 41.3239C109.055 41.4413 109.278 41.5 109.553 41.5C109.865 41.5 110.113 41.4337 110.297 41.3011C110.482 41.1667 110.575 41.0057 110.575 40.8182C110.575 40.6667 110.522 40.5398 110.416 40.4375C110.31 40.3333 110.147 40.2557 109.928 40.2045L109.2 40.0341C108.801 39.9394 108.507 39.7926 108.32 39.5938C108.134 39.393 108.041 39.142 108.041 38.8409C108.041 38.5947 108.11 38.3769 108.249 38.1875C108.389 37.9981 108.579 37.8494 108.82 37.7415C109.062 37.6335 109.337 37.5795 109.643 37.5795C110.075 37.5795 110.414 37.6742 110.661 37.8636C110.909 38.053 111.085 38.303 111.189 38.6136ZM113.562 42.1023C113.285 42.1023 113.034 42.0502 112.809 41.946C112.584 41.84 112.405 41.6875 112.272 41.4886C112.139 41.2879 112.073 41.0455 112.073 40.7614C112.073 40.5114 112.122 40.3087 112.221 40.1534C112.319 39.9962 112.451 39.8731 112.616 39.7841C112.781 39.6951 112.962 39.6288 113.161 39.5852C113.362 39.5398 113.564 39.5038 113.766 39.4773C114.031 39.4432 114.246 39.4176 114.411 39.4006C114.578 39.3816 114.699 39.3504 114.775 39.3068C114.853 39.2633 114.891 39.1875 114.891 39.0795V39.0568C114.891 38.7765 114.815 38.5587 114.661 38.4034C114.51 38.2481 114.28 38.1705 113.971 38.1705C113.651 38.1705 113.4 38.2405 113.218 38.3807C113.036 38.5208 112.908 38.6705 112.835 38.8295L112.198 38.6023C112.312 38.3371 112.463 38.1307 112.653 37.983C112.844 37.8333 113.052 37.7292 113.278 37.6705C113.505 37.6098 113.728 37.5795 113.948 37.5795C114.088 37.5795 114.249 37.5966 114.431 37.6307C114.615 37.6629 114.792 37.7301 114.962 37.8324C115.135 37.9347 115.278 38.089 115.391 38.2955C115.505 38.5019 115.562 38.7784 115.562 39.125V42H114.891V41.4091H114.857C114.812 41.5038 114.736 41.6051 114.63 41.7131C114.524 41.821 114.383 41.9129 114.207 41.9886C114.031 42.0644 113.816 42.1023 113.562 42.1023ZM113.664 41.5C113.929 41.5 114.153 41.4479 114.335 41.3438C114.518 41.2396 114.656 41.1051 114.749 40.9403C114.844 40.7756 114.891 40.6023 114.891 40.4205V39.8068C114.863 39.8409 114.8 39.8722 114.704 39.9006C114.609 39.9271 114.499 39.9508 114.374 39.9716C114.251 39.9905 114.131 40.0076 114.013 40.0227C113.898 40.036 113.804 40.0473 113.732 40.0568C113.558 40.0795 113.395 40.1165 113.244 40.1676C113.094 40.2169 112.973 40.2917 112.88 40.392C112.789 40.4905 112.744 40.625 112.744 40.7955C112.744 41.0284 112.83 41.2045 113.002 41.3239C113.176 41.4413 113.397 41.5 113.664 41.5ZM117.411 40.4091L117.399 39.5795H117.536L119.445 37.6364H120.274L118.24 39.6932H118.183L117.411 40.4091ZM116.786 42V36.1818H117.456V42H116.786ZM119.558 42L117.854 39.8409L118.331 39.375L120.411 42H119.558ZM122.73 42.0909C122.321 42.0909 121.969 41.9943 121.673 41.8011C121.378 41.608 121.151 41.3419 120.991 41.0028C120.832 40.6638 120.753 40.2765 120.753 39.8409C120.753 39.3977 120.834 39.0066 120.997 38.6676C121.162 38.3267 121.391 38.0606 121.685 37.8693C121.98 37.6761 122.325 37.5795 122.719 37.5795C123.026 37.5795 123.302 37.6364 123.548 37.75C123.795 37.8636 123.996 38.0227 124.153 38.2273C124.311 38.4318 124.408 38.6705 124.446 38.9432H123.776C123.724 38.7443 123.611 38.5682 123.435 38.4148C123.26 38.2595 123.026 38.1818 122.73 38.1818C122.469 38.1818 122.24 38.25 122.043 38.3864C121.848 38.5208 121.695 38.7112 121.585 38.9574C121.477 39.2017 121.423 39.4886 121.423 39.8182C121.423 40.1553 121.476 40.4489 121.582 40.6989C121.69 40.9489 121.842 41.143 122.037 41.2812C122.234 41.4195 122.465 41.4886 122.73 41.4886C122.904 41.4886 123.062 41.4583 123.205 41.3977C123.347 41.3371 123.467 41.25 123.565 41.1364C123.664 41.0227 123.734 40.8864 123.776 40.7273H124.446C124.408 40.9848 124.314 41.2169 124.165 41.4233C124.017 41.6278 123.821 41.7907 123.577 41.9119C123.334 42.0312 123.052 42.0909 122.73 42.0909ZM125.858 43.6364C125.744 43.6364 125.643 43.6269 125.554 43.608C125.465 43.5909 125.403 43.5739 125.369 43.5568L125.54 42.9659C125.703 43.0076 125.847 43.0227 125.972 43.0114C126.097 43 126.207 42.9441 126.304 42.8438C126.402 42.7453 126.492 42.5852 126.574 42.3636L126.699 42.0227L125.085 37.6364H125.812L127.017 41.1136H127.062L128.267 37.6364H128.994L127.142 42.6364C127.059 42.8617 126.955 43.0483 126.832 43.196C126.709 43.3456 126.566 43.4564 126.403 43.5284C126.242 43.6004 126.061 43.6364 125.858 43.6364ZM129.879 37.6364H130.55V42.3182C130.55 42.5871 130.503 42.8201 130.411 43.017C130.32 43.214 130.181 43.3665 129.996 43.4744C129.812 43.5824 129.58 43.6364 129.3 43.6364C129.277 43.6364 129.254 43.6364 129.232 43.6364C129.209 43.6364 129.186 43.6364 129.163 43.6364V43.0114C129.186 43.0114 129.207 43.0114 129.226 43.0114C129.245 43.0114 129.266 43.0114 129.288 43.0114C129.493 43.0114 129.643 42.9508 129.737 42.8295C129.832 42.7102 129.879 42.5398 129.879 42.3182V37.6364ZM130.209 36.9091C130.078 36.9091 129.965 36.8646 129.871 36.7756C129.778 36.6866 129.732 36.5795 129.732 36.4545C129.732 36.3295 129.778 36.2225 129.871 36.1335C129.965 36.0445 130.078 36 130.209 36C130.339 36 130.451 36.0445 130.544 36.1335C130.639 36.2225 130.686 36.3295 130.686 36.4545C130.686 36.5795 130.639 36.6866 130.544 36.7756C130.451 36.8646 130.339 36.9091 130.209 36.9091ZM132.448 39.375V42H131.778V37.6364H132.425V38.3182H132.482C132.585 38.0966 132.74 37.9186 132.948 37.7841C133.156 37.6477 133.425 37.5795 133.755 37.5795C134.05 37.5795 134.309 37.6402 134.531 37.7614C134.752 37.8807 134.924 38.0625 135.048 38.3068C135.171 38.5492 135.232 38.8561 135.232 39.2273V42H134.562V39.2727C134.562 38.9299 134.473 38.6629 134.295 38.4716C134.117 38.2784 133.872 38.1818 133.562 38.1818C133.348 38.1818 133.156 38.2282 132.988 38.321C132.821 38.4138 132.69 38.5492 132.593 38.7273C132.496 38.9053 132.448 39.1212 132.448 39.375ZM136.733 43.6364C136.619 43.6364 136.518 43.6269 136.429 43.608C136.34 43.5909 136.278 43.5739 136.244 43.5568L136.415 42.9659C136.578 43.0076 136.722 43.0227 136.847 43.0114C136.972 43 137.082 42.9441 137.179 42.8438C137.277 42.7453 137.367 42.5852 137.449 42.3636L137.574 42.0227L135.96 37.6364H136.688L137.892 41.1136H137.938L139.142 37.6364H139.869L138.017 42.6364C137.934 42.8617 137.83 43.0483 137.707 43.196C137.584 43.3456 137.441 43.4564 137.278 43.5284C137.117 43.6004 136.936 43.6364 136.733 43.6364ZM142.371 42.0909C141.962 42.0909 141.609 41.9943 141.314 41.8011C141.018 41.608 140.791 41.3419 140.632 41.0028C140.473 40.6638 140.393 40.2765 140.393 39.8409C140.393 39.3977 140.475 39.0066 140.638 38.6676C140.803 38.3267 141.032 38.0606 141.325 37.8693C141.621 37.6761 141.965 37.5795 142.359 37.5795C142.666 37.5795 142.943 37.6364 143.189 37.75C143.435 37.8636 143.637 38.0227 143.794 38.2273C143.951 38.4318 144.049 38.6705 144.087 38.9432H143.416C143.365 38.7443 143.251 38.5682 143.075 38.4148C142.901 38.2595 142.666 38.1818 142.371 38.1818C142.109 38.1818 141.88 38.25 141.683 38.3864C141.488 38.5208 141.336 38.7112 141.226 38.9574C141.118 39.2017 141.064 39.4886 141.064 39.8182C141.064 40.1553 141.117 40.4489 141.223 40.6989C141.331 40.9489 141.482 41.143 141.678 41.2812C141.875 41.4195 142.106 41.4886 142.371 41.4886C142.545 41.4886 142.703 41.4583 142.845 41.3977C142.987 41.3371 143.107 41.25 143.206 41.1364C143.304 41.0227 143.375 40.8864 143.416 40.7273H144.087C144.049 40.9848 143.955 41.2169 143.805 41.4233C143.658 41.6278 143.462 41.7907 143.217 41.9119C142.975 42.0312 142.693 42.0909 142.371 42.0909ZM145.737 39.375V42H145.067V36.1818H145.737V38.3182H145.794C145.896 38.0928 146.05 37.9138 146.254 37.7812C146.461 37.6468 146.735 37.5795 147.078 37.5795C147.375 37.5795 147.636 37.6392 147.859 37.7585C148.083 37.8759 148.256 38.0568 148.379 38.3011C148.504 38.5436 148.567 38.8523 148.567 39.2273V42H147.896V39.2727C147.896 38.9261 147.806 38.6581 147.626 38.4688C147.448 38.2775 147.201 38.1818 146.885 38.1818C146.665 38.1818 146.468 38.2282 146.294 38.321C146.122 38.4138 145.985 38.5492 145.885 38.7273C145.786 38.9053 145.737 39.1212 145.737 39.375ZM150.793 41.2045L150.748 41.5114C150.716 41.7273 150.666 41.9583 150.6 42.2045C150.536 42.4508 150.469 42.6828 150.398 42.9006C150.328 43.1184 150.271 43.2917 150.225 43.4205H149.714C149.738 43.2992 149.771 43.1392 149.81 42.9403C149.85 42.7415 149.89 42.5189 149.93 42.2727C149.971 42.0284 150.005 41.7784 150.032 41.5227L150.066 41.2045H150.793ZM25.2841 49.375V52H24.6136V47.6364H25.2614V48.3182H25.3182C25.4205 48.0966 25.5758 47.9186 25.7841 47.7841C25.9924 47.6477 26.2614 47.5795 26.5909 47.5795C26.8864 47.5795 27.1449 47.6402 27.3665 47.7614C27.5881 47.8807 27.7604 48.0625 27.8835 48.3068C28.0066 48.5492 28.0682 48.8561 28.0682 49.2273V52H27.3977V49.2727C27.3977 48.9299 27.3087 48.6629 27.1307 48.4716C26.9527 48.2784 26.7083 48.1818 26.3977 48.1818C26.1837 48.1818 25.9924 48.2282 25.8239 48.321C25.6572 48.4138 25.5256 48.5492 25.429 48.7273C25.3324 48.9053 25.2841 49.1212 25.2841 49.375ZM29.2933 52V47.6364H29.9638V52H29.2933ZM29.6342 46.9091C29.5036 46.9091 29.3909 46.8646 29.2962 46.7756C29.2034 46.6866 29.157 46.5795 29.157 46.4545C29.157 46.3295 29.2034 46.2225 29.2962 46.1335C29.3909 46.0445 29.5036 46 29.6342 46C29.7649 46 29.8767 46.0445 29.9695 46.1335C30.0642 46.2225 30.1115 46.3295 30.1115 46.4545C30.1115 46.5795 30.0642 46.6866 29.9695 46.7756C29.8767 46.8646 29.7649 46.9091 29.6342 46.9091ZM33.0213 52.0909C32.6009 52.0909 32.2382 51.9981 31.9332 51.8125C31.6302 51.625 31.3963 51.3636 31.2315 51.0284C31.0687 50.6913 30.9872 50.2992 30.9872 49.8523C30.9872 49.4053 31.0687 49.0114 31.2315 48.6705C31.3963 48.3277 31.6255 48.0606 31.919 47.8693C32.2145 47.6761 32.5592 47.5795 32.9531 47.5795C33.1804 47.5795 33.4048 47.6174 33.6264 47.6932C33.848 47.7689 34.0497 47.892 34.2315 48.0625C34.4134 48.2311 34.5582 48.4545 34.6662 48.733C34.7741 49.0114 34.8281 49.3542 34.8281 49.7614V50.0455H31.4645V49.4659H34.1463C34.1463 49.2197 34.0971 49 33.9986 48.8068C33.902 48.6136 33.7637 48.4612 33.5838 48.3494C33.4058 48.2377 33.1955 48.1818 32.9531 48.1818C32.6861 48.1818 32.455 48.2481 32.2599 48.3807C32.0668 48.5114 31.9181 48.6818 31.8139 48.892C31.7098 49.1023 31.6577 49.3277 31.6577 49.5682V49.9545C31.6577 50.2841 31.7145 50.5634 31.8281 50.7926C31.9437 51.0199 32.1037 51.1932 32.3082 51.3125C32.5128 51.4299 32.7505 51.4886 33.0213 51.4886C33.1974 51.4886 33.3565 51.464 33.4986 51.4148C33.6425 51.3636 33.7666 51.2879 33.8707 51.1875C33.9749 51.0852 34.0554 50.9583 34.1122 50.8068L34.7599 50.9886C34.6918 51.2083 34.5772 51.4015 34.4162 51.5682C34.2552 51.733 34.0563 51.8617 33.8196 51.9545C33.5829 52.0455 33.3168 52.0909 33.0213 52.0909ZM39.9957 47.6364V48.2045H37.7344V47.6364H39.9957ZM38.3935 46.5909H39.0639V50.75C39.0639 50.9394 39.0914 51.0814 39.1463 51.1761C39.2031 51.2689 39.2751 51.3314 39.3622 51.3636C39.4512 51.3939 39.545 51.4091 39.6435 51.4091C39.7173 51.4091 39.7779 51.4053 39.8253 51.3977C39.8726 51.3883 39.9105 51.3807 39.9389 51.375L40.0753 51.9773C40.0298 51.9943 39.9664 52.0114 39.8849 52.0284C39.8035 52.0473 39.7003 52.0568 39.5753 52.0568C39.3859 52.0568 39.2003 52.0161 39.0185 51.9347C38.8385 51.8532 38.6889 51.7292 38.5696 51.5625C38.4522 51.3958 38.3935 51.1856 38.3935 50.9318V46.5909ZM41.4361 53.6364C41.3224 53.6364 41.2211 53.6269 41.1321 53.608C41.0431 53.5909 40.9815 53.5739 40.9474 53.5568L41.1179 52.9659C41.2808 53.0076 41.4247 53.0227 41.5497 53.0114C41.6747 53 41.7855 52.9441 41.8821 52.8438C41.9806 52.7453 42.0705 52.5852 42.152 52.3636L42.277 52.0227L40.6634 47.6364H41.3906L42.5952 51.1136H42.6406L43.8452 47.6364H44.5724L42.7202 52.6364C42.6368 52.8617 42.5336 53.0483 42.4105 53.196C42.2874 53.3456 42.1444 53.4564 41.9815 53.5284C41.8205 53.6004 41.6387 53.6364 41.4361 53.6364ZM46.1278 46.1818V52H45.4574V46.1818H46.1278ZM47.9808 50.4091L47.9695 49.5795H48.1058L50.0149 47.6364H50.8445L48.8104 49.6932H48.7536L47.9808 50.4091ZM47.3558 52V46.1818H48.0263V52H47.3558ZM50.1286 52L48.424 49.8409L48.9013 49.375L50.9808 52H50.1286ZM53.3004 52.0909C52.9065 52.0909 52.5608 51.9972 52.2635 51.8097C51.968 51.6222 51.737 51.3598 51.5703 51.0227C51.4055 50.6856 51.3232 50.2917 51.3232 49.8409C51.3232 49.3864 51.4055 48.9896 51.5703 48.6506C51.737 48.3116 51.968 48.0483 52.2635 47.8608C52.5608 47.6733 52.9065 47.5795 53.3004 47.5795C53.6944 47.5795 54.0391 47.6733 54.3345 47.8608C54.6319 48.0483 54.8629 48.3116 55.0277 48.6506C55.1944 48.9896 55.2777 49.3864 55.2777 49.8409C55.2777 50.2917 55.1944 50.6856 55.0277 51.0227C54.8629 51.3598 54.6319 51.6222 54.3345 51.8097C54.0391 51.9972 53.6944 52.0909 53.3004 52.0909ZM53.3004 51.4886C53.5997 51.4886 53.8459 51.4119 54.0391 51.2585C54.2322 51.1051 54.3752 50.9034 54.468 50.6534C54.5608 50.4034 54.6072 50.1326 54.6072 49.8409C54.6072 49.5492 54.5608 49.2775 54.468 49.0256C54.3752 48.7737 54.2322 48.5701 54.0391 48.4148C53.8459 48.2595 53.5997 48.1818 53.3004 48.1818C53.0012 48.1818 52.755 48.2595 52.5618 48.4148C52.3686 48.5701 52.2256 48.7737 52.1328 49.0256C52.04 49.2775 51.9936 49.5492 51.9936 49.8409C51.9936 50.1326 52.04 50.4034 52.1328 50.6534C52.2256 50.9034 52.3686 51.1051 52.5618 51.2585C52.755 51.4119 53.0012 51.4886 53.3004 51.4886ZM60.3239 52.0909C59.9299 52.0909 59.5843 51.9972 59.2869 51.8097C58.9915 51.6222 58.7604 51.3598 58.5938 51.0227C58.429 50.6856 58.3466 50.2917 58.3466 49.8409C58.3466 49.3864 58.429 48.9896 58.5938 48.6506C58.7604 48.3116 58.9915 48.0483 59.2869 47.8608C59.5843 47.6733 59.9299 47.5795 60.3239 47.5795C60.7178 47.5795 61.0625 47.6733 61.358 47.8608C61.6553 48.0483 61.8864 48.3116 62.0511 48.6506C62.2178 48.9896 62.3011 49.3864 62.3011 49.8409C62.3011 50.2917 62.2178 50.6856 62.0511 51.0227C61.8864 51.3598 61.6553 51.6222 61.358 51.8097C61.0625 51.9972 60.7178 52.0909 60.3239 52.0909ZM60.3239 51.4886C60.6231 51.4886 60.8693 51.4119 61.0625 51.2585C61.2557 51.1051 61.3987 50.9034 61.4915 50.6534C61.5843 50.4034 61.6307 50.1326 61.6307 49.8409C61.6307 49.5492 61.5843 49.2775 61.4915 49.0256C61.3987 48.7737 61.2557 48.5701 61.0625 48.4148C60.8693 48.2595 60.6231 48.1818 60.3239 48.1818C60.0246 48.1818 59.7784 48.2595 59.5852 48.4148C59.392 48.5701 59.2491 48.7737 59.1562 49.0256C59.0634 49.2775 59.017 49.5492 59.017 49.8409C59.017 50.1326 59.0634 50.4034 59.1562 50.6534C59.2491 50.9034 59.392 51.1051 59.5852 51.2585C59.7784 51.4119 60.0246 51.4886 60.3239 51.4886ZM65.2678 47.6364V48.2045H62.9155V47.6364H65.2678ZM63.62 52V47.0341C63.62 46.7841 63.6787 46.5758 63.7962 46.4091C63.9136 46.2424 64.0661 46.1174 64.2536 46.0341C64.4411 45.9508 64.639 45.9091 64.8473 45.9091C65.0121 45.9091 65.1465 45.9223 65.2507 45.9489C65.3549 45.9754 65.4325 46 65.4837 46.0227L65.2905 46.6023C65.2564 46.5909 65.209 46.5767 65.1484 46.5597C65.0897 46.5426 65.0121 46.5341 64.9155 46.5341C64.6939 46.5341 64.5339 46.59 64.4354 46.7017C64.3388 46.8134 64.2905 46.9773 64.2905 47.1932V52H63.62ZM67.8572 52.0909C67.4368 52.0909 67.0741 51.9981 66.7692 51.8125C66.4661 51.625 66.2322 51.3636 66.0675 51.0284C65.9046 50.6913 65.8232 50.2992 65.8232 49.8523C65.8232 49.4053 65.9046 49.0114 66.0675 48.6705C66.2322 48.3277 66.4614 48.0606 66.755 47.8693C67.0504 47.6761 67.3951 47.5795 67.7891 47.5795C68.0163 47.5795 68.2408 47.6174 68.4624 47.6932C68.6839 47.7689 68.8857 47.892 69.0675 48.0625C69.2493 48.2311 69.3942 48.4545 69.5021 48.733C69.6101 49.0114 69.6641 49.3542 69.6641 49.7614V50.0455H66.3004V49.4659H68.9822C68.9822 49.2197 68.933 49 68.8345 48.8068C68.7379 48.6136 68.5997 48.4612 68.4197 48.3494C68.2417 48.2377 68.0315 48.1818 67.7891 48.1818C67.522 48.1818 67.291 48.2481 67.0959 48.3807C66.9027 48.5114 66.754 48.6818 66.6499 48.892C66.5457 49.1023 66.4936 49.3277 66.4936 49.5682V49.9545C66.4936 50.2841 66.5504 50.5634 66.6641 50.7926C66.7796 51.0199 66.9396 51.1932 67.1442 51.3125C67.3487 51.4299 67.5864 51.4886 67.8572 51.4886C68.0334 51.4886 68.1925 51.464 68.3345 51.4148C68.4785 51.3636 68.6025 51.2879 68.7067 51.1875C68.8108 51.0852 68.8913 50.9583 68.9482 50.8068L69.5959 50.9886C69.5277 51.2083 69.4131 51.4015 69.2521 51.5682C69.0911 51.733 68.8923 51.8617 68.6555 51.9545C68.4188 52.0455 68.1527 52.0909 67.8572 52.0909ZM70.6839 52V47.6364H71.3317V48.2955H71.3771C71.4567 48.0795 71.6006 47.9044 71.8089 47.7699C72.0173 47.6354 72.2521 47.5682 72.5135 47.5682C72.5627 47.5682 72.6243 47.5691 72.6982 47.571C72.772 47.5729 72.8279 47.5758 72.8658 47.5795V48.2614C72.843 48.2557 72.791 48.2472 72.7095 48.2358C72.63 48.2225 72.5457 48.2159 72.4567 48.2159C72.2446 48.2159 72.0552 48.2604 71.8885 48.3494C71.7237 48.4366 71.593 48.5578 71.4964 48.7131C71.4018 48.8665 71.3544 49.0417 71.3544 49.2386V52H70.6839ZM75.8317 47.6364V48.2045H73.5703V47.6364H75.8317ZM74.2294 46.5909H74.8999V50.75C74.8999 50.9394 74.9273 51.0814 74.9822 51.1761C75.0391 51.2689 75.111 51.3314 75.1982 51.3636C75.2872 51.3939 75.3809 51.4091 75.4794 51.4091C75.5533 51.4091 75.6139 51.4053 75.6612 51.3977C75.7086 51.3883 75.7464 51.3807 75.7749 51.375L75.9112 51.9773C75.8658 51.9943 75.8023 52.0114 75.7209 52.0284C75.6394 52.0473 75.5362 52.0568 75.4112 52.0568C75.2218 52.0568 75.0362 52.0161 74.8544 51.9347C74.6745 51.8532 74.5249 51.7292 74.4055 51.5625C74.2881 51.3958 74.2294 51.1856 74.2294 50.9318V46.5909ZM78.5661 52.0909C78.1721 52.0909 77.8265 51.9972 77.5291 51.8097C77.2337 51.6222 77.0026 51.3598 76.8359 51.0227C76.6712 50.6856 76.5888 50.2917 76.5888 49.8409C76.5888 49.3864 76.6712 48.9896 76.8359 48.6506C77.0026 48.3116 77.2337 48.0483 77.5291 47.8608C77.8265 47.6733 78.1721 47.5795 78.5661 47.5795C78.96 47.5795 79.3047 47.6733 79.6001 47.8608C79.8975 48.0483 80.1286 48.3116 80.2933 48.6506C80.46 48.9896 80.5433 49.3864 80.5433 49.8409C80.5433 50.2917 80.46 50.6856 80.2933 51.0227C80.1286 51.3598 79.8975 51.6222 79.6001 51.8097C79.3047 51.9972 78.96 52.0909 78.5661 52.0909ZM78.5661 51.4886C78.8653 51.4886 79.1115 51.4119 79.3047 51.2585C79.4979 51.1051 79.6409 50.9034 79.7337 50.6534C79.8265 50.4034 79.8729 50.1326 79.8729 49.8409C79.8729 49.5492 79.8265 49.2775 79.7337 49.0256C79.6409 48.7737 79.4979 48.5701 79.3047 48.4148C79.1115 48.2595 78.8653 48.1818 78.5661 48.1818C78.2668 48.1818 78.0206 48.2595 77.8274 48.4148C77.6342 48.5701 77.4912 48.7737 77.3984 49.0256C77.3056 49.2775 77.2592 49.5492 77.2592 49.8409C77.2592 50.1326 77.3056 50.4034 77.3984 50.6534C77.4912 50.9034 77.6342 51.1051 77.8274 51.2585C78.0206 51.4119 78.2668 51.4886 78.5661 51.4886ZM82.407 52L81.0774 47.6364H81.782L82.7251 50.9773H82.7706L83.7024 47.6364H84.4183L85.3388 50.9659H85.3842L86.3274 47.6364H87.032L85.7024 52H85.0433L84.0888 48.6477H84.0206L83.0661 52H82.407ZM88.3501 53.6364C88.2365 53.6364 88.1352 53.6269 88.0462 53.608C87.9571 53.5909 87.8956 53.5739 87.8615 53.5568L88.032 52.9659C88.1948 53.0076 88.3388 53.0227 88.4638 53.0114C88.5888 53 88.6996 52.9441 88.7962 52.8438C88.8946 52.7453 88.9846 52.5852 89.0661 52.3636L89.1911 52.0227L87.5774 47.6364H88.3047L89.5092 51.1136H89.5547L90.7592 47.6364H91.4865L89.6342 52.6364C89.5509 52.8617 89.4477 53.0483 89.3246 53.196C89.2015 53.3456 89.0585 53.4564 88.8956 53.5284C88.7346 53.6004 88.5528 53.6364 88.3501 53.6364ZM93.9879 52.0909C93.5788 52.0909 93.2266 51.9943 92.9311 51.8011C92.6357 51.608 92.4084 51.3419 92.2493 51.0028C92.0902 50.6638 92.0107 50.2765 92.0107 49.8409C92.0107 49.3977 92.0921 49.0066 92.255 48.6676C92.4197 48.3267 92.6489 48.0606 92.9425 47.8693C93.2379 47.6761 93.5826 47.5795 93.9766 47.5795C94.2834 47.5795 94.5599 47.6364 94.8061 47.75C95.0523 47.8636 95.254 48.0227 95.4112 48.2273C95.5684 48.4318 95.666 48.6705 95.7038 48.9432H95.0334C94.9822 48.7443 94.8686 48.5682 94.6925 48.4148C94.5182 48.2595 94.2834 48.1818 93.9879 48.1818C93.7266 48.1818 93.4974 48.25 93.3004 48.3864C93.1054 48.5208 92.9529 48.7112 92.843 48.9574C92.7351 49.2017 92.6811 49.4886 92.6811 49.8182C92.6811 50.1553 92.7341 50.4489 92.8402 50.6989C92.9482 50.9489 93.0997 51.143 93.2947 51.2812C93.4917 51.4195 93.7228 51.4886 93.9879 51.4886C94.1622 51.4886 94.3203 51.4583 94.4624 51.3977C94.6044 51.3371 94.7247 51.25 94.8232 51.1364C94.9216 51.0227 94.9917 50.8864 95.0334 50.7273H95.7038C95.666 50.9848 95.5722 51.2169 95.4226 51.4233C95.2749 51.6278 95.0788 51.7907 94.8345 51.9119C94.5921 52.0312 94.3099 52.0909 93.9879 52.0909ZM97.3544 49.375V52H96.6839V46.1818H97.3544V48.3182H97.4112C97.5135 48.0928 97.6669 47.9138 97.8714 47.7812C98.0779 47.6468 98.3525 47.5795 98.6953 47.5795C98.9927 47.5795 99.2531 47.6392 99.4766 47.7585C99.7 47.8759 99.8733 48.0568 99.9964 48.3011C100.121 48.5436 100.184 48.8523 100.184 49.2273V52H99.5135V49.2727C99.5135 48.9261 99.4235 48.6581 99.2436 48.4688C99.0656 48.2775 98.8184 48.1818 98.5021 48.1818C98.2824 48.1818 98.0855 48.2282 97.9112 48.321C97.7389 48.4138 97.6025 48.5492 97.5021 48.7273C97.4036 48.9053 97.3544 49.1212 97.3544 49.375Z" fill="#D0D0D0"/>
<mask id="path-5-inside-2_6306_10250" fill="white">
<path d="M192 31C192 20.5066 200.507 12 211 12C221.493 12 230 20.5066 230 31C230 41.4934 221.493 50 211 50C200.507 50 192 41.4934 192 31Z"/>
</mask>
<path d="M192 31C192 20.5066 200.507 12 211 12C221.493 12 230 20.5066 230 31C230 41.4934 221.493 50 211 50C200.507 50 192 41.4934 192 31Z" fill="url(#paint1_linear_6306_10250)"/>
<path d="M191 30.5C191 19.7304 199.73 11 210.5 11H211.5C222.27 11 231 19.7304 231 30.5L229 31C229 21.0589 220.941 13 211 13C201.059 13 193 21.0589 193 31L191 30.5ZM230 50H192H230ZM210.5 50C199.73 50 191 41.2696 191 30.5C191 19.7304 199.73 11 210.5 11L211 13C201.059 13 193 21.0589 193 31C193 41.4934 201.059 50 211 50H210.5ZM211.5 11C222.27 11 231 19.7304 231 30.5C231 41.2696 222.27 50 211.5 50H211C220.941 50 229 41.4934 229 31C229 21.0589 220.941 13 211 13L211.5 11Z" fill="white" fill-opacity="0.1" mask="url(#path-5-inside-2_6306_10250)"/>
<path d="M201.686 30.946C201.686 27.81 203.31 25.682 205.858 25.682C208.392 25.682 210.016 27.81 210.016 30.946C210.016 34.096 208.462 36.182 205.858 36.182C203.24 36.182 201.686 34.096 201.686 30.946ZM203.044 30.946C203.044 33.438 204.08 34.95 205.858 34.95C207.636 34.95 208.658 33.438 208.658 30.946C208.658 28.426 207.636 26.914 205.858 26.914C204.08 26.914 203.044 28.426 203.044 30.946ZM216.573 36H211.239V34.936L214.935 30.26H211.239V29.154H216.573V30.232L212.849 34.894H216.573V36ZM219.401 36H218.085V31.436L217.273 31.828V30.834L218.085 30.442V25.696H219.401V29.812L220.227 29.42V30.414L219.401 30.806V36Z" fill="white"/>
<defs>
<linearGradient id="paint0_linear_6306_10250" x1="119.967" y1="31.0151" x2="105.537" y2="-49.304" gradientUnits="userSpaceOnUse">
<stop stop-color="#1B1B1C"/>
<stop offset="1" stop-color="#FAAC79" stop-opacity="0.1"/>
</linearGradient>
<linearGradient id="paint1_linear_6306_10250" x1="211.154" y1="31.0093" x2="187.404" y2="-3.42822" gradientUnits="userSpaceOnUse">
<stop stop-color="#1B1B1C"/>
<stop offset="1" stop-color="#FAAC79" stop-opacity="0.1"/>
</linearGradient>
</defs>
</svg>
