<svg width="284" height="78" viewBox="0 0 284 78" fill="none" xmlns="http://www.w3.org/2000/svg">
<mask id="path-1-inside-1_6306_10250" fill="white">
<path d="M0 39C0 17.4609 17.4609 0 39 0H245C266.539 0 284 17.4609 284 39C284 60.5391 266.539 78 245 78H39C17.4609 78 0 60.5391 0 39Z"/>
</mask>
<path d="M0 39C0 17.4609 17.4609 0 39 0H245C266.539 0 284 17.4609 284 39C284 60.5391 266.539 78 245 78H39C17.4609 78 0 60.5391 0 39Z" fill="url(#paint0_linear_6306_10250)"/>
<path d="M0 39C0 16.9086 17.9086 -1 40 -1H245.5C267.315 -1 285 16.6848 285 38.5L283 39C283 18.0132 265.987 1 245 1H39C17.4609 1 0 18.0132 0 39ZM284 78H0H284ZM0 78V0V78ZM245.5 -1C267.315 -1 285 16.6848 285 38.5C285 60.3152 267.315 78 245.5 78H245C265.987 78 283 60.5391 283 39C283 18.0132 265.987 1 245 1L245.5 -1Z" fill="white" fill-opacity="0.1" mask="url(#path-1-inside-1_6306_10250)"/>
<path d="M40.522 24H37.176V13.878H40.466C43.49 13.878 45.534 15.922 45.534 18.946C45.534 21.956 43.518 24 40.522 24ZM40.368 15.138H38.548V22.726H40.424C42.678 22.726 44.106 21.27 44.106 18.946C44.106 16.594 42.678 15.138 40.368 15.138ZM49.0575 24.168C47.5875 24.168 46.7195 23.342 46.7195 22.096C46.7195 20.836 47.6575 20.052 49.2675 19.926L51.4235 19.758V19.562C51.4235 18.414 50.7375 18.008 49.8135 18.008C48.7075 18.008 48.0775 18.498 48.0775 19.324H46.9295C46.9295 17.896 48.1055 16.958 49.8695 16.958C51.5635 16.958 52.7115 17.854 52.7115 19.702V24H51.5915L51.4515 22.894C51.1015 23.678 50.1635 24.168 49.0575 24.168ZM49.4355 23.146C50.6815 23.146 51.4375 22.334 51.4375 21.046V20.682L49.6875 20.822C48.5255 20.934 48.0495 21.382 48.0495 22.054C48.0495 22.782 48.5815 23.146 49.4355 23.146ZM58.454 17.098V18.302H57.866C56.62 18.302 55.85 19.058 55.85 20.374V24H54.534V17.168H55.766L55.85 18.204C56.13 17.49 56.816 17.014 57.754 17.014C57.992 17.014 58.188 17.042 58.454 17.098ZM61.0043 24H59.6883V17.154H60.8643L60.9903 18.05C61.3403 17.406 62.0683 16.958 63.0343 16.958C64.0983 16.958 64.8543 17.49 65.2043 18.344C65.5263 17.49 66.3523 16.958 67.4163 16.958C68.9843 16.958 69.9363 17.938 69.9363 19.52V24H68.6483V19.842C68.6483 18.764 68.0463 18.148 67.1223 18.148C66.1283 18.148 65.4703 18.848 65.4703 19.94V24H64.1683V19.828C64.1683 18.75 63.5803 18.162 62.6563 18.162C61.6623 18.162 61.0043 18.848 61.0043 19.94V24ZM71.3126 20.57C71.3126 18.456 72.8246 16.972 74.8826 16.972C76.9266 16.972 78.4386 18.456 78.4386 20.57C78.4386 22.684 76.9266 24.168 74.8826 24.168C72.8246 24.168 71.3126 22.684 71.3126 20.57ZM72.6426 20.57C72.6426 21.998 73.5526 22.992 74.8826 22.992C76.1986 22.992 77.1226 21.998 77.1226 20.57C77.1226 19.142 76.1986 18.148 74.8826 18.148C73.5526 18.148 72.6426 19.142 72.6426 20.57ZM81.0509 24L78.8109 17.154H80.1689L81.3029 20.71C81.4569 21.214 81.5969 21.732 81.7229 22.334C81.8349 21.732 82.0169 21.158 82.1709 20.71L83.3189 17.154H84.6629L85.7969 20.71C85.9089 21.046 86.1329 21.844 86.2449 22.334C86.3569 21.788 86.4829 21.312 86.6789 20.71L87.8269 17.154H89.1989L86.8609 24H85.6149L84.4249 20.332C84.2009 19.646 84.0609 19.114 83.9909 18.736C83.9209 19.072 83.7949 19.52 83.5429 20.346L82.3529 24H81.0509ZM92.0145 24.168C90.5445 24.168 89.6765 23.342 89.6765 22.096C89.6765 20.836 90.6145 20.052 92.2245 19.926L94.3805 19.758V19.562C94.3805 18.414 93.6945 18.008 92.7705 18.008C91.6645 18.008 91.0345 18.498 91.0345 19.324H89.8865C89.8865 17.896 91.0625 16.958 92.8265 16.958C94.5205 16.958 95.6685 17.854 95.6685 19.702V24H94.5485L94.4085 22.894C94.0585 23.678 93.1205 24.168 92.0145 24.168ZM92.3925 23.146C93.6385 23.146 94.3945 22.334 94.3945 21.046V20.682L92.6445 20.822C91.4825 20.934 91.0065 21.382 91.0065 22.054C91.0065 22.782 91.5385 23.146 92.3925 23.146ZM103.321 24.168C101.851 24.168 100.983 23.342 100.983 22.096C100.983 20.836 101.921 20.052 103.531 19.926L105.687 19.758V19.562C105.687 18.414 105.001 18.008 104.077 18.008C102.971 18.008 102.341 18.498 102.341 19.324H101.193C101.193 17.896 102.369 16.958 104.133 16.958C105.827 16.958 106.975 17.854 106.975 19.702V24H105.855L105.715 22.894C105.365 23.678 104.427 24.168 103.321 24.168ZM103.699 23.146C104.945 23.146 105.701 22.334 105.701 21.046V20.682L103.951 20.822C102.789 20.934 102.313 21.382 102.313 22.054C102.313 22.782 102.845 23.146 103.699 23.146ZM110.142 24H108.826V13.696H110.142V20.374L113.18 17.154H114.832L112.214 19.884L114.818 24H113.306L111.304 20.836L110.142 22.054V24ZM117.839 24H116.523V18.26H115.179V17.154H116.523V15.012H117.839V17.154H119.183V18.26H117.839V24ZM125.096 17.154H126.398V24H125.222L125.082 22.964C124.69 23.678 123.78 24.168 122.772 24.168C121.176 24.168 120.28 23.09 120.28 21.41V17.154H121.596V20.976C121.596 22.446 122.226 23.006 123.234 23.006C124.438 23.006 125.096 22.236 125.096 20.766V17.154ZM130.309 24.168C128.839 24.168 127.971 23.342 127.971 22.096C127.971 20.836 128.909 20.052 130.519 19.926L132.675 19.758V19.562C132.675 18.414 131.989 18.008 131.065 18.008C129.959 18.008 129.329 18.498 129.329 19.324H128.181C128.181 17.896 129.357 16.958 131.121 16.958C132.815 16.958 133.963 17.854 133.963 19.702V24H132.843L132.703 22.894C132.353 23.678 131.415 24.168 130.309 24.168ZM130.687 23.146C131.933 23.146 132.689 22.334 132.689 21.046V20.682L130.939 20.822C129.777 20.934 129.301 21.382 129.301 22.054C129.301 22.782 129.833 23.146 130.687 23.146ZM137.13 24H135.814V13.696H137.13V24ZM139.711 15.53C139.235 15.53 138.843 15.138 138.843 14.662C138.843 14.172 139.235 13.794 139.711 13.794C140.187 13.794 140.579 14.172 140.579 14.662C140.579 15.138 140.187 15.53 139.711 15.53ZM139.067 24V17.154H140.383V24H139.067ZM147.208 24H141.874V22.936L145.57 18.26H141.874V17.154H147.208V18.232L143.484 22.894H147.208V24ZM150.694 24.168C149.224 24.168 148.356 23.342 148.356 22.096C148.356 20.836 149.294 20.052 150.904 19.926L153.06 19.758V19.562C153.06 18.414 152.374 18.008 151.45 18.008C150.344 18.008 149.714 18.498 149.714 19.324H148.566C148.566 17.896 149.742 16.958 151.506 16.958C153.2 16.958 154.348 17.854 154.348 19.702V24H153.228L153.088 22.894C152.738 23.678 151.8 24.168 150.694 24.168ZM151.072 23.146C152.318 23.146 153.074 22.334 153.074 21.046V20.682L151.324 20.822C150.162 20.934 149.686 21.382 149.686 22.054C149.686 22.782 150.218 23.146 151.072 23.146ZM155.723 20.584C155.723 18.442 157.081 16.958 159.083 16.958C160.805 16.958 162.009 17.938 162.247 19.464H160.931C160.707 18.596 160.007 18.134 159.125 18.134C157.879 18.134 157.025 19.086 157.025 20.57C157.025 22.04 157.823 22.992 159.069 22.992C160.007 22.992 160.707 22.502 160.945 21.69H162.261C161.995 23.174 160.721 24.168 159.069 24.168C157.053 24.168 155.723 22.74 155.723 20.584ZM164.307 15.53C163.817 15.53 163.439 15.138 163.439 14.662C163.439 14.172 163.817 13.794 164.307 13.794C164.769 13.794 165.175 14.172 165.175 14.662C165.175 15.138 164.769 15.53 164.307 15.53ZM161.913 27.108L162.137 25.918C162.403 25.988 162.557 26.016 162.767 26.016C163.397 26.016 163.649 25.652 163.649 24.882V17.154H164.965V25.008C164.965 26.38 164.209 27.234 162.879 27.234C162.529 27.234 162.305 27.22 161.913 27.108ZM168.878 24.168C167.408 24.168 166.54 23.342 166.54 22.096C166.54 20.836 167.478 20.052 169.088 19.926L171.244 19.758V19.562C171.244 18.414 170.558 18.008 169.634 18.008C168.528 18.008 167.898 18.498 167.898 19.324H166.75C166.75 17.896 167.926 16.958 169.69 16.958C171.384 16.958 172.532 17.854 172.532 19.702V24H171.412L171.272 22.894C170.922 23.678 169.984 24.168 168.878 24.168ZM169.256 23.146C170.502 23.146 171.258 22.334 171.258 21.046V20.682L169.508 20.822C168.346 20.934 167.87 21.382 167.87 22.054C167.87 22.782 168.402 23.146 169.256 23.146ZM178.182 27.066V17.154H179.372L179.47 18.386C179.932 17.448 180.856 16.958 181.948 16.958C183.908 16.958 185.126 18.428 185.126 20.528C185.126 22.614 183.978 24.182 181.948 24.182C180.856 24.182 179.946 23.72 179.498 22.88V27.066H178.182ZM179.512 20.584C179.512 21.984 180.324 22.992 181.668 22.992C183.012 22.992 183.81 21.984 183.81 20.584C183.81 19.17 183.012 18.162 181.668 18.162C180.324 18.162 179.512 19.156 179.512 20.584ZM188.579 24.168C187.109 24.168 186.241 23.342 186.241 22.096C186.241 20.836 187.179 20.052 188.789 19.926L190.945 19.758V19.562C190.945 18.414 190.259 18.008 189.335 18.008C188.229 18.008 187.599 18.498 187.599 19.324H186.451C186.451 17.896 187.627 16.958 189.391 16.958C191.085 16.958 192.233 17.854 192.233 19.702V24H191.113L190.973 22.894C190.623 23.678 189.685 24.168 188.579 24.168ZM188.957 23.146C190.203 23.146 190.959 22.334 190.959 21.046V20.682L189.209 20.822C188.047 20.934 187.571 21.382 187.571 22.054C187.571 22.782 188.103 23.146 188.957 23.146ZM195.372 24H194.056V17.154H195.246L195.386 18.204C195.82 17.42 196.688 16.958 197.654 16.958C199.46 16.958 200.286 18.064 200.286 19.814V24H198.97V20.108C198.97 18.722 198.326 18.162 197.318 18.162C196.086 18.162 195.372 19.044 195.372 20.374V24ZM205.062 24.168C203.046 24.168 201.66 22.712 201.66 20.584C201.66 18.442 203.018 16.958 205.006 16.958C206.952 16.958 208.226 18.302 208.226 20.332V20.822L202.934 20.836C203.032 22.278 203.788 23.076 205.09 23.076C206.112 23.076 206.784 22.656 207.008 21.872H208.24C207.904 23.342 206.756 24.168 205.062 24.168ZM205.006 18.064C203.858 18.064 203.13 18.75 202.962 19.954H206.91C206.91 18.82 206.168 18.064 205.006 18.064ZM211.04 24H209.724V13.696H211.04V24ZM217.709 17.154H219.011V24H217.835L217.695 22.964C217.303 23.678 216.393 24.168 215.385 24.168C213.789 24.168 212.893 23.09 212.893 21.41V17.154H214.209V20.976C214.209 22.446 214.839 23.006 215.847 23.006C217.051 23.006 217.709 22.236 217.709 20.766V17.154Z" fill="white"/>
<path d="M39.6648 32.7273H40.5455V37.9261C40.5455 38.3902 40.4602 38.7843 40.2898 39.1087C40.1193 39.433 39.879 39.6792 39.5689 39.8473C39.2588 40.0154 38.893 40.0994 38.4716 40.0994C38.0739 40.0994 37.7199 40.0272 37.4098 39.8828C37.0997 39.736 36.8558 39.5277 36.6783 39.2578C36.5007 38.9879 36.4119 38.6671 36.4119 38.2955H37.2784C37.2784 38.5014 37.3293 38.6813 37.4311 38.8352C37.5353 38.9867 37.6773 39.1051 37.8572 39.1903C38.0372 39.2756 38.242 39.3182 38.4716 39.3182C38.7249 39.3182 38.9403 39.2649 39.1179 39.1584C39.2955 39.0518 39.4304 38.8956 39.5227 38.6896C39.6174 38.4813 39.6648 38.2268 39.6648 37.9261V32.7273ZM44.4837 40.1136C43.9581 40.1136 43.5047 39.9976 43.1236 39.7656C42.7448 39.5312 42.4524 39.2045 42.2464 38.7855C42.0429 38.3641 41.9411 37.8741 41.9411 37.3153C41.9411 36.7566 42.0429 36.2642 42.2464 35.8381C42.4524 35.4096 42.7389 35.0758 43.1058 34.8366C43.4751 34.5952 43.906 34.4744 44.3984 34.4744C44.6825 34.4744 44.9631 34.5218 45.2401 34.6165C45.517 34.7112 45.7692 34.8651 45.9964 35.0781C46.2237 35.2888 46.4048 35.5682 46.5398 35.9162C46.6747 36.2642 46.7422 36.6927 46.7422 37.2017V37.5568H42.5376V36.8324H45.8899C45.8899 36.5246 45.8284 36.25 45.7053 36.0085C45.5845 35.767 45.4117 35.5765 45.1868 35.4368C44.9643 35.2971 44.7015 35.2273 44.3984 35.2273C44.0646 35.2273 43.7758 35.3101 43.532 35.4759C43.2905 35.6392 43.1046 35.8523 42.9744 36.1151C42.8442 36.3778 42.7791 36.6596 42.7791 36.9602V37.4432C42.7791 37.8551 42.8501 38.2043 42.9922 38.4908C43.1366 38.7749 43.3366 38.9915 43.5923 39.1406C43.848 39.2874 44.1451 39.3608 44.4837 39.3608C44.7038 39.3608 44.9027 39.33 45.0803 39.2685C45.2602 39.2045 45.4152 39.1098 45.5455 38.9844C45.6757 38.8565 45.7763 38.6979 45.8473 38.5085L46.657 38.7358C46.5717 39.0104 46.4285 39.2519 46.2273 39.4602C46.026 39.6662 45.7775 39.8272 45.4815 39.9432C45.1856 40.0568 44.853 40.1136 44.4837 40.1136ZM51.8807 35.767L51.1278 35.9801C51.0805 35.8546 51.0107 35.7327 50.9183 35.6143C50.8284 35.4936 50.7053 35.3942 50.549 35.3161C50.3928 35.2379 50.1927 35.1989 49.9489 35.1989C49.6151 35.1989 49.3369 35.2758 49.1143 35.4297C48.8942 35.5812 48.7841 35.7741 48.7841 36.0085C48.7841 36.2169 48.8598 36.3814 49.0114 36.5021C49.1629 36.6229 49.3996 36.7235 49.7216 36.804L50.5312 37.0028C51.0189 37.1212 51.3823 37.3023 51.6214 37.5462C51.8606 37.7876 51.9801 38.099 51.9801 38.4801C51.9801 38.7926 51.8902 39.072 51.7102 39.3182C51.5327 39.5644 51.2841 39.7585 50.9645 39.9006C50.6449 40.0426 50.2732 40.1136 49.8494 40.1136C49.2931 40.1136 48.8326 39.9929 48.468 39.7514C48.1035 39.5099 47.8726 39.1572 47.7756 38.6932L48.571 38.4943C48.6468 38.7879 48.79 39.008 49.0007 39.1548C49.2138 39.3016 49.492 39.375 49.8352 39.375C50.2259 39.375 50.536 39.2921 50.7656 39.1264C50.9976 38.9583 51.1136 38.7571 51.1136 38.5227C51.1136 38.3333 51.0473 38.1747 50.9148 38.0469C50.7822 37.9167 50.5786 37.8196 50.304 37.7557L49.3949 37.5426C48.8954 37.4242 48.5284 37.2408 48.294 36.9922C48.062 36.7412 47.946 36.4276 47.946 36.0511C47.946 35.7434 48.0324 35.4711 48.2053 35.2344C48.3804 34.9976 48.6184 34.8118 48.919 34.6768C49.2221 34.5419 49.5653 34.4744 49.9489 34.4744C50.4886 34.4744 50.9124 34.5928 51.2202 34.8295C51.5303 35.0663 51.7505 35.3788 51.8807 35.767ZM49.5653 33.8068L50.4318 32.1591H51.4119L50.304 33.8068H49.5653ZM54.0797 32.7273V40H53.2417V32.7273H54.0797ZM55.6147 40V34.5455H56.4528V40H55.6147ZM56.0408 33.6364C55.8775 33.6364 55.7366 33.5807 55.6183 33.4695C55.5022 33.3582 55.4442 33.2244 55.4442 33.0682C55.4442 32.9119 55.5022 32.7782 55.6183 32.6669C55.7366 32.5556 55.8775 32.5 56.0408 32.5C56.2042 32.5 56.3439 32.5556 56.4599 32.6669C56.5782 32.7782 56.6374 32.9119 56.6374 33.0682C56.6374 33.2244 56.5782 33.3582 56.4599 33.4695C56.3439 33.5807 56.2042 33.6364 56.0408 33.6364ZM64.6639 35.767L63.911 35.9801C63.8637 35.8546 63.7939 35.7327 63.7015 35.6143C63.6116 35.4936 63.4885 35.3942 63.3322 35.3161C63.176 35.2379 62.9759 35.1989 62.7321 35.1989C62.3983 35.1989 62.1201 35.2758 61.8975 35.4297C61.6774 35.5812 61.5673 35.7741 61.5673 36.0085C61.5673 36.2169 61.6431 36.3814 61.7946 36.5021C61.9461 36.6229 62.1828 36.7235 62.5048 36.804L63.3145 37.0028C63.8021 37.1212 64.1655 37.3023 64.4047 37.5462C64.6438 37.7876 64.7633 38.099 64.7633 38.4801C64.7633 38.7926 64.6734 39.072 64.4934 39.3182C64.3159 39.5644 64.0673 39.7585 63.7477 39.9006C63.4281 40.0426 63.0564 40.1136 62.6326 40.1136C62.0763 40.1136 61.6158 39.9929 61.2512 39.7514C60.8867 39.5099 60.6558 39.1572 60.5588 38.6932L61.3542 38.4943C61.43 38.7879 61.5732 39.008 61.7839 39.1548C61.997 39.3016 62.2752 39.375 62.6184 39.375C63.0091 39.375 63.3192 39.2921 63.5488 39.1264C63.7808 38.9583 63.8968 38.7571 63.8968 38.5227C63.8968 38.3333 63.8306 38.1747 63.698 38.0469C63.5654 37.9167 63.3618 37.8196 63.0872 37.7557L62.1781 37.5426C61.6786 37.4242 61.3116 37.2408 61.0772 36.9922C60.8452 36.7412 60.7292 36.4276 60.7292 36.0511C60.7292 35.7434 60.8156 35.4711 60.9885 35.2344C61.1636 34.9976 61.4016 34.8118 61.7022 34.6768C62.0053 34.5419 62.3485 34.4744 62.7321 34.4744C63.2718 34.4744 63.6956 34.5928 64.0034 34.8295C64.3135 35.0663 64.5337 35.3788 64.6639 35.767ZM68.3118 40.1136C67.7862 40.1136 67.3329 39.9976 66.9517 39.7656C66.5729 39.5312 66.2805 39.2045 66.0746 38.7855C65.871 38.3641 65.7692 37.8741 65.7692 37.3153C65.7692 36.7566 65.871 36.2642 66.0746 35.8381C66.2805 35.4096 66.567 35.0758 66.9339 34.8366C67.3033 34.5952 67.7341 34.4744 68.2266 34.4744C68.5107 34.4744 68.7912 34.5218 69.0682 34.6165C69.3452 34.7112 69.5973 34.8651 69.8246 35.0781C70.0518 35.2888 70.233 35.5682 70.3679 35.9162C70.5028 36.2642 70.5703 36.6927 70.5703 37.2017V37.5568H66.3658V36.8324H69.718C69.718 36.5246 69.6565 36.25 69.5334 36.0085C69.4126 35.767 69.2398 35.5765 69.0149 35.4368C68.7924 35.2971 68.5296 35.2273 68.2266 35.2273C67.8928 35.2273 67.6039 35.3101 67.3601 35.4759C67.1186 35.6392 66.9328 35.8523 66.8026 36.1151C66.6723 36.3778 66.6072 36.6596 66.6072 36.9602V37.4432C66.6072 37.8551 66.6783 38.2043 66.8203 38.4908C66.9647 38.7749 67.1648 38.9915 67.4205 39.1406C67.6761 39.2874 67.9732 39.3608 68.3118 39.3608C68.532 39.3608 68.7308 39.33 68.9084 39.2685C69.0883 39.2045 69.2434 39.1098 69.3736 38.9844C69.5038 38.8565 69.6044 38.6979 69.6754 38.5085L70.4851 38.7358C70.3999 39.0104 70.2566 39.2519 70.0554 39.4602C69.8542 39.6662 69.6056 39.8272 69.3097 39.9432C69.0137 40.0568 68.6811 40.1136 68.3118 40.1136ZM71.8452 34.5455H72.6832V40.3977C72.6832 40.7339 72.6252 41.0251 72.5092 41.2713C72.3956 41.5175 72.2228 41.7081 71.9908 41.843C71.7611 41.978 71.4711 42.0455 71.1207 42.0455C71.0923 42.0455 71.0639 42.0455 71.0355 42.0455C71.0071 42.0455 70.9787 42.0455 70.9503 42.0455V41.2642C70.9787 41.2642 71.0047 41.2642 71.0284 41.2642C71.0521 41.2642 71.0781 41.2642 71.1065 41.2642C71.3622 41.2642 71.5492 41.1884 71.6676 41.0369C71.786 40.8878 71.8452 40.6747 71.8452 40.3977V34.5455ZM72.2571 33.6364C72.0938 33.6364 71.9529 33.5807 71.8345 33.4695C71.7185 33.3582 71.6605 33.2244 71.6605 33.0682C71.6605 32.9119 71.7185 32.7782 71.8345 32.6669C71.9529 32.5556 72.0938 32.5 72.2571 32.5C72.4205 32.5 72.5601 32.5556 72.6761 32.6669C72.7945 32.7782 72.8537 32.9119 72.8537 33.0682C72.8537 33.2244 72.7945 33.3582 72.6761 33.4695C72.5601 33.5807 72.4205 33.6364 72.2571 33.6364ZM74.2182 40V34.5455H75.0279V35.3977H75.0989C75.2125 35.1065 75.396 34.8804 75.6493 34.7195C75.9026 34.5561 76.2069 34.4744 76.562 34.4744C76.9218 34.4744 77.2213 34.5561 77.4604 34.7195C77.7019 34.8804 77.8901 35.1065 78.025 35.3977H78.0819C78.2215 35.116 78.431 34.8923 78.7104 34.7266C78.9898 34.5585 79.3248 34.4744 79.7154 34.4744C80.2031 34.4744 80.602 34.6271 80.9121 34.9325C81.2222 35.2356 81.3773 35.7079 81.3773 36.3494V40H80.5392V36.3494C80.5392 35.947 80.4292 35.6593 80.209 35.4865C79.9888 35.3137 79.7296 35.2273 79.4313 35.2273C79.0478 35.2273 78.7507 35.3433 78.54 35.5753C78.3292 35.8049 78.2239 36.0961 78.2239 36.4489V40H77.3716V36.2642C77.3716 35.9541 77.271 35.7043 77.0698 35.5149C76.8685 35.3232 76.6093 35.2273 76.2921 35.2273C76.0743 35.2273 75.8707 35.2853 75.6813 35.4013C75.4943 35.5173 75.3427 35.6783 75.2267 35.8842C75.1131 36.0878 75.0563 36.3234 75.0563 36.5909V40H74.2182ZM87.7818 40.1136C87.3272 40.1136 86.926 39.9988 86.5779 39.7692C86.2299 39.5372 85.9577 39.2105 85.7612 38.7891C85.5647 38.3653 85.4664 37.8646 85.4664 37.2869C85.4664 36.714 85.5647 36.2169 85.7612 35.7955C85.9577 35.3741 86.2311 35.0485 86.5815 34.8189C86.9319 34.5893 87.3367 34.4744 87.796 34.4744C88.1511 34.4744 88.4316 34.5336 88.6376 34.652C88.8459 34.768 89.0046 34.9006 89.1135 35.0497C89.2247 35.1965 89.3111 35.3172 89.3727 35.4119H89.4437V32.7273H90.2818V40H89.4721V39.1619H89.3727C89.3111 39.2614 89.2235 39.3868 89.1099 39.5384C88.9963 39.6875 88.8341 39.8213 88.6234 39.9396C88.4127 40.0556 88.1322 40.1136 87.7818 40.1136ZM87.8954 39.3608C88.2316 39.3608 88.5157 39.2732 88.7477 39.098C88.9797 38.9205 89.1561 38.6754 89.2768 38.3629C89.3975 38.0481 89.4579 37.6847 89.4579 37.2727C89.4579 36.8655 89.3987 36.5092 89.2804 36.2038C89.162 35.8961 88.9868 35.657 88.7548 35.4865C88.5228 35.3137 88.2363 35.2273 87.8954 35.2273C87.5403 35.2273 87.2444 35.3184 87.0076 35.5007C86.7733 35.6806 86.5969 35.9257 86.4785 36.2358C86.3625 36.5436 86.3045 36.8892 86.3045 37.2727C86.3045 37.661 86.3637 38.0137 86.4821 38.331C86.6028 38.6458 86.7804 38.8968 87.0147 39.0838C87.2515 39.2685 87.545 39.3608 87.8954 39.3608ZM94.149 40.1136C93.6565 40.1136 93.2245 39.9964 92.8528 39.7621C92.4835 39.5277 92.1947 39.1998 91.9863 38.7784C91.7804 38.357 91.6774 37.8646 91.6774 37.3011C91.6774 36.733 91.7804 36.237 91.9863 35.8132C92.1947 35.3894 92.4835 35.0604 92.8528 34.826C93.2245 34.5916 93.6565 34.4744 94.149 34.4744C94.6414 34.4744 95.0723 34.5916 95.4416 34.826C95.8133 35.0604 96.1021 35.3894 96.3081 35.8132C96.5164 36.237 96.6206 36.733 96.6206 37.3011C96.6206 37.8646 96.5164 38.357 96.3081 38.7784C96.1021 39.1998 95.8133 39.5277 95.4416 39.7621C95.0723 39.9964 94.6414 40.1136 94.149 40.1136ZM94.149 39.3608C94.523 39.3608 94.8308 39.2649 95.0723 39.0732C95.3137 38.8814 95.4925 38.6293 95.6085 38.3168C95.7245 38.0043 95.7825 37.6657 95.7825 37.3011C95.7825 36.9366 95.7245 36.5968 95.6085 36.282C95.4925 35.9671 95.3137 35.7126 95.0723 35.5185C94.8308 35.3243 94.523 35.2273 94.149 35.2273C93.7749 35.2273 93.4672 35.3243 93.2257 35.5185C92.9842 35.7126 92.8055 35.9671 92.6895 36.282C92.5734 36.5968 92.5154 36.9366 92.5154 37.3011C92.5154 37.6657 92.5734 38.0043 92.6895 38.3168C92.8055 38.6293 92.9842 38.8814 93.2257 39.0732C93.4672 39.2649 93.7749 39.3608 94.149 39.3608ZM99.9595 40.1136C99.505 40.1136 99.1037 39.9988 98.7557 39.7692C98.4077 39.5372 98.1354 39.2105 97.9389 38.7891C97.7424 38.3653 97.6442 37.8646 97.6442 37.2869C97.6442 36.714 97.7424 36.2169 97.9389 35.7955C98.1354 35.3741 98.4089 35.0485 98.7592 34.8189C99.1096 34.5893 99.5144 34.4744 99.9737 34.4744C100.329 34.4744 100.609 34.5336 100.815 34.652C101.024 34.768 101.182 34.9006 101.291 35.0497C101.402 35.1965 101.489 35.3172 101.55 35.4119H101.621V32.7273H102.46V40H101.65V39.1619H101.55C101.489 39.2614 101.401 39.3868 101.288 39.5384C101.174 39.6875 101.012 39.8213 100.801 39.9396C100.59 40.0556 100.31 40.1136 99.9595 40.1136ZM100.073 39.3608C100.409 39.3608 100.693 39.2732 100.925 39.098C101.157 38.9205 101.334 38.6754 101.455 38.3629C101.575 38.0481 101.636 37.6847 101.636 37.2727C101.636 36.8655 101.576 36.5092 101.458 36.2038C101.34 35.8961 101.165 35.657 100.933 35.4865C100.701 35.3137 100.414 35.2273 100.073 35.2273C99.718 35.2273 99.4221 35.3184 99.1854 35.5007C98.951 35.6806 98.7746 35.9257 98.6562 36.2358C98.5402 36.5436 98.4822 36.8892 98.4822 37.2727C98.4822 37.661 98.5414 38.0137 98.6598 38.331C98.7805 38.6458 98.9581 38.8968 99.1925 39.0838C99.4292 39.2685 99.7228 39.3608 100.073 39.3608ZM105.716 40.1278C105.37 40.1278 105.057 40.0627 104.775 39.9325C104.493 39.8 104.269 39.6094 104.104 39.3608C103.938 39.1098 103.855 38.8068 103.855 38.4517C103.855 38.1392 103.917 37.8859 104.04 37.6918C104.163 37.4953 104.327 37.3414 104.533 37.2301C104.739 37.1188 104.967 37.036 105.215 36.9815C105.466 36.9247 105.718 36.8797 105.972 36.8466C106.303 36.804 106.572 36.772 106.778 36.7507C106.986 36.727 107.138 36.688 107.232 36.6335C107.329 36.5791 107.378 36.4844 107.378 36.3494V36.321C107.378 35.9706 107.282 35.6984 107.09 35.5043C106.901 35.3101 106.613 35.2131 106.227 35.2131C105.827 35.2131 105.513 35.3007 105.286 35.4759C105.059 35.651 104.899 35.8381 104.807 36.0369L104.011 35.7528C104.153 35.4214 104.343 35.1634 104.58 34.9787C104.819 34.7917 105.079 34.6615 105.361 34.5881C105.645 34.5123 105.924 34.4744 106.199 34.4744C106.374 34.4744 106.575 34.4957 106.803 34.5384C107.032 34.5786 107.254 34.6626 107.467 34.7905C107.682 34.9183 107.861 35.1113 108.003 35.3693C108.145 35.6274 108.216 35.973 108.216 36.4062V40H107.378V39.2614H107.335C107.278 39.3797 107.184 39.5064 107.051 39.6413C106.919 39.7763 106.742 39.8911 106.522 39.9858C106.302 40.0805 106.033 40.1278 105.716 40.1278ZM105.844 39.375C106.175 39.375 106.455 39.3099 106.682 39.1797C106.911 39.0495 107.084 38.8814 107.2 38.6754C107.319 38.4695 107.378 38.2528 107.378 38.0256V37.2585C107.342 37.3011 107.264 37.3402 107.143 37.3757C107.025 37.4089 106.888 37.4384 106.732 37.4645C106.578 37.4882 106.427 37.5095 106.281 37.5284C106.136 37.545 106.019 37.5592 105.929 37.571C105.711 37.5994 105.508 37.6456 105.318 37.7095C105.131 37.7711 104.98 37.8646 104.864 37.9901C104.75 38.1132 104.693 38.2812 104.693 38.4943C104.693 38.7855 104.801 39.0057 105.016 39.1548C105.234 39.3016 105.51 39.375 105.844 39.375ZM112.118 34.5455V35.2557H109.291V34.5455H112.118ZM110.115 33.2386H110.953V38.4375C110.953 38.6742 110.987 38.8518 111.056 38.9702C111.127 39.0862 111.217 39.1643 111.326 39.2045C111.437 39.2424 111.554 39.2614 111.677 39.2614C111.77 39.2614 111.845 39.2566 111.905 39.2472C111.964 39.2353 112.011 39.2259 112.047 39.2188L112.217 39.9716C112.16 39.9929 112.081 40.0142 111.979 40.0355C111.877 40.0592 111.748 40.071 111.592 40.071C111.355 40.071 111.123 40.0201 110.896 39.9183C110.671 39.8165 110.484 39.6615 110.335 39.4531C110.188 39.2448 110.115 38.982 110.115 38.6648V33.2386ZM114.277 38.0114L114.263 36.9744H114.433L116.819 34.5455H117.856L115.314 37.1165H115.243L114.277 38.0114ZM113.496 40V32.7273H114.334V40H113.496ZM116.961 40L114.831 37.3011L115.427 36.7188L118.027 40H116.961ZM120.926 40.1136C120.434 40.1136 120.002 39.9964 119.63 39.7621C119.261 39.5277 118.972 39.1998 118.764 38.7784C118.558 38.357 118.455 37.8646 118.455 37.3011C118.455 36.733 118.558 36.237 118.764 35.8132C118.972 35.3894 119.261 35.0604 119.63 34.826C120.002 34.5916 120.434 34.4744 120.926 34.4744C121.419 34.4744 121.85 34.5916 122.219 34.826C122.591 35.0604 122.879 35.3894 123.085 35.8132C123.294 36.237 123.398 36.733 123.398 37.3011C123.398 37.8646 123.294 38.357 123.085 38.7784C122.879 39.1998 122.591 39.5277 122.219 39.7621C121.85 39.9964 121.419 40.1136 120.926 40.1136ZM120.926 39.3608C121.3 39.3608 121.608 39.2649 121.85 39.0732C122.091 38.8814 122.27 38.6293 122.386 38.3168C122.502 38.0043 122.56 37.6657 122.56 37.3011C122.56 36.9366 122.502 36.5968 122.386 36.282C122.27 35.9671 122.091 35.7126 121.85 35.5185C121.608 35.3243 121.3 35.2273 120.926 35.2273C120.552 35.2273 120.244 35.3243 120.003 35.5185C119.762 35.7126 119.583 35.9671 119.467 36.282C119.351 36.5968 119.293 36.9366 119.293 37.3011C119.293 37.6657 119.351 38.0043 119.467 38.3168C119.583 38.6293 119.762 38.8814 120.003 39.0732C120.244 39.2649 120.552 39.3608 120.926 39.3608ZM125.727 40L124.066 34.5455H124.946L126.125 38.7216H126.182L127.347 34.5455H128.242L129.392 38.7074H129.449L130.628 34.5455H131.509L129.847 40H129.023L127.83 35.8097H127.744L126.551 40H125.727ZM134.647 40.1136C134.155 40.1136 133.723 39.9964 133.351 39.7621C132.982 39.5277 132.693 39.1998 132.484 38.7784C132.278 38.357 132.175 37.8646 132.175 37.3011C132.175 36.733 132.278 36.237 132.484 35.8132C132.693 35.3894 132.982 35.0604 133.351 34.826C133.723 34.5916 134.155 34.4744 134.647 34.4744C135.139 34.4744 135.57 34.5916 135.94 34.826C136.311 35.0604 136.6 35.3894 136.806 35.8132C137.014 36.237 137.119 36.733 137.119 37.3011C137.119 37.8646 137.014 38.357 136.806 38.7784C136.6 39.1998 136.311 39.5277 135.94 39.7621C135.57 39.9964 135.139 40.1136 134.647 40.1136ZM134.647 39.3608C135.021 39.3608 135.329 39.2649 135.57 39.0732C135.812 38.8814 135.991 38.6293 136.107 38.3168C136.223 38.0043 136.281 37.6657 136.281 37.3011C136.281 36.9366 136.223 36.5968 136.107 36.282C135.991 35.9671 135.812 35.7126 135.57 35.5185C135.329 35.3243 135.021 35.2273 134.647 35.2273C134.273 35.2273 133.965 35.3243 133.724 35.5185C133.482 35.7126 133.304 35.9671 133.188 36.282C133.071 36.5968 133.013 36.9366 133.013 37.3011C133.013 37.6657 133.071 38.0043 133.188 38.3168C133.304 38.6293 133.482 38.8814 133.724 39.0732C133.965 39.2649 134.273 39.3608 134.647 39.3608ZM142.446 40L140.784 34.5455H141.665L142.844 38.7216H142.901L144.066 34.5455H144.96L146.111 38.7074H146.168L147.347 34.5455H148.227L146.566 40H145.742L144.548 35.8097H144.463L143.27 40H142.446ZM149.335 42.0455V34.5455H150.145V35.4119H150.244C150.306 35.3172 150.391 35.1965 150.5 35.0497C150.611 34.9006 150.77 34.768 150.976 34.652C151.184 34.5336 151.466 34.4744 151.821 34.4744C152.28 34.4744 152.685 34.5893 153.036 34.8189C153.386 35.0485 153.66 35.3741 153.856 35.7955C154.052 36.2169 154.151 36.714 154.151 37.2869C154.151 37.8646 154.052 38.3653 153.856 38.7891C153.66 39.2105 153.387 39.5372 153.039 39.7692C152.691 39.9988 152.29 40.1136 151.835 40.1136C151.485 40.1136 151.204 40.0556 150.994 39.9396C150.783 39.8213 150.621 39.6875 150.507 39.5384C150.394 39.3868 150.306 39.2614 150.244 39.1619H150.173V42.0455H149.335ZM150.159 37.2727C150.159 37.6847 150.22 38.0481 150.34 38.3629C150.461 38.6754 150.637 38.9205 150.869 39.098C151.102 39.2732 151.386 39.3608 151.722 39.3608C152.072 39.3608 152.365 39.2685 152.599 39.0838C152.836 38.8968 153.013 38.6458 153.132 38.331C153.252 38.0137 153.313 37.661 153.313 37.2727C153.313 36.8892 153.253 36.5436 153.135 36.2358C153.019 35.9257 152.843 35.6806 152.606 35.5007C152.372 35.3184 152.077 35.2273 151.722 35.2273C151.381 35.2273 151.094 35.3137 150.862 35.4865C150.63 35.657 150.455 35.8961 150.337 36.2038C150.218 36.5092 150.159 36.8655 150.159 37.2727ZM155.429 40V34.5455H156.239V35.3693H156.296C156.395 35.0994 156.575 34.8804 156.835 34.7124C157.096 34.5443 157.389 34.4602 157.716 34.4602C157.778 34.4602 157.855 34.4614 157.947 34.4638C158.039 34.4661 158.109 34.4697 158.156 34.4744V35.3267C158.128 35.3196 158.063 35.3089 157.961 35.2947C157.862 35.2782 157.756 35.2699 157.645 35.2699C157.38 35.2699 157.143 35.3255 156.935 35.4368C156.729 35.5457 156.566 35.6972 156.445 35.8913C156.326 36.0831 156.267 36.3021 156.267 36.5483V40H155.429ZM161.2 40.1136C160.707 40.1136 160.275 39.9964 159.904 39.7621C159.534 39.5277 159.245 39.1998 159.037 38.7784C158.831 38.357 158.728 37.8646 158.728 37.3011C158.728 36.733 158.831 36.237 159.037 35.8132C159.245 35.3894 159.534 35.0604 159.904 34.826C160.275 34.5916 160.707 34.4744 161.2 34.4744C161.692 34.4744 162.123 34.5916 162.492 34.826C162.864 35.0604 163.153 35.3894 163.359 35.8132C163.567 36.237 163.671 36.733 163.671 37.3011C163.671 37.8646 163.567 38.357 163.359 38.7784C163.153 39.1998 162.864 39.5277 162.492 39.7621C162.123 39.9964 161.692 40.1136 161.2 40.1136ZM161.2 39.3608C161.574 39.3608 161.882 39.2649 162.123 39.0732C162.365 38.8814 162.543 38.6293 162.659 38.3168C162.775 38.0043 162.833 37.6657 162.833 37.3011C162.833 36.9366 162.775 36.5968 162.659 36.282C162.543 35.9671 162.365 35.7126 162.123 35.5185C161.882 35.3243 161.574 35.2273 161.2 35.2273C160.826 35.2273 160.518 35.3243 160.276 35.5185C160.035 35.7126 159.856 35.9671 159.74 36.282C159.624 36.5968 159.566 36.9366 159.566 37.3011C159.566 37.6657 159.624 38.0043 159.74 38.3168C159.856 38.6293 160.035 38.8814 160.276 39.0732C160.518 39.2649 160.826 39.3608 161.2 39.3608ZM166.001 40L164.339 34.5455H165.22L166.399 38.7216H166.455L167.62 34.5455H168.515L169.666 38.7074H169.722L170.901 34.5455H171.782L170.12 40H169.296L168.103 35.8097H168.018L166.825 40H166.001ZM174.495 40.1278C174.15 40.1278 173.836 40.0627 173.554 39.9325C173.272 39.8 173.049 39.6094 172.883 39.3608C172.717 39.1098 172.634 38.8068 172.634 38.4517C172.634 38.1392 172.696 37.8859 172.819 37.6918C172.942 37.4953 173.107 37.3414 173.313 37.2301C173.519 37.1188 173.746 37.036 173.994 36.9815C174.245 36.9247 174.498 36.8797 174.751 36.8466C175.082 36.804 175.351 36.772 175.557 36.7507C175.765 36.727 175.917 36.688 176.012 36.6335C176.109 36.5791 176.157 36.4844 176.157 36.3494V36.321C176.157 35.9706 176.061 35.6984 175.869 35.5043C175.68 35.3101 175.392 35.2131 175.007 35.2131C174.606 35.2131 174.293 35.3007 174.066 35.4759C173.838 35.651 173.678 35.8381 173.586 36.0369L172.791 35.7528C172.933 35.4214 173.122 35.1634 173.359 34.9787C173.598 34.7917 173.858 34.6615 174.14 34.5881C174.424 34.5123 174.704 34.4744 174.978 34.4744C175.153 34.4744 175.355 34.4957 175.582 34.5384C175.811 34.5786 176.033 34.6626 176.246 34.7905C176.461 34.9183 176.64 35.1113 176.782 35.3693C176.924 35.6274 176.995 35.973 176.995 36.4062V40H176.157V39.2614H176.115C176.058 39.3797 175.963 39.5064 175.83 39.6413C175.698 39.7763 175.521 39.8911 175.301 39.9858C175.081 40.0805 174.812 40.1278 174.495 40.1278ZM174.623 39.375C174.954 39.375 175.234 39.3099 175.461 39.1797C175.691 39.0495 175.864 38.8814 175.98 38.6754C176.098 38.4695 176.157 38.2528 176.157 38.0256V37.2585C176.122 37.3011 176.044 37.3402 175.923 37.3757C175.804 37.4089 175.667 37.4384 175.511 37.4645C175.357 37.4882 175.207 37.5095 175.06 37.5284C174.915 37.545 174.798 37.5592 174.708 37.571C174.49 37.5994 174.287 37.6456 174.097 37.7095C173.91 37.7711 173.759 37.8646 173.643 37.9901C173.529 38.1132 173.472 38.2812 173.472 38.4943C173.472 38.7855 173.58 39.0057 173.796 39.1548C174.013 39.3016 174.289 39.375 174.623 39.375ZM180.585 40.1136C180.13 40.1136 179.729 39.9988 179.381 39.7692C179.033 39.5372 178.76 39.2105 178.564 38.7891C178.367 38.3653 178.269 37.8646 178.269 37.2869C178.269 36.714 178.367 36.2169 178.564 35.7955C178.76 35.3741 179.034 35.0485 179.384 34.8189C179.735 34.5893 180.139 34.4744 180.599 34.4744C180.954 34.4744 181.234 34.5336 181.44 34.652C181.649 34.768 181.807 34.9006 181.916 35.0497C182.027 35.1965 182.114 35.3172 182.175 35.4119H182.246V32.7273H183.085V40H182.275V39.1619H182.175C182.114 39.2614 182.026 39.3868 181.913 39.5384C181.799 39.6875 181.637 39.8213 181.426 39.9396C181.215 40.0556 180.935 40.1136 180.585 40.1136ZM180.698 39.3608C181.034 39.3608 181.318 39.2732 181.55 39.098C181.782 38.9205 181.959 38.6754 182.08 38.3629C182.2 38.0481 182.261 37.6847 182.261 37.2727C182.261 36.8655 182.201 36.5092 182.083 36.2038C181.965 35.8961 181.79 35.657 181.558 35.4865C181.326 35.3137 181.039 35.2273 180.698 35.2273C180.343 35.2273 180.047 35.3184 179.81 35.5007C179.576 35.6806 179.4 35.9257 179.281 36.2358C179.165 36.5436 179.107 36.8892 179.107 37.2727C179.107 37.661 179.166 38.0137 179.285 38.331C179.406 38.6458 179.583 38.8968 179.817 39.0838C180.054 39.2685 180.348 39.3608 180.698 39.3608ZM184.58 40V39.3608L187.676 35.3835V35.3267H184.679V34.5455H188.756V35.2131L185.744 39.1619V39.2188H188.855V40H184.58ZM190.146 40V34.5455H190.984V40H190.146ZM190.572 33.6364C190.409 33.6364 190.268 33.5807 190.15 33.4695C190.033 33.3582 189.975 33.2244 189.975 33.0682C189.975 32.9119 190.033 32.7782 190.15 32.6669C190.268 32.5556 190.409 32.5 190.572 32.5C190.735 32.5 190.875 32.5556 190.991 32.6669C191.109 32.7782 191.169 32.9119 191.169 33.0682C191.169 33.2244 191.109 33.3582 190.991 33.4695C190.875 33.5807 190.735 33.6364 190.572 33.6364ZM36.767 52V46.5455H37.5767V47.3693H37.6335C37.733 47.0994 37.9129 46.8804 38.1733 46.7124C38.4337 46.5443 38.7273 46.4602 39.054 46.4602C39.1155 46.4602 39.1925 46.4614 39.2848 46.4638C39.3771 46.4661 39.447 46.4697 39.4943 46.4744V47.3267C39.4659 47.3196 39.4008 47.3089 39.299 47.2947C39.1996 47.2782 39.0942 47.2699 38.983 47.2699C38.7178 47.2699 38.4811 47.3255 38.2727 47.4368C38.0668 47.5457 37.9034 47.6972 37.7827 47.8913C37.6643 48.0831 37.6051 48.3021 37.6051 48.5483V52H36.767ZM42.0929 52.1278C41.7472 52.1278 41.4335 52.0627 41.1518 51.9325C40.8701 51.8 40.6464 51.6094 40.4806 51.3608C40.3149 51.1098 40.2321 50.8068 40.2321 50.4517C40.2321 50.1392 40.2936 49.8859 40.4167 49.6918C40.5398 49.4953 40.7044 49.3414 40.9103 49.2301C41.1163 49.1188 41.3436 49.036 41.5922 48.9815C41.8431 48.9247 42.0952 48.8797 42.3485 48.8466C42.68 48.804 42.9487 48.772 43.1547 48.7507C43.363 48.727 43.5145 48.688 43.6092 48.6335C43.7063 48.5791 43.7548 48.4844 43.7548 48.3494V48.321C43.7548 47.9706 43.6589 47.6984 43.4672 47.5043C43.2778 47.3101 42.9901 47.2131 42.6042 47.2131C42.2041 47.2131 41.8904 47.3007 41.6632 47.4759C41.4359 47.651 41.2761 47.8381 41.1838 48.0369L40.3883 47.7528C40.5304 47.4214 40.7198 47.1634 40.9565 46.9787C41.1956 46.7917 41.456 46.6615 41.7377 46.5881C42.0218 46.5123 42.3012 46.4744 42.5758 46.4744C42.751 46.4744 42.9522 46.4957 43.1795 46.5384C43.4092 46.5786 43.6305 46.6626 43.8436 46.7905C44.059 46.9183 44.2377 47.1113 44.3798 47.3693C44.5218 47.6274 44.5929 47.973 44.5929 48.4062V52H43.7548V51.2614H43.7122C43.6554 51.3797 43.5607 51.5064 43.4281 51.6413C43.2955 51.7763 43.1191 51.8911 42.899 51.9858C42.6788 52.0805 42.4101 52.1278 42.0929 52.1278ZM42.2207 51.375C42.5521 51.375 42.8315 51.3099 43.0588 51.1797C43.2884 51.0495 43.4612 50.8814 43.5772 50.6754C43.6956 50.4695 43.7548 50.2528 43.7548 50.0256V49.2585C43.7193 49.3011 43.6412 49.3402 43.5204 49.3757C43.402 49.4089 43.2647 49.4384 43.1085 49.4645C42.9546 49.4882 42.8043 49.5095 42.6575 49.5284C42.5131 49.545 42.3959 49.5592 42.3059 49.571C42.0881 49.5994 41.8845 49.6456 41.6951 49.7095C41.5081 49.7711 41.3566 49.8646 41.2406 49.9901C41.127 50.1132 41.0701 50.2812 41.0701 50.4943C41.0701 50.7855 41.1779 51.0057 41.3933 51.1548C41.6111 51.3016 41.8869 51.375 42.2207 51.375ZM46.1225 54.0455V46.5455H46.9322V47.4119H47.0316C47.0932 47.3172 47.1784 47.1965 47.2873 47.0497C47.3986 46.9006 47.5572 46.768 47.7631 46.652C47.9715 46.5336 48.2532 46.4744 48.6083 46.4744C49.0676 46.4744 49.4724 46.5893 49.8228 46.8189C50.1732 47.0485 50.4466 47.3741 50.6431 47.7955C50.8396 48.2169 50.9379 48.714 50.9379 49.2869C50.9379 49.8646 50.8396 50.3653 50.6431 50.7891C50.4466 51.2105 50.1744 51.5372 49.8263 51.7692C49.4783 51.9988 49.0771 52.1136 48.6225 52.1136C48.2721 52.1136 47.9916 52.0556 47.7809 51.9396C47.5702 51.8213 47.408 51.6875 47.2944 51.5384C47.1808 51.3868 47.0932 51.2614 47.0316 51.1619H46.9606V54.0455H46.1225ZM46.9464 49.2727C46.9464 49.6847 47.0067 50.0481 47.1275 50.3629C47.2482 50.6754 47.4246 50.9205 47.6566 51.098C47.8886 51.2732 48.1727 51.3608 48.5089 51.3608C48.8593 51.3608 49.1516 51.2685 49.386 51.0838C49.6228 50.8968 49.8003 50.6458 49.9187 50.331C50.0394 50.0137 50.0998 49.661 50.0998 49.2727C50.0998 48.8892 50.0406 48.5436 49.9222 48.2358C49.8062 47.9257 49.6299 47.6806 49.3931 47.5007C49.1587 47.3184 48.864 47.2273 48.5089 47.2273C48.168 47.2273 47.8815 47.3137 47.6495 47.4865C47.4175 47.657 47.2423 47.8961 47.1239 48.2038C47.0056 48.5092 46.9464 48.8655 46.9464 49.2727ZM54.4322 52.1136C53.9397 52.1136 53.5077 51.9964 53.136 51.7621C52.7667 51.5277 52.4779 51.1998 52.2695 50.7784C52.0636 50.357 51.9606 49.8646 51.9606 49.3011C51.9606 48.733 52.0636 48.237 52.2695 47.8132C52.4779 47.3894 52.7667 47.0604 53.136 46.826C53.5077 46.5916 53.9397 46.4744 54.4322 46.4744C54.9246 46.4744 55.3555 46.5916 55.7248 46.826C56.0965 47.0604 56.3853 47.3894 56.5913 47.8132C56.7996 48.237 56.9038 48.733 56.9038 49.3011C56.9038 49.8646 56.7996 50.357 56.5913 50.7784C56.3853 51.1998 56.0965 51.5277 55.7248 51.7621C55.3555 51.9964 54.9246 52.1136 54.4322 52.1136ZM54.4322 51.3608C54.8062 51.3608 55.114 51.2649 55.3555 51.0732C55.5969 50.8814 55.7757 50.6293 55.8917 50.3168C56.0077 50.0043 56.0657 49.6657 56.0657 49.3011C56.0657 48.9366 56.0077 48.5968 55.8917 48.282C55.7757 47.9671 55.5969 47.7126 55.3555 47.5185C55.114 47.3243 54.8062 47.2273 54.4322 47.2273C54.0581 47.2273 53.7504 47.3243 53.5089 47.5185C53.2674 47.7126 53.0887 47.9671 52.9727 48.282C52.8567 48.5968 52.7987 48.9366 52.7987 49.3011C52.7987 49.6657 52.8567 50.0043 52.9727 50.3168C53.0887 50.6293 53.2674 50.8814 53.5089 51.0732C53.7504 51.2649 54.0581 51.3608 54.4322 51.3608ZM58.1831 52V46.5455H58.9927V47.3693H59.0495C59.149 47.0994 59.3289 46.8804 59.5893 46.7124C59.8497 46.5443 60.1433 46.4602 60.47 46.4602C60.5315 46.4602 60.6085 46.4614 60.7008 46.4638C60.7931 46.4661 60.863 46.4697 60.9103 46.4744V47.3267C60.8819 47.3196 60.8168 47.3089 60.715 47.2947C60.6156 47.2782 60.5102 47.2699 60.399 47.2699C60.1338 47.2699 59.8971 47.3255 59.6887 47.4368C59.4828 47.5457 59.3194 47.6972 59.1987 47.8913C59.0803 48.0831 59.0211 48.3021 59.0211 48.5483V52H58.1831ZM64.6177 46.5455V47.2557H61.791V46.5455H64.6177ZM62.6149 45.2386H63.4529V50.4375C63.4529 50.6742 63.4873 50.8518 63.5559 50.9702C63.627 51.0862 63.7169 51.1643 63.8258 51.2045C63.9371 51.2424 64.0543 51.2614 64.1774 51.2614C64.2697 51.2614 64.3455 51.2566 64.4047 51.2472C64.4638 51.2353 64.5112 51.2259 64.5467 51.2188L64.7172 51.9716C64.6603 51.9929 64.581 52.0142 64.4792 52.0355C64.3774 52.0592 64.2484 52.071 64.0922 52.071C63.8554 52.071 63.6234 52.0201 63.3961 51.9183C63.1712 51.8165 62.9842 51.6615 62.835 51.4531C62.6883 51.2448 62.6149 50.982 62.6149 50.6648V45.2386ZM68.0357 52.1136C67.5433 52.1136 67.1112 51.9964 66.7395 51.7621C66.3702 51.5277 66.0814 51.1998 65.873 50.7784C65.6671 50.357 65.5641 49.8646 65.5641 49.3011C65.5641 48.733 65.6671 48.237 65.873 47.8132C66.0814 47.3894 66.3702 47.0604 66.7395 46.826C67.1112 46.5916 67.5433 46.4744 68.0357 46.4744C68.5281 46.4744 68.959 46.5916 69.3283 46.826C69.7 47.0604 69.9888 47.3894 70.1948 47.8132C70.4031 48.237 70.5073 48.733 70.5073 49.3011C70.5073 49.8646 70.4031 50.357 70.1948 50.7784C69.9888 51.1998 69.7 51.5277 69.3283 51.7621C68.959 51.9964 68.5281 52.1136 68.0357 52.1136ZM68.0357 51.3608C68.4097 51.3608 68.7175 51.2649 68.959 51.0732C69.2005 50.8814 69.3792 50.6293 69.4952 50.3168C69.6112 50.0043 69.6692 49.6657 69.6692 49.3011C69.6692 48.9366 69.6112 48.5968 69.4952 48.282C69.3792 47.9671 69.2005 47.7126 68.959 47.5185C68.7175 47.3243 68.4097 47.2273 68.0357 47.2273C67.6616 47.2273 67.3539 47.3243 67.1124 47.5185C66.8709 47.7126 66.6922 47.9671 66.5762 48.282C66.4602 48.5968 66.4022 48.9366 66.4022 49.3011C66.4022 49.6657 66.4602 50.0043 66.5762 50.3168C66.6922 50.6293 66.8709 50.8814 67.1124 51.0732C67.3539 51.2649 67.6616 51.3608 68.0357 51.3608ZM72.8368 52L71.1749 46.5455H72.0556L73.2346 50.7216H73.2914L74.4561 46.5455H75.351L76.5016 50.7074H76.5584L77.7374 46.5455H78.6181L76.9561 52H76.1323L74.9391 47.8097H74.8539L73.6607 52H72.8368ZM81.3311 52.1278C80.9855 52.1278 80.6718 52.0627 80.3901 51.9325C80.1084 51.8 79.8846 51.6094 79.7189 51.3608C79.5532 51.1098 79.4703 50.8068 79.4703 50.4517C79.4703 50.1392 79.5319 49.8859 79.655 49.6918C79.7781 49.4953 79.9426 49.3414 80.1486 49.2301C80.3546 49.1188 80.5819 49.036 80.8304 48.9815C81.0814 48.9247 81.3335 48.8797 81.5868 48.8466C81.9183 48.804 82.187 48.772 82.3929 48.7507C82.6013 48.727 82.7528 48.688 82.8475 48.6335C82.9445 48.5791 82.9931 48.4844 82.9931 48.3494V48.321C82.9931 47.9706 82.8972 47.6984 82.7054 47.5043C82.516 47.3101 82.2284 47.2131 81.8425 47.2131C81.4424 47.2131 81.1287 47.3007 80.9015 47.4759C80.6742 47.651 80.5144 47.8381 80.4221 48.0369L79.6266 47.7528C79.7686 47.4214 79.958 47.1634 80.1948 46.9787C80.4339 46.7917 80.6943 46.6615 80.976 46.5881C81.2601 46.5123 81.5395 46.4744 81.8141 46.4744C81.9893 46.4744 82.1905 46.4957 82.4178 46.5384C82.6474 46.5786 82.8688 46.6626 83.0819 46.7905C83.2973 46.9183 83.476 47.1113 83.6181 47.3693C83.7601 47.6274 83.8311 47.973 83.8311 48.4062V52H82.9931V51.2614H82.9505C82.8936 51.3797 82.7989 51.5064 82.6664 51.6413C82.5338 51.7763 82.3574 51.8911 82.1373 51.9858C81.9171 52.0805 81.6484 52.1278 81.3311 52.1278ZM81.459 51.375C81.7904 51.375 82.0698 51.3099 82.2971 51.1797C82.5267 51.0495 82.6995 50.8814 82.8155 50.6754C82.9339 50.4695 82.9931 50.2528 82.9931 50.0256V49.2585C82.9576 49.3011 82.8794 49.3402 82.7587 49.3757C82.6403 49.4089 82.503 49.4384 82.3468 49.4645C82.1929 49.4882 82.0426 49.5095 81.8958 49.5284C81.7514 49.545 81.6342 49.5592 81.5442 49.571C81.3264 49.5994 81.1228 49.6456 80.9334 49.7095C80.7464 49.7711 80.5949 49.8646 80.4789 49.9901C80.3652 50.1132 80.3084 50.2812 80.3084 50.4943C80.3084 50.7855 80.4161 51.0057 80.6316 51.1548C80.8494 51.3016 81.1252 51.375 81.459 51.375ZM86.1989 48.7188V52H85.3608V46.5455H86.1705V47.3977H86.2415C86.3693 47.1207 86.5634 46.8982 86.8239 46.7301C87.0843 46.5597 87.4205 46.4744 87.8324 46.4744C88.2017 46.4744 88.5249 46.5502 88.8018 46.7017C89.0788 46.8509 89.2943 47.0781 89.4482 47.3835C89.602 47.6866 89.679 48.0701 89.679 48.5341V52H88.8409V48.5909C88.8409 48.1624 88.7296 47.8286 88.5071 47.5895C88.2846 47.348 87.9792 47.2273 87.5909 47.2273C87.3234 47.2273 87.0843 47.2853 86.8736 47.4013C86.6652 47.5173 86.5007 47.6866 86.38 47.9091C86.2592 48.1316 86.1989 48.4015 86.1989 48.7188ZM91.2104 52V46.5455H92.0485V52H91.2104ZM91.6365 45.6364C91.4732 45.6364 91.3323 45.5807 91.214 45.4695C91.098 45.3582 91.04 45.2244 91.04 45.0682C91.04 44.9119 91.098 44.7782 91.214 44.6669C91.3323 44.5556 91.4732 44.5 91.6365 44.5C91.7999 44.5 91.9396 44.5556 92.0556 44.6669C92.1739 44.7782 92.2331 44.9119 92.2331 45.0682C92.2331 45.2244 92.1739 45.3582 92.0556 45.4695C91.9396 45.5807 91.7999 45.6364 91.6365 45.6364ZM95.8704 52.1136C95.3448 52.1136 94.8915 51.9976 94.5103 51.7656C94.1315 51.5312 93.8391 51.2045 93.6332 50.7855C93.4296 50.3641 93.3278 49.8741 93.3278 49.3153C93.3278 48.7566 93.4296 48.2642 93.6332 47.8381C93.8391 47.4096 94.1256 47.0758 94.4925 46.8366C94.8619 46.5952 95.2927 46.4744 95.7852 46.4744C96.0692 46.4744 96.3498 46.5218 96.6268 46.6165C96.9038 46.7112 97.1559 46.8651 97.3832 47.0781C97.6104 47.2888 97.7915 47.5682 97.9265 47.9162C98.0614 48.2642 98.1289 48.6927 98.1289 49.2017V49.5568H93.9244V48.8324H97.2766C97.2766 48.5246 97.2151 48.25 97.092 48.0085C96.9712 47.767 96.7984 47.5765 96.5735 47.4368C96.351 47.2971 96.0882 47.2273 95.7852 47.2273C95.4513 47.2273 95.1625 47.3101 94.9187 47.4759C94.6772 47.6392 94.4914 47.8523 94.3612 48.1151C94.2309 48.3778 94.1658 48.6596 94.1658 48.9602V49.4432C94.1658 49.8551 94.2369 50.2043 94.3789 50.4908C94.5233 50.7749 94.7234 50.9915 94.979 51.1406C95.2347 51.2874 95.5318 51.3608 95.8704 51.3608C96.0906 51.3608 96.2894 51.33 96.467 51.2685C96.6469 51.2045 96.802 51.1098 96.9322 50.9844C97.0624 50.8565 97.163 50.6979 97.234 50.5085L98.0437 50.7358C97.9585 51.0104 97.8152 51.2519 97.614 51.4602C97.4128 51.6662 97.1642 51.8272 96.8683 51.9432C96.5723 52.0568 96.2397 52.1136 95.8704 52.1136ZM104.432 52.1136C103.921 52.1136 103.48 51.9929 103.111 51.7514C102.742 51.5099 102.458 51.1773 102.259 50.7536C102.06 50.3298 101.961 49.8456 101.961 49.3011C101.961 48.7472 102.062 48.2583 102.266 47.8345C102.472 47.4084 102.758 47.0758 103.125 46.8366C103.495 46.5952 103.926 46.4744 104.418 46.4744C104.801 46.4744 105.147 46.5455 105.455 46.6875C105.763 46.8295 106.015 47.0284 106.211 47.2841C106.408 47.5398 106.53 47.8381 106.577 48.179H105.739C105.675 47.9304 105.533 47.7102 105.313 47.5185C105.095 47.3243 104.801 47.2273 104.432 47.2273C104.105 47.2273 103.819 47.3125 103.573 47.483C103.329 47.651 103.138 47.889 103.001 48.1967C102.866 48.5021 102.799 48.8608 102.799 49.2727C102.799 49.6941 102.865 50.0611 102.998 50.3736C103.132 50.6861 103.322 50.9287 103.566 51.1016C103.812 51.2744 104.101 51.3608 104.432 51.3608C104.65 51.3608 104.848 51.3229 105.025 51.2472C105.203 51.1714 105.353 51.0625 105.476 50.9205C105.599 50.7784 105.687 50.608 105.739 50.4091H106.577C106.53 50.7311 106.413 51.0211 106.225 51.2791C106.041 51.5348 105.796 51.7384 105.49 51.8899C105.187 52.0391 104.835 52.1136 104.432 52.1136ZM110.089 52.1136C109.564 52.1136 109.11 51.9976 108.729 51.7656C108.35 51.5312 108.058 51.2045 107.852 50.7855C107.648 50.3641 107.547 49.8741 107.547 49.3153C107.547 48.7566 107.648 48.2642 107.852 47.8381C108.058 47.4096 108.344 47.0758 108.711 46.8366C109.081 46.5952 109.511 46.4744 110.004 46.4744C110.288 46.4744 110.569 46.5218 110.846 46.6165C111.123 46.7112 111.375 46.8651 111.602 47.0781C111.829 47.2888 112.01 47.5682 112.145 47.9162C112.28 48.2642 112.348 48.6927 112.348 49.2017V49.5568H108.143V48.8324H111.495C111.495 48.5246 111.434 48.25 111.311 48.0085C111.19 47.767 111.017 47.5765 110.792 47.4368C110.57 47.2971 110.307 47.2273 110.004 47.2273C109.67 47.2273 109.381 47.3101 109.137 47.4759C108.896 47.6392 108.71 47.8523 108.58 48.1151C108.45 48.3778 108.385 48.6596 108.385 48.9602V49.4432C108.385 49.8551 108.456 50.2043 108.598 50.4908C108.742 50.7749 108.942 50.9915 109.198 51.1406C109.453 51.2874 109.751 51.3608 110.089 51.3608C110.309 51.3608 110.508 51.33 110.686 51.2685C110.866 51.2045 111.021 51.1098 111.151 50.9844C111.281 50.8565 111.382 50.6979 111.453 50.5085L112.262 50.7358C112.177 51.0104 112.034 51.2519 111.833 51.4602C111.632 51.6662 111.383 51.8272 111.087 51.9432C110.791 52.0568 110.458 52.1136 110.089 52.1136ZM114.461 48.7188V52H113.623V46.5455H114.432V47.3977H114.503C114.631 47.1207 114.825 46.8982 115.086 46.7301C115.346 46.5597 115.682 46.4744 116.094 46.4744C116.463 46.4744 116.787 46.5502 117.064 46.7017C117.341 46.8509 117.556 47.0781 117.71 47.3835C117.864 47.6866 117.941 48.0701 117.941 48.5341V52H117.103V48.5909C117.103 48.1624 116.991 47.8286 116.769 47.5895C116.546 47.348 116.241 47.2273 115.853 47.2273C115.585 47.2273 115.346 47.2853 115.135 47.4013C114.927 47.5173 114.762 47.6866 114.642 47.9091C114.521 48.1316 114.461 48.4015 114.461 48.7188ZM124.657 46.5455V47.2557H121.83V46.5455H124.657ZM122.654 45.2386H123.492V50.4375C123.492 50.6742 123.526 50.8518 123.595 50.9702C123.666 51.0862 123.756 51.1643 123.865 51.2045C123.976 51.2424 124.093 51.2614 124.216 51.2614C124.309 51.2614 124.385 51.2566 124.444 51.2472C124.503 51.2353 124.55 51.2259 124.586 51.2188L124.756 51.9716C124.699 51.9929 124.62 52.0142 124.518 52.0355C124.416 52.0592 124.287 52.071 124.131 52.071C123.894 52.071 123.662 52.0201 123.435 51.9183C123.21 51.8165 123.023 51.6615 122.874 51.4531C122.727 51.2448 122.654 50.982 122.654 50.6648V45.2386ZM125.917 52V46.5455H126.727V47.3693H126.784C126.883 47.0994 127.063 46.8804 127.324 46.7124C127.584 46.5443 127.878 46.4602 128.204 46.4602C128.266 46.4602 128.343 46.4614 128.435 46.4638C128.528 46.4661 128.597 46.4697 128.645 46.4744V47.3267C128.616 47.3196 128.551 47.3089 128.449 47.2947C128.35 47.2782 128.245 47.2699 128.133 47.2699C127.868 47.2699 127.631 47.3255 127.423 47.4368C127.217 47.5457 127.054 47.6972 126.933 47.8913C126.815 48.0831 126.756 48.3021 126.756 48.5483V52H125.917ZM131.243 52.1278C130.898 52.1278 130.584 52.0627 130.302 51.9325C130.02 51.8 129.797 51.6094 129.631 51.3608C129.465 51.1098 129.382 50.8068 129.382 50.4517C129.382 50.1392 129.444 49.8859 129.567 49.6918C129.69 49.4953 129.855 49.3414 130.061 49.2301C130.267 49.1188 130.494 49.036 130.743 48.9815C130.993 48.9247 131.246 48.8797 131.499 48.8466C131.83 48.804 132.099 48.772 132.305 48.7507C132.513 48.727 132.665 48.688 132.76 48.6335C132.857 48.5791 132.905 48.4844 132.905 48.3494V48.321C132.905 47.9706 132.809 47.6984 132.618 47.5043C132.428 47.3101 132.141 47.2131 131.755 47.2131C131.355 47.2131 131.041 47.3007 130.814 47.4759C130.586 47.651 130.426 47.8381 130.334 48.0369L129.539 47.7528C129.681 47.4214 129.87 47.1634 130.107 46.9787C130.346 46.7917 130.606 46.6615 130.888 46.5881C131.172 46.5123 131.452 46.4744 131.726 46.4744C131.901 46.4744 132.103 46.4957 132.33 46.5384C132.56 46.5786 132.781 46.6626 132.994 46.7905C133.209 46.9183 133.388 47.1113 133.53 47.3693C133.672 47.6274 133.743 47.973 133.743 48.4062V52H132.905V51.2614H132.863C132.806 51.3797 132.711 51.5064 132.578 51.6413C132.446 51.7763 132.27 51.8911 132.049 51.9858C131.829 52.0805 131.56 52.1278 131.243 52.1278ZM131.371 51.375C131.703 51.375 131.982 51.3099 132.209 51.1797C132.439 51.0495 132.612 50.8814 132.728 50.6754C132.846 50.4695 132.905 50.2528 132.905 50.0256V49.2585C132.87 49.3011 132.792 49.3402 132.671 49.3757C132.552 49.4089 132.415 49.4384 132.259 49.4645C132.105 49.4882 131.955 49.5095 131.808 49.5284C131.663 49.545 131.546 49.5592 131.456 49.571C131.239 49.5994 131.035 49.6456 130.846 49.7095C130.658 49.7711 130.507 49.8646 130.391 49.9901C130.277 50.1132 130.221 50.2812 130.221 50.4943C130.221 50.7855 130.328 51.0057 130.544 51.1548C130.761 51.3016 131.037 51.375 131.371 51.375ZM136.111 48.7188V52H135.273V46.5455H136.083V47.3977H136.154C136.281 47.1207 136.476 46.8982 136.736 46.7301C136.996 46.5597 137.333 46.4744 137.744 46.4744C138.114 46.4744 138.437 46.5502 138.714 46.7017C138.991 46.8509 139.206 47.0781 139.36 47.3835C139.514 47.6866 139.591 48.0701 139.591 48.5341V52H138.753V48.5909C138.753 48.1624 138.642 47.8286 138.419 47.5895C138.197 47.348 137.891 47.2273 137.503 47.2273C137.235 47.2273 136.996 47.2853 136.786 47.4013C136.577 47.5173 136.413 47.6866 136.292 47.9091C136.171 48.1316 136.111 48.4015 136.111 48.7188ZM144.986 47.767L144.233 47.9801C144.186 47.8546 144.116 47.7327 144.024 47.6143C143.934 47.4936 143.811 47.3942 143.654 47.3161C143.498 47.2379 143.298 47.1989 143.054 47.1989C142.721 47.1989 142.442 47.2758 142.22 47.4297C142 47.5812 141.89 47.7741 141.89 48.0085C141.89 48.2169 141.965 48.3814 142.117 48.5021C142.268 48.6229 142.505 48.7235 142.827 48.804L143.637 49.0028C144.124 49.1212 144.488 49.3023 144.727 49.5462C144.966 49.7876 145.086 50.099 145.086 50.4801C145.086 50.7926 144.996 51.072 144.816 51.3182C144.638 51.5644 144.39 51.7585 144.07 51.9006C143.75 52.0426 143.379 52.1136 142.955 52.1136C142.399 52.1136 141.938 51.9929 141.574 51.7514C141.209 51.5099 140.978 51.1572 140.881 50.6932L141.676 50.4943C141.752 50.7879 141.895 51.008 142.106 51.1548C142.319 51.3016 142.597 51.375 142.941 51.375C143.331 51.375 143.641 51.2921 143.871 51.1264C144.103 50.9583 144.219 50.7571 144.219 50.5227C144.219 50.3333 144.153 50.1747 144.02 50.0469C143.888 49.9167 143.684 49.8196 143.409 49.7557L142.5 49.5426C142.001 49.4242 141.634 49.2408 141.4 48.9922C141.167 48.7412 141.051 48.4276 141.051 48.0511C141.051 47.7434 141.138 47.4711 141.311 47.2344C141.486 46.9976 141.724 46.8118 142.025 46.6768C142.328 46.5419 142.671 46.4744 143.054 46.4744C143.594 46.4744 144.018 46.5928 144.326 46.8295C144.636 47.0663 144.856 47.3788 144.986 47.767ZM147.952 52.1278C147.607 52.1278 147.293 52.0627 147.011 51.9325C146.729 51.8 146.506 51.6094 146.34 51.3608C146.174 51.1098 146.091 50.8068 146.091 50.4517C146.091 50.1392 146.153 49.8859 146.276 49.6918C146.399 49.4953 146.564 49.3414 146.77 49.2301C146.976 49.1188 147.203 49.036 147.452 48.9815C147.702 48.9247 147.955 48.8797 148.208 48.8466C148.539 48.804 148.808 48.772 149.014 48.7507C149.222 48.727 149.374 48.688 149.469 48.6335C149.566 48.5791 149.614 48.4844 149.614 48.3494V48.321C149.614 47.9706 149.518 47.6984 149.327 47.5043C149.137 47.3101 148.849 47.2131 148.464 47.2131C148.064 47.2131 147.75 47.3007 147.523 47.4759C147.295 47.651 147.135 47.8381 147.043 48.0369L146.248 47.7528C146.39 47.4214 146.579 47.1634 146.816 46.9787C147.055 46.7917 147.315 46.6615 147.597 46.5881C147.881 46.5123 148.161 46.4744 148.435 46.4744C148.61 46.4744 148.812 46.4957 149.039 46.5384C149.269 46.5786 149.49 46.6626 149.703 46.7905C149.918 46.9183 150.097 47.1113 150.239 47.3693C150.381 47.6274 150.452 47.973 150.452 48.4062V52H149.614V51.2614H149.572C149.515 51.3797 149.42 51.5064 149.287 51.6413C149.155 51.7763 148.979 51.8911 148.758 51.9858C148.538 52.0805 148.269 52.1278 147.952 52.1278ZM148.08 51.375C148.412 51.375 148.691 51.3099 148.918 51.1797C149.148 51.0495 149.321 50.8814 149.437 50.6754C149.555 50.4695 149.614 50.2528 149.614 50.0256V49.2585C149.579 49.3011 149.501 49.3402 149.38 49.3757C149.261 49.4089 149.124 49.4384 148.968 49.4645C148.814 49.4882 148.664 49.5095 148.517 49.5284C148.372 49.545 148.255 49.5592 148.165 49.571C147.948 49.5994 147.744 49.6456 147.555 49.7095C147.367 49.7711 147.216 49.8646 147.1 49.9901C146.986 50.1132 146.93 50.2812 146.93 50.4943C146.93 50.7855 147.037 51.0057 147.253 51.1548C147.47 51.3016 147.746 51.375 148.08 51.375ZM152.763 50.0114L152.749 48.9744H152.919L155.306 46.5455H156.343L153.8 49.1165H153.729L152.763 50.0114ZM151.982 52V44.7273H152.82V52H151.982ZM155.448 52L153.317 49.3011L153.914 48.7188L156.513 52H155.448ZM159.413 52.1136C158.901 52.1136 158.461 51.9929 158.092 51.7514C157.722 51.5099 157.438 51.1773 157.239 50.7536C157.04 50.3298 156.941 49.8456 156.941 49.3011C156.941 48.7472 157.043 48.2583 157.246 47.8345C157.452 47.4084 157.739 47.0758 158.106 46.8366C158.475 46.5952 158.906 46.4744 159.398 46.4744C159.782 46.4744 160.128 46.5455 160.435 46.6875C160.743 46.8295 160.995 47.0284 161.192 47.2841C161.388 47.5398 161.51 47.8381 161.558 48.179H160.719C160.656 47.9304 160.513 47.7102 160.293 47.5185C160.076 47.3243 159.782 47.2273 159.413 47.2273C159.086 47.2273 158.799 47.3125 158.553 47.483C158.309 47.651 158.119 47.889 157.982 48.1967C157.847 48.5021 157.779 48.8608 157.779 49.2727C157.779 49.6941 157.845 50.0611 157.978 50.3736C158.113 50.6861 158.302 50.9287 158.546 51.1016C158.792 51.2744 159.081 51.3608 159.413 51.3608C159.63 51.3608 159.828 51.3229 160.006 51.2472C160.183 51.1714 160.334 51.0625 160.457 50.9205C160.58 50.7784 160.667 50.608 160.719 50.4091H161.558C161.51 50.7311 161.393 51.0211 161.206 51.2791C161.021 51.5348 160.776 51.7384 160.471 51.8899C160.168 52.0391 159.815 52.1136 159.413 52.1136ZM163.322 54.0455C163.18 54.0455 163.054 54.0336 162.942 54.0099C162.831 53.9886 162.754 53.9673 162.712 53.946L162.925 53.2074C163.128 53.2595 163.308 53.2784 163.464 53.2642C163.621 53.25 163.759 53.1802 163.88 53.0547C164.003 52.9316 164.116 52.7315 164.217 52.4545L164.374 52.0284L162.357 46.5455H163.266L164.771 50.892H164.828L166.334 46.5455H167.243L164.928 52.7955C164.823 53.0772 164.694 53.3104 164.54 53.495C164.387 53.6821 164.208 53.8205 164.004 53.9105C163.803 54.0005 163.576 54.0455 163.322 54.0455ZM168.349 46.5455H169.187V52.3977C169.187 52.7339 169.129 53.0251 169.013 53.2713C168.9 53.5175 168.727 53.7081 168.495 53.843C168.265 53.978 167.975 54.0455 167.625 54.0455C167.596 54.0455 167.568 54.0455 167.539 54.0455C167.511 54.0455 167.483 54.0455 167.454 54.0455V53.2642C167.483 53.2642 167.509 53.2642 167.532 53.2642C167.556 53.2642 167.582 53.2642 167.61 53.2642C167.866 53.2642 168.053 53.1884 168.172 53.0369C168.29 52.8878 168.349 52.6747 168.349 52.3977V46.5455ZM168.761 45.6364C168.598 45.6364 168.457 45.5807 168.338 45.4695C168.222 45.3582 168.164 45.2244 168.164 45.0682C168.164 44.9119 168.222 44.7782 168.338 44.6669C168.457 44.5556 168.598 44.5 168.761 44.5C168.924 44.5 169.064 44.5556 169.18 44.6669C169.298 44.7782 169.358 44.9119 169.358 45.0682C169.358 45.2244 169.298 45.3582 169.18 45.4695C169.064 45.5807 168.924 45.6364 168.761 45.6364ZM171.56 48.7188V52H170.722V46.5455H171.532V47.3977H171.603C171.731 47.1207 171.925 46.8982 172.185 46.7301C172.446 46.5597 172.782 46.4744 173.194 46.4744C173.563 46.4744 173.886 46.5502 174.163 46.7017C174.44 46.8509 174.656 47.0781 174.809 47.3835C174.963 47.6866 175.04 48.0701 175.04 48.5341V52H174.202V48.5909C174.202 48.1624 174.091 47.8286 173.868 47.5895C173.646 47.348 173.34 47.2273 172.952 47.2273C172.685 47.2273 172.446 47.2853 172.235 47.4013C172.027 47.5173 171.862 47.6866 171.741 47.9091C171.621 48.1316 171.56 48.4015 171.56 48.7188ZM176.916 54.0455C176.774 54.0455 176.647 54.0336 176.536 54.0099C176.425 53.9886 176.348 53.9673 176.305 53.946L176.518 53.2074C176.722 53.2595 176.902 53.2784 177.058 53.2642C177.214 53.25 177.353 53.1802 177.474 53.0547C177.597 52.9316 177.709 52.7315 177.811 52.4545L177.967 52.0284L175.95 46.5455H176.859L178.365 50.892H178.422L179.928 46.5455H180.837L178.521 52.7955C178.417 53.0772 178.288 53.3104 178.134 53.495C177.98 53.6821 177.802 53.8205 177.598 53.9105C177.397 54.0005 177.17 54.0455 176.916 54.0455ZM183.963 52.1136C183.452 52.1136 183.012 51.9929 182.642 51.7514C182.273 51.5099 181.989 51.1773 181.79 50.7536C181.591 50.3298 181.492 49.8456 181.492 49.3011C181.492 48.7472 181.594 48.2583 181.797 47.8345C182.003 47.4084 182.29 47.0758 182.657 46.8366C183.026 46.5952 183.457 46.4744 183.949 46.4744C184.333 46.4744 184.678 46.5455 184.986 46.6875C185.294 46.8295 185.546 47.0284 185.743 47.2841C185.939 47.5398 186.061 47.8381 186.108 48.179H185.27C185.206 47.9304 185.064 47.7102 184.844 47.5185C184.626 47.3243 184.333 47.2273 183.963 47.2273C183.637 47.2273 183.35 47.3125 183.104 47.483C182.86 47.651 182.67 47.889 182.532 48.1967C182.397 48.5021 182.33 48.8608 182.33 49.2727C182.33 49.6941 182.396 50.0611 182.529 50.3736C182.664 50.6861 182.853 50.9287 183.097 51.1016C183.343 51.2744 183.632 51.3608 183.963 51.3608C184.181 51.3608 184.379 51.3229 184.556 51.2472C184.734 51.1714 184.884 51.0625 185.007 50.9205C185.131 50.7784 185.218 50.608 185.27 50.4091H186.108C186.061 50.7311 185.944 51.0211 185.757 51.2791C185.572 51.5348 185.327 51.7384 185.022 51.8899C184.719 52.0391 184.366 52.1136 183.963 52.1136ZM188.172 48.7188V52H187.333V44.7273H188.172V47.3977H188.243C188.37 47.116 188.562 46.8923 188.818 46.7266C189.076 46.5585 189.419 46.4744 189.848 46.4744C190.219 46.4744 190.545 46.549 190.824 46.6982C191.104 46.8449 191.32 47.071 191.474 47.3764C191.63 47.6795 191.708 48.0653 191.708 48.5341V52H190.87V48.5909C190.87 48.1577 190.758 47.8227 190.533 47.5859C190.31 47.3468 190.002 47.2273 189.606 47.2273C189.332 47.2273 189.085 47.2853 188.868 47.4013C188.652 47.5173 188.482 47.6866 188.356 47.9091C188.233 48.1316 188.172 48.4015 188.172 48.7188ZM194.492 51.0057L194.435 51.3892C194.395 51.6591 194.333 51.9479 194.25 52.2557C194.17 52.5634 194.086 52.8535 193.998 53.1257C193.91 53.398 193.838 53.6146 193.781 53.7756H193.142C193.173 53.6241 193.213 53.424 193.263 53.1754C193.313 52.9268 193.362 52.6487 193.412 52.3409C193.464 52.0355 193.507 51.723 193.54 51.4034L193.583 51.0057H194.492ZM37.6051 60.7188V64H36.767V58.5455H37.5767V59.3977H37.6477C37.7756 59.1207 37.9697 58.8982 38.2301 58.7301C38.4905 58.5597 38.8267 58.4744 39.2386 58.4744C39.608 58.4744 39.9311 58.5502 40.2081 58.7017C40.4851 58.8509 40.7005 59.0781 40.8544 59.3835C41.0083 59.6866 41.0852 60.0701 41.0852 60.5341V64H40.2472V60.5909C40.2472 60.1624 40.1359 59.8286 39.9134 59.5895C39.6908 59.348 39.3854 59.2273 38.9972 59.2273C38.7296 59.2273 38.4905 59.2853 38.2798 59.4013C38.0715 59.5173 37.907 59.6866 37.7862 59.9091C37.6655 60.1316 37.6051 60.4015 37.6051 60.7188ZM42.6167 64V58.5455H43.4547V64H42.6167ZM43.0428 57.6364C42.8794 57.6364 42.7386 57.5807 42.6202 57.4695C42.5042 57.3582 42.4462 57.2244 42.4462 57.0682C42.4462 56.9119 42.5042 56.7782 42.6202 56.6669C42.7386 56.5556 42.8794 56.5 43.0428 56.5C43.2061 56.5 43.3458 56.5556 43.4618 56.6669C43.5802 56.7782 43.6394 56.9119 43.6394 57.0682C43.6394 57.2244 43.5802 57.3582 43.4618 57.4695C43.3458 57.5807 43.2061 57.6364 43.0428 57.6364ZM47.2766 64.1136C46.7511 64.1136 46.2977 63.9976 45.9165 63.7656C45.5378 63.5312 45.2454 63.2045 45.0394 62.7855C44.8358 62.3641 44.734 61.8741 44.734 61.3153C44.734 60.7566 44.8358 60.2642 45.0394 59.8381C45.2454 59.4096 45.5318 59.0758 45.8988 58.8366C46.2681 58.5952 46.699 58.4744 47.1914 58.4744C47.4755 58.4744 47.756 58.5218 48.033 58.6165C48.31 58.7112 48.5621 58.8651 48.7894 59.0781C49.0167 59.2888 49.1978 59.5682 49.3327 59.9162C49.4677 60.2642 49.5352 60.6927 49.5352 61.2017V61.5568H45.3306V60.8324H48.6829C48.6829 60.5246 48.6213 60.25 48.4982 60.0085C48.3775 59.767 48.2047 59.5765 47.9798 59.4368C47.7572 59.2971 47.4944 59.2273 47.1914 59.2273C46.8576 59.2273 46.5688 59.3101 46.3249 59.4759C46.0835 59.6392 45.8976 59.8523 45.7674 60.1151C45.6372 60.3778 45.5721 60.6596 45.5721 60.9602V61.4432C45.5721 61.8551 45.6431 62.2043 45.7852 62.4908C45.9296 62.7749 46.1296 62.9915 46.3853 63.1406C46.641 63.2874 46.9381 63.3608 47.2766 63.3608C47.4968 63.3608 47.6957 63.33 47.8732 63.2685C48.0531 63.2045 48.2082 63.1098 48.3384 62.9844C48.4686 62.8565 48.5692 62.6979 48.6403 62.5085L49.4499 62.7358C49.3647 63.0104 49.2215 63.2519 49.0202 63.4602C48.819 63.6662 48.5704 63.8272 48.2745 63.9432C47.9786 64.0568 47.646 64.1136 47.2766 64.1136ZM55.9947 58.5455V59.2557H53.168V58.5455H55.9947ZM53.9918 57.2386H54.8299V62.4375C54.8299 62.6742 54.8642 62.8518 54.9329 62.9702C55.0039 63.0862 55.0939 63.1643 55.2028 63.2045C55.314 63.2424 55.4312 63.2614 55.5543 63.2614C55.6467 63.2614 55.7224 63.2566 55.7816 63.2472C55.8408 63.2353 55.8881 63.2259 55.9237 63.2188L56.0941 63.9716C56.0373 63.9929 55.958 64.0142 55.8562 64.0355C55.7544 64.0592 55.6254 64.071 55.4691 64.071C55.2324 64.071 55.0004 64.0201 54.7731 63.9183C54.5482 63.8165 54.3612 63.6615 54.212 63.4531C54.0652 63.2448 53.9918 62.982 53.9918 62.6648V57.2386ZM57.7951 66.0455C57.6531 66.0455 57.5264 66.0336 57.4151 66.0099C57.3039 65.9886 57.2269 65.9673 57.1843 65.946L57.3974 65.2074C57.601 65.2595 57.7809 65.2784 57.9371 65.2642C58.0934 65.25 58.2319 65.1802 58.3526 65.0547C58.4757 64.9316 58.5882 64.7315 58.69 64.4545L58.8462 64.0284L56.8292 58.5455H57.7383L59.244 62.892H59.3008L60.8065 58.5455H61.7156L59.4002 64.7955C59.296 65.0772 59.167 65.3104 59.0131 65.495C58.8593 65.6821 58.6805 65.8205 58.4769 65.9105C58.2757 66.0005 58.0484 66.0455 57.7951 66.0455ZM63.6598 56.7273V64H62.8217V56.7273H63.6598ZM65.976 62.0114L65.9618 60.9744H66.1323L68.5186 58.5455H69.5556L67.013 61.1165H66.9419L65.976 62.0114ZM65.1948 64V56.7273H66.0328V64H65.1948ZM68.6607 64L66.53 61.3011L67.1266 60.7188L69.726 64H68.6607ZM72.6255 64.1136C72.1331 64.1136 71.7011 63.9964 71.3294 63.7621C70.96 63.5277 70.6712 63.1998 70.4629 62.7784C70.2569 62.357 70.1539 61.8646 70.1539 61.3011C70.1539 60.733 70.2569 60.237 70.4629 59.8132C70.6712 59.3894 70.96 59.0604 71.3294 58.826C71.7011 58.5916 72.1331 58.4744 72.6255 58.4744C73.118 58.4744 73.5488 58.5916 73.9181 58.826C74.2898 59.0604 74.5787 59.3894 74.7846 59.8132C74.993 60.237 75.0971 60.733 75.0971 61.3011C75.0971 61.8646 74.993 62.357 74.7846 62.7784C74.5787 63.1998 74.2898 63.5277 73.9181 63.7621C73.5488 63.9964 73.118 64.1136 72.6255 64.1136ZM72.6255 63.3608C72.9996 63.3608 73.3074 63.2649 73.5488 63.0732C73.7903 62.8814 73.969 62.6293 74.085 62.3168C74.2011 62.0043 74.2591 61.6657 74.2591 61.3011C74.2591 60.9366 74.2011 60.5968 74.085 60.282C73.969 59.9671 73.7903 59.7126 73.5488 59.5185C73.3074 59.3243 72.9996 59.2273 72.6255 59.2273C72.2515 59.2273 71.9437 59.3243 71.7022 59.5185C71.4608 59.7126 71.282 59.9671 71.166 60.282C71.05 60.5968 70.992 60.9366 70.992 61.3011C70.992 61.6657 71.05 62.0043 71.166 62.3168C71.282 62.6293 71.4608 62.8814 71.7022 63.0732C71.9437 63.2649 72.2515 63.3608 72.6255 63.3608ZM81.4048 64.1136C80.9124 64.1136 80.4804 63.9964 80.1087 63.7621C79.7393 63.5277 79.4505 63.1998 79.2422 62.7784C79.0362 62.357 78.9332 61.8646 78.9332 61.3011C78.9332 60.733 79.0362 60.237 79.2422 59.8132C79.4505 59.3894 79.7393 59.0604 80.1087 58.826C80.4804 58.5916 80.9124 58.4744 81.4048 58.4744C81.8973 58.4744 82.3281 58.5916 82.6974 58.826C83.0691 59.0604 83.358 59.3894 83.5639 59.8132C83.7723 60.237 83.8764 60.733 83.8764 61.3011C83.8764 61.8646 83.7723 62.357 83.5639 62.7784C83.358 63.1998 83.0691 63.5277 82.6974 63.7621C82.3281 63.9964 81.8973 64.1136 81.4048 64.1136ZM81.4048 63.3608C81.7789 63.3608 82.0866 63.2649 82.3281 63.0732C82.5696 62.8814 82.7483 62.6293 82.8643 62.3168C82.9804 62.0043 83.0384 61.6657 83.0384 61.3011C83.0384 60.9366 82.9804 60.5968 82.8643 60.282C82.7483 59.9671 82.5696 59.7126 82.3281 59.5185C82.0866 59.3243 81.7789 59.2273 81.4048 59.2273C81.0308 59.2273 80.723 59.3243 80.4815 59.5185C80.2401 59.7126 80.0613 59.9671 79.9453 60.282C79.8293 60.5968 79.7713 60.9366 79.7713 61.3011C79.7713 61.6657 79.8293 62.0043 79.9453 62.3168C80.0613 62.6293 80.2401 62.8814 80.4815 63.0732C80.723 63.2649 81.0308 63.3608 81.4048 63.3608ZM87.5847 58.5455V59.2557H84.6444V58.5455H87.5847ZM85.525 64V57.7926C85.525 57.4801 85.5984 57.2197 85.7452 57.0114C85.892 56.803 86.0826 56.6468 86.3169 56.5426C86.5513 56.4384 86.7987 56.3864 87.0591 56.3864C87.2651 56.3864 87.4332 56.4029 87.5634 56.4361C87.6936 56.4692 87.7907 56.5 87.8546 56.5284L87.6131 57.2528C87.5705 57.2386 87.5113 57.2209 87.4355 57.1996C87.3622 57.1783 87.2651 57.1676 87.1444 57.1676C86.8674 57.1676 86.6673 57.2375 86.5442 57.3771C86.4235 57.5168 86.3631 57.7216 86.3631 57.9915V64H85.525ZM90.8216 64.1136C90.296 64.1136 89.8426 63.9976 89.4615 63.7656C89.0827 63.5312 88.7903 63.2045 88.5843 62.7855C88.3807 62.3641 88.2789 61.8741 88.2789 61.3153C88.2789 60.7566 88.3807 60.2642 88.5843 59.8381C88.7903 59.4096 89.0768 59.0758 89.4437 58.8366C89.813 58.5952 90.2439 58.4744 90.7363 58.4744C91.0204 58.4744 91.301 58.5218 91.5779 58.6165C91.8549 58.7112 92.1071 58.8651 92.3343 59.0781C92.5616 59.2888 92.7427 59.5682 92.8777 59.9162C93.0126 60.2642 93.0801 60.6927 93.0801 61.2017V61.5568H88.8755V60.8324H92.2278C92.2278 60.5246 92.1663 60.25 92.0431 60.0085C91.9224 59.767 91.7496 59.5765 91.5247 59.4368C91.3021 59.2971 91.0394 59.2273 90.7363 59.2273C90.4025 59.2273 90.1137 59.3101 89.8699 59.4759C89.6284 59.6392 89.4425 59.8523 89.3123 60.1151C89.1821 60.3778 89.117 60.6596 89.117 60.9602V61.4432C89.117 61.8551 89.188 62.2043 89.3301 62.4908C89.4745 62.7749 89.6745 62.9915 89.9302 63.1406C90.1859 63.2874 90.483 63.3608 90.8216 63.3608C91.0417 63.3608 91.2406 63.33 91.4181 63.2685C91.5981 63.2045 91.7531 63.1098 91.8833 62.9844C92.0136 62.8565 92.1142 62.6979 92.1852 62.5085L92.9949 62.7358C92.9096 63.0104 92.7664 63.2519 92.5652 63.4602C92.3639 63.6662 92.1154 63.8272 91.8194 63.9432C91.5235 64.0568 91.1909 64.1136 90.8216 64.1136ZM94.3549 64V58.5455H95.1646V59.3693H95.2214C95.3208 59.0994 95.5008 58.8804 95.7612 58.7124C96.0216 58.5443 96.3152 58.4602 96.6419 58.4602C96.7034 58.4602 96.7804 58.4614 96.8727 58.4638C96.965 58.4661 97.0349 58.4697 97.0822 58.4744V59.3267C97.0538 59.3196 96.9887 59.3089 96.8869 59.2947C96.7875 59.2782 96.6821 59.2699 96.5708 59.2699C96.3057 59.2699 96.069 59.3255 95.8606 59.4368C95.6547 59.5457 95.4913 59.6972 95.3706 59.8913C95.2522 60.0831 95.193 60.3021 95.193 60.5483V64H94.3549ZM100.79 58.5455V59.2557H97.9629V58.5455H100.79ZM98.7868 57.2386H99.6248V62.4375C99.6248 62.6742 99.6592 62.8518 99.7278 62.9702C99.7988 63.0862 99.8888 63.1643 99.9977 63.2045C100.109 63.2424 100.226 63.2614 100.349 63.2614C100.442 63.2614 100.517 63.2566 100.577 63.2472C100.636 63.2353 100.683 63.2259 100.719 63.2188L100.889 63.9716C100.832 63.9929 100.753 64.0142 100.651 64.0355C100.549 64.0592 100.42 64.071 100.264 64.071C100.027 64.071 99.7953 64.0201 99.568 63.9183C99.3431 63.8165 99.1561 63.6615 99.0069 63.4531C98.8601 63.2448 98.7868 62.982 98.7868 62.6648V57.2386ZM104.208 64.1136C103.715 64.1136 103.283 63.9964 102.911 63.7621C102.542 63.5277 102.253 63.1998 102.045 62.7784C101.839 62.357 101.736 61.8646 101.736 61.3011C101.736 60.733 101.839 60.237 102.045 59.8132C102.253 59.3894 102.542 59.0604 102.911 58.826C103.283 58.5916 103.715 58.4744 104.208 58.4744C104.7 58.4744 105.131 58.5916 105.5 58.826C105.872 59.0604 106.161 59.3894 106.367 59.8132C106.575 60.237 106.679 60.733 106.679 61.3011C106.679 61.8646 106.575 62.357 106.367 62.7784C106.161 63.1998 105.872 63.5277 105.5 63.7621C105.131 63.9964 104.7 64.1136 104.208 64.1136ZM104.208 63.3608C104.582 63.3608 104.889 63.2649 105.131 63.0732C105.372 62.8814 105.551 62.6293 105.667 62.3168C105.783 62.0043 105.841 61.6657 105.841 61.3011C105.841 60.9366 105.783 60.5968 105.667 60.282C105.551 59.9671 105.372 59.7126 105.131 59.5185C104.889 59.3243 104.582 59.2273 104.208 59.2273C103.834 59.2273 103.526 59.3243 103.284 59.5185C103.043 59.7126 102.864 59.9671 102.748 60.282C102.632 60.5968 102.574 60.9366 102.574 61.3011C102.574 61.6657 102.632 62.0043 102.748 62.3168C102.864 62.6293 103.043 62.8814 103.284 63.0732C103.526 63.2649 103.834 63.3608 104.208 63.3608ZM109.009 64L107.347 58.5455H108.227L109.406 62.7216H109.463L110.628 58.5455H111.523L112.673 62.7074H112.73L113.909 58.5455H114.79L113.128 64H112.304L111.111 59.8097H111.026L109.833 64H109.009ZM116.438 66.0455C116.296 66.0455 116.169 66.0336 116.058 66.0099C115.946 65.9886 115.869 65.9673 115.827 65.946L116.04 65.2074C116.244 65.2595 116.423 65.2784 116.58 65.2642C116.736 65.25 116.874 65.1802 116.995 65.0547C117.118 64.9316 117.231 64.7315 117.333 64.4545L117.489 64.0284L115.472 58.5455H116.381L117.887 62.892H117.943L119.449 58.5455H120.358L118.043 64.7955C117.939 65.0772 117.81 65.3104 117.656 65.495C117.502 65.6821 117.323 65.8205 117.119 65.9105C116.918 66.0005 116.691 66.0455 116.438 66.0455ZM123.485 64.1136C122.974 64.1136 122.533 63.9929 122.164 63.7514C121.795 63.5099 121.51 63.1773 121.312 62.7536C121.113 62.3298 121.013 61.8456 121.013 61.3011C121.013 60.7472 121.115 60.2583 121.319 59.8345C121.525 59.4084 121.811 59.0758 122.178 58.8366C122.547 58.5952 122.978 58.4744 123.471 58.4744C123.854 58.4744 124.2 58.5455 124.508 58.6875C124.815 58.8295 125.068 59.0284 125.264 59.2841C125.461 59.5398 125.582 59.8381 125.63 60.179H124.792C124.728 59.9304 124.586 59.7102 124.366 59.5185C124.148 59.3243 123.854 59.2273 123.485 59.2273C123.158 59.2273 122.872 59.3125 122.626 59.483C122.382 59.651 122.191 59.889 122.054 60.1967C121.919 60.5021 121.851 60.8608 121.851 61.2727C121.851 61.6941 121.918 62.0611 122.05 62.3736C122.185 62.6861 122.375 62.9287 122.618 63.1016C122.865 63.2744 123.153 63.3608 123.485 63.3608C123.703 63.3608 123.9 63.3229 124.078 63.2472C124.256 63.1714 124.406 63.0625 124.529 62.9205C124.652 62.7784 124.74 62.608 124.792 62.4091H125.63C125.582 62.7311 125.465 63.0211 125.278 63.2791C125.094 63.5348 124.849 63.7384 124.543 63.8899C124.24 64.0391 123.887 64.1136 123.485 64.1136ZM127.693 60.7188V64H126.855V56.7273H127.693V59.3977H127.764C127.892 59.116 128.084 58.8923 128.339 58.7266C128.597 58.5585 128.941 58.4744 129.369 58.4744C129.741 58.4744 130.066 58.549 130.346 58.6982C130.625 58.8449 130.842 59.071 130.996 59.3764C131.152 59.6795 131.23 60.0653 131.23 60.5341V64H130.392V60.5909C130.392 60.1577 130.279 59.8227 130.055 59.5859C129.832 59.3468 129.523 59.2273 129.128 59.2273C128.853 59.2273 128.607 59.2853 128.389 59.4013C128.174 59.5173 128.003 59.6866 127.878 59.9091C127.755 60.1316 127.693 60.4015 127.693 60.7188Z" fill="#D0D0D0"/>
<mask id="path-5-inside-2_6306_10250" fill="white">
<path d="M232 39C232 27.9543 240.954 19 252 19C263.046 19 272 27.9543 272 39C272 50.0457 263.046 59 252 59C240.954 59 232 50.0457 232 39Z"/>
</mask>
<path d="M232 39C232 27.9543 240.954 19 252 19C263.046 19 272 27.9543 272 39C272 50.0457 263.046 59 252 59C240.954 59 232 50.0457 232 39Z" fill="url(#paint1_linear_6306_10250)"/>
<path d="M232 38.5C232 27.1782 241.178 18 252.5 18C263.822 18 273 27.1782 273 38.5L271 39C271 28.5066 262.493 20 252 20C240.954 20 232 28.5066 232 39V38.5ZM272 59H232H272ZM232 59V19V59ZM252.5 18C263.822 18 273 27.1782 273 38.5C273 49.8218 263.822 59 252.5 59H252C262.493 59 271 50.0457 271 39C271 28.5066 262.493 20 252 20L252.5 18Z" fill="white" fill-opacity="0.1" mask="url(#path-5-inside-2_6306_10250)"/>
<path d="M242.686 38.946C242.686 35.81 244.31 33.682 246.858 33.682C249.392 33.682 251.016 35.81 251.016 38.946C251.016 42.096 249.462 44.182 246.858 44.182C244.24 44.182 242.686 42.096 242.686 38.946ZM244.044 38.946C244.044 41.438 245.08 42.95 246.858 42.95C248.636 42.95 249.658 41.438 249.658 38.946C249.658 36.426 248.636 34.914 246.858 34.914C245.08 34.914 244.044 36.426 244.044 38.946ZM257.573 44H252.239V42.936L255.935 38.26H252.239V37.154H257.573V38.232L253.849 42.894H257.573V44ZM260.401 44H259.085V39.436L258.273 39.828V38.834L259.085 38.442V33.696H260.401V37.812L261.227 37.42V38.414L260.401 38.806V44Z" fill="white"/>
<defs>
<linearGradient id="paint0_linear_6306_10250" x1="143.154" y1="39.019" x2="124.081" y2="-61.6765" gradientUnits="userSpaceOnUse">
<stop stop-color="#1B1B1C"/>
<stop offset="1" stop-color="#FAAC79" stop-opacity="0.1"/>
</linearGradient>
<linearGradient id="paint1_linear_6306_10250" x1="252.162" y1="39.0098" x2="227.162" y2="2.75977" gradientUnits="userSpaceOnUse">
<stop stop-color="#1B1B1C"/>
<stop offset="1" stop-color="#FAAC79" stop-opacity="0.1"/>
</linearGradient>
</defs>
</svg>
