<svg width="238" height="62" viewBox="0 0 238 62" fill="none" xmlns="http://www.w3.org/2000/svg">
<mask id="path-1-inside-1_6306_10241" fill="white">
<path d="M0 31C0 13.8792 13.8792 0 31 0H207C224.121 0 238 13.8792 238 31C238 48.1208 224.121 62 207 62H31C13.8792 62 0 48.1208 0 31Z"/>
</mask>
<path d="M0 31C0 13.8792 13.8792 0 31 0H207C224.121 0 238 13.8792 238 31C238 48.1208 224.121 62 207 62H31C13.8792 62 0 48.1208 0 31Z" fill="url(#paint0_linear_6306_10241)"/>
<path d="M-1 30.5C-1 13.103 13.103 -1 30.5 -1H207.5C224.897 -1 239 13.103 239 30.5L237 31C237 14.4315 223.569 1 207 1H31C14.4315 1 1 14.4315 1 31L-1 30.5ZM238 62H0H238ZM30.5 62C13.103 62 -1 47.897 -1 30.5C-1 13.103 13.103 -1 30.5 -1L31 1C14.4315 1 1 14.4315 1 31C1 48.1208 14.4315 62 31 62H30.5ZM207.5 -1C224.897 -1 239 13.103 239 30.5C239 47.897 224.897 62 207.5 62H207C223.569 62 237 48.1208 237 31C237 14.4315 223.569 1 207 1L207.5 -1Z" fill="white" fill-opacity="0.1" mask="url(#path-1-inside-1_6306_10241)"/>
<path d="M27.876 19H25.008V10.324H27.828C30.42 10.324 32.172 12.076 32.172 14.668C32.172 17.248 30.444 19 27.876 19ZM27.744 11.404H26.184V17.908H27.792C29.724 17.908 30.948 16.66 30.948 14.668C30.948 12.652 29.724 11.404 27.744 11.404ZM33.0922 16.06C33.0922 14.248 34.3882 12.976 36.1522 12.976C37.9042 12.976 39.2002 14.248 39.2002 16.06C39.2002 17.872 37.9042 19.144 36.1522 19.144C34.3882 19.144 33.0922 17.872 33.0922 16.06ZM34.2322 16.06C34.2322 17.284 35.0122 18.136 36.1522 18.136C37.2802 18.136 38.0722 17.284 38.0722 16.06C38.0722 14.836 37.2802 13.984 36.1522 13.984C35.0122 13.984 34.2322 14.836 34.2322 16.06ZM43.8208 10.648L42.7888 12.244H41.9128L42.7168 10.648H43.8208ZM39.9688 17.296H41.0488C41.0488 17.896 41.5048 18.256 42.2488 18.256C43.0408 18.256 43.4968 17.932 43.4968 17.392C43.4968 16.996 43.3048 16.756 42.6928 16.6L41.6608 16.36C40.6168 16.108 40.1248 15.592 40.1248 14.728C40.1248 13.648 41.0368 12.964 42.3328 12.964C43.6168 12.964 44.4568 13.684 44.4808 14.8H43.4008C43.3768 14.212 42.9808 13.84 42.2968 13.84C41.5888 13.84 41.1928 14.152 41.1928 14.692C41.1928 15.088 41.4808 15.352 42.0568 15.496L43.0888 15.748C44.0848 15.988 44.5768 16.444 44.5768 17.32C44.5768 18.436 43.6168 19.144 42.2248 19.144C40.8448 19.144 39.9688 18.412 39.9688 17.296ZM46.9471 19L45.0271 13.132H46.1911L47.1631 16.18C47.2951 16.612 47.4151 17.056 47.5231 17.572C47.6191 17.056 47.7751 16.564 47.9071 16.18L48.8911 13.132H50.0431L51.0151 16.18C51.1111 16.468 51.3031 17.152 51.3991 17.572C51.4951 17.104 51.6031 16.696 51.7711 16.18L52.7551 13.132H53.9311L51.9271 19H50.8591L49.8391 15.856C49.6471 15.268 49.5271 14.812 49.4671 14.488C49.4071 14.776 49.2991 15.16 49.0831 15.868L48.0631 19H46.9471ZM55.45 11.74C55.042 11.74 54.706 11.404 54.706 10.996C54.706 10.576 55.042 10.252 55.45 10.252C55.858 10.252 56.194 10.576 56.194 10.996C56.194 11.404 55.858 11.74 55.45 11.74ZM54.898 19V13.132H56.026V19H54.898ZM59.3797 19.144C58.1197 19.144 57.3757 18.436 57.3757 17.368C57.3757 16.288 58.1797 15.616 59.5597 15.508L61.4077 15.364V15.196C61.4077 14.212 60.8197 13.864 60.0277 13.864C59.0797 13.864 58.5397 14.284 58.5397 14.992H57.5557C57.5557 13.768 58.5637 12.964 60.0757 12.964C61.5277 12.964 62.5117 13.732 62.5117 15.316V19H61.5517L61.4317 18.052C61.1317 18.724 60.3277 19.144 59.3797 19.144ZM59.7037 18.268C60.7717 18.268 61.4197 17.572 61.4197 16.468V16.156L59.9197 16.276C58.9237 16.372 58.5157 16.756 58.5157 17.332C58.5157 17.956 58.9717 18.268 59.7037 18.268ZM66.4258 19.144C64.7218 19.144 63.6898 17.872 63.6898 16.084C63.6898 14.284 64.7338 12.964 66.4738 12.964C67.3738 12.964 68.1298 13.36 68.5258 14.08V10.168H69.6418V19H68.6338L68.5378 17.932C68.1538 18.736 67.3618 19.144 66.4258 19.144ZM66.6538 18.124C67.8058 18.124 68.5138 17.272 68.5138 16.048C68.5138 14.848 67.8058 13.984 66.6538 13.984C65.5018 13.984 64.8298 14.848 64.8298 16.048C64.8298 17.26 65.5018 18.124 66.6538 18.124ZM70.8851 16.072C70.8851 14.236 72.0491 12.964 73.7651 12.964C75.2411 12.964 76.2731 13.804 76.4771 15.112H75.3491C75.1571 14.368 74.5571 13.972 73.8011 13.972C72.7331 13.972 72.0011 14.788 72.0011 16.06C72.0011 17.32 72.6851 18.136 73.7531 18.136C74.5571 18.136 75.1571 17.716 75.3611 17.02H76.4891C76.2611 18.292 75.1691 19.144 73.7531 19.144C72.0251 19.144 70.8851 17.92 70.8851 16.072ZM81.6569 19H77.0849V18.088L80.2529 14.08H77.0849V13.132H81.6569V14.056L78.4649 18.052H81.6569V19ZM85.3324 19.144C83.6044 19.144 82.4164 17.896 82.4164 16.072C82.4164 14.236 83.5804 12.964 85.2844 12.964C86.9524 12.964 88.0444 14.116 88.0444 15.856V16.276L83.5084 16.288C83.5924 17.524 84.2404 18.208 85.3564 18.208C86.2324 18.208 86.8084 17.848 87.0004 17.176H88.0564C87.7684 18.436 86.7844 19.144 85.3324 19.144ZM85.2844 13.912C84.3004 13.912 83.6764 14.5 83.5324 15.532H86.9164C86.9164 14.56 86.2804 13.912 85.2844 13.912ZM90.4323 19H89.3043V13.132H90.3243L90.4443 14.032C90.8163 13.36 91.5603 12.964 92.3883 12.964C93.9363 12.964 94.6443 13.912 94.6443 15.412V19H93.5163V15.664C93.5163 14.476 92.9643 13.996 92.1003 13.996C91.0443 13.996 90.4323 14.752 90.4323 15.892V19ZM96.7586 11.74C96.3506 11.74 96.0146 11.404 96.0146 10.996C96.0146 10.576 96.3506 10.252 96.7586 10.252C97.1666 10.252 97.5026 10.576 97.5026 10.996C97.5026 11.404 97.1666 11.74 96.7586 11.74ZM96.2066 19V13.132H97.3346V19H96.2066ZM101.504 19.144C99.7763 19.144 98.5883 17.896 98.5883 16.072C98.5883 14.236 99.7523 12.964 101.456 12.964C103.124 12.964 104.216 14.116 104.216 15.856V16.276L99.6803 16.288C99.7643 17.524 100.412 18.208 101.528 18.208C102.404 18.208 102.98 17.848 103.172 17.176H104.228C103.94 18.436 102.956 19.144 101.504 19.144ZM101.456 13.912C100.472 13.912 99.8483 14.5 99.7043 15.532H103.088C103.088 14.56 102.452 13.912 101.456 13.912Z" fill="white"/>
<path d="M24.7045 32V26.1818H26.6705C27.1269 26.1818 27.5 26.2642 27.7898 26.429C28.0814 26.5919 28.2973 26.8125 28.4375 27.0909C28.5777 27.3693 28.6477 27.6799 28.6477 28.0227C28.6477 28.3655 28.5777 28.6771 28.4375 28.9574C28.2992 29.2377 28.0852 29.4612 27.7955 29.6278C27.5057 29.7926 27.1345 29.875 26.6818 29.875H25.2727V29.25H26.6591C26.9716 29.25 27.2225 29.196 27.4119 29.0881C27.6013 28.9801 27.7386 28.8343 27.8239 28.6506C27.911 28.465 27.9545 28.2557 27.9545 28.0227C27.9545 27.7898 27.911 27.5814 27.8239 27.3977C27.7386 27.214 27.6004 27.0701 27.4091 26.9659C27.2178 26.8598 26.964 26.8068 26.6477 26.8068H25.4091V32H24.7045ZM30.9759 32.1023C30.6993 32.1023 30.4484 32.0502 30.223 31.946C29.9976 31.84 29.8187 31.6875 29.6861 31.4886C29.5535 31.2879 29.4872 31.0455 29.4872 30.7614C29.4872 30.5114 29.5365 30.3087 29.6349 30.1534C29.7334 29.9962 29.8651 29.8731 30.0298 29.7841C30.1946 29.6951 30.3764 29.6288 30.5753 29.5852C30.776 29.5398 30.9777 29.5038 31.1804 29.4773C31.4455 29.4432 31.6605 29.4176 31.8253 29.4006C31.992 29.3816 32.1132 29.3504 32.1889 29.3068C32.2666 29.2633 32.3054 29.1875 32.3054 29.0795V29.0568C32.3054 28.7765 32.2287 28.5587 32.0753 28.4034C31.9238 28.2481 31.6937 28.1705 31.3849 28.1705C31.0649 28.1705 30.8139 28.2405 30.6321 28.3807C30.4503 28.5208 30.3224 28.6705 30.2486 28.8295L29.6122 28.6023C29.7259 28.3371 29.8774 28.1307 30.0668 27.983C30.258 27.8333 30.4664 27.7292 30.6918 27.6705C30.919 27.6098 31.1425 27.5795 31.3622 27.5795C31.5024 27.5795 31.6634 27.5966 31.8452 27.6307C32.0289 27.6629 32.206 27.7301 32.3764 27.8324C32.5488 27.9347 32.6918 28.089 32.8054 28.2955C32.919 28.5019 32.9759 28.7784 32.9759 29.125V32H32.3054V31.4091H32.2713C32.2259 31.5038 32.1501 31.6051 32.044 31.7131C31.938 31.821 31.7969 31.9129 31.6207 31.9886C31.4446 32.0644 31.2296 32.1023 30.9759 32.1023ZM31.0781 31.5C31.3433 31.5 31.5668 31.4479 31.7486 31.3438C31.9323 31.2396 32.0705 31.1051 32.1634 30.9403C32.258 30.7756 32.3054 30.6023 32.3054 30.4205V29.8068C32.277 29.8409 32.2145 29.8722 32.1179 29.9006C32.0232 29.9271 31.9134 29.9508 31.7884 29.9716C31.6652 29.9905 31.545 30.0076 31.4276 30.0227C31.312 30.036 31.2183 30.0473 31.1463 30.0568C30.9721 30.0795 30.8092 30.1165 30.6577 30.1676C30.508 30.2169 30.3868 30.2917 30.294 30.392C30.2031 30.4905 30.1577 30.625 30.1577 30.7955C30.1577 31.0284 30.2438 31.2045 30.4162 31.3239C30.5904 31.4413 30.8111 31.5 31.0781 31.5ZM34.87 29.375V32H34.1996V27.6364H34.8473V28.3182H34.9041C35.0064 28.0966 35.1617 27.9186 35.37 27.7841C35.5784 27.6477 35.8473 27.5795 36.1768 27.5795C36.4723 27.5795 36.7308 27.6402 36.9524 27.7614C37.174 27.8807 37.3464 28.0625 37.4695 28.3068C37.5926 28.5492 37.6541 28.8561 37.6541 29.2273V32H36.9837V29.2727C36.9837 28.9299 36.8946 28.6629 36.7166 28.4716C36.5386 28.2784 36.2943 28.1818 35.9837 28.1818C35.7696 28.1818 35.5784 28.2282 35.4098 28.321C35.2431 28.4138 35.1115 28.5492 35.0149 28.7273C34.9183 28.9053 34.87 29.1212 34.87 29.375ZM40.7088 32.0909C40.2884 32.0909 39.9257 31.9981 39.6207 31.8125C39.3177 31.625 39.0838 31.3636 38.919 31.0284C38.7562 30.6913 38.6747 30.2992 38.6747 29.8523C38.6747 29.4053 38.7562 29.0114 38.919 28.6705C39.0838 28.3277 39.313 28.0606 39.6065 27.8693C39.902 27.6761 40.2467 27.5795 40.6406 27.5795C40.8679 27.5795 41.0923 27.6174 41.3139 27.6932C41.5355 27.7689 41.7372 27.892 41.919 28.0625C42.1009 28.2311 42.2457 28.4545 42.3537 28.733C42.4616 29.0114 42.5156 29.3542 42.5156 29.7614V30.0455H39.152V29.4659H41.8338C41.8338 29.2197 41.7846 29 41.6861 28.8068C41.5895 28.6136 41.4512 28.4612 41.2713 28.3494C41.0933 28.2377 40.883 28.1818 40.6406 28.1818C40.3736 28.1818 40.1425 28.2481 39.9474 28.3807C39.7543 28.5114 39.6056 28.6818 39.5014 28.892C39.3973 29.1023 39.3452 29.3277 39.3452 29.5682V29.9545C39.3452 30.2841 39.402 30.5634 39.5156 30.7926C39.6312 31.0199 39.7912 31.1932 39.9957 31.3125C40.2003 31.4299 40.438 31.4886 40.7088 31.4886C40.8849 31.4886 41.044 31.464 41.1861 31.4148C41.33 31.3636 41.4541 31.2879 41.5582 31.1875C41.6624 31.0852 41.7429 30.9583 41.7997 30.8068L42.4474 30.9886C42.3793 31.2083 42.2647 31.4015 42.1037 31.5682C41.9427 31.733 41.7438 31.8617 41.5071 31.9545C41.2704 32.0455 41.0043 32.0909 40.7088 32.0909ZM44.206 26.1818V32H43.5355V26.1818H44.206ZM50.7749 28.6136L50.1726 28.7841C50.1347 28.6837 50.0788 28.5862 50.005 28.4915C49.933 28.3949 49.8345 28.3153 49.7095 28.2528C49.5845 28.1903 49.4245 28.1591 49.2294 28.1591C48.9624 28.1591 48.7398 28.2206 48.5618 28.3438C48.3857 28.465 48.2976 28.6193 48.2976 28.8068C48.2976 28.9735 48.3582 29.1051 48.4794 29.2017C48.6006 29.2983 48.79 29.3788 49.0476 29.4432L49.6953 29.6023C50.0855 29.697 50.3762 29.8419 50.5675 30.0369C50.7588 30.2301 50.8544 30.4792 50.8544 30.7841C50.8544 31.0341 50.7824 31.2576 50.6385 31.4545C50.4964 31.6515 50.2976 31.8068 50.0419 31.9205C49.7862 32.0341 49.4889 32.0909 49.1499 32.0909C48.7048 32.0909 48.3364 31.9943 48.0447 31.8011C47.7531 31.608 47.5684 31.3258 47.4908 30.9545L48.1271 30.7955C48.1877 31.0303 48.3023 31.2064 48.4709 31.3239C48.6413 31.4413 48.8639 31.5 49.1385 31.5C49.451 31.5 49.6991 31.4337 49.8828 31.3011C50.0684 31.1667 50.1612 31.0057 50.1612 30.8182C50.1612 30.6667 50.1082 30.5398 50.0021 30.4375C49.8961 30.3333 49.7332 30.2557 49.5135 30.2045L48.7862 30.0341C48.3866 29.9394 48.093 29.7926 47.9055 29.5938C47.7199 29.393 47.6271 29.142 47.6271 28.8409C47.6271 28.5947 47.6963 28.3769 47.8345 28.1875C47.9747 27.9981 48.165 27.8494 48.4055 27.7415C48.648 27.6335 48.9226 27.5795 49.2294 27.5795C49.6612 27.5795 50.0002 27.6742 50.2464 27.8636C50.4946 28.053 50.6707 28.303 50.7749 28.6136ZM53.7614 27.6364V28.2045H51.5V27.6364H53.7614ZM52.1591 26.5909H52.8295V30.75C52.8295 30.9394 52.857 31.0814 52.9119 31.1761C52.9688 31.2689 53.0407 31.3314 53.1278 31.3636C53.2169 31.3939 53.3106 31.4091 53.4091 31.4091C53.483 31.4091 53.5436 31.4053 53.5909 31.3977C53.6383 31.3883 53.6761 31.3807 53.7045 31.375L53.8409 31.9773C53.7955 31.9943 53.732 32.0114 53.6506 32.0284C53.5691 32.0473 53.4659 32.0568 53.3409 32.0568C53.1515 32.0568 52.9659 32.0161 52.7841 31.9347C52.6042 31.8532 52.4545 31.7292 52.3352 31.5625C52.2178 31.3958 52.1591 31.1856 52.1591 30.9318V26.5909ZM55.7585 32L54.429 27.6364H55.1335L56.0767 30.9773H56.1222L57.054 27.6364H57.7699L58.6903 30.9659H58.7358L59.679 27.6364H60.3835L59.054 32H58.3949L57.4403 28.6477H57.3722L56.4176 32H55.7585ZM62.8942 32.0909C62.5002 32.0909 62.1546 31.9972 61.8572 31.8097C61.5618 31.6222 61.3307 31.3598 61.1641 31.0227C60.9993 30.6856 60.9169 30.2917 60.9169 29.8409C60.9169 29.3864 60.9993 28.9896 61.1641 28.6506C61.3307 28.3116 61.5618 28.0483 61.8572 27.8608C62.1546 27.6733 62.5002 27.5795 62.8942 27.5795C63.2881 27.5795 63.6328 27.6733 63.9283 27.8608C64.2256 28.0483 64.4567 28.3116 64.6214 28.6506C64.7881 28.9896 64.8714 29.3864 64.8714 29.8409C64.8714 30.2917 64.7881 30.6856 64.6214 31.0227C64.4567 31.3598 64.2256 31.6222 63.9283 31.8097C63.6328 31.9972 63.2881 32.0909 62.8942 32.0909ZM62.8942 31.4886C63.1934 31.4886 63.4396 31.4119 63.6328 31.2585C63.826 31.1051 63.969 30.9034 64.0618 30.6534C64.1546 30.4034 64.201 30.1326 64.201 29.8409C64.201 29.5492 64.1546 29.2775 64.0618 29.0256C63.969 28.7737 63.826 28.5701 63.6328 28.4148C63.4396 28.2595 63.1934 28.1818 62.8942 28.1818C62.5949 28.1818 62.3487 28.2595 62.1555 28.4148C61.9624 28.5701 61.8194 28.7737 61.7266 29.0256C61.6338 29.2775 61.5874 29.5492 61.5874 29.8409C61.5874 30.1326 61.6338 30.4034 61.7266 30.6534C61.8194 30.9034 61.9624 31.1051 62.1555 31.2585C62.3487 31.4119 62.5949 31.4886 62.8942 31.4886ZM65.8949 32V27.6364H66.5426V28.2955H66.5881C66.6676 28.0795 66.8116 27.9044 67.0199 27.7699C67.2282 27.6354 67.4631 27.5682 67.7244 27.5682C67.7737 27.5682 67.8352 27.5691 67.9091 27.571C67.983 27.5729 68.0388 27.5758 68.0767 27.5795V28.2614C68.054 28.2557 68.0019 28.2472 67.9205 28.2358C67.8409 28.2225 67.7566 28.2159 67.6676 28.2159C67.4555 28.2159 67.2661 28.2604 67.0994 28.3494C66.9347 28.4366 66.804 28.5578 66.7074 28.7131C66.6127 28.8665 66.5653 29.0417 66.5653 29.2386V32H65.8949ZM68.7464 32V31.4886L71.2237 28.3068V28.2614H68.826V27.6364H72.0874V28.1705L69.6783 31.3295V31.375H72.1669V32H68.7464ZM74.8473 32.0909C74.4534 32.0909 74.1077 31.9972 73.8104 31.8097C73.5149 31.6222 73.2839 31.3598 73.1172 31.0227C72.9524 30.6856 72.87 30.2917 72.87 29.8409C72.87 29.3864 72.9524 28.9896 73.1172 28.6506C73.2839 28.3116 73.5149 28.0483 73.8104 27.8608C74.1077 27.6733 74.4534 27.5795 74.8473 27.5795C75.2412 27.5795 75.5859 27.6733 75.8814 27.8608C76.1787 28.0483 76.4098 28.3116 76.5746 28.6506C76.7412 28.9896 76.8246 29.3864 76.8246 29.8409C76.8246 30.2917 76.7412 30.6856 76.5746 31.0227C76.4098 31.3598 76.1787 31.6222 75.8814 31.8097C75.5859 31.9972 75.2412 32.0909 74.8473 32.0909ZM74.8473 31.4886C75.1465 31.4886 75.3928 31.4119 75.5859 31.2585C75.7791 31.1051 75.9221 30.9034 76.0149 30.6534C76.1077 30.4034 76.1541 30.1326 76.1541 29.8409C76.1541 29.5492 76.1077 29.2775 76.0149 29.0256C75.9221 28.7737 75.7791 28.5701 75.5859 28.4148C75.3928 28.2595 75.1465 28.1818 74.8473 28.1818C74.5481 28.1818 74.3018 28.2595 74.1087 28.4148C73.9155 28.5701 73.7725 28.7737 73.6797 29.0256C73.5869 29.2775 73.5405 29.5492 73.5405 29.8409C73.5405 30.1326 73.5869 30.4034 73.6797 30.6534C73.7725 30.9034 73.9155 31.1051 74.1087 31.2585C74.3018 31.4119 74.5481 31.4886 74.8473 31.4886ZM78.5185 29.375V32H77.848V27.6364H78.4957V28.3182H78.5526C78.6548 28.0966 78.8101 27.9186 79.0185 27.7841C79.2268 27.6477 79.4957 27.5795 79.8253 27.5795C80.1207 27.5795 80.3793 27.6402 80.6009 27.7614C80.8224 27.8807 80.9948 28.0625 81.1179 28.3068C81.241 28.5492 81.3026 28.8561 81.3026 29.2273V32H80.6321V29.2727C80.6321 28.9299 80.5431 28.6629 80.3651 28.4716C80.187 28.2784 79.9427 28.1818 79.6321 28.1818C79.4181 28.1818 79.2268 28.2282 79.0582 28.321C78.8916 28.4138 78.7599 28.5492 78.6634 28.7273C78.5668 28.9053 78.5185 29.1212 78.5185 29.375ZM82.8033 33.6364C82.6896 33.6364 82.5883 33.6269 82.4993 33.608C82.4103 33.5909 82.3487 33.5739 82.3146 33.5568L82.4851 32.9659C82.648 33.0076 82.7919 33.0227 82.9169 33.0114C83.0419 33 83.1527 32.9441 83.2493 32.8438C83.3478 32.7453 83.4377 32.5852 83.5192 32.3636L83.6442 32.0227L82.0305 27.6364H82.7578L83.9624 31.1136H84.0078L85.2124 27.6364H85.9396L84.0874 32.6364C84.004 32.8617 83.9008 33.0483 83.7777 33.196C83.6546 33.3456 83.5116 33.4564 83.3487 33.5284C83.1877 33.6004 83.0059 33.6364 82.8033 33.6364ZM89.0746 33.6364V27.6364H89.7223V28.3295H89.8018C89.8511 28.2538 89.9193 28.1572 90.0064 28.0398C90.0954 27.9205 90.2223 27.8144 90.3871 27.7216C90.5537 27.6269 90.7791 27.5795 91.0632 27.5795C91.4306 27.5795 91.7545 27.6714 92.0348 27.8551C92.3151 28.0388 92.5339 28.2992 92.6911 28.6364C92.8482 28.9735 92.9268 29.3712 92.9268 29.8295C92.9268 30.2917 92.8482 30.6922 92.6911 31.0312C92.5339 31.3684 92.3161 31.6297 92.0376 31.8153C91.7592 31.9991 91.4382 32.0909 91.0746 32.0909C90.7943 32.0909 90.5698 32.0445 90.4013 31.9517C90.2327 31.857 90.103 31.75 90.0121 31.6307C89.9212 31.5095 89.8511 31.4091 89.8018 31.3295H89.745V33.6364H89.0746ZM89.7337 29.8182C89.7337 30.1477 89.782 30.4384 89.8786 30.6903C89.9751 30.9403 90.1162 31.1364 90.3018 31.2784C90.4875 31.4186 90.7147 31.4886 90.9837 31.4886C91.264 31.4886 91.4979 31.4148 91.6854 31.267C91.8748 31.1174 92.0168 30.9167 92.1115 30.6648C92.2081 30.411 92.2564 30.1288 92.2564 29.8182C92.2564 29.5114 92.209 29.2348 92.1143 28.9886C92.0215 28.7405 91.8804 28.5445 91.6911 28.4006C91.5036 28.2547 91.2678 28.1818 90.9837 28.1818C90.7109 28.1818 90.4818 28.2509 90.2962 28.3892C90.1106 28.5256 89.9704 28.7169 89.8757 28.9631C89.781 29.2074 89.7337 29.4924 89.7337 29.8182ZM93.9496 32V27.6364H94.5973V28.2955H94.6428C94.7223 28.0795 94.8662 27.9044 95.0746 27.7699C95.2829 27.6354 95.5178 27.5682 95.7791 27.5682C95.8284 27.5682 95.8899 27.5691 95.9638 27.571C96.0376 27.5729 96.0935 27.5758 96.1314 27.5795V28.2614C96.1087 28.2557 96.0566 28.2472 95.9751 28.2358C95.8956 28.2225 95.8113 28.2159 95.7223 28.2159C95.5102 28.2159 95.3208 28.2604 95.1541 28.3494C94.9893 28.4366 94.8587 28.5578 94.7621 28.7131C94.6674 28.8665 94.62 29.0417 94.62 29.2386V32H93.9496ZM96.8011 32V31.4886L99.2784 28.3068V28.2614H96.8807V27.6364H100.142V28.1705L97.733 31.3295V31.375H100.222V32H96.8011ZM102.959 32.0909C102.538 32.0909 102.176 31.9981 101.871 31.8125C101.568 31.625 101.334 31.3636 101.169 31.0284C101.006 30.6913 100.925 30.2992 100.925 29.8523C100.925 29.4053 101.006 29.0114 101.169 28.6705C101.334 28.3277 101.563 28.0606 101.857 27.8693C102.152 27.6761 102.497 27.5795 102.891 27.5795C103.118 27.5795 103.342 27.6174 103.564 27.6932C103.786 27.7689 103.987 27.892 104.169 28.0625C104.351 28.2311 104.496 28.4545 104.604 28.733C104.712 29.0114 104.766 29.3542 104.766 29.7614V30.0455H101.402V29.4659H104.084C104.084 29.2197 104.035 29 103.936 28.8068C103.839 28.6136 103.701 28.4612 103.521 28.3494C103.343 28.2377 103.133 28.1818 102.891 28.1818C102.624 28.1818 102.393 28.2481 102.197 28.3807C102.004 28.5114 101.856 28.6818 101.751 28.892C101.647 29.1023 101.595 29.3277 101.595 29.5682V29.9545C101.595 30.2841 101.652 30.5634 101.766 30.7926C101.881 31.0199 102.041 31.1932 102.246 31.3125C102.45 31.4299 102.688 31.4886 102.959 31.4886C103.135 31.4886 103.294 31.464 103.436 31.4148C103.58 31.3636 103.704 31.2879 103.808 31.1875C103.912 31.0852 103.993 30.9583 104.05 30.8068L104.697 30.9886C104.629 31.2083 104.515 31.4015 104.354 31.5682C104.193 31.733 103.994 31.8617 103.757 31.9545C103.52 32.0455 103.254 32.0909 102.959 32.0909ZM105.661 32V31.4886L108.138 28.3068V28.2614H105.74V27.6364H109.001V28.1705L106.592 31.3295V31.375H109.081V32H105.661ZM112.389 32V26.1818H114.463C114.914 26.1818 115.288 26.2595 115.585 26.4148C115.884 26.5701 116.108 26.785 116.256 27.0597C116.403 27.3324 116.477 27.6477 116.477 28.0057C116.477 28.3617 116.402 28.6752 116.253 28.946C116.105 29.215 115.882 29.4242 115.582 29.5739C115.285 29.7235 114.911 29.7983 114.46 29.7983H112.889V29.0426H114.381C114.665 29.0426 114.896 29.0019 115.074 28.9205C115.254 28.839 115.385 28.7206 115.469 28.5653C115.552 28.41 115.594 28.2235 115.594 28.0057C115.594 27.786 115.551 27.5956 115.466 27.4347C115.383 27.2737 115.251 27.1506 115.071 27.0653C114.893 26.9782 114.659 26.9347 114.369 26.9347H113.267V32H112.389ZM115.261 29.375L116.699 32H115.699L114.29 29.375H115.261ZM117.545 32V26.1818H121.193V26.9375H118.423V28.7102H121.003V29.4631H118.423V31.2443H121.227V32H117.545ZM127.062 26.1818V32H126.255L123.298 27.733H123.244V32H122.366V26.1818H123.178L126.138 30.4545H126.192V26.1818H127.062ZM130.226 32H128.342V26.1818H130.286C130.856 26.1818 131.345 26.2983 131.754 26.5312C132.163 26.7623 132.477 27.0947 132.695 27.5284C132.914 27.9602 133.024 28.4782 133.024 29.0824C133.024 29.6884 132.913 30.2093 132.692 30.6449C132.472 31.0805 132.154 31.4157 131.737 31.6506C131.321 31.8835 130.817 32 130.226 32ZM129.22 31.233H130.178C130.621 31.233 130.989 31.1496 131.283 30.983C131.576 30.8144 131.796 30.571 131.942 30.2528C132.088 29.9328 132.161 29.5426 132.161 29.0824C132.161 28.6259 132.088 28.2386 131.942 27.9205C131.798 27.6023 131.583 27.3608 131.297 27.196C131.011 27.0312 130.656 26.9489 130.232 26.9489H129.22V31.233ZM134.24 32.054C134.085 32.054 133.951 31.9991 133.839 31.8892C133.728 31.7775 133.672 31.643 133.672 31.4858C133.672 31.3305 133.728 31.1979 133.839 31.0881C133.951 30.9763 134.085 30.9205 134.24 30.9205C134.395 30.9205 134.529 30.9763 134.641 31.0881C134.752 31.1979 134.808 31.3305 134.808 31.4858C134.808 31.59 134.782 31.6856 134.729 31.7727C134.678 31.858 134.609 31.9261 134.524 31.9773C134.439 32.0284 134.344 32.054 134.24 32.054ZM136.014 32V26.1818H138.088C138.541 26.1818 138.916 26.2642 139.213 26.429C139.51 26.5937 139.733 26.8191 139.881 27.1051C140.028 27.3892 140.102 27.7093 140.102 28.0653C140.102 28.4233 140.027 28.7453 139.878 29.0312C139.73 29.3153 139.507 29.5407 139.207 29.7074C138.91 29.8722 138.536 29.9545 138.085 29.9545H136.659V29.2102H138.006C138.292 29.2102 138.524 29.161 138.702 29.0625C138.88 28.9621 139.01 28.8258 139.094 28.6534C139.177 28.4811 139.219 28.285 139.219 28.0653C139.219 27.8456 139.177 27.6506 139.094 27.4801C139.01 27.3097 138.879 27.1761 138.699 27.0795C138.521 26.983 138.286 26.9347 137.994 26.9347H136.892V32H136.014ZM141.131 32V26.1818H143.205C143.656 26.1818 144.03 26.2595 144.327 26.4148C144.627 26.5701 144.85 26.785 144.998 27.0597C145.146 27.3324 145.219 27.6477 145.219 28.0057C145.219 28.3617 145.145 28.6752 144.995 28.946C144.847 29.215 144.624 29.4242 144.325 29.5739C144.027 29.7235 143.653 29.7983 143.202 29.7983H141.631V29.0426H143.123C143.407 29.0426 143.638 29.0019 143.816 28.9205C143.996 28.839 144.128 28.7206 144.211 28.5653C144.294 28.41 144.336 28.2235 144.336 28.0057C144.336 27.786 144.293 27.5956 144.208 27.4347C144.125 27.2737 143.993 27.1506 143.813 27.0653C143.635 26.9782 143.401 26.9347 143.112 26.9347H142.009V32H141.131ZM144.004 29.375L145.441 32H144.441L143.032 29.375H144.004ZM151.342 29.0909C151.342 29.7121 151.228 30.2462 151.001 30.6932C150.773 31.1383 150.462 31.4811 150.066 31.7216C149.672 31.9602 149.224 32.0795 148.722 32.0795C148.219 32.0795 147.769 31.9602 147.373 31.7216C146.979 31.4811 146.668 31.1373 146.441 30.6903C146.214 30.2434 146.1 29.7102 146.1 29.0909C146.1 28.4697 146.214 27.9366 146.441 27.4915C146.668 27.0445 146.979 26.7017 147.373 26.4631C147.769 26.2225 148.219 26.1023 148.722 26.1023C149.224 26.1023 149.672 26.2225 150.066 26.4631C150.462 26.7017 150.773 27.0445 151.001 27.4915C151.228 27.9366 151.342 28.4697 151.342 29.0909ZM150.472 29.0909C150.472 28.6174 150.396 28.2187 150.242 27.8949C150.091 27.5691 149.882 27.3229 149.617 27.1562C149.354 26.9877 149.056 26.9034 148.722 26.9034C148.387 26.9034 148.088 26.9877 147.825 27.1562C147.561 27.3229 147.353 27.5691 147.2 27.8949C147.048 28.2187 146.972 28.6174 146.972 29.0909C146.972 29.5644 147.048 29.964 147.2 30.2898C147.353 30.6136 147.561 30.8598 147.825 31.0284C148.088 31.1951 148.387 31.2784 148.722 31.2784C149.056 31.2784 149.354 31.1951 149.617 31.0284C149.882 30.8598 150.091 30.6136 150.242 30.2898C150.396 29.964 150.472 29.5644 150.472 29.0909ZM27.142 39.1733V39.9091H24.5625V39.1733H27.142ZM32.468 37.6364V38.3182H30.0021V37.6364H32.468ZM30.6783 42V37.1307C30.6783 36.858 30.7379 36.6316 30.8572 36.4517C30.9766 36.2699 31.1347 36.1345 31.3317 36.0455C31.5286 35.9545 31.7427 35.9091 31.9737 35.9091C32.1442 35.9091 32.29 35.9233 32.4112 35.9517C32.5324 35.9782 32.6224 36.0028 32.6811 36.0256L32.4822 36.7131C32.4425 36.7017 32.3913 36.6884 32.3288 36.6733C32.2663 36.6562 32.1906 36.6477 32.1016 36.6477C31.8951 36.6477 31.7474 36.6989 31.6584 36.8011C31.5713 36.9034 31.5277 37.0511 31.5277 37.2443V42H30.6783ZM33.3445 42V37.6364H34.1939V42H33.3445ZM33.7734 36.9631C33.6257 36.9631 33.4988 36.9138 33.3928 36.8153C33.2886 36.715 33.2365 36.5956 33.2365 36.4574C33.2365 36.3172 33.2886 36.1979 33.3928 36.0994C33.4988 35.9991 33.6257 35.9489 33.7734 35.9489C33.9212 35.9489 34.0471 35.9991 34.1513 36.0994C34.2573 36.1979 34.3104 36.3172 34.3104 36.4574C34.3104 36.5956 34.2573 36.715 34.1513 36.8153C34.0471 36.9138 33.9212 36.9631 33.7734 36.9631ZM35.3366 42V37.6364H36.1577V38.3295H36.2031C36.2827 38.0947 36.4228 37.91 36.6236 37.7756C36.8262 37.6392 37.0554 37.571 37.3111 37.571C37.3641 37.571 37.4266 37.5729 37.4986 37.5767C37.5724 37.5805 37.6302 37.5852 37.6719 37.5909V38.4034C37.6378 38.3939 37.5772 38.3835 37.4901 38.3722C37.4029 38.3589 37.3158 38.3523 37.2287 38.3523C37.0279 38.3523 36.849 38.3949 36.6918 38.4801C36.5365 38.5634 36.4134 38.6799 36.3224 38.8295C36.2315 38.9773 36.1861 39.1458 36.1861 39.3352V42H35.3366ZM38.407 42V37.6364H39.2223V38.3466H39.2763C39.3672 38.1061 39.5159 37.9186 39.7223 37.7841C39.9287 37.6477 40.1759 37.5795 40.4638 37.5795C40.7554 37.5795 40.9998 37.6477 41.1967 37.7841C41.3956 37.9205 41.5424 38.108 41.6371 38.3466H41.6825C41.7867 38.1136 41.9524 37.928 42.1797 37.7898C42.407 37.6496 42.6778 37.5795 42.9922 37.5795C43.388 37.5795 43.7109 37.7036 43.9609 37.9517C44.2128 38.1998 44.3388 38.5739 44.3388 39.0739V42H43.4893V39.1534C43.4893 38.858 43.4089 38.6439 43.2479 38.5114C43.0869 38.3788 42.8946 38.3125 42.6712 38.3125C42.3946 38.3125 42.1797 38.3977 42.0263 38.5682C41.8729 38.7367 41.7962 38.9536 41.7962 39.2188V42H40.9496V39.0994C40.9496 38.8627 40.8757 38.6723 40.728 38.5284C40.5803 38.3845 40.388 38.3125 40.1513 38.3125C39.9903 38.3125 39.8416 38.3551 39.7053 38.4403C39.5708 38.5237 39.4619 38.6402 39.3786 38.7898C39.2971 38.9394 39.2564 39.1127 39.2564 39.3097V42H38.407ZM47.358 42.0881C46.928 42.0881 46.5578 41.9962 46.2472 41.8125C45.9384 41.6269 45.6998 41.3665 45.5312 41.0312C45.3646 40.6941 45.2812 40.2992 45.2812 39.8466C45.2812 39.3996 45.3646 39.0057 45.5312 38.6648C45.6998 38.3239 45.9347 38.0578 46.2358 37.8665C46.5388 37.6752 46.893 37.5795 47.2983 37.5795C47.5445 37.5795 47.7831 37.6203 48.0142 37.7017C48.2453 37.7831 48.4527 37.911 48.6364 38.0852C48.8201 38.2595 48.965 38.4858 49.071 38.7642C49.1771 39.0407 49.2301 39.3769 49.2301 39.7727V40.0739H45.7614V39.4375H48.3977C48.3977 39.214 48.3523 39.0161 48.2614 38.8438C48.1705 38.6695 48.0426 38.5322 47.8778 38.4318C47.715 38.3314 47.5237 38.2812 47.304 38.2812C47.0653 38.2812 46.857 38.34 46.679 38.4574C46.5028 38.5729 46.3665 38.7244 46.2699 38.9119C46.1752 39.0975 46.1278 39.2992 46.1278 39.517V40.0142C46.1278 40.3059 46.179 40.554 46.2812 40.7585C46.3854 40.9631 46.5303 41.1193 46.7159 41.2273C46.9015 41.3333 47.1184 41.3864 47.3665 41.3864C47.5275 41.3864 47.6742 41.3636 47.8068 41.3182C47.9394 41.2708 48.054 41.2008 48.1506 41.108C48.2472 41.0152 48.321 40.9006 48.3722 40.7642L49.1761 40.9091C49.1117 41.1458 48.9962 41.3532 48.8295 41.5312C48.6648 41.7074 48.4574 41.8447 48.2074 41.9432C47.9593 42.0398 47.6761 42.0881 47.358 42.0881ZM47.5114 43.6392C47.2727 43.6392 47.0739 43.5748 46.9148 43.446C46.7576 43.3191 46.6714 43.1335 46.6562 42.8892C46.6468 42.7453 46.6705 42.6004 46.7273 42.4545C46.7841 42.3087 46.8797 42.1705 47.0142 42.0398C47.1487 41.9091 47.3267 41.7936 47.5483 41.6932L48.054 41.9602C47.8797 42.072 47.7292 42.1903 47.6023 42.3153C47.4754 42.4403 47.4119 42.5824 47.4119 42.7415C47.4119 42.8286 47.4337 42.8968 47.4773 42.946C47.5208 42.9953 47.5956 43.0199 47.7017 43.0199C47.7794 43.0199 47.8485 43.0095 47.9091 42.9886C47.9697 42.9678 48.0189 42.9479 48.0568 42.929L48.1307 43.4688C48.0644 43.5085 47.9792 43.5464 47.875 43.5824C47.7727 43.6203 47.6515 43.6392 47.5114 43.6392ZM52.1989 42V41.4176L54.5625 38.4148V38.375H52.2756V37.6364H55.6222V38.2557L53.3494 41.2216V41.2614H55.7017V42H52.1989ZM58.821 43.6364V37.6364H59.6506V38.3438H59.7216C59.7708 38.2528 59.8419 38.1477 59.9347 38.0284C60.0275 37.9091 60.1563 37.8049 60.321 37.7159C60.4858 37.625 60.7036 37.5795 60.9744 37.5795C61.3267 37.5795 61.6411 37.6686 61.9176 37.8466C62.1941 38.0246 62.411 38.2812 62.5682 38.6165C62.7273 38.9517 62.8068 39.3551 62.8068 39.8267C62.8068 40.2983 62.7282 40.7027 62.571 41.0398C62.4138 41.375 62.1979 41.6335 61.9233 41.8153C61.6487 41.9953 61.3352 42.0852 60.983 42.0852C60.7178 42.0852 60.5009 42.0407 60.3324 41.9517C60.1657 41.8627 60.035 41.7585 59.9403 41.6392C59.8456 41.5199 59.7727 41.4138 59.7216 41.321H59.6705V43.6364H58.821ZM59.6534 39.8182C59.6534 40.125 59.6979 40.3939 59.7869 40.625C59.8759 40.8561 60.0047 41.0369 60.1733 41.1676C60.3419 41.2964 60.5483 41.3608 60.7926 41.3608C61.0464 41.3608 61.2585 41.2936 61.429 41.1591C61.5994 41.0227 61.7282 40.8381 61.8153 40.6051C61.9044 40.3722 61.9489 40.1098 61.9489 39.8182C61.9489 39.5303 61.9053 39.2718 61.8182 39.0426C61.733 38.8134 61.6042 38.6326 61.4318 38.5C61.2614 38.3674 61.0483 38.3011 60.7926 38.3011C60.5464 38.3011 60.3381 38.3646 60.1676 38.4915C59.9991 38.6184 59.8712 38.7955 59.7841 39.0227C59.697 39.25 59.6534 39.5152 59.6534 39.8182ZM65.5966 42.0881C65.1875 42.0881 64.8305 41.9943 64.5256 41.8068C64.2206 41.6193 63.9839 41.357 63.8153 41.0199C63.6468 40.6828 63.5625 40.2888 63.5625 39.8381C63.5625 39.3854 63.6468 38.9896 63.8153 38.6506C63.9839 38.3116 64.2206 38.0483 64.5256 37.8608C64.8305 37.6733 65.1875 37.5795 65.5966 37.5795C66.0057 37.5795 66.3627 37.6733 66.6676 37.8608C66.9725 38.0483 67.2093 38.3116 67.3778 38.6506C67.5464 38.9896 67.6307 39.3854 67.6307 39.8381C67.6307 40.2888 67.5464 40.6828 67.3778 41.0199C67.2093 41.357 66.9725 41.6193 66.6676 41.8068C66.3627 41.9943 66.0057 42.0881 65.5966 42.0881ZM65.5994 41.375C65.8646 41.375 66.0843 41.3049 66.2585 41.1648C66.4328 41.0246 66.5616 40.8381 66.6449 40.6051C66.7301 40.3722 66.7727 40.1155 66.7727 39.8352C66.7727 39.5568 66.7301 39.3011 66.6449 39.0682C66.5616 38.8333 66.4328 38.6449 66.2585 38.5028C66.0843 38.3608 65.8646 38.2898 65.5994 38.2898C65.3324 38.2898 65.1108 38.3608 64.9347 38.5028C64.7604 38.6449 64.6307 38.8333 64.5455 39.0682C64.4621 39.3011 64.4205 39.5568 64.4205 39.8352C64.4205 40.1155 64.4621 40.3722 64.5455 40.6051C64.6307 40.8381 64.7604 41.0246 64.9347 41.1648C65.1108 41.3049 65.3324 41.375 65.5994 41.375ZM69.4283 39.4091V42H68.5788V37.6364H69.3942V38.3466H69.4482C69.5485 38.1155 69.7057 37.9299 69.9197 37.7898C70.1357 37.6496 70.4074 37.5795 70.7351 37.5795C71.0324 37.5795 71.2929 37.642 71.5163 37.767C71.7398 37.8902 71.9131 38.0739 72.0362 38.3182C72.1593 38.5625 72.2209 38.8646 72.2209 39.2244V42H71.3714V39.3267C71.3714 39.0104 71.2891 38.7633 71.1243 38.5852C70.9595 38.4053 70.7332 38.3153 70.4453 38.3153C70.2483 38.3153 70.0732 38.358 69.9197 38.4432C69.7682 38.5284 69.648 38.6534 69.5589 38.8182C69.4718 38.9811 69.4283 39.178 69.4283 39.4091ZM74.63 42.0966C74.3535 42.0966 74.1035 42.0455 73.88 41.9432C73.6565 41.839 73.4794 41.6884 73.3487 41.4915C73.2199 41.2945 73.1555 41.053 73.1555 40.767C73.1555 40.5208 73.2029 40.3182 73.2976 40.1591C73.3923 40 73.5201 39.8741 73.6811 39.7812C73.8421 39.6884 74.022 39.6184 74.2209 39.571C74.4197 39.5237 74.6224 39.4877 74.8288 39.4631C75.0902 39.4328 75.3023 39.4081 75.4652 39.3892C75.6281 39.3684 75.7464 39.3352 75.8203 39.2898C75.8942 39.2443 75.9311 39.1705 75.9311 39.0682V39.0483C75.9311 38.8002 75.861 38.608 75.7209 38.4716C75.5826 38.3352 75.3762 38.267 75.1016 38.267C74.8156 38.267 74.5902 38.3305 74.4254 38.4574C74.2625 38.5824 74.1499 38.7216 74.0874 38.875L73.2891 38.6932C73.3838 38.428 73.522 38.214 73.7038 38.0511C73.8875 37.8864 74.0987 37.767 74.3374 37.6932C74.576 37.6174 74.8269 37.5795 75.0902 37.5795C75.2644 37.5795 75.4491 37.6004 75.6442 37.642C75.8411 37.6818 76.0249 37.7557 76.1953 37.8636C76.3677 37.9716 76.5088 38.1259 76.6186 38.3267C76.7285 38.5256 76.7834 38.7841 76.7834 39.1023V42H75.9538V41.4034H75.9197C75.8648 41.5133 75.7824 41.6212 75.6726 41.7273C75.5627 41.8333 75.4216 41.9214 75.2493 41.9915C75.0769 42.0616 74.8705 42.0966 74.63 42.0966ZM74.8146 41.4148C75.0495 41.4148 75.2502 41.3684 75.4169 41.2756C75.5855 41.1828 75.7133 41.0616 75.8004 40.9119C75.8894 40.7604 75.9339 40.5985 75.9339 40.4261V39.8636C75.9036 39.8939 75.8449 39.9223 75.7578 39.9489C75.6726 39.9735 75.575 39.9953 75.4652 40.0142C75.3554 40.0312 75.2483 40.0473 75.1442 40.0625C75.04 40.0758 74.9529 40.0871 74.8828 40.0966C74.718 40.1174 74.5675 40.1525 74.4311 40.2017C74.2966 40.2509 74.1887 40.322 74.1072 40.4148C74.0277 40.5057 73.9879 40.6269 73.9879 40.7784C73.9879 40.9886 74.0656 41.1477 74.2209 41.2557C74.3762 41.3617 74.5741 41.4148 74.8146 41.4148ZM79.5483 42.0852C79.196 42.0852 78.8816 41.9953 78.6051 41.8153C78.3305 41.6335 78.1146 41.375 77.9574 41.0398C77.8021 40.7027 77.7244 40.2983 77.7244 39.8267C77.7244 39.3551 77.803 38.9517 77.9602 38.6165C78.1193 38.2812 78.3371 38.0246 78.6136 37.8466C78.8902 37.6686 79.2036 37.5795 79.554 37.5795C79.8248 37.5795 80.0426 37.625 80.2074 37.7159C80.3741 37.8049 80.5028 37.9091 80.5938 38.0284C80.6866 38.1477 80.7585 38.2528 80.8097 38.3438H80.8608V36.1818H81.7102V42H80.8807V41.321H80.8097C80.7585 41.4138 80.6847 41.5199 80.5881 41.6392C80.4934 41.7585 80.3627 41.8627 80.196 41.9517C80.0294 42.0407 79.8134 42.0852 79.5483 42.0852ZM79.7358 41.3608C79.9801 41.3608 80.1866 41.2964 80.3551 41.1676C80.5256 41.0369 80.6544 40.8561 80.7415 40.625C80.8305 40.3939 80.875 40.125 80.875 39.8182C80.875 39.5152 80.8314 39.25 80.7443 39.0227C80.6572 38.7955 80.5294 38.6184 80.3608 38.4915C80.1922 38.3646 79.9839 38.3011 79.7358 38.3011C79.4801 38.3011 79.267 38.3674 79.0966 38.5C78.9261 38.6326 78.7973 38.8134 78.7102 39.0426C78.625 39.2718 78.5824 39.5303 78.5824 39.8182C78.5824 40.1098 78.6259 40.3722 78.7131 40.6051C78.8002 40.8381 78.929 41.0227 79.0994 41.1591C79.2718 41.2936 79.4839 41.3608 79.7358 41.3608ZM86.9489 42.0795C86.5928 42.0795 86.2727 42.0114 85.9886 41.875C85.7064 41.7367 85.4811 41.5473 85.3125 41.3068C85.1439 41.0663 85.054 40.7917 85.0426 40.483H85.8949C85.9157 40.733 86.0265 40.9384 86.2273 41.0994C86.428 41.2604 86.6686 41.3409 86.9489 41.3409C87.1723 41.3409 87.3703 41.2898 87.5426 41.1875C87.7169 41.0833 87.8532 40.9403 87.9517 40.7585C88.0521 40.5767 88.1023 40.3693 88.1023 40.1364C88.1023 39.8996 88.0511 39.6884 87.9489 39.5028C87.8466 39.3172 87.7055 39.1714 87.5256 39.0653C87.3475 38.9593 87.143 38.9053 86.9119 38.9034C86.7358 38.9034 86.5587 38.9337 86.3807 38.9943C86.2027 39.0549 86.0587 39.1345 85.9489 39.233L85.1449 39.1136L85.4716 36.1818H88.6705V36.9347H86.2017L86.017 38.5625H86.0511C86.1648 38.4527 86.3153 38.3608 86.5028 38.2869C86.6922 38.2131 86.8949 38.1761 87.1108 38.1761C87.465 38.1761 87.7803 38.2604 88.0568 38.429C88.3352 38.5975 88.554 38.8277 88.7131 39.1193C88.8741 39.4091 88.9536 39.7424 88.9517 40.1193C88.9536 40.4962 88.8684 40.8324 88.696 41.1278C88.5256 41.4233 88.2888 41.6562 87.9858 41.8267C87.6847 41.9953 87.339 42.0795 86.9489 42.0795ZM92.9673 36.1818V42H92.1179V36.1818H92.9673ZM95.9908 42.0881C95.5608 42.0881 95.1906 41.9962 94.88 41.8125C94.5713 41.6269 94.3326 41.3665 94.1641 41.0312C93.9974 40.6941 93.9141 40.2992 93.9141 39.8466C93.9141 39.3996 93.9974 39.0057 94.1641 38.6648C94.3326 38.3239 94.5675 38.0578 94.8686 37.8665C95.1716 37.6752 95.5258 37.5795 95.9311 37.5795C96.1773 37.5795 96.416 37.6203 96.647 37.7017C96.8781 37.7831 97.0855 37.911 97.2692 38.0852C97.4529 38.2595 97.5978 38.4858 97.7038 38.7642C97.8099 39.0407 97.8629 39.3769 97.8629 39.7727V40.0739H94.3942V39.4375H97.0305C97.0305 39.214 96.9851 39.0161 96.8942 38.8438C96.8033 38.6695 96.6754 38.5322 96.5107 38.4318C96.3478 38.3314 96.1565 38.2812 95.9368 38.2812C95.6982 38.2812 95.4898 38.34 95.3118 38.4574C95.1357 38.5729 94.9993 38.7244 94.9027 38.9119C94.808 39.0975 94.7607 39.2992 94.7607 39.517V40.0142C94.7607 40.3059 94.8118 40.554 94.9141 40.7585C95.0182 40.9631 95.1631 41.1193 95.3487 41.2273C95.5343 41.3333 95.7512 41.3864 95.9993 41.3864C96.1603 41.3864 96.3071 41.3636 96.4396 41.3182C96.5722 41.2708 96.6868 41.2008 96.7834 41.108C96.88 41.0152 96.9538 40.9006 97.005 40.7642L97.8089 40.9091C97.7446 41.1458 97.629 41.3532 97.4624 41.5312C97.2976 41.7074 97.0902 41.8447 96.8402 41.9432C96.5921 42.0398 96.3089 42.0881 95.9908 42.0881ZM100.842 37.6364V38.3182H98.4588V37.6364H100.842ZM99.098 36.5909H99.9474V40.7188C99.9474 40.8835 99.9721 41.0076 100.021 41.0909C100.071 41.1723 100.134 41.2282 100.212 41.2585C100.291 41.2869 100.377 41.3011 100.47 41.3011C100.538 41.3011 100.598 41.2964 100.649 41.2869C100.7 41.2775 100.74 41.2699 100.768 41.2642L100.922 41.9659C100.873 41.9848 100.803 42.0038 100.712 42.0227C100.621 42.0436 100.507 42.0549 100.371 42.0568C100.147 42.0606 99.9389 42.0208 99.7457 41.9375C99.5526 41.8542 99.3963 41.7254 99.277 41.5511C99.1577 41.3769 99.098 41.1581 99.098 40.8949V36.5909ZM102.631 39.4091V42H101.782V37.6364H102.597V38.3466H102.651C102.752 38.1155 102.909 37.9299 103.123 37.7898C103.339 37.6496 103.611 37.5795 103.938 37.5795C104.236 37.5795 104.496 37.642 104.719 37.767C104.943 37.8902 105.116 38.0739 105.239 38.3182C105.362 38.5625 105.424 38.8646 105.424 39.2244V42H104.575V39.3267C104.575 39.0104 104.492 38.7633 104.327 38.5852C104.163 38.4053 103.936 38.3153 103.648 38.3153C103.451 38.3153 103.276 38.358 103.123 38.4432C102.971 38.5284 102.851 38.6534 102.762 38.8182C102.675 38.9811 102.631 39.178 102.631 39.4091ZM106.563 42V37.6364H107.413V42H106.563ZM106.992 36.9631C106.844 36.9631 106.718 36.9138 106.612 36.8153C106.507 36.715 106.455 36.5956 106.455 36.4574C106.455 36.3172 106.507 36.1979 106.612 36.0994C106.718 35.9991 106.844 35.9489 106.992 35.9489C107.14 35.9489 107.266 35.9991 107.37 36.0994C107.476 36.1979 107.529 36.3172 107.529 36.4574C107.529 36.5956 107.476 36.715 107.37 36.8153C107.266 36.9138 107.14 36.9631 106.992 36.9631ZM108.555 42V37.6364H109.371V38.3466H109.425C109.516 38.1061 109.664 37.9186 109.871 37.7841C110.077 37.6477 110.324 37.5795 110.612 37.5795C110.904 37.5795 111.148 37.6477 111.345 37.7841C111.544 37.9205 111.691 38.108 111.786 38.3466H111.831C111.935 38.1136 112.101 37.928 112.328 37.7898C112.555 37.6496 112.826 37.5795 113.141 37.5795C113.536 37.5795 113.859 37.7036 114.109 37.9517C114.361 38.1998 114.487 38.5739 114.487 39.0739V42H113.638V39.1534C113.638 38.858 113.557 38.6439 113.396 38.5114C113.235 38.3788 113.043 38.3125 112.82 38.3125C112.543 38.3125 112.328 38.3977 112.175 38.5682C112.021 38.7367 111.945 38.9536 111.945 39.2188V42H111.098V39.0994C111.098 38.8627 111.024 38.6723 110.876 38.5284C110.729 38.3845 110.536 38.3125 110.3 38.3125C110.139 38.3125 109.99 38.3551 109.854 38.4403C109.719 38.5237 109.61 38.6402 109.527 38.7898C109.446 38.9394 109.405 39.1127 109.405 39.3097V42H108.555ZM119.376 42.0852C119.024 42.0852 118.71 41.9953 118.433 41.8153C118.159 41.6335 117.943 41.375 117.786 41.0398C117.63 40.7027 117.553 40.2983 117.553 39.8267C117.553 39.3551 117.631 38.9517 117.788 38.6165C117.947 38.2812 118.165 38.0246 118.442 37.8466C118.718 37.6686 119.032 37.5795 119.382 37.5795C119.653 37.5795 119.871 37.625 120.036 37.7159C120.202 37.8049 120.331 37.9091 120.422 38.0284C120.515 38.1477 120.587 38.2528 120.638 38.3438H120.689V36.1818H121.538V42H120.709V41.321H120.638C120.587 41.4138 120.513 41.5199 120.416 41.6392C120.321 41.7585 120.191 41.8627 120.024 41.9517C119.857 42.0407 119.642 42.0852 119.376 42.0852ZM119.564 41.3608C119.808 41.3608 120.015 41.2964 120.183 41.1676C120.354 41.0369 120.482 40.8561 120.57 40.625C120.659 40.3939 120.703 40.125 120.703 39.8182C120.703 39.5152 120.66 39.25 120.572 39.0227C120.485 38.7955 120.357 38.6184 120.189 38.4915C120.02 38.3646 119.812 38.3011 119.564 38.3011C119.308 38.3011 119.095 38.3674 118.925 38.5C118.754 38.6326 118.625 38.8134 118.538 39.0426C118.453 39.2718 118.411 39.5303 118.411 39.8182C118.411 40.1098 118.454 40.3722 118.541 40.6051C118.628 40.8381 118.757 41.0227 118.928 41.1591C119.1 41.2936 119.312 41.3608 119.564 41.3608ZM124.589 42.0881C124.18 42.0881 123.823 41.9943 123.518 41.8068C123.213 41.6193 122.976 41.357 122.808 41.0199C122.639 40.6828 122.555 40.2888 122.555 39.8381C122.555 39.3854 122.639 38.9896 122.808 38.6506C122.976 38.3116 123.213 38.0483 123.518 37.8608C123.823 37.6733 124.18 37.5795 124.589 37.5795C124.998 37.5795 125.355 37.6733 125.66 37.8608C125.965 38.0483 126.201 38.3116 126.37 38.6506C126.539 38.9896 126.623 39.3854 126.623 39.8381C126.623 40.2888 126.539 40.6828 126.37 41.0199C126.201 41.357 125.965 41.6193 125.66 41.8068C125.355 41.9943 124.998 42.0881 124.589 42.0881ZM124.592 41.375C124.857 41.375 125.076 41.3049 125.251 41.1648C125.425 41.0246 125.554 40.8381 125.637 40.6051C125.722 40.3722 125.765 40.1155 125.765 39.8352C125.765 39.5568 125.722 39.3011 125.637 39.0682C125.554 38.8333 125.425 38.6449 125.251 38.5028C125.076 38.3608 124.857 38.2898 124.592 38.2898C124.325 38.2898 124.103 38.3608 123.927 38.5028C123.753 38.6449 123.623 38.8333 123.538 39.0682C123.454 39.3011 123.413 39.5568 123.413 39.8352C123.413 40.1155 123.454 40.3722 123.538 40.6051C123.623 40.8381 123.753 41.0246 123.927 41.1648C124.103 41.3049 124.325 41.375 124.592 41.375ZM130.841 38.7017L130.071 38.8381C130.039 38.7396 129.988 38.6458 129.918 38.5568C129.849 38.4678 129.757 38.3949 129.639 38.3381C129.522 38.2812 129.375 38.2528 129.199 38.2528C128.958 38.2528 128.758 38.3068 128.597 38.4148C128.436 38.5208 128.355 38.6581 128.355 38.8267C128.355 38.9725 128.409 39.09 128.517 39.179C128.625 39.268 128.799 39.3409 129.04 39.3977L129.733 39.5568C130.134 39.6496 130.434 39.7926 130.631 39.9858C130.828 40.179 130.926 40.4299 130.926 40.7386C130.926 41 130.85 41.233 130.699 41.4375C130.549 41.6402 130.34 41.7992 130.071 41.9148C129.804 42.0303 129.494 42.0881 129.142 42.0881C128.653 42.0881 128.255 41.9839 127.946 41.7756C127.637 41.5653 127.448 41.267 127.378 40.8807L128.199 40.7557C128.25 40.9697 128.355 41.1316 128.514 41.2415C128.673 41.3494 128.881 41.4034 129.136 41.4034C129.415 41.4034 129.637 41.3456 129.804 41.2301C129.971 41.1127 130.054 40.9697 130.054 40.8011C130.054 40.6648 130.003 40.5502 129.901 40.4574C129.8 40.3646 129.646 40.2945 129.438 40.2472L128.699 40.0852C128.292 39.9924 127.991 39.8447 127.795 39.642C127.602 39.4394 127.506 39.1828 127.506 38.8722C127.506 38.6146 127.578 38.3892 127.722 38.196C127.866 38.0028 128.064 37.8523 128.318 37.7443C128.572 37.6345 128.863 37.5795 129.19 37.5795C129.662 37.5795 130.033 37.6818 130.304 37.8864C130.575 38.089 130.754 38.3608 130.841 38.7017ZM128.849 37.054L129.514 35.7443H130.409L129.528 37.054H128.849ZM132.806 42L131.522 37.6364H132.4L133.255 40.8409H133.298L134.156 37.6364H135.033L135.886 40.8267H135.928L136.778 37.6364H137.656L136.374 42H135.508L134.621 38.8494H134.556L133.67 42H132.806ZM138.462 42V37.6364H139.311V42H138.462ZM138.891 36.9631C138.743 36.9631 138.616 36.9138 138.51 36.8153C138.406 36.715 138.354 36.5956 138.354 36.4574C138.354 36.3172 138.406 36.1979 138.51 36.0994C138.616 35.9991 138.743 35.9489 138.891 35.9489C139.038 35.9489 139.164 35.9991 139.268 36.0994C139.375 36.1979 139.428 36.3172 139.428 36.4574C139.428 36.5956 139.375 36.715 139.268 36.8153C139.164 36.9138 139.038 36.9631 138.891 36.9631ZM141.724 42.0966C141.447 42.0966 141.197 42.0455 140.974 41.9432C140.75 41.839 140.573 41.6884 140.442 41.4915C140.314 41.2945 140.249 41.053 140.249 40.767C140.249 40.5208 140.297 40.3182 140.391 40.1591C140.486 40 140.614 39.8741 140.775 39.7812C140.936 39.6884 141.116 39.6184 141.315 39.571C141.513 39.5237 141.716 39.4877 141.923 39.4631C142.184 39.4328 142.396 39.4081 142.559 39.3892C142.722 39.3684 142.84 39.3352 142.914 39.2898C142.988 39.2443 143.025 39.1705 143.025 39.0682V39.0483C143.025 38.8002 142.955 38.608 142.815 38.4716C142.676 38.3352 142.47 38.267 142.195 38.267C141.909 38.267 141.684 38.3305 141.519 38.4574C141.356 38.5824 141.244 38.7216 141.181 38.875L140.383 38.6932C140.478 38.428 140.616 38.214 140.798 38.0511C140.981 37.8864 141.192 37.767 141.431 37.6932C141.67 37.6174 141.921 37.5795 142.184 37.5795C142.358 37.5795 142.543 37.6004 142.738 37.642C142.935 37.6818 143.119 37.7557 143.289 37.8636C143.461 37.9716 143.603 38.1259 143.712 38.3267C143.822 38.5256 143.877 38.7841 143.877 39.1023V42H143.048V41.4034H143.013C142.959 41.5133 142.876 41.6212 142.766 41.7273C142.656 41.8333 142.515 41.9214 142.343 41.9915C142.171 42.0616 141.964 42.0966 141.724 42.0966ZM141.908 41.4148C142.143 41.4148 142.344 41.3684 142.511 41.2756C142.679 41.1828 142.807 41.0616 142.894 40.9119C142.983 40.7604 143.028 40.5985 143.028 40.4261V39.8636C142.997 39.8939 142.939 39.9223 142.852 39.9489C142.766 39.9735 142.669 39.9953 142.559 40.0142C142.449 40.0312 142.342 40.0473 142.238 40.0625C142.134 40.0758 142.047 40.0871 141.977 40.0966C141.812 40.1174 141.661 40.1525 141.525 40.2017C141.39 40.2509 141.282 40.322 141.201 40.4148C141.121 40.5057 141.082 40.6269 141.082 40.7784C141.082 40.9886 141.159 41.1477 141.315 41.2557C141.47 41.3617 141.668 41.4148 141.908 41.4148ZM146.642 42.0852C146.29 42.0852 145.975 41.9953 145.699 41.8153C145.424 41.6335 145.208 41.375 145.051 41.0398C144.896 40.7027 144.818 40.2983 144.818 39.8267C144.818 39.3551 144.897 38.9517 145.054 38.6165C145.213 38.2812 145.431 38.0246 145.707 37.8466C145.984 37.6686 146.297 37.5795 146.648 37.5795C146.919 37.5795 147.136 37.625 147.301 37.7159C147.468 37.8049 147.597 37.9091 147.688 38.0284C147.78 38.1477 147.852 38.2528 147.903 38.3438H147.955V36.1818H148.804V42H147.974V41.321H147.903C147.852 41.4138 147.778 41.5199 147.682 41.6392C147.587 41.7585 147.456 41.8627 147.29 41.9517C147.123 42.0407 146.907 42.0852 146.642 42.0852ZM146.83 41.3608C147.074 41.3608 147.28 41.2964 147.449 41.1676C147.619 41.0369 147.748 40.8561 147.835 40.625C147.924 40.3939 147.969 40.125 147.969 39.8182C147.969 39.5152 147.925 39.25 147.838 39.0227C147.751 38.7955 147.623 38.6184 147.455 38.4915C147.286 38.3646 147.078 38.3011 146.83 38.3011C146.574 38.3011 146.361 38.3674 146.19 38.5C146.02 38.6326 145.891 38.8134 145.804 39.0426C145.719 39.2718 145.676 39.5303 145.676 39.8182C145.676 40.1098 145.72 40.3722 145.807 40.6051C145.894 40.8381 146.023 41.0227 146.193 41.1591C146.366 41.2936 146.578 41.3608 146.83 41.3608ZM151.854 42.0881C151.432 42.0881 151.068 41.9924 150.763 41.8011C150.46 41.608 150.228 41.3419 150.065 41.0028C149.902 40.6638 149.82 40.2756 149.82 39.8381C149.82 39.3949 149.904 39.0038 150.07 38.6648C150.237 38.3239 150.472 38.0578 150.775 37.8665C151.078 37.6752 151.435 37.5795 151.846 37.5795C152.177 37.5795 152.473 37.6411 152.732 37.7642C152.992 37.8854 153.201 38.0559 153.36 38.2756C153.521 38.4953 153.617 38.7519 153.647 39.0455H152.82C152.775 38.8409 152.671 38.6648 152.508 38.517C152.347 38.3693 152.131 38.2955 151.86 38.2955C151.623 38.2955 151.416 38.358 151.238 38.483C151.062 38.6061 150.924 38.7822 150.826 39.0114C150.728 39.2386 150.678 39.5076 150.678 39.8182C150.678 40.1364 150.727 40.411 150.823 40.642C150.92 40.8731 151.056 41.0521 151.232 41.179C151.41 41.3059 151.62 41.3693 151.86 41.3693C152.021 41.3693 152.167 41.34 152.298 41.2812C152.43 41.2206 152.541 41.1345 152.63 41.0227C152.721 40.911 152.784 40.7765 152.82 40.6193H153.647C153.617 40.9015 153.525 41.1534 153.371 41.375C153.218 41.5966 153.013 41.7708 152.755 41.8977C152.499 42.0246 152.199 42.0881 151.854 42.0881ZM154.464 42V41.4176L156.828 38.4148V38.375H154.541V37.6364H157.888V38.2557L155.615 41.2216V41.2614H157.967V42H154.464ZM160.725 42.0881C160.295 42.0881 159.925 41.9962 159.614 41.8125C159.306 41.6269 159.067 41.3665 158.898 41.0312C158.732 40.6941 158.648 40.2992 158.648 39.8466C158.648 39.3996 158.732 39.0057 158.898 38.6648C159.067 38.3239 159.302 38.0578 159.603 37.8665C159.906 37.6752 160.26 37.5795 160.665 37.5795C160.912 37.5795 161.15 37.6203 161.381 37.7017C161.612 37.7831 161.82 37.911 162.004 38.0852C162.187 38.2595 162.332 38.4858 162.438 38.7642C162.544 39.0407 162.597 39.3769 162.597 39.7727V40.0739H159.129V39.4375H161.765C161.765 39.214 161.719 39.0161 161.629 38.8438C161.538 38.6695 161.41 38.5322 161.245 38.4318C161.082 38.3314 160.891 38.2812 160.671 38.2812C160.433 38.2812 160.224 38.34 160.046 38.4574C159.87 38.5729 159.734 38.7244 159.637 38.9119C159.542 39.0975 159.495 39.2992 159.495 39.517V40.0142C159.495 40.3059 159.546 40.554 159.648 40.7585C159.753 40.9631 159.897 41.1193 160.083 41.2273C160.269 41.3333 160.486 41.3864 160.734 41.3864C160.895 41.3864 161.041 41.3636 161.174 41.3182C161.307 41.2708 161.421 41.2008 161.518 41.108C161.614 41.0152 161.688 40.9006 161.739 40.7642L162.543 40.9091C162.479 41.1458 162.363 41.3532 162.197 41.5312C162.032 41.7074 161.825 41.8447 161.575 41.9432C161.326 42.0398 161.043 42.0881 160.725 42.0881ZM164.389 39.4091V42H163.54V37.6364H164.355V38.3466H164.409C164.509 38.1155 164.667 37.9299 164.881 37.7898C165.097 37.6496 165.368 37.5795 165.696 37.5795C165.993 37.5795 166.254 37.642 166.477 37.767C166.701 37.8902 166.874 38.0739 166.997 38.3182C167.12 38.5625 167.182 38.8646 167.182 39.2244V42H166.332V39.3267C166.332 39.0104 166.25 38.7633 166.085 38.5852C165.92 38.4053 165.694 38.3153 165.406 38.3153C165.209 38.3153 165.034 38.358 164.881 38.4432C164.729 38.5284 164.609 38.6534 164.52 38.8182C164.433 38.9811 164.389 39.178 164.389 39.4091ZM168.321 42V37.6364H169.17V42H168.321ZM168.75 36.9631C168.602 36.9631 168.475 36.9138 168.369 36.8153C168.265 36.715 168.213 36.5956 168.213 36.4574C168.213 36.3172 168.265 36.1979 168.369 36.0994C168.475 35.9991 168.602 35.9489 168.75 35.9489C168.898 35.9489 169.024 35.9991 169.128 36.0994C169.234 36.1979 169.287 36.3172 169.287 36.4574C169.287 36.5956 169.234 36.715 169.128 36.8153C169.024 36.9138 168.898 36.9631 168.75 36.9631ZM172.194 42.0881C171.764 42.0881 171.394 41.9962 171.083 41.8125C170.774 41.6269 170.536 41.3665 170.367 41.0312C170.201 40.6941 170.117 40.2992 170.117 39.8466C170.117 39.3996 170.201 39.0057 170.367 38.6648C170.536 38.3239 170.771 38.0578 171.072 37.8665C171.375 37.6752 171.729 37.5795 172.134 37.5795C172.38 37.5795 172.619 37.6203 172.85 37.7017C173.081 37.7831 173.289 37.911 173.472 38.0852C173.656 38.2595 173.801 38.4858 173.907 38.7642C174.013 39.0407 174.066 39.3769 174.066 39.7727V40.0739H170.597V39.4375H173.234C173.234 39.214 173.188 39.0161 173.097 38.8438C173.006 38.6695 172.879 38.5322 172.714 38.4318C172.551 38.3314 172.36 38.2812 172.14 38.2812C171.901 38.2812 171.693 38.34 171.515 38.4574C171.339 38.5729 171.202 38.7244 171.106 38.9119C171.011 39.0975 170.964 39.2992 170.964 39.517V40.0142C170.964 40.3059 171.015 40.554 171.117 40.7585C171.221 40.9631 171.366 41.1193 171.552 41.2273C171.737 41.3333 171.954 41.3864 172.202 41.3864C172.363 41.3864 172.51 41.3636 172.643 41.3182C172.775 41.2708 172.89 41.2008 172.987 41.108C173.083 41.0152 173.157 40.9006 173.208 40.7642L174.012 40.9091C173.948 41.1458 173.832 41.3532 173.665 41.5312C173.501 41.7074 173.293 41.8447 173.043 41.9432C172.795 42.0398 172.512 42.0881 172.194 42.0881ZM175.009 42V37.6364H175.824V38.3466H175.878C175.969 38.1061 176.117 37.9186 176.324 37.7841C176.53 37.6477 176.777 37.5795 177.065 37.5795C177.357 37.5795 177.601 37.6477 177.798 37.7841C177.997 37.9205 178.144 38.108 178.239 38.3466H178.284C178.388 38.1136 178.554 37.928 178.781 37.7898C179.009 37.6496 179.279 37.5795 179.594 37.5795C179.99 37.5795 180.312 37.7036 180.562 37.9517C180.814 38.1998 180.94 38.5739 180.94 39.0739V42H180.091V39.1534C180.091 38.858 180.01 38.6439 179.849 38.5114C179.688 38.3788 179.496 38.3125 179.273 38.3125C178.996 38.3125 178.781 38.3977 178.628 38.5682C178.474 38.7367 178.398 38.9536 178.398 39.2188V42H177.551V39.0994C177.551 38.8627 177.477 38.6723 177.33 38.5284C177.182 38.3845 176.99 38.3125 176.753 38.3125C176.592 38.3125 176.443 38.3551 176.307 38.4403C176.172 38.5237 176.063 38.6402 175.98 38.7898C175.899 38.9394 175.858 39.1127 175.858 39.3097V42H175.009ZM25.517 52L24.233 47.6364H25.1108L25.9659 50.8409H26.0085L26.8665 47.6364H27.7443L28.5966 50.8267H28.6392L29.4886 47.6364H30.3665L29.0852 52H28.2188L27.3324 48.8494H27.267L26.3807 52H25.517ZM33.358 52V46.1818H34.2074V48.3438H34.2585C34.3078 48.2528 34.3788 48.1477 34.4716 48.0284C34.5644 47.9091 34.6932 47.8049 34.858 47.7159C35.0227 47.625 35.2405 47.5795 35.5114 47.5795C35.8636 47.5795 36.178 47.6686 36.4545 47.8466C36.7311 48.0246 36.9479 48.2812 37.1051 48.6165C37.2642 48.9517 37.3438 49.3551 37.3438 49.8267C37.3438 50.2983 37.2652 50.7027 37.108 51.0398C36.9508 51.375 36.7348 51.6335 36.4602 51.8153C36.1856 51.9953 35.8722 52.0852 35.5199 52.0852C35.2547 52.0852 35.0379 52.0407 34.8693 51.9517C34.7027 51.8627 34.572 51.7585 34.4773 51.6392C34.3826 51.5199 34.3097 51.4138 34.2585 51.321H34.1875V52H33.358ZM34.1903 49.8182C34.1903 50.125 34.2348 50.3939 34.3239 50.625C34.4129 50.8561 34.5417 51.0369 34.7102 51.1676C34.8788 51.2964 35.0852 51.3608 35.3295 51.3608C35.5833 51.3608 35.7955 51.2936 35.9659 51.1591C36.1364 51.0227 36.2652 50.8381 36.3523 50.6051C36.4413 50.3722 36.4858 50.1098 36.4858 49.8182C36.4858 49.5303 36.4422 49.2718 36.3551 49.0426C36.2699 48.8134 36.1411 48.6326 35.9688 48.5C35.7983 48.3674 35.5852 48.3011 35.3295 48.3011C35.0833 48.3011 34.875 48.3646 34.7045 48.4915C34.536 48.6184 34.4081 48.7955 34.321 49.0227C34.2339 49.25 34.1903 49.5152 34.1903 49.8182ZM38.2976 52V47.6364H39.1186V48.3295H39.1641C39.2436 48.0947 39.3838 47.91 39.5845 47.7756C39.7872 47.6392 40.0163 47.571 40.272 47.571C40.325 47.571 40.3875 47.5729 40.4595 47.5767C40.5334 47.5805 40.5911 47.5852 40.6328 47.5909V48.4034C40.5987 48.3939 40.5381 48.3835 40.451 48.3722C40.3639 48.3589 40.2768 48.3523 40.1896 48.3523C39.9889 48.3523 39.8099 48.3949 39.6527 48.4801C39.4974 48.5634 39.3743 48.6799 39.2834 48.8295C39.1925 48.9773 39.147 49.1458 39.147 49.3352V52H38.2976ZM42.5987 52.0966C42.3222 52.0966 42.0722 52.0455 41.8487 51.9432C41.6252 51.839 41.4482 51.6884 41.3175 51.4915C41.1887 51.2945 41.1243 51.053 41.1243 50.767C41.1243 50.5208 41.1716 50.3182 41.2663 50.1591C41.361 50 41.4889 49.8741 41.6499 49.7812C41.8108 49.6884 41.9908 49.6184 42.1896 49.571C42.3885 49.5237 42.5911 49.4877 42.7976 49.4631C43.0589 49.4328 43.2711 49.4081 43.4339 49.3892C43.5968 49.3684 43.7152 49.3352 43.7891 49.2898C43.8629 49.2443 43.8999 49.1705 43.8999 49.0682V49.0483C43.8999 48.8002 43.8298 48.608 43.6896 48.4716C43.5514 48.3352 43.3449 48.267 43.0703 48.267C42.7843 48.267 42.5589 48.3305 42.3942 48.4574C42.2313 48.5824 42.1186 48.7216 42.0561 48.875L41.2578 48.6932C41.3525 48.428 41.4908 48.214 41.6726 48.0511C41.8563 47.8864 42.0675 47.767 42.3061 47.6932C42.5447 47.6174 42.7957 47.5795 43.0589 47.5795C43.2332 47.5795 43.4179 47.6004 43.6129 47.642C43.8099 47.6818 43.9936 47.7557 44.1641 47.8636C44.3364 47.9716 44.4775 48.1259 44.5874 48.3267C44.6972 48.5256 44.7521 48.7841 44.7521 49.1023V52H43.9226V51.4034H43.8885C43.8336 51.5133 43.7512 51.6212 43.6413 51.7273C43.5315 51.8333 43.3904 51.9214 43.218 51.9915C43.0457 52.0616 42.8393 52.0966 42.5987 52.0966ZM42.7834 51.4148C43.0182 51.4148 43.219 51.3684 43.3857 51.2756C43.5542 51.1828 43.6821 51.0616 43.7692 50.9119C43.8582 50.7604 43.9027 50.5985 43.9027 50.4261V49.8636C43.8724 49.8939 43.8137 49.9223 43.7266 49.9489C43.6413 49.9735 43.5438 49.9953 43.4339 50.0142C43.3241 50.0312 43.2171 50.0473 43.1129 50.0625C43.0088 50.0758 42.9216 50.0871 42.8516 50.0966C42.6868 50.1174 42.5362 50.1525 42.3999 50.2017C42.2654 50.2509 42.1574 50.322 42.076 50.4148C41.9964 50.5057 41.9567 50.6269 41.9567 50.7784C41.9567 50.9886 42.0343 51.1477 42.1896 51.2557C42.3449 51.3617 42.5429 51.4148 42.7834 51.4148ZM46.733 49.4091V52H45.8835V47.6364H46.6989V48.3466H46.7528C46.8532 48.1155 47.0104 47.9299 47.2244 47.7898C47.4403 47.6496 47.7121 47.5795 48.0398 47.5795C48.3371 47.5795 48.5975 47.642 48.821 47.767C49.0445 47.8902 49.2178 48.0739 49.3409 48.3182C49.464 48.5625 49.5256 48.8646 49.5256 49.2244V52H48.6761V49.3267C48.6761 49.0104 48.5938 48.7633 48.429 48.5852C48.2642 48.4053 48.0379 48.3153 47.75 48.3153C47.553 48.3153 47.3778 48.358 47.2244 48.4432C47.0729 48.5284 46.9527 48.6534 46.8636 48.8182C46.7765 48.9811 46.733 49.178 46.733 49.4091ZM50.5739 52V51.4176L52.9375 48.4148V48.375H50.6506V47.6364H53.9972V48.2557L51.7244 51.2216V51.2614H54.0767V52H50.5739ZM52.2955 46.9631C52.1477 46.9631 52.0208 46.9138 51.9148 46.8153C51.8106 46.715 51.7585 46.5956 51.7585 46.4574C51.7585 46.3172 51.8106 46.1979 51.9148 46.0994C52.0208 45.9991 52.1477 45.9489 52.2955 45.9489C52.4432 45.9489 52.5691 45.9991 52.6733 46.0994C52.7794 46.1979 52.8324 46.3172 52.8324 46.4574C52.8324 46.5956 52.7794 46.715 52.6733 46.8153C52.5691 46.9138 52.4432 46.9631 52.2955 46.9631ZM55.6158 53.6364C55.4889 53.6364 55.3733 53.6259 55.2692 53.6051C55.165 53.5862 55.0874 53.5653 55.0362 53.5426L55.2408 52.8466C55.3961 52.8883 55.5343 52.9063 55.6555 52.9006C55.7768 52.8949 55.8838 52.8494 55.9766 52.7642C56.0713 52.679 56.1546 52.5398 56.2266 52.3466L56.3317 52.0568L54.7351 47.6364H55.6442L56.7493 51.0227H56.7947L57.8999 47.6364H58.8118L57.0135 52.5824C56.9302 52.8097 56.8241 53.0019 56.6953 53.1591C56.5665 53.3182 56.4131 53.4375 56.2351 53.517C56.0571 53.5966 55.8506 53.6364 55.6158 53.6364ZM62.5767 49.4091V52H61.7273V47.6364H62.5426V48.3466H62.5966C62.697 48.1155 62.8542 47.9299 63.0682 47.7898C63.2841 47.6496 63.5559 47.5795 63.8835 47.5795C64.1809 47.5795 64.4413 47.642 64.6648 47.767C64.8883 47.8902 65.0616 48.0739 65.1847 48.3182C65.3078 48.5625 65.3693 48.8646 65.3693 49.2244V52H64.5199V49.3267C64.5199 49.0104 64.4375 48.7633 64.2727 48.5852C64.108 48.4053 63.8816 48.3153 63.5938 48.3153C63.3968 48.3153 63.2216 48.358 63.0682 48.4432C62.9167 48.5284 62.7964 48.6534 62.7074 48.8182C62.6203 48.9811 62.5767 49.178 62.5767 49.4091ZM66.5085 52V47.6364H67.358V52H66.5085ZM66.9375 46.9631C66.7898 46.9631 66.6629 46.9138 66.5568 46.8153C66.4527 46.715 66.4006 46.5956 66.4006 46.4574C66.4006 46.3172 66.4527 46.1979 66.5568 46.0994C66.6629 45.9991 66.7898 45.9489 66.9375 45.9489C67.0852 45.9489 67.2112 45.9991 67.3153 46.0994C67.4214 46.1979 67.4744 46.3172 67.4744 46.4574C67.4744 46.5956 67.4214 46.715 67.3153 46.8153C67.2112 46.9138 67.0852 46.9631 66.9375 46.9631ZM70.3814 52.0881C69.9515 52.0881 69.5812 51.9962 69.2706 51.8125C68.9619 51.6269 68.7232 51.3665 68.5547 51.0312C68.388 50.6941 68.3047 50.2992 68.3047 49.8466C68.3047 49.3996 68.388 49.0057 68.5547 48.6648C68.7232 48.3239 68.9581 48.0578 69.2592 47.8665C69.5623 47.6752 69.9164 47.5795 70.3217 47.5795C70.5679 47.5795 70.8066 47.6203 71.0376 47.7017C71.2687 47.7831 71.4761 47.911 71.6598 48.0852C71.8435 48.2595 71.9884 48.4858 72.0945 48.7642C72.2005 49.0407 72.2536 49.3769 72.2536 49.7727V50.0739H68.7848V49.4375H71.4212C71.4212 49.214 71.3757 49.0161 71.2848 48.8438C71.1939 48.6695 71.0661 48.5322 70.9013 48.4318C70.7384 48.3314 70.5471 48.2812 70.3274 48.2812C70.0888 48.2812 69.8804 48.34 69.7024 48.4574C69.5263 48.5729 69.3899 48.7244 69.2933 48.9119C69.1986 49.0975 69.1513 49.2992 69.1513 49.517V50.0142C69.1513 50.3059 69.2024 50.554 69.3047 50.7585C69.4089 50.9631 69.5537 51.1193 69.7393 51.2273C69.925 51.3333 70.1418 51.3864 70.3899 51.3864C70.5509 51.3864 70.6977 51.3636 70.8303 51.3182C70.9628 51.2708 71.0774 51.2008 71.174 51.108C71.2706 51.0152 71.3445 50.9006 71.3956 50.7642L72.1996 50.9091C72.1352 51.1458 72.0196 51.3532 71.853 51.5312C71.6882 51.7074 71.4808 51.8447 71.2308 51.9432C70.9827 52.0398 70.6996 52.0881 70.3814 52.0881ZM73.196 52V47.6364H74.017V48.3295H74.0625C74.142 48.0947 74.2822 47.91 74.483 47.7756C74.6856 47.6392 74.9148 47.571 75.1705 47.571C75.2235 47.571 75.286 47.5729 75.358 47.5767C75.4318 47.5805 75.4896 47.5852 75.5312 47.5909V48.4034C75.4972 48.3939 75.4366 48.3835 75.3494 48.3722C75.2623 48.3589 75.1752 48.3523 75.0881 48.3523C74.8873 48.3523 74.7083 48.3949 74.5511 48.4801C74.3958 48.5634 74.2727 48.6799 74.1818 48.8295C74.0909 48.9773 74.0455 49.1458 74.0455 49.3352V52H73.196ZM79.0305 50.1903V47.6364H79.8828V52H79.0476V51.2443H79.0021C78.9018 51.4773 78.7408 51.6714 78.5192 51.8267C78.2995 51.9801 78.0258 52.0568 77.6982 52.0568C77.4179 52.0568 77.1697 51.9953 76.9538 51.8722C76.7398 51.7472 76.5713 51.5625 76.4482 51.3182C76.3269 51.0739 76.2663 50.7718 76.2663 50.4119V47.6364H77.1158V50.3097C77.1158 50.607 77.1982 50.8437 77.3629 51.0199C77.5277 51.196 77.7417 51.2841 78.005 51.2841C78.1641 51.2841 78.3222 51.2443 78.4794 51.1648C78.6385 51.0852 78.7701 50.965 78.8743 50.804C78.9804 50.643 79.0324 50.4384 79.0305 50.1903ZM82.8622 52.0881C82.4399 52.0881 82.0762 51.9924 81.7713 51.8011C81.4683 51.608 81.2353 51.3419 81.0724 51.0028C80.9096 50.6638 80.8281 50.2756 80.8281 49.8381C80.8281 49.3949 80.9115 49.0038 81.0781 48.6648C81.2448 48.3239 81.4796 48.0578 81.7827 47.8665C82.0857 47.6752 82.4427 47.5795 82.8537 47.5795C83.1851 47.5795 83.4806 47.6411 83.7401 47.7642C83.9995 47.8854 84.2088 48.0559 84.3679 48.2756C84.5289 48.4953 84.6245 48.7519 84.6548 49.0455H83.8281C83.7827 48.8409 83.6785 48.6648 83.5156 48.517C83.3546 48.3693 83.1387 48.2955 82.8679 48.2955C82.6312 48.2955 82.4238 48.358 82.2457 48.483C82.0696 48.6061 81.9323 48.7822 81.8338 49.0114C81.7353 49.2386 81.6861 49.5076 81.6861 49.8182C81.6861 50.1364 81.7344 50.411 81.831 50.642C81.9276 50.8731 82.0639 51.0521 82.2401 51.179C82.4181 51.3059 82.6274 51.3693 82.8679 51.3693C83.0289 51.3693 83.1747 51.34 83.3054 51.2812C83.438 51.2206 83.5488 51.1345 83.6378 51.0227C83.7287 50.911 83.7921 50.7765 83.8281 50.6193H84.6548C84.6245 50.9015 84.5327 51.1534 84.3793 51.375C84.2259 51.5966 84.0204 51.7708 83.7628 51.8977C83.5071 52.0246 83.2069 52.0881 82.8622 52.0881ZM86.4126 49.4091V52H85.5632V46.1818H86.4013V48.3466H86.4553C86.5575 48.1117 86.7138 47.9252 86.924 47.7869C87.1342 47.6487 87.4089 47.5795 87.7479 47.5795C88.0471 47.5795 88.3085 47.6411 88.532 47.7642C88.7573 47.8873 88.9316 48.071 89.0547 48.3153C89.1797 48.5578 89.2422 48.8608 89.2422 49.2244V52H88.3928V49.3267C88.3928 49.0066 88.3104 48.7585 88.1456 48.5824C87.9808 48.4044 87.7517 48.3153 87.4581 48.3153C87.2573 48.3153 87.0774 48.358 86.9183 48.4432C86.7611 48.5284 86.6371 48.6534 86.5462 48.8182C86.4571 48.9811 86.4126 49.178 86.4126 49.4091ZM92.2138 52.0881C91.8047 52.0881 91.4477 51.9943 91.1428 51.8068C90.8378 51.6193 90.6011 51.357 90.4325 51.0199C90.264 50.6828 90.1797 50.2888 90.1797 49.8381C90.1797 49.3854 90.264 48.9896 90.4325 48.6506C90.6011 48.3116 90.8378 48.0483 91.1428 47.8608C91.4477 47.6733 91.8047 47.5795 92.2138 47.5795C92.6229 47.5795 92.9799 47.6733 93.2848 47.8608C93.5897 48.0483 93.8265 48.3116 93.995 48.6506C94.1636 48.9896 94.2479 49.3854 94.2479 49.8381C94.2479 50.2888 94.1636 50.6828 93.995 51.0199C93.8265 51.357 93.5897 51.6193 93.2848 51.8068C92.9799 51.9943 92.6229 52.0881 92.2138 52.0881ZM92.2166 51.375C92.4818 51.375 92.7015 51.3049 92.8757 51.1648C93.05 51.0246 93.1787 50.8381 93.2621 50.6051C93.3473 50.3722 93.3899 50.1155 93.3899 49.8352C93.3899 49.5568 93.3473 49.3011 93.2621 49.0682C93.1787 48.8333 93.05 48.6449 92.8757 48.5028C92.7015 48.3608 92.4818 48.2898 92.2166 48.2898C91.9496 48.2898 91.728 48.3608 91.5518 48.5028C91.3776 48.6449 91.2479 48.8333 91.1626 49.0682C91.0793 49.3011 91.0376 49.5568 91.0376 49.8352C91.0376 50.1155 91.0793 50.3722 91.1626 50.6051C91.2479 50.8381 91.3776 51.0246 91.5518 51.1648C91.728 51.3049 91.9496 51.375 92.2166 51.375ZM95.196 52V47.6364H96.0114V48.3466H96.0653C96.1563 48.1061 96.3049 47.9186 96.5114 47.7841C96.7178 47.6477 96.965 47.5795 97.2528 47.5795C97.5445 47.5795 97.7888 47.6477 97.9858 47.7841C98.1847 47.9205 98.3314 48.108 98.4261 48.3466H98.4716C98.5758 48.1136 98.7415 47.928 98.9688 47.7898C99.196 47.6496 99.4669 47.5795 99.7812 47.5795C100.177 47.5795 100.5 47.7036 100.75 47.9517C101.002 48.1998 101.128 48.5739 101.128 49.0739V52H100.278V49.1534C100.278 48.858 100.198 48.6439 100.037 48.5114C99.8759 48.3788 99.6837 48.3125 99.4602 48.3125C99.1837 48.3125 98.9688 48.3977 98.8153 48.5682C98.6619 48.7367 98.5852 48.9536 98.5852 49.2188V52H97.7386V49.0994C97.7386 48.8627 97.6648 48.6723 97.517 48.5284C97.3693 48.3845 97.1771 48.3125 96.9403 48.3125C96.7794 48.3125 96.6307 48.3551 96.4943 48.4403C96.3598 48.5237 96.2509 48.6402 96.1676 48.7898C96.0862 48.9394 96.0455 49.1127 96.0455 49.3097V52H95.196ZM104.104 52.0881C103.695 52.0881 103.338 51.9943 103.033 51.8068C102.728 51.6193 102.492 51.357 102.323 51.0199C102.155 50.6828 102.07 50.2888 102.07 49.8381C102.07 49.3854 102.155 48.9896 102.323 48.6506C102.492 48.3116 102.728 48.0483 103.033 47.8608C103.338 47.6733 103.695 47.5795 104.104 47.5795C104.513 47.5795 104.871 47.6733 105.175 47.8608C105.48 48.0483 105.717 48.3116 105.886 48.6506C106.054 48.9896 106.138 49.3854 106.138 49.8381C106.138 50.2888 106.054 50.6828 105.886 51.0199C105.717 51.357 105.48 51.6193 105.175 51.8068C104.871 51.9943 104.513 52.0881 104.104 52.0881ZM104.107 51.375C104.372 51.375 104.592 51.3049 104.766 51.1648C104.941 51.0246 105.069 50.8381 105.153 50.6051C105.238 50.3722 105.281 50.1155 105.281 49.8352C105.281 49.5568 105.238 49.3011 105.153 49.0682C105.069 48.8333 104.941 48.6449 104.766 48.5028C104.592 48.3608 104.372 48.2898 104.107 48.2898C103.84 48.2898 103.619 48.3608 103.442 48.5028C103.268 48.6449 103.138 48.8333 103.053 49.0682C102.97 49.3011 102.928 49.5568 102.928 49.8352C102.928 50.1155 102.97 50.3722 103.053 50.6051C103.138 50.8381 103.268 51.0246 103.442 51.1648C103.619 51.3049 103.84 51.375 104.107 51.375ZM110.357 48.7017L109.587 48.8381C109.554 48.7396 109.503 48.6458 109.433 48.5568C109.365 48.4678 109.272 48.3949 109.155 48.3381C109.037 48.2812 108.891 48.2528 108.714 48.2528C108.474 48.2528 108.273 48.3068 108.112 48.4148C107.951 48.5208 107.871 48.6581 107.871 48.8267C107.871 48.9725 107.925 49.09 108.033 49.179C108.141 49.268 108.315 49.3409 108.555 49.3977L109.249 49.5568C109.65 49.6496 109.949 49.7926 110.146 49.9858C110.343 50.179 110.442 50.4299 110.442 50.7386C110.442 51 110.366 51.233 110.214 51.4375C110.065 51.6402 109.856 51.7992 109.587 51.9148C109.32 52.0303 109.01 52.0881 108.658 52.0881C108.169 52.0881 107.77 51.9839 107.462 51.7756C107.153 51.5653 106.964 51.267 106.893 50.8807L107.714 50.7557C107.766 50.9697 107.871 51.1316 108.03 51.2415C108.189 51.3494 108.396 51.4034 108.652 51.4034C108.93 51.4034 109.153 51.3456 109.32 51.2301C109.486 51.1127 109.57 50.9697 109.57 50.8011C109.57 50.6648 109.518 50.5502 109.416 50.4574C109.316 50.3646 109.161 50.2945 108.953 50.2472L108.214 50.0852C107.807 49.9924 107.506 49.8447 107.311 49.642C107.118 49.4394 107.021 49.1828 107.021 48.8722C107.021 48.6146 107.093 48.3892 107.237 48.196C107.381 48.0028 107.58 47.8523 107.834 47.7443C108.088 47.6345 108.378 47.5795 108.706 47.5795C109.178 47.5795 109.549 47.6818 109.82 47.8864C110.09 48.089 110.269 48.3608 110.357 48.7017ZM108.365 47.054L109.03 45.7443H109.925L109.044 47.054H108.365ZM113.214 52.0881C112.791 52.0881 112.428 51.9924 112.123 51.8011C111.82 51.608 111.587 51.3419 111.424 51.0028C111.261 50.6638 111.18 50.2756 111.18 49.8381C111.18 49.3949 111.263 49.0038 111.43 48.6648C111.596 48.3239 111.831 48.0578 112.134 47.8665C112.437 47.6752 112.794 47.5795 113.205 47.5795C113.537 47.5795 113.832 47.6411 114.092 47.7642C114.351 47.8854 114.56 48.0559 114.719 48.2756C114.88 48.4953 114.976 48.7519 115.006 49.0455H114.18C114.134 48.8409 114.03 48.6648 113.867 48.517C113.706 48.3693 113.49 48.2955 113.219 48.2955C112.983 48.2955 112.775 48.358 112.597 48.483C112.421 48.6061 112.284 48.7822 112.185 49.0114C112.087 49.2386 112.038 49.5076 112.038 49.8182C112.038 50.1364 112.086 50.411 112.183 50.642C112.279 50.8731 112.415 51.0521 112.592 51.179C112.77 51.3059 112.979 51.3693 113.219 51.3693C113.38 51.3693 113.526 51.34 113.657 51.2812C113.79 51.2206 113.9 51.1345 113.989 51.0227C114.08 50.911 114.144 50.7765 114.18 50.6193H115.006C114.976 50.9015 114.884 51.1534 114.731 51.375C114.577 51.5966 114.372 51.7708 114.114 51.8977C113.859 52.0246 113.558 52.0881 113.214 52.0881ZM115.915 52V47.6364H116.764V52H115.915ZM116.344 46.9631C116.196 46.9631 116.069 46.9138 115.963 46.8153C115.859 46.715 115.807 46.5956 115.807 46.4574C115.807 46.3172 115.859 46.1979 115.963 46.0994C116.069 45.9991 116.196 45.9489 116.344 45.9489C116.491 45.9489 116.617 45.9991 116.722 46.0994C116.828 46.1979 116.881 46.3172 116.881 46.4574C116.881 46.5956 116.828 46.715 116.722 46.8153C116.617 46.9138 116.491 46.9631 116.344 46.9631Z" fill="#D0D0D0"/>
<mask id="path-5-inside-2_6306_10241" fill="white">
<path d="M192 31C192 20.5066 200.507 12 211 12C221.493 12 230 20.5066 230 31C230 41.4934 221.493 50 211 50C200.507 50 192 41.4934 192 31Z"/>
</mask>
<path d="M192 31C192 20.5066 200.507 12 211 12C221.493 12 230 20.5066 230 31C230 41.4934 221.493 50 211 50C200.507 50 192 41.4934 192 31Z" fill="url(#paint1_linear_6306_10241)"/>
<path d="M191 30.5C191 19.7304 199.73 11 210.5 11H211.5C222.27 11 231 19.7304 231 30.5L229 31C229 21.0589 220.941 13 211 13C201.059 13 193 21.0589 193 31L191 30.5ZM230 50H192H230ZM210.5 50C199.73 50 191 41.2696 191 30.5C191 19.7304 199.73 11 210.5 11L211 13C201.059 13 193 21.0589 193 31C193 41.4934 201.059 50 211 50H210.5ZM211.5 11C222.27 11 231 19.7304 231 30.5C231 41.2696 222.27 50 211.5 50H211C220.941 50 229 41.4934 229 31C229 21.0589 220.941 13 211 13L211.5 11Z" fill="white" fill-opacity="0.1" mask="url(#path-5-inside-2_6306_10241)"/>
<path d="M211 39.75C206.175 39.75 202.25 35.825 202.25 31C202.25 26.175 206.175 22.25 211 22.25C215.825 22.25 219.75 26.175 219.75 31C219.75 35.825 215.825 39.75 211 39.75ZM211 23.5C206.863 23.5 203.5 26.8625 203.5 31C203.5 35.1375 206.863 38.5 211 38.5C215.138 38.5 218.5 35.1375 218.5 31C218.5 26.8625 215.138 23.5 211 23.5Z" fill="white"/>
<path d="M213.5 34.125C213.388 34.125 213.275 34.1 213.175 34.0375L210.05 32.1625C209.958 32.1064 209.882 32.0274 209.829 31.9332C209.777 31.8391 209.749 31.7329 209.75 31.625V26.625C209.75 26.275 210.025 26 210.375 26C210.725 26 211 26.275 211 26.625V31.275L213.825 32.9625C213.941 33.0338 214.031 33.1411 214.081 33.2682C214.131 33.3952 214.138 33.535 214.101 33.6665C214.065 33.7979 213.986 33.9138 213.878 33.9965C213.769 34.0793 213.636 34.1244 213.5 34.125Z" fill="white"/>
<defs>
<linearGradient id="paint0_linear_6306_10241" x1="119.967" y1="31.0151" x2="105.537" y2="-49.304" gradientUnits="userSpaceOnUse">
<stop stop-color="#1B1B1C"/>
<stop offset="1" stop-color="#FAAC79" stop-opacity="0.1"/>
</linearGradient>
<linearGradient id="paint1_linear_6306_10241" x1="211.154" y1="31.0093" x2="187.404" y2="-3.42822" gradientUnits="userSpaceOnUse">
<stop stop-color="#1B1B1C"/>
<stop offset="1" stop-color="#FAAC79" stop-opacity="0.1"/>
</linearGradient>
</defs>
</svg>
