<svg width="297" height="78" viewBox="0 0 297 78" fill="none" xmlns="http://www.w3.org/2000/svg">
<mask id="path-1-inside-1_6306_10241" fill="white">
<path d="M0 39C0 17.4609 17.4609 0 39 0H258C279.539 0 297 17.4609 297 39C297 60.5391 279.539 78 258 78H39C17.4609 78 0 60.5391 0 39Z"/>
</mask>
<path d="M0 39C0 17.4609 17.4609 0 39 0H258C279.539 0 297 17.4609 297 39C297 60.5391 279.539 78 258 78H39C17.4609 78 0 60.5391 0 39Z" fill="url(#paint0_linear_6306_10241)"/>
<path d="M0 39C0 16.9086 17.9086 -1 40 -1H258.5C280.315 -1 298 16.6848 298 38.5L296 39C296 18.0132 278.987 1 258 1H39C17.4609 1 0 18.0132 0 39ZM297 78H0H297ZM0 78V0V78ZM258.5 -1C280.315 -1 298 16.6848 298 38.5C298 60.3152 280.315 78 258.5 78H258C278.987 78 296 60.5391 296 39C296 18.0132 278.987 1 258 1L258.5 -1Z" fill="white" fill-opacity="0.1" mask="url(#path-1-inside-1_6306_10241)"/>
<path d="M40.522 24H37.176V13.878H40.466C43.49 13.878 45.534 15.922 45.534 18.946C45.534 21.956 43.518 24 40.522 24ZM40.368 15.138H38.548V22.726H40.424C42.678 22.726 44.106 21.27 44.106 18.946C44.106 16.594 42.678 15.138 40.368 15.138ZM46.6075 20.57C46.6075 18.456 48.1195 16.972 50.1775 16.972C52.2215 16.972 53.7335 18.456 53.7335 20.57C53.7335 22.684 52.2215 24.168 50.1775 24.168C48.1195 24.168 46.6075 22.684 46.6075 20.57ZM47.9375 20.57C47.9375 21.998 48.8475 22.992 50.1775 22.992C51.4935 22.992 52.4175 21.998 52.4175 20.57C52.4175 19.142 51.4935 18.148 50.1775 18.148C48.8475 18.148 47.9375 19.142 47.9375 20.57ZM59.1243 14.256L57.9203 16.118H56.8983L57.8363 14.256H59.1243ZM54.6303 22.012H55.8903C55.8903 22.712 56.4223 23.132 57.2903 23.132C58.2143 23.132 58.7463 22.754 58.7463 22.124C58.7463 21.662 58.5223 21.382 57.8083 21.2L56.6043 20.92C55.3863 20.626 54.8123 20.024 54.8123 19.016C54.8123 17.756 55.8763 16.958 57.3883 16.958C58.8863 16.958 59.8663 17.798 59.8943 19.1H58.6343C58.6063 18.414 58.1443 17.98 57.3463 17.98C56.5203 17.98 56.0583 18.344 56.0583 18.974C56.0583 19.436 56.3943 19.744 57.0663 19.912L58.2703 20.206C59.4323 20.486 60.0063 21.018 60.0063 22.04C60.0063 23.342 58.8863 24.168 57.2623 24.168C55.6523 24.168 54.6303 23.314 54.6303 22.012ZM62.7716 24L60.5316 17.154H61.8896L63.0236 20.71C63.1776 21.214 63.3176 21.732 63.4436 22.334C63.5556 21.732 63.7376 21.158 63.8916 20.71L65.0396 17.154H66.3836L67.5176 20.71C67.6296 21.046 67.8536 21.844 67.9656 22.334C68.0776 21.788 68.2036 21.312 68.3996 20.71L69.5476 17.154H70.9196L68.5816 24H67.3356L66.1456 20.332C65.9216 19.646 65.7816 19.114 65.7116 18.736C65.6416 19.072 65.5156 19.52 65.2636 20.346L64.0736 24H62.7716ZM72.6917 15.53C72.2157 15.53 71.8237 15.138 71.8237 14.662C71.8237 14.172 72.2157 13.794 72.6917 13.794C73.1677 13.794 73.5597 14.172 73.5597 14.662C73.5597 15.138 73.1677 15.53 72.6917 15.53ZM72.0477 24V17.154H73.3637V24H72.0477ZM77.2763 24.168C75.8063 24.168 74.9383 23.342 74.9383 22.096C74.9383 20.836 75.8763 20.052 77.4863 19.926L79.6423 19.758V19.562C79.6423 18.414 78.9563 18.008 78.0323 18.008C76.9263 18.008 76.2963 18.498 76.2963 19.324H75.1483C75.1483 17.896 76.3243 16.958 78.0883 16.958C79.7823 16.958 80.9303 17.854 80.9303 19.702V24H79.8103L79.6703 22.894C79.3203 23.678 78.3823 24.168 77.2763 24.168ZM77.6543 23.146C78.9003 23.146 79.6563 22.334 79.6563 21.046V20.682L77.9063 20.822C76.7443 20.934 76.2683 21.382 76.2683 22.054C76.2683 22.782 76.8003 23.146 77.6543 23.146ZM85.4968 24.168C83.5088 24.168 82.3048 22.684 82.3048 20.598C82.3048 18.498 83.5228 16.958 85.5528 16.958C86.6028 16.958 87.4848 17.42 87.9468 18.26V13.696H89.2488V24H88.0728L87.9608 22.754C87.5128 23.692 86.5888 24.168 85.4968 24.168ZM85.7628 22.978C87.1068 22.978 87.9328 21.984 87.9328 20.556C87.9328 19.156 87.1068 18.148 85.7628 18.148C84.4188 18.148 83.6348 19.156 83.6348 20.556C83.6348 21.97 84.4188 22.978 85.7628 22.978ZM90.6993 20.584C90.6993 18.442 92.0573 16.958 94.0593 16.958C95.7813 16.958 96.9853 17.938 97.2233 19.464H95.9073C95.6833 18.596 94.9833 18.134 94.1013 18.134C92.8553 18.134 92.0013 19.086 92.0013 20.57C92.0013 22.04 92.7993 22.992 94.0453 22.992C94.9833 22.992 95.6833 22.502 95.9213 21.69H97.2373C96.9713 23.174 95.6973 24.168 94.0453 24.168C92.0293 24.168 90.6993 22.74 90.6993 20.584ZM103.266 24H97.9324V22.936L101.628 18.26H97.9324V17.154H103.266V18.232L99.5424 22.894H103.266V24ZM107.554 24.168C105.538 24.168 104.152 22.712 104.152 20.584C104.152 18.442 105.51 16.958 107.498 16.958C109.444 16.958 110.718 18.302 110.718 20.332V20.822L105.426 20.836C105.524 22.278 106.28 23.076 107.582 23.076C108.604 23.076 109.276 22.656 109.5 21.872H110.732C110.396 23.342 109.248 24.168 107.554 24.168ZM107.498 18.064C106.35 18.064 105.622 18.75 105.454 19.954H109.402C109.402 18.82 108.66 18.064 107.498 18.064ZM113.504 24H112.188V17.154H113.378L113.518 18.204C113.952 17.42 114.82 16.958 115.786 16.958C117.592 16.958 118.418 18.064 118.418 19.814V24H117.102V20.108C117.102 18.722 116.458 18.162 115.45 18.162C114.218 18.162 113.504 19.044 113.504 20.374V24ZM120.885 15.53C120.409 15.53 120.017 15.138 120.017 14.662C120.017 14.172 120.409 13.794 120.885 13.794C121.361 13.794 121.753 14.172 121.753 14.662C121.753 15.138 121.361 15.53 120.885 15.53ZM120.241 24V17.154H121.557V24H120.241ZM126.422 24.168C124.406 24.168 123.02 22.712 123.02 20.584C123.02 18.442 124.378 16.958 126.366 16.958C128.312 16.958 129.586 18.302 129.586 20.332V20.822L124.294 20.836C124.392 22.278 125.148 23.076 126.45 23.076C127.472 23.076 128.144 22.656 128.368 21.872H129.6C129.264 23.342 128.116 24.168 126.422 24.168ZM126.366 18.064C125.218 18.064 124.49 18.75 124.322 19.954H128.27C128.27 18.82 127.528 18.064 126.366 18.064Z" fill="white"/>
<path d="M36.8807 40V32.7273H39.3381C39.9086 32.7273 40.375 32.8303 40.7372 33.0362C41.1018 33.2398 41.3717 33.5156 41.5469 33.8636C41.7221 34.2116 41.8097 34.5999 41.8097 35.0284C41.8097 35.4569 41.7221 35.8464 41.5469 36.1967C41.3741 36.5471 41.1065 36.8265 40.7443 37.0348C40.3821 37.2408 39.9181 37.3438 39.3523 37.3438H37.5909V36.5625H39.3239C39.7145 36.5625 40.0282 36.495 40.2649 36.3601C40.5017 36.2251 40.6733 36.0429 40.7798 35.8132C40.8887 35.5812 40.9432 35.3196 40.9432 35.0284C40.9432 34.7372 40.8887 34.4768 40.7798 34.2472C40.6733 34.0175 40.5005 33.8376 40.2614 33.7074C40.0223 33.5748 39.705 33.5085 39.3097 33.5085H37.7614V40H36.8807ZM44.7198 40.1278C44.3742 40.1278 44.0605 40.0627 43.7788 39.9325C43.497 39.8 43.2733 39.6094 43.1076 39.3608C42.9419 39.1098 42.859 38.8068 42.859 38.4517C42.859 38.1392 42.9206 37.8859 43.0437 37.6918C43.1668 37.4953 43.3313 37.3414 43.5373 37.2301C43.7433 37.1188 43.9705 37.036 44.2191 36.9815C44.4701 36.9247 44.7222 36.8797 44.9755 36.8466C45.3069 36.804 45.5756 36.772 45.7816 36.7507C45.9899 36.727 46.1415 36.688 46.2362 36.6335C46.3332 36.5791 46.3817 36.4844 46.3817 36.3494V36.321C46.3817 35.9706 46.2859 35.6984 46.0941 35.5043C45.9047 35.3101 45.6171 35.2131 45.2312 35.2131C44.8311 35.2131 44.5174 35.3007 44.2901 35.4759C44.0629 35.651 43.9031 35.8381 43.8107 36.0369L43.0153 35.7528C43.1573 35.4214 43.3467 35.1634 43.5835 34.9787C43.8226 34.7917 44.083 34.6615 44.3647 34.5881C44.6488 34.5123 44.9281 34.4744 45.2028 34.4744C45.378 34.4744 45.5792 34.4957 45.8065 34.5384C46.0361 34.5786 46.2575 34.6626 46.4705 34.7905C46.686 34.9183 46.8647 35.1113 47.0067 35.3693C47.1488 35.6274 47.2198 35.973 47.2198 36.4062V40H46.3817V39.2614H46.3391C46.2823 39.3797 46.1876 39.5064 46.055 39.6413C45.9225 39.7763 45.7461 39.8911 45.5259 39.9858C45.3058 40.0805 45.0371 40.1278 44.7198 40.1278ZM44.8477 39.375C45.1791 39.375 45.4585 39.3099 45.6857 39.1797C45.9154 39.0495 46.0882 38.8814 46.2042 38.6754C46.3226 38.4695 46.3817 38.2528 46.3817 38.0256V37.2585C46.3462 37.3011 46.2681 37.3402 46.1474 37.3757C46.029 37.4089 45.8917 37.4384 45.7354 37.4645C45.5816 37.4882 45.4312 37.5095 45.2844 37.5284C45.14 37.545 45.0228 37.5592 44.9329 37.571C44.7151 37.5994 44.5115 37.6456 44.3221 37.7095C44.1351 37.7711 43.9835 37.8646 43.8675 37.9901C43.7539 38.1132 43.6971 38.2812 43.6971 38.4943C43.6971 38.7855 43.8048 39.0057 44.0202 39.1548C44.238 39.3016 44.5138 39.375 44.8477 39.375ZM49.5875 36.7188V40H48.7495V34.5455H49.5591V35.3977H49.6301C49.758 35.1207 49.9521 34.8982 50.2125 34.7301C50.473 34.5597 50.8091 34.4744 51.2211 34.4744C51.5904 34.4744 51.9135 34.5502 52.1905 34.7017C52.4675 34.8509 52.6829 35.0781 52.8368 35.3835C52.9907 35.6866 53.0676 36.0701 53.0676 36.5341V40H52.2296V36.5909C52.2296 36.1624 52.1183 35.8286 51.8958 35.5895C51.6732 35.348 51.3678 35.2273 50.9796 35.2273C50.7121 35.2273 50.473 35.2853 50.2623 35.4013C50.0539 35.5173 49.8894 35.6866 49.7686 35.9091C49.6479 36.1316 49.5875 36.4015 49.5875 36.7188ZM56.886 40.1136C56.3604 40.1136 55.9071 39.9976 55.5259 39.7656C55.1471 39.5312 54.8548 39.2045 54.6488 38.7855C54.4452 38.3641 54.3434 37.8741 54.3434 37.3153C54.3434 36.7566 54.4452 36.2642 54.6488 35.8381C54.8548 35.4096 55.1412 35.0758 55.5082 34.8366C55.8775 34.5952 56.3084 34.4744 56.8008 34.4744C57.0849 34.4744 57.3654 34.5218 57.6424 34.6165C57.9194 34.7112 58.1715 34.8651 58.3988 35.0781C58.6261 35.2888 58.8072 35.5682 58.9421 35.9162C59.0771 36.2642 59.1445 36.6927 59.1445 37.2017V37.5568H54.94V36.8324H58.2923C58.2923 36.5246 58.2307 36.25 58.1076 36.0085C57.9869 35.767 57.814 35.5765 57.5891 35.4368C57.3666 35.2971 57.1038 35.2273 56.8008 35.2273C56.467 35.2273 56.1781 35.3101 55.9343 35.4759C55.6928 35.6392 55.507 35.8523 55.3768 36.1151C55.2466 36.3778 55.1815 36.6596 55.1815 36.9602V37.4432C55.1815 37.8551 55.2525 38.2043 55.3945 38.4908C55.5389 38.7749 55.739 38.9915 55.9947 39.1406C56.2504 39.2874 56.5475 39.3608 56.886 39.3608C57.1062 39.3608 57.305 39.33 57.4826 39.2685C57.6625 39.2045 57.8176 39.1098 57.9478 38.9844C58.078 38.8565 58.1786 38.6979 58.2496 38.5085L59.0593 38.7358C58.9741 39.0104 58.8308 39.2519 58.6296 39.4602C58.4284 39.6662 58.1798 39.8272 57.8839 39.9432C57.5879 40.0568 57.2553 40.1136 56.886 40.1136ZM61.2575 32.7273V40H60.4194V32.7273H61.2575ZM69.4686 35.767L68.7157 35.9801C68.6684 35.8546 68.5985 35.7327 68.5062 35.6143C68.4163 35.4936 68.2931 35.3942 68.1369 35.3161C67.9806 35.2379 67.7806 35.1989 67.5368 35.1989C67.2029 35.1989 66.9248 35.2758 66.7022 35.4297C66.4821 35.5812 66.372 35.7741 66.372 36.0085C66.372 36.2169 66.4477 36.3814 66.5993 36.5021C66.7508 36.6229 66.9875 36.7235 67.3095 36.804L68.1191 37.0028C68.6068 37.1212 68.9702 37.3023 69.2093 37.5462C69.4484 37.7876 69.568 38.099 69.568 38.4801C69.568 38.7926 69.478 39.072 69.2981 39.3182C69.1206 39.5644 68.872 39.7585 68.5524 39.9006C68.2328 40.0426 67.8611 40.1136 67.4373 40.1136C66.881 40.1136 66.4205 39.9929 66.0559 39.7514C65.6913 39.5099 65.4605 39.1572 65.3635 38.6932L66.1589 38.4943C66.2347 38.7879 66.3779 39.008 66.5886 39.1548C66.8017 39.3016 67.0798 39.375 67.4231 39.375C67.8137 39.375 68.1239 39.2921 68.3535 39.1264C68.5855 38.9583 68.7015 38.7571 68.7015 38.5227C68.7015 38.3333 68.6352 38.1747 68.5027 38.0469C68.3701 37.9167 68.1665 37.8196 67.8919 37.7557L66.9828 37.5426C66.4833 37.4242 66.1163 37.2408 65.8819 36.9922C65.6499 36.7412 65.5339 36.4276 65.5339 36.0511C65.5339 35.7434 65.6203 35.4711 65.7931 35.2344C65.9683 34.9976 66.2063 34.8118 66.5069 34.6768C66.81 34.5419 67.1532 34.4744 67.5368 34.4744C68.0765 34.4744 68.5003 34.5928 68.8081 34.8295C69.1182 35.0663 69.3384 35.3788 69.4686 35.767ZM73.2017 34.5455V35.2557H70.375V34.5455H73.2017ZM71.1989 33.2386H72.0369V38.4375C72.0369 38.6742 72.0713 38.8518 72.1399 38.9702C72.2109 39.0862 72.3009 39.1643 72.4098 39.2045C72.5211 39.2424 72.6383 39.2614 72.7614 39.2614C72.8537 39.2614 72.9295 39.2566 72.9886 39.2472C73.0478 39.2353 73.0952 39.2259 73.1307 39.2188L73.3011 39.9716C73.2443 39.9929 73.165 40.0142 73.0632 40.0355C72.9614 40.0592 72.8324 40.071 72.6761 40.071C72.4394 40.071 72.2074 40.0201 71.9801 39.9183C71.7552 39.8165 71.5682 39.6615 71.419 39.4531C71.2723 39.2448 71.1989 38.982 71.1989 38.6648V33.2386ZM75.6982 40L74.0362 34.5455H74.9169L76.0959 38.7216H76.1527L77.3175 34.5455H78.2124L79.3629 38.7074H79.4197L80.5987 34.5455H81.4794L79.8175 40H78.9936L77.8004 35.8097H77.7152L76.522 40H75.6982ZM84.6177 40.1136C84.1253 40.1136 83.6932 39.9964 83.3216 39.7621C82.9522 39.5277 82.6634 39.1998 82.4551 38.7784C82.2491 38.357 82.1461 37.8646 82.1461 37.3011C82.1461 36.733 82.2491 36.237 82.4551 35.8132C82.6634 35.3894 82.9522 35.0604 83.3216 34.826C83.6932 34.5916 84.1253 34.4744 84.6177 34.4744C85.1101 34.4744 85.541 34.5916 85.9103 34.826C86.282 35.0604 86.5708 35.3894 86.7768 35.8132C86.9851 36.237 87.0893 36.733 87.0893 37.3011C87.0893 37.8646 86.9851 38.357 86.7768 38.7784C86.5708 39.1998 86.282 39.5277 85.9103 39.7621C85.541 39.9964 85.1101 40.1136 84.6177 40.1136ZM84.6177 39.3608C84.9918 39.3608 85.2995 39.2649 85.541 39.0732C85.7825 38.8814 85.9612 38.6293 86.0772 38.3168C86.1932 38.0043 86.2512 37.6657 86.2512 37.3011C86.2512 36.9366 86.1932 36.5968 86.0772 36.282C85.9612 35.9671 85.7825 35.7126 85.541 35.5185C85.2995 35.3243 84.9918 35.2273 84.6177 35.2273C84.2437 35.2273 83.9359 35.3243 83.6944 35.5185C83.4529 35.7126 83.2742 35.9671 83.1582 36.282C83.0422 36.5968 82.9842 36.9366 82.9842 37.3011C82.9842 37.6657 83.0422 38.0043 83.1582 38.3168C83.2742 38.6293 83.4529 38.8814 83.6944 39.0732C83.9359 39.2649 84.2437 39.3608 84.6177 39.3608ZM88.3686 40V34.5455H89.1783V35.3693H89.2351C89.3345 35.0994 89.5144 34.8804 89.7749 34.7124C90.0353 34.5443 90.3288 34.4602 90.6555 34.4602C90.7171 34.4602 90.794 34.4614 90.8864 34.4638C90.9787 34.4661 91.0485 34.4697 91.0959 34.4744V35.3267C91.0675 35.3196 91.0024 35.3089 90.9006 35.2947C90.8011 35.2782 90.6958 35.2699 90.5845 35.2699C90.3194 35.2699 90.0826 35.3255 89.8743 35.4368C89.6683 35.5457 89.505 35.6972 89.3842 35.8913C89.2659 36.0831 89.2067 36.3021 89.2067 36.5483V40H88.3686ZM91.9331 40V39.3608L95.0297 35.3835V35.3267H92.0325V34.5455H96.1092V35.2131L93.0978 39.1619V39.2188H96.2086V40H91.9331ZM99.5591 40.1136C99.0667 40.1136 98.6346 39.9964 98.263 39.7621C97.8936 39.5277 97.6048 39.1998 97.3965 38.7784C97.1905 38.357 97.0875 37.8646 97.0875 37.3011C97.0875 36.733 97.1905 36.237 97.3965 35.8132C97.6048 35.3894 97.8936 35.0604 98.263 34.826C98.6346 34.5916 99.0667 34.4744 99.5591 34.4744C100.052 34.4744 100.482 34.5916 100.852 34.826C101.223 35.0604 101.512 35.3894 101.718 35.8132C101.927 36.237 102.031 36.733 102.031 37.3011C102.031 37.8646 101.927 38.357 101.718 38.7784C101.512 39.1998 101.223 39.5277 100.852 39.7621C100.482 39.9964 100.052 40.1136 99.5591 40.1136ZM99.5591 39.3608C99.9332 39.3608 100.241 39.2649 100.482 39.0732C100.724 38.8814 100.903 38.6293 101.019 38.3168C101.135 38.0043 101.193 37.6657 101.193 37.3011C101.193 36.9366 101.135 36.5968 101.019 36.282C100.903 35.9671 100.724 35.7126 100.482 35.5185C100.241 35.3243 99.9332 35.2273 99.5591 35.2273C99.1851 35.2273 98.8773 35.3243 98.6358 35.5185C98.3944 35.7126 98.2156 35.9671 98.0996 36.282C97.9836 36.5968 97.9256 36.9366 97.9256 37.3011C97.9256 37.6657 97.9836 38.0043 98.0996 38.3168C98.2156 38.6293 98.3944 38.8814 98.6358 39.0732C98.8773 39.2649 99.1851 39.3608 99.5591 39.3608ZM104.148 36.7188V40H103.31V34.5455H104.12V35.3977H104.191C104.319 35.1207 104.513 34.8982 104.773 34.7301C105.033 34.5597 105.37 34.4744 105.782 34.4744C106.151 34.4744 106.474 34.5502 106.751 34.7017C107.028 34.8509 107.243 35.0781 107.397 35.3835C107.551 35.6866 107.628 36.0701 107.628 36.5341V40H106.79V36.5909C106.79 36.1624 106.679 35.8286 106.456 35.5895C106.234 35.348 105.928 35.2273 105.54 35.2273C105.273 35.2273 105.033 35.2853 104.823 35.4013C104.614 35.5173 104.45 35.6866 104.329 35.9091C104.208 36.1316 104.148 36.4015 104.148 36.7188ZM109.504 42.0455C109.362 42.0455 109.235 42.0336 109.124 42.0099C109.013 41.9886 108.936 41.9673 108.893 41.946L109.106 41.2074C109.31 41.2595 109.49 41.2784 109.646 41.2642C109.802 41.25 109.941 41.1802 110.062 41.0547C110.185 40.9316 110.297 40.7315 110.399 40.4545L110.555 40.0284L108.538 34.5455H109.447L110.953 38.892H111.01L112.515 34.5455H113.425L111.109 40.7955C111.005 41.0772 110.876 41.3104 110.722 41.495C110.568 41.6821 110.39 41.8205 110.186 41.9105C109.985 42.0005 109.757 42.0455 109.504 42.0455ZM117.343 42.0455V34.5455H118.153V35.4119H118.252C118.314 35.3172 118.399 35.1965 118.508 35.0497C118.619 34.9006 118.778 34.768 118.984 34.652C119.192 34.5336 119.474 34.4744 119.829 34.4744C120.288 34.4744 120.693 34.5893 121.044 34.8189C121.394 35.0485 121.667 35.3741 121.864 35.7955C122.06 36.2169 122.159 36.714 122.159 37.2869C122.159 37.8646 122.06 38.3653 121.864 38.7891C121.667 39.2105 121.395 39.5372 121.047 39.7692C120.699 39.9988 120.298 40.1136 119.843 40.1136C119.493 40.1136 119.212 40.0556 119.002 39.9396C118.791 39.8213 118.629 39.6875 118.515 39.5384C118.401 39.3868 118.314 39.2614 118.252 39.1619H118.181V42.0455H117.343ZM118.167 37.2727C118.167 37.6847 118.227 38.0481 118.348 38.3629C118.469 38.6754 118.645 38.9205 118.877 39.098C119.109 39.2732 119.393 39.3608 119.73 39.3608C120.08 39.3608 120.372 39.2685 120.607 39.0838C120.843 38.8968 121.021 38.6458 121.139 38.331C121.26 38.0137 121.32 37.661 121.32 37.2727C121.32 36.8892 121.261 36.5436 121.143 36.2358C121.027 35.9257 120.851 35.6806 120.614 35.5007C120.379 35.3184 120.085 35.2273 119.73 35.2273C119.389 35.2273 119.102 35.3137 118.87 35.4865C118.638 35.657 118.463 35.8961 118.345 36.2038C118.226 36.5092 118.167 36.8655 118.167 37.2727ZM123.437 40V34.5455H124.247V35.3693H124.303C124.403 35.0994 124.583 34.8804 124.843 34.7124C125.104 34.5443 125.397 34.4602 125.724 34.4602C125.785 34.4602 125.862 34.4614 125.955 34.4638C126.047 34.4661 126.117 34.4697 126.164 34.4744V35.3267C126.136 35.3196 126.071 35.3089 125.969 35.2947C125.869 35.2782 125.764 35.2699 125.653 35.2699C125.388 35.2699 125.151 35.3255 124.943 35.4368C124.737 35.5457 124.573 35.6972 124.453 35.8913C124.334 36.0831 124.275 36.3021 124.275 36.5483V40H123.437ZM127.001 40V39.3608L130.098 35.3835V35.3267H127.101V34.5455H131.178V35.2131L128.166 39.1619V39.2188H131.277V40H127.001ZM134.699 40.1136C134.173 40.1136 133.72 39.9976 133.338 39.7656C132.96 39.5312 132.667 39.2045 132.461 38.7855C132.258 38.3641 132.156 37.8741 132.156 37.3153C132.156 36.7566 132.258 36.2642 132.461 35.8381C132.667 35.4096 132.954 35.0758 133.321 34.8366C133.69 34.5952 134.121 34.4744 134.613 34.4744C134.897 34.4744 135.178 34.5218 135.455 34.6165C135.732 34.7112 135.984 34.8651 136.211 35.0781C136.439 35.2888 136.62 35.5682 136.755 35.9162C136.89 36.2642 136.957 36.6927 136.957 37.2017V37.5568H132.752V36.8324H136.105C136.105 36.5246 136.043 36.25 135.92 36.0085C135.799 35.767 135.627 35.5765 135.402 35.4368C135.179 35.2971 134.916 35.2273 134.613 35.2273C134.279 35.2273 133.991 35.3101 133.747 35.4759C133.505 35.6392 133.319 35.8523 133.189 36.1151C133.059 36.3778 132.994 36.6596 132.994 36.9602V37.4432C132.994 37.8551 133.065 38.2043 133.207 38.4908C133.351 38.7749 133.551 38.9915 133.807 39.1406C134.063 39.2874 134.36 39.3608 134.699 39.3608C134.919 39.3608 135.118 39.33 135.295 39.2685C135.475 39.2045 135.63 39.1098 135.76 38.9844C135.891 38.8565 135.991 38.6979 136.062 38.5085L136.872 38.7358C136.787 39.0104 136.643 39.2519 136.442 39.4602C136.241 39.6662 135.992 39.8272 135.696 39.9432C135.4 40.0568 135.068 40.1136 134.699 40.1136ZM138.076 40V39.3608L141.172 35.3835V35.3267H138.175V34.5455H142.252V35.2131L139.24 39.1619V39.2188H142.351V40H138.076ZM146.487 40V32.7273H149.079C149.642 32.7273 150.11 32.8243 150.482 33.0185C150.856 33.2126 151.135 33.4813 151.32 33.8246C151.504 34.1655 151.597 34.5597 151.597 35.0071C151.597 35.4522 151.503 35.844 151.316 36.1825C151.131 36.5187 150.852 36.7803 150.478 36.9673C150.106 37.1544 149.639 37.2479 149.075 37.2479H147.112V36.3033H148.976C149.331 36.3033 149.62 36.2524 149.842 36.1506C150.067 36.0488 150.232 35.9008 150.336 35.7067C150.44 35.5125 150.492 35.2794 150.492 35.0071C150.492 34.7325 150.439 34.4946 150.332 34.2933C150.228 34.0921 150.064 33.9382 149.839 33.8317C149.616 33.7228 149.324 33.6683 148.962 33.6683H147.584V40H146.487ZM150.077 36.7188L151.874 40H150.624L148.862 36.7188H150.077ZM152.932 40V32.7273H157.491V33.6719H154.029V35.8878H157.254V36.8288H154.029V39.0554H157.534V40H152.932ZM164.827 32.7273V40H163.819L160.122 34.6662H160.055V40H158.957V32.7273H159.973L163.673 38.0682H163.741V32.7273H164.827ZM168.782 40H166.428V32.7273H168.857C169.569 32.7273 170.181 32.8729 170.693 33.1641C171.204 33.4529 171.596 33.8684 171.868 34.4105C172.143 34.9503 172.28 35.5978 172.28 36.353C172.28 37.1106 172.142 37.7616 171.865 38.3061C171.59 38.8506 171.192 39.2696 170.672 39.5632C170.151 39.8544 169.521 40 168.782 40ZM167.525 39.0412H168.722C169.276 39.0412 169.736 38.937 170.103 38.7287C170.47 38.518 170.745 38.2138 170.927 37.8161C171.109 37.416 171.201 36.9283 171.201 36.353C171.201 35.7824 171.109 35.2983 170.927 34.9006C170.747 34.5028 170.479 34.201 170.121 33.995C169.764 33.7891 169.32 33.6861 168.789 33.6861H167.525V39.0412ZM173.8 40.0675C173.606 40.0675 173.439 39.9988 173.299 39.8615C173.16 39.7218 173.09 39.5537 173.09 39.3572C173.09 39.1631 173.16 38.9974 173.299 38.8601C173.439 38.7204 173.606 38.6506 173.8 38.6506C173.994 38.6506 174.161 38.7204 174.301 38.8601C174.44 38.9974 174.51 39.1631 174.51 39.3572C174.51 39.4875 174.477 39.607 174.411 39.7159C174.347 39.8224 174.262 39.9077 174.155 39.9716C174.049 40.0355 173.93 40.0675 173.8 40.0675ZM176.018 40V32.7273H178.61C179.176 32.7273 179.645 32.8303 180.016 33.0362C180.388 33.2422 180.666 33.5239 180.851 33.8814C181.036 34.2365 181.128 34.6366 181.128 35.0817C181.128 35.5291 181.034 35.9316 180.847 36.2891C180.663 36.6442 180.383 36.9259 180.009 37.1342C179.638 37.3402 179.17 37.4432 178.607 37.4432H176.824V36.5128H178.507C178.865 36.5128 179.155 36.4512 179.377 36.3281C179.6 36.2027 179.763 36.0322 179.867 35.8168C179.971 35.6013 180.023 35.3563 180.023 35.0817C180.023 34.8071 179.971 34.5632 179.867 34.3501C179.763 34.1371 179.598 33.9702 179.374 33.8494C179.151 33.7287 178.857 33.6683 178.493 33.6683H177.115V40H176.018ZM182.414 40V32.7273H185.007C185.57 32.7273 186.038 32.8243 186.409 33.0185C186.783 33.2126 187.063 33.4813 187.247 33.8246C187.432 34.1655 187.524 34.5597 187.524 35.0071C187.524 35.4522 187.431 35.844 187.244 36.1825C187.059 36.5187 186.78 36.7803 186.406 36.9673C186.034 37.1544 185.566 37.2479 185.003 37.2479H183.039V36.3033H184.904C185.259 36.3033 185.548 36.2524 185.77 36.1506C185.995 36.0488 186.16 35.9008 186.264 35.7067C186.368 35.5125 186.42 35.2794 186.42 35.0071C186.42 34.7325 186.367 34.4946 186.26 34.2933C186.156 34.0921 185.991 33.9382 185.767 33.8317C185.544 33.7228 185.252 33.6683 184.889 33.6683H183.512V40H182.414ZM186.004 36.7188L187.801 40H186.551L184.79 36.7188H186.004ZM195.177 36.3636C195.177 37.1402 195.035 37.8078 194.751 38.3665C194.467 38.9228 194.077 39.3513 193.583 39.652C193.09 39.9503 192.53 40.0994 191.903 40.0994C191.273 40.0994 190.711 39.9503 190.216 39.652C189.724 39.3513 189.335 38.9216 189.051 38.3629C188.767 37.8042 188.625 37.1378 188.625 36.3636C188.625 35.5871 188.767 34.9207 189.051 34.3643C189.335 33.8056 189.724 33.3771 190.216 33.0788C190.711 32.7782 191.273 32.6278 191.903 32.6278C192.53 32.6278 193.09 32.7782 193.583 33.0788C194.077 33.3771 194.467 33.8056 194.751 34.3643C195.035 34.9207 195.177 35.5871 195.177 36.3636ZM194.09 36.3636C194.09 35.7718 193.994 35.2734 193.803 34.8686C193.613 34.4614 193.353 34.1536 193.021 33.9453C192.692 33.7346 192.32 33.6293 191.903 33.6293C191.484 33.6293 191.11 33.7346 190.781 33.9453C190.452 34.1536 190.191 34.4614 189.999 34.8686C189.81 35.2734 189.715 35.7718 189.715 36.3636C189.715 36.9555 189.81 37.455 189.999 37.8622C190.191 38.267 190.452 38.5748 190.781 38.7855C191.11 38.9938 191.484 39.098 191.903 39.098C192.32 39.098 192.692 38.9938 193.021 38.7855C193.353 38.5748 193.613 38.267 193.803 37.8622C193.994 37.455 194.09 36.9555 194.09 36.3636ZM39.9276 48.4666V49.3864H36.7031V48.4666H39.9276ZM46.585 46.5455V47.3977H43.5027V46.5455H46.585ZM44.3478 52V45.9134C44.3478 45.5724 44.4224 45.2895 44.5716 45.0646C44.7207 44.8374 44.9184 44.6681 45.1646 44.5568C45.4108 44.4432 45.6783 44.3864 45.9672 44.3864C46.1802 44.3864 46.3625 44.4041 46.514 44.4396C46.6655 44.4728 46.778 44.5036 46.8514 44.532L46.6028 45.3913C46.5531 45.3771 46.4892 45.3606 46.411 45.3416C46.3329 45.3203 46.2382 45.3097 46.127 45.3097C45.8689 45.3097 45.6842 45.3736 45.573 45.5014C45.4641 45.6293 45.4096 45.8139 45.4096 46.0554V52H44.3478ZM47.6806 52V46.5455H48.7424V52H47.6806ZM48.2168 45.7038C48.0321 45.7038 47.8735 45.6423 47.7409 45.5192C47.6107 45.3937 47.5456 45.2446 47.5456 45.0717C47.5456 44.8965 47.6107 44.7474 47.7409 44.6243C47.8735 44.4988 48.0321 44.4361 48.2168 44.4361C48.4015 44.4361 48.5589 44.4988 48.6891 44.6243C48.8217 44.7474 48.888 44.8965 48.888 45.0717C48.888 45.2446 48.8217 45.3937 48.6891 45.5192C48.5589 45.6423 48.4015 45.7038 48.2168 45.7038ZM50.1708 52V46.5455H51.1971V47.4119H51.2539C51.3533 47.1184 51.5285 46.8875 51.7795 46.7195C52.0328 46.549 52.3192 46.4638 52.6388 46.4638C52.7051 46.4638 52.7833 46.4661 52.8732 46.4709C52.9656 46.4756 53.0378 46.4815 53.0898 46.4886V47.5043C53.0472 47.4924 52.9715 47.4794 52.8626 47.4652C52.7537 47.4486 52.6448 47.4403 52.5359 47.4403C52.2849 47.4403 52.0612 47.4936 51.8647 47.6001C51.6706 47.7043 51.5167 47.8499 51.4031 48.0369C51.2894 48.2216 51.2326 48.4323 51.2326 48.669V52H50.1708ZM54.0087 52V46.5455H55.0279V47.4332H55.0953C55.209 47.1326 55.3948 46.8982 55.6529 46.7301C55.9109 46.5597 56.2199 46.4744 56.5797 46.4744C56.9443 46.4744 57.2497 46.5597 57.4959 46.7301C57.7445 46.9006 57.928 47.1349 58.0463 47.4332H58.1032C58.2334 47.142 58.4405 46.91 58.7246 46.7372C59.0087 46.562 59.3472 46.4744 59.7402 46.4744C60.235 46.4744 60.6387 46.6295 60.9512 46.9396C61.266 47.2498 61.4235 47.7173 61.4235 48.3423V52H60.3617V48.4418C60.3617 48.0724 60.2611 47.8049 60.0598 47.6392C59.8586 47.4735 59.6183 47.3906 59.339 47.3906C58.9933 47.3906 58.7246 47.4972 58.5328 47.7102C58.3411 47.9209 58.2452 48.192 58.2452 48.5234V52H57.187V48.3743C57.187 48.0784 57.0946 47.8404 56.91 47.6605C56.7253 47.4806 56.485 47.3906 56.1891 47.3906C55.9879 47.3906 55.802 47.4439 55.6316 47.5504C55.4635 47.6546 55.3274 47.8002 55.2232 47.9872C55.1214 48.1742 55.0705 48.3909 55.0705 48.6371V52H54.0087ZM65.1974 52.1101C64.66 52.1101 64.1972 51.9953 63.8089 51.7656C63.4231 51.5336 63.1248 51.2081 62.9141 50.7891C62.7057 50.3677 62.6016 49.8741 62.6016 49.3082C62.6016 48.7495 62.7057 48.2571 62.9141 47.831C63.1248 47.4048 63.4183 47.0722 63.7947 46.8331C64.1735 46.594 64.6162 46.4744 65.1229 46.4744C65.4306 46.4744 65.7289 46.5253 66.0178 46.6271C66.3066 46.7289 66.5658 46.8887 66.7955 47.1065C67.0251 47.3243 67.2062 47.6072 67.3388 47.9553C67.4714 48.3009 67.5376 48.7211 67.5376 49.2159V49.5923H63.2017V48.7969H66.4972C66.4972 48.5175 66.4403 48.2701 66.3267 48.0547C66.2131 47.8369 66.0533 47.6652 65.8473 47.5398C65.6437 47.4143 65.4046 47.3516 65.13 47.3516C64.8317 47.3516 64.5713 47.425 64.3487 47.5717C64.1286 47.7161 63.9581 47.9055 63.8374 48.1399C63.719 48.3719 63.6598 48.6241 63.6598 48.8963V49.5178C63.6598 49.8823 63.7237 50.1925 63.8516 50.4482C63.9818 50.7038 64.1629 50.8991 64.3949 51.0341C64.6269 51.1667 64.898 51.233 65.2081 51.233C65.4093 51.233 65.5928 51.2045 65.7585 51.1477C65.9242 51.0885 66.0675 51.0009 66.1882 50.8849C66.3089 50.7689 66.4013 50.6257 66.4652 50.4553L67.4702 50.6364C67.3897 50.9323 67.2453 51.1915 67.0369 51.4141C66.831 51.6342 66.5717 51.8059 66.2592 51.929C65.9491 52.0497 65.5952 52.1101 65.1974 52.1101ZM65.3892 54.049C65.0909 54.049 64.8423 53.9685 64.6435 53.8075C64.447 53.6489 64.3393 53.4169 64.3203 53.1115C64.3085 52.9316 64.3381 52.7505 64.4091 52.5682C64.4801 52.3859 64.5997 52.2131 64.7678 52.0497C64.9358 51.8864 65.1584 51.742 65.4354 51.6165L66.0675 51.9503C65.8497 52.09 65.6615 52.2379 65.5028 52.3942C65.3442 52.5504 65.2649 52.728 65.2649 52.9268C65.2649 53.0357 65.2921 53.121 65.3466 53.1825C65.401 53.2441 65.4946 53.2749 65.6271 53.2749C65.7242 53.2749 65.8106 53.2618 65.8864 53.2358C65.9621 53.2098 66.0237 53.1849 66.071 53.1612L66.1634 53.8359C66.0805 53.8857 65.974 53.933 65.8438 53.978C65.7159 54.0253 65.5644 54.049 65.3892 54.049ZM71.2486 52V51.272L74.2031 47.5185V47.4688H71.3445V46.5455H75.5277V47.3196L72.6868 51.027V51.0767H75.6271V52H71.2486ZM79.5263 54.0455V46.5455H80.5632V47.4297H80.652C80.7135 47.3161 80.8023 47.1847 80.9183 47.0355C81.0343 46.8864 81.1953 46.7562 81.4013 46.6449C81.6072 46.5312 81.8795 46.4744 82.218 46.4744C82.6584 46.4744 83.0514 46.5857 83.397 46.8082C83.7427 47.0308 84.0137 47.3516 84.2102 47.7706C84.4091 48.1896 84.5085 48.6939 84.5085 49.2834C84.5085 49.8729 84.4103 50.3783 84.2138 50.7997C84.0173 51.2187 83.7474 51.5419 83.4041 51.7692C83.0608 51.9941 82.669 52.1065 82.2287 52.1065C81.8973 52.1065 81.6262 52.0509 81.4155 51.9396C81.2071 51.8284 81.0438 51.6982 80.9254 51.549C80.8071 51.3999 80.7159 51.2673 80.652 51.1513H80.5881V54.0455H79.5263ZM80.5668 49.2727C80.5668 49.6562 80.6224 49.9924 80.7337 50.2812C80.8449 50.5701 81.0059 50.7962 81.2166 50.9595C81.4273 51.1205 81.6854 51.201 81.9908 51.201C82.308 51.201 82.5732 51.117 82.7862 50.9489C82.9993 50.7784 83.1603 50.5476 83.2692 50.2564C83.3804 49.9652 83.4361 49.6373 83.4361 49.2727C83.4361 48.9129 83.3816 48.5897 83.2727 48.3033C83.1662 48.0168 83.0052 47.7907 82.7898 47.625C82.5767 47.4593 82.3104 47.3764 81.9908 47.3764C81.683 47.3764 81.4226 47.4557 81.2095 47.6143C80.9988 47.773 80.839 47.9943 80.7301 48.2784C80.6212 48.5625 80.5668 48.8939 80.5668 49.2727ZM87.9957 52.1101C87.4844 52.1101 87.0381 51.9929 86.657 51.7585C86.2758 51.5241 85.9799 51.1963 85.7692 50.7749C85.5585 50.3535 85.4531 49.861 85.4531 49.2976C85.4531 48.7318 85.5585 48.237 85.7692 47.8132C85.9799 47.3894 86.2758 47.0604 86.657 46.826C87.0381 46.5916 87.4844 46.4744 87.9957 46.4744C88.5071 46.4744 88.9534 46.5916 89.3345 46.826C89.7157 47.0604 90.0116 47.3894 90.2223 47.8132C90.433 48.237 90.5384 48.7318 90.5384 49.2976C90.5384 49.861 90.433 50.3535 90.2223 50.7749C90.0116 51.1963 89.7157 51.5241 89.3345 51.7585C88.9534 51.9929 88.5071 52.1101 87.9957 52.1101ZM87.9993 51.2188C88.3307 51.2188 88.6054 51.1312 88.8232 50.956C89.041 50.7808 89.2019 50.5476 89.3061 50.2564C89.4126 49.9652 89.4659 49.6444 89.4659 49.294C89.4659 48.946 89.4126 48.6264 89.3061 48.3352C89.2019 48.0417 89.041 47.8061 88.8232 47.6286C88.6054 47.451 88.3307 47.3622 87.9993 47.3622C87.6655 47.3622 87.3885 47.451 87.1683 47.6286C86.9505 47.8061 86.7884 48.0417 86.6818 48.3352C86.5777 48.6264 86.5256 48.946 86.5256 49.294C86.5256 49.6444 86.5777 49.9652 86.6818 50.2564C86.7884 50.5476 86.9505 50.7808 87.1683 50.956C87.3885 51.1312 87.6655 51.2188 87.9993 51.2188ZM92.7853 48.7614V52H91.7235V46.5455H92.7427V47.4332H92.8102C92.9357 47.1444 93.1322 46.9124 93.3997 46.7372C93.6696 46.562 94.0093 46.4744 94.4189 46.4744C94.7905 46.4744 95.1161 46.5526 95.3954 46.7088C95.6748 46.8627 95.8914 47.0923 96.0453 47.3977C96.1992 47.7031 96.2761 48.0807 96.2761 48.5305V52H95.2143V48.6584C95.2143 48.263 95.1113 47.9541 94.9054 47.7315C94.6994 47.5066 94.4165 47.3942 94.0566 47.3942C93.8104 47.3942 93.5914 47.4474 93.3997 47.554C93.2103 47.6605 93.06 47.8168 92.9487 48.0227C92.8398 48.2263 92.7853 48.4725 92.7853 48.7614ZM99.2875 52.1207C98.9418 52.1207 98.6293 52.0568 98.35 51.929C98.0706 51.7988 97.8493 51.6106 97.6859 51.3643C97.5249 51.1181 97.4444 50.8163 97.4444 50.4588C97.4444 50.151 97.5036 49.8977 97.622 49.6989C97.7404 49.5 97.9002 49.3426 98.1014 49.2266C98.3026 49.1106 98.5275 49.023 98.7761 48.9638C99.0247 48.9046 99.278 48.8596 99.536 48.8288C99.8627 48.791 100.128 48.7602 100.331 48.7365C100.535 48.7105 100.683 48.669 100.775 48.6122C100.868 48.5554 100.914 48.4631 100.914 48.3352V48.3104C100.914 48.0002 100.826 47.7599 100.651 47.5895C100.478 47.419 100.22 47.3338 99.877 47.3338C99.5195 47.3338 99.2377 47.4131 99.0318 47.5717C98.8282 47.728 98.6873 47.902 98.6092 48.0938L97.6113 47.8665C97.7297 47.535 97.9025 47.2675 98.1298 47.0639C98.3594 46.858 98.6234 46.7088 98.9217 46.6165C99.22 46.5218 99.5337 46.4744 99.8627 46.4744C100.081 46.4744 100.311 46.5005 100.555 46.5526C100.801 46.6023 101.031 46.6946 101.244 46.8295C101.46 46.9645 101.636 47.1574 101.773 47.4084C101.911 47.657 101.979 47.9801 101.979 48.3778V52H100.942V51.2543H100.9C100.831 51.3916 100.728 51.5265 100.591 51.6591C100.453 51.7917 100.277 51.9018 100.062 51.9893C99.8462 52.0769 99.5881 52.1207 99.2875 52.1207ZM99.5183 51.2685C99.8118 51.2685 100.063 51.2105 100.271 51.0945C100.482 50.9785 100.642 50.8269 100.751 50.6399C100.862 50.4505 100.917 50.2481 100.917 50.0327V49.3295C100.88 49.3674 100.806 49.4029 100.697 49.4361C100.591 49.4669 100.469 49.4941 100.331 49.5178C100.194 49.5391 100.06 49.5592 99.9302 49.5781C99.8 49.5947 99.6911 49.6089 99.6035 49.6207C99.3975 49.6468 99.2093 49.6906 99.0389 49.7521C98.8708 49.8137 98.7359 49.9025 98.6341 50.0185C98.5346 50.1321 98.4849 50.2836 98.4849 50.473C98.4849 50.7358 98.582 50.9347 98.7761 51.0696C98.9702 51.2022 99.2176 51.2685 99.5183 51.2685ZM105.435 52.1065C104.995 52.1065 104.602 51.9941 104.256 51.7692C103.913 51.5419 103.643 51.2187 103.447 50.7997C103.253 50.3783 103.156 49.8729 103.156 49.2834C103.156 48.6939 103.254 48.1896 103.45 47.7706C103.649 47.3516 103.921 47.0308 104.267 46.8082C104.613 46.5857 105.004 46.4744 105.442 46.4744C105.781 46.4744 106.053 46.5312 106.259 46.6449C106.468 46.7562 106.629 46.8864 106.742 47.0355C106.858 47.1847 106.948 47.3161 107.012 47.4297H107.076V44.7273H108.138V52H107.101V51.1513H107.012C106.948 51.2673 106.856 51.3999 106.735 51.549C106.617 51.6982 106.453 51.8284 106.245 51.9396C106.037 52.0509 105.767 52.1065 105.435 52.1065ZM105.67 51.201C105.975 51.201 106.233 51.1205 106.444 50.9595C106.657 50.7962 106.818 50.5701 106.927 50.2812C107.038 49.9924 107.094 49.6562 107.094 49.2727C107.094 48.8939 107.039 48.5625 106.93 48.2784C106.821 47.9943 106.662 47.773 106.451 47.6143C106.24 47.4557 105.98 47.3764 105.67 47.3764C105.35 47.3764 105.084 47.4593 104.871 47.625C104.658 47.7907 104.497 48.0168 104.388 48.3033C104.281 48.5897 104.228 48.9129 104.228 49.2727C104.228 49.6373 104.282 49.9652 104.391 50.2564C104.5 50.5476 104.661 50.7784 104.874 50.9489C105.09 51.117 105.355 51.201 105.67 51.201ZM114.686 52.0994C114.241 52.0994 113.841 52.0142 113.486 51.8438C113.133 51.6709 112.851 51.4342 112.641 51.1335C112.43 50.8329 112.317 50.4896 112.303 50.1037H113.369C113.395 50.4162 113.533 50.6731 113.784 50.8743C114.035 51.0755 114.336 51.1761 114.686 51.1761C114.965 51.1761 115.213 51.1122 115.428 50.9844C115.646 50.8542 115.817 50.6754 115.94 50.4482C116.065 50.2209 116.128 49.9616 116.128 49.6705C116.128 49.3745 116.064 49.1106 115.936 48.8786C115.808 48.6465 115.632 48.4643 115.407 48.3317C115.184 48.1991 114.929 48.1316 114.64 48.1293C114.42 48.1293 114.198 48.1671 113.976 48.2429C113.753 48.3187 113.573 48.4181 113.436 48.5412L112.431 48.392L112.839 44.7273H116.838V45.6683H113.752L113.521 47.7031H113.564C113.706 47.5658 113.894 47.451 114.129 47.3587C114.365 47.2663 114.619 47.2202 114.888 47.2202C115.331 47.2202 115.725 47.3255 116.071 47.5362C116.419 47.7469 116.692 48.0346 116.891 48.3991C117.093 48.7614 117.192 49.178 117.19 49.6491C117.192 50.1203 117.085 50.5405 116.87 50.9098C116.657 51.2791 116.361 51.5703 115.982 51.7834C115.606 51.9941 115.174 52.0994 114.686 52.0994ZM122.209 44.7273V52H121.147V44.7273H122.209ZM125.988 52.1101C125.451 52.1101 124.988 51.9953 124.6 51.7656C124.214 51.5336 123.916 51.2081 123.705 50.7891C123.497 50.3677 123.393 49.8741 123.393 49.3082C123.393 48.7495 123.497 48.2571 123.705 47.831C123.916 47.4048 124.209 47.0722 124.586 46.8331C124.965 46.594 125.407 46.4744 125.914 46.4744C126.222 46.4744 126.52 46.5253 126.809 46.6271C127.098 46.7289 127.357 46.8887 127.586 47.1065C127.816 47.3243 127.997 47.6072 128.13 47.9553C128.262 48.3009 128.329 48.7211 128.329 49.2159V49.5923H123.993V48.7969H127.288C127.288 48.5175 127.231 48.2701 127.118 48.0547C127.004 47.8369 126.844 47.6652 126.638 47.5398C126.435 47.4143 126.196 47.3516 125.921 47.3516C125.623 47.3516 125.362 47.425 125.14 47.5717C124.92 47.7161 124.749 47.9055 124.628 48.1399C124.51 48.3719 124.451 48.6241 124.451 48.8963V49.5178C124.451 49.8823 124.515 50.1925 124.643 50.4482C124.773 50.7038 124.954 50.8991 125.186 51.0341C125.418 51.1667 125.689 51.233 125.999 51.233C126.2 51.233 126.384 51.2045 126.55 51.1477C126.715 51.0885 126.858 51.0009 126.979 50.8849C127.1 50.7689 127.192 50.6257 127.256 50.4553L128.261 50.6364C128.181 50.9323 128.036 51.1915 127.828 51.4141C127.622 51.6342 127.363 51.8059 127.05 51.929C126.74 52.0497 126.386 52.1101 125.988 52.1101ZM132.053 46.5455V47.3977H129.074V46.5455H132.053ZM129.873 45.2386H130.934V50.3984C130.934 50.6044 130.965 50.7595 131.027 50.8636C131.088 50.9654 131.167 51.0353 131.265 51.0732C131.364 51.1087 131.472 51.1264 131.588 51.1264C131.673 51.1264 131.748 51.1205 131.811 51.1087C131.875 51.0968 131.925 51.0874 131.961 51.0803L132.152 51.9574C132.091 51.9811 132.003 52.0047 131.89 52.0284C131.776 52.0545 131.634 52.0687 131.463 52.071C131.184 52.0758 130.924 52.026 130.682 51.9219C130.441 51.8177 130.245 51.6567 130.096 51.4389C129.947 51.2211 129.873 50.9477 129.873 50.6186V45.2386ZM134.289 48.7614V52H133.227V46.5455H134.247V47.4332H134.314C134.44 47.1444 134.636 46.9124 134.904 46.7372C135.173 46.562 135.513 46.4744 135.923 46.4744C136.294 46.4744 136.62 46.5526 136.899 46.7088C137.179 46.8627 137.395 47.0923 137.549 47.3977C137.703 47.7031 137.78 48.0807 137.78 48.5305V52H136.718V48.6584C136.718 48.263 136.615 47.9541 136.409 47.7315C136.203 47.5066 135.92 47.3942 135.561 47.3942C135.314 47.3942 135.095 47.4474 134.904 47.554C134.714 47.6605 134.564 47.8168 134.453 48.0227C134.344 48.2263 134.289 48.4725 134.289 48.7614ZM139.204 52V46.5455H140.266V52H139.204ZM139.74 45.7038C139.556 45.7038 139.397 45.6423 139.264 45.5192C139.134 45.3937 139.069 45.2446 139.069 45.0717C139.069 44.8965 139.134 44.7474 139.264 44.6243C139.397 44.4988 139.556 44.4361 139.74 44.4361C139.925 44.4361 140.082 44.4988 140.213 44.6243C140.345 44.7474 140.411 44.8965 140.411 45.0717C140.411 45.2446 140.345 45.3937 140.213 45.5192C140.082 45.6423 139.925 45.7038 139.74 45.7038ZM141.694 52V46.5455H142.713V47.4332H142.781C142.895 47.1326 143.08 46.8982 143.338 46.7301C143.596 46.5597 143.905 46.4744 144.265 46.4744C144.63 46.4744 144.935 46.5597 145.181 46.7301C145.43 46.9006 145.614 47.1349 145.732 47.4332H145.789C145.919 47.142 146.126 46.91 146.41 46.7372C146.694 46.562 147.033 46.4744 147.426 46.4744C147.921 46.4744 148.324 46.6295 148.637 46.9396C148.952 47.2498 149.109 47.7173 149.109 48.3423V52H148.047V48.4418C148.047 48.0724 147.947 47.8049 147.745 47.6392C147.544 47.4735 147.304 47.3906 147.025 47.3906C146.679 47.3906 146.41 47.4972 146.218 47.7102C146.027 47.9209 145.931 48.192 145.931 48.5234V52H144.873V48.3743C144.873 48.0784 144.78 47.8404 144.596 47.6605C144.411 47.4806 144.171 47.3906 143.875 47.3906C143.673 47.3906 143.488 47.4439 143.317 47.5504C143.149 47.6546 143.013 47.8002 142.909 47.9872C142.807 48.1742 142.756 48.3909 142.756 48.6371V52H141.694ZM155.221 52.1065C154.78 52.1065 154.387 51.9941 154.042 51.7692C153.698 51.5419 153.428 51.2187 153.232 50.7997C153.038 50.3783 152.941 49.8729 152.941 49.2834C152.941 48.6939 153.039 48.1896 153.235 47.7706C153.434 47.3516 153.707 47.0308 154.052 46.8082C154.398 46.5857 154.79 46.4744 155.228 46.4744C155.566 46.4744 155.838 46.5312 156.044 46.6449C156.253 46.7562 156.414 46.8864 156.527 47.0355C156.643 47.1847 156.733 47.3161 156.797 47.4297H156.861V44.7273H157.923V52H156.886V51.1513H156.797C156.733 51.2673 156.641 51.3999 156.52 51.549C156.402 51.6982 156.239 51.8284 156.03 51.9396C155.822 52.0509 155.552 52.1065 155.221 52.1065ZM155.455 51.201C155.76 51.201 156.018 51.1205 156.229 50.9595C156.442 50.7962 156.603 50.5701 156.712 50.2812C156.823 49.9924 156.879 49.6562 156.879 49.2727C156.879 48.8939 156.824 48.5625 156.716 48.2784C156.607 47.9943 156.447 47.773 156.236 47.6143C156.025 47.4557 155.765 47.3764 155.455 47.3764C155.135 47.3764 154.869 47.4593 154.656 47.625C154.443 47.7907 154.282 48.0168 154.173 48.3033C154.066 48.5897 154.013 48.9129 154.013 49.2727C154.013 49.6373 154.068 49.9652 154.176 50.2564C154.285 50.5476 154.446 50.7784 154.659 50.9489C154.875 51.117 155.14 51.201 155.455 51.201ZM161.736 52.1101C161.225 52.1101 160.778 51.9929 160.397 51.7585C160.016 51.5241 159.72 51.1963 159.509 50.7749C159.299 50.3535 159.193 49.861 159.193 49.2976C159.193 48.7318 159.299 48.237 159.509 47.8132C159.72 47.3894 160.016 47.0604 160.397 46.826C160.778 46.5916 161.225 46.4744 161.736 46.4744C162.247 46.4744 162.694 46.5916 163.075 46.826C163.456 47.0604 163.752 47.3894 163.963 47.8132C164.173 48.237 164.279 48.7318 164.279 49.2976C164.279 49.861 164.173 50.3535 163.963 50.7749C163.752 51.1963 163.456 51.5241 163.075 51.7585C162.694 51.9929 162.247 52.1101 161.736 52.1101ZM161.74 51.2188C162.071 51.2188 162.346 51.1312 162.563 50.956C162.781 50.7808 162.942 50.5476 163.046 50.2564C163.153 49.9652 163.206 49.6444 163.206 49.294C163.206 48.946 163.153 48.6264 163.046 48.3352C162.942 48.0417 162.781 47.8061 162.563 47.6286C162.346 47.451 162.071 47.3622 161.74 47.3622C161.406 47.3622 161.129 47.451 160.909 47.6286C160.691 47.8061 160.529 48.0417 160.422 48.3352C160.318 48.6264 160.266 48.946 160.266 49.294C160.266 49.6444 160.318 49.9652 160.422 50.2564C160.529 50.5476 160.691 50.7808 160.909 50.956C161.129 51.1312 161.406 51.2188 161.74 51.2188ZM169.551 47.8771L168.589 48.0476C168.549 47.9245 168.485 47.8073 168.397 47.696C168.312 47.5848 168.196 47.4936 168.049 47.4226C167.902 47.3516 167.719 47.3161 167.499 47.3161C167.198 47.3161 166.947 47.3835 166.746 47.5185C166.545 47.651 166.444 47.8227 166.444 48.0334C166.444 48.2157 166.511 48.3625 166.646 48.4737C166.781 48.585 166.999 48.6761 167.3 48.7472L168.166 48.946C168.668 49.062 169.042 49.2408 169.288 49.4822C169.535 49.7237 169.658 50.0374 169.658 50.4233C169.658 50.75 169.563 51.0412 169.374 51.2969C169.187 51.5502 168.925 51.7491 168.589 51.8935C168.255 52.0379 167.868 52.1101 167.428 52.1101C166.817 52.1101 166.318 51.9799 165.933 51.7195C165.547 51.4567 165.31 51.0838 165.222 50.6009L166.249 50.4446C166.313 50.7121 166.444 50.9145 166.643 51.0518C166.842 51.1868 167.101 51.2543 167.42 51.2543C167.768 51.2543 168.047 51.1821 168.255 51.0376C168.463 50.8909 168.567 50.7121 168.567 50.5014C168.567 50.331 168.504 50.1877 168.376 50.0717C168.25 49.9557 168.057 49.8681 167.797 49.8089L166.874 49.6065C166.365 49.4905 165.988 49.3059 165.744 49.0526C165.503 48.7992 165.382 48.4785 165.382 48.0902C165.382 47.7682 165.472 47.4865 165.652 47.245C165.832 47.0036 166.08 46.8153 166.398 46.6804C166.715 46.5431 167.078 46.4744 167.488 46.4744C168.077 46.4744 168.541 46.6023 168.88 46.858C169.219 47.1113 169.442 47.451 169.551 47.8771ZM167.062 45.8175L167.893 44.1804H169.011L167.911 45.8175H167.062ZM172.008 52L170.403 46.5455H171.5L172.569 50.5511H172.622L173.694 46.5455H174.792L175.857 50.5334H175.91L176.972 46.5455H178.069L176.468 52H175.385L174.277 48.0618H174.195L173.087 52H172.008ZM179.077 52V46.5455H180.139V52H179.077ZM179.613 45.7038C179.429 45.7038 179.27 45.6423 179.137 45.5192C179.007 45.3937 178.942 45.2446 178.942 45.0717C178.942 44.8965 179.007 44.7474 179.137 44.6243C179.27 44.4988 179.429 44.4361 179.613 44.4361C179.798 44.4361 179.955 44.4988 180.086 44.6243C180.218 44.7474 180.284 44.8965 180.284 45.0717C180.284 45.2446 180.218 45.3937 180.086 45.5192C179.955 45.6423 179.798 45.7038 179.613 45.7038ZM183.155 52.1207C182.809 52.1207 182.497 52.0568 182.217 51.929C181.938 51.7988 181.716 51.6106 181.553 51.3643C181.392 51.1181 181.312 50.8163 181.312 50.4588C181.312 50.151 181.371 49.8977 181.489 49.6989C181.608 49.5 181.767 49.3426 181.969 49.2266C182.17 49.1106 182.395 49.023 182.643 48.9638C182.892 48.9046 183.145 48.8596 183.403 48.8288C183.73 48.791 183.995 48.7602 184.199 48.7365C184.402 48.7105 184.55 48.669 184.643 48.6122C184.735 48.5554 184.781 48.4631 184.781 48.3352V48.3104C184.781 48.0002 184.693 47.7599 184.518 47.5895C184.345 47.419 184.087 47.3338 183.744 47.3338C183.387 47.3338 183.105 47.4131 182.899 47.5717C182.695 47.728 182.555 47.902 182.476 48.0938L181.479 47.8665C181.597 47.535 181.77 47.2675 181.997 47.0639C182.227 46.858 182.491 46.7088 182.789 46.6165C183.087 46.5218 183.401 46.4744 183.73 46.4744C183.948 46.4744 184.179 46.5005 184.422 46.5526C184.669 46.6023 184.898 46.6946 185.111 46.8295C185.327 46.9645 185.503 47.1574 185.64 47.4084C185.778 47.657 185.846 47.9801 185.846 48.3778V52H184.809V51.2543H184.767C184.698 51.3916 184.595 51.5265 184.458 51.6591C184.321 51.7917 184.144 51.9018 183.929 51.9893C183.713 52.0769 183.455 52.1207 183.155 52.1207ZM183.385 51.2685C183.679 51.2685 183.93 51.2105 184.138 51.0945C184.349 50.9785 184.509 50.8269 184.618 50.6399C184.729 50.4505 184.785 50.2481 184.785 50.0327V49.3295C184.747 49.3674 184.673 49.4029 184.564 49.4361C184.458 49.4669 184.336 49.4941 184.199 49.5178C184.061 49.5391 183.928 49.5592 183.797 49.5781C183.667 49.5947 183.558 49.6089 183.471 49.6207C183.265 49.6468 183.077 49.6906 182.906 49.7521C182.738 49.8137 182.603 49.9025 182.501 50.0185C182.402 50.1321 182.352 50.2836 182.352 50.473C182.352 50.7358 182.449 50.9347 182.643 51.0696C182.837 51.2022 183.085 51.2685 183.385 51.2685ZM189.303 52.1065C188.862 52.1065 188.469 51.9941 188.124 51.7692C187.78 51.5419 187.51 51.2187 187.314 50.7997C187.12 50.3783 187.023 49.8729 187.023 49.2834C187.023 48.6939 187.121 48.1896 187.317 47.7706C187.516 47.3516 187.789 47.0308 188.134 46.8082C188.48 46.5857 188.872 46.4744 189.31 46.4744C189.648 46.4744 189.92 46.5312 190.126 46.6449C190.335 46.7562 190.496 46.8864 190.609 47.0355C190.725 47.1847 190.815 47.3161 190.879 47.4297H190.943V44.7273H192.005V52H190.968V51.1513H190.879C190.815 51.2673 190.723 51.3999 190.602 51.549C190.484 51.6982 190.321 51.8284 190.112 51.9396C189.904 52.0509 189.634 52.1065 189.303 52.1065ZM189.537 51.201C189.842 51.201 190.1 51.1205 190.311 50.9595C190.524 50.7962 190.685 50.5701 190.794 50.2812C190.905 49.9924 190.961 49.6562 190.961 49.2727C190.961 48.8939 190.906 48.5625 190.798 48.2784C190.689 47.9943 190.529 47.773 190.318 47.6143C190.107 47.4557 189.847 47.3764 189.537 47.3764C189.217 47.3764 188.951 47.4593 188.738 47.625C188.525 47.7907 188.364 48.0168 188.255 48.3033C188.148 48.5897 188.095 48.9129 188.095 49.2727C188.095 49.6373 188.15 49.9652 188.259 50.2564C188.367 50.5476 188.528 50.7784 188.741 50.9489C188.957 51.117 189.222 51.201 189.537 51.201ZM195.818 52.1101C195.29 52.1101 194.836 51.9905 194.454 51.7514C194.076 51.5099 193.784 51.1773 193.581 50.7536C193.377 50.3298 193.275 49.8445 193.275 49.2976C193.275 48.7436 193.38 48.2547 193.588 47.831C193.796 47.4048 194.09 47.0722 194.469 46.8331C194.847 46.594 195.294 46.4744 195.807 46.4744C196.222 46.4744 196.591 46.5514 196.915 46.7053C197.24 46.8568 197.501 47.0698 197.7 47.3445C197.901 47.6191 198.021 47.9399 198.059 48.3068H197.025C196.969 48.0511 196.838 47.831 196.635 47.6463C196.434 47.4616 196.164 47.3693 195.825 47.3693C195.529 47.3693 195.27 47.4474 195.047 47.6037C194.827 47.7576 194.656 47.9777 194.532 48.2642C194.409 48.5483 194.348 48.8845 194.348 49.2727C194.348 49.6705 194.408 50.0137 194.529 50.3026C194.65 50.5914 194.82 50.8151 195.04 50.9737C195.263 51.1323 195.524 51.2116 195.825 51.2116C196.026 51.2116 196.209 51.175 196.372 51.1016C196.538 51.0258 196.676 50.9181 196.787 50.7784C196.901 50.6387 196.98 50.4706 197.025 50.2741H198.059C198.021 50.6269 197.906 50.9418 197.714 51.2188C197.523 51.4957 197.266 51.7135 196.944 51.8722C196.624 52.0308 196.249 52.1101 195.818 52.1101ZM199.081 52V51.272L202.035 47.5185V47.4688H199.176V46.5455H203.36V47.3196L200.519 51.027V51.0767H203.459V52H199.081ZM206.906 52.1101C206.369 52.1101 205.906 51.9953 205.518 51.7656C205.132 51.5336 204.834 51.2081 204.623 50.7891C204.415 50.3677 204.311 49.8741 204.311 49.3082C204.311 48.7495 204.415 48.2571 204.623 47.831C204.834 47.4048 205.127 47.0722 205.504 46.8331C205.883 46.594 206.325 46.4744 206.832 46.4744C207.14 46.4744 207.438 46.5253 207.727 46.6271C208.016 46.7289 208.275 46.8887 208.504 47.1065C208.734 47.3243 208.915 47.6072 209.048 47.9553C209.18 48.3009 209.247 48.7211 209.247 49.2159V49.5923H204.911V48.7969H208.206C208.206 48.5175 208.149 48.2701 208.036 48.0547C207.922 47.8369 207.762 47.6652 207.556 47.5398C207.353 47.4143 207.114 47.3516 206.839 47.3516C206.541 47.3516 206.28 47.425 206.058 47.5717C205.838 47.7161 205.667 47.9055 205.546 48.1399C205.428 48.3719 205.369 48.6241 205.369 48.8963V49.5178C205.369 49.8823 205.433 50.1925 205.561 50.4482C205.691 50.7038 205.872 50.8991 206.104 51.0341C206.336 51.1667 206.607 51.233 206.917 51.233C207.118 51.233 207.302 51.2045 207.468 51.1477C207.633 51.0885 207.776 51.0009 207.897 50.8849C208.018 50.7689 208.11 50.6257 208.174 50.4553L209.179 50.6364C209.099 50.9323 208.954 51.1915 208.746 51.4141C208.54 51.6342 208.281 51.8059 207.968 51.929C207.658 52.0497 207.304 52.1101 206.906 52.1101ZM211.487 48.7614V52H210.425V46.5455H211.444V47.4332H211.511C211.637 47.1444 211.833 46.9124 212.101 46.7372C212.371 46.562 212.71 46.4744 213.12 46.4744C213.492 46.4744 213.817 46.5526 214.097 46.7088C214.376 46.8627 214.593 47.0923 214.746 47.3977C214.9 47.7031 214.977 48.0807 214.977 48.5305V52H213.915V48.6584C213.915 48.263 213.813 47.9541 213.607 47.7315C213.401 47.5066 213.118 47.3942 212.758 47.3942C212.512 47.3942 212.293 47.4474 212.101 47.554C211.911 47.6605 211.761 47.8168 211.65 48.0227C211.541 48.2263 211.487 48.4725 211.487 48.7614ZM216.401 52V46.5455H217.463V52H216.401ZM216.938 45.7038C216.753 45.7038 216.594 45.6423 216.462 45.5192C216.331 45.3937 216.266 45.2446 216.266 45.0717C216.266 44.8965 216.331 44.7474 216.462 44.6243C216.594 44.4988 216.753 44.4361 216.938 44.4361C217.122 44.4361 217.28 44.4988 217.41 44.6243C217.542 44.7474 217.609 44.8965 217.609 45.0717C217.609 45.2446 217.542 45.3937 217.41 45.5192C217.28 45.6423 217.122 45.7038 216.938 45.7038ZM221.242 52.1101C220.705 52.1101 220.242 51.9953 219.854 51.7656C219.468 51.5336 219.17 51.2081 218.959 50.7891C218.751 50.3677 218.646 49.8741 218.646 49.3082C218.646 48.7495 218.751 48.2571 218.959 47.831C219.17 47.4048 219.463 47.0722 219.84 46.8331C220.218 46.594 220.661 46.4744 221.168 46.4744C221.476 46.4744 221.774 46.5253 222.063 46.6271C222.352 46.7289 222.611 46.8887 222.84 47.1065C223.07 47.3243 223.251 47.6072 223.384 47.9553C223.516 48.3009 223.583 48.7211 223.583 49.2159V49.5923H219.247V48.7969H222.542C222.542 48.5175 222.485 48.2701 222.372 48.0547C222.258 47.8369 222.098 47.6652 221.892 47.5398C221.689 47.4143 221.45 47.3516 221.175 47.3516C220.877 47.3516 220.616 47.425 220.394 47.5717C220.173 47.7161 220.003 47.9055 219.882 48.1399C219.764 48.3719 219.705 48.6241 219.705 48.8963V49.5178C219.705 49.8823 219.769 50.1925 219.896 50.4482C220.027 50.7038 220.208 50.8991 220.44 51.0341C220.672 51.1667 220.943 51.233 221.253 51.233C221.454 51.233 221.638 51.2045 221.803 51.1477C221.969 51.0885 222.112 51.0009 222.233 50.8849C222.354 50.7689 222.446 50.6257 222.51 50.4553L223.515 50.6364C223.435 50.9323 223.29 51.1915 223.082 51.4141C222.876 51.6342 222.617 51.8059 222.304 51.929C221.994 52.0497 221.64 52.1101 221.242 52.1101ZM224.761 52V46.5455H225.78V47.4332H225.847C225.961 47.1326 226.147 46.8982 226.405 46.7301C226.663 46.5597 226.972 46.4744 227.332 46.4744C227.696 46.4744 228.002 46.5597 228.248 46.7301C228.496 46.9006 228.68 47.1349 228.798 47.4332H228.855C228.985 47.142 229.192 46.91 229.477 46.7372C229.761 46.562 230.099 46.4744 230.492 46.4744C230.987 46.4744 231.391 46.6295 231.703 46.9396C232.018 47.2498 232.175 47.7173 232.175 48.3423V52H231.114V48.4418C231.114 48.0724 231.013 47.8049 230.812 47.6392C230.611 47.4735 230.37 47.3906 230.091 47.3906C229.745 47.3906 229.477 47.4972 229.285 47.7102C229.093 47.9209 228.997 48.192 228.997 48.5234V52H227.939V48.3743C227.939 48.0784 227.847 47.8404 227.662 47.6605C227.477 47.4806 227.237 47.3906 226.941 47.3906C226.74 47.3906 226.554 47.4439 226.384 47.5504C226.215 47.6546 226.079 47.8002 225.975 47.9872C225.873 48.1742 225.822 48.3909 225.822 48.6371V52H224.761ZM37.8963 64L36.2912 58.5455H37.3885L38.4574 62.5511H38.5107L39.5831 58.5455H40.6804L41.7457 62.5334H41.799L42.8608 58.5455H43.9581L42.3565 64H41.2734L40.1655 60.0618H40.0838L38.9759 64H37.8963ZM47.6974 64V56.7273H48.7592V59.4297H48.8232C48.8847 59.3161 48.9735 59.1847 49.0895 59.0355C49.2055 58.8864 49.3665 58.7562 49.5724 58.6449C49.7784 58.5312 50.0507 58.4744 50.3892 58.4744C50.8295 58.4744 51.2225 58.5857 51.5682 58.8082C51.9138 59.0308 52.1849 59.3516 52.3814 59.7706C52.5803 60.1896 52.6797 60.6939 52.6797 61.2834C52.6797 61.8729 52.5814 62.3783 52.3849 62.7997C52.1884 63.2187 51.9186 63.5419 51.5753 63.7692C51.232 63.9941 50.8402 64.1065 50.3999 64.1065C50.0684 64.1065 49.7973 64.0509 49.5866 63.9396C49.3783 63.8284 49.215 63.6982 49.0966 63.549C48.9782 63.3999 48.8871 63.2673 48.8232 63.1513H48.7344V64H47.6974ZM48.7379 61.2727C48.7379 61.6562 48.7936 61.9924 48.9048 62.2812C49.0161 62.5701 49.1771 62.7962 49.3878 62.9595C49.5985 63.1205 49.8565 63.201 50.1619 63.201C50.4792 63.201 50.7443 63.117 50.9574 62.9489C51.1705 62.7784 51.3314 62.5476 51.4403 62.2564C51.5516 61.9652 51.6072 61.6373 51.6072 61.2727C51.6072 60.9129 51.5528 60.5897 51.4439 60.3033C51.3374 60.0168 51.1764 59.7907 50.9609 59.625C50.7479 59.4593 50.4815 59.3764 50.1619 59.3764C49.8542 59.3764 49.5938 59.4557 49.3807 59.6143C49.17 59.773 49.0102 59.9943 48.9013 60.2784C48.7924 60.5625 48.7379 60.8939 48.7379 61.2727ZM53.872 64V58.5455H54.8983V59.4119H54.9551C55.0545 59.1184 55.2297 58.8875 55.4806 58.7195C55.734 58.549 56.0204 58.4638 56.34 58.4638C56.4063 58.4638 56.4844 58.4661 56.5744 58.4709C56.6667 58.4756 56.7389 58.4815 56.791 58.4886V59.5043C56.7484 59.4924 56.6726 59.4794 56.5637 59.4652C56.4548 59.4486 56.3459 59.4403 56.237 59.4403C55.9861 59.4403 55.7624 59.4936 55.5659 59.6001C55.3717 59.7043 55.2179 59.8499 55.1042 60.0369C54.9906 60.2216 54.9338 60.4323 54.9338 60.669V64H53.872ZM59.2484 64.1207C58.9028 64.1207 58.5903 64.0568 58.3109 63.929C58.0315 63.7988 57.8102 63.6106 57.6468 63.3643C57.4859 63.1181 57.4054 62.8163 57.4054 62.4588C57.4054 62.151 57.4645 61.8977 57.5829 61.6989C57.7013 61.5 57.8611 61.3426 58.0623 61.2266C58.2636 61.1106 58.4885 61.023 58.737 60.9638C58.9856 60.9046 59.2389 60.8596 59.497 60.8288C59.8237 60.791 60.0888 60.7602 60.2924 60.7365C60.496 60.7105 60.644 60.669 60.7363 60.6122C60.8287 60.5554 60.8748 60.4631 60.8748 60.3352V60.3104C60.8748 60.0002 60.7872 59.7599 60.612 59.5895C60.4392 59.419 60.1812 59.3338 59.8379 59.3338C59.4804 59.3338 59.1987 59.4131 58.9927 59.5717C58.7891 59.728 58.6483 59.902 58.5701 60.0938L57.5723 59.8665C57.6906 59.535 57.8635 59.2675 58.0907 59.0639C58.3204 58.858 58.5843 58.7088 58.8826 58.6165C59.1809 58.5218 59.4946 58.4744 59.8237 58.4744C60.0415 58.4744 60.2723 58.5005 60.5162 58.5526C60.7624 58.6023 60.992 58.6946 61.2051 58.8295C61.4205 58.9645 61.5969 59.1574 61.7342 59.4084C61.8715 59.657 61.9402 59.9801 61.9402 60.3778V64H60.9032V63.2543H60.8606C60.792 63.3916 60.689 63.5265 60.5517 63.6591C60.4144 63.7917 60.238 63.9018 60.0225 63.9893C59.8071 64.0769 59.5491 64.1207 59.2484 64.1207ZM59.4792 63.2685C59.7728 63.2685 60.0237 63.2105 60.2321 63.0945C60.4428 62.9785 60.6026 62.8269 60.7115 62.6399C60.8227 62.4505 60.8784 62.2481 60.8784 62.0327V61.3295C60.8405 61.3674 60.7671 61.4029 60.6582 61.4361C60.5517 61.4669 60.4297 61.4941 60.2924 61.5178C60.1551 61.5391 60.0214 61.5592 59.8912 61.5781C59.7609 61.5947 59.652 61.6089 59.5645 61.6207C59.3585 61.6468 59.1703 61.6906 58.9998 61.7521C58.8317 61.8137 58.6968 61.9025 58.595 62.0185C58.4956 62.1321 58.4458 62.2836 58.4458 62.473C58.4458 62.7358 58.5429 62.9347 58.737 63.0696C58.9312 63.2022 59.1786 63.2685 59.4792 63.2685ZM64.4162 60.7614V64H63.3544V58.5455H64.3736V59.4332H64.4411C64.5665 59.1444 64.763 58.9124 65.0305 58.7372C65.3004 58.562 65.6402 58.4744 66.0497 58.4744C66.4214 58.4744 66.7469 58.5526 67.0263 58.7088C67.3056 58.8627 67.5223 59.0923 67.6761 59.3977C67.83 59.7031 67.907 60.0807 67.907 60.5305V64H66.8452V60.6584C66.8452 60.263 66.7422 59.9541 66.5362 59.7315C66.3303 59.5066 66.0473 59.3942 65.6875 59.3942C65.4413 59.3942 65.2223 59.4474 65.0305 59.554C64.8411 59.6605 64.6908 59.8168 64.5795 60.0227C64.4706 60.2263 64.4162 60.4725 64.4162 60.7614ZM69.2173 64V63.272L72.1719 59.5185V59.4688H69.3132V58.5455H73.4964V59.3196L70.6555 63.027V63.0767H73.5959V64H69.2173ZM71.3693 57.7038C71.1847 57.7038 71.026 57.6423 70.8935 57.5192C70.7633 57.3937 70.6982 57.2446 70.6982 57.0717C70.6982 56.8965 70.7633 56.7474 70.8935 56.6243C71.026 56.4988 71.1847 56.4361 71.3693 56.4361C71.554 56.4361 71.7114 56.4988 71.8416 56.6243C71.9742 56.7474 72.0405 56.8965 72.0405 57.0717C72.0405 57.2446 71.9742 57.3937 71.8416 57.5192C71.7114 57.6423 71.554 57.7038 71.3693 57.7038ZM75.5197 66.0455C75.3611 66.0455 75.2167 66.0324 75.0865 66.0064C74.9563 65.9827 74.8592 65.9567 74.7953 65.9283L75.051 65.0582C75.2451 65.1103 75.4179 65.1328 75.5694 65.1257C75.7209 65.1186 75.8547 65.0618 75.9707 64.9553C76.0891 64.8487 76.1932 64.6747 76.2832 64.4332L76.4146 64.071L74.4189 58.5455H75.5552L76.9366 62.7784H76.9934L78.3748 58.5455H79.5147L77.2669 64.728C77.1627 65.0121 77.0301 65.2524 76.8691 65.4489C76.7082 65.6477 76.5164 65.7969 76.2939 65.8963C76.0713 65.9957 75.8133 66.0455 75.5197 66.0455ZM84.2209 60.7614V64H83.1591V58.5455H84.1783V59.4332H84.2457C84.3712 59.1444 84.5677 58.9124 84.8352 58.7372C85.1051 58.562 85.4448 58.4744 85.8544 58.4744C86.2261 58.4744 86.5516 58.5526 86.831 58.7088C87.1103 58.8627 87.3269 59.0923 87.4808 59.3977C87.6347 59.7031 87.7116 60.0807 87.7116 60.5305V64H86.6499V60.6584C86.6499 60.263 86.5469 59.9541 86.3409 59.7315C86.1349 59.5066 85.852 59.3942 85.4922 59.3942C85.246 59.3942 85.027 59.4474 84.8352 59.554C84.6458 59.6605 84.4955 59.8168 84.3842 60.0227C84.2753 60.2263 84.2209 60.4725 84.2209 60.7614ZM89.1357 64V58.5455H90.1974V64H89.1357ZM89.6719 57.7038C89.4872 57.7038 89.3286 57.6423 89.196 57.5192C89.0658 57.3937 89.0007 57.2446 89.0007 57.0717C89.0007 56.8965 89.0658 56.7474 89.196 56.6243C89.3286 56.4988 89.4872 56.4361 89.6719 56.4361C89.8565 56.4361 90.014 56.4988 90.1442 56.6243C90.2768 56.7474 90.343 56.8965 90.343 57.0717C90.343 57.2446 90.2768 57.3937 90.1442 57.5192C90.014 57.6423 89.8565 57.7038 89.6719 57.7038ZM93.9767 64.1101C93.4393 64.1101 92.9765 63.9953 92.5882 63.7656C92.2024 63.5336 91.9041 63.2081 91.6934 62.7891C91.485 62.3677 91.3809 61.8741 91.3809 61.3082C91.3809 60.7495 91.485 60.2571 91.6934 59.831C91.9041 59.4048 92.1976 59.0722 92.574 58.8331C92.9528 58.594 93.3955 58.4744 93.9022 58.4744C94.2099 58.4744 94.5082 58.5253 94.7971 58.6271C95.0859 58.7289 95.3451 58.8887 95.5748 59.1065C95.8044 59.3243 95.9855 59.6072 96.1181 59.9553C96.2507 60.3009 96.3169 60.7211 96.3169 61.2159V61.5923H91.981V60.7969H95.2765C95.2765 60.5175 95.2196 60.2701 95.106 60.0547C94.9924 59.8369 94.8326 59.6652 94.6266 59.5398C94.423 59.4143 94.1839 59.3516 93.9093 59.3516C93.611 59.3516 93.3506 59.425 93.128 59.5717C92.9078 59.7161 92.7374 59.9055 92.6167 60.1399C92.4983 60.3719 92.4391 60.6241 92.4391 60.8963V61.5178C92.4391 61.8823 92.503 62.1925 92.6309 62.4482C92.7611 62.7038 92.9422 62.8991 93.1742 63.0341C93.4062 63.1667 93.6773 63.233 93.9874 63.233C94.1886 63.233 94.3721 63.2045 94.5378 63.1477C94.7035 63.0885 94.8468 63.0009 94.9675 62.8849C95.0882 62.7689 95.1806 62.6257 95.2445 62.4553L96.2495 62.6364C96.169 62.9323 96.0246 63.1915 95.8162 63.4141C95.6103 63.6342 95.351 63.8059 95.0385 63.929C94.7284 64.0497 94.3745 64.1101 93.9767 64.1101ZM97.495 64V58.5455H98.5213V59.4119H98.5781C98.6776 59.1184 98.8527 58.8875 99.1037 58.7195C99.357 58.549 99.6435 58.4638 99.9631 58.4638C100.029 58.4638 100.107 58.4661 100.197 58.4709C100.29 58.4756 100.362 58.4815 100.414 58.4886V59.5043C100.371 59.4924 100.296 59.4794 100.187 59.4652C100.078 59.4486 99.969 59.4403 99.8601 59.4403C99.6091 59.4403 99.3854 59.4936 99.1889 59.6001C98.9948 59.7043 98.8409 59.8499 98.7273 60.0369C98.6136 60.2216 98.5568 60.4323 98.5568 60.669V64H97.495ZM104.788 61.7379V58.5455H105.854V64H104.809V63.0554H104.753C104.627 63.3466 104.426 63.5893 104.149 63.7834C103.874 63.9751 103.532 64.071 103.123 64.071C102.772 64.071 102.462 63.9941 102.192 63.8402C101.925 63.6839 101.714 63.4531 101.56 63.1477C101.409 62.8423 101.333 62.4647 101.333 62.0149V58.5455H102.395V61.8871C102.395 62.2588 102.498 62.5547 102.704 62.7749C102.91 62.995 103.177 63.1051 103.506 63.1051C103.705 63.1051 103.903 63.0554 104.099 62.956C104.298 62.8565 104.463 62.7062 104.593 62.505C104.725 62.3037 104.791 62.0481 104.788 61.7379ZM109.578 64.1101C109.05 64.1101 108.595 63.9905 108.214 63.7514C107.835 63.5099 107.544 63.1773 107.341 62.7536C107.137 62.3298 107.035 61.8445 107.035 61.2976C107.035 60.7436 107.139 60.2547 107.348 59.831C107.556 59.4048 107.85 59.0722 108.228 58.8331C108.607 58.594 109.053 58.4744 109.567 58.4744C109.981 58.4744 110.351 58.5514 110.675 58.7053C110.999 58.8568 111.261 59.0698 111.46 59.3445C111.661 59.6191 111.781 59.9399 111.819 60.3068H110.785C110.728 60.0511 110.598 59.831 110.395 59.6463C110.193 59.4616 109.923 59.3693 109.585 59.3693C109.289 59.3693 109.03 59.4474 108.807 59.6037C108.587 59.7576 108.415 59.9777 108.292 60.2642C108.169 60.5483 108.108 60.8845 108.108 61.2727C108.108 61.6705 108.168 62.0137 108.289 62.3026C108.409 62.5914 108.58 62.8151 108.8 62.9737C109.023 63.1323 109.284 63.2116 109.585 63.2116C109.786 63.2116 109.968 63.175 110.132 63.1016C110.297 63.0258 110.436 62.9181 110.547 62.7784C110.661 62.6387 110.74 62.4706 110.785 62.2741H111.819C111.781 62.6269 111.666 62.9418 111.474 63.2188C111.282 63.4957 111.025 63.7135 110.703 63.8722C110.384 64.0308 110.009 64.1101 109.578 64.1101ZM114.016 60.7614V64H112.954V56.7273H114.002V59.4332H114.069C114.197 59.1397 114.392 58.9065 114.655 58.7337C114.918 58.5608 115.261 58.4744 115.685 58.4744C116.059 58.4744 116.386 58.5514 116.665 58.7053C116.947 58.8591 117.164 59.0888 117.318 59.3942C117.475 59.6972 117.553 60.076 117.553 60.5305V64H116.491V60.6584C116.491 60.2583 116.388 59.9482 116.182 59.728C115.976 59.5054 115.69 59.3942 115.323 59.3942C115.072 59.3942 114.847 59.4474 114.648 59.554C114.451 59.6605 114.296 59.8168 114.183 60.0227C114.071 60.2263 114.016 60.4725 114.016 60.7614ZM121.267 64.1101C120.756 64.1101 120.31 63.9929 119.928 63.7585C119.547 63.5241 119.251 63.1963 119.041 62.7749C118.83 62.3535 118.725 61.861 118.725 61.2976C118.725 60.7318 118.83 60.237 119.041 59.8132C119.251 59.3894 119.547 59.0604 119.928 58.826C120.31 58.5916 120.756 58.4744 121.267 58.4744C121.779 58.4744 122.225 58.5916 122.606 58.826C122.987 59.0604 123.283 59.3894 123.494 59.8132C123.704 60.237 123.81 60.7318 123.81 61.2976C123.81 61.861 123.704 62.3535 123.494 62.7749C123.283 63.1963 122.987 63.5241 122.606 63.7585C122.225 63.9929 121.779 64.1101 121.267 64.1101ZM121.271 63.2188C121.602 63.2188 121.877 63.1312 122.095 62.956C122.312 62.7808 122.473 62.5476 122.578 62.2564C122.684 61.9652 122.737 61.6444 122.737 61.294C122.737 60.946 122.684 60.6264 122.578 60.3352C122.473 60.0417 122.312 59.8061 122.095 59.6286C121.877 59.451 121.602 59.3622 121.271 59.3622C120.937 59.3622 120.66 59.451 120.44 59.6286C120.222 59.8061 120.06 60.0417 119.953 60.3352C119.849 60.6264 119.797 60.946 119.797 61.294C119.797 61.6444 119.849 61.9652 119.953 62.2564C120.06 62.5476 120.222 62.7808 120.44 62.956C120.66 63.1312 120.937 63.2188 121.271 63.2188ZM124.995 64V58.5455H126.014V59.4332H126.082C126.195 59.1326 126.381 58.8982 126.639 58.7301C126.897 58.5597 127.206 58.4744 127.566 58.4744C127.931 58.4744 128.236 58.5597 128.482 58.7301C128.731 58.9006 128.914 59.1349 129.033 59.4332H129.089C129.22 59.142 129.427 58.91 129.711 58.7372C129.995 58.562 130.334 58.4744 130.727 58.4744C131.221 58.4744 131.625 58.6295 131.938 58.9396C132.252 59.2498 132.41 59.7173 132.41 60.3423V64H131.348V60.4418C131.348 60.0724 131.247 59.8049 131.046 59.6392C130.845 59.4735 130.605 59.3906 130.325 59.3906C129.98 59.3906 129.711 59.4972 129.519 59.7102C129.327 59.9209 129.232 60.192 129.232 60.5234V64H128.173V60.3743C128.173 60.0784 128.081 59.8404 127.896 59.6605C127.712 59.4806 127.471 59.3906 127.175 59.3906C126.974 59.3906 126.788 59.4439 126.618 59.5504C126.45 59.6546 126.314 59.8002 126.21 59.9872C126.108 60.1742 126.057 60.3909 126.057 60.6371V64H124.995ZM136.131 64.1101C135.619 64.1101 135.173 63.9929 134.792 63.7585C134.411 63.5241 134.115 63.1963 133.904 62.7749C133.693 62.3535 133.588 61.861 133.588 61.2976C133.588 60.7318 133.693 60.237 133.904 59.8132C134.115 59.3894 134.411 59.0604 134.792 58.826C135.173 58.5916 135.619 58.4744 136.131 58.4744C136.642 58.4744 137.088 58.5916 137.469 58.826C137.85 59.0604 138.146 59.3894 138.357 59.8132C138.568 60.237 138.673 60.7318 138.673 61.2976C138.673 61.861 138.568 62.3535 138.357 62.7749C138.146 63.1963 137.85 63.5241 137.469 63.7585C137.088 63.9929 136.642 64.1101 136.131 64.1101ZM136.134 63.2188C136.465 63.2188 136.74 63.1312 136.958 62.956C137.176 62.7808 137.337 62.5476 137.441 62.2564C137.547 61.9652 137.601 61.6444 137.601 61.294C137.601 60.946 137.547 60.6264 137.441 60.3352C137.337 60.0417 137.176 59.8061 136.958 59.6286C136.74 59.451 136.465 59.3622 136.134 59.3622C135.8 59.3622 135.523 59.451 135.303 59.6286C135.085 59.8061 134.923 60.0417 134.817 60.3352C134.712 60.6264 134.66 60.946 134.66 61.294C134.66 61.6444 134.712 61.9652 134.817 62.2564C134.923 62.5476 135.085 62.7808 135.303 62.956C135.523 63.1312 135.8 63.2188 136.134 63.2188ZM143.946 59.8771L142.983 60.0476C142.943 59.9245 142.879 59.8073 142.792 59.696C142.706 59.5848 142.59 59.4936 142.444 59.4226C142.297 59.3516 142.113 59.3161 141.893 59.3161C141.592 59.3161 141.342 59.3835 141.14 59.5185C140.939 59.651 140.838 59.8227 140.838 60.0334C140.838 60.2157 140.906 60.3625 141.041 60.4737C141.176 60.585 141.394 60.6761 141.694 60.7472L142.561 60.946C143.063 61.062 143.437 61.2408 143.683 61.4822C143.929 61.7237 144.052 62.0374 144.052 62.4233C144.052 62.75 143.958 63.0412 143.768 63.2969C143.581 63.5502 143.319 63.7491 142.983 63.8935C142.65 64.0379 142.262 64.1101 141.822 64.1101C141.211 64.1101 140.713 63.9799 140.327 63.7195C139.941 63.4567 139.704 63.0838 139.617 62.6009L140.643 62.4446C140.707 62.7121 140.838 62.9145 141.037 63.0518C141.236 63.1868 141.495 63.2543 141.815 63.2543C142.163 63.2543 142.441 63.1821 142.65 63.0376C142.858 62.8909 142.962 62.7121 142.962 62.5014C142.962 62.331 142.898 62.1877 142.77 62.0717C142.645 61.9557 142.452 61.8681 142.191 61.8089L141.268 61.6065C140.759 61.4905 140.383 61.3059 140.139 61.0526C139.897 60.7992 139.777 60.4785 139.777 60.0902C139.777 59.7682 139.867 59.4865 140.047 59.245C140.226 59.0036 140.475 58.8153 140.792 58.6804C141.109 58.5431 141.473 58.4744 141.882 58.4744C142.472 58.4744 142.936 58.6023 143.275 58.858C143.613 59.1113 143.837 59.451 143.946 59.8771ZM141.456 57.8175L142.287 56.1804H143.406L142.305 57.8175H141.456ZM147.517 64.1101C146.989 64.1101 146.535 63.9905 146.154 63.7514C145.775 63.5099 145.484 63.1773 145.28 62.7536C145.076 62.3298 144.975 61.8445 144.975 61.2976C144.975 60.7436 145.079 60.2547 145.287 59.831C145.495 59.4048 145.789 59.0722 146.168 58.8331C146.547 58.594 146.993 58.4744 147.507 58.4744C147.921 58.4744 148.29 58.5514 148.615 58.7053C148.939 58.8568 149.2 59.0698 149.399 59.3445C149.601 59.6191 149.72 59.9399 149.758 60.3068H148.725C148.668 60.0511 148.538 59.831 148.334 59.6463C148.133 59.4616 147.863 59.3693 147.524 59.3693C147.228 59.3693 146.969 59.4474 146.747 59.6037C146.526 59.7576 146.355 59.9777 146.232 60.2642C146.109 60.5483 146.047 60.8845 146.047 61.2727C146.047 61.6705 146.107 62.0137 146.228 62.3026C146.349 62.5914 146.519 62.8151 146.74 62.9737C146.962 63.1323 147.224 63.2116 147.524 63.2116C147.726 63.2116 147.908 63.175 148.071 63.1016C148.237 63.0258 148.375 62.9181 148.487 62.7784C148.6 62.6387 148.68 62.4706 148.725 62.2741H149.758C149.72 62.6269 149.605 62.9418 149.414 63.2188C149.222 63.4957 148.965 63.7135 148.643 63.8722C148.323 64.0308 147.948 64.1101 147.517 64.1101ZM150.893 64V58.5455H151.955V64H150.893ZM151.43 57.7038C151.245 57.7038 151.086 57.6423 150.954 57.5192C150.824 57.3937 150.759 57.2446 150.759 57.0717C150.759 56.8965 150.824 56.7474 150.954 56.6243C151.086 56.4988 151.245 56.4361 151.43 56.4361C151.614 56.4361 151.772 56.4988 151.902 56.6243C152.035 56.7474 152.101 56.8965 152.101 57.0717C152.101 57.2446 152.035 57.3937 151.902 57.5192C151.772 57.6423 151.614 57.7038 151.43 57.7038Z" fill="#D0D0D0"/>
<mask id="path-5-inside-2_6306_10241" fill="white">
<path d="M245 39C245 27.9543 253.954 19 265 19C276.046 19 285 27.9543 285 39C285 50.0457 276.046 59 265 59C253.954 59 245 50.0457 245 39Z"/>
</mask>
<path d="M245 39C245 27.9543 253.954 19 265 19C276.046 19 285 27.9543 285 39C285 50.0457 276.046 59 265 59C253.954 59 245 50.0457 245 39Z" fill="url(#paint1_linear_6306_10241)"/>
<path d="M245 38.5C245 27.1782 254.178 18 265.5 18C276.822 18 286 27.1782 286 38.5L284 39C284 28.5066 275.493 20 265 20C253.954 20 245 28.5066 245 39V38.5ZM285 59H245H285ZM245 59V19V59ZM265.5 18C276.822 18 286 27.1782 286 38.5C286 49.8218 276.822 59 265.5 59H265C275.493 59 284 50.0457 284 39C284 28.5066 275.493 20 265 20L265.5 18Z" fill="white" fill-opacity="0.1" mask="url(#path-5-inside-2_6306_10241)"/>
<path d="M265 47.75C260.175 47.75 256.25 43.825 256.25 39C256.25 34.175 260.175 30.25 265 30.25C269.825 30.25 273.75 34.175 273.75 39C273.75 43.825 269.825 47.75 265 47.75ZM265 31.5C260.863 31.5 257.5 34.8625 257.5 39C257.5 43.1375 260.863 46.5 265 46.5C269.138 46.5 272.5 43.1375 272.5 39C272.5 34.8625 269.138 31.5 265 31.5Z" fill="white"/>
<path d="M267.5 42.125C267.388 42.125 267.275 42.1 267.175 42.0375L264.05 40.1625C263.958 40.1064 263.882 40.0274 263.829 39.9332C263.777 39.8391 263.749 39.7329 263.75 39.625V34.625C263.75 34.275 264.025 34 264.375 34C264.725 34 265 34.275 265 34.625V39.275L267.825 40.9625C267.941 41.0338 268.031 41.1411 268.081 41.2682C268.131 41.3952 268.138 41.535 268.101 41.6665C268.065 41.7979 267.986 41.9138 267.878 41.9965C267.769 42.0793 267.636 42.1244 267.5 42.125Z" fill="white"/>
<defs>
<linearGradient id="paint0_linear_6306_10241" x1="149.706" y1="39.019" x2="131.414" y2="-61.976" gradientUnits="userSpaceOnUse">
<stop stop-color="#1B1B1C"/>
<stop offset="1" stop-color="#FAAC79" stop-opacity="0.1"/>
</linearGradient>
<linearGradient id="paint1_linear_6306_10241" x1="265.162" y1="39.0098" x2="240.162" y2="2.75977" gradientUnits="userSpaceOnUse">
<stop stop-color="#1B1B1C"/>
<stop offset="1" stop-color="#FAAC79" stop-opacity="0.1"/>
</linearGradient>
</defs>
</svg>
