<svg width="299" height="66" viewBox="0 0 299 66" fill="none" xmlns="http://www.w3.org/2000/svg">
<mask id="path-1-inside-1_6306_10257" fill="white">
<path d="M0 33C0 14.7746 14.7746 0 33 0H266C284.225 0 299 14.7746 299 33C299 51.2254 284.225 66 266 66H33C14.7746 66 0 51.2254 0 33Z"/>
</mask>
<path d="M0 33C0 14.7746 14.7746 0 33 0H266C284.225 0 299 14.7746 299 33C299 51.2254 284.225 66 266 66H33C14.7746 66 0 51.2254 0 33Z" fill="#1B1B1C" fill-opacity="0.9"/>
<path d="M0 33C0 14.2223 15.2223 -1 34 -1H266.5C285.002 -1 300 13.9985 300 32.5L298 33C298 15.3269 283.673 1 266 1H33C14.7746 1 0 15.3269 0 33ZM299 66H0H299ZM0 66V0V66ZM266.5 -1C285.002 -1 300 13.9985 300 32.5C300 51.0015 285.002 66 266.5 66H266C283.673 66 298 51.2254 298 33C298 15.3269 283.673 1 266 1L266.5 -1Z" fill="white" fill-opacity="0.1" mask="url(#path-1-inside-1_6306_10257)"/>
<mask id="path-3-inside-2_6306_10257" fill="white">
<path d="M12 33C12 21.9543 20.9543 13 32 13C43.0457 13 52 21.9543 52 33C52 44.0457 43.0457 53 32 53C20.9543 53 12 44.0457 12 33Z"/>
</mask>
<path d="M12 33C12 21.9543 20.9543 13 32 13C43.0457 13 52 21.9543 52 33C52 44.0457 43.0457 53 32 53C20.9543 53 12 44.0457 12 33Z" fill="url(#paint0_linear_6306_10257)"/>
<path d="M12 32.5C12 21.1782 21.1782 12 32.5 12C43.8218 12 53 21.1782 53 32.5L51 33C51 22.5066 42.4934 14 32 14C20.9543 14 12 22.5066 12 33V32.5ZM52 53H12H52ZM12 53V13V53ZM32.5 12C43.8218 12 53 21.1782 53 32.5C53 43.8218 43.8218 53 32.5 53H32C42.4934 53 51 44.0457 51 33C51 22.5066 42.4934 14 32 14L32.5 12Z" fill="white" fill-opacity="0.1" mask="url(#path-3-inside-2_6306_10257)"/>
<g clip-path="url(#clip0_6306_10257)">
<path d="M33.921 24.4551C34.4538 24.5009 34.9527 24.7359 35.3271 25.1177C35.7016 25.4995 35.9269 26.0028 35.9623 26.5364C36.0619 27.9197 36.1669 30.0722 36.1669 33.0001C36.1669 36.5855 36.0881 39.1818 36.0319 40.576C36.0187 40.893 35.8831 41.1925 35.6535 41.4115C35.4239 41.6305 35.1183 41.7519 34.801 41.7501H24.6202C24.302 41.7515 23.9956 41.6293 23.7656 41.4094C23.5356 41.1895 23.3998 40.8889 23.3869 40.571C23.3306 39.1443 23.2502 36.493 23.2502 33.0001C23.2502 30.1426 23.3577 27.966 23.4585 26.5555C23.4938 26.0175 23.7204 25.5098 24.0973 25.1242C24.4743 24.7387 24.9768 24.5008 25.5139 24.4535C26.6244 24.351 28.1206 24.2501 29.7085 24.2501C31.3048 24.2501 32.8085 24.3518 33.921 24.4551Z" stroke="white" stroke-width="1.12906" stroke-linecap="round" stroke-linejoin="round"/>
<path d="M34.8016 41.7516H39.4146C39.7336 41.7531 40.0408 41.6307 40.2714 41.4103C40.5021 41.1899 40.6383 40.8886 40.6513 40.5698C40.6955 39.4497 40.7513 37.6529 40.7513 35.7094C40.7513 34.2247 40.6863 32.8862 40.6159 31.8749C40.5376 30.7414 39.6592 29.8505 38.5253 29.7718C37.7242 29.716 36.9218 29.6825 36.1188 29.6714M31.7572 41.7516L31.7597 41.7079C31.7776 41.2495 31.7922 40.5923 31.7922 39.6681C31.7922 38.7438 31.7776 38.0867 31.7597 37.6283C31.7351 37.0083 31.3888 36.484 30.7742 36.399C30.4209 36.3536 30.0649 36.332 29.7087 36.3345C29.3525 36.332 28.9965 36.3536 28.6432 36.399C28.0285 36.484 27.6822 37.0083 27.6577 37.6283C27.6397 38.0867 27.6252 38.7438 27.6252 39.6681C27.6232 40.3628 27.6348 41.0574 27.6602 41.7516M27.4168 28.0004V28.8338M27.4168 32.5841V33.4175M32.0006 28.0004V28.8338M32.0006 32.5841V33.4175" stroke="white" stroke-width="1.12906" stroke-linecap="round" stroke-linejoin="round"/>
</g>
<path d="M64.196 15.138V13.878H71.658V15.138H68.62V24H67.248V15.138H64.196ZM73.7365 24L71.4965 17.154H72.8545L73.9885 20.71C74.1425 21.214 74.2825 21.732 74.4085 22.334C74.5205 21.732 74.7025 21.158 74.8565 20.71L76.0045 17.154H77.3485L78.4825 20.71C78.5945 21.046 78.8185 21.844 78.9305 22.334C79.0425 21.788 79.1685 21.312 79.3645 20.71L80.5125 17.154H81.8845L79.5465 24H78.3005L77.1105 20.332C76.8865 19.646 76.7465 19.114 76.6765 18.736C76.6065 19.072 76.4805 19.52 76.2285 20.346L75.0385 24H73.7365ZM82.2501 20.57C82.2501 18.456 83.7621 16.972 85.8201 16.972C87.8641 16.972 89.3761 18.456 89.3761 20.57C89.3761 22.684 87.8641 24.168 85.8201 24.168C83.7621 24.168 82.2501 22.684 82.2501 20.57ZM83.5801 20.57C83.5801 21.998 84.4901 22.992 85.8201 22.992C87.1361 22.992 88.0601 21.998 88.0601 20.57C88.0601 19.142 87.1361 18.148 85.8201 18.148C84.4901 18.148 83.5801 19.142 83.5801 20.57ZM94.7529 17.098V18.302H94.1649C92.9189 18.302 92.1489 19.058 92.1489 20.374V24H90.8329V17.168H92.0649L92.1489 18.204C92.4289 17.49 93.1149 17.014 94.0529 17.014C94.2909 17.014 94.4869 17.042 94.7529 17.098ZM101.079 24H95.7449V22.936L99.4409 18.26H95.7449V17.154H101.079V18.232L97.3549 22.894H101.079V24ZM105.367 24.168C103.351 24.168 101.965 22.712 101.965 20.584C101.965 18.442 103.323 16.958 105.311 16.958C107.257 16.958 108.531 18.302 108.531 20.332V20.822L103.239 20.836C103.337 22.278 104.093 23.076 105.395 23.076C106.417 23.076 107.089 22.656 107.313 21.872H108.545C108.209 23.342 107.061 24.168 105.367 24.168ZM105.311 18.064C104.163 18.064 103.435 18.75 103.267 19.954H107.215C107.215 18.82 106.473 18.064 105.311 18.064ZM111.317 24H110.001V17.154H111.191L111.331 18.204C111.765 17.42 112.633 16.958 113.599 16.958C115.405 16.958 116.231 18.064 116.231 19.814V24H114.915V20.108C114.915 18.722 114.271 18.162 113.263 18.162C112.031 18.162 111.317 19.044 111.317 20.374V24ZM118.698 15.53C118.222 15.53 117.83 15.138 117.83 14.662C117.83 14.172 118.222 13.794 118.698 13.794C119.174 13.794 119.566 14.172 119.566 14.662C119.566 15.138 119.174 15.53 118.698 15.53ZM118.054 24V17.154H119.37V24H118.054ZM124.234 24.168C122.218 24.168 120.832 22.712 120.832 20.584C120.832 18.442 122.19 16.958 124.178 16.958C126.124 16.958 127.398 18.302 127.398 20.332V20.822L122.106 20.836C122.204 22.278 122.96 23.076 124.262 23.076C125.284 23.076 125.956 22.656 126.18 21.872H127.412C127.076 23.342 125.928 24.168 124.234 24.168ZM124.178 18.064C123.03 18.064 122.302 18.75 122.134 19.954H126.082C126.082 18.82 125.34 18.064 124.178 18.064ZM133.34 15.53C132.864 15.53 132.472 15.138 132.472 14.662C132.472 14.172 132.864 13.794 133.34 13.794C133.816 13.794 134.208 14.172 134.208 14.662C134.208 15.138 133.816 15.53 133.34 15.53ZM132.696 24V17.154H134.012V24H132.696ZM137.239 24H135.923V17.154H137.113L137.253 18.204C137.687 17.42 138.555 16.958 139.521 16.958C141.327 16.958 142.153 18.064 142.153 19.814V24H140.837V20.108C140.837 18.722 140.193 18.162 139.185 18.162C137.953 18.162 137.239 19.044 137.239 20.374V24ZM145.35 24L143.11 17.154H144.468L145.602 20.71C145.756 21.214 145.896 21.732 146.022 22.334C146.134 21.732 146.316 21.158 146.47 20.71L147.618 17.154H148.962L150.096 20.71C150.208 21.046 150.432 21.844 150.544 22.334C150.656 21.788 150.782 21.312 150.978 20.71L152.126 17.154H153.498L151.16 24H149.914L148.724 20.332C148.5 19.646 148.36 19.114 148.29 18.736C148.22 19.072 148.094 19.52 147.842 20.346L146.652 24H145.35ZM157.265 24.168C155.249 24.168 153.863 22.712 153.863 20.584C153.863 18.442 155.221 16.958 157.209 16.958C159.155 16.958 160.429 18.302 160.429 20.332V20.822L155.137 20.836C155.235 22.278 155.991 23.076 157.293 23.076C158.315 23.076 158.987 22.656 159.211 21.872H160.443C160.107 23.342 158.959 24.168 157.265 24.168ZM157.209 18.064C156.061 18.064 155.333 18.75 155.165 19.954H159.113C159.113 18.82 158.371 18.064 157.209 18.064ZM161.339 22.012H162.599C162.599 22.712 163.131 23.132 163.999 23.132C164.923 23.132 165.455 22.754 165.455 22.124C165.455 21.662 165.231 21.382 164.517 21.2L163.313 20.92C162.095 20.626 161.521 20.024 161.521 19.016C161.521 17.756 162.585 16.958 164.097 16.958C165.595 16.958 166.575 17.798 166.603 19.1H165.343C165.315 18.414 164.853 17.98 164.055 17.98C163.229 17.98 162.767 18.344 162.767 18.974C162.767 19.436 163.103 19.744 163.775 19.912L164.979 20.206C166.141 20.486 166.715 21.018 166.715 22.04C166.715 23.342 165.595 24.168 163.971 24.168C162.361 24.168 161.339 23.314 161.339 22.012ZM170.107 24H168.791V18.26H167.447V17.154H168.791V15.012H170.107V17.154H171.451V18.26H170.107V24ZM171.974 27.066V25.988H172.856C173.486 25.988 173.99 25.89 174.312 25.022L174.55 24.364L171.792 17.154H173.178L175.166 22.67L177.196 17.154H178.554L175.32 25.54C174.858 26.716 174.172 27.206 173.122 27.206C172.688 27.206 172.324 27.15 171.974 27.066ZM178.897 20.584C178.897 18.442 180.255 16.958 182.257 16.958C183.979 16.958 185.183 17.938 185.421 19.464H184.105C183.881 18.596 183.181 18.134 182.299 18.134C181.053 18.134 180.199 19.086 180.199 20.57C180.199 22.04 180.997 22.992 182.243 22.992C183.181 22.992 183.881 22.502 184.119 21.69H185.435C185.169 23.174 183.895 24.168 182.243 24.168C180.227 24.168 178.897 22.74 178.897 20.584ZM187.481 15.53C186.991 15.53 186.613 15.138 186.613 14.662C186.613 14.172 186.991 13.794 187.481 13.794C187.943 13.794 188.349 14.172 188.349 14.662C188.349 15.138 187.943 15.53 187.481 15.53ZM185.087 27.108L185.311 25.918C185.577 25.988 185.731 26.016 185.941 26.016C186.571 26.016 186.823 25.652 186.823 24.882V17.154H188.139V25.008C188.139 26.38 187.383 27.234 186.053 27.234C185.703 27.234 185.479 27.22 185.087 27.108ZM190.694 15.53C190.218 15.53 189.826 15.138 189.826 14.662C189.826 14.172 190.218 13.794 190.694 13.794C191.17 13.794 191.562 14.172 191.562 14.662C191.562 15.138 191.17 15.53 190.694 15.53ZM190.05 24V17.154H191.366V24H190.05ZM198.574 24L196.334 17.154H197.692L198.826 20.71C198.98 21.214 199.12 21.732 199.246 22.334C199.358 21.732 199.54 21.158 199.694 20.71L200.842 17.154H202.186L203.32 20.71C203.432 21.046 203.656 21.844 203.768 22.334C203.88 21.788 204.006 21.312 204.202 20.71L205.35 17.154H206.722L204.384 24H203.138L201.948 20.332C201.724 19.646 201.584 19.114 201.514 18.736C201.444 19.072 201.318 19.52 201.066 20.346L199.876 24H198.574ZM214.815 24.168C212.743 24.168 211.399 22.852 211.399 20.836H212.757C212.757 22.138 213.555 22.936 214.843 22.936C216.215 22.936 217.097 22.026 217.097 20.654C217.097 19.352 216.271 18.386 214.857 18.386C214.003 18.386 213.219 18.792 212.757 19.366L211.595 19.072L212.827 13.878H217.895V15.138H213.821L213.149 17.826C213.681 17.42 214.353 17.21 215.109 17.21C217.167 17.21 218.497 18.652 218.497 20.598C218.497 22.698 216.999 24.168 214.815 24.168ZM225.094 24H223.778V17.154H224.954L225.08 18.05C225.43 17.406 226.158 16.958 227.124 16.958C228.188 16.958 228.944 17.49 229.294 18.344C229.616 17.49 230.442 16.958 231.506 16.958C233.074 16.958 234.026 17.938 234.026 19.52V24H232.738V19.842C232.738 18.764 232.136 18.148 231.212 18.148C230.218 18.148 229.56 18.848 229.56 19.94V24H228.258V19.828C228.258 18.75 227.67 18.162 226.746 18.162C225.752 18.162 225.094 18.848 225.094 19.94V24ZM236.494 15.53C236.018 15.53 235.626 15.138 235.626 14.662C235.626 14.172 236.018 13.794 236.494 13.794C236.97 13.794 237.362 14.172 237.362 14.662C237.362 15.138 236.97 15.53 236.494 15.53ZM235.85 24V17.154H237.166V24H235.85ZM240.393 24H239.077V17.154H240.267L240.407 18.204C240.841 17.42 241.709 16.958 242.675 16.958C244.481 16.958 245.307 18.064 245.307 19.814V24H243.991V20.108C243.991 18.722 243.347 18.162 242.339 18.162C241.107 18.162 240.393 19.044 240.393 20.374V24ZM251.862 17.154H253.164V24H251.988L251.848 22.964C251.456 23.678 250.546 24.168 249.538 24.168C247.942 24.168 247.046 23.09 247.046 21.41V17.154H248.362V20.976C248.362 22.446 248.992 23.006 250 23.006C251.204 23.006 251.862 22.236 251.862 20.766V17.154ZM257.005 24H255.689V18.26H254.345V17.154H255.689V15.012H257.005V17.154H258.349V18.26H257.005V24Z" fill="white"/>
<path d="M66.2017 39L64.2131 31.7273H65.108L66.6278 37.6506H66.6989L68.2472 31.7273H69.2415L70.7898 37.6506H70.8608L72.3807 31.7273H73.2756L71.2869 39H70.3778L68.7727 33.2045H68.7159L67.1108 39H66.2017ZM74.799 41.0455C74.657 41.0455 74.5303 41.0336 74.419 41.0099C74.3078 40.9886 74.2308 40.9673 74.1882 40.946L74.4013 40.2074C74.6049 40.2595 74.7848 40.2784 74.9411 40.2642C75.0973 40.25 75.2358 40.1802 75.3565 40.0547C75.4796 39.9316 75.5921 39.7315 75.6939 39.4545L75.8501 39.0284L73.8331 33.5455H74.7422L76.2479 37.892H76.3047L77.8104 33.5455H78.7195L76.4041 39.7955C76.3 40.0772 76.1709 40.3104 76.017 40.495C75.8632 40.6821 75.6844 40.8205 75.4808 40.9105C75.2796 41.0005 75.0523 41.0455 74.799 41.0455ZM79.8256 41.0455V33.5455H80.6353V34.4119H80.7347C80.7963 34.3172 80.8815 34.1965 80.9904 34.0497C81.1017 33.9006 81.2603 33.768 81.4663 33.652C81.6746 33.5336 81.9563 33.4744 82.3114 33.4744C82.7707 33.4744 83.1755 33.5893 83.5259 33.8189C83.8763 34.0485 84.1497 34.3741 84.3462 34.7955C84.5427 35.2169 84.641 35.714 84.641 36.2869C84.641 36.8646 84.5427 37.3653 84.3462 37.7891C84.1497 38.2105 83.8775 38.5372 83.5295 38.7692C83.1815 38.9988 82.7802 39.1136 82.3256 39.1136C81.9753 39.1136 81.6947 39.0556 81.484 38.9396C81.2733 38.8213 81.1112 38.6875 80.9975 38.5384C80.8839 38.3868 80.7963 38.2614 80.7347 38.1619H80.6637V41.0455H79.8256ZM80.6495 36.2727C80.6495 36.6847 80.7099 37.0481 80.8306 37.3629C80.9513 37.6754 81.1277 37.9205 81.3597 38.098C81.5917 38.2732 81.8758 38.3608 82.212 38.3608C82.5624 38.3608 82.8548 38.2685 83.0891 38.0838C83.3259 37.8968 83.5034 37.6458 83.6218 37.331C83.7425 37.0137 83.8029 36.661 83.8029 36.2727C83.8029 35.8892 83.7437 35.5436 83.6254 35.2358C83.5094 34.9257 83.333 34.6806 83.0962 34.5007C82.8619 34.3184 82.5671 34.2273 82.212 34.2273C81.8711 34.2273 81.5846 34.3137 81.3526 34.4865C81.1206 34.657 80.9454 34.8961 80.8271 35.2038C80.7087 35.5092 80.6495 35.8655 80.6495 36.2727ZM88.2063 39.1136C87.6808 39.1136 87.2274 38.9976 86.8462 38.7656C86.4674 38.5312 86.1751 38.2045 85.9691 37.7855C85.7655 37.3641 85.6637 36.8741 85.6637 36.3153C85.6637 35.7566 85.7655 35.2642 85.9691 34.8381C86.1751 34.4096 86.4615 34.0758 86.8285 33.8366C87.1978 33.5952 87.6287 33.4744 88.1211 33.4744C88.4052 33.4744 88.6857 33.5218 88.9627 33.6165C89.2397 33.7112 89.4918 33.8651 89.7191 34.0781C89.9464 34.2888 90.1275 34.5682 90.2624 34.9162C90.3974 35.2642 90.4648 35.6927 90.4648 36.2017V36.5568H86.2603V35.8324H89.6126C89.6126 35.5246 89.551 35.25 89.4279 35.0085C89.3072 34.767 89.1344 34.5765 88.9094 34.4368C88.6869 34.2971 88.4241 34.2273 88.1211 34.2273C87.7873 34.2273 87.4985 34.3101 87.2546 34.4759C87.0131 34.6392 86.8273 34.8523 86.6971 35.1151C86.5669 35.3778 86.5018 35.6596 86.5018 35.9602V36.4432C86.5018 36.8551 86.5728 37.2043 86.7148 37.4908C86.8593 37.7749 87.0593 37.9915 87.315 38.1406C87.5707 38.2874 87.8678 38.3608 88.2063 38.3608C88.4265 38.3608 88.6254 38.33 88.8029 38.2685C88.9828 38.2045 89.1379 38.1098 89.2681 37.9844C89.3983 37.8565 89.4989 37.6979 89.57 37.5085L90.3796 37.7358C90.2944 38.0104 90.1512 38.2519 89.9499 38.4602C89.7487 38.6662 89.5001 38.8272 89.2042 38.9432C88.9083 39.0568 88.5756 39.1136 88.2063 39.1136ZM93.359 34.4545V35.0795L90.9585 35.9886V35.3636L93.359 34.4545ZM92.5778 31.7273V39H91.7397V31.7273H92.5778ZM94.9508 35.7188V39H94.1127V33.5455H94.9224V34.3977H94.9934C95.1213 34.1207 95.3154 33.8982 95.5758 33.7301C95.8362 33.5597 96.1724 33.4744 96.5843 33.4744C96.9537 33.4744 97.2768 33.5502 97.5538 33.7017C97.8308 33.8509 98.0462 34.0781 98.2001 34.3835C98.354 34.6866 98.4309 35.0701 98.4309 35.5341V39H97.5929V35.5909C97.5929 35.1624 97.4816 34.8286 97.2591 34.5895C97.0365 34.348 96.7311 34.2273 96.3429 34.2273C96.0753 34.2273 95.8362 34.2853 95.6255 34.4013C95.4172 34.5173 95.2527 34.6866 95.1319 34.9091C95.0112 35.1316 94.9508 35.4015 94.9508 35.7188ZM99.9624 39V33.5455H100.8V39H99.9624ZM100.388 32.6364C100.225 32.6364 100.084 32.5807 99.9659 32.4695C99.8499 32.3582 99.7919 32.2244 99.7919 32.0682C99.7919 31.9119 99.8499 31.7782 99.9659 31.6669C100.084 31.5556 100.225 31.5 100.388 31.5C100.552 31.5 100.692 31.5556 100.808 31.6669C100.926 31.7782 100.985 31.9119 100.985 32.0682C100.985 32.2244 100.926 32.3582 100.808 32.4695C100.692 32.5807 100.552 32.6364 100.388 32.6364ZM102.335 33.5455H103.173V39.3977C103.173 39.7339 103.115 40.0251 102.999 40.2713C102.886 40.5175 102.713 40.7081 102.481 40.843C102.251 40.978 101.961 41.0455 101.611 41.0455C101.583 41.0455 101.554 41.0455 101.526 41.0455C101.497 41.0455 101.469 41.0455 101.441 41.0455V40.2642C101.469 40.2642 101.495 40.2642 101.519 40.2642C101.542 40.2642 101.568 40.2642 101.597 40.2642C101.852 40.2642 102.039 40.1884 102.158 40.0369C102.276 39.8878 102.335 39.6747 102.335 39.3977V33.5455ZM102.747 32.6364C102.584 32.6364 102.443 32.5807 102.325 32.4695C102.209 32.3582 102.151 32.2244 102.151 32.0682C102.151 31.9119 102.209 31.7782 102.325 31.6669C102.443 31.5556 102.584 31.5 102.747 31.5C102.911 31.5 103.05 31.5556 103.166 31.6669C103.285 31.7782 103.344 31.9119 103.344 32.0682C103.344 32.2244 103.285 32.3582 103.166 32.4695C103.05 32.5807 102.911 32.6364 102.747 32.6364ZM107.521 41.0455V33.5455H108.331V34.4119H108.43C108.492 34.3172 108.577 34.1965 108.686 34.0497C108.797 33.9006 108.956 33.768 109.162 33.652C109.37 33.5336 109.652 33.4744 110.007 33.4744C110.466 33.4744 110.871 33.5893 111.221 33.8189C111.572 34.0485 111.845 34.3741 112.042 34.7955C112.238 35.2169 112.336 35.714 112.336 36.2869C112.336 36.8646 112.238 37.3653 112.042 37.7891C111.845 38.2105 111.573 38.5372 111.225 38.7692C110.877 38.9988 110.475 39.1136 110.021 39.1136C109.671 39.1136 109.39 39.0556 109.179 38.9396C108.969 38.8213 108.806 38.6875 108.693 38.5384C108.579 38.3868 108.492 38.2614 108.43 38.1619H108.359V41.0455H107.521ZM108.345 36.2727C108.345 36.6847 108.405 37.0481 108.526 37.3629C108.647 37.6754 108.823 37.9205 109.055 38.098C109.287 38.2732 109.571 38.3608 109.907 38.3608C110.258 38.3608 110.55 38.2685 110.784 38.0838C111.021 37.8968 111.199 37.6458 111.317 37.331C111.438 37.0137 111.498 36.661 111.498 36.2727C111.498 35.8892 111.439 35.5436 111.321 35.2358C111.205 34.9257 111.028 34.6806 110.792 34.5007C110.557 34.3184 110.262 34.2273 109.907 34.2273C109.566 34.2273 109.28 34.3137 109.048 34.4865C108.816 34.657 108.641 34.8961 108.522 35.2038C108.404 35.5092 108.345 35.8655 108.345 36.2727ZM113.615 39V33.5455H114.424V34.3693H114.481C114.581 34.0994 114.761 33.8804 115.021 33.7124C115.281 33.5443 115.575 33.4602 115.902 33.4602C115.963 33.4602 116.04 33.4614 116.132 33.4638C116.225 33.4661 116.295 33.4697 116.342 33.4744V34.3267C116.314 34.3196 116.248 34.3089 116.147 34.2947C116.047 34.2782 115.942 34.2699 115.831 34.2699C115.565 34.2699 115.329 34.3255 115.12 34.4368C114.914 34.5457 114.751 34.6972 114.63 34.8913C114.512 35.0831 114.453 35.3021 114.453 35.5483V39H113.615ZM119.385 39.1136C118.893 39.1136 118.461 38.9964 118.089 38.7621C117.72 38.5277 117.431 38.1998 117.223 37.7784C117.017 37.357 116.914 36.8646 116.914 36.3011C116.914 35.733 117.017 35.237 117.223 34.8132C117.431 34.3894 117.72 34.0604 118.089 33.826C118.461 33.5916 118.893 33.4744 119.385 33.4744C119.878 33.4744 120.309 33.5916 120.678 33.826C121.05 34.0604 121.338 34.3894 121.544 34.8132C121.753 35.237 121.857 35.733 121.857 36.3011C121.857 36.8646 121.753 37.357 121.544 37.7784C121.338 38.1998 121.05 38.5277 120.678 38.7621C120.309 38.9964 119.878 39.1136 119.385 39.1136ZM119.385 38.3608C119.759 38.3608 120.067 38.2649 120.309 38.0732C120.55 37.8814 120.729 37.6293 120.845 37.3168C120.961 37.0043 121.019 36.6657 121.019 36.3011C121.019 35.9366 120.961 35.5968 120.845 35.282C120.729 34.9671 120.55 34.7126 120.309 34.5185C120.067 34.3243 119.759 34.2273 119.385 34.2273C119.011 34.2273 118.703 34.3243 118.462 34.5185C118.221 34.7126 118.042 34.9671 117.926 35.282C117.81 35.5968 117.752 35.9366 117.752 36.3011C117.752 36.6657 117.81 37.0043 117.926 37.3168C118.042 37.6293 118.221 37.8814 118.462 38.0732C118.703 38.2649 119.011 38.3608 119.385 38.3608ZM127 34.767L126.247 34.9801C126.2 34.8546 126.13 34.7327 126.037 34.6143C125.948 34.4936 125.824 34.3942 125.668 34.3161C125.512 34.2379 125.312 34.1989 125.068 34.1989C124.734 34.1989 124.456 34.2758 124.233 34.4297C124.013 34.5812 123.903 34.7741 123.903 35.0085C123.903 35.2169 123.979 35.3814 124.131 35.5021C124.282 35.6229 124.519 35.7235 124.841 35.804L125.65 36.0028C126.138 36.1212 126.501 36.3023 126.741 36.5462C126.98 36.7876 127.099 37.099 127.099 37.4801C127.099 37.7926 127.009 38.072 126.829 38.3182C126.652 38.5644 126.403 38.7585 126.084 38.9006C125.764 39.0426 125.392 39.1136 124.969 39.1136C124.412 39.1136 123.952 38.9929 123.587 38.7514C123.223 38.5099 122.992 38.1572 122.895 37.6932L123.69 37.4943C123.766 37.7879 123.909 38.008 124.12 38.1548C124.333 38.3016 124.611 38.375 124.954 38.375C125.345 38.375 125.655 38.2921 125.885 38.1264C126.117 37.9583 126.233 37.7571 126.233 37.5227C126.233 37.3333 126.166 37.1747 126.034 37.0469C125.901 36.9167 125.698 36.8196 125.423 36.7557L124.514 36.5426C124.015 36.4242 123.648 36.2408 123.413 35.9922C123.181 35.7412 123.065 35.4276 123.065 35.0511C123.065 34.7434 123.152 34.4711 123.324 34.2344C123.5 33.9976 123.738 33.8118 124.038 33.6768C124.341 33.5419 124.684 33.4744 125.068 33.4744C125.608 33.4744 126.032 33.5928 126.339 33.8295C126.649 34.0663 126.87 34.3788 127 34.767ZM130.733 33.5455V34.2557H127.906V33.5455H130.733ZM128.73 32.2386H129.568V37.4375C129.568 37.6742 129.603 37.8518 129.671 37.9702C129.742 38.0862 129.832 38.1643 129.941 38.2045C130.052 38.2424 130.17 38.2614 130.293 38.2614C130.385 38.2614 130.461 38.2566 130.52 38.2472C130.579 38.2353 130.626 38.2259 130.662 38.2188L130.832 38.9716C130.776 38.9929 130.696 39.0142 130.594 39.0355C130.493 39.0592 130.364 39.071 130.207 39.071C129.971 39.071 129.739 39.0201 129.511 38.9183C129.286 38.8165 129.099 38.6615 128.95 38.4531C128.804 38.2448 128.73 37.982 128.73 37.6648V32.2386ZM132.533 41.0455C132.391 41.0455 132.265 41.0336 132.153 41.0099C132.042 40.9886 131.965 40.9673 131.923 40.946L132.136 40.2074C132.339 40.2595 132.519 40.2784 132.675 40.2642C132.832 40.25 132.97 40.1802 133.091 40.0547C133.214 39.9316 133.326 39.7315 133.428 39.4545L133.585 39.0284L131.567 33.5455H132.477L133.982 37.892H134.039L135.545 33.5455H136.454L134.138 39.7955C134.034 40.0772 133.905 40.3104 133.751 40.495C133.598 40.6821 133.419 40.8205 133.215 40.9105C133.014 41.0005 132.787 41.0455 132.533 41.0455ZM142.801 33.5455V34.2557H139.861V33.5455H142.801ZM140.742 39V32.7926C140.742 32.4801 140.815 32.2197 140.962 32.0114C141.109 31.803 141.299 31.6468 141.534 31.5426C141.768 31.4384 142.016 31.3864 142.276 31.3864C142.482 31.3864 142.65 31.4029 142.78 31.4361C142.91 31.4692 143.007 31.5 143.071 31.5284L142.83 32.2528C142.787 32.2386 142.728 32.2209 142.652 32.1996C142.579 32.1783 142.482 32.1676 142.361 32.1676C142.084 32.1676 141.884 32.2375 141.761 32.3771C141.64 32.5168 141.58 32.7216 141.58 32.9915V39H140.742ZM145.967 39.1136C145.475 39.1136 145.043 38.9964 144.671 38.7621C144.302 38.5277 144.013 38.1998 143.805 37.7784C143.599 37.357 143.496 36.8646 143.496 36.3011C143.496 35.733 143.599 35.237 143.805 34.8132C144.013 34.3894 144.302 34.0604 144.671 33.826C145.043 33.5916 145.475 33.4744 145.967 33.4744C146.46 33.4744 146.891 33.5916 147.26 33.826C147.632 34.0604 147.92 34.3894 148.126 34.8132C148.335 35.237 148.439 35.733 148.439 36.3011C148.439 36.8646 148.335 37.357 148.126 37.7784C147.92 38.1998 147.632 38.5277 147.26 38.7621C146.891 38.9964 146.46 39.1136 145.967 39.1136ZM145.967 38.3608C146.341 38.3608 146.649 38.2649 146.891 38.0732C147.132 37.8814 147.311 37.6293 147.427 37.3168C147.543 37.0043 147.601 36.6657 147.601 36.3011C147.601 35.9366 147.543 35.5968 147.427 35.282C147.311 34.9671 147.132 34.7126 146.891 34.5185C146.649 34.3243 146.341 34.2273 145.967 34.2273C145.593 34.2273 145.286 34.3243 145.044 34.5185C144.803 34.7126 144.624 34.9671 144.508 35.282C144.392 35.5968 144.334 35.9366 144.334 36.3011C144.334 36.6657 144.392 37.0043 144.508 37.3168C144.624 37.6293 144.803 37.8814 145.044 38.0732C145.286 38.2649 145.593 38.3608 145.967 38.3608ZM149.718 39V33.5455H150.528V34.3693H150.585C150.684 34.0994 150.864 33.8804 151.124 33.7124C151.385 33.5443 151.678 33.4602 152.005 33.4602C152.067 33.4602 152.144 33.4614 152.236 33.4638C152.328 33.4661 152.398 33.4697 152.445 33.4744V34.3267C152.417 34.3196 152.352 34.3089 152.25 34.2947C152.151 34.2782 152.045 34.2699 151.934 34.2699C151.669 34.2699 151.432 34.3255 151.224 34.4368C151.018 34.5457 150.855 34.6972 150.734 34.8913C150.615 35.0831 150.556 35.3021 150.556 35.5483V39H149.718ZM153.439 39V33.5455H154.249V34.3977H154.32C154.433 34.1065 154.617 33.8804 154.87 33.7195C155.123 33.5561 155.428 33.4744 155.783 33.4744C156.143 33.4744 156.442 33.5561 156.681 33.7195C156.923 33.8804 157.111 34.1065 157.246 34.3977H157.303C157.442 34.116 157.652 33.8923 157.931 33.7266C158.21 33.5585 158.545 33.4744 158.936 33.4744C159.424 33.4744 159.823 33.6271 160.133 33.9325C160.443 34.2356 160.598 34.7079 160.598 35.3494V39H159.76V35.3494C159.76 34.947 159.65 34.6593 159.43 34.4865C159.21 34.3137 158.95 34.2273 158.652 34.2273C158.268 34.2273 157.971 34.3433 157.761 34.5753C157.55 34.8049 157.445 35.0961 157.445 35.4489V39H156.592V35.2642C156.592 34.9541 156.492 34.7043 156.29 34.5149C156.089 34.3232 155.83 34.2273 155.513 34.2273C155.295 34.2273 155.091 34.2853 154.902 34.4013C154.715 34.5173 154.563 34.6783 154.447 34.8842C154.334 35.0878 154.277 35.3234 154.277 35.5909V39H153.439ZM165.568 36.7699V33.5455H166.406V39H165.568V38.0767H165.511C165.383 38.3537 165.184 38.5893 164.914 38.7834C164.645 38.9751 164.304 39.071 163.892 39.071C163.551 39.071 163.248 38.9964 162.983 38.8473C162.717 38.6958 162.509 38.4685 162.358 38.1655C162.206 37.8601 162.13 37.4754 162.13 37.0114V33.5455H162.968V36.9545C162.968 37.3523 163.08 37.6695 163.302 37.9062C163.527 38.143 163.814 38.2614 164.162 38.2614C164.37 38.2614 164.582 38.2081 164.797 38.1016C165.015 37.995 165.197 37.8317 165.344 37.6115C165.493 37.3913 165.568 37.1108 165.568 36.7699ZM168.779 31.7273V39H167.941V31.7273H168.779ZM171.919 39.1278C171.573 39.1278 171.26 39.0627 170.978 38.9325C170.696 38.8 170.473 38.6094 170.307 38.3608C170.141 38.1098 170.058 37.8068 170.058 37.4517C170.058 37.1392 170.12 36.8859 170.243 36.6918C170.366 36.4953 170.531 36.3414 170.737 36.2301C170.942 36.1188 171.17 36.036 171.418 35.9815C171.669 35.9247 171.921 35.8797 172.175 35.8466C172.506 35.804 172.775 35.772 172.981 35.7507C173.189 35.727 173.341 35.688 173.435 35.6335C173.532 35.5791 173.581 35.4844 173.581 35.3494V35.321C173.581 34.9706 173.485 34.6984 173.293 34.5043C173.104 34.3101 172.816 34.2131 172.43 34.2131C172.03 34.2131 171.717 34.3007 171.489 34.4759C171.262 34.651 171.102 34.8381 171.01 35.0369L170.214 34.7528C170.357 34.4214 170.546 34.1634 170.783 33.9787C171.022 33.7917 171.282 33.6615 171.564 33.5881C171.848 33.5123 172.127 33.4744 172.402 33.4744C172.577 33.4744 172.778 33.4957 173.006 33.5384C173.235 33.5786 173.457 33.6626 173.67 33.7905C173.885 33.9183 174.064 34.1113 174.206 34.3693C174.348 34.6274 174.419 34.973 174.419 35.4062V39H173.581V38.2614H173.538C173.482 38.3797 173.387 38.5064 173.254 38.6413C173.122 38.7763 172.945 38.8911 172.725 38.9858C172.505 39.0805 172.236 39.1278 171.919 39.1278ZM172.047 38.375C172.378 38.375 172.658 38.3099 172.885 38.1797C173.115 38.0495 173.287 37.8814 173.403 37.6754C173.522 37.4695 173.581 37.2528 173.581 37.0256V36.2585C173.545 36.3011 173.467 36.3402 173.347 36.3757C173.228 36.4089 173.091 36.4384 172.935 36.4645C172.781 36.4882 172.63 36.5095 172.484 36.5284C172.339 36.545 172.222 36.5592 172.132 36.571C171.914 36.5994 171.711 36.6456 171.521 36.7095C171.334 36.7711 171.183 36.8646 171.067 36.9901C170.953 37.1132 170.896 37.2812 170.896 37.4943C170.896 37.7855 171.004 38.0057 171.219 38.1548C171.437 38.3016 171.713 38.375 172.047 38.375ZM175.949 39V33.5455H176.758V34.3693H176.815C176.915 34.0994 177.095 33.8804 177.355 33.7124C177.615 33.5443 177.909 33.4602 178.236 33.4602C178.297 33.4602 178.374 33.4614 178.466 33.4638C178.559 33.4661 178.629 33.4697 178.676 33.4744V34.3267C178.648 34.3196 178.582 34.3089 178.481 34.2947C178.381 34.2782 178.276 34.2699 178.165 34.2699C177.899 34.2699 177.663 34.3255 177.454 34.4368C177.248 34.5457 177.085 34.6972 176.964 34.8913C176.846 35.0831 176.787 35.3021 176.787 35.5483V39H175.949ZM179.513 39V38.3608L182.61 34.3835V34.3267H179.613V33.5455H183.689V34.2131L180.678 38.1619V38.2188H183.789V39H179.513Z" fill="#D0D0D0"/>
<path d="M64.8807 53V45.7273H67.3381C67.9086 45.7273 68.375 45.8303 68.7372 46.0362C69.1018 46.2398 69.3717 46.5156 69.5469 46.8636C69.7221 47.2116 69.8097 47.5999 69.8097 48.0284C69.8097 48.4569 69.7221 48.8464 69.5469 49.1967C69.3741 49.5471 69.1065 49.8265 68.7443 50.0348C68.3821 50.2408 67.9181 50.3438 67.3523 50.3438H65.5909V49.5625H67.3239C67.7145 49.5625 68.0282 49.495 68.2649 49.3601C68.5017 49.2251 68.6733 49.0429 68.7798 48.8132C68.8887 48.5812 68.9432 48.3196 68.9432 48.0284C68.9432 47.7372 68.8887 47.4768 68.7798 47.2472C68.6733 47.0175 68.5005 46.8376 68.2614 46.7074C68.0223 46.5748 67.705 46.5085 67.3097 46.5085H65.7614V53H64.8807ZM71.1147 53V47.5455H71.9244V48.3693H71.9812C72.0806 48.0994 72.2605 47.8804 72.521 47.7124C72.7814 47.5443 73.0749 47.4602 73.4016 47.4602C73.4632 47.4602 73.5401 47.4614 73.6325 47.4638C73.7248 47.4661 73.7946 47.4697 73.842 47.4744V48.3267C73.8136 48.3196 73.7485 48.3089 73.6467 48.2947C73.5472 48.2782 73.4419 48.2699 73.3306 48.2699C73.0655 48.2699 72.8287 48.3255 72.6204 48.4368C72.4144 48.5457 72.2511 48.6972 72.1303 48.8913C72.012 49.0831 71.9528 49.3021 71.9528 49.5483V53H71.1147ZM74.6792 53V52.3608L77.7757 48.3835V48.3267H74.7786V47.5455H78.8553V48.2131L75.8439 52.1619V52.2188H78.9547V53H74.6792ZM80.7853 55.0455C80.6433 55.0455 80.5166 55.0336 80.4054 55.0099C80.2941 54.9886 80.2172 54.9673 80.1745 54.946L80.3876 54.2074C80.5912 54.2595 80.7711 54.2784 80.9274 54.2642C81.0836 54.25 81.2221 54.1802 81.3429 54.0547C81.466 53.9316 81.5784 53.7315 81.6802 53.4545L81.8365 53.0284L79.8194 47.5455H80.7285L82.2342 51.892H82.291L83.7967 47.5455H84.7058L82.3904 53.7955C82.2863 54.0772 82.1573 54.3104 82.0034 54.495C81.8495 54.6821 81.6708 54.8205 81.4672 54.9105C81.2659 55.0005 81.0386 55.0455 80.7853 55.0455ZM89.6756 48.767L88.9228 48.9801C88.8754 48.8546 88.8056 48.7327 88.7132 48.6143C88.6233 48.4936 88.5002 48.3942 88.3439 48.3161C88.1877 48.2379 87.9876 48.1989 87.7438 48.1989C87.41 48.1989 87.1318 48.2758 86.9093 48.4297C86.6891 48.5812 86.579 48.7741 86.579 49.0085C86.579 49.2169 86.6548 49.3814 86.8063 49.5021C86.9578 49.6229 87.1945 49.7235 87.5165 49.804L88.3262 50.0028C88.8139 50.1212 89.1773 50.3023 89.4164 50.5462C89.6555 50.7876 89.775 51.099 89.775 51.4801C89.775 51.7926 89.6851 52.072 89.5051 52.3182C89.3276 52.5644 89.079 52.7585 88.7594 52.9006C88.4398 53.0426 88.0681 53.1136 87.6444 53.1136C87.088 53.1136 86.6275 52.9929 86.263 52.7514C85.8984 52.5099 85.6676 52.1572 85.5705 51.6932L86.3659 51.4943C86.4417 51.7879 86.5849 52.008 86.7956 52.1548C87.0087 52.3016 87.2869 52.375 87.6301 52.375C88.0208 52.375 88.3309 52.2921 88.5605 52.1264C88.7926 51.9583 88.9086 51.7571 88.9086 51.5227C88.9086 51.3333 88.8423 51.1747 88.7097 51.0469C88.5771 50.9167 88.3735 50.8196 88.0989 50.7557L87.1898 50.5426C86.6903 50.4242 86.3233 50.2408 86.089 49.9922C85.8569 49.7412 85.7409 49.4276 85.7409 49.0511C85.7409 48.7434 85.8274 48.4711 86.0002 48.2344C86.1754 47.9976 86.4133 47.8118 86.714 47.6768C87.017 47.5419 87.3603 47.4744 87.7438 47.4744C88.2836 47.4744 88.7073 47.5928 89.0151 47.8295C89.3252 48.0663 89.5454 48.3788 89.6756 48.767ZM93.4087 47.5455V48.2557H90.582V47.5455H93.4087ZM91.4059 46.2386H92.244V51.4375C92.244 51.6742 92.2783 51.8518 92.3469 51.9702C92.418 52.0862 92.5079 52.1643 92.6168 52.2045C92.7281 52.2424 92.8453 52.2614 92.9684 52.2614C93.0607 52.2614 93.1365 52.2566 93.1957 52.2472C93.2549 52.2353 93.3022 52.2259 93.3377 52.2188L93.5082 52.9716C93.4513 52.9929 93.372 53.0142 93.2702 53.0355C93.1684 53.0592 93.0394 53.071 92.8832 53.071C92.6464 53.071 92.4144 53.0201 92.1871 52.9183C91.9622 52.8165 91.7752 52.6615 91.6261 52.4531C91.4793 52.2448 91.4059 51.982 91.4059 51.6648V46.2386ZM96.2745 53.1278C95.9289 53.1278 95.6152 53.0627 95.3335 52.9325C95.0517 52.8 94.828 52.6094 94.6623 52.3608C94.4966 52.1098 94.4137 51.8068 94.4137 51.4517C94.4137 51.1392 94.4753 50.8859 94.5984 50.6918C94.7215 50.4953 94.886 50.3414 95.092 50.2301C95.2979 50.1188 95.5252 50.036 95.7738 49.9815C96.0247 49.9247 96.2769 49.8797 96.5302 49.8466C96.8616 49.804 97.1303 49.772 97.3363 49.7507C97.5446 49.727 97.6961 49.688 97.7908 49.6335C97.8879 49.5791 97.9364 49.4844 97.9364 49.3494V49.321C97.9364 48.9706 97.8406 48.6984 97.6488 48.5043C97.4594 48.3101 97.1718 48.2131 96.7859 48.2131C96.3858 48.2131 96.0721 48.3007 95.8448 48.4759C95.6175 48.651 95.4577 48.8381 95.3654 49.0369L94.57 48.7528C94.712 48.4214 94.9014 48.1634 95.1381 47.9787C95.3772 47.7917 95.6377 47.6615 95.9194 47.5881C96.2035 47.5123 96.4828 47.4744 96.7575 47.4744C96.9326 47.4744 97.1339 47.4957 97.3612 47.5384C97.5908 47.5786 97.8121 47.6626 98.0252 47.7905C98.2406 47.9183 98.4194 48.1113 98.5614 48.3693C98.7035 48.6274 98.7745 48.973 98.7745 49.4062V53H97.9364V52.2614H97.8938C97.837 52.3797 97.7423 52.5064 97.6097 52.6413C97.4772 52.7763 97.3008 52.8911 97.0806 52.9858C96.8604 53.0805 96.5917 53.1278 96.2745 53.1278ZM96.4023 52.375C96.7338 52.375 97.0131 52.3099 97.2404 52.1797C97.4701 52.0495 97.6429 51.8814 97.7589 51.6754C97.8772 51.4695 97.9364 51.2528 97.9364 51.0256V50.2585C97.9009 50.3011 97.8228 50.3402 97.7021 50.3757C97.5837 50.4089 97.4464 50.4384 97.2901 50.4645C97.1362 50.4882 96.9859 50.5095 96.8391 50.5284C96.6947 50.545 96.5775 50.5592 96.4876 50.571C96.2698 50.5994 96.0662 50.6456 95.8768 50.7095C95.6897 50.7711 95.5382 50.8646 95.4222 50.9901C95.3086 51.1132 95.2518 51.2812 95.2518 51.4943C95.2518 51.7855 95.3595 52.0057 95.5749 52.1548C95.7927 52.3016 96.0685 52.375 96.4023 52.375ZM98.1069 55.1307C97.8157 55.1307 97.5742 55.0502 97.3825 54.8892C97.1931 54.7306 97.0984 54.4986 97.0984 54.1932C97.0984 54.018 97.141 53.8428 97.2262 53.6676C97.3114 53.4924 97.4487 53.3232 97.6381 53.1598C97.8275 52.9964 98.0785 52.8437 98.391 52.7017L98.7745 53C98.5614 53.1562 98.3709 53.322 98.2028 53.4972C98.0347 53.6723 97.9506 53.8665 97.9506 54.0795C97.9506 54.1861 97.9767 54.2689 98.0288 54.3281C98.0808 54.3897 98.1779 54.4205 98.32 54.4205C98.4265 54.4205 98.5212 54.4062 98.604 54.3778C98.6869 54.3494 98.7532 54.321 98.8029 54.2926L98.8597 54.9176C98.7816 54.9673 98.6786 55.0147 98.5508 55.0597C98.4253 55.107 98.2773 55.1307 98.1069 55.1307ZM100.304 55.0455V47.5455H101.114V48.4119H101.213C101.275 48.3172 101.36 48.1965 101.469 48.0497C101.58 47.9006 101.739 47.768 101.945 47.652C102.153 47.5336 102.435 47.4744 102.79 47.4744C103.249 47.4744 103.654 47.5893 104.004 47.8189C104.355 48.0485 104.628 48.3741 104.825 48.7955C105.021 49.2169 105.119 49.714 105.119 50.2869C105.119 50.8646 105.021 51.3653 104.825 51.7891C104.628 52.2105 104.356 52.5372 104.008 52.7692C103.66 52.9988 103.259 53.1136 102.804 53.1136C102.454 53.1136 102.173 53.0556 101.963 52.9396C101.752 52.8213 101.59 52.6875 101.476 52.5384C101.362 52.3868 101.275 52.2614 101.213 52.1619H101.142V55.0455H100.304ZM101.128 50.2727C101.128 50.6847 101.188 51.0481 101.309 51.3629C101.43 51.6754 101.606 51.9205 101.838 52.098C102.07 52.2732 102.354 52.3608 102.691 52.3608C103.041 52.3608 103.333 52.2685 103.568 52.0838C103.804 51.8968 103.982 51.6458 104.1 51.331C104.221 51.0137 104.281 50.661 104.281 50.2727C104.281 49.8892 104.222 49.5436 104.104 49.2358C103.988 48.9257 103.811 48.6806 103.575 48.5007C103.34 48.3184 103.046 48.2273 102.691 48.2273C102.35 48.2273 102.063 48.3137 101.831 48.4865C101.599 48.657 101.424 48.8961 101.306 49.2038C101.187 49.5092 101.128 49.8655 101.128 50.2727ZM110.048 49.7188V53H109.21V47.5455H110.02V48.3977H110.091C110.219 48.1207 110.413 47.8982 110.673 47.7301C110.934 47.5597 111.27 47.4744 111.682 47.4744C112.051 47.4744 112.374 47.5502 112.651 47.7017C112.928 47.8509 113.144 48.0781 113.298 48.3835C113.452 48.6866 113.529 49.0701 113.529 49.5341V53H112.691V49.5909C112.691 49.1624 112.579 48.8286 112.357 48.5895C112.134 48.348 111.829 48.2273 111.441 48.2273C111.173 48.2273 110.934 48.2853 110.723 48.4013C110.515 48.5173 110.35 48.6866 110.23 48.9091C110.109 49.1316 110.048 49.4015 110.048 49.7188ZM116.665 53.1278C116.319 53.1278 116.006 53.0627 115.724 52.9325C115.442 52.8 115.219 52.6094 115.053 52.3608C114.887 52.1098 114.804 51.8068 114.804 51.4517C114.804 51.1392 114.866 50.8859 114.989 50.6918C115.112 50.4953 115.277 50.3414 115.483 50.2301C115.689 50.1188 115.916 50.036 116.164 49.9815C116.415 49.9247 116.667 49.8797 116.921 49.8466C117.252 49.804 117.521 49.772 117.727 49.7507C117.935 49.727 118.087 49.688 118.181 49.6335C118.279 49.5791 118.327 49.4844 118.327 49.3494V49.321C118.327 48.9706 118.231 48.6984 118.039 48.5043C117.85 48.3101 117.562 48.2131 117.176 48.2131C116.776 48.2131 116.463 48.3007 116.235 48.4759C116.008 48.651 115.848 48.8381 115.756 49.0369L114.961 48.7528C115.103 48.4214 115.292 48.1634 115.529 47.9787C115.768 47.7917 116.028 47.6615 116.31 47.5881C116.594 47.5123 116.873 47.4744 117.148 47.4744C117.323 47.4744 117.525 47.4957 117.752 47.5384C117.981 47.5786 118.203 47.6626 118.416 47.7905C118.631 47.9183 118.81 48.1113 118.952 48.3693C119.094 48.6274 119.165 48.973 119.165 49.4062V53H118.327V52.2614H118.284C118.228 52.3797 118.133 52.5064 118 52.6413C117.868 52.7763 117.691 52.8911 117.471 52.9858C117.251 53.0805 116.982 53.1278 116.665 53.1278ZM116.793 52.375C117.124 52.375 117.404 52.3099 117.631 52.1797C117.861 52.0495 118.033 51.8814 118.15 51.6754C118.268 51.4695 118.327 51.2528 118.327 51.0256V50.2585C118.292 50.3011 118.213 50.3402 118.093 50.3757C117.974 50.4089 117.837 50.4384 117.681 50.4645C117.527 50.4882 117.377 50.5095 117.23 50.5284C117.085 50.545 116.968 50.5592 116.878 50.571C116.66 50.5994 116.457 50.6456 116.267 50.7095C116.08 50.7711 115.929 50.8646 115.813 50.9901C115.699 51.1132 115.642 51.2812 115.642 51.4943C115.642 51.7855 115.75 52.0057 115.966 52.1548C116.183 52.3016 116.459 52.375 116.793 52.375ZM123.067 47.5455V48.2557H120.24V47.5455H123.067ZM121.064 46.2386H121.902V51.4375C121.902 51.6742 121.936 51.8518 122.005 51.9702C122.076 52.0862 122.166 52.1643 122.275 52.2045C122.386 52.2424 122.503 52.2614 122.627 52.2614C122.719 52.2614 122.795 52.2566 122.854 52.2472C122.913 52.2353 122.96 52.2259 122.996 52.2188L123.166 52.9716C123.11 52.9929 123.03 53.0142 122.928 53.0355C122.827 53.0592 122.698 53.071 122.541 53.071C122.305 53.071 122.073 53.0201 121.845 52.9183C121.62 52.8165 121.433 52.6615 121.284 52.4531C121.137 52.2448 121.064 51.982 121.064 51.6648V46.2386ZM124.867 55.0455C124.725 55.0455 124.599 55.0336 124.487 55.0099C124.376 54.9886 124.299 54.9673 124.257 54.946L124.47 54.2074C124.673 54.2595 124.853 54.2784 125.009 54.2642C125.166 54.25 125.304 54.1802 125.425 54.0547C125.548 53.9316 125.66 53.7315 125.762 53.4545L125.919 53.0284L123.901 47.5455H124.811L126.316 51.892H126.373L127.879 47.5455H128.788L126.472 53.7955C126.368 54.0772 126.239 54.3104 126.085 54.495C125.932 54.6821 125.753 54.8205 125.549 54.9105C125.348 55.0005 125.121 55.0455 124.867 55.0455ZM131.915 53.1136C131.403 53.1136 130.963 52.9929 130.594 52.7514C130.224 52.5099 129.94 52.1773 129.741 51.7536C129.542 51.3298 129.443 50.8456 129.443 50.3011C129.443 49.7472 129.545 49.2583 129.748 48.8345C129.954 48.4084 130.241 48.0758 130.608 47.8366C130.977 47.5952 131.408 47.4744 131.9 47.4744C132.284 47.4744 132.63 47.5455 132.937 47.6875C133.245 47.8295 133.497 48.0284 133.694 48.2841C133.89 48.5398 134.012 48.8381 134.059 49.179H133.221C133.157 48.9304 133.015 48.7102 132.795 48.5185C132.577 48.3243 132.284 48.2273 131.915 48.2273C131.588 48.2273 131.301 48.3125 131.055 48.483C130.811 48.651 130.621 48.889 130.483 49.1967C130.349 49.5021 130.281 49.8608 130.281 50.2727C130.281 50.6941 130.347 51.0611 130.48 51.3736C130.615 51.6861 130.804 51.9287 131.048 52.1016C131.294 52.2744 131.583 52.3608 131.915 52.3608C132.132 52.3608 132.33 52.3229 132.508 52.2472C132.685 52.1714 132.836 52.0625 132.959 51.9205C133.082 51.7784 133.169 51.608 133.221 51.4091H134.059C134.012 51.7311 133.895 52.0211 133.708 52.2791C133.523 52.5348 133.278 52.7384 132.973 52.8899C132.67 53.0391 132.317 53.1136 131.915 53.1136ZM136.123 49.7188V53H135.285V45.7273H136.123V48.3977H136.194C136.322 48.116 136.513 47.8923 136.769 47.7266C137.027 47.5585 137.37 47.4744 137.799 47.4744C138.171 47.4744 138.496 47.549 138.775 47.6982C139.055 47.8449 139.271 48.071 139.425 48.3764C139.581 48.6795 139.66 49.0653 139.66 49.5341V53H138.822V49.5909C138.822 49.1577 138.709 48.8227 138.484 48.5859C138.262 48.3468 137.953 48.2273 137.557 48.2273C137.283 48.2273 137.037 48.2853 136.819 48.4013C136.603 48.5173 136.433 48.6866 136.307 48.9091C136.184 49.1316 136.123 49.4015 136.123 49.7188ZM141.193 53V47.5455H142.002V48.3977H142.074C142.187 48.1065 142.371 47.8804 142.624 47.7195C142.877 47.5561 143.181 47.4744 143.537 47.4744C143.896 47.4744 144.196 47.5561 144.435 47.7195C144.676 47.8804 144.865 48.1065 145 48.3977H145.056C145.196 48.116 145.406 47.8923 145.685 47.7266C145.964 47.5585 146.299 47.4744 146.69 47.4744C147.178 47.4744 147.577 47.6271 147.887 47.9325C148.197 48.2356 148.352 48.7079 148.352 49.3494V53H147.514V49.3494C147.514 48.947 147.404 48.6593 147.184 48.4865C146.963 48.3137 146.704 48.2273 146.406 48.2273C146.022 48.2273 145.725 48.3433 145.515 48.5753C145.304 48.8049 145.199 49.0961 145.199 49.4489V53H144.346V49.2642C144.346 48.9541 144.246 48.7043 144.044 48.5149C143.843 48.3232 143.584 48.2273 143.267 48.2273C143.049 48.2273 142.845 48.2853 142.656 48.4013C142.469 48.5173 142.317 48.6783 142.201 48.8842C142.088 49.0878 142.031 49.3234 142.031 49.5909V53H141.193ZM149.884 53V47.5455H150.722V53H149.884ZM150.31 46.6364C150.147 46.6364 150.006 46.5807 149.888 46.4695C149.772 46.3582 149.714 46.2244 149.714 46.0682C149.714 45.9119 149.772 45.7782 149.888 45.6669C150.006 45.5556 150.147 45.5 150.31 45.5C150.474 45.5 150.613 45.5556 150.729 45.6669C150.848 45.7782 150.907 45.9119 150.907 46.0682C150.907 46.2244 150.848 46.3582 150.729 46.4695C150.613 46.5807 150.474 46.6364 150.31 46.6364ZM153.862 53.1278C153.517 53.1278 153.203 53.0627 152.921 52.9325C152.64 52.8 152.416 52.6094 152.25 52.3608C152.084 52.1098 152.002 51.8068 152.002 51.4517C152.002 51.1392 152.063 50.8859 152.186 50.6918C152.309 50.4953 152.474 50.3414 152.68 50.2301C152.886 50.1188 153.113 50.036 153.362 49.9815C153.613 49.9247 153.865 49.8797 154.118 49.8466C154.45 49.804 154.718 49.772 154.924 49.7507C155.133 49.727 155.284 49.688 155.379 49.6335C155.476 49.5791 155.524 49.4844 155.524 49.3494V49.321C155.524 48.9706 155.428 48.6984 155.237 48.5043C155.047 48.3101 154.76 48.2131 154.374 48.2131C153.974 48.2131 153.66 48.3007 153.433 48.4759C153.205 48.651 153.046 48.8381 152.953 49.0369L152.158 48.7528C152.3 48.4214 152.489 48.1634 152.726 47.9787C152.965 47.7917 153.226 47.6615 153.507 47.5881C153.791 47.5123 154.071 47.4744 154.345 47.4744C154.521 47.4744 154.722 47.4957 154.949 47.5384C155.179 47.5786 155.4 47.6626 155.613 47.7905C155.829 47.9183 156.007 48.1113 156.149 48.3693C156.291 48.6274 156.362 48.973 156.362 49.4062V53H155.524V52.2614H155.482C155.425 52.3797 155.33 52.5064 155.198 52.6413C155.065 52.7763 154.889 52.8911 154.669 52.9858C154.448 53.0805 154.18 53.1278 153.862 53.1278ZM153.99 52.375C154.322 52.375 154.601 52.3099 154.828 52.1797C155.058 52.0495 155.231 51.8814 155.347 51.6754C155.465 51.4695 155.524 51.2528 155.524 51.0256V50.2585C155.489 50.3011 155.411 50.3402 155.29 50.3757C155.172 50.4089 155.034 50.4384 154.878 50.4645C154.724 50.4882 154.574 50.5095 154.427 50.5284C154.283 50.545 154.165 50.5592 154.075 50.571C153.858 50.5994 153.654 50.6456 153.465 50.7095C153.278 50.7711 153.126 50.8646 153.01 50.9901C152.896 51.1132 152.84 51.2812 152.84 51.4943C152.84 51.7855 152.947 52.0057 153.163 52.1548C153.381 52.3016 153.656 52.375 153.99 52.375ZM161.756 48.767L161.003 48.9801C160.955 48.8546 160.886 48.7327 160.793 48.6143C160.703 48.4936 160.58 48.3942 160.424 48.3161C160.268 48.2379 160.068 48.1989 159.824 48.1989C159.49 48.1989 159.212 48.2758 158.989 48.4297C158.769 48.5812 158.659 48.7741 158.659 49.0085C158.659 49.2169 158.735 49.3814 158.886 49.5021C159.038 49.6229 159.275 49.7235 159.597 49.804L160.406 50.0028C160.894 50.1212 161.257 50.3023 161.496 50.5462C161.736 50.7876 161.855 51.099 161.855 51.4801C161.855 51.7926 161.765 52.072 161.585 52.3182C161.408 52.5644 161.159 52.7585 160.839 52.9006C160.52 53.0426 160.148 53.1136 159.724 53.1136C159.168 53.1136 158.708 52.9929 158.343 52.7514C157.978 52.5099 157.748 52.1572 157.651 51.6932L158.446 51.4943C158.522 51.7879 158.665 52.008 158.876 52.1548C159.089 52.3016 159.367 52.375 159.71 52.375C160.101 52.375 160.411 52.2921 160.641 52.1264C160.873 51.9583 160.989 51.7571 160.989 51.5227C160.989 51.3333 160.922 51.1747 160.79 51.0469C160.657 50.9167 160.454 50.8196 160.179 50.7557L159.27 50.5426C158.77 50.4242 158.403 50.2408 158.169 49.9922C157.937 49.7412 157.821 49.4276 157.821 49.0511C157.821 48.7434 157.907 48.4711 158.08 48.2344C158.255 47.9976 158.493 47.8118 158.794 47.6768C159.097 47.5419 159.44 47.4744 159.824 47.4744C160.364 47.4744 160.787 47.5928 161.095 47.8295C161.405 48.0663 161.625 48.3788 161.756 48.767ZM165.489 47.5455V48.2557H162.662V47.5455H165.489ZM163.486 46.2386H164.324V51.4375C164.324 51.6742 164.358 51.8518 164.427 51.9702C164.498 52.0862 164.588 52.1643 164.697 52.2045C164.808 52.2424 164.925 52.2614 165.048 52.2614C165.141 52.2614 165.217 52.2566 165.276 52.2472C165.335 52.2353 165.382 52.2259 165.418 52.2188L165.588 52.9716C165.531 52.9929 165.452 53.0142 165.35 53.0355C165.249 53.0592 165.119 53.071 164.963 53.071C164.727 53.071 164.494 53.0201 164.267 52.9183C164.042 52.8165 163.855 52.6615 163.706 52.4531C163.559 52.2448 163.486 51.982 163.486 51.6648V46.2386ZM171.622 53.1136C171.167 53.1136 170.766 52.9988 170.418 52.7692C170.07 52.5372 169.798 52.2105 169.601 51.7891C169.405 51.3653 169.306 50.8646 169.306 50.2869C169.306 49.714 169.405 49.2169 169.601 48.7955C169.798 48.3741 170.071 48.0485 170.421 47.8189C170.772 47.5893 171.177 47.4744 171.636 47.4744C171.991 47.4744 172.271 47.5336 172.477 47.652C172.686 47.768 172.844 47.9006 172.953 48.0497C173.065 48.1965 173.151 48.3172 173.213 48.4119H173.284V45.7273H174.122V53H173.312V52.1619H173.213C173.151 52.2614 173.063 52.3868 172.95 52.5384C172.836 52.6875 172.674 52.8213 172.463 52.9396C172.253 53.0556 171.972 53.1136 171.622 53.1136ZM171.735 52.3608C172.071 52.3608 172.356 52.2732 172.588 52.098C172.82 51.9205 172.996 51.6754 173.117 51.3629C173.237 51.0481 173.298 50.6847 173.298 50.2727C173.298 49.8655 173.239 49.5092 173.12 49.2038C173.002 48.8961 172.827 48.657 172.595 48.4865C172.363 48.3137 172.076 48.2273 171.735 48.2273C171.38 48.2273 171.084 48.3184 170.847 48.5007C170.613 48.6806 170.437 48.9257 170.318 49.2358C170.202 49.5436 170.144 49.8892 170.144 50.2727C170.144 50.661 170.204 51.0137 170.322 51.331C170.443 51.6458 170.62 51.8968 170.855 52.0838C171.091 52.2685 171.385 52.3608 171.735 52.3608ZM177.989 53.1136C177.496 53.1136 177.064 52.9964 176.693 52.7621C176.323 52.5277 176.035 52.1998 175.826 51.7784C175.62 51.357 175.517 50.8646 175.517 50.3011C175.517 49.733 175.62 49.237 175.826 48.8132C176.035 48.3894 176.323 48.0604 176.693 47.826C177.064 47.5916 177.496 47.4744 177.989 47.4744C178.481 47.4744 178.912 47.5916 179.281 47.826C179.653 48.0604 179.942 48.3894 180.148 48.8132C180.356 49.237 180.46 49.733 180.46 50.3011C180.46 50.8646 180.356 51.357 180.148 51.7784C179.942 52.1998 179.653 52.5277 179.281 52.7621C178.912 52.9964 178.481 53.1136 177.989 53.1136ZM177.989 52.3608C178.363 52.3608 178.671 52.2649 178.912 52.0732C179.154 51.8814 179.332 51.6293 179.448 51.3168C179.564 51.0043 179.622 50.6657 179.622 50.3011C179.622 49.9366 179.564 49.5968 179.448 49.282C179.332 48.9671 179.154 48.7126 178.912 48.5185C178.671 48.3243 178.363 48.2273 177.989 48.2273C177.615 48.2273 177.307 48.3243 177.066 48.5185C176.824 48.7126 176.645 48.9671 176.529 49.282C176.413 49.5968 176.355 49.9366 176.355 50.3011C176.355 50.6657 176.413 51.0043 176.529 51.3168C176.645 51.6293 176.824 51.8814 177.066 52.0732C177.307 52.2649 177.615 52.3608 177.989 52.3608ZM186.612 53.1136C186.157 53.1136 185.756 52.9988 185.408 52.7692C185.06 52.5372 184.788 52.2105 184.591 51.7891C184.395 51.3653 184.297 50.8646 184.297 50.2869C184.297 49.714 184.395 49.2169 184.591 48.7955C184.788 48.3741 185.061 48.0485 185.412 47.8189C185.762 47.5893 186.167 47.4744 186.626 47.4744C186.981 47.4744 187.262 47.5336 187.468 47.652C187.676 47.768 187.835 47.9006 187.944 48.0497C188.055 48.1965 188.141 48.3172 188.203 48.4119H188.274V45.7273H189.112V53H188.302V52.1619H188.203C188.141 52.2614 188.054 52.3868 187.94 52.5384C187.826 52.6875 187.664 52.8213 187.453 52.9396C187.243 53.0556 186.962 53.1136 186.612 53.1136ZM186.725 52.3608C187.062 52.3608 187.346 52.2732 187.578 52.098C187.81 51.9205 187.986 51.6754 188.107 51.3629C188.228 51.0481 188.288 50.6847 188.288 50.2727C188.288 49.8655 188.229 49.5092 188.11 49.2038C187.992 48.8961 187.817 48.657 187.585 48.4865C187.353 48.3137 187.066 48.2273 186.725 48.2273C186.37 48.2273 186.074 48.3184 185.838 48.5007C185.603 48.6806 185.427 48.9257 185.309 49.2358C185.193 49.5436 185.135 49.8892 185.135 50.2727C185.135 50.661 185.194 51.0137 185.312 51.331C185.433 51.6458 185.61 51.8968 185.845 52.0838C186.082 52.2685 186.375 52.3608 186.725 52.3608ZM192.979 53.1136C192.487 53.1136 192.055 52.9964 191.683 52.7621C191.314 52.5277 191.025 52.1998 190.816 51.7784C190.61 51.357 190.507 50.8646 190.507 50.3011C190.507 49.733 190.61 49.237 190.816 48.8132C191.025 48.3894 191.314 48.0604 191.683 47.826C192.055 47.5916 192.487 47.4744 192.979 47.4744C193.471 47.4744 193.902 47.5916 194.272 47.826C194.643 48.0604 194.932 48.3894 195.138 48.8132C195.346 49.237 195.451 49.733 195.451 50.3011C195.451 50.8646 195.346 51.357 195.138 51.7784C194.932 52.1998 194.643 52.5277 194.272 52.7621C193.902 52.9964 193.471 53.1136 192.979 53.1136ZM192.979 52.3608C193.353 52.3608 193.661 52.2649 193.902 52.0732C194.144 51.8814 194.323 51.6293 194.439 51.3168C194.555 51.0043 194.613 50.6657 194.613 50.3011C194.613 49.9366 194.555 49.5968 194.439 49.282C194.323 48.9671 194.144 48.7126 193.902 48.5185C193.661 48.3243 193.353 48.2273 192.979 48.2273C192.605 48.2273 192.297 48.3243 192.056 48.5185C191.814 48.7126 191.636 48.9671 191.52 49.282C191.404 49.5968 191.346 49.9366 191.346 50.3011C191.346 50.6657 191.404 51.0043 191.52 51.3168C191.636 51.6293 191.814 51.8814 192.056 52.0732C192.297 52.2649 192.605 52.3608 192.979 52.3608ZM198.79 53.1136C198.335 53.1136 197.934 52.9988 197.586 52.7692C197.238 52.5372 196.965 52.2105 196.769 51.7891C196.573 51.3653 196.474 50.8646 196.474 50.2869C196.474 49.714 196.573 49.2169 196.769 48.7955C196.965 48.3741 197.239 48.0485 197.589 47.8189C197.94 47.5893 198.345 47.4744 198.804 47.4744C199.159 47.4744 199.439 47.5336 199.645 47.652C199.854 47.768 200.012 47.9006 200.121 48.0497C200.233 48.1965 200.319 48.3172 200.381 48.4119H200.452V45.7273H201.29V53H200.48V52.1619H200.381C200.319 52.2614 200.231 52.3868 200.118 52.5384C200.004 52.6875 199.842 52.8213 199.631 52.9396C199.421 53.0556 199.14 53.1136 198.79 53.1136ZM198.903 52.3608C199.239 52.3608 199.523 52.2732 199.756 52.098C199.988 51.9205 200.164 51.6754 200.285 51.3629C200.405 51.0481 200.466 50.6847 200.466 50.2727C200.466 49.8655 200.407 49.5092 200.288 49.2038C200.17 48.8961 199.995 48.657 199.763 48.4865C199.531 48.3137 199.244 48.2273 198.903 48.2273C198.548 48.2273 198.252 48.3184 198.015 48.5007C197.781 48.6806 197.605 48.9257 197.486 49.2358C197.37 49.5436 197.312 49.8892 197.312 50.2727C197.312 50.661 197.372 51.0137 197.49 51.331C197.611 51.6458 197.788 51.8968 198.023 52.0838C198.259 52.2685 198.553 52.3608 198.903 52.3608ZM204.546 53.1278C204.2 53.1278 203.887 53.0627 203.605 52.9325C203.323 52.8 203.099 52.6094 202.934 52.3608C202.768 52.1098 202.685 51.8068 202.685 51.4517C202.685 51.1392 202.747 50.8859 202.87 50.6918C202.993 50.4953 203.157 50.3414 203.363 50.2301C203.569 50.1188 203.797 50.036 204.045 49.9815C204.296 49.9247 204.548 49.8797 204.802 49.8466C205.133 49.804 205.402 49.772 205.608 49.7507C205.816 49.727 205.968 49.688 206.062 49.6335C206.159 49.5791 206.208 49.4844 206.208 49.3494V49.321C206.208 48.9706 206.112 48.6984 205.92 48.5043C205.731 48.3101 205.443 48.2131 205.057 48.2131C204.657 48.2131 204.344 48.3007 204.116 48.4759C203.889 48.651 203.729 48.8381 203.637 49.0369L202.841 48.7528C202.983 48.4214 203.173 48.1634 203.41 47.9787C203.649 47.7917 203.909 47.6615 204.191 47.5881C204.475 47.5123 204.754 47.4744 205.029 47.4744C205.204 47.4744 205.405 47.4957 205.633 47.5384C205.862 47.5786 206.084 47.6626 206.297 47.7905C206.512 47.9183 206.691 48.1113 206.833 48.3693C206.975 48.6274 207.046 48.973 207.046 49.4062V53H206.208V52.2614H206.165C206.108 52.3797 206.014 52.5064 205.881 52.6413C205.749 52.7763 205.572 52.8911 205.352 52.9858C205.132 53.0805 204.863 53.1278 204.546 53.1278ZM204.674 52.375C205.005 52.375 205.285 52.3099 205.512 52.1797C205.742 52.0495 205.914 51.8814 206.03 51.6754C206.149 51.4695 206.208 51.2528 206.208 51.0256V50.2585C206.172 50.3011 206.094 50.3402 205.974 50.3757C205.855 50.4089 205.718 50.4384 205.562 50.4645C205.408 50.4882 205.257 50.5095 205.111 50.5284C204.966 50.545 204.849 50.5592 204.759 50.571C204.541 50.5994 204.338 50.6456 204.148 50.7095C203.961 50.7711 203.81 50.8646 203.694 50.9901C203.58 51.1132 203.523 51.2812 203.523 51.4943C203.523 51.7855 203.631 52.0057 203.846 52.1548C204.064 52.3016 204.34 52.375 204.674 52.375ZM209.811 53L208.15 47.5455H209.03L210.209 51.7216H210.266L211.431 47.5455H212.326L213.476 51.7074H213.533L214.712 47.5455H215.593L213.931 53H213.107L211.914 48.8097H211.828L210.635 53H209.811ZM218.306 53.1278C217.96 53.1278 217.646 53.0627 217.365 52.9325C217.083 52.8 216.859 52.6094 216.694 52.3608C216.528 52.1098 216.445 51.8068 216.445 51.4517C216.445 51.1392 216.507 50.8859 216.63 50.6918C216.753 50.4953 216.917 50.3414 217.123 50.2301C217.329 50.1188 217.556 50.036 217.805 49.9815C218.056 49.9247 218.308 49.8797 218.561 49.8466C218.893 49.804 219.162 49.772 219.368 49.7507C219.576 49.727 219.727 49.688 219.822 49.6335C219.919 49.5791 219.968 49.4844 219.968 49.3494V49.321C219.968 48.9706 219.872 48.6984 219.68 48.5043C219.491 48.3101 219.203 48.2131 218.817 48.2131C218.417 48.2131 218.103 48.3007 217.876 48.4759C217.649 48.651 217.489 48.8381 217.397 49.0369L216.601 48.7528C216.743 48.4214 216.933 48.1634 217.169 47.9787C217.408 47.7917 217.669 47.6615 217.951 47.5881C218.235 47.5123 218.514 47.4744 218.789 47.4744C218.964 47.4744 219.165 47.4957 219.392 47.5384C219.622 47.5786 219.843 47.6626 220.056 47.7905C220.272 47.9183 220.451 48.1113 220.593 48.3693C220.735 48.6274 220.806 48.973 220.806 49.4062V53H219.968V52.2614H219.925C219.868 52.3797 219.774 52.5064 219.641 52.6413C219.508 52.7763 219.332 52.8911 219.112 52.9858C218.892 53.0805 218.623 53.1278 218.306 53.1278ZM218.434 52.375C218.765 52.375 219.044 52.3099 219.272 52.1797C219.501 52.0495 219.674 51.8814 219.79 51.6754C219.908 51.4695 219.968 51.2528 219.968 51.0256V50.2585C219.932 50.3011 219.854 50.3402 219.733 50.3757C219.615 50.4089 219.478 50.4384 219.321 50.4645C219.167 50.4882 219.017 50.5095 218.87 50.5284C218.726 50.545 218.609 50.5592 218.519 50.571C218.301 50.5994 218.097 50.6456 217.908 50.7095C217.721 50.7711 217.569 50.8646 217.453 50.9901C217.34 51.1132 217.283 51.2812 217.283 51.4943C217.283 51.7855 217.391 52.0057 217.606 52.1548C217.824 52.3016 218.1 52.375 218.434 52.375ZM223.173 49.7188V53H222.335V47.5455H223.145V48.3977H223.216C223.344 48.1207 223.538 47.8982 223.798 47.7301C224.059 47.5597 224.395 47.4744 224.807 47.4744C225.176 47.4744 225.499 47.5502 225.776 47.7017C226.053 47.8509 226.269 48.0781 226.423 48.3835C226.577 48.6866 226.654 49.0701 226.654 49.5341V53H225.816V49.5909C225.816 49.1624 225.704 48.8286 225.482 48.5895C225.259 48.348 224.954 48.2273 224.566 48.2273C224.298 48.2273 224.059 48.2853 223.848 48.4013C223.64 48.5173 223.475 48.6866 223.355 48.9091C223.234 49.1316 223.173 49.4015 223.173 49.7188ZM228.185 53V47.5455H229.023V53H228.185ZM228.611 46.6364C228.448 46.6364 228.307 46.5807 228.189 46.4695C228.073 46.3582 228.015 46.2244 228.015 46.0682C228.015 45.9119 228.073 45.7782 228.189 45.6669C228.307 45.5556 228.448 45.5 228.611 45.5C228.775 45.5 228.914 45.5556 229.03 45.6669C229.149 45.7782 229.208 45.9119 229.208 46.0682C229.208 46.2244 229.149 46.3582 229.03 46.4695C228.914 46.5807 228.775 46.6364 228.611 46.6364ZM232.163 53.1278C231.818 53.1278 231.504 53.0627 231.222 52.9325C230.94 52.8 230.717 52.6094 230.551 52.3608C230.385 52.1098 230.302 51.8068 230.302 51.4517C230.302 51.1392 230.364 50.8859 230.487 50.6918C230.61 50.4953 230.775 50.3414 230.981 50.2301C231.187 50.1188 231.414 50.036 231.662 49.9815C231.913 49.9247 232.166 49.8797 232.419 49.8466C232.75 49.804 233.019 49.772 233.225 49.7507C233.433 49.727 233.585 49.688 233.68 49.6335C233.777 49.5791 233.825 49.4844 233.825 49.3494V49.321C233.825 48.9706 233.729 48.6984 233.537 48.5043C233.348 48.3101 233.06 48.2131 232.675 48.2131C232.274 48.2131 231.961 48.3007 231.733 48.4759C231.506 48.651 231.346 48.8381 231.254 49.0369L230.459 48.7528C230.601 48.4214 230.79 48.1634 231.027 47.9787C231.266 47.7917 231.526 47.6615 231.808 47.5881C232.092 47.5123 232.372 47.4744 232.646 47.4744C232.821 47.4744 233.023 47.4957 233.25 47.5384C233.479 47.5786 233.701 47.6626 233.914 47.7905C234.129 47.9183 234.308 48.1113 234.45 48.3693C234.592 48.6274 234.663 48.973 234.663 49.4062V53H233.825V52.2614H233.782C233.726 52.3797 233.631 52.5064 233.498 52.6413C233.366 52.7763 233.189 52.8911 232.969 52.9858C232.749 53.0805 232.48 53.1278 232.163 53.1278ZM232.291 52.375C232.622 52.375 232.902 52.3099 233.129 52.1797C233.359 52.0495 233.532 51.8814 233.648 51.6754C233.766 51.4695 233.825 51.2528 233.825 51.0256V50.2585C233.79 50.3011 233.711 50.3402 233.591 50.3757C233.472 50.4089 233.335 50.4384 233.179 50.4645C233.025 50.4882 232.875 50.5095 232.728 50.5284C232.583 50.545 232.466 50.5592 232.376 50.571C232.158 50.5994 231.955 50.6456 231.765 50.7095C231.578 50.7711 231.427 50.8646 231.311 50.9901C231.197 51.1132 231.14 51.2812 231.14 51.4943C231.14 51.7855 231.248 52.0057 231.464 52.1548C231.681 52.3016 231.957 52.375 232.291 52.375ZM239.843 45.7273V53H239.005V45.7273H239.843ZM243.594 53.1136C243.102 53.1136 242.67 52.9964 242.298 52.7621C241.929 52.5277 241.64 52.1998 241.432 51.7784C241.226 51.357 241.123 50.8646 241.123 50.3011C241.123 49.733 241.226 49.237 241.432 48.8132C241.64 48.3894 241.929 48.0604 242.298 47.826C242.67 47.5916 243.102 47.4744 243.594 47.4744C244.087 47.4744 244.518 47.5916 244.887 47.826C245.259 48.0604 245.547 48.3894 245.753 48.8132C245.962 49.237 246.066 49.733 246.066 50.3011C246.066 50.8646 245.962 51.357 245.753 51.7784C245.547 52.1998 245.259 52.5277 244.887 52.7621C244.518 52.9964 244.087 53.1136 243.594 53.1136ZM243.594 52.3608C243.968 52.3608 244.276 52.2649 244.518 52.0732C244.759 51.8814 244.938 51.6293 245.054 51.3168C245.17 51.0043 245.228 50.6657 245.228 50.3011C245.228 49.9366 245.17 49.5968 245.054 49.282C244.938 48.9671 244.759 48.7126 244.518 48.5185C244.276 48.3243 243.968 48.2273 243.594 48.2273C243.22 48.2273 242.912 48.3243 242.671 48.5185C242.43 48.7126 242.251 48.9671 242.135 49.282C242.019 49.5968 241.961 49.9366 241.961 50.3011C241.961 50.6657 242.019 51.0043 242.135 51.3168C242.251 51.6293 242.43 51.8814 242.671 52.0732C242.912 52.2649 243.22 52.3608 243.594 52.3608ZM248.126 51.0114L248.112 49.9744H248.283L250.669 47.5455H251.706L249.163 50.1165H249.092L248.126 51.0114ZM247.345 53V45.7273H248.183V53H247.345ZM250.811 53L248.68 50.3011L249.277 49.7188L251.876 53H250.811ZM254.39 53.1278C254.044 53.1278 253.73 53.0627 253.449 52.9325C253.167 52.8 252.943 52.6094 252.778 52.3608C252.612 52.1098 252.529 51.8068 252.529 51.4517C252.529 51.1392 252.59 50.8859 252.714 50.6918C252.837 50.4953 253.001 50.3414 253.207 50.2301C253.413 50.1188 253.64 50.036 253.889 49.9815C254.14 49.9247 254.392 49.8797 254.645 49.8466C254.977 49.804 255.246 49.772 255.452 49.7507C255.66 49.727 255.811 49.688 255.906 49.6335C256.003 49.5791 256.052 49.4844 256.052 49.3494V49.321C256.052 48.9706 255.956 48.6984 255.764 48.5043C255.575 48.3101 255.287 48.2131 254.901 48.2131C254.501 48.2131 254.187 48.3007 253.96 48.4759C253.733 48.651 253.573 48.8381 253.481 49.0369L252.685 48.7528C252.827 48.4214 253.017 48.1634 253.253 47.9787C253.492 47.7917 253.753 47.6615 254.035 47.5881C254.319 47.5123 254.598 47.4744 254.873 47.4744C255.048 47.4744 255.249 47.4957 255.476 47.5384C255.706 47.5786 255.927 47.6626 256.14 47.7905C256.356 47.9183 256.535 48.1113 256.677 48.3693C256.819 48.6274 256.89 48.973 256.89 49.4062V53H256.052V52.2614H256.009C255.952 52.3797 255.858 52.5064 255.725 52.6413C255.592 52.7763 255.416 52.8911 255.196 52.9858C254.976 53.0805 254.707 53.1278 254.39 53.1278ZM254.518 52.375C254.849 52.375 255.128 52.3099 255.356 52.1797C255.585 52.0495 255.758 51.8814 255.874 51.6754C255.992 51.4695 256.052 51.2528 256.052 51.0256V50.2585C256.016 50.3011 255.938 50.3402 255.817 50.3757C255.699 50.4089 255.562 50.4384 255.405 50.4645C255.251 50.4882 255.101 50.5095 254.954 50.5284C254.81 50.545 254.693 50.5592 254.603 50.571C254.385 50.5994 254.181 50.6456 253.992 50.7095C253.805 50.7711 253.653 50.8646 253.537 50.9901C253.424 51.1132 253.367 51.2812 253.367 51.4943C253.367 51.7855 253.475 52.0057 253.69 52.1548C253.908 52.3016 254.184 52.375 254.518 52.375ZM259.257 45.7273V53H258.419V45.7273H259.257ZM260.792 53V47.5455H261.631V53H260.792ZM261.219 46.6364C261.055 46.6364 260.914 46.5807 260.796 46.4695C260.68 46.3582 260.622 46.2244 260.622 46.0682C260.622 45.9119 260.68 45.7782 260.796 45.6669C260.914 45.5556 261.055 45.5 261.219 45.5C261.382 45.5 261.522 45.5556 261.638 45.6669C261.756 45.7782 261.815 45.9119 261.815 46.0682C261.815 46.2244 261.756 46.3582 261.638 46.4695C261.522 46.5807 261.382 46.6364 261.219 46.6364Z" fill="#D0D0D0"/>
<defs>
<linearGradient id="paint0_linear_6306_10257" x1="32.1625" y1="33.0098" x2="7.16248" y2="-3.24023" gradientUnits="userSpaceOnUse">
<stop stop-color="#1B1B1C"/>
<stop offset="1" stop-color="#FAAC79" stop-opacity="0.1"/>
</linearGradient>
<clipPath id="clip0_6306_10257">
<rect width="20" height="20" fill="white" transform="translate(22 23)"/>
</clipPath>
</defs>
</svg>
