<svg width="248" height="54" viewBox="0 0 248 54" fill="none" xmlns="http://www.w3.org/2000/svg">
<mask id="path-1-inside-1_6306_10257" fill="white">
<path d="M0 27C0 12.0883 12.0883 0 27 0H221C235.912 0 248 12.0883 248 27C248 41.9117 235.912 54 221 54H27C12.0883 54 0 41.9117 0 27Z"/>
</mask>
<path d="M0 27C0 12.0883 12.0883 0 27 0H221C235.912 0 248 12.0883 248 27C248 41.9117 235.912 54 221 54H27C12.0883 54 0 41.9117 0 27Z" fill="#1B1B1C" fill-opacity="0.9"/>
<path d="M-1 26.5C-1 11.3122 11.3122 -1 26.5 -1H221.5C236.688 -1 249 11.3122 249 26.5L247 27C247 12.6406 235.359 1 221 1H27C12.6406 1 1 12.6406 1 27L-1 26.5ZM248 54H0H248ZM26.5 54C11.3122 54 -1 41.6878 -1 26.5C-1 11.3122 11.3122 -1 26.5 -1L27 1C12.6406 1 1 12.6406 1 27C1 41.9117 12.6406 54 27 54H26.5ZM221.5 -1C236.688 -1 249 11.3122 249 26.5C249 41.6878 236.688 54 221.5 54H221C235.359 54 247 41.9117 247 27C247 12.6406 235.359 1 221 1L221.5 -1Z" fill="white" fill-opacity="0.1" mask="url(#path-1-inside-1_6306_10257)"/>
<mask id="path-3-inside-2_6306_10257" fill="white">
<path d="M8 27C8 16.5066 16.5066 8 27 8C37.4934 8 46 16.5066 46 27C46 37.4934 37.4934 46 27 46C16.5066 46 8 37.4934 8 27Z"/>
</mask>
<path d="M8 27C8 16.5066 16.5066 8 27 8C37.4934 8 46 16.5066 46 27C46 37.4934 37.4934 46 27 46C16.5066 46 8 37.4934 8 27Z" fill="url(#paint0_linear_6306_10257)"/>
<path d="M7 26.5C7 15.7304 15.7304 7 26.5 7H27.5C38.2696 7 47 15.7304 47 26.5L45 27C45 17.0589 36.9411 9 27 9C17.0589 9 9 17.0589 9 27L7 26.5ZM46 46H8H46ZM26.5 46C15.7304 46 7 37.2696 7 26.5C7 15.7304 15.7304 7 26.5 7L27 9C17.0589 9 9 17.0589 9 27C9 37.4934 17.0589 46 27 46H26.5ZM27.5 7C38.2696 7 47 15.7304 47 26.5C47 37.2696 38.2696 46 27.5 46H27C36.9411 46 45 37.4934 45 27C45 17.0589 36.9411 9 27 9L27.5 7Z" fill="white" fill-opacity="0.1" mask="url(#path-3-inside-2_6306_10257)"/>
<g clip-path="url(#clip0_6306_10257)">
<path d="M28.921 18.4551C29.4538 18.5009 29.9527 18.7359 30.3271 19.1177C30.7016 19.4995 30.9269 20.0028 30.9623 20.5364C31.0619 21.9197 31.1669 24.0722 31.1669 27.0001C31.1669 30.5855 31.0881 33.1818 31.0319 34.576C31.0187 34.893 30.8831 35.1925 30.6535 35.4115C30.4239 35.6305 30.1183 35.7519 29.801 35.7501H19.6202C19.302 35.7515 18.9956 35.6293 18.7656 35.4094C18.5356 35.1895 18.3998 34.8889 18.3869 34.571C18.3306 33.1443 18.2502 30.493 18.2502 27.0001C18.2502 24.1426 18.3577 21.966 18.4585 20.5555C18.4938 20.0175 18.7204 19.5098 19.0973 19.1242C19.4743 18.7387 19.9768 18.5008 20.5139 18.4535C21.6244 18.351 23.1206 18.2501 24.7085 18.2501C26.3048 18.2501 27.8085 18.3518 28.921 18.4551Z" stroke="white" stroke-width="1.12906" stroke-linecap="round" stroke-linejoin="round"/>
<path d="M29.8016 35.7516H34.4146C34.7336 35.7531 35.0408 35.6307 35.2714 35.4103C35.5021 35.1899 35.6383 34.8886 35.6513 34.5698C35.6955 33.4497 35.7513 31.6529 35.7513 29.7094C35.7513 28.2247 35.6863 26.8862 35.6159 25.8749C35.5376 24.7414 34.6592 23.8505 33.5253 23.7718C32.7242 23.716 31.9218 23.6825 31.1188 23.6714M26.7572 35.7516L26.7597 35.7079C26.7776 35.2495 26.7922 34.5923 26.7922 33.6681C26.7922 32.7438 26.7776 32.0867 26.7597 31.6283C26.7351 31.0083 26.3888 30.484 25.7742 30.399C25.4209 30.3536 25.0649 30.332 24.7087 30.3345C24.3525 30.332 23.9965 30.3536 23.6432 30.399C23.0285 30.484 22.6822 31.0083 22.6577 31.6283C22.6397 32.0867 22.6252 32.7438 22.6252 33.6681C22.6232 34.3628 22.6348 35.0574 22.6602 35.7516M22.4168 22.0004V22.8338M22.4168 26.5841V27.4175M27.0006 22.0004V22.8338M27.0006 26.5841V27.4175" stroke="white" stroke-width="1.12906" stroke-linecap="round" stroke-linejoin="round"/>
</g>
<path d="M54.168 12.404V11.324H60.564V12.404H57.96V20H56.784V12.404H54.168ZM62.3455 20L60.4255 14.132H61.5895L62.5615 17.18C62.6935 17.612 62.8135 18.056 62.9215 18.572C63.0175 18.056 63.1735 17.564 63.3055 17.18L64.2895 14.132H65.4415L66.4135 17.18C66.5095 17.468 66.7015 18.152 66.7975 18.572C66.8935 18.104 67.0015 17.696 67.1695 17.18L68.1535 14.132H69.3295L67.3255 20H66.2575L65.2375 16.856C65.0455 16.268 64.9255 15.812 64.8655 15.488C64.8055 15.776 64.6975 16.16 64.4815 16.868L63.4615 20H62.3455ZM69.6429 17.06C69.6429 15.248 70.9389 13.976 72.7029 13.976C74.4549 13.976 75.7509 15.248 75.7509 17.06C75.7509 18.872 74.4549 20.144 72.7029 20.144C70.9389 20.144 69.6429 18.872 69.6429 17.06ZM70.7829 17.06C70.7829 18.284 71.5629 19.136 72.7029 19.136C73.8309 19.136 74.6229 18.284 74.6229 17.06C74.6229 15.836 73.8309 14.984 72.7029 14.984C71.5629 14.984 70.7829 15.836 70.7829 17.06ZM80.3596 14.084V15.116H79.8556C78.7876 15.116 78.1276 15.764 78.1276 16.892V20H76.9996V14.144H78.0556L78.1276 15.032C78.3676 14.42 78.9556 14.012 79.7596 14.012C79.9636 14.012 80.1316 14.036 80.3596 14.084ZM85.7819 20H81.2099V19.088L84.3779 15.08H81.2099V14.132H85.7819V15.056L82.5899 19.052H85.7819V20ZM89.4574 20.144C87.7294 20.144 86.5414 18.896 86.5414 17.072C86.5414 15.236 87.7054 13.964 89.4094 13.964C91.0774 13.964 92.1694 15.116 92.1694 16.856V17.276L87.6334 17.288C87.7174 18.524 88.3654 19.208 89.4814 19.208C90.3574 19.208 90.9334 18.848 91.1254 18.176H92.1814C91.8934 19.436 90.9094 20.144 89.4574 20.144ZM89.4094 14.912C88.4254 14.912 87.8014 15.5 87.6574 16.532H91.0414C91.0414 15.56 90.4054 14.912 89.4094 14.912ZM94.5573 20H93.4293V14.132H94.4493L94.5693 15.032C94.9413 14.36 95.6853 13.964 96.5133 13.964C98.0613 13.964 98.7693 14.912 98.7693 16.412V20H97.6413V16.664C97.6413 15.476 97.0893 14.996 96.2253 14.996C95.1693 14.996 94.5573 15.752 94.5573 16.892V20ZM100.884 12.74C100.476 12.74 100.14 12.404 100.14 11.996C100.14 11.576 100.476 11.252 100.884 11.252C101.292 11.252 101.628 11.576 101.628 11.996C101.628 12.404 101.292 12.74 100.884 12.74ZM100.332 20V14.132H101.46V20H100.332ZM105.629 20.144C103.901 20.144 102.713 18.896 102.713 17.072C102.713 15.236 103.877 13.964 105.581 13.964C107.249 13.964 108.341 15.116 108.341 16.856V17.276L103.805 17.288C103.889 18.524 104.537 19.208 105.653 19.208C106.529 19.208 107.105 18.848 107.297 18.176H108.353C108.065 19.436 107.081 20.144 105.629 20.144ZM105.581 14.912C104.597 14.912 103.973 15.5 103.829 16.532H107.213C107.213 15.56 106.577 14.912 105.581 14.912ZM113.434 12.74C113.026 12.74 112.69 12.404 112.69 11.996C112.69 11.576 113.026 11.252 113.434 11.252C113.842 11.252 114.178 11.576 114.178 11.996C114.178 12.404 113.842 12.74 113.434 12.74ZM112.882 20V14.132H114.01V20H112.882ZM116.776 20H115.648V14.132H116.668L116.788 15.032C117.16 14.36 117.904 13.964 118.732 13.964C120.28 13.964 120.988 14.912 120.988 16.412V20H119.86V16.664C119.86 15.476 119.308 14.996 118.444 14.996C117.388 14.996 116.776 15.752 116.776 16.892V20ZM123.728 20L121.808 14.132H122.972L123.944 17.18C124.076 17.612 124.196 18.056 124.304 18.572C124.4 18.056 124.556 17.564 124.688 17.18L125.672 14.132H126.824L127.796 17.18C127.892 17.468 128.084 18.152 128.18 18.572C128.276 18.104 128.384 17.696 128.552 17.18L129.536 14.132H130.712L128.708 20H127.64L126.62 16.856C126.428 16.268 126.308 15.812 126.248 15.488C126.188 15.776 126.08 16.16 125.864 16.868L124.844 20H123.728ZM133.942 20.144C132.214 20.144 131.026 18.896 131.026 17.072C131.026 15.236 132.19 13.964 133.894 13.964C135.562 13.964 136.654 15.116 136.654 16.856V17.276L132.118 17.288C132.202 18.524 132.85 19.208 133.966 19.208C134.842 19.208 135.418 18.848 135.61 18.176H136.666C136.378 19.436 135.394 20.144 133.942 20.144ZM133.894 14.912C132.91 14.912 132.286 15.5 132.142 16.532H135.526C135.526 15.56 134.89 14.912 133.894 14.912ZM137.434 18.296H138.514C138.514 18.896 138.97 19.256 139.714 19.256C140.506 19.256 140.962 18.932 140.962 18.392C140.962 17.996 140.77 17.756 140.158 17.6L139.126 17.36C138.082 17.108 137.59 16.592 137.59 15.728C137.59 14.648 138.502 13.964 139.798 13.964C141.082 13.964 141.922 14.684 141.946 15.8H140.866C140.842 15.212 140.446 14.84 139.762 14.84C139.054 14.84 138.658 15.152 138.658 15.692C138.658 16.088 138.946 16.352 139.522 16.496L140.554 16.748C141.55 16.988 142.042 17.444 142.042 18.32C142.042 19.436 141.082 20.144 139.69 20.144C138.31 20.144 137.434 19.412 137.434 18.296ZM144.949 20H143.821V15.08H142.669V14.132H143.821V12.296H144.949V14.132H146.101V15.08H144.949V20ZM146.549 22.628V21.704H147.305C147.845 21.704 148.277 21.62 148.553 20.876L148.757 20.312L146.393 14.132H147.581L149.285 18.86L151.025 14.132H152.189L149.417 21.32C149.021 22.328 148.433 22.748 147.533 22.748C147.161 22.748 146.849 22.7 146.549 22.628ZM152.483 17.072C152.483 15.236 153.647 13.964 155.363 13.964C156.839 13.964 157.871 14.804 158.075 16.112H156.947C156.755 15.368 156.155 14.972 155.399 14.972C154.331 14.972 153.599 15.788 153.599 17.06C153.599 18.32 154.283 19.136 155.351 19.136C156.155 19.136 156.755 18.716 156.959 18.02H158.087C157.859 19.292 156.767 20.144 155.351 20.144C153.623 20.144 152.483 18.92 152.483 17.072ZM159.841 12.74C159.421 12.74 159.097 12.404 159.097 11.996C159.097 11.576 159.421 11.252 159.841 11.252C160.237 11.252 160.585 11.576 160.585 11.996C160.585 12.404 160.237 12.74 159.841 12.74ZM157.789 22.664L157.981 21.644C158.209 21.704 158.341 21.728 158.521 21.728C159.061 21.728 159.277 21.416 159.277 20.756V14.132H160.405V20.864C160.405 22.04 159.757 22.772 158.617 22.772C158.317 22.772 158.125 22.76 157.789 22.664ZM162.595 12.74C162.187 12.74 161.851 12.404 161.851 11.996C161.851 11.576 162.187 11.252 162.595 11.252C163.003 11.252 163.339 11.576 163.339 11.996C163.339 12.404 163.003 12.74 162.595 12.74ZM162.043 20V14.132H163.171V20H162.043ZM169.349 20L167.429 14.132H168.593L169.565 17.18C169.697 17.612 169.817 18.056 169.925 18.572C170.021 18.056 170.177 17.564 170.309 17.18L171.293 14.132H172.445L173.417 17.18C173.513 17.468 173.705 18.152 173.801 18.572C173.897 18.104 174.005 17.696 174.173 17.18L175.157 14.132H176.333L174.329 20H173.261L172.241 16.856C172.049 16.268 171.929 15.812 171.869 15.488C171.809 15.776 171.701 16.16 171.485 16.868L170.465 20H169.349ZM183.27 20.144C181.494 20.144 180.342 19.016 180.342 17.288H181.506C181.506 18.404 182.19 19.088 183.294 19.088C184.47 19.088 185.226 18.308 185.226 17.132C185.226 16.016 184.518 15.188 183.306 15.188C182.574 15.188 181.902 15.536 181.506 16.028L180.51 15.776L181.566 11.324H185.91V12.404H182.418L181.842 14.708C182.298 14.36 182.874 14.18 183.522 14.18C185.286 14.18 186.426 15.416 186.426 17.084C186.426 18.884 185.142 20.144 183.27 20.144ZM192.081 20H190.953V14.132H191.961L192.069 14.9C192.369 14.348 192.993 13.964 193.821 13.964C194.733 13.964 195.381 14.42 195.681 15.152C195.957 14.42 196.665 13.964 197.577 13.964C198.921 13.964 199.737 14.804 199.737 16.16V20H198.633V16.436C198.633 15.512 198.117 14.984 197.325 14.984C196.473 14.984 195.909 15.584 195.909 16.52V20H194.793V16.424C194.793 15.5 194.289 14.996 193.497 14.996C192.645 14.996 192.081 15.584 192.081 16.52V20ZM201.852 12.74C201.444 12.74 201.108 12.404 201.108 11.996C201.108 11.576 201.444 11.252 201.852 11.252C202.26 11.252 202.596 11.576 202.596 11.996C202.596 12.404 202.26 12.74 201.852 12.74ZM201.3 20V14.132H202.428V20H201.3ZM205.194 20H204.066V14.132H205.086L205.206 15.032C205.578 14.36 206.322 13.964 207.15 13.964C208.698 13.964 209.406 14.912 209.406 16.412V20H208.278V16.664C208.278 15.476 207.726 14.996 206.862 14.996C205.806 14.996 205.194 15.752 205.194 16.892V20ZM215.024 14.132H216.14V20H215.132L215.012 19.112C214.676 19.724 213.896 20.144 213.032 20.144C211.664 20.144 210.896 19.22 210.896 17.78V14.132H212.024V17.408C212.024 18.668 212.564 19.148 213.428 19.148C214.46 19.148 215.024 18.488 215.024 17.228V14.132ZM219.433 20H218.305V15.08H217.153V14.132H218.305V12.296H219.433V14.132H220.585V15.08H219.433V20Z" fill="white"/>
<path d="M55.7614 32L54.1705 26.1818H54.8864L56.1023 30.9205H56.1591L57.3977 26.1818H58.1932L59.4318 30.9205H59.4886L60.7045 26.1818H61.4205L59.8295 32H59.1023L57.8182 27.3636H57.7727L56.4886 32H55.7614ZM62.6392 33.6364C62.5256 33.6364 62.4242 33.6269 62.3352 33.608C62.2462 33.5909 62.1847 33.5739 62.1506 33.5568L62.321 32.9659C62.4839 33.0076 62.6278 33.0227 62.7528 33.0114C62.8778 33 62.9886 32.9441 63.0852 32.8438C63.1837 32.7453 63.2737 32.5852 63.3551 32.3636L63.4801 32.0227L61.8665 27.6364H62.5938L63.7983 31.1136H63.8438L65.0483 27.6364H65.7756L63.9233 32.6364C63.84 32.8617 63.7367 33.0483 63.6136 33.196C63.4905 33.3456 63.3475 33.4564 63.1847 33.5284C63.0237 33.6004 62.8419 33.6364 62.6392 33.6364ZM66.6605 33.6364V27.6364H67.3082V28.3295H67.3878C67.437 28.2538 67.5052 28.1572 67.5923 28.0398C67.6813 27.9205 67.8082 27.8144 67.973 27.7216C68.1397 27.6269 68.3651 27.5795 68.6491 27.5795C69.0166 27.5795 69.3404 27.6714 69.6207 27.8551C69.901 28.0388 70.1198 28.2992 70.277 28.6364C70.4342 28.9735 70.5128 29.3712 70.5128 29.8295C70.5128 30.2917 70.4342 30.6922 70.277 31.0312C70.1198 31.3684 69.902 31.6297 69.6236 31.8153C69.3452 31.9991 69.0241 32.0909 68.6605 32.0909C68.3802 32.0909 68.1558 32.0445 67.9872 31.9517C67.8187 31.857 67.6889 31.75 67.598 31.6307C67.5071 31.5095 67.437 31.4091 67.3878 31.3295H67.331V33.6364H66.6605ZM67.3196 29.8182C67.3196 30.1477 67.3679 30.4384 67.4645 30.6903C67.5611 30.9403 67.7022 31.1364 67.8878 31.2784C68.0734 31.4186 68.3007 31.4886 68.5696 31.4886C68.8499 31.4886 69.0838 31.4148 69.2713 31.267C69.4607 31.1174 69.6027 30.9167 69.6974 30.6648C69.794 30.411 69.8423 30.1288 69.8423 29.8182C69.8423 29.5114 69.795 29.2348 69.7003 28.9886C69.6075 28.7405 69.4664 28.5445 69.277 28.4006C69.0895 28.2547 68.8537 28.1818 68.5696 28.1818C68.2969 28.1818 68.0677 28.2509 67.8821 28.3892C67.6965 28.5256 67.5563 28.7169 67.4616 28.9631C67.367 29.2074 67.3196 29.4924 67.3196 29.8182ZM73.3651 32.0909C72.9446 32.0909 72.5819 31.9981 72.277 31.8125C71.974 31.625 71.7401 31.3636 71.5753 31.0284C71.4124 30.6913 71.331 30.2992 71.331 29.8523C71.331 29.4053 71.4124 29.0114 71.5753 28.6705C71.7401 28.3277 71.9692 28.0606 72.2628 27.8693C72.5582 27.6761 72.9029 27.5795 73.2969 27.5795C73.5241 27.5795 73.7486 27.6174 73.9702 27.6932C74.1918 27.7689 74.3935 27.892 74.5753 28.0625C74.7571 28.2311 74.902 28.4545 75.0099 28.733C75.1179 29.0114 75.1719 29.3542 75.1719 29.7614V30.0455H71.8082V29.4659H74.4901C74.4901 29.2197 74.4408 29 74.3423 28.8068C74.2457 28.6136 74.1075 28.4612 73.9276 28.3494C73.7495 28.2377 73.5393 28.1818 73.2969 28.1818C73.0298 28.1818 72.7988 28.2481 72.6037 28.3807C72.4105 28.5114 72.2618 28.6818 72.1577 28.892C72.0535 29.1023 72.0014 29.3277 72.0014 29.5682V29.9545C72.0014 30.2841 72.0582 30.5634 72.1719 30.7926C72.2874 31.0199 72.4474 31.1932 72.652 31.3125C72.8565 31.4299 73.0942 31.4886 73.3651 31.4886C73.5412 31.4886 73.7003 31.464 73.8423 31.4148C73.9863 31.3636 74.1103 31.2879 74.2145 31.1875C74.3187 31.0852 74.3991 30.9583 74.456 30.8068L75.1037 30.9886C75.0355 31.2083 74.9209 31.4015 74.7599 31.5682C74.599 31.733 74.4001 31.8617 74.1634 31.9545C73.9266 32.0455 73.6605 32.0909 73.3651 32.0909ZM77.4872 28.3636V28.8636L75.5668 29.5909V29.0909L77.4872 28.3636ZM76.8622 26.1818V32H76.1918V26.1818H76.8622ZM78.7607 29.375V32H78.0902V27.6364H78.7379V28.3182H78.7947C78.897 28.0966 79.0523 27.9186 79.2607 27.7841C79.469 27.6477 79.7379 27.5795 80.0675 27.5795C80.3629 27.5795 80.6214 27.6402 80.843 27.7614C81.0646 27.8807 81.237 28.0625 81.3601 28.3068C81.4832 28.5492 81.5447 28.8561 81.5447 29.2273V32H80.8743V29.2727C80.8743 28.9299 80.7853 28.6629 80.6072 28.4716C80.4292 28.2784 80.1849 28.1818 79.8743 28.1818C79.6603 28.1818 79.469 28.2282 79.3004 28.321C79.1338 28.4138 79.0021 28.5492 78.9055 28.7273C78.8089 28.9053 78.7607 29.1212 78.7607 29.375ZM82.7699 32V27.6364H83.4403V32H82.7699ZM83.1108 26.9091C82.9801 26.9091 82.8674 26.8646 82.7727 26.7756C82.6799 26.6866 82.6335 26.5795 82.6335 26.4545C82.6335 26.3295 82.6799 26.2225 82.7727 26.1335C82.8674 26.0445 82.9801 26 83.1108 26C83.2415 26 83.3532 26.0445 83.446 26.1335C83.5407 26.2225 83.5881 26.3295 83.5881 26.4545C83.5881 26.5795 83.5407 26.6866 83.446 26.7756C83.3532 26.8646 83.2415 26.9091 83.1108 26.9091ZM84.6683 27.6364H85.3388V32.3182C85.3388 32.5871 85.2924 32.8201 85.1996 33.017C85.1087 33.214 84.9704 33.3665 84.7848 33.4744C84.6011 33.5824 84.3691 33.6364 84.0888 33.6364C84.0661 33.6364 84.0433 33.6364 84.0206 33.6364C83.9979 33.6364 83.9751 33.6364 83.9524 33.6364V33.0114C83.9751 33.0114 83.996 33.0114 84.0149 33.0114C84.0339 33.0114 84.0547 33.0114 84.0774 33.0114C84.282 33.0114 84.4316 32.9508 84.5263 32.8295C84.621 32.7102 84.6683 32.5398 84.6683 32.3182V27.6364ZM84.9979 26.9091C84.8672 26.9091 84.7545 26.8646 84.6598 26.7756C84.567 26.6866 84.5206 26.5795 84.5206 26.4545C84.5206 26.3295 84.567 26.2225 84.6598 26.1335C84.7545 26.0445 84.8672 26 84.9979 26C85.1286 26 85.2403 26.0445 85.3331 26.1335C85.4278 26.2225 85.4751 26.3295 85.4751 26.4545C85.4751 26.5795 85.4278 26.6866 85.3331 26.7756C85.2403 26.8646 85.1286 26.9091 84.9979 26.9091ZM88.8168 33.6364V27.6364H89.4645V28.3295H89.544C89.5933 28.2538 89.6615 28.1572 89.7486 28.0398C89.8376 27.9205 89.9645 27.8144 90.1293 27.7216C90.2959 27.6269 90.5213 27.5795 90.8054 27.5795C91.1728 27.5795 91.4967 27.6714 91.777 27.8551C92.0573 28.0388 92.276 28.2992 92.4332 28.6364C92.5904 28.9735 92.669 29.3712 92.669 29.8295C92.669 30.2917 92.5904 30.6922 92.4332 31.0312C92.276 31.3684 92.0582 31.6297 91.7798 31.8153C91.5014 31.9991 91.1804 32.0909 90.8168 32.0909C90.5365 32.0909 90.312 32.0445 90.1435 31.9517C89.9749 31.857 89.8452 31.75 89.7543 31.6307C89.6634 31.5095 89.5933 31.4091 89.544 31.3295H89.4872V33.6364H88.8168ZM89.4759 29.8182C89.4759 30.1477 89.5241 30.4384 89.6207 30.6903C89.7173 30.9403 89.8584 31.1364 90.044 31.2784C90.2296 31.4186 90.4569 31.4886 90.7259 31.4886C91.0062 31.4886 91.2401 31.4148 91.4276 31.267C91.617 31.1174 91.759 30.9167 91.8537 30.6648C91.9503 30.411 91.9986 30.1288 91.9986 29.8182C91.9986 29.5114 91.9512 29.2348 91.8565 28.9886C91.7637 28.7405 91.6226 28.5445 91.4332 28.4006C91.2457 28.2547 91.0099 28.1818 90.7259 28.1818C90.4531 28.1818 90.224 28.2509 90.0384 28.3892C89.8527 28.5256 89.7126 28.7169 89.6179 28.9631C89.5232 29.2074 89.4759 29.4924 89.4759 29.8182ZM93.6918 32V27.6364H94.3395V28.2955H94.3849C94.4645 28.0795 94.6084 27.9044 94.8168 27.7699C95.0251 27.6354 95.2599 27.5682 95.5213 27.5682C95.5705 27.5682 95.6321 27.5691 95.706 27.571C95.7798 27.5729 95.8357 27.5758 95.8736 27.5795V28.2614C95.8509 28.2557 95.7988 28.2472 95.7173 28.2358C95.6378 28.2225 95.5535 28.2159 95.4645 28.2159C95.2524 28.2159 95.063 28.2604 94.8963 28.3494C94.7315 28.4366 94.6009 28.5578 94.5043 28.7131C94.4096 28.8665 94.3622 29.0417 94.3622 29.2386V32H93.6918ZM98.3082 32.0909C97.9143 32.0909 97.5687 31.9972 97.2713 31.8097C96.9759 31.6222 96.7448 31.3598 96.5781 31.0227C96.4134 30.6856 96.331 30.2917 96.331 29.8409C96.331 29.3864 96.4134 28.9896 96.5781 28.6506C96.7448 28.3116 96.9759 28.0483 97.2713 27.8608C97.5687 27.6733 97.9143 27.5795 98.3082 27.5795C98.7022 27.5795 99.0469 27.6733 99.3423 27.8608C99.6397 28.0483 99.8707 28.3116 100.036 28.6506C100.202 28.9896 100.286 29.3864 100.286 29.8409C100.286 30.2917 100.202 30.6856 100.036 31.0227C99.8707 31.3598 99.6397 31.6222 99.3423 31.8097C99.0469 31.9972 98.7022 32.0909 98.3082 32.0909ZM98.3082 31.4886C98.6075 31.4886 98.8537 31.4119 99.0469 31.2585C99.2401 31.1051 99.383 30.9034 99.4759 30.6534C99.5687 30.4034 99.6151 30.1326 99.6151 29.8409C99.6151 29.5492 99.5687 29.2775 99.4759 29.0256C99.383 28.7737 99.2401 28.5701 99.0469 28.4148C98.8537 28.2595 98.6075 28.1818 98.3082 28.1818C98.009 28.1818 97.7628 28.2595 97.5696 28.4148C97.3764 28.5701 97.2334 28.7737 97.1406 29.0256C97.0478 29.2775 97.0014 29.5492 97.0014 29.8409C97.0014 30.1326 97.0478 30.4034 97.1406 30.6534C97.2334 30.9034 97.3764 31.1051 97.5696 31.2585C97.7628 31.4119 98.009 31.4886 98.3082 31.4886ZM104.4 28.6136L103.798 28.7841C103.76 28.6837 103.704 28.5862 103.63 28.4915C103.558 28.3949 103.46 28.3153 103.335 28.2528C103.21 28.1903 103.049 28.1591 102.854 28.1591C102.587 28.1591 102.365 28.2206 102.187 28.3438C102.011 28.465 101.923 28.6193 101.923 28.8068C101.923 28.9735 101.983 29.1051 102.104 29.2017C102.226 29.2983 102.415 29.3788 102.673 29.4432L103.32 29.6023C103.71 29.697 104.001 29.8419 104.192 30.0369C104.384 30.2301 104.479 30.4792 104.479 30.7841C104.479 31.0341 104.407 31.2576 104.263 31.4545C104.121 31.6515 103.923 31.8068 103.667 31.9205C103.411 32.0341 103.114 32.0909 102.775 32.0909C102.33 32.0909 101.961 31.9943 101.67 31.8011C101.378 31.608 101.193 31.3258 101.116 30.9545L101.752 30.7955C101.813 31.0303 101.927 31.2064 102.096 31.3239C102.266 31.4413 102.489 31.5 102.763 31.5C103.076 31.5 103.324 31.4337 103.508 31.3011C103.693 31.1667 103.786 31.0057 103.786 30.8182C103.786 30.6667 103.733 30.5398 103.627 30.4375C103.521 30.3333 103.358 30.2557 103.138 30.2045L102.411 30.0341C102.012 29.9394 101.718 29.7926 101.531 29.5938C101.345 29.393 101.252 29.142 101.252 28.8409C101.252 28.5947 101.321 28.3769 101.46 28.1875C101.6 27.9981 101.79 27.8494 102.031 27.7415C102.273 27.6335 102.548 27.5795 102.854 27.5795C103.286 27.5795 103.625 27.6742 103.871 27.8636C104.12 28.053 104.296 28.303 104.4 28.6136ZM107.386 27.6364V28.2045H105.125V27.6364H107.386ZM105.784 26.5909H106.455V30.75C106.455 30.9394 106.482 31.0814 106.537 31.1761C106.594 31.2689 106.666 31.3314 106.753 31.3636C106.842 31.3939 106.936 31.4091 107.034 31.4091C107.108 31.4091 107.169 31.4053 107.216 31.3977C107.263 31.3883 107.301 31.3807 107.33 31.375L107.466 31.9773C107.42 31.9943 107.357 32.0114 107.276 32.0284C107.194 32.0473 107.091 32.0568 106.966 32.0568C106.777 32.0568 106.591 32.0161 106.409 31.9347C106.229 31.8532 106.08 31.7292 105.96 31.5625C105.843 31.3958 105.784 31.1856 105.784 30.9318V26.5909ZM108.827 33.6364C108.713 33.6364 108.612 33.6269 108.523 33.608C108.434 33.5909 108.372 33.5739 108.338 33.5568L108.509 32.9659C108.671 33.0076 108.815 33.0227 108.94 33.0114C109.065 33 109.176 32.9441 109.273 32.8438C109.371 32.7453 109.461 32.5852 109.543 32.3636L109.668 32.0227L108.054 27.6364H108.781L109.986 31.1136H110.031L111.236 27.6364H111.963L110.111 32.6364C110.027 32.8617 109.924 33.0483 109.801 33.196C109.678 33.3456 109.535 33.4564 109.372 33.5284C109.211 33.6004 109.029 33.6364 108.827 33.6364ZM117.041 27.6364V28.2045H114.689V27.6364H117.041ZM115.393 32V27.0341C115.393 26.7841 115.452 26.5758 115.57 26.4091C115.687 26.2424 115.839 26.1174 116.027 26.0341C116.214 25.9508 116.412 25.9091 116.621 25.9091C116.786 25.9091 116.92 25.9223 117.024 25.9489C117.128 25.9754 117.206 26 117.257 26.0227L117.064 26.6023C117.03 26.5909 116.982 26.5767 116.922 26.5597C116.863 26.5426 116.786 26.5341 116.689 26.5341C116.467 26.5341 116.307 26.59 116.209 26.7017C116.112 26.8134 116.064 26.9773 116.064 27.1932V32H115.393ZM119.574 32.0909C119.18 32.0909 118.834 31.9972 118.537 31.8097C118.241 31.6222 118.01 31.3598 117.844 31.0227C117.679 30.6856 117.597 30.2917 117.597 29.8409C117.597 29.3864 117.679 28.9896 117.844 28.6506C118.01 28.3116 118.241 28.0483 118.537 27.8608C118.834 27.6733 119.18 27.5795 119.574 27.5795C119.968 27.5795 120.313 27.6733 120.608 27.8608C120.905 28.0483 121.136 28.3116 121.301 28.6506C121.468 28.9896 121.551 29.3864 121.551 29.8409C121.551 30.2917 121.468 30.6856 121.301 31.0227C121.136 31.3598 120.905 31.6222 120.608 31.8097C120.313 31.9972 119.968 32.0909 119.574 32.0909ZM119.574 31.4886C119.873 31.4886 120.119 31.4119 120.312 31.2585C120.506 31.1051 120.649 30.9034 120.741 30.6534C120.834 30.4034 120.881 30.1326 120.881 29.8409C120.881 29.5492 120.834 29.2775 120.741 29.0256C120.649 28.7737 120.506 28.5701 120.312 28.4148C120.119 28.2595 119.873 28.1818 119.574 28.1818C119.275 28.1818 119.028 28.2595 118.835 28.4148C118.642 28.5701 118.499 28.7737 118.406 29.0256C118.313 29.2775 118.267 29.5492 118.267 29.8409C118.267 30.1326 118.313 30.4034 118.406 30.6534C118.499 30.9034 118.642 31.1051 118.835 31.2585C119.028 31.4119 119.275 31.4886 119.574 31.4886ZM122.575 32V27.6364H123.222V28.2955H123.268C123.347 28.0795 123.491 27.9044 123.7 27.7699C123.908 27.6354 124.143 27.5682 124.404 27.5682C124.453 27.5682 124.515 27.5691 124.589 27.571C124.663 27.5729 124.719 27.5758 124.756 27.5795V28.2614C124.734 28.2557 124.682 28.2472 124.6 28.2358C124.521 28.2225 124.436 28.2159 124.347 28.2159C124.135 28.2159 123.946 28.2604 123.779 28.3494C123.614 28.4366 123.484 28.5578 123.387 28.7131C123.292 28.8665 123.245 29.0417 123.245 29.2386V32H122.575ZM125.551 32V27.6364H126.199V28.3182H126.256C126.347 28.0852 126.493 27.9044 126.696 27.7756C126.899 27.6449 127.142 27.5795 127.426 27.5795C127.714 27.5795 127.954 27.6449 128.145 27.7756C128.338 27.9044 128.489 28.0852 128.597 28.3182H128.642C128.754 28.0928 128.921 27.9138 129.145 27.7812C129.368 27.6468 129.636 27.5795 129.949 27.5795C130.339 27.5795 130.658 27.7017 130.906 27.946C131.154 28.1884 131.278 28.5663 131.278 29.0795V32H130.608V29.0795C130.608 28.7576 130.52 28.5275 130.344 28.3892C130.168 28.2509 129.96 28.1818 129.722 28.1818C129.415 28.1818 129.177 28.2746 129.009 28.4602C128.84 28.6439 128.756 28.8769 128.756 29.1591V32H128.074V29.0114C128.074 28.7633 127.993 28.5634 127.832 28.4119C127.671 28.2585 127.464 28.1818 127.21 28.1818C127.036 28.1818 126.873 28.2282 126.722 28.321C126.572 28.4138 126.451 28.5426 126.358 28.7074C126.267 28.8703 126.222 29.0587 126.222 29.2727V32H125.551ZM135.254 30.2159V27.6364H135.925V32H135.254V31.2614H135.209C135.107 31.483 134.947 31.6714 134.732 31.8267C134.516 31.9801 134.243 32.0568 133.913 32.0568C133.641 32.0568 133.398 31.9972 133.186 31.8778C132.974 31.7566 132.807 31.5748 132.686 31.3324C132.565 31.0881 132.504 30.7803 132.504 30.4091V27.6364H133.175V30.3636C133.175 30.6818 133.264 30.9356 133.442 31.125C133.622 31.3144 133.851 31.4091 134.129 31.4091C134.296 31.4091 134.465 31.3665 134.638 31.2812C134.812 31.196 134.958 31.0653 135.075 30.8892C135.195 30.7131 135.254 30.4886 135.254 30.2159ZM137.823 26.1818V32H137.153V26.1818H137.823ZM140.335 32.1023C140.059 32.1023 139.808 32.0502 139.582 31.946C139.357 31.84 139.178 31.6875 139.045 31.4886C138.913 31.2879 138.847 31.0455 138.847 30.7614C138.847 30.5114 138.896 30.3087 138.994 30.1534C139.093 29.9962 139.224 29.8731 139.389 29.7841C139.554 29.6951 139.736 29.6288 139.935 29.5852C140.135 29.5398 140.337 29.5038 140.54 29.4773C140.805 29.4432 141.02 29.4176 141.185 29.4006C141.351 29.3816 141.473 29.3504 141.548 29.3068C141.626 29.2633 141.665 29.1875 141.665 29.0795V29.0568C141.665 28.7765 141.588 28.5587 141.435 28.4034C141.283 28.2481 141.053 28.1705 140.744 28.1705C140.424 28.1705 140.173 28.2405 139.991 28.3807C139.81 28.5208 139.682 28.6705 139.608 28.8295L138.972 28.6023C139.085 28.3371 139.237 28.1307 139.426 27.983C139.617 27.8333 139.826 27.7292 140.051 27.6705C140.278 27.6098 140.502 27.5795 140.722 27.5795C140.862 27.5795 141.023 27.5966 141.205 27.6307C141.388 27.6629 141.565 27.7301 141.736 27.8324C141.908 27.9347 142.051 28.089 142.165 28.2955C142.278 28.5019 142.335 28.7784 142.335 29.125V32H141.665V31.4091H141.631C141.585 31.5038 141.509 31.6051 141.403 31.7131C141.297 31.821 141.156 31.9129 140.98 31.9886C140.804 32.0644 140.589 32.1023 140.335 32.1023ZM140.438 31.5C140.703 31.5 140.926 31.4479 141.108 31.3438C141.292 31.2396 141.43 31.1051 141.523 30.9403C141.617 30.7756 141.665 30.6023 141.665 30.4205V29.8068C141.636 29.8409 141.574 29.8722 141.477 29.9006C141.383 29.9271 141.273 29.9508 141.148 29.9716C141.025 29.9905 140.904 30.0076 140.787 30.0227C140.671 30.036 140.578 30.0473 140.506 30.0568C140.331 30.0795 140.169 30.1165 140.017 30.1676C139.867 30.2169 139.746 30.2917 139.653 30.392C139.563 30.4905 139.517 30.625 139.517 30.7955C139.517 31.0284 139.603 31.2045 139.776 31.3239C139.95 31.4413 140.17 31.5 140.438 31.5ZM143.559 32V27.6364H144.207V28.2955H144.252C144.332 28.0795 144.476 27.9044 144.684 27.7699C144.892 27.6354 145.127 27.5682 145.388 27.5682C145.438 27.5682 145.499 27.5691 145.573 27.571C145.647 27.5729 145.703 27.5758 145.741 27.5795V28.2614C145.718 28.2557 145.666 28.2472 145.585 28.2358C145.505 28.2225 145.421 28.2159 145.332 28.2159C145.12 28.2159 144.93 28.2604 144.763 28.3494C144.599 28.4366 144.468 28.5578 144.371 28.7131C144.277 28.8665 144.229 29.0417 144.229 29.2386V32H143.559ZM146.411 32V31.4886L148.888 28.3068V28.2614H146.49V27.6364H149.751V28.1705L147.342 31.3295V31.375H149.831V32H146.411Z" fill="#D0D0D0"/>
<path d="M54.7045 44V38.1818H56.6705C57.1269 38.1818 57.5 38.2642 57.7898 38.429C58.0814 38.5919 58.2973 38.8125 58.4375 39.0909C58.5777 39.3693 58.6477 39.6799 58.6477 40.0227C58.6477 40.3655 58.5777 40.6771 58.4375 40.9574C58.2992 41.2377 58.0852 41.4612 57.7955 41.6278C57.5057 41.7926 57.1345 41.875 56.6818 41.875H55.2727V41.25H56.6591C56.9716 41.25 57.2225 41.196 57.4119 41.0881C57.6013 40.9801 57.7386 40.8343 57.8239 40.6506C57.911 40.465 57.9545 40.2557 57.9545 40.0227C57.9545 39.7898 57.911 39.5814 57.8239 39.3977C57.7386 39.214 57.6004 39.0701 57.4091 38.9659C57.2178 38.8598 56.964 38.8068 56.6477 38.8068H55.4091V44H54.7045ZM59.6918 44V39.6364H60.3395V40.2955H60.3849C60.4645 40.0795 60.6084 39.9044 60.8168 39.7699C61.0251 39.6354 61.2599 39.5682 61.5213 39.5682C61.5705 39.5682 61.6321 39.5691 61.706 39.571C61.7798 39.5729 61.8357 39.5758 61.8736 39.5795V40.2614C61.8509 40.2557 61.7988 40.2472 61.7173 40.2358C61.6378 40.2225 61.5535 40.2159 61.4645 40.2159C61.2524 40.2159 61.063 40.2604 60.8963 40.3494C60.7315 40.4366 60.6009 40.5578 60.5043 40.7131C60.4096 40.8665 60.3622 41.0417 60.3622 41.2386V44H59.6918ZM62.5433 44V43.4886L65.0206 40.3068V40.2614H62.6229V39.6364H65.8842V40.1705L63.4751 43.3295V43.375H65.9638V44H62.5433ZM67.4283 45.6364C67.3146 45.6364 67.2133 45.6269 67.1243 45.608C67.0353 45.5909 66.9737 45.5739 66.9396 45.5568L67.1101 44.9659C67.273 45.0076 67.4169 45.0227 67.5419 45.0114C67.6669 45 67.7777 44.9441 67.8743 44.8438C67.9728 44.7453 68.0627 44.5852 68.1442 44.3636L68.2692 44.0227L66.6555 39.6364H67.3828L68.5874 43.1136H68.6328L69.8374 39.6364H70.5646L68.7124 44.6364C68.629 44.8617 68.5258 45.0483 68.4027 45.196C68.2796 45.3456 68.1366 45.4564 67.9737 45.5284C67.8127 45.6004 67.6309 45.6364 67.4283 45.6364ZM74.5405 40.6136L73.9382 40.7841C73.9003 40.6837 73.8445 40.5862 73.7706 40.4915C73.6986 40.3949 73.6001 40.3153 73.4751 40.2528C73.3501 40.1903 73.1901 40.1591 72.995 40.1591C72.728 40.1591 72.5054 40.2206 72.3274 40.3438C72.1513 40.465 72.0632 40.6193 72.0632 40.8068C72.0632 40.9735 72.1238 41.1051 72.245 41.2017C72.3662 41.2983 72.5556 41.3788 72.8132 41.4432L73.4609 41.6023C73.8511 41.697 74.1418 41.8419 74.3331 42.0369C74.5244 42.2301 74.62 42.4792 74.62 42.7841C74.62 43.0341 74.5481 43.2576 74.4041 43.4545C74.2621 43.6515 74.0632 43.8068 73.8075 43.9205C73.5518 44.0341 73.2545 44.0909 72.9155 44.0909C72.4704 44.0909 72.102 43.9943 71.8104 43.8011C71.5187 43.608 71.334 43.3258 71.2564 42.9545L71.8928 42.7955C71.9534 43.0303 72.0679 43.2064 72.2365 43.3239C72.407 43.4413 72.6295 43.5 72.9041 43.5C73.2166 43.5 73.4647 43.4337 73.6484 43.3011C73.834 43.1667 73.9268 43.0057 73.9268 42.8182C73.9268 42.6667 73.8738 42.5398 73.7678 42.4375C73.6617 42.3333 73.4988 42.2557 73.2791 42.2045L72.5518 42.0341C72.1522 41.9394 71.8587 41.7926 71.6712 41.5938C71.4856 41.393 71.3928 41.142 71.3928 40.8409C71.3928 40.5947 71.4619 40.3769 71.6001 40.1875C71.7403 39.9981 71.9306 39.8494 72.1712 39.7415C72.4136 39.6335 72.6882 39.5795 72.995 39.5795C73.4268 39.5795 73.7659 39.6742 74.0121 39.8636C74.2602 40.053 74.4363 40.303 74.5405 40.6136ZM77.527 39.6364V40.2045H75.2656V39.6364H77.527ZM75.9247 38.5909H76.5952V42.75C76.5952 42.9394 76.6226 43.0814 76.6776 43.1761C76.7344 43.2689 76.8063 43.3314 76.8935 43.3636C76.9825 43.3939 77.0762 43.4091 77.1747 43.4091C77.2486 43.4091 77.3092 43.4053 77.3565 43.3977C77.4039 43.3883 77.4418 43.3807 77.4702 43.375L77.6065 43.9773C77.5611 43.9943 77.4976 44.0114 77.4162 44.0284C77.3348 44.0473 77.2315 44.0568 77.1065 44.0568C76.9171 44.0568 76.7315 44.0161 76.5497 43.9347C76.3698 43.8532 76.2202 43.7292 76.1009 43.5625C75.9834 43.3958 75.9247 43.1856 75.9247 42.9318V38.5909ZM79.8196 44.1023C79.5431 44.1023 79.2921 44.0502 79.0668 43.946C78.8414 43.84 78.6624 43.6875 78.5298 43.4886C78.3973 43.2879 78.331 43.0455 78.331 42.7614C78.331 42.5114 78.3802 42.3087 78.4787 42.1534C78.5772 41.9962 78.7088 41.8731 78.8736 41.7841C79.0384 41.6951 79.2202 41.6288 79.419 41.5852C79.6198 41.5398 79.8215 41.5038 80.0241 41.4773C80.2893 41.4432 80.5043 41.4176 80.669 41.4006C80.8357 41.3816 80.9569 41.3504 81.0327 41.3068C81.1103 41.2633 81.1491 41.1875 81.1491 41.0795V41.0568C81.1491 40.7765 81.0724 40.5587 80.919 40.4034C80.7675 40.2481 80.5374 40.1705 80.2287 40.1705C79.9086 40.1705 79.6577 40.2405 79.4759 40.3807C79.294 40.5208 79.1662 40.6705 79.0923 40.8295L78.456 40.6023C78.5696 40.3371 78.7211 40.1307 78.9105 39.983C79.1018 39.8333 79.3101 39.7292 79.5355 39.6705C79.7628 39.6098 79.9863 39.5795 80.206 39.5795C80.3461 39.5795 80.5071 39.5966 80.6889 39.6307C80.8726 39.6629 81.0497 39.7301 81.2202 39.8324C81.3925 39.9347 81.5355 40.089 81.6491 40.2955C81.7628 40.5019 81.8196 40.7784 81.8196 41.125V44H81.1491V43.4091H81.1151C81.0696 43.5038 80.9938 43.6051 80.8878 43.7131C80.7817 43.821 80.6406 43.9129 80.4645 43.9886C80.2884 44.0644 80.0734 44.1023 79.8196 44.1023ZM79.9219 43.5C80.187 43.5 80.4105 43.4479 80.5923 43.3438C80.776 43.2396 80.9143 43.1051 81.0071 42.9403C81.1018 42.7756 81.1491 42.6023 81.1491 42.4205V41.8068C81.1207 41.8409 81.0582 41.8722 80.9616 41.9006C80.867 41.9271 80.7571 41.9508 80.6321 41.9716C80.509 41.9905 80.3887 42.0076 80.2713 42.0227C80.1558 42.036 80.062 42.0473 79.9901 42.0568C79.8158 42.0795 79.6529 42.1165 79.5014 42.1676C79.3518 42.2169 79.2306 42.2917 79.1378 42.392C79.0469 42.4905 79.0014 42.625 79.0014 42.7955C79.0014 43.0284 79.0876 43.2045 79.2599 43.3239C79.4342 43.4413 79.6548 43.5 79.9219 43.5ZM81.2855 45.7045C81.0526 45.7045 80.8594 45.6402 80.706 45.5114C80.5545 45.3845 80.4787 45.1989 80.4787 44.9545C80.4787 44.8144 80.5128 44.6742 80.581 44.5341C80.6491 44.3939 80.759 44.2585 80.9105 44.1278C81.062 43.9972 81.2628 43.875 81.5128 43.7614L81.8196 44C81.6491 44.125 81.4967 44.2576 81.3622 44.3977C81.2277 44.5379 81.1605 44.6932 81.1605 44.8636C81.1605 44.9489 81.1813 45.0152 81.223 45.0625C81.2647 45.1117 81.3423 45.1364 81.456 45.1364C81.5412 45.1364 81.617 45.125 81.6832 45.1023C81.7495 45.0795 81.8026 45.0568 81.8423 45.0341L81.8878 45.5341C81.8253 45.5739 81.7429 45.6117 81.6406 45.6477C81.5402 45.6856 81.4219 45.7045 81.2855 45.7045ZM83.0433 45.6364V39.6364H83.6911V40.3295H83.7706C83.8198 40.2538 83.888 40.1572 83.9751 40.0398C84.0642 39.9205 84.1911 39.8144 84.3558 39.7216C84.5225 39.6269 84.7479 39.5795 85.032 39.5795C85.3994 39.5795 85.7232 39.6714 86.0036 39.8551C86.2839 40.0388 86.5026 40.2992 86.6598 40.6364C86.817 40.9735 86.8956 41.3712 86.8956 41.8295C86.8956 42.2917 86.817 42.6922 86.6598 43.0312C86.5026 43.3684 86.2848 43.6297 86.0064 43.8153C85.728 43.9991 85.407 44.0909 85.0433 44.0909C84.763 44.0909 84.5386 44.0445 84.37 43.9517C84.2015 43.857 84.0717 43.75 83.9808 43.6307C83.8899 43.5095 83.8198 43.4091 83.7706 43.3295H83.7138V45.6364H83.0433ZM83.7024 41.8182C83.7024 42.1477 83.7507 42.4384 83.8473 42.6903C83.9439 42.9403 84.085 43.1364 84.2706 43.2784C84.4562 43.4186 84.6835 43.4886 84.9524 43.4886C85.2327 43.4886 85.4666 43.4148 85.6541 43.267C85.8435 43.1174 85.9856 42.9167 86.0803 42.6648C86.1768 42.411 86.2251 42.1288 86.2251 41.8182C86.2251 41.5114 86.1778 41.2348 86.0831 40.9886C85.9903 40.7405 85.8492 40.5445 85.6598 40.4006C85.4723 40.2547 85.2365 40.1818 84.9524 40.1818C84.6797 40.1818 84.4505 40.2509 84.2649 40.3892C84.0793 40.5256 83.9392 40.7169 83.8445 40.9631C83.7498 41.2074 83.7024 41.4924 83.7024 41.8182ZM90.8388 41.375V44H90.1683V39.6364H90.8161V40.3182H90.8729C90.9751 40.0966 91.1304 39.9186 91.3388 39.7841C91.5471 39.6477 91.8161 39.5795 92.1456 39.5795C92.4411 39.5795 92.6996 39.6402 92.9212 39.7614C93.1428 39.8807 93.3151 40.0625 93.4382 40.3068C93.5613 40.5492 93.6229 40.8561 93.6229 41.2273V44H92.9524V41.2727C92.9524 40.9299 92.8634 40.6629 92.6854 40.4716C92.5073 40.2784 92.263 40.1818 91.9524 40.1818C91.7384 40.1818 91.5471 40.2282 91.3786 40.321C91.2119 40.4138 91.0803 40.5492 90.9837 40.7273C90.8871 40.9053 90.8388 41.1212 90.8388 41.375ZM96.1321 44.1023C95.8556 44.1023 95.6046 44.0502 95.3793 43.946C95.1539 43.84 94.9749 43.6875 94.8423 43.4886C94.7098 43.2879 94.6435 43.0455 94.6435 42.7614C94.6435 42.5114 94.6927 42.3087 94.7912 42.1534C94.8897 41.9962 95.0213 41.8731 95.1861 41.7841C95.3509 41.6951 95.5327 41.6288 95.7315 41.5852C95.9323 41.5398 96.134 41.5038 96.3366 41.4773C96.6018 41.4432 96.8168 41.4176 96.9815 41.4006C97.1482 41.3816 97.2694 41.3504 97.3452 41.3068C97.4228 41.2633 97.4616 41.1875 97.4616 41.0795V41.0568C97.4616 40.7765 97.3849 40.5587 97.2315 40.4034C97.08 40.2481 96.8499 40.1705 96.5412 40.1705C96.2211 40.1705 95.9702 40.2405 95.7884 40.3807C95.6065 40.5208 95.4787 40.6705 95.4048 40.8295L94.7685 40.6023C94.8821 40.3371 95.0336 40.1307 95.223 39.983C95.4143 39.8333 95.6226 39.7292 95.848 39.6705C96.0753 39.6098 96.2988 39.5795 96.5185 39.5795C96.6586 39.5795 96.8196 39.5966 97.0014 39.6307C97.1851 39.6629 97.3622 39.7301 97.5327 39.8324C97.705 39.9347 97.848 40.089 97.9616 40.2955C98.0753 40.5019 98.1321 40.7784 98.1321 41.125V44H97.4616V43.4091H97.4276C97.3821 43.5038 97.3063 43.6051 97.2003 43.7131C97.0942 43.821 96.9531 43.9129 96.777 43.9886C96.6009 44.0644 96.3859 44.1023 96.1321 44.1023ZM96.2344 43.5C96.4995 43.5 96.723 43.4479 96.9048 43.3438C97.0885 43.2396 97.2268 43.1051 97.3196 42.9403C97.4143 42.7756 97.4616 42.6023 97.4616 42.4205V41.8068C97.4332 41.8409 97.3707 41.8722 97.2741 41.9006C97.1795 41.9271 97.0696 41.9508 96.9446 41.9716C96.8215 41.9905 96.7012 42.0076 96.5838 42.0227C96.4683 42.036 96.3745 42.0473 96.3026 42.0568C96.1283 42.0795 95.9654 42.1165 95.8139 42.1676C95.6643 42.2169 95.5431 42.2917 95.4503 42.392C95.3594 42.4905 95.3139 42.625 95.3139 42.7955C95.3139 43.0284 95.4001 43.2045 95.5724 43.3239C95.7467 43.4413 95.9673 43.5 96.2344 43.5ZM101.254 39.6364V40.2045H98.9922V39.6364H101.254ZM99.6513 38.5909H100.322V42.75C100.322 42.9394 100.349 43.0814 100.404 43.1761C100.461 43.2689 100.533 43.3314 100.62 43.3636C100.709 43.3939 100.803 43.4091 100.901 43.4091C100.975 43.4091 101.036 43.4053 101.083 43.3977C101.13 43.3883 101.168 43.3807 101.197 43.375L101.333 43.9773C101.288 43.9943 101.224 44.0114 101.143 44.0284C101.061 44.0473 100.958 44.0568 100.833 44.0568C100.644 44.0568 100.458 44.0161 100.276 43.9347C100.096 43.8532 99.9467 43.7292 99.8274 43.5625C99.71 43.3958 99.6513 43.1856 99.6513 42.9318V38.5909ZM102.694 45.6364C102.58 45.6364 102.479 45.6269 102.39 45.608C102.301 45.5909 102.239 45.5739 102.205 45.5568L102.376 44.9659C102.539 45.0076 102.683 45.0227 102.808 45.0114C102.933 45 103.043 44.9441 103.14 44.8438C103.238 44.7453 103.328 44.5852 103.41 44.3636L103.535 44.0227L101.921 39.6364H102.648L103.853 43.1136H103.898L105.103 39.6364H105.83L103.978 44.6364C103.895 44.8617 103.791 45.0483 103.668 45.196C103.545 45.3456 103.402 45.4564 103.239 45.5284C103.078 45.6004 102.897 45.6364 102.694 45.6364ZM108.332 44.0909C107.923 44.0909 107.57 43.9943 107.275 43.8011C106.979 43.608 106.752 43.3419 106.593 43.0028C106.434 42.6638 106.354 42.2765 106.354 41.8409C106.354 41.3977 106.436 41.0066 106.599 40.6676C106.763 40.3267 106.993 40.0606 107.286 39.8693C107.582 39.6761 107.926 39.5795 108.32 39.5795C108.627 39.5795 108.904 39.6364 109.15 39.75C109.396 39.8636 109.598 40.0227 109.755 40.2273C109.912 40.4318 110.01 40.6705 110.048 40.9432H109.377C109.326 40.7443 109.212 40.5682 109.036 40.4148C108.862 40.2595 108.627 40.1818 108.332 40.1818C108.07 40.1818 107.841 40.25 107.644 40.3864C107.449 40.5208 107.297 40.7112 107.187 40.9574C107.079 41.2017 107.025 41.4886 107.025 41.8182C107.025 42.1553 107.078 42.4489 107.184 42.6989C107.292 42.9489 107.443 43.143 107.638 43.2812C107.835 43.4195 108.067 43.4886 108.332 43.4886C108.506 43.4886 108.664 43.4583 108.806 43.3977C108.948 43.3371 109.068 43.25 109.167 43.1364C109.265 43.0227 109.335 42.8864 109.377 42.7273H110.048C110.01 42.9848 109.916 43.2169 109.766 43.4233C109.619 43.6278 109.423 43.7907 109.178 43.9119C108.936 44.0312 108.654 44.0909 108.332 44.0909ZM111.698 41.375V44H111.028V38.1818H111.698V40.3182H111.755C111.857 40.0928 112.011 39.9138 112.215 39.7812C112.422 39.6468 112.696 39.5795 113.039 39.5795C113.336 39.5795 113.597 39.6392 113.82 39.7585C114.044 39.8759 114.217 40.0568 114.34 40.3011C114.465 40.5436 114.528 40.8523 114.528 41.2273V44H113.857V41.2727C113.857 40.9261 113.767 40.6581 113.587 40.4688C113.409 40.2775 113.162 40.1818 112.846 40.1818C112.626 40.1818 112.429 40.2282 112.255 40.321C112.083 40.4138 111.946 40.5492 111.846 40.7273C111.747 40.9053 111.698 41.1212 111.698 41.375ZM115.754 44V39.6364H116.402V40.3182H116.459C116.55 40.0852 116.696 39.9044 116.899 39.7756C117.102 39.6449 117.345 39.5795 117.629 39.5795C117.917 39.5795 118.157 39.6449 118.348 39.7756C118.541 39.9044 118.692 40.0852 118.8 40.3182H118.845C118.957 40.0928 119.125 39.9138 119.348 39.7812C119.571 39.6468 119.839 39.5795 120.152 39.5795C120.542 39.5795 120.861 39.7017 121.109 39.946C121.357 40.1884 121.482 40.5663 121.482 41.0795V44H120.811V41.0795C120.811 40.7576 120.723 40.5275 120.547 40.3892C120.371 40.2509 120.163 40.1818 119.925 40.1818C119.618 40.1818 119.38 40.2746 119.212 40.4602C119.043 40.6439 118.959 40.8769 118.959 41.1591V44H118.277V41.0114C118.277 40.7633 118.196 40.5634 118.036 40.4119C117.875 40.2585 117.667 40.1818 117.413 40.1818C117.239 40.1818 117.076 40.2282 116.925 40.321C116.775 40.4138 116.654 40.5426 116.561 40.7074C116.47 40.8703 116.425 41.0587 116.425 41.2727V44H115.754ZM122.707 44V39.6364H123.378V44H122.707ZM123.048 38.9091C122.918 38.9091 122.805 38.8646 122.71 38.7756C122.617 38.6866 122.571 38.5795 122.571 38.4545C122.571 38.3295 122.617 38.2225 122.71 38.1335C122.805 38.0445 122.918 38 123.048 38C123.179 38 123.291 38.0445 123.384 38.1335C123.478 38.2225 123.526 38.3295 123.526 38.4545C123.526 38.5795 123.478 38.6866 123.384 38.7756C123.291 38.8646 123.179 38.9091 123.048 38.9091ZM125.89 44.1023C125.613 44.1023 125.362 44.0502 125.137 43.946C124.912 43.84 124.733 43.6875 124.6 43.4886C124.468 43.2879 124.401 43.0455 124.401 42.7614C124.401 42.5114 124.451 42.3087 124.549 42.1534C124.647 41.9962 124.779 41.8731 124.944 41.7841C125.109 41.6951 125.29 41.6288 125.489 41.5852C125.69 41.5398 125.892 41.5038 126.094 41.4773C126.36 41.4432 126.575 41.4176 126.739 41.4006C126.906 41.3816 127.027 41.3504 127.103 41.3068C127.181 41.2633 127.219 41.1875 127.219 41.0795V41.0568C127.219 40.7765 127.143 40.5587 126.989 40.4034C126.838 40.2481 126.608 40.1705 126.299 40.1705C125.979 40.1705 125.728 40.2405 125.546 40.3807C125.364 40.5208 125.237 40.6705 125.163 40.8295L124.526 40.6023C124.64 40.3371 124.791 40.1307 124.981 39.983C125.172 39.8333 125.38 39.7292 125.606 39.6705C125.833 39.6098 126.057 39.5795 126.276 39.5795C126.416 39.5795 126.577 39.5966 126.759 39.6307C126.943 39.6629 127.12 39.7301 127.29 39.8324C127.463 39.9347 127.606 40.089 127.719 40.2955C127.833 40.5019 127.89 40.7784 127.89 41.125V44H127.219V43.4091H127.185C127.14 43.5038 127.064 43.6051 126.958 43.7131C126.852 43.821 126.711 43.9129 126.535 43.9886C126.359 44.0644 126.144 44.1023 125.89 44.1023ZM125.992 43.5C126.257 43.5 126.481 43.4479 126.663 43.3438C126.846 43.2396 126.985 43.1051 127.077 42.9403C127.172 42.7756 127.219 42.6023 127.219 42.4205V41.8068C127.191 41.8409 127.129 41.8722 127.032 41.9006C126.937 41.9271 126.827 41.9508 126.702 41.9716C126.579 41.9905 126.459 42.0076 126.342 42.0227C126.226 42.036 126.132 42.0473 126.06 42.0568C125.886 42.0795 125.723 42.1165 125.572 42.1676C125.422 42.2169 125.301 42.2917 125.208 42.392C125.117 42.4905 125.072 42.625 125.072 42.7955C125.072 43.0284 125.158 43.2045 125.33 43.3239C125.504 43.4413 125.725 43.5 125.992 43.5ZM132.205 40.6136L131.602 40.7841C131.564 40.6837 131.509 40.5862 131.435 40.4915C131.363 40.3949 131.264 40.3153 131.139 40.2528C131.014 40.1903 130.854 40.1591 130.659 40.1591C130.392 40.1591 130.17 40.2206 129.991 40.3438C129.815 40.465 129.727 40.6193 129.727 40.8068C129.727 40.9735 129.788 41.1051 129.909 41.2017C130.03 41.2983 130.22 41.3788 130.477 41.4432L131.125 41.6023C131.515 41.697 131.806 41.8419 131.997 42.0369C132.188 42.2301 132.284 42.4792 132.284 42.7841C132.284 43.0341 132.212 43.2576 132.068 43.4545C131.926 43.6515 131.727 43.8068 131.472 43.9205C131.216 44.0341 130.919 44.0909 130.58 44.0909C130.134 44.0909 129.766 43.9943 129.474 43.8011C129.183 43.608 128.998 43.3258 128.92 42.9545L129.557 42.7955C129.617 43.0303 129.732 43.2064 129.901 43.3239C130.071 43.4413 130.294 43.5 130.568 43.5C130.881 43.5 131.129 43.4337 131.312 43.3011C131.498 43.1667 131.591 43.0057 131.591 42.8182C131.591 42.6667 131.538 42.5398 131.432 42.4375C131.326 42.3333 131.163 42.2557 130.943 42.2045L130.216 42.0341C129.816 41.9394 129.523 41.7926 129.335 41.5938C129.15 41.393 129.057 41.142 129.057 40.8409C129.057 40.5947 129.126 40.3769 129.264 40.1875C129.404 39.9981 129.595 39.8494 129.835 39.7415C130.078 39.6335 130.352 39.5795 130.659 39.5795C131.091 39.5795 131.43 39.6742 131.676 39.8636C131.924 40.053 132.1 40.303 132.205 40.6136ZM135.191 39.6364V40.2045H132.93V39.6364H135.191ZM133.589 38.5909H134.259V42.75C134.259 42.9394 134.287 43.0814 134.342 43.1761C134.398 43.2689 134.47 43.3314 134.558 43.3636C134.647 43.3939 134.74 43.4091 134.839 43.4091C134.913 43.4091 134.973 43.4053 135.021 43.3977C135.068 43.3883 135.106 43.3807 135.134 43.375L135.271 43.9773C135.225 43.9943 135.162 44.0114 135.08 44.0284C134.999 44.0473 134.896 44.0568 134.771 44.0568C134.581 44.0568 134.396 44.0161 134.214 43.9347C134.034 43.8532 133.884 43.7292 133.765 43.5625C133.647 43.3958 133.589 43.1856 133.589 42.9318V38.5909ZM140.097 44.0909C139.734 44.0909 139.413 43.9991 139.134 43.8153C138.856 43.6297 138.638 43.3684 138.481 43.0312C138.324 42.6922 138.245 42.2917 138.245 41.8295C138.245 41.3712 138.324 40.9735 138.481 40.6364C138.638 40.2992 138.857 40.0388 139.137 39.8551C139.417 39.6714 139.741 39.5795 140.109 39.5795C140.393 39.5795 140.617 39.6269 140.782 39.7216C140.949 39.8144 141.076 39.9205 141.163 40.0398C141.252 40.1572 141.321 40.2538 141.37 40.3295H141.427V38.1818H142.097V44H141.45V43.3295H141.37C141.321 43.4091 141.251 43.5095 141.16 43.6307C141.069 43.75 140.939 43.857 140.771 43.9517C140.602 44.0445 140.378 44.0909 140.097 44.0909ZM140.188 43.4886C140.457 43.4886 140.684 43.4186 140.87 43.2784C141.056 43.1364 141.197 42.9403 141.293 42.6903C141.39 42.4384 141.438 42.1477 141.438 41.8182C141.438 41.4924 141.391 41.2074 141.296 40.9631C141.201 40.7169 141.061 40.5256 140.876 40.3892C140.69 40.2509 140.461 40.1818 140.188 40.1818C139.904 40.1818 139.667 40.2547 139.478 40.4006C139.29 40.5445 139.149 40.7405 139.055 40.9886C138.962 41.2348 138.915 41.5114 138.915 41.8182C138.915 42.1288 138.963 42.411 139.058 42.6648C139.154 42.9167 139.296 43.1174 139.484 43.267C139.673 43.4148 139.908 43.4886 140.188 43.4886ZM145.191 44.0909C144.797 44.0909 144.451 43.9972 144.154 43.8097C143.859 43.6222 143.628 43.3598 143.461 43.0227C143.296 42.6856 143.214 42.2917 143.214 41.8409C143.214 41.3864 143.296 40.9896 143.461 40.6506C143.628 40.3116 143.859 40.0483 144.154 39.8608C144.451 39.6733 144.797 39.5795 145.191 39.5795C145.585 39.5795 145.93 39.6733 146.225 39.8608C146.522 40.0483 146.754 40.3116 146.918 40.6506C147.085 40.9896 147.168 41.3864 147.168 41.8409C147.168 42.2917 147.085 42.6856 146.918 43.0227C146.754 43.3598 146.522 43.6222 146.225 43.8097C145.93 43.9972 145.585 44.0909 145.191 44.0909ZM145.191 43.4886C145.49 43.4886 145.737 43.4119 145.93 43.2585C146.123 43.1051 146.266 42.9034 146.359 42.6534C146.451 42.4034 146.498 42.1326 146.498 41.8409C146.498 41.5492 146.451 41.2775 146.359 41.0256C146.266 40.7737 146.123 40.5701 145.93 40.4148C145.737 40.2595 145.49 40.1818 145.191 40.1818C144.892 40.1818 144.646 40.2595 144.452 40.4148C144.259 40.5701 144.116 40.7737 144.023 41.0256C143.931 41.2775 143.884 41.5492 143.884 41.8409C143.884 42.1326 143.931 42.4034 144.023 42.6534C144.116 42.9034 144.259 43.1051 144.452 43.2585C144.646 43.4119 144.892 43.4886 145.191 43.4886ZM152.089 44.0909C151.726 44.0909 151.405 43.9991 151.126 43.8153C150.848 43.6297 150.63 43.3684 150.473 43.0312C150.316 42.6922 150.237 42.2917 150.237 41.8295C150.237 41.3712 150.316 40.9735 150.473 40.6364C150.63 40.2992 150.849 40.0388 151.129 39.8551C151.41 39.6714 151.733 39.5795 152.101 39.5795C152.385 39.5795 152.609 39.6269 152.774 39.7216C152.941 39.8144 153.068 39.9205 153.155 40.0398C153.244 40.1572 153.313 40.2538 153.362 40.3295H153.419V38.1818H154.089V44H153.442V43.3295H153.362C153.313 43.4091 153.243 43.5095 153.152 43.6307C153.061 43.75 152.931 43.857 152.763 43.9517C152.594 44.0445 152.37 44.0909 152.089 44.0909ZM152.18 43.4886C152.449 43.4886 152.677 43.4186 152.862 43.2784C153.048 43.1364 153.189 42.9403 153.286 42.6903C153.382 42.4384 153.43 42.1477 153.43 41.8182C153.43 41.4924 153.383 41.2074 153.288 40.9631C153.194 40.7169 153.054 40.5256 152.868 40.3892C152.682 40.2509 152.453 40.1818 152.18 40.1818C151.896 40.1818 151.66 40.2547 151.47 40.4006C151.283 40.5445 151.142 40.7405 151.047 40.9886C150.954 41.2348 150.908 41.5114 150.908 41.8182C150.908 42.1288 150.955 42.411 151.05 42.6648C151.146 42.9167 151.288 43.1174 151.476 43.267C151.665 43.4148 151.9 43.4886 152.18 43.4886ZM157.183 44.0909C156.789 44.0909 156.444 43.9972 156.146 43.8097C155.851 43.6222 155.62 43.3598 155.453 43.0227C155.288 42.6856 155.206 42.2917 155.206 41.8409C155.206 41.3864 155.288 40.9896 155.453 40.6506C155.62 40.3116 155.851 40.0483 156.146 39.8608C156.444 39.6733 156.789 39.5795 157.183 39.5795C157.577 39.5795 157.922 39.6733 158.217 39.8608C158.515 40.0483 158.746 40.3116 158.911 40.6506C159.077 40.9896 159.161 41.3864 159.161 41.8409C159.161 42.2917 159.077 42.6856 158.911 43.0227C158.746 43.3598 158.515 43.6222 158.217 43.8097C157.922 43.9972 157.577 44.0909 157.183 44.0909ZM157.183 43.4886C157.482 43.4886 157.729 43.4119 157.922 43.2585C158.115 43.1051 158.258 42.9034 158.351 42.6534C158.444 42.4034 158.49 42.1326 158.49 41.8409C158.49 41.5492 158.444 41.2775 158.351 41.0256C158.258 40.7737 158.115 40.5701 157.922 40.4148C157.729 40.2595 157.482 40.1818 157.183 40.1818C156.884 40.1818 156.638 40.2595 156.445 40.4148C156.251 40.5701 156.108 40.7737 156.016 41.0256C155.923 41.2775 155.876 41.5492 155.876 41.8409C155.876 42.1326 155.923 42.4034 156.016 42.6534C156.108 42.9034 156.251 43.1051 156.445 43.2585C156.638 43.4119 156.884 43.4886 157.183 43.4886ZM161.832 44.0909C161.468 44.0909 161.147 43.9991 160.869 43.8153C160.59 43.6297 160.372 43.3684 160.215 43.0312C160.058 42.6922 159.979 42.2917 159.979 41.8295C159.979 41.3712 160.058 40.9735 160.215 40.6364C160.372 40.2992 160.591 40.0388 160.871 39.8551C161.152 39.6714 161.476 39.5795 161.843 39.5795C162.127 39.5795 162.352 39.6269 162.516 39.7216C162.683 39.8144 162.81 39.9205 162.897 40.0398C162.986 40.1572 163.055 40.2538 163.104 40.3295H163.161V38.1818H163.832V44H163.184V43.3295H163.104C163.055 43.4091 162.985 43.5095 162.894 43.6307C162.803 43.75 162.674 43.857 162.505 43.9517C162.336 44.0445 162.112 44.0909 161.832 44.0909ZM161.923 43.4886C162.192 43.4886 162.419 43.4186 162.604 43.2784C162.79 43.1364 162.931 42.9403 163.028 42.6903C163.124 42.4384 163.173 42.1477 163.173 41.8182C163.173 41.4924 163.125 41.2074 163.031 40.9631C162.936 40.7169 162.796 40.5256 162.61 40.3892C162.424 40.2509 162.195 40.1818 161.923 40.1818C161.638 40.1818 161.402 40.2547 161.212 40.4006C161.025 40.5445 160.884 40.7405 160.789 40.9886C160.696 41.2348 160.65 41.5114 160.65 41.8182C160.65 42.1288 160.697 42.411 160.792 42.6648C160.888 42.9167 161.031 43.1174 161.218 43.267C161.407 43.4148 161.642 43.4886 161.923 43.4886ZM166.437 44.1023C166.16 44.1023 165.909 44.0502 165.684 43.946C165.459 43.84 165.28 43.6875 165.147 43.4886C165.014 43.2879 164.948 43.0455 164.948 42.7614C164.948 42.5114 164.997 42.3087 165.096 42.1534C165.194 41.9962 165.326 41.8731 165.491 41.7841C165.656 41.6951 165.837 41.6288 166.036 41.5852C166.237 41.5398 166.439 41.5038 166.641 41.4773C166.906 41.4432 167.121 41.4176 167.286 41.4006C167.453 41.3816 167.574 41.3504 167.65 41.3068C167.728 41.2633 167.766 41.1875 167.766 41.0795V41.0568C167.766 40.7765 167.69 40.5587 167.536 40.4034C167.385 40.2481 167.155 40.1705 166.846 40.1705C166.526 40.1705 166.275 40.2405 166.093 40.3807C165.911 40.5208 165.783 40.6705 165.71 40.8295L165.073 40.6023C165.187 40.3371 165.338 40.1307 165.528 39.983C165.719 39.8333 165.927 39.7292 166.153 39.6705C166.38 39.6098 166.603 39.5795 166.823 39.5795C166.963 39.5795 167.124 39.5966 167.306 39.6307C167.49 39.6629 167.667 39.7301 167.837 39.8324C168.01 39.9347 168.153 40.089 168.266 40.2955C168.38 40.5019 168.437 40.7784 168.437 41.125V44H167.766V43.4091H167.732C167.687 43.5038 167.611 43.6051 167.505 43.7131C167.399 43.821 167.258 43.9129 167.082 43.9886C166.906 44.0644 166.691 44.1023 166.437 44.1023ZM166.539 43.5C166.804 43.5 167.028 43.4479 167.21 43.3438C167.393 43.2396 167.531 43.1051 167.624 42.9403C167.719 42.7756 167.766 42.6023 167.766 42.4205V41.8068C167.738 41.8409 167.675 41.8722 167.579 41.9006C167.484 41.9271 167.374 41.9508 167.249 41.9716C167.126 41.9905 167.006 42.0076 166.888 42.0227C166.773 42.036 166.679 42.0473 166.607 42.0568C166.433 42.0795 166.27 42.1165 166.119 42.1676C165.969 42.2169 165.848 42.2917 165.755 42.392C165.664 42.4905 165.619 42.625 165.619 42.7955C165.619 43.0284 165.705 43.2045 165.877 43.3239C166.051 43.4413 166.272 43.5 166.539 43.5ZM170.649 44L169.32 39.6364H170.024L170.967 42.9773H171.013L171.945 39.6364H172.661L173.581 42.9659H173.626L174.57 39.6364H175.274L173.945 44H173.286L172.331 40.6477H172.263L171.308 44H170.649ZM177.445 44.1023C177.168 44.1023 176.917 44.0502 176.692 43.946C176.466 43.84 176.287 43.6875 176.155 43.4886C176.022 43.2879 175.956 43.0455 175.956 42.7614C175.956 42.5114 176.005 42.3087 176.104 42.1534C176.202 41.9962 176.334 41.8731 176.499 41.7841C176.663 41.6951 176.845 41.6288 177.044 41.5852C177.245 41.5398 177.446 41.5038 177.649 41.4773C177.914 41.4432 178.129 41.4176 178.294 41.4006C178.461 41.3816 178.582 41.3504 178.658 41.3068C178.735 41.2633 178.774 41.1875 178.774 41.0795V41.0568C178.774 40.7765 178.697 40.5587 178.544 40.4034C178.393 40.2481 178.162 40.1705 177.854 40.1705C177.534 40.1705 177.283 40.2405 177.101 40.3807C176.919 40.5208 176.791 40.6705 176.717 40.8295L176.081 40.6023C176.195 40.3371 176.346 40.1307 176.536 39.983C176.727 39.8333 176.935 39.7292 177.161 39.6705C177.388 39.6098 177.611 39.5795 177.831 39.5795C177.971 39.5795 178.132 39.5966 178.314 39.6307C178.498 39.6629 178.675 39.7301 178.845 39.8324C179.018 39.9347 179.161 40.089 179.274 40.2955C179.388 40.5019 179.445 40.7784 179.445 41.125V44H178.774V43.4091H178.74C178.695 43.5038 178.619 43.6051 178.513 43.7131C178.407 43.821 178.266 43.9129 178.089 43.9886C177.913 44.0644 177.698 44.1023 177.445 44.1023ZM177.547 43.5C177.812 43.5 178.036 43.4479 178.217 43.3438C178.401 43.2396 178.539 43.1051 178.632 42.9403C178.727 42.7756 178.774 42.6023 178.774 42.4205V41.8068C178.746 41.8409 178.683 41.8722 178.587 41.9006C178.492 41.9271 178.382 41.9508 178.257 41.9716C178.134 41.9905 178.014 42.0076 177.896 42.0227C177.781 42.036 177.687 42.0473 177.615 42.0568C177.441 42.0795 177.278 42.1165 177.126 42.1676C176.977 42.2169 176.856 42.2917 176.763 42.392C176.672 42.4905 176.626 42.625 176.626 42.7955C176.626 43.0284 176.713 43.2045 176.885 43.3239C177.059 43.4413 177.28 43.5 177.547 43.5ZM181.339 41.375V44H180.668V39.6364H181.316V40.3182H181.373C181.475 40.0966 181.63 39.9186 181.839 39.7841C182.047 39.6477 182.316 39.5795 182.646 39.5795C182.941 39.5795 183.2 39.6402 183.421 39.7614C183.643 39.8807 183.815 40.0625 183.938 40.3068C184.061 40.5492 184.123 40.8561 184.123 41.2273V44H183.452V41.2727C183.452 40.9299 183.363 40.6629 183.185 40.4716C183.007 40.2784 182.763 40.1818 182.452 40.1818C182.238 40.1818 182.047 40.2282 181.879 40.321C181.712 40.4138 181.58 40.5492 181.484 40.7273C181.387 40.9053 181.339 41.1212 181.339 41.375ZM185.348 44V39.6364H186.018V44H185.348ZM185.689 38.9091C185.558 38.9091 185.446 38.8646 185.351 38.7756C185.258 38.6866 185.212 38.5795 185.212 38.4545C185.212 38.3295 185.258 38.2225 185.351 38.1335C185.446 38.0445 185.558 38 185.689 38C185.82 38 185.931 38.0445 186.024 38.1335C186.119 38.2225 186.166 38.3295 186.166 38.4545C186.166 38.5795 186.119 38.6866 186.024 38.7756C185.931 38.8646 185.82 38.9091 185.689 38.9091ZM188.531 44.1023C188.254 44.1023 188.003 44.0502 187.778 43.946C187.552 43.84 187.373 43.6875 187.241 43.4886C187.108 43.2879 187.042 43.0455 187.042 42.7614C187.042 42.5114 187.091 42.3087 187.19 42.1534C187.288 41.9962 187.42 41.8731 187.585 41.7841C187.749 41.6951 187.931 41.6288 188.13 41.5852C188.331 41.5398 188.532 41.5038 188.735 41.4773C189 41.4432 189.215 41.4176 189.38 41.4006C189.547 41.3816 189.668 41.3504 189.744 41.3068C189.821 41.2633 189.86 41.1875 189.86 41.0795V41.0568C189.86 40.7765 189.783 40.5587 189.63 40.4034C189.478 40.2481 189.248 40.1705 188.94 40.1705C188.62 40.1705 188.369 40.2405 188.187 40.3807C188.005 40.5208 187.877 40.6705 187.803 40.8295L187.167 40.6023C187.281 40.3371 187.432 40.1307 187.621 39.983C187.813 39.8333 188.021 39.7292 188.246 39.6705C188.474 39.6098 188.697 39.5795 188.917 39.5795C189.057 39.5795 189.218 39.5966 189.4 39.6307C189.584 39.6629 189.761 39.7301 189.931 39.8324C190.103 39.9347 190.246 40.089 190.36 40.2955C190.474 40.5019 190.531 40.7784 190.531 41.125V44H189.86V43.4091H189.826C189.781 43.5038 189.705 43.6051 189.599 43.7131C189.493 43.821 189.352 43.9129 189.175 43.9886C188.999 44.0644 188.784 44.1023 188.531 44.1023ZM188.633 43.5C188.898 43.5 189.121 43.4479 189.303 43.3438C189.487 43.2396 189.625 43.1051 189.718 42.9403C189.813 42.7756 189.86 42.6023 189.86 42.4205V41.8068C189.832 41.8409 189.769 41.8722 189.673 41.9006C189.578 41.9271 189.468 41.9508 189.343 41.9716C189.22 41.9905 189.1 42.0076 188.982 42.0227C188.867 42.036 188.773 42.0473 188.701 42.0568C188.527 42.0795 188.364 42.1165 188.212 42.1676C188.063 42.2169 187.942 42.2917 187.849 42.392C187.758 42.4905 187.712 42.625 187.712 42.7955C187.712 43.0284 187.799 43.2045 187.971 43.3239C188.145 43.4413 188.366 43.5 188.633 43.5ZM194.675 38.1818V44H194.004V38.1818H194.675ZM197.675 44.0909C197.281 44.0909 196.936 43.9972 196.638 43.8097C196.343 43.6222 196.112 43.3598 195.945 43.0227C195.781 42.6856 195.698 42.2917 195.698 41.8409C195.698 41.3864 195.781 40.9896 195.945 40.6506C196.112 40.3116 196.343 40.0483 196.638 39.8608C196.936 39.6733 197.281 39.5795 197.675 39.5795C198.069 39.5795 198.414 39.6733 198.71 39.8608C199.007 40.0483 199.238 40.3116 199.403 40.6506C199.569 40.9896 199.653 41.3864 199.653 41.8409C199.653 42.2917 199.569 42.6856 199.403 43.0227C199.238 43.3598 199.007 43.6222 198.71 43.8097C198.414 43.9972 198.069 44.0909 197.675 44.0909ZM197.675 43.4886C197.975 43.4886 198.221 43.4119 198.414 43.2585C198.607 43.1051 198.75 42.9034 198.843 42.6534C198.936 42.4034 198.982 42.1326 198.982 41.8409C198.982 41.5492 198.936 41.2775 198.843 41.0256C198.75 40.7737 198.607 40.5701 198.414 40.4148C198.221 40.2595 197.975 40.1818 197.675 40.1818C197.376 40.1818 197.13 40.2595 196.937 40.4148C196.744 40.5701 196.601 40.7737 196.508 41.0256C196.415 41.2775 196.369 41.5492 196.369 41.8409C196.369 42.1326 196.415 42.4034 196.508 42.6534C196.601 42.9034 196.744 43.1051 196.937 43.2585C197.13 43.4119 197.376 43.4886 197.675 43.4886ZM201.301 42.4091L201.29 41.5795H201.426L203.335 39.6364H204.165L202.131 41.6932H202.074L201.301 42.4091ZM200.676 44V38.1818H201.347V44H200.676ZM203.449 44L201.744 41.8409L202.222 41.375L204.301 44H203.449ZM206.312 44.1023C206.035 44.1023 205.784 44.0502 205.559 43.946C205.334 43.84 205.155 43.6875 205.022 43.4886C204.889 43.2879 204.823 43.0455 204.823 42.7614C204.823 42.5114 204.872 42.3087 204.971 42.1534C205.069 41.9962 205.201 41.8731 205.366 41.7841C205.531 41.6951 205.712 41.6288 205.911 41.5852C206.112 41.5398 206.314 41.5038 206.516 41.4773C206.781 41.4432 206.996 41.4176 207.161 41.4006C207.328 41.3816 207.449 41.3504 207.525 41.3068C207.603 41.2633 207.641 41.1875 207.641 41.0795V41.0568C207.641 40.7765 207.565 40.5587 207.411 40.4034C207.26 40.2481 207.03 40.1705 206.721 40.1705C206.401 40.1705 206.15 40.2405 205.968 40.3807C205.786 40.5208 205.658 40.6705 205.585 40.8295L204.948 40.6023C205.062 40.3371 205.213 40.1307 205.403 39.983C205.594 39.8333 205.802 39.7292 206.028 39.6705C206.255 39.6098 206.478 39.5795 206.698 39.5795C206.838 39.5795 206.999 39.5966 207.181 39.6307C207.365 39.6629 207.542 39.7301 207.712 39.8324C207.885 39.9347 208.028 40.089 208.141 40.2955C208.255 40.5019 208.312 40.7784 208.312 41.125V44H207.641V43.4091H207.607C207.562 43.5038 207.486 43.6051 207.38 43.7131C207.274 43.821 207.133 43.9129 206.957 43.9886C206.781 44.0644 206.566 44.1023 206.312 44.1023ZM206.414 43.5C206.679 43.5 206.903 43.4479 207.085 43.3438C207.268 43.2396 207.406 43.1051 207.499 42.9403C207.594 42.7756 207.641 42.6023 207.641 42.4205V41.8068C207.613 41.8409 207.55 41.8722 207.454 41.9006C207.359 41.9271 207.249 41.9508 207.124 41.9716C207.001 41.9905 206.881 42.0076 206.763 42.0227C206.648 42.036 206.554 42.0473 206.482 42.0568C206.308 42.0795 206.145 42.1165 205.994 42.1676C205.844 42.2169 205.723 42.2917 205.63 42.392C205.539 42.4905 205.494 42.625 205.494 42.7955C205.494 43.0284 205.58 43.2045 205.752 43.3239C205.926 43.4413 206.147 43.5 206.414 43.5ZM210.206 38.1818V44H209.536V38.1818H210.206ZM211.434 44V39.6364H212.104V44H211.434ZM211.775 38.9091C211.644 38.9091 211.531 38.8646 211.437 38.7756C211.344 38.6866 211.298 38.5795 211.298 38.4545C211.298 38.3295 211.344 38.2225 211.437 38.1335C211.531 38.0445 211.644 38 211.775 38C211.906 38 212.017 38.0445 212.11 38.1335C212.205 38.2225 212.252 38.3295 212.252 38.4545C212.252 38.5795 212.205 38.6866 212.11 38.7756C212.017 38.8646 211.906 38.9091 211.775 38.9091Z" fill="#D0D0D0"/>
<defs>
<linearGradient id="paint0_linear_6306_10257" x1="27.1544" y1="27.0093" x2="3.40435" y2="-7.42822" gradientUnits="userSpaceOnUse">
<stop stop-color="#1B1B1C"/>
<stop offset="1" stop-color="#FAAC79" stop-opacity="0.1"/>
</linearGradient>
<clipPath id="clip0_6306_10257">
<rect width="20" height="20" fill="white" transform="translate(17 17)"/>
</clipPath>
</defs>
</svg>
