<svg width="255" height="66" viewBox="0 0 255 66" fill="none" xmlns="http://www.w3.org/2000/svg">
<mask id="path-1-inside-1_6306_10268" fill="white">
<path d="M0 33C0 14.7746 14.7746 0 33 0H222C240.225 0 255 14.7746 255 33C255 51.2254 240.225 66 222 66H33C14.7746 66 0 51.2254 0 33Z"/>
</mask>
<path d="M0 33C0 14.7746 14.7746 0 33 0H222C240.225 0 255 14.7746 255 33C255 51.2254 240.225 66 222 66H33C14.7746 66 0 51.2254 0 33Z" fill="#1B1B1C" fill-opacity="0.9"/>
<path d="M0 33C0 14.2223 15.2223 -1 34 -1H222.5C241.002 -1 256 13.9985 256 32.5L254 33C254 15.3269 239.673 1 222 1H33C14.7746 1 0 15.3269 0 33ZM255 66H0H255ZM0 66V0V66ZM222.5 -1C241.002 -1 256 13.9985 256 32.5C256 51.0015 241.002 66 222.5 66H222C239.673 66 254 51.2254 254 33C254 15.3269 239.673 1 222 1L222.5 -1Z" fill="white" fill-opacity="0.1" mask="url(#path-1-inside-1_6306_10268)"/>
<mask id="path-3-inside-2_6306_10268" fill="white">
<path d="M12 33C12 21.9543 20.9543 13 32 13C43.0457 13 52 21.9543 52 33C52 44.0457 43.0457 53 32 53C20.9543 53 12 44.0457 12 33Z"/>
</mask>
<path d="M12 33C12 21.9543 20.9543 13 32 13C43.0457 13 52 21.9543 52 33C52 44.0457 43.0457 53 32 53C20.9543 53 12 44.0457 12 33Z" fill="url(#paint0_linear_6306_10268)"/>
<path d="M12 32.5C12 21.1782 21.1782 12 32.5 12C43.8218 12 53 21.1782 53 32.5L51 33C51 22.5066 42.4934 14 32 14C20.9543 14 12 22.5066 12 33V32.5ZM52 53H12H52ZM12 53V13V53ZM32.5 12C43.8218 12 53 21.1782 53 32.5C53 43.8218 43.8218 53 32.5 53H32C42.4934 53 51 44.0457 51 33C51 22.5066 42.4934 14 32 14L32.5 12Z" fill="white" fill-opacity="0.1" mask="url(#path-3-inside-2_6306_10268)"/>
<path fill-rule="evenodd" clip-rule="evenodd" d="M23.9779 28.6818C24.7158 27.8045 25.9808 27.3757 27.8333 27.3757H36.1666C38.0192 27.3757 39.2842 27.8045 40.022 28.6818C40.7527 29.5505 40.8222 30.6917 40.7051 31.7558L40.0798 38.4257C39.988 39.2824 39.7729 40.2217 39.008 40.9205C38.2487 41.6142 37.0723 41.9591 35.3333 41.9591H28.6666C26.9276 41.9591 25.7512 41.6142 24.992 40.9205C24.227 40.2217 24.012 39.2824 23.9202 38.4256L23.9193 38.4174L23.2948 31.7559C23.1777 30.6917 23.2472 29.5505 23.9779 28.6818ZM24.9345 29.4864C24.5414 29.9537 24.4308 30.656 24.5378 31.6237L24.539 31.6341L25.1635 38.2965C25.2469 39.071 25.4195 39.618 25.8351 39.9976C26.257 40.3831 27.0557 40.7091 28.6666 40.7091H35.3333C36.9443 40.7091 37.7429 40.3831 38.1649 39.9976C38.5805 39.618 38.753 39.071 38.8364 38.2965L39.462 31.6236C39.5691 30.656 39.4585 29.9537 39.0654 29.4864C38.6783 29.0261 37.8724 28.6257 36.1666 28.6257H27.8333C26.1275 28.6257 25.3217 29.0261 24.9345 29.4864Z" fill="white"/>
<path fill-rule="evenodd" clip-rule="evenodd" d="M29.3278 26.3757C29.2924 26.6469 29.2914 26.9551 29.2914 27.3338V28.0006C29.2914 28.3458 29.0115 28.6256 28.6663 28.6256C28.3211 28.6256 28.0413 28.3458 28.0413 28.0006L28.0413 27.3122C28.0412 26.9592 28.0412 26.5737 28.0882 26.2139C28.1369 25.8411 28.2412 25.4453 28.4855 25.0918C28.9995 24.3481 29.941 24.0419 31.3332 24.0419H32.6667C34.0589 24.0419 35.0004 24.3481 35.5144 25.0918C35.7588 25.4453 35.863 25.8411 35.9117 26.2139C35.9587 26.5737 35.9587 26.9592 35.9586 27.3122L35.9586 28.0006C35.9586 28.3458 35.6788 28.6256 35.3336 28.6256C34.9884 28.6256 34.7085 28.3458 34.7085 28.0006V27.3338C34.7085 26.9551 34.7075 26.6469 34.6721 26.3757C34.6375 26.1102 34.5751 25.9314 34.486 25.8026C34.3333 25.5816 33.9414 25.292 32.6667 25.292H31.3332C30.0585 25.292 29.6666 25.5816 29.5139 25.8026C29.4248 25.9314 29.3625 26.1102 29.3278 26.3757Z" fill="white"/>
<path fill-rule="evenodd" clip-rule="evenodd" d="M30.959 33.6255C30.9583 33.685 30.9583 33.7528 30.9583 33.8332V34.6916C30.9583 34.9263 30.9604 35.0988 30.9807 35.2453C31.0003 35.386 31.0314 35.4546 31.0578 35.4918C31.0872 35.5333 31.2338 35.7084 32.0001 35.7084C32.7698 35.7084 32.9146 35.5316 32.9434 35.4905C32.97 35.4526 33.001 35.383 33.0203 35.2406C33.0403 35.0925 33.0418 34.9191 33.0418 34.6833V33.8332C33.0418 33.7528 33.0418 33.685 33.0412 33.6255C32.9817 33.6249 32.9139 33.6249 32.8335 33.6249H31.1667C31.0863 33.6249 31.0185 33.6249 30.959 33.6255ZM31.1393 32.3748C31.1484 32.3748 31.1575 32.3748 31.1667 32.3748H32.8335C32.8426 32.3748 32.8517 32.3748 32.8609 32.3748C33.0452 32.3747 33.2319 32.3747 33.3843 32.3916C33.5397 32.4089 33.7977 32.455 34.0047 32.662C34.2117 32.869 34.2578 33.127 34.2751 33.2824C34.292 33.4348 34.292 33.6216 34.292 33.8058C34.2919 33.815 34.2919 33.8241 34.2919 33.8332V34.6927C34.292 34.9091 34.292 35.1652 34.2591 35.4082C34.225 35.6603 34.1503 35.9465 33.9674 36.2076C33.5774 36.7645 32.8888 36.9585 32.0001 36.9585C31.1162 36.9585 30.4294 36.767 30.0379 36.2146C29.8538 35.955 29.7777 35.6698 29.7426 35.4176C29.7082 35.171 29.7082 34.9112 29.7082 34.6916V33.8332C29.7082 33.8241 29.7082 33.815 29.7082 33.8059C29.7082 33.6216 29.7081 33.4348 29.725 33.2824C29.7423 33.127 29.7885 32.869 29.9955 32.662C30.2024 32.455 30.4605 32.4089 30.6158 32.3916C30.7682 32.3747 30.955 32.3747 31.1393 32.3748Z" fill="white"/>
<path fill-rule="evenodd" clip-rule="evenodd" d="M40.5475 31.7991C40.7505 32.0783 40.6888 32.4692 40.4096 32.6722C38.396 34.1367 36.0954 35.0077 33.7445 35.3038C33.402 35.3469 33.0894 35.1042 33.0462 34.7617C33.0031 34.4192 33.2458 34.1066 33.5883 34.0635C35.7378 33.7928 37.8376 32.997 39.6743 31.6612C39.9535 31.4582 40.3444 31.5199 40.5475 31.7991Z" fill="white"/>
<path fill-rule="evenodd" clip-rule="evenodd" d="M23.6674 32.0388C23.8624 31.7539 24.2514 31.6811 24.5363 31.876C26.3272 33.1018 28.3467 33.8406 30.4033 34.0709C30.7464 34.1093 30.9934 34.4185 30.955 34.7616C30.9165 35.1047 30.6073 35.3516 30.2642 35.3132C28.0038 35.0601 25.7896 34.2488 23.8302 32.9076C23.5453 32.7127 23.4724 32.3237 23.6674 32.0388Z" fill="white"/>
<path d="M71.658 24H64.504V22.726L69.936 15.138H64.588V13.878H71.644V15.11L66.17 22.726H71.658V24ZM75.1708 24.168C73.7008 24.168 72.8328 23.342 72.8328 22.096C72.8328 20.836 73.7708 20.052 75.3808 19.926L77.5368 19.758V19.562C77.5368 18.414 76.8508 18.008 75.9268 18.008C74.8208 18.008 74.1908 18.498 74.1908 19.324H73.0428C73.0428 17.896 74.2188 16.958 75.9828 16.958C77.6768 16.958 78.8248 17.854 78.8248 19.702V24H77.7048L77.5648 22.894C77.2148 23.678 76.2768 24.168 75.1708 24.168ZM75.5488 23.146C76.7948 23.146 77.5508 22.334 77.5508 21.046V20.682L75.8008 20.822C74.6388 20.934 74.1628 21.382 74.1628 22.054C74.1628 22.782 74.6948 23.146 75.5488 23.146ZM84.5673 17.098V18.302H83.9793C82.7333 18.302 81.9633 19.058 81.9633 20.374V24H80.6473V17.168H81.8793L81.9633 18.204C82.2433 17.49 82.9293 17.014 83.8673 17.014C84.1053 17.014 84.3013 17.042 84.5673 17.098ZM90.8933 24H85.5593V22.936L89.2553 18.26H85.5593V17.154H90.8933V18.232L87.1693 22.894H90.8933V24ZM94.3798 24.168C92.9098 24.168 92.0418 23.342 92.0418 22.096C92.0418 20.836 92.9798 20.052 94.5898 19.926L96.7458 19.758V19.562C96.7458 18.414 96.0598 18.008 95.1358 18.008C94.0298 18.008 93.3998 18.498 93.3998 19.324H92.2518C92.2518 17.896 93.4278 16.958 95.1918 16.958C96.8858 16.958 98.0338 17.854 98.0338 19.702V24C97.4178 24.238 97.1378 24.644 97.1378 24.98C97.1378 25.288 97.3478 25.456 97.6558 25.456C97.7538 25.456 97.8658 25.442 97.9918 25.386V26.324C97.8098 26.394 97.6138 26.422 97.3898 26.422C96.6618 26.422 96.1998 25.932 96.1998 25.288C96.1998 24.784 96.5218 24.28 97.1798 24H96.9138L96.7738 22.894C96.4238 23.678 95.4858 24.168 94.3798 24.168ZM94.7578 23.146C96.0038 23.146 96.7598 22.334 96.7598 21.046V20.682L95.0098 20.822C93.8478 20.934 93.3718 21.382 93.3718 22.054C93.3718 22.782 93.9038 23.146 94.7578 23.146ZM102.6 24.168C100.612 24.168 99.4083 22.684 99.4083 20.598C99.4083 18.498 100.626 16.958 102.656 16.958C103.706 16.958 104.588 17.42 105.05 18.26V13.696H106.352V24H105.176L105.064 22.754C104.616 23.692 103.692 24.168 102.6 24.168ZM102.866 22.978C104.21 22.978 105.036 21.984 105.036 20.556C105.036 19.156 104.21 18.148 102.866 18.148C101.522 18.148 100.738 19.156 100.738 20.556C100.738 21.97 101.522 22.978 102.866 22.978ZM113.165 24H107.831V22.936L111.527 18.26H107.831V17.154H113.165V18.232L109.441 22.894H113.165V24ZM116.651 24.168C115.181 24.168 114.313 23.342 114.313 22.096C114.313 20.836 115.251 20.052 116.861 19.926L119.017 19.758V19.562C119.017 18.414 118.331 18.008 117.407 18.008C116.301 18.008 115.671 18.498 115.671 19.324H114.523C114.523 17.896 115.699 16.958 117.463 16.958C119.157 16.958 120.305 17.854 120.305 19.702V24H119.185L119.045 22.894C118.695 23.678 117.757 24.168 116.651 24.168ZM117.029 23.146C118.275 23.146 119.031 22.334 119.031 21.046V20.682L117.281 20.822C116.119 20.934 115.643 21.382 115.643 22.054C115.643 22.782 116.175 23.146 117.029 23.146ZM122.786 15.53C122.296 15.53 121.918 15.138 121.918 14.662C121.918 14.172 122.296 13.794 122.786 13.794C123.248 13.794 123.654 14.172 123.654 14.662C123.654 15.138 123.248 15.53 122.786 15.53ZM120.392 27.108L120.616 25.918C120.882 25.988 121.036 26.016 121.246 26.016C121.876 26.016 122.128 25.652 122.128 24.882V17.154H123.444V25.008C123.444 26.38 122.688 27.234 121.358 27.234C121.008 27.234 120.784 27.22 120.392 27.108ZM132.752 24H129.406V13.878H132.696C135.72 13.878 137.764 15.922 137.764 18.946C137.764 21.956 135.748 24 132.752 24ZM132.598 15.138H130.778V22.726H132.654C134.908 22.726 136.336 21.27 136.336 18.946C136.336 16.594 134.908 15.138 132.598 15.138ZM142.24 24.168C140.224 24.168 138.838 22.712 138.838 20.584C138.838 18.442 140.196 16.958 142.184 16.958C144.13 16.958 145.404 18.302 145.404 20.332V20.822L140.112 20.836C140.21 22.278 140.966 23.076 142.268 23.076C143.29 23.076 143.962 22.656 144.186 21.872H145.418C145.082 23.342 143.934 24.168 142.24 24.168ZM142.184 18.064C141.036 18.064 140.308 18.75 140.14 19.954H144.088C144.088 18.82 143.346 18.064 142.184 18.064ZM148.111 24L145.871 17.154H147.229L148.363 20.71C148.517 21.214 148.657 21.732 148.783 22.334C148.895 21.732 149.077 21.158 149.231 20.71L150.379 17.154H151.723L152.857 20.71C152.969 21.046 153.193 21.844 153.305 22.334C153.417 21.788 153.543 21.312 153.739 20.71L154.887 17.154H156.259L153.921 24H152.675L151.485 20.332C151.261 19.646 151.121 19.114 151.051 18.736C150.981 19.072 150.855 19.52 150.603 20.346L149.413 24H148.111ZM160.027 24.168C158.011 24.168 156.625 22.712 156.625 20.584C156.625 18.442 157.983 16.958 159.971 16.958C161.917 16.958 163.191 18.302 163.191 20.332V20.822L157.899 20.836C157.997 22.278 158.753 23.076 160.055 23.076C161.077 23.076 161.749 22.656 161.973 21.872H163.205C162.869 23.342 161.721 24.168 160.027 24.168ZM159.971 18.064C158.823 18.064 158.095 18.75 157.927 19.954H161.875C161.875 18.82 161.133 18.064 159.971 18.064ZM166.005 24H164.689V13.696H166.005V24ZM167.494 20.57C167.494 18.456 169.006 16.972 171.064 16.972C173.108 16.972 174.62 18.456 174.62 20.57C174.62 22.684 173.108 24.168 171.064 24.168C169.006 24.168 167.494 22.684 167.494 20.57ZM168.824 20.57C168.824 21.998 169.734 22.992 171.064 22.992C172.38 22.992 173.304 21.998 173.304 20.57C173.304 19.142 172.38 18.148 171.064 18.148C169.734 18.148 168.824 19.142 168.824 20.57ZM176.077 27.066V17.154H177.267L177.365 18.386C177.827 17.448 178.751 16.958 179.843 16.958C181.803 16.958 183.021 18.428 183.021 20.528C183.021 22.614 181.873 24.182 179.843 24.182C178.751 24.182 177.841 23.72 177.393 22.88V27.066H176.077ZM177.407 20.584C177.407 21.984 178.219 22.992 179.563 22.992C180.907 22.992 181.705 21.984 181.705 20.584C181.705 19.17 180.907 18.162 179.563 18.162C178.219 18.162 177.407 19.156 177.407 20.584ZM187.426 24.168C185.41 24.168 184.024 22.712 184.024 20.584C184.024 18.442 185.382 16.958 187.37 16.958C189.316 16.958 190.59 18.302 190.59 20.332V20.822L185.298 20.836C185.396 22.278 186.152 23.076 187.454 23.076C188.476 23.076 189.148 22.656 189.372 21.872H190.604C190.268 23.342 189.12 24.168 187.426 24.168ZM187.37 18.064C186.222 18.064 185.494 18.75 185.326 19.954H189.274C189.274 18.82 188.532 18.064 187.37 18.064ZM195.979 17.098V18.302H195.391C194.145 18.302 193.375 19.058 193.375 20.374V24H192.059V17.168H193.291L193.375 18.204C193.655 17.49 194.341 17.014 195.279 17.014C195.517 17.014 195.713 17.042 195.979 17.098ZM198.942 24.168C197.472 24.168 196.604 23.342 196.604 22.096C196.604 20.836 197.542 20.052 199.152 19.926L201.308 19.758V19.562C201.308 18.414 200.622 18.008 199.698 18.008C198.592 18.008 197.962 18.498 197.962 19.324H196.814C196.814 17.896 197.99 16.958 199.754 16.958C201.448 16.958 202.596 17.854 202.596 19.702V24H201.476L201.336 22.894C200.986 23.678 200.048 24.168 198.942 24.168ZM199.32 23.146C200.566 23.146 201.322 22.334 201.322 21.046V20.682L199.572 20.822C198.41 20.934 197.934 21.382 197.934 22.054C197.934 22.782 198.466 23.146 199.32 23.146ZM205.735 24H204.419V17.154H205.595L205.721 18.05C206.071 17.406 206.799 16.958 207.765 16.958C208.829 16.958 209.585 17.49 209.935 18.344C210.257 17.49 211.083 16.958 212.147 16.958C213.715 16.958 214.667 17.938 214.667 19.52V24H213.379V19.842C213.379 18.764 212.777 18.148 211.853 18.148C210.859 18.148 210.201 18.848 210.201 19.94V24H208.899V19.828C208.899 18.75 208.311 18.162 207.387 18.162C206.393 18.162 205.735 18.848 205.735 19.94V24ZM217.135 15.53C216.659 15.53 216.267 15.138 216.267 14.662C216.267 14.172 216.659 13.794 217.135 13.794C217.611 13.794 218.003 14.172 218.003 14.662C218.003 15.138 217.611 15.53 217.135 15.53ZM216.491 24V17.154H217.807V24H216.491Z" fill="white"/>
<path d="M68.858 34.5455C68.8153 34.1856 68.6425 33.9062 68.3395 33.7074C68.0365 33.5085 67.6648 33.4091 67.2244 33.4091C66.9025 33.4091 66.6207 33.4612 66.3793 33.5653C66.1402 33.6695 65.9531 33.8127 65.8182 33.995C65.6856 34.1773 65.6193 34.3845 65.6193 34.6165C65.6193 34.8106 65.6655 34.9775 65.7578 35.1172C65.8525 35.2545 65.9732 35.3693 66.12 35.4616C66.2668 35.5516 66.4207 35.6262 66.5817 35.6854C66.7427 35.7422 66.8906 35.7884 67.0256 35.8239L67.7642 36.0227C67.9536 36.0724 68.1643 36.1411 68.3963 36.2287C68.6307 36.3163 68.8544 36.4358 69.0675 36.5874C69.2829 36.7365 69.4605 36.9283 69.6001 37.1626C69.7398 37.397 69.8097 37.6847 69.8097 38.0256C69.8097 38.4186 69.7067 38.7737 69.5007 39.0909C69.2971 39.4081 68.9988 39.6603 68.6058 39.8473C68.2152 40.0343 67.7405 40.1278 67.1818 40.1278C66.661 40.1278 66.21 40.0438 65.8288 39.8757C65.45 39.7076 65.1518 39.4732 64.9339 39.1726C64.7185 38.8719 64.5966 38.5227 64.5682 38.125H65.4773C65.5009 38.3996 65.5933 38.6269 65.7543 38.8068C65.9176 38.9844 66.1236 39.117 66.3722 39.2045C66.6231 39.2898 66.893 39.3324 67.1818 39.3324C67.518 39.3324 67.8198 39.2779 68.0874 39.169C68.3549 39.0578 68.5668 38.9039 68.723 38.7074C68.8793 38.5085 68.9574 38.2765 68.9574 38.0114C68.9574 37.7699 68.8899 37.5734 68.755 37.4219C68.62 37.2704 68.4425 37.1473 68.2223 37.0526C68.0021 36.9579 67.7642 36.875 67.5085 36.804L66.6136 36.5483C66.0455 36.3849 65.5956 36.1518 65.2642 35.8487C64.9328 35.5457 64.767 35.1491 64.767 34.6591C64.767 34.2519 64.8771 33.8968 65.0973 33.5938C65.3198 33.2884 65.6181 33.0516 65.9922 32.8835C66.3686 32.7131 66.7888 32.6278 67.2528 32.6278C67.7216 32.6278 68.1383 32.7119 68.5028 32.88C68.8674 33.0457 69.1563 33.273 69.3693 33.5618C69.5848 33.8506 69.6984 34.1785 69.7102 34.5455H68.858ZM70.9877 40V39.3608L74.0843 35.3835V35.3267H71.0872V34.5455H75.1639V35.2131L72.1525 39.1619V39.2188H75.2633V40H70.9877ZM77.0939 42.0455C76.9519 42.0455 76.8252 42.0336 76.714 42.0099C76.6027 41.9886 76.5257 41.9673 76.4831 41.946L76.6962 41.2074C76.8998 41.2595 77.0797 41.2784 77.236 41.2642C77.3922 41.25 77.5307 41.1802 77.6515 41.0547C77.7746 40.9316 77.887 40.7315 77.9888 40.4545L78.1451 40.0284L76.128 34.5455H77.0371L78.5428 38.892H78.5996L80.1053 34.5455H81.0144L78.699 40.7955C78.5949 41.0772 78.4658 41.3104 78.312 41.495C78.1581 41.6821 77.9793 41.8205 77.7757 41.9105C77.5745 42.0005 77.3472 42.0455 77.0939 42.0455ZM82.2342 40V32.7273H83.0723V35.4119H83.1433C83.2048 35.3172 83.2901 35.1965 83.399 35.0497C83.5102 34.9006 83.6689 34.768 83.8748 34.652C84.0832 34.5336 84.3649 34.4744 84.72 34.4744C85.1793 34.4744 85.5841 34.5893 85.9345 34.8189C86.2849 35.0485 86.5583 35.3741 86.7548 35.7955C86.9513 36.2169 87.0495 36.714 87.0495 37.2869C87.0495 37.8646 86.9513 38.3653 86.7548 38.7891C86.5583 39.2105 86.286 39.5372 85.938 39.7692C85.59 39.9988 85.1887 40.1136 84.7342 40.1136C84.3838 40.1136 84.1033 40.0556 83.8926 39.9396C83.6819 39.8213 83.5197 39.6875 83.4061 39.5384C83.2924 39.3868 83.2048 39.2614 83.1433 39.1619H83.0439V40H82.2342ZM83.0581 37.2727C83.0581 37.6847 83.1184 38.0481 83.2392 38.3629C83.3599 38.6754 83.5363 38.9205 83.7683 39.098C84.0003 39.2732 84.2844 39.3608 84.6206 39.3608C84.9709 39.3608 85.2633 39.2685 85.4977 39.0838C85.7344 38.8968 85.912 38.6458 86.0304 38.331C86.1511 38.0137 86.2115 37.661 86.2115 37.2727C86.2115 36.8892 86.1523 36.5436 86.0339 36.2358C85.9179 35.9257 85.7415 35.6806 85.5048 35.5007C85.2704 35.3184 84.9757 35.2273 84.6206 35.2273C84.2797 35.2273 83.9932 35.3137 83.7612 35.4865C83.5292 35.657 83.354 35.8961 83.2356 36.2038C83.1172 36.5092 83.0581 36.8655 83.0581 37.2727ZM89.1127 38.0114L89.0985 36.9744H89.269L91.6554 34.5455H92.6923L90.1497 37.1165H90.0787L89.1127 38.0114ZM88.3315 40V32.7273H89.1696V40H88.3315ZM91.7974 40L89.6667 37.3011L90.2633 36.7188L92.8627 40H91.7974ZM93.771 40V34.5455H94.609V40H93.771ZM94.1971 33.6364C94.0337 33.6364 93.8929 33.5807 93.7745 33.4695C93.6585 33.3582 93.6005 33.2244 93.6005 33.0682C93.6005 32.9119 93.6585 32.7782 93.7745 32.6669C93.8929 32.5556 94.0337 32.5 94.1971 32.5C94.3604 32.5 94.5001 32.5556 94.6161 32.6669C94.7345 32.7782 94.7937 32.9119 94.7937 33.0682C94.7937 33.2244 94.7345 33.3582 94.6161 33.4695C94.5001 33.5807 94.3604 33.6364 94.1971 33.6364ZM98.4309 40.1136C97.9054 40.1136 97.452 39.9976 97.0708 39.7656C96.6921 39.5312 96.3997 39.2045 96.1937 38.7855C95.9901 38.3641 95.8883 37.8741 95.8883 37.3153C95.8883 36.7566 95.9901 36.2642 96.1937 35.8381C96.3997 35.4096 96.6861 35.0758 97.0531 34.8366C97.4224 34.5952 97.8533 34.4744 98.3457 34.4744C98.6298 34.4744 98.9103 34.5218 99.1873 34.6165C99.4643 34.7112 99.7164 34.8651 99.9437 35.0781C100.171 35.2888 100.352 35.5682 100.487 35.9162C100.622 36.2642 100.689 36.6927 100.689 37.2017V37.5568H96.4849V36.8324H99.8372C99.8372 36.5246 99.7756 36.25 99.6525 36.0085C99.5318 35.767 99.359 35.5765 99.1341 35.4368C98.9115 35.2971 98.6487 35.2273 98.3457 35.2273C98.0119 35.2273 97.7231 35.3101 97.4792 35.4759C97.2377 35.6392 97.0519 35.8523 96.9217 36.1151C96.7915 36.3778 96.7264 36.6596 96.7264 36.9602V37.4432C96.7264 37.8551 96.7974 38.2043 96.9395 38.4908C97.0839 38.7749 97.2839 38.9915 97.5396 39.1406C97.7953 39.2874 98.0924 39.3608 98.4309 39.3608C98.6511 39.3608 98.85 39.33 99.0275 39.2685C99.2074 39.2045 99.3625 39.1098 99.4927 38.9844C99.6229 38.8565 99.7235 38.6979 99.7946 38.5085L100.604 38.7358C100.519 39.0104 100.376 39.2519 100.175 39.4602C99.9733 39.6662 99.7247 39.8272 99.4288 39.9432C99.1329 40.0568 98.8002 40.1136 98.4309 40.1136ZM106.836 40.1136C106.382 40.1136 105.981 39.9988 105.633 39.7692C105.285 39.5372 105.012 39.2105 104.816 38.7891C104.619 38.3653 104.521 37.8646 104.521 37.2869C104.521 36.714 104.619 36.2169 104.816 35.7955C105.012 35.3741 105.286 35.0485 105.636 34.8189C105.987 34.5893 106.391 34.4744 106.851 34.4744C107.206 34.4744 107.486 34.5336 107.692 34.652C107.901 34.768 108.059 34.9006 108.168 35.0497C108.279 35.1965 108.366 35.3172 108.427 35.4119H108.498V32.7273H109.336V40H108.527V39.1619H108.427C108.366 39.2614 108.278 39.3868 108.165 39.5384C108.051 39.6875 107.889 39.8213 107.678 39.9396C107.467 40.0556 107.187 40.1136 106.836 40.1136ZM106.95 39.3608C107.286 39.3608 107.57 39.2732 107.802 39.098C108.034 38.9205 108.211 38.6754 108.331 38.3629C108.452 38.0481 108.513 37.6847 108.513 37.2727C108.513 36.8655 108.453 36.5092 108.335 36.2038C108.217 35.8961 108.041 35.657 107.809 35.4865C107.577 35.3137 107.291 35.2273 106.95 35.2273C106.595 35.2273 106.299 35.3184 106.062 35.5007C105.828 35.6806 105.652 35.9257 105.533 36.2358C105.417 36.5436 105.359 36.8892 105.359 37.2727C105.359 37.661 105.418 38.0137 105.537 38.331C105.657 38.6458 105.835 38.8968 106.069 39.0838C106.306 39.2685 106.6 39.3608 106.95 39.3608ZM113.204 40.1136C112.711 40.1136 112.279 39.9964 111.907 39.7621C111.538 39.5277 111.249 39.1998 111.041 38.7784C110.835 38.357 110.732 37.8646 110.732 37.3011C110.732 36.733 110.835 36.237 111.041 35.8132C111.249 35.3894 111.538 35.0604 111.907 34.826C112.279 34.5916 112.711 34.4744 113.204 34.4744C113.696 34.4744 114.127 34.5916 114.496 34.826C114.868 35.0604 115.157 35.3894 115.363 35.8132C115.571 36.237 115.675 36.733 115.675 37.3011C115.675 37.8646 115.571 38.357 115.363 38.7784C115.157 39.1998 114.868 39.5277 114.496 39.7621C114.127 39.9964 113.696 40.1136 113.204 40.1136ZM113.204 39.3608C113.578 39.3608 113.885 39.2649 114.127 39.0732C114.368 38.8814 114.547 38.6293 114.663 38.3168C114.779 38.0043 114.837 37.6657 114.837 37.3011C114.837 36.9366 114.779 36.5968 114.663 36.282C114.547 35.9671 114.368 35.7126 114.127 35.5185C113.885 35.3243 113.578 35.2273 113.204 35.2273C112.83 35.2273 112.522 35.3243 112.28 35.5185C112.039 35.7126 111.86 35.9671 111.744 36.282C111.628 36.5968 111.57 36.9366 111.57 37.3011C111.57 37.6657 111.628 38.0043 111.744 38.3168C111.86 38.6293 112.039 38.8814 112.28 39.0732C112.522 39.2649 112.83 39.3608 113.204 39.3608ZM119.014 40.1136C118.56 40.1136 118.158 39.9988 117.81 39.7692C117.462 39.5372 117.19 39.2105 116.994 38.7891C116.797 38.3653 116.699 37.8646 116.699 37.2869C116.699 36.714 116.797 36.2169 116.994 35.7955C117.19 35.3741 117.464 35.0485 117.814 34.8189C118.164 34.5893 118.569 34.4744 119.028 34.4744C119.384 34.4744 119.664 34.5336 119.87 34.652C120.078 34.768 120.237 34.9006 120.346 35.0497C120.457 35.1965 120.544 35.3172 120.605 35.4119H120.676V32.7273H121.514V40H120.705V39.1619H120.605C120.544 39.2614 120.456 39.3868 120.342 39.5384C120.229 39.6875 120.067 39.8213 119.856 39.9396C119.645 40.0556 119.365 40.1136 119.014 40.1136ZM119.128 39.3608C119.464 39.3608 119.748 39.2732 119.98 39.098C120.212 38.9205 120.388 38.6754 120.509 38.3629C120.63 38.0481 120.69 37.6847 120.69 37.2727C120.69 36.8655 120.631 36.5092 120.513 36.2038C120.394 35.8961 120.219 35.657 119.987 35.4865C119.755 35.3137 119.469 35.2273 119.128 35.2273C118.773 35.2273 118.477 35.3184 118.24 35.5007C118.006 35.6806 117.829 35.9257 117.711 36.2358C117.595 36.5436 117.537 36.8892 117.537 37.2727C117.537 37.661 117.596 38.0137 117.714 38.331C117.835 38.6458 118.013 38.8968 118.247 39.0838C118.484 39.2685 118.777 39.3608 119.128 39.3608ZM124.771 40.1278C124.425 40.1278 124.111 40.0627 123.83 39.9325C123.548 39.8 123.324 39.6094 123.158 39.3608C122.993 39.1098 122.91 38.8068 122.91 38.4517C122.91 38.1392 122.971 37.8859 123.094 37.6918C123.218 37.4953 123.382 37.3414 123.588 37.2301C123.794 37.1188 124.021 37.036 124.27 36.9815C124.521 36.9247 124.773 36.8797 125.026 36.8466C125.358 36.804 125.626 36.772 125.832 36.7507C126.041 36.727 126.192 36.688 126.287 36.6335C126.384 36.5791 126.433 36.4844 126.433 36.3494V36.321C126.433 35.9706 126.337 35.6984 126.145 35.5043C125.955 35.3101 125.668 35.2131 125.282 35.2131C124.882 35.2131 124.568 35.3007 124.341 35.4759C124.114 35.651 123.954 35.8381 123.862 36.0369L123.066 35.7528C123.208 35.4214 123.397 35.1634 123.634 34.9787C123.873 34.7917 124.134 34.6615 124.415 34.5881C124.7 34.5123 124.979 34.4744 125.254 34.4744C125.429 34.4744 125.63 34.4957 125.857 34.5384C126.087 34.5786 126.308 34.6626 126.521 34.7905C126.737 34.9183 126.915 35.1113 127.058 35.3693C127.2 35.6274 127.271 35.973 127.271 36.4062V40H126.433V39.2614H126.39C126.333 39.3797 126.238 39.5064 126.106 39.6413C125.973 39.7763 125.797 39.8911 125.577 39.9858C125.357 40.0805 125.088 40.1278 124.771 40.1278ZM124.898 39.375C125.23 39.375 125.509 39.3099 125.737 39.1797C125.966 39.0495 126.139 38.8814 126.255 38.6754C126.373 38.4695 126.433 38.2528 126.433 38.0256V37.2585C126.397 37.3011 126.319 37.3402 126.198 37.3757C126.08 37.4089 125.942 37.4384 125.786 37.4645C125.632 37.4882 125.482 37.5095 125.335 37.5284C125.191 37.545 125.074 37.5592 124.984 37.571C124.766 37.5994 124.562 37.6456 124.373 37.7095C124.186 37.7711 124.034 37.8646 123.918 37.9901C123.805 38.1132 123.748 38.2812 123.748 38.4943C123.748 38.7855 123.856 39.0057 124.071 39.1548C124.289 39.3016 124.565 39.375 124.898 39.375ZM130.036 40L128.374 34.5455H129.255L130.434 38.7216H130.491L131.655 34.5455H132.55L133.701 38.7074H133.758L134.937 34.5455H135.817L134.155 40H133.331L132.138 35.8097H132.053L130.86 40H130.036ZM138.53 40.1278C138.185 40.1278 137.871 40.0627 137.589 39.9325C137.308 39.8 137.084 39.6094 136.918 39.3608C136.752 39.1098 136.67 38.8068 136.67 38.4517C136.67 38.1392 136.731 37.8859 136.854 37.6918C136.977 37.4953 137.142 37.3414 137.348 37.2301C137.554 37.1188 137.781 37.036 138.03 36.9815C138.281 36.9247 138.533 36.8797 138.786 36.8466C139.117 36.804 139.386 36.772 139.592 36.7507C139.8 36.727 139.952 36.688 140.047 36.6335C140.144 36.5791 140.192 36.4844 140.192 36.3494V36.321C140.192 35.9706 140.096 35.6984 139.905 35.5043C139.715 35.3101 139.428 35.2131 139.042 35.2131C138.642 35.2131 138.328 35.3007 138.101 35.4759C137.873 35.651 137.714 35.8381 137.621 36.0369L136.826 35.7528C136.968 35.4214 137.157 35.1634 137.394 34.9787C137.633 34.7917 137.894 34.6615 138.175 34.5881C138.459 34.5123 138.739 34.4744 139.013 34.4744C139.189 34.4744 139.39 34.4957 139.617 34.5384C139.847 34.5786 140.068 34.6626 140.281 34.7905C140.497 34.9183 140.675 35.1113 140.817 35.3693C140.959 35.6274 141.03 35.973 141.03 36.4062V40H140.192V39.2614H140.15C140.093 39.3797 139.998 39.5064 139.866 39.6413C139.733 39.7763 139.557 39.8911 139.336 39.9858C139.116 40.0805 138.848 40.1278 138.53 40.1278ZM138.658 39.375C138.99 39.375 139.269 39.3099 139.496 39.1797C139.726 39.0495 139.899 38.8814 140.015 38.6754C140.133 38.4695 140.192 38.2528 140.192 38.0256V37.2585C140.157 37.3011 140.079 37.3402 139.958 37.3757C139.84 37.4089 139.702 37.4384 139.546 37.4645C139.392 37.4882 139.242 37.5095 139.095 37.5284C138.951 37.545 138.833 37.5592 138.743 37.571C138.526 37.5994 138.322 37.6456 138.133 37.7095C137.946 37.7711 137.794 37.8646 137.678 37.9901C137.564 38.1132 137.508 38.2812 137.508 38.4943C137.508 38.7855 137.615 39.0057 137.831 39.1548C138.049 39.3016 138.324 39.375 138.658 39.375ZM143.398 36.7188V40H142.56V34.5455H143.37V35.3977H143.441C143.569 35.1207 143.763 34.8982 144.023 34.7301C144.283 34.5597 144.62 34.4744 145.032 34.4744C145.401 34.4744 145.724 34.5502 146.001 34.7017C146.278 34.8509 146.493 35.0781 146.647 35.3835C146.801 35.6866 146.878 36.0701 146.878 36.5341V40H146.04V36.5909C146.04 36.1624 145.929 35.8286 145.706 35.5895C145.484 35.348 145.178 35.2273 144.79 35.2273C144.523 35.2273 144.283 35.2853 144.073 35.4013C143.864 35.5173 143.7 35.6866 143.579 35.9091C143.458 36.1316 143.398 36.4015 143.398 36.7188ZM148.41 40V34.5455H149.248V40H148.41ZM148.836 33.6364C148.672 33.6364 148.532 33.5807 148.413 33.4695C148.297 33.3582 148.239 33.2244 148.239 33.0682C148.239 32.9119 148.297 32.7782 148.413 32.6669C148.532 32.5556 148.672 32.5 148.836 32.5C148.999 32.5 149.139 32.5556 149.255 32.6669C149.373 32.7782 149.432 32.9119 149.432 33.0682C149.432 33.2244 149.373 33.3582 149.255 33.4695C149.139 33.5807 148.999 33.6364 148.836 33.6364ZM153.07 40.1136C152.544 40.1136 152.091 39.9976 151.71 39.7656C151.331 39.5312 151.038 39.2045 150.832 38.7855C150.629 38.3641 150.527 37.8741 150.527 37.3153C150.527 36.7566 150.629 36.2642 150.832 35.8381C151.038 35.4096 151.325 35.0758 151.692 34.8366C152.061 34.5952 152.492 34.4744 152.984 34.4744C153.268 34.4744 153.549 34.5218 153.826 34.6165C154.103 34.7112 154.355 34.8651 154.582 35.0781C154.81 35.2888 154.991 35.5682 155.126 35.9162C155.261 36.2642 155.328 36.6927 155.328 37.2017V37.5568H151.124V36.8324H154.476C154.476 36.5246 154.414 36.25 154.291 36.0085C154.17 35.767 153.998 35.5765 153.773 35.4368C153.55 35.2971 153.287 35.2273 152.984 35.2273C152.651 35.2273 152.362 35.3101 152.118 35.4759C151.876 35.6392 151.691 35.8523 151.56 36.1151C151.43 36.3778 151.365 36.6596 151.365 36.9602V37.4432C151.365 37.8551 151.436 38.2043 151.578 38.4908C151.723 38.7749 151.923 38.9915 152.178 39.1406C152.434 39.2874 152.731 39.3608 153.07 39.3608C153.29 39.3608 153.489 39.33 153.666 39.2685C153.846 39.2045 154.001 39.1098 154.131 38.9844C154.262 38.8565 154.362 38.6979 154.433 38.5085L155.243 38.7358C155.158 39.0104 155.014 39.2519 154.813 39.4602C154.612 39.6662 154.363 39.8272 154.067 39.9432C153.772 40.0568 153.439 40.1136 153.07 40.1136ZM159.415 40V34.5455H160.254V40H159.415ZM159.842 33.6364C159.678 33.6364 159.537 33.5807 159.419 33.4695C159.303 33.3582 159.245 33.2244 159.245 33.0682C159.245 32.9119 159.303 32.7782 159.419 32.6669C159.537 32.5556 159.678 32.5 159.842 32.5C160.005 32.5 160.145 32.5556 160.261 32.6669C160.379 32.7782 160.438 32.9119 160.438 33.0682C160.438 33.2244 160.379 33.3582 160.261 33.4695C160.145 33.5807 160.005 33.6364 159.842 33.6364ZM166.888 40.1136C166.362 40.1136 165.909 39.9976 165.528 39.7656C165.149 39.5312 164.857 39.2045 164.651 38.7855C164.447 38.3641 164.345 37.8741 164.345 37.3153C164.345 36.7566 164.447 36.2642 164.651 35.8381C164.857 35.4096 165.143 35.0758 165.51 34.8366C165.879 34.5952 166.31 34.4744 166.803 34.4744C167.087 34.4744 167.367 34.5218 167.644 34.6165C167.921 34.7112 168.173 34.8651 168.401 35.0781C168.628 35.2888 168.809 35.5682 168.944 35.9162C169.079 36.2642 169.146 36.6927 169.146 37.2017V37.5568H164.942V36.8324H168.294C168.294 36.5246 168.233 36.25 168.11 36.0085C167.989 35.767 167.816 35.5765 167.591 35.4368C167.369 35.2971 167.106 35.2273 166.803 35.2273C166.469 35.2273 166.18 35.3101 165.936 35.4759C165.695 35.6392 165.509 35.8523 165.379 36.1151C165.249 36.3778 165.183 36.6596 165.183 36.9602V37.4432C165.183 37.8551 165.254 38.2043 165.396 38.4908C165.541 38.7749 165.741 38.9915 165.997 39.1406C166.252 39.2874 166.549 39.3608 166.888 39.3608C167.108 39.3608 167.307 39.33 167.485 39.2685C167.664 39.2045 167.82 39.1098 167.95 38.9844C168.08 38.8565 168.181 38.6979 168.252 38.5085L169.061 38.7358C168.976 39.0104 168.833 39.2519 168.632 39.4602C168.43 39.6662 168.182 39.8272 167.886 39.9432C167.59 40.0568 167.257 40.1136 166.888 40.1136ZM172.481 40.1136C172.026 40.1136 171.625 39.9988 171.277 39.7692C170.929 39.5372 170.657 39.2105 170.46 38.7891C170.264 38.3653 170.166 37.8646 170.166 37.2869C170.166 36.714 170.264 36.2169 170.46 35.7955C170.657 35.3741 170.93 35.0485 171.281 34.8189C171.631 34.5893 172.036 34.4744 172.495 34.4744C172.85 34.4744 173.131 34.5336 173.337 34.652C173.545 34.768 173.704 34.9006 173.813 35.0497C173.924 35.1965 174.01 35.3172 174.072 35.4119H174.143V32.7273H174.981V40H174.171V39.1619H174.072C174.01 39.2614 173.923 39.3868 173.809 39.5384C173.695 39.6875 173.533 39.8213 173.323 39.9396C173.112 40.0556 172.831 40.1136 172.481 40.1136ZM172.595 39.3608C172.931 39.3608 173.215 39.2732 173.447 39.098C173.679 38.9205 173.855 38.6754 173.976 38.3629C174.097 38.0481 174.157 37.6847 174.157 37.2727C174.157 36.8655 174.098 36.5092 173.98 36.2038C173.861 35.8961 173.686 35.657 173.454 35.4865C173.222 35.3137 172.936 35.2273 172.595 35.2273C172.24 35.2273 171.944 35.3184 171.707 35.5007C171.472 35.6806 171.296 35.9257 171.178 36.2358C171.062 36.5436 171.004 36.8892 171.004 37.2727C171.004 37.661 171.063 38.0137 171.181 38.331C171.302 38.6458 171.48 38.8968 171.714 39.0838C171.951 39.2685 172.244 39.3608 172.595 39.3608ZM177.172 42.0455C177.03 42.0455 176.903 42.0336 176.792 42.0099C176.681 41.9886 176.604 41.9673 176.561 41.946L176.774 41.2074C176.978 41.2595 177.158 41.2784 177.314 41.2642C177.47 41.25 177.609 41.1802 177.73 41.0547C177.853 40.9316 177.965 40.7315 178.067 40.4545L178.223 40.0284L176.206 34.5455H177.115L178.621 38.892H178.678L180.183 34.5455H181.093L178.777 40.7955C178.673 41.0772 178.544 41.3104 178.39 41.495C178.236 41.6821 178.057 41.8205 177.854 41.9105C177.653 42.0005 177.425 42.0455 177.172 42.0455ZM184.219 40.1136C183.708 40.1136 183.268 39.9929 182.898 39.7514C182.529 39.5099 182.245 39.1773 182.046 38.7536C181.847 38.3298 181.748 37.8456 181.748 37.3011C181.748 36.7472 181.849 36.2583 182.053 35.8345C182.259 35.4084 182.546 35.0758 182.912 34.8366C183.282 34.5952 183.713 34.4744 184.205 34.4744C184.589 34.4744 184.934 34.5455 185.242 34.6875C185.55 34.8295 185.802 35.0284 185.998 35.2841C186.195 35.5398 186.317 35.8381 186.364 36.179H185.526C185.462 35.9304 185.32 35.7102 185.1 35.5185C184.882 35.3243 184.589 35.2273 184.219 35.2273C183.893 35.2273 183.606 35.3125 183.36 35.483C183.116 35.651 182.925 35.889 182.788 36.1967C182.653 36.5021 182.586 36.8608 182.586 37.2727C182.586 37.6941 182.652 38.0611 182.785 38.3736C182.92 38.6861 183.109 38.9287 183.353 39.1016C183.599 39.2744 183.888 39.3608 184.219 39.3608C184.437 39.3608 184.635 39.3229 184.812 39.2472C184.99 39.1714 185.14 39.0625 185.263 38.9205C185.386 38.7784 185.474 38.608 185.526 38.4091H186.364C186.317 38.7311 186.2 39.0211 186.013 39.2791C185.828 39.5348 185.583 39.7384 185.278 39.8899C184.974 40.0391 184.622 40.1136 184.219 40.1136ZM187.589 34.5455H188.427V40.3977C188.427 40.7339 188.369 41.0251 188.253 41.2713C188.14 41.5175 187.967 41.7081 187.735 41.843C187.505 41.978 187.215 42.0455 186.865 42.0455C186.836 42.0455 186.808 42.0455 186.78 42.0455C186.751 42.0455 186.723 42.0455 186.694 42.0455V41.2642C186.723 41.2642 186.749 41.2642 186.773 41.2642C186.796 41.2642 186.822 41.2642 186.851 41.2642C187.106 41.2642 187.293 41.1884 187.412 41.0369C187.53 40.8878 187.589 40.6747 187.589 40.3977V34.5455ZM188.001 33.6364C187.838 33.6364 187.697 33.5807 187.579 33.4695C187.463 33.3582 187.405 33.2244 187.405 33.0682C187.405 32.9119 187.463 32.7782 187.579 32.6669C187.697 32.5556 187.838 32.5 188.001 32.5C188.165 32.5 188.304 32.5556 188.42 32.6669C188.539 32.7782 188.598 32.9119 188.598 33.0682C188.598 33.2244 188.539 33.3582 188.42 33.4695C188.304 33.5807 188.165 33.6364 188.001 33.6364ZM191.567 40.1278C191.222 40.1278 190.908 40.0627 190.626 39.9325C190.345 39.8 190.121 39.6094 189.955 39.3608C189.79 39.1098 189.707 38.8068 189.707 38.4517C189.707 38.1392 189.768 37.8859 189.891 37.6918C190.014 37.4953 190.179 37.3414 190.385 37.2301C190.591 37.1188 190.818 37.036 191.067 36.9815C191.318 36.9247 191.57 36.8797 191.823 36.8466C192.155 36.804 192.423 36.772 192.629 36.7507C192.838 36.727 192.989 36.688 193.084 36.6335C193.181 36.5791 193.229 36.4844 193.229 36.3494V36.321C193.229 35.9706 193.134 35.6984 192.942 35.5043C192.752 35.3101 192.465 35.2131 192.079 35.2131C191.679 35.2131 191.365 35.3007 191.138 35.4759C190.911 35.651 190.751 35.8381 190.658 36.0369L189.863 35.7528C190.005 35.4214 190.194 35.1634 190.431 34.9787C190.67 34.7917 190.931 34.6615 191.212 34.5881C191.496 34.5123 191.776 34.4744 192.05 34.4744C192.226 34.4744 192.427 34.4957 192.654 34.5384C192.884 34.5786 193.105 34.6626 193.318 34.7905C193.534 34.9183 193.712 35.1113 193.854 35.3693C193.996 35.6274 194.067 35.973 194.067 36.4062V40H193.229V39.2614H193.187C193.13 39.3797 193.035 39.5064 192.903 39.6413C192.77 39.7763 192.594 39.8911 192.374 39.9858C192.153 40.0805 191.885 40.1278 191.567 40.1278ZM191.695 39.375C192.027 39.375 192.306 39.3099 192.533 39.1797C192.763 39.0495 192.936 38.8814 193.052 38.6754C193.17 38.4695 193.229 38.2528 193.229 38.0256V37.2585C193.194 37.3011 193.116 37.3402 192.995 37.3757C192.877 37.4089 192.739 37.4384 192.583 37.4645C192.429 37.4882 192.279 37.5095 192.132 37.5284C191.988 37.545 191.871 37.5592 191.781 37.571C191.563 37.5994 191.359 37.6456 191.17 37.7095C190.983 37.7711 190.831 37.8646 190.715 37.9901C190.602 38.1132 190.545 38.2812 190.545 38.4943C190.545 38.7855 190.652 39.0057 190.868 39.1548C191.086 39.3016 191.362 39.375 191.695 39.375ZM67.892 47.973V48.7543H64.7102V47.973H67.892ZM74.7218 44.7273V52H73.8411V45.6506H73.7985L72.0229 46.8295V45.9347L73.8411 44.7273H74.7218ZM79.1855 52.0994C78.6505 52.0994 78.1948 51.9538 77.8184 51.6626C77.4419 51.3691 77.1543 50.9441 76.9554 50.3878C76.7566 49.8291 76.6571 49.1544 76.6571 48.3636C76.6571 47.5777 76.7566 46.9065 76.9554 46.3501C77.1567 45.7914 77.4455 45.3653 77.8219 45.0717C78.2007 44.7758 78.6552 44.6278 79.1855 44.6278C79.7158 44.6278 80.1692 44.7758 80.5456 45.0717C80.9244 45.3653 81.2132 45.7914 81.4121 46.3501C81.6133 46.9065 81.714 47.5777 81.714 48.3636C81.714 49.1544 81.6145 49.8291 81.4157 50.3878C81.2168 50.9441 80.9292 51.3691 80.5527 51.6626C80.1763 51.9538 79.7206 52.0994 79.1855 52.0994ZM79.1855 51.3182C79.7158 51.3182 80.1278 51.0625 80.4213 50.5511C80.7149 50.0398 80.8617 49.3106 80.8617 48.3636C80.8617 47.7339 80.7942 47.1977 80.6593 46.755C80.5267 46.3123 80.3349 45.9749 80.084 45.7429C79.8354 45.5109 79.5359 45.3949 79.1855 45.3949C78.66 45.3949 78.2492 45.6541 77.9533 46.1726C77.6574 46.6887 77.5094 47.419 77.5094 48.3636C77.5094 48.9934 77.5757 49.5284 77.7083 49.9688C77.8408 50.4091 78.0314 50.7441 78.28 50.9737C78.531 51.2034 78.8328 51.3182 79.1855 51.3182ZM85.4355 52.0994C84.9005 52.0994 84.4448 51.9538 84.0684 51.6626C83.6919 51.3691 83.4043 50.9441 83.2054 50.3878C83.0066 49.8291 82.9071 49.1544 82.9071 48.3636C82.9071 47.5777 83.0066 46.9065 83.2054 46.3501C83.4067 45.7914 83.6955 45.3653 84.0719 45.0717C84.4507 44.7758 84.9052 44.6278 85.4355 44.6278C85.9658 44.6278 86.4192 44.7758 86.7956 45.0717C87.1744 45.3653 87.4632 45.7914 87.6621 46.3501C87.8633 46.9065 87.964 47.5777 87.964 48.3636C87.964 49.1544 87.8645 49.8291 87.6657 50.3878C87.4668 50.9441 87.1792 51.3691 86.8027 51.6626C86.4263 51.9538 85.9706 52.0994 85.4355 52.0994ZM85.4355 51.3182C85.9658 51.3182 86.3778 51.0625 86.6713 50.5511C86.9649 50.0398 87.1117 49.3106 87.1117 48.3636C87.1117 47.7339 87.0442 47.1977 86.9093 46.755C86.7767 46.3123 86.5849 45.9749 86.334 45.7429C86.0854 45.5109 85.7859 45.3949 85.4355 45.3949C84.91 45.3949 84.4992 45.6541 84.2033 46.1726C83.9074 46.6887 83.7594 47.419 83.7594 48.3636C83.7594 48.9934 83.8257 49.5284 83.9583 49.9688C84.0908 50.4091 84.2814 50.7441 84.53 50.9737C84.781 51.2034 85.0828 51.3182 85.4355 51.3182ZM93.0208 50.6364V50.2528C93.0208 49.9877 93.0752 49.745 93.1841 49.5249C93.2954 49.3023 93.4564 49.1248 93.6671 48.9922C93.8801 48.8572 94.1382 48.7898 94.4412 48.7898C94.749 48.7898 95.007 48.8572 95.2154 48.9922C95.4237 49.1248 95.5811 49.3023 95.6877 49.5249C95.7942 49.745 95.8475 49.9877 95.8475 50.2528V50.6364C95.8475 50.9015 95.793 51.1454 95.6841 51.3679C95.5776 51.5881 95.419 51.7656 95.2083 51.9006C94.9999 52.0331 94.7443 52.0994 94.4412 52.0994C94.1335 52.0994 93.8742 52.0331 93.6635 51.9006C93.4528 51.7656 93.293 51.5881 93.1841 51.3679C93.0752 51.1454 93.0208 50.9015 93.0208 50.6364ZM93.7452 50.2528V50.6364C93.7452 50.8565 93.7973 51.0542 93.9015 51.2294C94.0056 51.4022 94.1855 51.4886 94.4412 51.4886C94.6898 51.4886 94.865 51.4022 94.9668 51.2294C95.071 51.0542 95.123 50.8565 95.123 50.6364V50.2528C95.123 50.0327 95.0733 49.8362 94.9739 49.6634C94.8745 49.4882 94.6969 49.4006 94.4412 49.4006C94.1926 49.4006 94.0139 49.4882 93.905 49.6634C93.7985 49.8362 93.7452 50.0327 93.7452 50.2528ZM89.3986 46.4744V46.0909C89.3986 45.8258 89.4531 45.5831 89.562 45.3629C89.6732 45.1404 89.8342 44.9628 90.0449 44.8303C90.258 44.6953 90.516 44.6278 90.8191 44.6278C91.1268 44.6278 91.3849 44.6953 91.5932 44.8303C91.8016 44.9628 91.959 45.1404 92.0655 45.3629C92.1721 45.5831 92.2253 45.8258 92.2253 46.0909V46.4744C92.2253 46.7396 92.1709 46.9834 92.062 47.206C91.9554 47.4261 91.7968 47.6037 91.5861 47.7386C91.3778 47.8712 91.1221 47.9375 90.8191 47.9375C90.5113 47.9375 90.2521 47.8712 90.0414 47.7386C89.8307 47.6037 89.6709 47.4261 89.562 47.206C89.4531 46.9834 89.3986 46.7396 89.3986 46.4744ZM90.123 46.0909V46.4744C90.123 46.6946 90.1751 46.8923 90.2793 47.0675C90.3835 47.2403 90.5634 47.3267 90.8191 47.3267C91.0676 47.3267 91.2428 47.2403 91.3446 47.0675C91.4488 46.8923 91.5009 46.6946 91.5009 46.4744V46.0909C91.5009 45.8707 91.4512 45.6742 91.3517 45.5014C91.2523 45.3262 91.0748 45.2386 90.8191 45.2386C90.5705 45.2386 90.3917 45.3262 90.2828 45.5014C90.1763 45.6742 90.123 45.8707 90.123 46.0909ZM89.6685 52L94.6685 44.7273H95.4782L90.4782 52H89.6685ZM102.552 52.1136C102.026 52.1136 101.573 51.9976 101.192 51.7656C100.813 51.5312 100.521 51.2045 100.315 50.7855C100.111 50.3641 100.009 49.8741 100.009 49.3153C100.009 48.7566 100.111 48.2642 100.315 47.8381C100.521 47.4096 100.807 47.0758 101.174 46.8366C101.544 46.5952 101.974 46.4744 102.467 46.4744C102.751 46.4744 103.031 46.5218 103.308 46.6165C103.585 46.7112 103.838 46.8651 104.065 47.0781C104.292 47.2888 104.473 47.5682 104.608 47.9162C104.743 48.2642 104.811 48.6927 104.811 49.2017V49.5568H100.606V48.8324H103.958C103.958 48.5246 103.897 48.25 103.774 48.0085C103.653 47.767 103.48 47.5765 103.255 47.4368C103.033 47.2971 102.77 47.2273 102.467 47.2273C102.133 47.2273 101.844 47.3101 101.6 47.4759C101.359 47.6392 101.173 47.8523 101.043 48.1151C100.913 48.3778 100.847 48.6596 100.847 48.9602V49.4432C100.847 49.8551 100.919 50.2043 101.061 50.4908C101.205 50.7749 101.405 50.9915 101.661 51.1406C101.916 51.2874 102.213 51.3608 102.552 51.3608C102.772 51.3608 102.971 51.33 103.149 51.2685C103.329 51.2045 103.484 51.1098 103.614 50.9844C103.744 50.8565 103.845 50.6979 103.916 50.5085L104.725 50.7358C104.64 51.0104 104.497 51.2519 104.296 51.4602C104.094 51.6662 103.846 51.8272 103.55 51.9432C103.254 52.0568 102.921 52.1136 102.552 52.1136ZM108.514 46.5455V47.2557H105.574V46.5455H108.514ZM106.455 52V45.7926C106.455 45.4801 106.528 45.2197 106.675 45.0114C106.822 44.803 107.012 44.6468 107.247 44.5426C107.481 44.4384 107.728 44.3864 107.989 44.3864C108.195 44.3864 108.363 44.4029 108.493 44.4361C108.623 44.4692 108.72 44.5 108.784 44.5284L108.543 45.2528C108.5 45.2386 108.441 45.2209 108.365 45.1996C108.292 45.1783 108.195 45.1676 108.074 45.1676C107.797 45.1676 107.597 45.2375 107.474 45.3771C107.353 45.5168 107.293 45.7216 107.293 45.9915V52H106.455ZM111.751 52.1136C111.226 52.1136 110.772 51.9976 110.391 51.7656C110.012 51.5312 109.72 51.2045 109.514 50.7855C109.31 50.3641 109.209 49.8741 109.209 49.3153C109.209 48.7566 109.31 48.2642 109.514 47.8381C109.72 47.4096 110.006 47.0758 110.373 46.8366C110.743 46.5952 111.174 46.4744 111.666 46.4744C111.95 46.4744 112.231 46.5218 112.508 46.6165C112.785 46.7112 113.037 46.8651 113.264 47.0781C113.491 47.2888 113.672 47.5682 113.807 47.9162C113.942 48.2642 114.01 48.6927 114.01 49.2017V49.5568H109.805V48.8324H113.157C113.157 48.5246 113.096 48.25 112.973 48.0085C112.852 47.767 112.679 47.5765 112.454 47.4368C112.232 47.2971 111.969 47.2273 111.666 47.2273C111.332 47.2273 111.043 47.3101 110.8 47.4759C110.558 47.6392 110.372 47.8523 110.242 48.1151C110.112 48.3778 110.047 48.6596 110.047 48.9602V49.4432C110.047 49.8551 110.118 50.2043 110.26 50.4908C110.404 50.7749 110.604 50.9915 110.86 51.1406C111.116 51.2874 111.413 51.3608 111.751 51.3608C111.971 51.3608 112.17 51.33 112.348 51.2685C112.528 51.2045 112.683 51.1098 112.813 50.9844C112.943 50.8565 113.044 50.6979 113.115 50.5085L113.925 50.7358C113.839 51.0104 113.696 51.2519 113.495 51.4602C113.294 51.6662 113.045 51.8272 112.749 51.9432C112.453 52.0568 112.121 52.1136 111.751 52.1136ZM116.066 50.0114L116.052 48.9744H116.222L118.608 46.5455H119.645L117.103 49.1165H117.032L116.066 50.0114ZM115.285 52V44.7273H116.123V52H115.285ZM118.751 52L116.62 49.3011L117.216 48.7188L119.816 52H118.751ZM123.096 46.5455V47.2557H120.27V46.5455H123.096ZM121.093 45.2386H121.931V50.4375C121.931 50.6742 121.966 50.8518 122.034 50.9702C122.105 51.0862 122.195 51.1643 122.304 51.2045C122.416 51.2424 122.533 51.2614 122.656 51.2614C122.748 51.2614 122.824 51.2566 122.883 51.2472C122.942 51.2353 122.99 51.2259 123.025 51.2188L123.196 51.9716C123.139 51.9929 123.06 52.0142 122.958 52.0355C122.856 52.0592 122.727 52.071 122.571 52.071C122.334 52.071 122.102 52.0201 121.875 51.9183C121.65 51.8165 121.463 51.6615 121.314 51.4531C121.167 51.2448 121.093 50.982 121.093 50.6648V45.2386ZM124.897 54.0455C124.755 54.0455 124.628 54.0336 124.517 54.0099C124.405 53.9886 124.328 53.9673 124.286 53.946L124.499 53.2074C124.703 53.2595 124.882 53.2784 125.039 53.2642C125.195 53.25 125.333 53.1802 125.454 53.0547C125.577 52.9316 125.69 52.7315 125.792 52.4545L125.948 52.0284L123.931 46.5455H124.84L126.346 50.892H126.402L127.908 46.5455H128.817L126.502 52.7955C126.398 53.0772 126.269 53.3104 126.115 53.495C125.961 53.6821 125.782 53.8205 125.578 53.9105C125.377 54.0005 125.15 54.0455 124.897 54.0455ZM131.159 52L129.497 46.5455H130.378L131.557 50.7216H131.614L132.778 46.5455H133.673L134.824 50.7074H134.881L136.06 46.5455H136.94L135.278 52H134.455L133.261 47.8097H133.176L131.983 52H131.159ZM138.886 48.7188V52H138.048V46.5455H138.858V47.3977H138.929C139.057 47.1207 139.251 46.8982 139.511 46.7301C139.772 46.5597 140.108 46.4744 140.52 46.4744C140.889 46.4744 141.212 46.5502 141.489 46.7017C141.766 46.8509 141.982 47.0781 142.136 47.3835C142.29 47.6866 142.366 48.0701 142.366 48.5341V52H141.528V48.5909C141.528 48.1624 141.417 47.8286 141.195 47.5895C140.972 47.348 140.667 47.2273 140.278 47.2273C140.011 47.2273 139.772 47.2853 139.561 47.4013C139.353 47.5173 139.188 47.6866 139.067 47.9091C138.947 48.1316 138.886 48.4015 138.886 48.7188ZM143.898 52V46.5455H144.736V52H143.898ZM144.324 45.6364C144.161 45.6364 144.02 45.5807 143.901 45.4695C143.785 45.3582 143.727 45.2244 143.727 45.0682C143.727 44.9119 143.785 44.7782 143.901 44.6669C144.02 44.5556 144.161 44.5 144.324 44.5C144.487 44.5 144.627 44.5556 144.743 44.6669C144.861 44.7782 144.921 44.9119 144.921 45.0682C144.921 45.2244 144.861 45.3582 144.743 45.4695C144.627 45.5807 144.487 45.6364 144.324 45.6364ZM148.558 52.1136C148.032 52.1136 147.579 51.9976 147.198 51.7656C146.819 51.5312 146.527 51.2045 146.321 50.7855C146.117 50.3641 146.015 49.8741 146.015 49.3153C146.015 48.7566 146.117 48.2642 146.321 47.8381C146.527 47.4096 146.813 47.0758 147.18 46.8366C147.549 46.5952 147.98 46.4744 148.473 46.4744C148.757 46.4744 149.037 46.5218 149.314 46.6165C149.591 46.7112 149.843 46.8651 150.071 47.0781C150.298 47.2888 150.479 47.5682 150.614 47.9162C150.749 48.2642 150.816 48.6927 150.816 49.2017V49.5568H146.612V48.8324H149.964C149.964 48.5246 149.903 48.25 149.779 48.0085C149.659 47.767 149.486 47.5765 149.261 47.4368C149.038 47.2971 148.776 47.2273 148.473 47.2273C148.139 47.2273 147.85 47.3101 147.606 47.4759C147.365 47.6392 147.179 47.8523 147.049 48.1151C146.918 48.3778 146.853 48.6596 146.853 48.9602V49.4432C146.853 49.8551 146.924 50.2043 147.066 50.4908C147.211 50.7749 147.411 50.9915 147.667 51.1406C147.922 51.2874 148.219 51.3608 148.558 51.3608C148.778 51.3608 148.977 51.33 149.154 51.2685C149.334 51.2045 149.489 51.1098 149.62 50.9844C149.75 50.8565 149.85 50.6979 149.922 50.5085L150.731 50.7358C150.646 51.0104 150.503 51.2519 150.301 51.4602C150.1 51.6662 149.852 51.8272 149.556 51.9432C149.26 52.0568 148.927 52.1136 148.558 52.1136ZM152.091 46.5455H152.929V52.3977C152.929 52.7339 152.871 53.0251 152.755 53.2713C152.642 53.5175 152.469 53.7081 152.237 53.843C152.007 53.978 151.717 54.0455 151.367 54.0455C151.338 54.0455 151.31 54.0455 151.282 54.0455C151.253 54.0455 151.225 54.0455 151.196 54.0455V53.2642C151.225 53.2642 151.251 53.2642 151.275 53.2642C151.298 53.2642 151.324 53.2642 151.353 53.2642C151.608 53.2642 151.795 53.1884 151.914 53.0369C152.032 52.8878 152.091 52.6747 152.091 52.3977V46.5455ZM152.503 45.6364C152.34 45.6364 152.199 45.5807 152.081 45.4695C151.965 45.3582 151.907 45.2244 151.907 45.0682C151.907 44.9119 151.965 44.7782 152.081 44.6669C152.199 44.5556 152.34 44.5 152.503 44.5C152.667 44.5 152.806 44.5556 152.922 44.6669C153.041 44.7782 153.1 44.9119 153.1 45.0682C153.1 45.2244 153.041 45.3582 152.922 45.4695C152.806 45.5807 152.667 45.6364 152.503 45.6364ZM158.328 47.767L157.575 47.9801C157.528 47.8546 157.458 47.7327 157.366 47.6143C157.276 47.4936 157.153 47.3942 156.996 47.3161C156.84 47.2379 156.64 47.1989 156.396 47.1989C156.062 47.1989 155.784 47.2758 155.562 47.4297C155.341 47.5812 155.231 47.7741 155.231 48.0085C155.231 48.2169 155.307 48.3814 155.459 48.5021C155.61 48.6229 155.847 48.7235 156.169 48.804L156.979 49.0028C157.466 49.1212 157.83 49.3023 158.069 49.5462C158.308 49.7876 158.427 50.099 158.427 50.4801C158.427 50.7926 158.337 51.072 158.157 51.3182C157.98 51.5644 157.731 51.7585 157.412 51.9006C157.092 52.0426 156.72 52.1136 156.297 52.1136C155.74 52.1136 155.28 51.9929 154.915 51.7514C154.551 51.5099 154.32 51.1572 154.223 50.6932L155.018 50.4943C155.094 50.7879 155.237 51.008 155.448 51.1548C155.661 51.3016 155.939 51.375 156.282 51.375C156.673 51.375 156.983 51.2921 157.213 51.1264C157.445 50.9583 157.561 50.7571 157.561 50.5227C157.561 50.3333 157.495 50.1747 157.362 50.0469C157.229 49.9167 157.026 49.8196 156.751 49.7557L155.842 49.5426C155.343 49.4242 154.976 49.2408 154.741 48.9922C154.509 48.7412 154.393 48.4276 154.393 48.0511C154.393 47.7434 154.48 47.4711 154.653 47.2344C154.828 46.9976 155.066 46.8118 155.366 46.6768C155.669 46.5419 156.013 46.4744 156.396 46.4744C156.936 46.4744 157.36 46.5928 157.667 46.8295C157.978 47.0663 158.198 47.3788 158.328 47.767ZM159.533 52V51.3608L162.629 47.3835V47.3267H159.632V46.5455H163.709V47.2131L160.697 51.1619V51.2188H163.808V52H159.533ZM166.704 52.1278C166.359 52.1278 166.045 52.0627 165.763 51.9325C165.481 51.8 165.258 51.6094 165.092 51.3608C164.926 51.1098 164.843 50.8068 164.843 50.4517C164.843 50.1392 164.905 49.8859 165.028 49.6918C165.151 49.4953 165.316 49.3414 165.522 49.2301C165.728 49.1188 165.955 49.036 166.203 48.9815C166.454 48.9247 166.707 48.8797 166.96 48.8466C167.291 48.804 167.56 48.772 167.766 48.7507C167.974 48.727 168.126 48.688 168.221 48.6335C168.318 48.5791 168.366 48.4844 168.366 48.3494V48.321C168.366 47.9706 168.27 47.6984 168.078 47.5043C167.889 47.3101 167.601 47.2131 167.216 47.2131C166.815 47.2131 166.502 47.3007 166.275 47.4759C166.047 47.651 165.887 47.8381 165.795 48.0369L165 47.7528C165.142 47.4214 165.331 47.1634 165.568 46.9787C165.807 46.7917 166.067 46.6615 166.349 46.5881C166.633 46.5123 166.913 46.4744 167.187 46.4744C167.362 46.4744 167.564 46.4957 167.791 46.5384C168.02 46.5786 168.242 46.6626 168.455 46.7905C168.67 46.9183 168.849 47.1113 168.991 47.3693C169.133 47.6274 169.204 47.973 169.204 48.4062V52H168.366V51.2614H168.324C168.267 51.3797 168.172 51.5064 168.039 51.6413C167.907 51.7763 167.73 51.8911 167.51 51.9858C167.29 52.0805 167.021 52.1278 166.704 52.1278ZM166.832 51.375C167.163 51.375 167.443 51.3099 167.67 51.1797C167.9 51.0495 168.073 50.8814 168.189 50.6754C168.307 50.4695 168.366 50.2528 168.366 50.0256V49.2585C168.331 49.3011 168.252 49.3402 168.132 49.3757C168.013 49.4089 167.876 49.4384 167.72 49.4645C167.566 49.4882 167.416 49.5095 167.269 49.5284C167.124 49.545 167.007 49.5592 166.917 49.571C166.699 49.5994 166.496 49.6456 166.306 49.7095C166.119 49.7711 165.968 49.8646 165.852 49.9901C165.738 50.1132 165.681 50.2812 165.681 50.4943C165.681 50.7855 165.789 51.0057 166.005 51.1548C166.222 51.3016 166.498 51.375 166.832 51.375ZM173.546 54.0455V46.5455H174.356V47.4119H174.455C174.517 47.3172 174.602 47.1965 174.711 47.0497C174.822 46.9006 174.981 46.768 175.187 46.652C175.395 46.5336 175.677 46.4744 176.032 46.4744C176.491 46.4744 176.896 46.5893 177.247 46.8189C177.597 47.0485 177.87 47.3741 178.067 47.7955C178.263 48.2169 178.362 48.714 178.362 49.2869C178.362 49.8646 178.263 50.3653 178.067 50.7891C177.87 51.2105 177.598 51.5372 177.25 51.7692C176.902 51.9988 176.501 52.1136 176.046 52.1136C175.696 52.1136 175.415 52.0556 175.205 51.9396C174.994 51.8213 174.832 51.6875 174.718 51.5384C174.605 51.3868 174.517 51.2614 174.455 51.1619H174.384V54.0455H173.546ZM174.37 49.2727C174.37 49.6847 174.431 50.0481 174.551 50.3629C174.672 50.6754 174.848 50.9205 175.08 51.098C175.312 51.2732 175.597 51.3608 175.933 51.3608C176.283 51.3608 176.575 51.2685 176.81 51.0838C177.047 50.8968 177.224 50.6458 177.343 50.331C177.463 50.0137 177.524 49.661 177.524 49.2727C177.524 48.8892 177.464 48.5436 177.346 48.2358C177.23 47.9257 177.054 47.6806 176.817 47.5007C176.583 47.3184 176.288 47.2273 175.933 47.2273C175.592 47.2273 175.305 47.3137 175.073 47.4865C174.841 47.657 174.666 47.8961 174.548 48.2038C174.429 48.5092 174.37 48.8655 174.37 49.2727ZM179.64 52V46.5455H180.45V47.3693H180.507C180.606 47.0994 180.786 46.8804 181.046 46.7124C181.307 46.5443 181.6 46.4602 181.927 46.4602C181.989 46.4602 182.066 46.4614 182.158 46.4638C182.25 46.4661 182.32 46.4697 182.367 46.4744V47.3267C182.339 47.3196 182.274 47.3089 182.172 47.2947C182.073 47.2782 181.967 47.2699 181.856 47.2699C181.591 47.2699 181.354 47.3255 181.146 47.4368C180.94 47.5457 180.776 47.6972 180.656 47.8913C180.537 48.0831 180.478 48.3021 180.478 48.5483V52H179.64ZM184.966 52.1278C184.62 52.1278 184.307 52.0627 184.025 51.9325C183.743 51.8 183.519 51.6094 183.354 51.3608C183.188 51.1098 183.105 50.8068 183.105 50.4517C183.105 50.1392 183.167 49.8859 183.29 49.6918C183.413 49.4953 183.577 49.3414 183.783 49.2301C183.989 49.1188 184.217 49.036 184.465 48.9815C184.716 48.9247 184.968 48.8797 185.222 48.8466C185.553 48.804 185.822 48.772 186.028 48.7507C186.236 48.727 186.388 48.688 186.482 48.6335C186.579 48.5791 186.628 48.4844 186.628 48.3494V48.321C186.628 47.9706 186.532 47.6984 186.34 47.5043C186.151 47.3101 185.863 47.2131 185.477 47.2131C185.077 47.2131 184.763 47.3007 184.536 47.4759C184.309 47.651 184.149 47.8381 184.057 48.0369L183.261 47.7528C183.403 47.4214 183.593 47.1634 183.83 46.9787C184.069 46.7917 184.329 46.6615 184.611 46.5881C184.895 46.5123 185.174 46.4744 185.449 46.4744C185.624 46.4744 185.825 46.4957 186.053 46.5384C186.282 46.5786 186.504 46.6626 186.717 46.7905C186.932 46.9183 187.111 47.1113 187.253 47.3693C187.395 47.6274 187.466 47.973 187.466 48.4062V52H186.628V51.2614H186.585C186.528 51.3797 186.434 51.5064 186.301 51.6413C186.169 51.7763 185.992 51.8911 185.772 51.9858C185.552 52.0805 185.283 52.1278 184.966 52.1278ZM185.094 51.375C185.425 51.375 185.705 51.3099 185.932 51.1797C186.161 51.0495 186.334 50.8814 186.45 50.6754C186.569 50.4695 186.628 50.2528 186.628 50.0256V49.2585C186.592 49.3011 186.514 49.3402 186.393 49.3757C186.275 49.4089 186.138 49.4384 185.982 49.4645C185.828 49.4882 185.677 49.5095 185.531 49.5284C185.386 49.545 185.269 49.5592 185.179 49.571C184.961 49.5994 184.758 49.6456 184.568 49.7095C184.381 49.7711 184.23 49.8646 184.114 49.9901C184 50.1132 183.943 50.2812 183.943 50.4943C183.943 50.7855 184.051 51.0057 184.266 51.1548C184.484 51.3016 184.76 51.375 185.094 51.375ZM191.211 52.1136C190.7 52.1136 190.26 51.9929 189.89 51.7514C189.521 51.5099 189.237 51.1773 189.038 50.7536C188.839 50.3298 188.74 49.8456 188.74 49.3011C188.74 48.7472 188.842 48.2583 189.045 47.8345C189.251 47.4084 189.538 47.0758 189.905 46.8366C190.274 46.5952 190.705 46.4744 191.197 46.4744C191.581 46.4744 191.926 46.5455 192.234 46.6875C192.542 46.8295 192.794 47.0284 192.991 47.2841C193.187 47.5398 193.309 47.8381 193.356 48.179H192.518C192.454 47.9304 192.312 47.7102 192.092 47.5185C191.874 47.3243 191.581 47.2273 191.211 47.2273C190.885 47.2273 190.598 47.3125 190.352 47.483C190.108 47.651 189.918 47.889 189.78 48.1967C189.645 48.5021 189.578 48.8608 189.578 49.2727C189.578 49.6941 189.644 50.0611 189.777 50.3736C189.912 50.6861 190.101 50.9287 190.345 51.1016C190.591 51.2744 190.88 51.3608 191.211 51.3608C191.429 51.3608 191.627 51.3229 191.805 51.2472C191.982 51.1714 192.132 51.0625 192.256 50.9205C192.379 50.7784 192.466 50.608 192.518 50.4091H193.356C193.309 50.7311 193.192 51.0211 193.005 51.2791C192.82 51.5348 192.575 51.7384 192.27 51.8899C191.967 52.0391 191.614 52.1136 191.211 52.1136ZM196.187 52.1278C195.841 52.1278 195.527 52.0627 195.246 51.9325C194.964 51.8 194.74 51.6094 194.574 51.3608C194.409 51.1098 194.326 50.8068 194.326 50.4517C194.326 50.1392 194.387 49.8859 194.51 49.6918C194.634 49.4953 194.798 49.3414 195.004 49.2301C195.21 49.1188 195.437 49.036 195.686 48.9815C195.937 48.9247 196.189 48.8797 196.442 48.8466C196.774 48.804 197.042 48.772 197.248 48.7507C197.457 48.727 197.608 48.688 197.703 48.6335C197.8 48.5791 197.849 48.4844 197.849 48.3494V48.321C197.849 47.9706 197.753 47.6984 197.561 47.5043C197.372 47.3101 197.084 47.2131 196.698 47.2131C196.298 47.2131 195.984 47.3007 195.757 47.4759C195.53 47.651 195.37 47.8381 195.278 48.0369L194.482 47.7528C194.624 47.4214 194.814 47.1634 195.05 46.9787C195.289 46.7917 195.55 46.6615 195.831 46.5881C196.116 46.5123 196.395 46.4744 196.67 46.4744C196.845 46.4744 197.046 46.4957 197.273 46.5384C197.503 46.5786 197.724 46.6626 197.937 46.7905C198.153 46.9183 198.331 47.1113 198.474 47.3693C198.616 47.6274 198.687 47.973 198.687 48.4062V52H197.849V51.2614H197.806C197.749 51.3797 197.654 51.5064 197.522 51.6413C197.389 51.7763 197.213 51.8911 196.993 51.9858C196.773 52.0805 196.504 52.1278 196.187 52.1278ZM196.314 51.375C196.646 51.375 196.925 51.3099 197.153 51.1797C197.382 51.0495 197.555 50.8814 197.671 50.6754C197.789 50.4695 197.849 50.2528 197.849 50.0256V49.2585C197.813 49.3011 197.735 49.3402 197.614 49.3757C197.496 49.4089 197.358 49.4384 197.202 49.4645C197.048 49.4882 196.898 49.5095 196.751 49.5284C196.607 49.545 196.49 49.5592 196.4 49.571C196.182 49.5994 195.978 49.6456 195.789 49.7095C195.602 49.7711 195.45 49.8646 195.334 49.9901C195.221 50.1132 195.164 50.2812 195.164 50.4943C195.164 50.7855 195.272 51.0057 195.487 51.1548C195.705 51.3016 195.981 51.375 196.314 51.375Z" fill="#D0D0D0"/>
<defs>
<linearGradient id="paint0_linear_6306_10268" x1="32.1625" y1="33.0098" x2="7.16248" y2="-3.24023" gradientUnits="userSpaceOnUse">
<stop stop-color="#1B1B1C"/>
<stop offset="1" stop-color="#FAAC79" stop-opacity="0.1"/>
</linearGradient>
</defs>
</svg>
