<svg width="211" height="54" viewBox="0 0 211 54" fill="none" xmlns="http://www.w3.org/2000/svg">
<mask id="path-1-inside-1_6306_10268" fill="white">
<path d="M0 27C0 12.0883 12.0883 0 27 0H184C198.912 0 211 12.0883 211 27C211 41.9117 198.912 54 184 54H27C12.0883 54 0 41.9117 0 27Z"/>
</mask>
<path d="M0 27C0 12.0883 12.0883 0 27 0H184C198.912 0 211 12.0883 211 27C211 41.9117 198.912 54 184 54H27C12.0883 54 0 41.9117 0 27Z" fill="#1B1B1C" fill-opacity="0.9"/>
<path d="M-1 26.5C-1 11.3122 11.3122 -1 26.5 -1H184.5C199.688 -1 212 11.3122 212 26.5L210 27C210 12.6406 198.359 1 184 1H27C12.6406 1 1 12.6406 1 27L-1 26.5ZM211 54H0H211ZM26.5 54C11.3122 54 -1 41.6878 -1 26.5C-1 11.3122 11.3122 -1 26.5 -1L27 1C12.6406 1 1 12.6406 1 27C1 41.9117 12.6406 54 27 54H26.5ZM184.5 -1C199.688 -1 212 11.3122 212 26.5C212 41.6878 199.688 54 184.5 54H184C198.359 54 210 41.9117 210 27C210 12.6406 198.359 1 184 1L184.5 -1Z" fill="white" fill-opacity="0.1" mask="url(#path-1-inside-1_6306_10268)"/>
<mask id="path-3-inside-2_6306_10268" fill="white">
<path d="M8 27C8 16.5066 16.5066 8 27 8C37.4934 8 46 16.5066 46 27C46 37.4934 37.4934 46 27 46C16.5066 46 8 37.4934 8 27Z"/>
</mask>
<path d="M8 27C8 16.5066 16.5066 8 27 8C37.4934 8 46 16.5066 46 27C46 37.4934 37.4934 46 27 46C16.5066 46 8 37.4934 8 27Z" fill="url(#paint0_linear_6306_10268)"/>
<path d="M7 26.5C7 15.7304 15.7304 7 26.5 7H27.5C38.2696 7 47 15.7304 47 26.5L45 27C45 17.0589 36.9411 9 27 9C17.0589 9 9 17.0589 9 27L7 26.5ZM46 46H8H46ZM26.5 46C15.7304 46 7 37.2696 7 26.5C7 15.7304 15.7304 7 26.5 7L27 9C17.0589 9 9 17.0589 9 27C9 37.4934 17.0589 46 27 46H26.5ZM27.5 7C38.2696 7 47 15.7304 47 26.5C47 37.2696 38.2696 46 27.5 46H27C36.9411 46 45 37.4934 45 27C45 17.0589 36.9411 9 27 9L27.5 7Z" fill="white" fill-opacity="0.1" mask="url(#path-3-inside-2_6306_10268)"/>
<path fill-rule="evenodd" clip-rule="evenodd" d="M18.978 22.6818C19.7158 21.8045 20.9808 21.3757 22.8334 21.3757H31.1667C33.0192 21.3757 34.2842 21.8045 35.0221 22.6818C35.7528 23.5505 35.8223 24.6917 35.7052 25.7558L35.0799 32.4257C34.9881 33.2824 34.773 34.2217 34.008 34.9205C33.2488 35.6142 32.0724 35.9591 30.3334 35.9591H23.6667C21.9277 35.9591 20.7513 35.6142 19.992 34.9205C19.2271 34.2217 19.012 33.2824 18.9202 32.4256L18.9194 32.4174L18.2949 25.7559C18.1778 24.6917 18.2473 23.5505 18.978 22.6818ZM19.9346 23.4864C19.5415 23.9537 19.4308 24.656 19.5379 25.6237L19.5391 25.6341L20.1636 32.2965C20.2469 33.071 20.4195 33.618 20.8351 33.9976C21.2571 34.3831 22.0557 34.7091 23.6667 34.7091H30.3334C31.9443 34.7091 32.743 34.3831 33.1649 33.9976C33.5805 33.618 33.7531 33.071 33.8365 32.2965L34.4621 25.6236C34.5691 24.656 34.4586 23.9537 34.0655 23.4864C33.6783 23.0261 32.8725 22.6257 31.1667 22.6257H22.8334C21.1276 22.6257 20.3217 23.0261 19.9346 23.4864Z" fill="white"/>
<path fill-rule="evenodd" clip-rule="evenodd" d="M24.3279 20.3757C24.2925 20.6469 24.2915 20.9551 24.2915 21.3338V22.0006C24.2915 22.3458 24.0116 22.6256 23.6664 22.6256C23.3212 22.6256 23.0414 22.3458 23.0414 22.0006L23.0414 21.3122C23.0414 20.9592 23.0413 20.5737 23.0883 20.2139C23.137 19.8411 23.2413 19.4453 23.4856 19.0918C23.9996 18.3481 24.9411 18.0419 26.3333 18.0419H27.6668C29.059 18.0419 30.0006 18.3481 30.5145 19.0918C30.7589 19.4453 30.8632 19.8411 30.9118 20.2139C30.9588 20.5737 30.9588 20.9592 30.9588 21.3122L30.9588 22.0006C30.9588 22.3458 30.6789 22.6256 30.3337 22.6256C29.9885 22.6256 29.7087 22.3458 29.7087 22.0006V21.3338C29.7087 20.9551 29.7076 20.6469 29.6722 20.3757C29.6376 20.1102 29.5752 19.9314 29.4861 19.8026C29.3334 19.5816 28.9415 19.292 27.6668 19.292H26.3333C25.0586 19.292 24.6667 19.5816 24.514 19.8026C24.425 19.9314 24.3626 20.1102 24.3279 20.3757Z" fill="white"/>
<path fill-rule="evenodd" clip-rule="evenodd" d="M25.959 27.6255C25.9584 27.685 25.9584 27.7528 25.9584 27.8332V28.6916C25.9584 28.9263 25.9604 29.0988 25.9808 29.2453C26.0004 29.386 26.0315 29.4546 26.0579 29.4918C26.0873 29.5333 26.2339 29.7084 27.0001 29.7084C27.7699 29.7084 27.9147 29.5316 27.9435 29.4905C27.97 29.4526 28.001 29.383 28.0203 29.2406C28.0404 29.0925 28.0419 28.9191 28.0419 28.6833V27.8332C28.0419 27.7528 28.0419 27.685 28.0412 27.6255C27.9817 27.6249 27.9139 27.6249 27.8335 27.6249H26.1667C26.0863 27.6249 26.0185 27.6249 25.959 27.6255ZM26.1393 26.3748C26.1485 26.3748 26.1576 26.3748 26.1667 26.3748H27.8335C27.8427 26.3748 27.8518 26.3748 27.8609 26.3748C28.0452 26.3747 28.232 26.3747 28.3844 26.3916C28.5397 26.4089 28.7978 26.455 29.0048 26.662C29.2118 26.869 29.2579 27.127 29.2752 27.2824C29.2921 27.4348 29.2921 27.6216 29.292 27.8058C29.292 27.815 29.292 27.8241 29.292 27.8332V28.6927C29.292 28.9091 29.292 29.1652 29.2591 29.4082C29.225 29.6603 29.1503 29.9465 28.9675 30.2076C28.5775 30.7645 27.8889 30.9585 27.0001 30.9585C26.1162 30.9585 25.4294 30.767 25.038 30.2146C24.8539 29.955 24.7777 29.6698 24.7426 29.4176C24.7083 29.171 24.7083 28.9112 24.7083 28.6916V27.8332C24.7083 27.8241 24.7083 27.815 24.7083 27.8059C24.7082 27.6216 24.7082 27.4348 24.7251 27.2824C24.7424 27.127 24.7885 26.869 24.9955 26.662C25.2025 26.455 25.4605 26.4089 25.6159 26.3916C25.7683 26.3747 25.955 26.3747 26.1393 26.3748Z" fill="white"/>
<path fill-rule="evenodd" clip-rule="evenodd" d="M35.5475 25.7991C35.7505 26.0783 35.6888 26.4692 35.4096 26.6722C33.396 28.1367 31.0954 29.0077 28.7445 29.3038C28.402 29.3469 28.0894 29.1042 28.0462 28.7617C28.0031 28.4192 28.2458 28.1066 28.5883 28.0635C30.7378 27.7928 32.8376 26.997 34.6743 25.6612C34.9535 25.4582 35.3444 25.5199 35.5475 25.7991Z" fill="white"/>
<path fill-rule="evenodd" clip-rule="evenodd" d="M18.6675 26.0388C18.8625 25.7539 19.2515 25.6811 19.5364 25.876C21.3273 27.1018 23.3468 27.8406 25.4035 28.0709C25.7465 28.1093 25.9935 28.4185 25.9551 28.7616C25.9167 29.1047 25.6074 29.3516 25.2643 29.3132C23.0039 29.0601 20.7897 28.2488 18.8303 26.9076C18.5454 26.7127 18.4726 26.3237 18.6675 26.0388Z" fill="white"/>
<path d="M60.564 20H54.432V18.908L59.088 12.404H54.504V11.324H60.552V12.38L55.86 18.908H60.564V20ZM63.575 20.144C62.315 20.144 61.571 19.436 61.571 18.368C61.571 17.288 62.375 16.616 63.755 16.508L65.603 16.364V16.196C65.603 15.212 65.015 14.864 64.223 14.864C63.275 14.864 62.735 15.284 62.735 15.992H61.751C61.751 14.768 62.759 13.964 64.271 13.964C65.723 13.964 66.707 14.732 66.707 16.316V20H65.747L65.627 19.052C65.327 19.724 64.523 20.144 63.575 20.144ZM63.899 19.268C64.967 19.268 65.615 18.572 65.615 17.468V17.156L64.115 17.276C63.119 17.372 62.711 17.756 62.711 18.332C62.711 18.956 63.167 19.268 63.899 19.268ZM71.6291 14.084V15.116H71.1251C70.0571 15.116 69.3971 15.764 69.3971 16.892V20H68.2691V14.144H69.3251L69.3971 15.032C69.6371 14.42 70.2251 14.012 71.0291 14.012C71.2331 14.012 71.4011 14.036 71.6291 14.084ZM77.0514 20H72.4794V19.088L75.6474 15.08H72.4794V14.132H77.0514V15.056L73.8594 19.052H77.0514V20ZM80.0398 20.144C78.7798 20.144 78.0358 19.436 78.0358 18.368C78.0358 17.288 78.8398 16.616 80.2198 16.508L82.0678 16.364V16.196C82.0678 15.212 81.4798 14.864 80.6878 14.864C79.7398 14.864 79.1998 15.284 79.1998 15.992H78.2158C78.2158 14.768 79.2238 13.964 80.7358 13.964C82.1878 13.964 83.1718 14.732 83.1718 16.316V20C82.6438 20.204 82.4038 20.552 82.4038 20.84C82.4038 21.104 82.5838 21.248 82.8478 21.248C82.9318 21.248 83.0278 21.236 83.1358 21.188V21.992C82.9798 22.052 82.8118 22.076 82.6198 22.076C81.9958 22.076 81.5998 21.656 81.5998 21.104C81.5998 20.672 81.8758 20.24 82.4398 20H82.2118L82.0918 19.052C81.7918 19.724 80.9878 20.144 80.0398 20.144ZM80.3638 19.268C81.4318 19.268 82.0798 18.572 82.0798 17.468V17.156L80.5798 17.276C79.5838 17.372 79.1758 17.756 79.1758 18.332C79.1758 18.956 79.6318 19.268 80.3638 19.268ZM87.086 20.144C85.382 20.144 84.35 18.872 84.35 17.084C84.35 15.284 85.394 13.964 87.134 13.964C88.034 13.964 88.79 14.36 89.186 15.08V11.168H90.302V20H89.294L89.198 18.932C88.814 19.736 88.022 20.144 87.086 20.144ZM87.314 19.124C88.466 19.124 89.174 18.272 89.174 17.048C89.174 15.848 88.466 14.984 87.314 14.984C86.162 14.984 85.49 15.848 85.49 17.048C85.49 18.26 86.162 19.124 87.314 19.124ZM96.1413 20H91.5693V19.088L94.7373 15.08H91.5693V14.132H96.1413V15.056L92.9493 19.052H96.1413V20ZM99.1297 20.144C97.8697 20.144 97.1257 19.436 97.1257 18.368C97.1257 17.288 97.9297 16.616 99.3097 16.508L101.158 16.364V16.196C101.158 15.212 100.57 14.864 99.7777 14.864C98.8297 14.864 98.2897 15.284 98.2897 15.992H97.3057C97.3057 14.768 98.3137 13.964 99.8257 13.964C101.278 13.964 102.262 14.732 102.262 16.316V20H101.302L101.182 19.052C100.882 19.724 100.078 20.144 99.1297 20.144ZM99.4537 19.268C100.522 19.268 101.17 18.572 101.17 17.468V17.156L99.6697 17.276C98.6737 17.372 98.2657 17.756 98.2657 18.332C98.2657 18.956 98.7217 19.268 99.4537 19.268ZM104.388 12.74C103.968 12.74 103.644 12.404 103.644 11.996C103.644 11.576 103.968 11.252 104.388 11.252C104.784 11.252 105.132 11.576 105.132 11.996C105.132 12.404 104.784 12.74 104.388 12.74ZM102.336 22.664L102.528 21.644C102.756 21.704 102.888 21.728 103.068 21.728C103.608 21.728 103.824 21.416 103.824 20.756V14.132H104.952V20.864C104.952 22.04 104.304 22.772 103.164 22.772C102.864 22.772 102.672 22.76 102.336 22.664ZM112.931 20H110.063V11.324H112.883C115.475 11.324 117.227 13.076 117.227 15.668C117.227 18.248 115.499 20 112.931 20ZM112.799 12.404H111.239V18.908H112.847C114.779 18.908 116.003 17.66 116.003 15.668C116.003 13.652 114.779 12.404 112.799 12.404ZM121.063 20.144C119.335 20.144 118.147 18.896 118.147 17.072C118.147 15.236 119.311 13.964 121.015 13.964C122.683 13.964 123.775 15.116 123.775 16.856V17.276L119.239 17.288C119.323 18.524 119.971 19.208 121.087 19.208C121.963 19.208 122.539 18.848 122.731 18.176H123.787C123.499 19.436 122.515 20.144 121.063 20.144ZM121.015 14.912C120.031 14.912 119.407 15.5 119.263 16.532H122.647C122.647 15.56 122.011 14.912 121.015 14.912ZM126.096 20L124.176 14.132H125.34L126.312 17.18C126.444 17.612 126.564 18.056 126.672 18.572C126.768 18.056 126.924 17.564 127.056 17.18L128.04 14.132H129.192L130.164 17.18C130.26 17.468 130.452 18.152 130.548 18.572C130.644 18.104 130.752 17.696 130.92 17.18L131.904 14.132H133.08L131.076 20H130.008L128.988 16.856C128.796 16.268 128.676 15.812 128.616 15.488C128.556 15.776 128.448 16.16 128.232 16.868L127.212 20H126.096ZM136.309 20.144C134.581 20.144 133.393 18.896 133.393 17.072C133.393 15.236 134.557 13.964 136.261 13.964C137.929 13.964 139.021 15.116 139.021 16.856V17.276L134.485 17.288C134.569 18.524 135.217 19.208 136.333 19.208C137.209 19.208 137.785 18.848 137.977 18.176H139.033C138.745 19.436 137.761 20.144 136.309 20.144ZM136.261 14.912C135.277 14.912 134.653 15.5 134.509 16.532H137.893C137.893 15.56 137.257 14.912 136.261 14.912ZM141.433 20H140.305V11.168H141.433V20ZM142.709 17.06C142.709 15.248 144.005 13.976 145.769 13.976C147.521 13.976 148.817 15.248 148.817 17.06C148.817 18.872 147.521 20.144 145.769 20.144C144.005 20.144 142.709 18.872 142.709 17.06ZM143.849 17.06C143.849 18.284 144.629 19.136 145.769 19.136C146.897 19.136 147.689 18.284 147.689 17.06C147.689 15.836 146.897 14.984 145.769 14.984C144.629 14.984 143.849 15.836 143.849 17.06ZM150.066 22.628V14.132H151.086L151.17 15.188C151.566 14.384 152.358 13.964 153.294 13.964C154.974 13.964 156.018 15.224 156.018 17.024C156.018 18.812 155.034 20.156 153.294 20.156C152.358 20.156 151.578 19.76 151.194 19.04V22.628H150.066ZM151.206 17.072C151.206 18.272 151.902 19.136 153.054 19.136C154.206 19.136 154.89 18.272 154.89 17.072C154.89 15.86 154.206 14.996 153.054 14.996C151.902 14.996 151.206 15.848 151.206 17.072ZM159.793 20.144C158.065 20.144 156.877 18.896 156.877 17.072C156.877 15.236 158.041 13.964 159.745 13.964C161.413 13.964 162.505 15.116 162.505 16.856V17.276L157.969 17.288C158.053 18.524 158.701 19.208 159.817 19.208C160.693 19.208 161.269 18.848 161.461 18.176H162.517C162.229 19.436 161.245 20.144 159.793 20.144ZM159.745 14.912C158.761 14.912 158.137 15.5 157.993 16.532H161.377C161.377 15.56 160.741 14.912 159.745 14.912ZM167.125 14.084V15.116H166.621C165.553 15.116 164.893 15.764 164.893 16.892V20H163.765V14.144H164.821L164.893 15.032C165.133 14.42 165.721 14.012 166.525 14.012C166.729 14.012 166.897 14.036 167.125 14.084ZM169.665 20.144C168.405 20.144 167.661 19.436 167.661 18.368C167.661 17.288 168.465 16.616 169.845 16.508L171.693 16.364V16.196C171.693 15.212 171.105 14.864 170.313 14.864C169.365 14.864 168.825 15.284 168.825 15.992H167.841C167.841 14.768 168.849 13.964 170.361 13.964C171.813 13.964 172.797 14.732 172.797 16.316V20H171.837L171.717 19.052C171.417 19.724 170.613 20.144 169.665 20.144ZM169.989 19.268C171.057 19.268 171.705 18.572 171.705 17.468V17.156L170.205 17.276C169.209 17.372 168.801 17.756 168.801 18.332C168.801 18.956 169.257 19.268 169.989 19.268ZM175.487 20H174.359V14.132H175.367L175.475 14.9C175.775 14.348 176.399 13.964 177.227 13.964C178.139 13.964 178.787 14.42 179.087 15.152C179.363 14.42 180.071 13.964 180.983 13.964C182.327 13.964 183.143 14.804 183.143 16.16V20H182.039V16.436C182.039 15.512 181.523 14.984 180.731 14.984C179.879 14.984 179.315 15.584 179.315 16.52V20H178.199V16.424C178.199 15.5 177.695 14.996 176.903 14.996C176.051 14.996 175.487 15.584 175.487 16.52V20ZM185.259 12.74C184.851 12.74 184.515 12.404 184.515 11.996C184.515 11.576 184.851 11.252 185.259 11.252C185.667 11.252 186.003 11.576 186.003 11.996C186.003 12.404 185.667 12.74 185.259 12.74ZM184.707 20V14.132H185.835V20H184.707Z" fill="white"/>
<path d="M57.8864 28.6364C57.8523 28.3485 57.714 28.125 57.4716 27.9659C57.2292 27.8068 56.9318 27.7273 56.5795 27.7273C56.322 27.7273 56.0966 27.7689 55.9034 27.8523C55.7121 27.9356 55.5625 28.0502 55.4545 28.196C55.3485 28.3419 55.2955 28.5076 55.2955 28.6932C55.2955 28.8485 55.3324 28.982 55.4062 29.0938C55.482 29.2036 55.5786 29.2955 55.696 29.3693C55.8134 29.4413 55.9366 29.5009 56.0653 29.5483C56.1941 29.5937 56.3125 29.6307 56.4205 29.6591L57.0114 29.8182C57.1629 29.858 57.3314 29.9129 57.517 29.983C57.7045 30.053 57.8835 30.1487 58.054 30.2699C58.2263 30.3892 58.3684 30.5426 58.4801 30.7301C58.5919 30.9176 58.6477 31.1477 58.6477 31.4205C58.6477 31.7348 58.5653 32.0189 58.4006 32.2727C58.2377 32.5265 57.9991 32.7282 57.6847 32.8778C57.3722 33.0275 56.9924 33.1023 56.5455 33.1023C56.1288 33.1023 55.768 33.035 55.4631 32.9006C55.16 32.7661 54.9214 32.5786 54.7472 32.3381C54.5748 32.0975 54.4773 31.8182 54.4545 31.5H55.1818C55.2008 31.7197 55.2746 31.9015 55.4034 32.0455C55.5341 32.1875 55.6989 32.2936 55.8977 32.3636C56.0985 32.4318 56.3144 32.4659 56.5455 32.4659C56.8144 32.4659 57.0559 32.4223 57.2699 32.3352C57.4839 32.2462 57.6534 32.1231 57.7784 31.9659C57.9034 31.8068 57.9659 31.6212 57.9659 31.4091C57.9659 31.2159 57.9119 31.0587 57.804 30.9375C57.696 30.8163 57.554 30.7178 57.3778 30.642C57.2017 30.5663 57.0114 30.5 56.8068 30.4432L56.0909 30.2386C55.6364 30.108 55.2765 29.9214 55.0114 29.679C54.7462 29.4366 54.6136 29.1193 54.6136 28.7273C54.6136 28.4015 54.7017 28.1174 54.8778 27.875C55.0559 27.6307 55.2945 27.4413 55.5938 27.3068C55.8949 27.1705 56.2311 27.1023 56.6023 27.1023C56.9773 27.1023 57.3106 27.1695 57.6023 27.304C57.8939 27.4366 58.125 27.6184 58.2955 27.8494C58.4678 28.0805 58.5587 28.3428 58.5682 28.6364H57.8864ZM59.5902 33V32.4886L62.0675 29.3068V29.2614H59.6697V28.6364H62.9311V29.1705L60.522 32.3295V32.375H63.0107V33H59.5902ZM64.4751 34.6364C64.3615 34.6364 64.2602 34.6269 64.1712 34.608C64.0821 34.5909 64.0206 34.5739 63.9865 34.5568L64.157 33.9659C64.3198 34.0076 64.4638 34.0227 64.5888 34.0114C64.7138 34 64.8246 33.9441 64.9212 33.8438C65.0196 33.7453 65.1096 33.5852 65.1911 33.3636L65.3161 33.0227L63.7024 28.6364H64.4297L65.6342 32.1136H65.6797L66.8842 28.6364H67.6115L65.7592 33.6364C65.6759 33.8617 65.5727 34.0483 65.4496 34.196C65.3265 34.3456 65.1835 34.4564 65.0206 34.5284C64.8596 34.6004 64.6778 34.6364 64.4751 34.6364ZM68.5874 33V27.1818H69.2578V29.3295H69.3146C69.3639 29.2538 69.4321 29.1572 69.5192 29.0398C69.6082 28.9205 69.7351 28.8144 69.8999 28.7216C70.0665 28.6269 70.2919 28.5795 70.576 28.5795C70.9434 28.5795 71.2673 28.6714 71.5476 28.8551C71.8279 29.0388 72.0466 29.2992 72.2038 29.6364C72.361 29.9735 72.4396 30.3712 72.4396 30.8295C72.4396 31.2917 72.361 31.6922 72.2038 32.0312C72.0466 32.3684 71.8288 32.6297 71.5504 32.8153C71.272 32.9991 70.951 33.0909 70.5874 33.0909C70.3071 33.0909 70.0826 33.0445 69.9141 32.9517C69.7455 32.857 69.6158 32.75 69.5249 32.6307C69.4339 32.5095 69.3639 32.4091 69.3146 32.3295H69.2351V33H68.5874ZM69.2464 30.8182C69.2464 31.1477 69.2947 31.4384 69.3913 31.6903C69.4879 31.9403 69.629 32.1364 69.8146 32.2784C70.0002 32.4186 70.2275 32.4886 70.4964 32.4886C70.7768 32.4886 71.0107 32.4148 71.1982 32.267C71.3875 32.1174 71.5296 31.9167 71.6243 31.6648C71.7209 31.411 71.7692 31.1288 71.7692 30.8182C71.7692 30.5114 71.7218 30.2348 71.6271 29.9886C71.5343 29.7405 71.3932 29.5445 71.2038 29.4006C71.0163 29.2547 70.7805 29.1818 70.4964 29.1818C70.2237 29.1818 69.9946 29.2509 69.8089 29.3892C69.6233 29.5256 69.4832 29.7169 69.3885 29.9631C69.2938 30.2074 69.2464 30.4924 69.2464 30.8182ZM74.0902 31.4091L74.0788 30.5795H74.2152L76.1243 28.6364H76.9538L74.9197 30.6932H74.8629L74.0902 31.4091ZM73.4652 33V27.1818H74.1357V33H73.4652ZM76.2379 33L74.5334 30.8409L75.0107 30.375L77.0902 33H76.2379ZM77.8168 33V28.6364H78.4872V33H77.8168ZM78.1577 27.9091C78.027 27.9091 77.9143 27.8646 77.8196 27.7756C77.7268 27.6866 77.6804 27.5795 77.6804 27.4545C77.6804 27.3295 77.7268 27.2225 77.8196 27.1335C77.9143 27.0445 78.027 27 78.1577 27C78.2884 27 78.4001 27.0445 78.4929 27.1335C78.5876 27.2225 78.6349 27.3295 78.6349 27.4545C78.6349 27.5795 78.5876 27.6866 78.4929 27.7756C78.4001 27.8646 78.2884 27.9091 78.1577 27.9091ZM81.5447 33.0909C81.1243 33.0909 80.7616 32.9981 80.4567 32.8125C80.1536 32.625 79.9197 32.3636 79.755 32.0284C79.5921 31.6913 79.5107 31.2992 79.5107 30.8523C79.5107 30.4053 79.5921 30.0114 79.755 29.6705C79.9197 29.3277 80.1489 29.0606 80.4425 28.8693C80.7379 28.6761 81.0826 28.5795 81.4766 28.5795C81.7038 28.5795 81.9283 28.6174 82.1499 28.6932C82.3714 28.7689 82.5732 28.892 82.755 29.0625C82.9368 29.2311 83.0817 29.4545 83.1896 29.733C83.2976 30.0114 83.3516 30.3542 83.3516 30.7614V31.0455H79.9879V30.4659H82.6697C82.6697 30.2197 82.6205 30 82.522 29.8068C82.4254 29.6136 82.2872 29.4612 82.1072 29.3494C81.9292 29.2377 81.719 29.1818 81.4766 29.1818C81.2095 29.1818 80.9785 29.2481 80.7834 29.3807C80.5902 29.5114 80.4415 29.6818 80.3374 29.892C80.2332 30.1023 80.1811 30.3277 80.1811 30.5682V30.9545C80.1811 31.2841 80.2379 31.5634 80.3516 31.7926C80.4671 32.0199 80.6271 32.1932 80.8317 32.3125C81.0362 32.4299 81.2739 32.4886 81.5447 32.4886C81.7209 32.4886 81.88 32.464 82.022 32.4148C82.166 32.3636 82.29 32.2879 82.3942 32.1875C82.4983 32.0852 82.5788 31.9583 82.6357 31.8068L83.2834 31.9886C83.2152 32.2083 83.1006 32.4015 82.9396 32.5682C82.7786 32.733 82.5798 32.8617 82.343 32.9545C82.1063 33.0455 81.8402 33.0909 81.5447 33.0909ZM88.2692 33.0909C87.9055 33.0909 87.5845 32.9991 87.3061 32.8153C87.0277 32.6297 86.8099 32.3684 86.6527 32.0312C86.4955 31.6922 86.4169 31.2917 86.4169 30.8295C86.4169 30.3712 86.4955 29.9735 86.6527 29.6364C86.8099 29.2992 87.0286 29.0388 87.3089 28.8551C87.5893 28.6714 87.9131 28.5795 88.2805 28.5795C88.5646 28.5795 88.7891 28.6269 88.9538 28.7216C89.1205 28.8144 89.2474 28.9205 89.3345 29.0398C89.4235 29.1572 89.4927 29.2538 89.5419 29.3295H89.5987V27.1818H90.2692V33H89.6214V32.3295H89.5419C89.4927 32.4091 89.4226 32.5095 89.3317 32.6307C89.2408 32.75 89.111 32.857 88.9425 32.9517C88.7739 33.0445 88.5495 33.0909 88.2692 33.0909ZM88.3601 32.4886C88.629 32.4886 88.8563 32.4186 89.0419 32.2784C89.2275 32.1364 89.3686 31.9403 89.4652 31.6903C89.5618 31.4384 89.6101 31.1477 89.6101 30.8182C89.6101 30.4924 89.5627 30.2074 89.468 29.9631C89.3733 29.7169 89.2332 29.5256 89.0476 29.3892C88.862 29.2509 88.6328 29.1818 88.3601 29.1818C88.076 29.1818 87.8393 29.2547 87.6499 29.4006C87.4624 29.5445 87.3213 29.7405 87.2266 29.9886C87.1338 30.2348 87.0874 30.5114 87.0874 30.8182C87.0874 31.1288 87.1347 31.411 87.2294 31.6648C87.326 31.9167 87.468 32.1174 87.6555 32.267C87.8449 32.4148 88.0798 32.4886 88.3601 32.4886ZM93.3629 33.0909C92.969 33.0909 92.6233 32.9972 92.326 32.8097C92.0305 32.6222 91.7995 32.3598 91.6328 32.0227C91.468 31.6856 91.3857 31.2917 91.3857 30.8409C91.3857 30.3864 91.468 29.9896 91.6328 29.6506C91.7995 29.3116 92.0305 29.0483 92.326 28.8608C92.6233 28.6733 92.969 28.5795 93.3629 28.5795C93.7569 28.5795 94.1016 28.6733 94.397 28.8608C94.6944 29.0483 94.9254 29.3116 95.0902 29.6506C95.2569 29.9896 95.3402 30.3864 95.3402 30.8409C95.3402 31.2917 95.2569 31.6856 95.0902 32.0227C94.9254 32.3598 94.6944 32.6222 94.397 32.8097C94.1016 32.9972 93.7569 33.0909 93.3629 33.0909ZM93.3629 32.4886C93.6622 32.4886 93.9084 32.4119 94.1016 32.2585C94.2947 32.1051 94.4377 31.9034 94.5305 31.6534C94.6233 31.4034 94.6697 31.1326 94.6697 30.8409C94.6697 30.5492 94.6233 30.2775 94.5305 30.0256C94.4377 29.7737 94.2947 29.5701 94.1016 29.4148C93.9084 29.2595 93.6622 29.1818 93.3629 29.1818C93.0637 29.1818 92.8175 29.2595 92.6243 29.4148C92.4311 29.5701 92.2881 29.7737 92.1953 30.0256C92.1025 30.2775 92.0561 30.5492 92.0561 30.8409C92.0561 31.1326 92.1025 31.4034 92.1953 31.6534C92.2881 31.9034 92.4311 32.1051 92.6243 32.2585C92.8175 32.4119 93.0637 32.4886 93.3629 32.4886ZM98.0114 33.0909C97.6477 33.0909 97.3267 32.9991 97.0483 32.8153C96.7699 32.6297 96.5521 32.3684 96.3949 32.0312C96.2377 31.6922 96.1591 31.2917 96.1591 30.8295C96.1591 30.3712 96.2377 29.9735 96.3949 29.6364C96.5521 29.2992 96.7708 29.0388 97.0511 28.8551C97.3314 28.6714 97.6553 28.5795 98.0227 28.5795C98.3068 28.5795 98.5313 28.6269 98.696 28.7216C98.8627 28.8144 98.9896 28.9205 99.0767 29.0398C99.1657 29.1572 99.2348 29.2538 99.2841 29.3295H99.3409V27.1818H100.011V33H99.3636V32.3295H99.2841C99.2348 32.4091 99.1648 32.5095 99.0739 32.6307C98.983 32.75 98.8532 32.857 98.6847 32.9517C98.5161 33.0445 98.2917 33.0909 98.0114 33.0909ZM98.1023 32.4886C98.3712 32.4886 98.5985 32.4186 98.7841 32.2784C98.9697 32.1364 99.1108 31.9403 99.2074 31.6903C99.304 31.4384 99.3523 31.1477 99.3523 30.8182C99.3523 30.4924 99.3049 30.2074 99.2102 29.9631C99.1155 29.7169 98.9754 29.5256 98.7898 29.3892C98.6042 29.2509 98.375 29.1818 98.1023 29.1818C97.8182 29.1818 97.5814 29.2547 97.392 29.4006C97.2045 29.5445 97.0634 29.7405 96.9688 29.9886C96.8759 30.2348 96.8295 30.5114 96.8295 30.8182C96.8295 31.1288 96.8769 31.411 96.9716 31.6648C97.0682 31.9167 97.2102 32.1174 97.3977 32.267C97.5871 32.4148 97.822 32.4886 98.1023 32.4886ZM102.616 33.1023C102.34 33.1023 102.089 33.0502 101.864 32.946C101.638 32.84 101.459 32.6875 101.327 32.4886C101.194 32.2879 101.128 32.0455 101.128 31.7614C101.128 31.5114 101.177 31.3087 101.276 31.1534C101.374 30.9962 101.506 30.8731 101.67 30.7841C101.835 30.6951 102.017 30.6288 102.216 30.5852C102.417 30.5398 102.618 30.5038 102.821 30.4773C103.086 30.4432 103.301 30.4176 103.466 30.4006C103.633 30.3816 103.754 30.3504 103.83 30.3068C103.907 30.2633 103.946 30.1875 103.946 30.0795V30.0568C103.946 29.7765 103.869 29.5587 103.716 29.4034C103.564 29.2481 103.334 29.1705 103.026 29.1705C102.705 29.1705 102.455 29.2405 102.273 29.3807C102.091 29.5208 101.963 29.6705 101.889 29.8295L101.253 29.6023C101.366 29.3371 101.518 29.1307 101.707 28.983C101.899 28.8333 102.107 28.7292 102.332 28.6705C102.56 28.6098 102.783 28.5795 103.003 28.5795C103.143 28.5795 103.304 28.5966 103.486 28.6307C103.67 28.6629 103.847 28.7301 104.017 28.8324C104.189 28.9347 104.332 29.089 104.446 29.2955C104.56 29.5019 104.616 29.7784 104.616 30.125V33H103.946V32.4091H103.912C103.866 32.5038 103.791 32.6051 103.685 32.7131C103.579 32.821 103.438 32.9129 103.261 32.9886C103.085 33.0644 102.87 33.1023 102.616 33.1023ZM102.719 32.5C102.984 32.5 103.207 32.4479 103.389 32.3438C103.573 32.2396 103.711 32.1051 103.804 31.9403C103.899 31.7756 103.946 31.6023 103.946 31.4205V30.8068C103.918 30.8409 103.855 30.8722 103.759 30.9006C103.664 30.9271 103.554 30.9508 103.429 30.9716C103.306 30.9905 103.186 31.0076 103.068 31.0227C102.953 31.036 102.859 31.0473 102.787 31.0568C102.613 31.0795 102.45 31.1165 102.298 31.1676C102.149 31.2169 102.027 31.2917 101.935 31.392C101.844 31.4905 101.798 31.625 101.798 31.7955C101.798 32.0284 101.884 32.2045 102.057 32.3239C102.231 32.4413 102.452 32.5 102.719 32.5ZM106.829 33L105.499 28.6364H106.204L107.147 31.9773H107.192L108.124 28.6364H108.84L109.761 31.9659H109.806L110.749 28.6364H111.454L110.124 33H109.465L108.511 29.6477H108.442L107.488 33H106.829ZM113.624 33.1023C113.348 33.1023 113.097 33.0502 112.871 32.946C112.646 32.84 112.467 32.6875 112.335 32.4886C112.202 32.2879 112.136 32.0455 112.136 31.7614C112.136 31.5114 112.185 31.3087 112.283 31.1534C112.382 30.9962 112.513 30.8731 112.678 30.7841C112.843 30.6951 113.025 30.6288 113.224 30.5852C113.424 30.5398 113.626 30.5038 113.829 30.4773C114.094 30.4432 114.309 30.4176 114.474 30.4006C114.64 30.3816 114.762 30.3504 114.837 30.3068C114.915 30.2633 114.954 30.1875 114.954 30.0795V30.0568C114.954 29.7765 114.877 29.5587 114.724 29.4034C114.572 29.2481 114.342 29.1705 114.033 29.1705C113.713 29.1705 113.462 29.2405 113.281 29.3807C113.099 29.5208 112.971 29.6705 112.897 29.8295L112.261 29.6023C112.374 29.3371 112.526 29.1307 112.715 28.983C112.906 28.8333 113.115 28.7292 113.34 28.6705C113.567 28.6098 113.791 28.5795 114.011 28.5795C114.151 28.5795 114.312 28.5966 114.494 28.6307C114.677 28.6629 114.854 28.7301 115.025 28.8324C115.197 28.9347 115.34 29.089 115.454 29.2955C115.567 29.5019 115.624 29.7784 115.624 30.125V33H114.954V32.4091H114.92C114.874 32.5038 114.799 32.6051 114.692 32.7131C114.586 32.821 114.445 32.9129 114.269 32.9886C114.093 33.0644 113.878 33.1023 113.624 33.1023ZM113.727 32.5C113.992 32.5 114.215 32.4479 114.397 32.3438C114.581 32.2396 114.719 32.1051 114.812 31.9403C114.906 31.7756 114.954 31.6023 114.954 31.4205V30.8068C114.925 30.8409 114.863 30.8722 114.766 30.9006C114.672 30.9271 114.562 30.9508 114.437 30.9716C114.314 30.9905 114.193 31.0076 114.076 31.0227C113.96 31.036 113.867 31.0473 113.795 31.0568C113.621 31.0795 113.458 31.1165 113.306 31.1676C113.156 31.2169 113.035 31.2917 112.942 31.392C112.852 31.4905 112.806 31.625 112.806 31.7955C112.806 32.0284 112.892 32.2045 113.065 32.3239C113.239 32.4413 113.46 32.5 113.727 32.5ZM117.518 30.375V33H116.848V28.6364H117.496V29.3182H117.553C117.655 29.0966 117.81 28.9186 118.018 28.7841C118.227 28.6477 118.496 28.5795 118.825 28.5795C119.121 28.5795 119.379 28.6402 119.601 28.7614C119.822 28.8807 119.995 29.0625 120.118 29.3068C120.241 29.5492 120.303 29.8561 120.303 30.2273V33H119.632V30.2727C119.632 29.9299 119.543 29.6629 119.365 29.4716C119.187 29.2784 118.943 29.1818 118.632 29.1818C118.418 29.1818 118.227 29.2282 118.058 29.321C117.892 29.4138 117.76 29.5492 117.663 29.7273C117.567 29.9053 117.518 30.1212 117.518 30.375ZM121.528 33V28.6364H122.198V33H121.528ZM121.869 27.9091C121.738 27.9091 121.625 27.8646 121.531 27.7756C121.438 27.6866 121.391 27.5795 121.391 27.4545C121.391 27.3295 121.438 27.2225 121.531 27.1335C121.625 27.0445 121.738 27 121.869 27C121.999 27 122.111 27.0445 122.204 27.1335C122.299 27.2225 122.346 27.3295 122.346 27.4545C122.346 27.5795 122.299 27.6866 122.204 27.7756C122.111 27.8646 121.999 27.9091 121.869 27.9091ZM125.256 33.0909C124.835 33.0909 124.473 32.9981 124.168 32.8125C123.865 32.625 123.631 32.3636 123.466 32.0284C123.303 31.6913 123.222 31.2992 123.222 30.8523C123.222 30.4053 123.303 30.0114 123.466 29.6705C123.631 29.3277 123.86 29.0606 124.153 28.8693C124.449 28.6761 124.794 28.5795 125.188 28.5795C125.415 28.5795 125.639 28.6174 125.861 28.6932C126.082 28.7689 126.284 28.892 126.466 29.0625C126.648 29.2311 126.793 29.4545 126.901 29.733C127.009 30.0114 127.062 30.3542 127.062 30.7614V31.0455H123.699V30.4659H126.381C126.381 30.2197 126.331 30 126.233 29.8068C126.136 29.6136 125.998 29.4612 125.818 29.3494C125.64 29.2377 125.43 29.1818 125.188 29.1818C124.92 29.1818 124.689 29.2481 124.494 29.3807C124.301 29.5114 124.152 29.6818 124.048 29.892C123.944 30.1023 123.892 30.3277 123.892 30.5682V30.9545C123.892 31.2841 123.949 31.5634 124.062 31.7926C124.178 32.0199 124.338 32.1932 124.543 32.3125C124.747 32.4299 124.985 32.4886 125.256 32.4886C125.432 32.4886 125.591 32.464 125.733 32.4148C125.877 32.3636 126.001 32.2879 126.105 32.1875C126.209 32.0852 126.29 31.9583 126.347 31.8068L126.994 31.9886C126.926 32.2083 126.812 32.4015 126.651 32.5682C126.49 32.733 126.291 32.8617 126.054 32.9545C125.817 33.0455 125.551 33.0909 125.256 33.0909ZM130.332 33V28.6364H131.003V33H130.332ZM130.673 27.9091C130.543 27.9091 130.43 27.8646 130.335 27.7756C130.242 27.6866 130.196 27.5795 130.196 27.4545C130.196 27.3295 130.242 27.2225 130.335 27.1335C130.43 27.0445 130.543 27 130.673 27C130.804 27 130.916 27.0445 131.009 27.1335C131.103 27.2225 131.151 27.3295 131.151 27.4545C131.151 27.5795 131.103 27.6866 131.009 27.7756C130.916 27.8646 130.804 27.9091 130.673 27.9091ZM136.31 33.0909C135.89 33.0909 135.527 32.9981 135.222 32.8125C134.919 32.625 134.685 32.3636 134.521 32.0284C134.358 31.6913 134.276 31.2992 134.276 30.8523C134.276 30.4053 134.358 30.0114 134.521 29.6705C134.685 29.3277 134.915 29.0606 135.208 28.8693C135.504 28.6761 135.848 28.5795 136.242 28.5795C136.469 28.5795 136.694 28.6174 136.915 28.6932C137.137 28.7689 137.339 28.892 137.521 29.0625C137.702 29.2311 137.847 29.4545 137.955 29.733C138.063 30.0114 138.117 30.3542 138.117 30.7614V31.0455H134.754V30.4659H137.435C137.435 30.2197 137.386 30 137.288 29.8068C137.191 29.6136 137.053 29.4612 136.873 29.3494C136.695 29.2377 136.485 29.1818 136.242 29.1818C135.975 29.1818 135.744 29.2481 135.549 29.3807C135.356 29.5114 135.207 29.6818 135.103 29.892C134.999 30.1023 134.947 30.3277 134.947 30.5682V30.9545C134.947 31.2841 135.004 31.5634 135.117 31.7926C135.233 32.0199 135.393 32.1932 135.597 32.3125C135.802 32.4299 136.04 32.4886 136.31 32.4886C136.487 32.4886 136.646 32.464 136.788 32.4148C136.932 32.3636 137.056 32.2879 137.16 32.1875C137.264 32.0852 137.344 31.9583 137.401 31.8068L138.049 31.9886C137.981 32.2083 137.866 32.4015 137.705 32.5682C137.544 32.733 137.345 32.8617 137.109 32.9545C136.872 33.0455 136.606 33.0909 136.31 33.0909ZM140.785 33.0909C140.421 33.0909 140.1 32.9991 139.822 32.8153C139.543 32.6297 139.326 32.3684 139.168 32.0312C139.011 31.6922 138.933 31.2917 138.933 30.8295C138.933 30.3712 139.011 29.9735 139.168 29.6364C139.326 29.2992 139.544 29.0388 139.825 28.8551C140.105 28.6714 140.429 28.5795 140.796 28.5795C141.08 28.5795 141.305 28.6269 141.469 28.7216C141.636 28.8144 141.763 28.9205 141.85 29.0398C141.939 29.1572 142.008 29.2538 142.058 29.3295H142.114V27.1818H142.785V33H142.137V32.3295H142.058C142.008 32.4091 141.938 32.5095 141.847 32.6307C141.756 32.75 141.627 32.857 141.458 32.9517C141.29 33.0445 141.065 33.0909 140.785 33.0909ZM140.876 32.4886C141.145 32.4886 141.372 32.4186 141.558 32.2784C141.743 32.1364 141.884 31.9403 141.981 31.6903C142.077 31.4384 142.126 31.1477 142.126 30.8182C142.126 30.4924 142.078 30.2074 141.984 29.9631C141.889 29.7169 141.749 29.5256 141.563 29.3892C141.378 29.2509 141.148 29.1818 140.876 29.1818C140.592 29.1818 140.355 29.2547 140.165 29.4006C139.978 29.5445 139.837 29.7405 139.742 29.9886C139.649 30.2348 139.603 30.5114 139.603 30.8182C139.603 31.1288 139.65 31.411 139.745 31.6648C139.842 31.9167 139.984 32.1174 140.171 32.267C140.361 32.4148 140.595 32.4886 140.876 32.4886ZM144.538 34.6364C144.424 34.6364 144.323 34.6269 144.234 34.608C144.145 34.5909 144.083 34.5739 144.049 34.5568L144.219 33.9659C144.382 34.0076 144.526 34.0227 144.651 34.0114C144.776 34 144.887 33.9441 144.984 33.8438C145.082 33.7453 145.172 33.5852 145.254 33.3636L145.379 33.0227L143.765 28.6364H144.492L145.697 32.1136H145.742L146.947 28.6364H147.674L145.822 33.6364C145.738 33.8617 145.635 34.0483 145.512 34.196C145.389 34.3456 145.246 34.4564 145.083 34.5284C144.922 34.6004 144.74 34.6364 144.538 34.6364ZM150.175 33.0909C149.766 33.0909 149.414 32.9943 149.119 32.8011C148.823 32.608 148.596 32.3419 148.437 32.0028C148.278 31.6638 148.198 31.2765 148.198 30.8409C148.198 30.3977 148.28 30.0066 148.442 29.6676C148.607 29.3267 148.836 29.0606 149.13 28.8693C149.425 28.6761 149.77 28.5795 150.164 28.5795C150.471 28.5795 150.747 28.6364 150.994 28.75C151.24 28.8636 151.442 29.0227 151.599 29.2273C151.756 29.4318 151.853 29.6705 151.891 29.9432H151.221C151.17 29.7443 151.056 29.5682 150.88 29.4148C150.706 29.2595 150.471 29.1818 150.175 29.1818C149.914 29.1818 149.685 29.25 149.488 29.3864C149.293 29.5208 149.14 29.7112 149.031 29.9574C148.923 30.2017 148.869 30.4886 148.869 30.8182C148.869 31.1553 148.922 31.4489 149.028 31.6989C149.136 31.9489 149.287 32.143 149.482 32.2812C149.679 32.4195 149.91 32.4886 150.175 32.4886C150.35 32.4886 150.508 32.4583 150.65 32.3977C150.792 32.3371 150.912 32.25 151.011 32.1364C151.109 32.0227 151.179 31.8864 151.221 31.7273H151.891C151.853 31.9848 151.76 32.2169 151.61 32.4233C151.462 32.6278 151.266 32.7907 151.022 32.9119C150.78 33.0312 150.497 33.0909 150.175 33.0909ZM152.871 28.6364H153.542V33.3182C153.542 33.5871 153.496 33.8201 153.403 34.017C153.312 34.214 153.174 34.3665 152.988 34.4744C152.804 34.5824 152.572 34.6364 152.292 34.6364C152.269 34.6364 152.246 34.6364 152.224 34.6364C152.201 34.6364 152.178 34.6364 152.156 34.6364V34.0114C152.178 34.0114 152.199 34.0114 152.218 34.0114C152.237 34.0114 152.258 34.0114 152.281 34.0114C152.485 34.0114 152.635 33.9508 152.729 33.8295C152.824 33.7102 152.871 33.5398 152.871 33.3182V28.6364ZM153.201 27.9091C153.07 27.9091 152.958 27.8646 152.863 27.7756C152.77 27.6866 152.724 27.5795 152.724 27.4545C152.724 27.3295 152.77 27.2225 152.863 27.1335C152.958 27.0445 153.07 27 153.201 27C153.332 27 153.443 27.0445 153.536 27.1335C153.631 27.2225 153.678 27.3295 153.678 27.4545C153.678 27.5795 153.631 27.6866 153.536 27.7756C153.443 27.8646 153.332 27.9091 153.201 27.9091ZM156.054 33.1023C155.777 33.1023 155.527 33.0502 155.301 32.946C155.076 32.84 154.897 32.6875 154.764 32.4886C154.632 32.2879 154.565 32.0455 154.565 31.7614C154.565 31.5114 154.615 31.3087 154.713 31.1534C154.812 30.9962 154.943 30.8731 155.108 30.7841C155.273 30.6951 155.455 30.6288 155.653 30.5852C155.854 30.5398 156.056 30.5038 156.259 30.4773C156.524 30.4432 156.739 30.4176 156.903 30.4006C157.07 30.3816 157.191 30.3504 157.267 30.3068C157.345 30.2633 157.384 30.1875 157.384 30.0795V30.0568C157.384 29.7765 157.307 29.5587 157.153 29.4034C157.002 29.2481 156.772 29.1705 156.463 29.1705C156.143 29.1705 155.892 29.2405 155.71 29.3807C155.528 29.5208 155.401 29.6705 155.327 29.8295L154.69 29.6023C154.804 29.3371 154.955 29.1307 155.145 28.983C155.336 28.8333 155.545 28.7292 155.77 28.6705C155.997 28.6098 156.221 28.5795 156.44 28.5795C156.58 28.5795 156.741 28.5966 156.923 28.6307C157.107 28.6629 157.284 28.7301 157.455 28.8324C157.627 28.9347 157.77 29.089 157.884 29.2955C157.997 29.5019 158.054 29.7784 158.054 30.125V33H157.384V32.4091H157.349C157.304 32.5038 157.228 32.6051 157.122 32.7131C157.016 32.821 156.875 32.9129 156.699 32.9886C156.523 33.0644 156.308 33.1023 156.054 33.1023ZM156.156 32.5C156.421 32.5 156.645 32.4479 156.827 32.3438C157.01 32.2396 157.149 32.1051 157.241 31.9403C157.336 31.7756 157.384 31.6023 157.384 31.4205V30.8068C157.355 30.8409 157.293 30.8722 157.196 30.9006C157.101 30.9271 156.991 30.9508 156.866 30.9716C156.743 30.9905 156.623 31.0076 156.506 31.0227C156.39 31.036 156.296 31.0473 156.224 31.0568C156.05 31.0795 155.887 31.1165 155.736 31.1676C155.586 31.2169 155.465 31.2917 155.372 31.392C155.281 31.4905 155.236 31.625 155.236 31.7955C155.236 32.0284 155.322 32.2045 155.494 32.3239C155.669 32.4413 155.889 32.5 156.156 32.5ZM57.1136 39.7784V40.4034H54.5682V39.7784H57.1136ZM62.5774 37.1818V43H61.8729V37.9205H61.8388L60.4183 38.8636V38.1477L61.8729 37.1818H62.5774ZM66.1484 43.0795C65.7204 43.0795 65.3558 42.9631 65.0547 42.7301C64.7536 42.4953 64.5234 42.1553 64.3643 41.7102C64.2053 41.2633 64.1257 40.7235 64.1257 40.0909C64.1257 39.4621 64.2053 38.9252 64.3643 38.4801C64.5253 38.0331 64.7564 37.6922 65.0575 37.4574C65.3606 37.2206 65.7242 37.1023 66.1484 37.1023C66.5727 37.1023 66.9354 37.2206 67.2365 37.4574C67.5395 37.6922 67.7706 38.0331 67.9297 38.4801C68.0907 38.9252 68.1712 39.4621 68.1712 40.0909C68.1712 40.7235 68.0916 41.2633 67.9325 41.7102C67.7734 42.1553 67.5433 42.4953 67.2422 42.7301C66.9411 42.9631 66.5765 43.0795 66.1484 43.0795ZM66.1484 42.4545C66.5727 42.4545 66.9022 42.25 67.1371 41.8409C67.3719 41.4318 67.4893 40.8485 67.4893 40.0909C67.4893 39.5871 67.4354 39.1581 67.3274 38.804C67.2214 38.4498 67.0679 38.1799 66.8672 37.9943C66.6683 37.8087 66.4287 37.7159 66.1484 37.7159C65.728 37.7159 65.3994 37.9233 65.1626 38.3381C64.9259 38.7509 64.8075 39.3352 64.8075 40.0909C64.8075 40.5947 64.8606 41.0227 64.9666 41.375C65.0727 41.7273 65.2251 41.9953 65.424 42.179C65.6248 42.3627 65.8662 42.4545 66.1484 42.4545ZM71.1484 43.0795C70.7204 43.0795 70.3558 42.9631 70.0547 42.7301C69.7536 42.4953 69.5234 42.1553 69.3643 41.7102C69.2053 41.2633 69.1257 40.7235 69.1257 40.0909C69.1257 39.4621 69.2053 38.9252 69.3643 38.4801C69.5253 38.0331 69.7564 37.6922 70.0575 37.4574C70.3606 37.2206 70.7242 37.1023 71.1484 37.1023C71.5727 37.1023 71.9354 37.2206 72.2365 37.4574C72.5395 37.6922 72.7706 38.0331 72.9297 38.4801C73.0907 38.9252 73.1712 39.4621 73.1712 40.0909C73.1712 40.7235 73.0916 41.2633 72.9325 41.7102C72.7734 42.1553 72.5433 42.4953 72.2422 42.7301C71.9411 42.9631 71.5765 43.0795 71.1484 43.0795ZM71.1484 42.4545C71.5727 42.4545 71.9022 42.25 72.1371 41.8409C72.3719 41.4318 72.4893 40.8485 72.4893 40.0909C72.4893 39.5871 72.4354 39.1581 72.3274 38.804C72.2214 38.4498 72.0679 38.1799 71.8672 37.9943C71.6683 37.8087 71.4287 37.7159 71.1484 37.7159C70.728 37.7159 70.3994 37.9233 70.1626 38.3381C69.9259 38.7509 69.8075 39.3352 69.8075 40.0909C69.8075 40.5947 69.8606 41.0227 69.9666 41.375C70.0727 41.7273 70.2251 41.9953 70.424 42.179C70.6248 42.3627 70.8662 42.4545 71.1484 42.4545ZM77.2166 41.9091V41.6023C77.2166 41.3902 77.2602 41.196 77.3473 41.0199C77.4363 40.8419 77.5651 40.6998 77.7337 40.5938C77.9041 40.4858 78.1106 40.4318 78.353 40.4318C78.5992 40.4318 78.8056 40.4858 78.9723 40.5938C79.139 40.6998 79.2649 40.8419 79.3501 41.0199C79.4354 41.196 79.478 41.3902 79.478 41.6023V41.9091C79.478 42.1212 79.4344 42.3163 79.3473 42.4943C79.2621 42.6705 79.1352 42.8125 78.9666 42.9205C78.8 43.0265 78.5954 43.0795 78.353 43.0795C78.1068 43.0795 77.8994 43.0265 77.7308 42.9205C77.5623 42.8125 77.4344 42.6705 77.3473 42.4943C77.2602 42.3163 77.2166 42.1212 77.2166 41.9091ZM77.7962 41.6023V41.9091C77.7962 42.0852 77.8378 42.2434 77.9212 42.3835C78.0045 42.5218 78.1484 42.5909 78.353 42.5909C78.5518 42.5909 78.692 42.5218 78.7734 42.3835C78.8568 42.2434 78.8984 42.0852 78.8984 41.9091V41.6023C78.8984 41.4261 78.8587 41.2689 78.7791 41.1307C78.6996 40.9905 78.5575 40.9205 78.353 40.9205C78.1541 40.9205 78.0111 40.9905 77.924 41.1307C77.8388 41.2689 77.7962 41.4261 77.7962 41.6023ZM74.3189 38.5795V38.2727C74.3189 38.0606 74.3625 37.8665 74.4496 37.6903C74.5386 37.5123 74.6674 37.3703 74.8359 37.2642C75.0064 37.1562 75.2128 37.1023 75.4553 37.1023C75.7015 37.1023 75.9079 37.1562 76.0746 37.2642C76.2412 37.3703 76.3672 37.5123 76.4524 37.6903C76.5376 37.8665 76.5803 38.0606 76.5803 38.2727V38.5795C76.5803 38.7917 76.5367 38.9867 76.4496 39.1648C76.3643 39.3409 76.2375 39.483 76.0689 39.5909C75.9022 39.697 75.6977 39.75 75.4553 39.75C75.209 39.75 75.0017 39.697 74.8331 39.5909C74.6645 39.483 74.5367 39.3409 74.4496 39.1648C74.3625 38.9867 74.3189 38.7917 74.3189 38.5795ZM74.8984 38.2727V38.5795C74.8984 38.7557 74.9401 38.9138 75.0234 39.054C75.1068 39.1922 75.2507 39.2614 75.4553 39.2614C75.6541 39.2614 75.7943 39.1922 75.8757 39.054C75.959 38.9138 76.0007 38.7557 76.0007 38.5795V38.2727C76.0007 38.0966 75.9609 37.9394 75.8814 37.8011C75.8018 37.661 75.6598 37.5909 75.4553 37.5909C75.2564 37.5909 75.1134 37.661 75.0263 37.8011C74.9411 37.9394 74.8984 38.0966 74.8984 38.2727ZM74.5348 43L78.5348 37.1818H79.1825L75.1825 43H74.5348ZM84.8416 43.0909C84.4212 43.0909 84.0585 42.9981 83.7536 42.8125C83.4505 42.625 83.2166 42.3636 83.0518 42.0284C82.889 41.6913 82.8075 41.2992 82.8075 40.8523C82.8075 40.4053 82.889 40.0114 83.0518 39.6705C83.2166 39.3277 83.4458 39.0606 83.7393 38.8693C84.0348 38.6761 84.3795 38.5795 84.7734 38.5795C85.0007 38.5795 85.2251 38.6174 85.4467 38.6932C85.6683 38.7689 85.87 38.892 86.0518 39.0625C86.2337 39.2311 86.3786 39.4545 86.4865 39.733C86.5945 40.0114 86.6484 40.3542 86.6484 40.7614V41.0455H83.2848V40.4659H85.9666C85.9666 40.2197 85.9174 40 85.8189 39.8068C85.7223 39.6136 85.584 39.4612 85.4041 39.3494C85.2261 39.2377 85.0159 39.1818 84.7734 39.1818C84.5064 39.1818 84.2753 39.2481 84.0803 39.3807C83.8871 39.5114 83.7384 39.6818 83.6342 39.892C83.5301 40.1023 83.478 40.3277 83.478 40.5682V40.9545C83.478 41.2841 83.5348 41.5634 83.6484 41.7926C83.764 42.0199 83.924 42.1932 84.1286 42.3125C84.3331 42.4299 84.5708 42.4886 84.8416 42.4886C85.0178 42.4886 85.1768 42.464 85.3189 42.4148C85.4628 42.3636 85.5869 42.2879 85.6911 42.1875C85.7952 42.0852 85.8757 41.9583 85.9325 41.8068L86.5803 41.9886C86.5121 42.2083 86.3975 42.4015 86.2365 42.5682C86.0755 42.733 85.8767 42.8617 85.6399 42.9545C85.4032 43.0455 85.1371 43.0909 84.8416 43.0909ZM89.6115 38.6364V39.2045H87.2592V38.6364H89.6115ZM87.9638 43V38.0341C87.9638 37.7841 88.0225 37.5758 88.1399 37.4091C88.2573 37.2424 88.4098 37.1174 88.5973 37.0341C88.7848 36.9508 88.9827 36.9091 89.1911 36.9091C89.3558 36.9091 89.4903 36.9223 89.5945 36.9489C89.6986 36.9754 89.7763 37 89.8274 37.0227L89.6342 37.6023C89.6001 37.5909 89.5528 37.5767 89.4922 37.5597C89.4335 37.5426 89.3558 37.5341 89.2592 37.5341C89.0376 37.5341 88.8776 37.59 88.7791 37.7017C88.6825 37.8134 88.6342 37.9773 88.6342 38.1932V43H87.9638ZM92.201 43.0909C91.7805 43.0909 91.4179 42.9981 91.1129 42.8125C90.8099 42.625 90.576 42.3636 90.4112 42.0284C90.2483 41.6913 90.1669 41.2992 90.1669 40.8523C90.1669 40.4053 90.2483 40.0114 90.4112 39.6705C90.576 39.3277 90.8052 39.0606 91.0987 38.8693C91.3942 38.6761 91.7389 38.5795 92.1328 38.5795C92.3601 38.5795 92.5845 38.6174 92.8061 38.6932C93.0277 38.7689 93.2294 38.892 93.4112 39.0625C93.593 39.2311 93.7379 39.4545 93.8459 39.733C93.9538 40.0114 94.0078 40.3542 94.0078 40.7614V41.0455H90.6442V40.4659H93.326C93.326 40.2197 93.2768 40 93.1783 39.8068C93.0817 39.6136 92.9434 39.4612 92.7635 39.3494C92.5855 39.2377 92.3752 39.1818 92.1328 39.1818C91.8658 39.1818 91.6347 39.2481 91.4396 39.3807C91.2464 39.5114 91.0978 39.6818 90.9936 39.892C90.8894 40.1023 90.8374 40.3277 90.8374 40.5682V40.9545C90.8374 41.2841 90.8942 41.5634 91.0078 41.7926C91.1233 42.0199 91.2834 42.1932 91.4879 42.3125C91.6925 42.4299 91.9302 42.4886 92.201 42.4886C92.3771 42.4886 92.5362 42.464 92.6783 42.4148C92.8222 42.3636 92.9463 42.2879 93.0504 42.1875C93.1546 42.0852 93.2351 41.9583 93.2919 41.8068L93.9396 41.9886C93.8714 42.2083 93.7569 42.4015 93.5959 42.5682C93.4349 42.733 93.236 42.8617 92.9993 42.9545C92.7625 43.0455 92.4964 43.0909 92.201 43.0909ZM95.6527 41.4091L95.6413 40.5795H95.7777L97.6868 38.6364H98.5163L96.4822 40.6932H96.4254L95.6527 41.4091ZM95.0277 43V37.1818H95.6982V43H95.0277ZM97.8004 43L96.0959 40.8409L96.5732 40.375L98.6527 43H97.8004ZM101.277 38.6364V39.2045H99.0156V38.6364H101.277ZM99.6747 37.5909H100.345V41.75C100.345 41.9394 100.373 42.0814 100.428 42.1761C100.484 42.2689 100.556 42.3314 100.643 42.3636C100.732 42.3939 100.826 42.4091 100.925 42.4091C100.999 42.4091 101.059 42.4053 101.107 42.3977C101.154 42.3883 101.192 42.3807 101.22 42.375L101.357 42.9773C101.311 42.9943 101.248 43.0114 101.166 43.0284C101.085 43.0473 100.982 43.0568 100.857 43.0568C100.667 43.0568 100.482 43.0161 100.3 42.9347C100.12 42.8532 99.9702 42.7292 99.8509 42.5625C99.7334 42.3958 99.6747 42.1856 99.6747 41.9318V37.5909ZM102.717 44.6364C102.604 44.6364 102.502 44.6269 102.413 44.608C102.324 44.5909 102.263 44.5739 102.229 44.5568L102.399 43.9659C102.562 44.0076 102.706 44.0227 102.831 44.0114C102.956 44 103.067 43.9441 103.163 43.8438C103.262 43.7453 103.352 43.5852 103.433 43.3636L103.558 43.0227L101.945 38.6364H102.672L103.876 42.1136H103.922L105.126 38.6364H105.854L104.001 43.6364C103.918 43.8617 103.815 44.0483 103.692 44.196C103.569 44.3456 103.426 44.4564 103.263 44.5284C103.102 44.6004 102.92 44.6364 102.717 44.6364ZM107.727 43L106.398 38.6364H107.102L108.045 41.9773H108.091L109.023 38.6364H109.739L110.659 41.9659H110.705L111.648 38.6364H112.352L111.023 43H110.364L109.409 39.6477H109.341L108.386 43H107.727ZM113.909 40.375V43H113.239V38.6364H113.886V39.3182H113.943C114.045 39.0966 114.201 38.9186 114.409 38.7841C114.617 38.6477 114.886 38.5795 115.216 38.5795C115.511 38.5795 115.77 38.6402 115.991 38.7614C116.213 38.8807 116.385 39.0625 116.509 39.3068C116.632 39.5492 116.693 39.8561 116.693 40.2273V43H116.023V40.2727C116.023 39.9299 115.934 39.6629 115.756 39.4716C115.578 39.2784 115.333 39.1818 115.023 39.1818C114.809 39.1818 114.617 39.2282 114.449 39.321C114.282 39.4138 114.151 39.5492 114.054 39.7273C113.957 39.9053 113.909 40.1212 113.909 40.375ZM117.918 43V38.6364H118.589V43H117.918ZM118.259 37.9091C118.129 37.9091 118.016 37.8646 117.921 37.7756C117.828 37.6866 117.782 37.5795 117.782 37.4545C117.782 37.3295 117.828 37.2225 117.921 37.1335C118.016 37.0445 118.129 37 118.259 37C118.39 37 118.502 37.0445 118.594 37.1335C118.689 37.2225 118.737 37.3295 118.737 37.4545C118.737 37.5795 118.689 37.6866 118.594 37.7756C118.502 37.8646 118.39 37.9091 118.259 37.9091ZM121.646 43.0909C121.226 43.0909 120.863 42.9981 120.558 42.8125C120.255 42.625 120.021 42.3636 119.857 42.0284C119.694 41.6913 119.612 41.2992 119.612 40.8523C119.612 40.4053 119.694 40.0114 119.857 39.6705C120.021 39.3277 120.25 39.0606 120.544 38.8693C120.839 38.6761 121.184 38.5795 121.578 38.5795C121.805 38.5795 122.03 38.6174 122.251 38.6932C122.473 38.7689 122.675 38.892 122.857 39.0625C123.038 39.2311 123.183 39.4545 123.291 39.733C123.399 40.0114 123.453 40.3542 123.453 40.7614V41.0455H120.089V40.4659H122.771C122.771 40.2197 122.722 40 122.624 39.8068C122.527 39.6136 122.389 39.4612 122.209 39.3494C122.031 39.2377 121.821 39.1818 121.578 39.1818C121.311 39.1818 121.08 39.2481 120.885 39.3807C120.692 39.5114 120.543 39.6818 120.439 39.892C120.335 40.1023 120.283 40.3277 120.283 40.5682V40.9545C120.283 41.2841 120.339 41.5634 120.453 41.7926C120.569 42.0199 120.729 42.1932 120.933 42.3125C121.138 42.4299 121.375 42.4886 121.646 42.4886C121.822 42.4886 121.982 42.464 122.124 42.4148C122.268 42.3636 122.392 42.2879 122.496 42.1875C122.6 42.0852 122.68 41.9583 122.737 41.8068L123.385 41.9886C123.317 42.2083 123.202 42.4015 123.041 42.5682C122.88 42.733 122.681 42.8617 122.445 42.9545C122.208 43.0455 121.942 43.0909 121.646 43.0909ZM124.473 38.6364H125.143V43.3182C125.143 43.5871 125.097 43.8201 125.004 44.017C124.913 44.214 124.775 44.3665 124.589 44.4744C124.406 44.5824 124.174 44.6364 123.893 44.6364C123.871 44.6364 123.848 44.6364 123.825 44.6364C123.803 44.6364 123.78 44.6364 123.757 44.6364V44.0114C123.78 44.0114 123.801 44.0114 123.82 44.0114C123.839 44.0114 123.859 44.0114 123.882 44.0114C124.087 44.0114 124.236 43.9508 124.331 43.8295C124.426 43.7102 124.473 43.5398 124.473 43.3182V38.6364ZM124.803 37.9091C124.672 37.9091 124.559 37.8646 124.464 37.7756C124.372 37.6866 124.325 37.5795 124.325 37.4545C124.325 37.3295 124.372 37.2225 124.464 37.1335C124.559 37.0445 124.672 37 124.803 37C124.933 37 125.045 37.0445 125.138 37.1335C125.232 37.2225 125.28 37.3295 125.28 37.4545C125.28 37.5795 125.232 37.6866 125.138 37.7756C125.045 37.8646 124.933 37.9091 124.803 37.9091ZM129.462 39.6136L128.86 39.7841C128.822 39.6837 128.766 39.5862 128.692 39.4915C128.621 39.3949 128.522 39.3153 128.397 39.2528C128.272 39.1903 128.112 39.1591 127.917 39.1591C127.65 39.1591 127.427 39.2206 127.249 39.3438C127.073 39.465 126.985 39.6193 126.985 39.8068C126.985 39.9735 127.046 40.1051 127.167 40.2017C127.288 40.2983 127.478 40.3788 127.735 40.4432L128.383 40.6023C128.773 40.697 129.064 40.8419 129.255 41.0369C129.446 41.2301 129.542 41.4792 129.542 41.7841C129.542 42.0341 129.47 42.2576 129.326 42.4545C129.184 42.6515 128.985 42.8068 128.729 42.9205C128.474 43.0341 128.176 43.0909 127.837 43.0909C127.392 43.0909 127.024 42.9943 126.732 42.8011C126.441 42.608 126.256 42.3258 126.178 41.9545L126.815 41.7955C126.875 42.0303 126.99 42.2064 127.158 42.3239C127.329 42.4413 127.551 42.5 127.826 42.5C128.138 42.5 128.387 42.4337 128.57 42.3011C128.756 42.1667 128.849 42.0057 128.849 41.8182C128.849 41.6667 128.796 41.5398 128.69 41.4375C128.584 41.3333 128.421 41.2557 128.201 41.2045L127.474 41.0341C127.074 40.9394 126.781 40.7926 126.593 40.5938C126.407 40.393 126.315 40.142 126.315 39.8409C126.315 39.5947 126.384 39.3769 126.522 39.1875C126.662 38.9981 126.853 38.8494 127.093 38.7415C127.335 38.6335 127.61 38.5795 127.917 38.5795C128.349 38.5795 128.688 38.6742 128.934 38.8636C129.182 39.053 129.358 39.303 129.462 39.6136ZM130.426 43V42.4886L132.903 39.3068V39.2614H130.506V38.6364H133.767V39.1705L131.358 42.3295V42.375H133.847V43H130.426ZM136.163 43.1023C135.887 43.1023 135.636 43.0502 135.411 42.946C135.185 42.84 135.006 42.6875 134.874 42.4886C134.741 42.2879 134.675 42.0455 134.675 41.7614C134.675 41.5114 134.724 41.3087 134.822 41.1534C134.921 40.9962 135.053 40.8731 135.217 40.7841C135.382 40.6951 135.564 40.6288 135.763 40.5852C135.964 40.5398 136.165 40.5038 136.368 40.4773C136.633 40.4432 136.848 40.4176 137.013 40.4006C137.179 40.3816 137.301 40.3504 137.376 40.3068C137.454 40.2633 137.493 40.1875 137.493 40.0795V40.0568C137.493 39.7765 137.416 39.5587 137.263 39.4034C137.111 39.2481 136.881 39.1705 136.572 39.1705C136.252 39.1705 136.001 39.2405 135.82 39.3807C135.638 39.5208 135.51 39.6705 135.436 39.8295L134.8 39.6023C134.913 39.3371 135.065 39.1307 135.254 38.983C135.446 38.8333 135.654 38.7292 135.879 38.6705C136.107 38.6098 136.33 38.5795 136.55 38.5795C136.69 38.5795 136.851 38.5966 137.033 38.6307C137.216 38.6629 137.393 38.7301 137.564 38.8324C137.736 38.9347 137.879 39.089 137.993 39.2955C138.107 39.5019 138.163 39.7784 138.163 40.125V43H137.493V42.4091H137.459C137.413 42.5038 137.338 42.6051 137.232 42.7131C137.125 42.821 136.984 42.9129 136.808 42.9886C136.632 43.0644 136.417 43.1023 136.163 43.1023ZM136.266 42.5C136.531 42.5 136.754 42.4479 136.936 42.3438C137.12 42.2396 137.258 42.1051 137.351 41.9403C137.446 41.7756 137.493 41.6023 137.493 41.4205V40.8068C137.464 40.8409 137.402 40.8722 137.305 40.9006C137.211 40.9271 137.101 40.9508 136.976 40.9716C136.853 40.9905 136.732 41.0076 136.615 41.0227C136.5 41.036 136.406 41.0473 136.334 41.0568C136.16 41.0795 135.997 41.1165 135.845 41.1676C135.696 41.2169 135.574 41.2917 135.482 41.392C135.391 41.4905 135.345 41.625 135.345 41.7955C135.345 42.0284 135.431 42.2045 135.604 42.3239C135.778 42.4413 135.999 42.5 136.266 42.5ZM141.637 44.6364V38.6364H142.285V39.3295H142.364C142.414 39.2538 142.482 39.1572 142.569 39.0398C142.658 38.9205 142.785 38.8144 142.95 38.7216C143.116 38.6269 143.342 38.5795 143.626 38.5795C143.993 38.5795 144.317 38.6714 144.597 38.8551C144.878 39.0388 145.096 39.2992 145.254 39.6364C145.411 39.9735 145.489 40.3712 145.489 40.8295C145.489 41.2917 145.411 41.6922 145.254 42.0312C145.096 42.3684 144.879 42.6297 144.6 42.8153C144.322 42.9991 144.001 43.0909 143.637 43.0909C143.357 43.0909 143.132 43.0445 142.964 42.9517C142.795 42.857 142.665 42.75 142.575 42.6307C142.484 42.5095 142.414 42.4091 142.364 42.3295H142.308V44.6364H141.637ZM142.296 40.8182C142.296 41.1477 142.344 41.4384 142.441 41.6903C142.538 41.9403 142.679 42.1364 142.864 42.2784C143.05 42.4186 143.277 42.4886 143.546 42.4886C143.826 42.4886 144.06 42.4148 144.248 42.267C144.437 42.1174 144.579 41.9167 144.674 41.6648C144.771 41.411 144.819 41.1288 144.819 40.8182C144.819 40.5114 144.772 40.2348 144.677 39.9886C144.584 39.7405 144.443 39.5445 144.254 39.4006C144.066 39.2547 143.83 39.1818 143.546 39.1818C143.273 39.1818 143.044 39.2509 142.859 39.3892C142.673 39.5256 142.533 39.7169 142.438 39.9631C142.344 40.2074 142.296 40.4924 142.296 40.8182ZM146.512 43V38.6364H147.16V39.2955H147.205C147.285 39.0795 147.429 38.9044 147.637 38.7699C147.845 38.6354 148.08 38.5682 148.342 38.5682C148.391 38.5682 148.452 38.5691 148.526 38.571C148.6 38.5729 148.656 38.5758 148.694 38.5795V39.2614C148.671 39.2557 148.619 39.2472 148.538 39.2358C148.458 39.2225 148.374 39.2159 148.285 39.2159C148.073 39.2159 147.883 39.2604 147.717 39.3494C147.552 39.4366 147.421 39.5578 147.325 39.7131C147.23 39.8665 147.183 40.0417 147.183 40.2386V43H146.512ZM150.773 43.1023C150.496 43.1023 150.245 43.0502 150.02 42.946C149.795 42.84 149.616 42.6875 149.483 42.4886C149.35 42.2879 149.284 42.0455 149.284 41.7614C149.284 41.5114 149.333 41.3087 149.432 41.1534C149.53 40.9962 149.662 40.8731 149.827 40.7841C149.991 40.6951 150.173 40.6288 150.372 40.5852C150.573 40.5398 150.775 40.5038 150.977 40.4773C151.242 40.4432 151.457 40.4176 151.622 40.4006C151.789 40.3816 151.91 40.3504 151.986 40.3068C152.063 40.2633 152.102 40.1875 152.102 40.0795V40.0568C152.102 39.7765 152.026 39.5587 151.872 39.4034C151.721 39.2481 151.491 39.1705 151.182 39.1705C150.862 39.1705 150.611 39.2405 150.429 39.3807C150.247 39.5208 150.119 39.6705 150.045 39.8295L149.409 39.6023C149.523 39.3371 149.674 39.1307 149.864 38.983C150.055 38.8333 150.263 38.7292 150.489 38.6705C150.716 38.6098 150.939 38.5795 151.159 38.5795C151.299 38.5795 151.46 38.5966 151.642 38.6307C151.826 38.6629 152.003 38.7301 152.173 38.8324C152.346 38.9347 152.489 39.089 152.602 39.2955C152.716 39.5019 152.773 39.7784 152.773 40.125V43H152.102V42.4091H152.068C152.023 42.5038 151.947 42.6051 151.841 42.7131C151.735 42.821 151.594 42.9129 151.418 42.9886C151.241 43.0644 151.027 43.1023 150.773 43.1023ZM150.875 42.5C151.14 42.5 151.364 42.4479 151.545 42.3438C151.729 42.2396 151.867 42.1051 151.96 41.9403C152.055 41.7756 152.102 41.6023 152.102 41.4205V40.8068C152.074 40.8409 152.011 40.8722 151.915 40.9006C151.82 40.9271 151.71 40.9508 151.585 40.9716C151.462 40.9905 151.342 41.0076 151.224 41.0227C151.109 41.036 151.015 41.0473 150.943 41.0568C150.769 41.0795 150.606 41.1165 150.455 41.1676C150.305 41.2169 150.184 41.2917 150.091 41.392C150 41.4905 149.955 41.625 149.955 41.7955C149.955 42.0284 150.041 42.2045 150.213 42.3239C150.387 42.4413 150.608 42.5 150.875 42.5ZM155.769 43.0909C155.36 43.0909 155.008 42.9943 154.712 42.8011C154.417 42.608 154.19 42.3419 154.031 42.0028C153.871 41.6638 153.792 41.2765 153.792 40.8409C153.792 40.3977 153.873 40.0066 154.036 39.6676C154.201 39.3267 154.43 39.0606 154.724 38.8693C155.019 38.6761 155.364 38.5795 155.758 38.5795C156.065 38.5795 156.341 38.6364 156.587 38.75C156.834 38.8636 157.035 39.0227 157.192 39.2273C157.35 39.4318 157.447 39.6705 157.485 39.9432H156.815C156.763 39.7443 156.65 39.5682 156.474 39.4148C156.299 39.2595 156.065 39.1818 155.769 39.1818C155.508 39.1818 155.279 39.25 155.082 39.3864C154.887 39.5208 154.734 39.7112 154.624 39.9574C154.516 40.2017 154.462 40.4886 154.462 40.8182C154.462 41.1553 154.515 41.4489 154.621 41.6989C154.729 41.9489 154.881 42.143 155.076 42.2812C155.273 42.4195 155.504 42.4886 155.769 42.4886C155.943 42.4886 156.102 42.4583 156.244 42.3977C156.386 42.3371 156.506 42.25 156.604 42.1364C156.703 42.0227 156.773 41.8864 156.815 41.7273H157.485C157.447 41.9848 157.353 42.2169 157.204 42.4233C157.056 42.6278 156.86 42.7907 156.616 42.9119C156.373 43.0312 156.091 43.0909 155.769 43.0909ZM159.749 43.1023C159.473 43.1023 159.222 43.0502 158.996 42.946C158.771 42.84 158.592 42.6875 158.46 42.4886C158.327 42.2879 158.261 42.0455 158.261 41.7614C158.261 41.5114 158.31 41.3087 158.408 41.1534C158.507 40.9962 158.638 40.8731 158.803 40.7841C158.968 40.6951 159.15 40.6288 159.349 40.5852C159.549 40.5398 159.751 40.5038 159.954 40.4773C160.219 40.4432 160.434 40.4176 160.599 40.4006C160.765 40.3816 160.887 40.3504 160.962 40.3068C161.04 40.2633 161.079 40.1875 161.079 40.0795V40.0568C161.079 39.7765 161.002 39.5587 160.849 39.4034C160.697 39.2481 160.467 39.1705 160.158 39.1705C159.838 39.1705 159.587 39.2405 159.406 39.3807C159.224 39.5208 159.096 39.6705 159.022 39.8295L158.386 39.6023C158.499 39.3371 158.651 39.1307 158.84 38.983C159.031 38.8333 159.24 38.7292 159.465 38.6705C159.692 38.6098 159.916 38.5795 160.136 38.5795C160.276 38.5795 160.437 38.5966 160.619 38.6307C160.802 38.6629 160.979 38.7301 161.15 38.8324C161.322 38.9347 161.465 39.089 161.579 39.2955C161.692 39.5019 161.749 39.7784 161.749 40.125V43H161.079V42.4091H161.045C160.999 42.5038 160.924 42.6051 160.817 42.7131C160.711 42.821 160.57 42.9129 160.394 42.9886C160.218 43.0644 160.003 43.1023 159.749 43.1023ZM159.852 42.5C160.117 42.5 160.34 42.4479 160.522 42.3438C160.706 42.2396 160.844 42.1051 160.937 41.9403C161.031 41.7756 161.079 41.6023 161.079 41.4205V40.8068C161.05 40.8409 160.988 40.8722 160.891 40.9006C160.797 40.9271 160.687 40.9508 160.562 40.9716C160.439 40.9905 160.318 41.0076 160.201 41.0227C160.085 41.036 159.992 41.0473 159.92 41.0568C159.746 41.0795 159.583 41.1165 159.431 41.1676C159.281 41.2169 159.16 41.2917 159.067 41.392C158.977 41.4905 158.931 41.625 158.931 41.7955C158.931 42.0284 159.017 42.2045 159.19 42.3239C159.364 42.4413 159.585 42.5 159.852 42.5Z" fill="#D0D0D0"/>
<defs>
<linearGradient id="paint0_linear_6306_10268" x1="27.1544" y1="27.0093" x2="3.40435" y2="-7.42822" gradientUnits="userSpaceOnUse">
<stop stop-color="#1B1B1C"/>
<stop offset="1" stop-color="#FAAC79" stop-opacity="0.1"/>
</linearGradient>
</defs>
</svg>
