<svg width="24" height="24" viewBox="0 0 24 24" fill="none" xmlns="http://www.w3.org/2000/svg">
<path d="M19.0002 19.3389C19.3655 19.339 19.6614 19.6348 19.6614 20C19.6614 20.3652 19.3655 20.661 19.0002 20.6611H6.65259C6.28737 20.661 5.99146 20.3652 5.99146 20C5.99146 19.6348 6.28737 19.339 6.65259 19.3389H19.0002ZM19.6614 16.2197C19.6614 16.2628 19.6556 16.3049 19.6477 16.3457C19.6557 16.3868 19.6614 16.4293 19.6614 16.4727C19.6611 16.8377 19.3653 17.1337 19.0002 17.1338H6.65259C6.28752 17.1337 5.99169 16.8377 5.99146 16.4727C5.99146 16.1074 6.28737 15.8107 6.65259 15.8105H18.3381V4.78613H6.65259C6.36028 4.78619 6.07999 4.90268 5.87329 5.10938C5.6666 5.31607 5.55011 5.59637 5.55005 5.88867V18.2363C5.54993 18.6015 5.25416 18.8975 4.88892 18.8975C4.52368 18.8975 4.2279 18.6015 4.22778 18.2363V5.88867C4.22784 5.24551 4.48295 4.62862 4.93774 4.17383C5.39253 3.71904 6.00942 3.46392 6.65259 3.46387H18.4709C18.7867 3.46389 19.0895 3.58923 19.3127 3.8125C19.536 4.03578 19.6614 4.33858 19.6614 4.6543V16.2197Z" fill="url(#paint0_linear_6306_16454)"/>
<path d="M19.0002 19.3389C19.3655 19.339 19.6614 19.6348 19.6614 20C19.6614 20.3652 19.3655 20.661 19.0002 20.6611H6.65259C6.28737 20.661 5.99146 20.3652 5.99146 20C5.99146 19.6348 6.28737 19.339 6.65259 19.3389H19.0002ZM19.6614 16.2197C19.6614 16.2628 19.6556 16.3049 19.6477 16.3457C19.6557 16.3868 19.6614 16.4293 19.6614 16.4727C19.6611 16.8377 19.3653 17.1337 19.0002 17.1338H6.65259C6.28752 17.1337 5.99169 16.8377 5.99146 16.4727C5.99146 16.1074 6.28737 15.8107 6.65259 15.8105H18.3381V4.78613H6.65259C6.36028 4.78619 6.07999 4.90268 5.87329 5.10938C5.6666 5.31607 5.55011 5.59637 5.55005 5.88867V18.2363C5.54993 18.6015 5.25416 18.8975 4.88892 18.8975C4.52368 18.8975 4.2279 18.6015 4.22778 18.2363V5.88867C4.22784 5.24551 4.48295 4.62862 4.93774 4.17383C5.39253 3.71904 6.00942 3.46392 6.65259 3.46387H18.4709C18.7867 3.46389 19.0895 3.58923 19.3127 3.8125C19.536 4.03578 19.6614 4.33858 19.6614 4.6543V16.2197Z" fill="white" fill-opacity="0.4"/>
<path d="M4.22778 18.2358C4.22784 17.5927 4.48295 16.9758 4.93774 16.521C5.39253 16.0662 6.00942 15.8111 6.65259 15.811C7.0179 15.811 7.3147 16.1069 7.3147 16.4722C7.3147 16.8375 7.0179 17.1333 6.65259 17.1333C6.36028 17.1334 6.07999 17.2498 5.87329 17.4565C5.6666 17.6632 5.55011 17.9435 5.55005 18.2358C5.55005 18.5281 5.66668 18.8084 5.87329 19.0151C6.07999 19.2218 6.36028 19.3383 6.65259 19.3384C7.01776 19.3384 7.31446 19.6344 7.3147 19.9995C7.3147 20.3648 7.0179 20.6616 6.65259 20.6616C6.00942 20.6616 5.39253 20.4055 4.93774 19.9507C4.48304 19.4959 4.22778 18.879 4.22778 18.2358Z" fill="url(#paint1_linear_6306_16454)"/>
<path d="M4.22778 18.2358C4.22784 17.5927 4.48295 16.9758 4.93774 16.521C5.39253 16.0662 6.00942 15.8111 6.65259 15.811C7.0179 15.811 7.3147 16.1069 7.3147 16.4722C7.3147 16.8375 7.0179 17.1333 6.65259 17.1333C6.36028 17.1334 6.07999 17.2498 5.87329 17.4565C5.6666 17.6632 5.55011 17.9435 5.55005 18.2358C5.55005 18.5281 5.66668 18.8084 5.87329 19.0151C6.07999 19.2218 6.36028 19.3383 6.65259 19.3384C7.01776 19.3384 7.31446 19.6344 7.3147 19.9995C7.3147 20.3648 7.0179 20.6616 6.65259 20.6616C6.00942 20.6616 5.39253 20.4055 4.93774 19.9507C4.48304 19.4959 4.22778 18.879 4.22778 18.2358Z" fill="white" fill-opacity="0.4"/>
<path d="M14.5906 6.9917C14.9557 6.99188 15.2517 7.28763 15.2517 7.65283C15.2517 8.01804 14.9557 8.31379 14.5906 8.31396H9.29858C8.93327 8.31396 8.63745 8.01815 8.63745 7.65283C8.63745 7.28752 8.93327 6.9917 9.29858 6.9917H14.5906Z" fill="url(#paint2_linear_6306_16454)"/>
<path d="M14.5906 6.9917C14.9557 6.99188 15.2517 7.28763 15.2517 7.65283C15.2517 8.01804 14.9557 8.31379 14.5906 8.31396H9.29858C8.93327 8.31396 8.63745 8.01815 8.63745 7.65283C8.63745 7.28752 8.93327 6.9917 9.29858 6.9917H14.5906Z" fill="white" fill-opacity="0.4"/>
<defs>
<linearGradient id="paint0_linear_6306_16454" x1="4.22768" y1="12.0422" x2="19.6615" y2="12.0423" gradientUnits="userSpaceOnUse">
<stop offset="0.0001" stop-color="#FF541F"/>
<stop offset="0.5001" stop-color="#F29120"/>
<stop offset="1" stop-color="#FFDC5F"/>
</linearGradient>
<linearGradient id="paint1_linear_6306_16454" x1="4.22776" y1="18.2306" x2="7.31472" y2="18.2306" gradientUnits="userSpaceOnUse">
<stop offset="0.0001" stop-color="#FF541F"/>
<stop offset="0.5001" stop-color="#F29120"/>
<stop offset="1" stop-color="#FFDC5F"/>
</linearGradient>
<linearGradient id="paint2_linear_6306_16454" x1="8.63741" y1="7.65127" x2="15.2518" y2="7.65169" gradientUnits="userSpaceOnUse">
<stop offset="0.0001" stop-color="#FF541F"/>
<stop offset="0.5001" stop-color="#F29120"/>
<stop offset="1" stop-color="#FFDC5F"/>
</linearGradient>
</defs>
</svg>
