<svg width="24" height="24" viewBox="0 0 24 24" fill="none" xmlns="http://www.w3.org/2000/svg">
<path d="M4.40625 4.11771C4.33166 4.11771 4.26012 4.14715 4.20738 4.19956C4.15463 4.25196 4.125 4.32303 4.125 4.39714V16.1331C4.125 16.2874 4.251 16.4126 4.40625 16.4126H9.1875V17.5303H4.40625C3.63 17.5303 3 16.9043 3 16.1331V4.39714C3 3.62592 3.63 3 4.40625 3H10.5938C11.37 3 12 3.62592 12 4.39714V7.19142C12 7.34567 12.126 7.47085 12.2812 7.47085H13.9688C14.745 7.47085 15.375 8.09677 15.375 8.86799V9.70628C14.9801 9.75099 14.5931 9.88623 14.25 10.1142V8.86799C14.25 8.79388 14.2204 8.72281 14.1676 8.67041C14.1149 8.618 14.0433 8.58856 13.9688 8.58856H12.2812C11.505 8.58856 10.875 7.96264 10.875 7.19142V4.39714C10.875 4.32303 10.8454 4.25196 10.7926 4.19956C10.7399 4.14715 10.6683 4.11771 10.5938 4.11771H4.40625ZM16.5686 11.1414C16.3141 10.9259 15.9907 10.8074 15.6562 10.8074C15.3218 10.8074 14.9984 10.9259 14.7439 11.1414L10.8401 14.4499C10.6747 14.5894 10.5418 14.7631 10.4507 14.9588C10.3596 15.1545 10.3125 15.3676 10.3125 15.5832V20.7426C10.3125 21.4378 10.8795 22 11.5781 22H13.5469C14.2455 22 14.8125 21.4378 14.8125 20.7426V18.7877C14.8125 18.7106 14.8755 18.648 14.9531 18.648H16.3594C16.437 18.648 16.5 18.7106 16.5 18.7877V20.7437C16.5 21.4367 17.067 22 17.7656 22H19.7344C20.433 22 21 21.4378 21 20.7426V15.5832C21 15.1473 20.8076 14.7326 20.4735 14.4499L16.5686 11.1414ZM15.474 11.992C15.5249 11.949 15.5895 11.9254 15.6562 11.9254C15.723 11.9254 15.7876 11.949 15.8385 11.992L19.7423 15.3004C19.7838 15.3351 19.8173 15.3783 19.8402 15.4272C19.8631 15.476 19.875 15.5293 19.875 15.5832V20.7426C19.875 20.8208 19.812 20.8823 19.7344 20.8823H17.7656C17.7283 20.8823 17.6926 20.8676 17.6662 20.8414C17.6398 20.8152 17.625 20.7796 17.625 20.7426V18.7877C17.625 18.0936 17.058 17.5303 16.3594 17.5303H14.9531C14.2545 17.5303 13.6875 18.0936 13.6875 18.7877V20.7437C13.6872 20.7806 13.6723 20.8158 13.6459 20.8418C13.6196 20.8677 13.584 20.8823 13.5469 20.8823H11.5781C11.5408 20.8823 11.5051 20.8676 11.4787 20.8414C11.4523 20.8152 11.4375 20.7796 11.4375 20.7426V15.5832C11.4375 15.4748 11.4859 15.3708 11.5691 15.3004L15.474 11.992ZM6.9375 6.07371C6.9375 6.29604 6.84861 6.50926 6.69037 6.66647C6.53214 6.82368 6.31753 6.91199 6.09375 6.91199C5.86997 6.91199 5.65536 6.82368 5.49713 6.66647C5.33889 6.50926 5.25 6.29604 5.25 6.07371C5.25 5.85138 5.33889 5.63816 5.49713 5.48095C5.65536 5.32374 5.86997 5.23543 6.09375 5.23543C6.31753 5.23543 6.53214 5.32374 6.69037 5.48095C6.84861 5.63816 6.9375 5.85138 6.9375 6.07371ZM6.09375 9.42685C6.31753 9.42685 6.53214 9.33853 6.69037 9.18132C6.84861 9.02411 6.9375 8.81089 6.9375 8.58856C6.9375 8.36624 6.84861 8.15302 6.69037 7.99581C6.53214 7.8386 6.31753 7.75028 6.09375 7.75028C5.86997 7.75028 5.65536 7.8386 5.49713 7.99581C5.33889 8.15302 5.25 8.36624 5.25 8.58856C5.25 8.81089 5.33889 9.02411 5.49713 9.18132C5.65536 9.33853 5.86997 9.42685 6.09375 9.42685ZM6.9375 11.1034C6.9375 11.3257 6.84861 11.539 6.69037 11.6962C6.53214 11.8534 6.31753 11.9417 6.09375 11.9417C5.86997 11.9417 5.65536 11.8534 5.49713 11.6962C5.33889 11.539 5.25 11.3257 5.25 11.1034C5.25 10.8811 5.33889 10.6679 5.49713 10.5107C5.65536 10.3535 5.86997 10.2651 6.09375 10.2651C6.31753 10.2651 6.53214 10.3535 6.69037 10.5107C6.84861 10.6679 6.9375 10.8811 6.9375 11.1034ZM8.90625 6.91199C9.13003 6.91199 9.34464 6.82368 9.50287 6.66647C9.66111 6.50926 9.75 6.29604 9.75 6.07371C9.75 5.85138 9.66111 5.63816 9.50287 5.48095C9.34464 5.32374 9.13003 5.23543 8.90625 5.23543C8.68247 5.23543 8.46786 5.32374 8.30963 5.48095C8.15139 5.63816 8.0625 5.85138 8.0625 6.07371C8.0625 6.29604 8.15139 6.50926 8.30963 6.66647C8.46786 6.82368 8.68247 6.91199 8.90625 6.91199ZM9.75 8.58856C9.75 8.81089 9.66111 9.02411 9.50287 9.18132C9.34464 9.33853 9.13003 9.42685 8.90625 9.42685C8.68247 9.42685 8.46786 9.33853 8.30963 9.18132C8.15139 9.02411 8.0625 8.81089 8.0625 8.58856C8.0625 8.36624 8.15139 8.15302 8.30963 7.99581C8.46786 7.8386 8.68247 7.75028 8.90625 7.75028C9.13003 7.75028 9.34464 7.8386 9.50287 7.99581C9.66111 8.15302 9.75 8.36624 9.75 8.58856ZM8.90625 11.9417C9.13003 11.9417 9.34464 11.8534 9.50287 11.6962C9.66111 11.539 9.75 11.3257 9.75 11.1034C9.75 10.8811 9.66111 10.6679 9.50287 10.5107C9.34464 10.3535 9.13003 10.2651 8.90625 10.2651C8.68247 10.2651 8.46786 10.3535 8.30963 10.5107C8.15139 10.6679 8.0625 10.8811 8.0625 11.1034C8.0625 11.3257 8.15139 11.539 8.30963 11.6962C8.46786 11.8534 8.68247 11.9417 8.90625 11.9417Z" fill="url(#paint0_linear_6306_16481)"/>
<path d="M4.40625 4.11771C4.33166 4.11771 4.26012 4.14715 4.20738 4.19956C4.15463 4.25196 4.125 4.32303 4.125 4.39714V16.1331C4.125 16.2874 4.251 16.4126 4.40625 16.4126H9.1875V17.5303H4.40625C3.63 17.5303 3 16.9043 3 16.1331V4.39714C3 3.62592 3.63 3 4.40625 3H10.5938C11.37 3 12 3.62592 12 4.39714V7.19142C12 7.34567 12.126 7.47085 12.2812 7.47085H13.9688C14.745 7.47085 15.375 8.09677 15.375 8.86799V9.70628C14.9801 9.75099 14.5931 9.88623 14.25 10.1142V8.86799C14.25 8.79388 14.2204 8.72281 14.1676 8.67041C14.1149 8.618 14.0433 8.58856 13.9688 8.58856H12.2812C11.505 8.58856 10.875 7.96264 10.875 7.19142V4.39714C10.875 4.32303 10.8454 4.25196 10.7926 4.19956C10.7399 4.14715 10.6683 4.11771 10.5938 4.11771H4.40625ZM16.5686 11.1414C16.3141 10.9259 15.9907 10.8074 15.6562 10.8074C15.3218 10.8074 14.9984 10.9259 14.7439 11.1414L10.8401 14.4499C10.6747 14.5894 10.5418 14.7631 10.4507 14.9588C10.3596 15.1545 10.3125 15.3676 10.3125 15.5832V20.7426C10.3125 21.4378 10.8795 22 11.5781 22H13.5469C14.2455 22 14.8125 21.4378 14.8125 20.7426V18.7877C14.8125 18.7106 14.8755 18.648 14.9531 18.648H16.3594C16.437 18.648 16.5 18.7106 16.5 18.7877V20.7437C16.5 21.4367 17.067 22 17.7656 22H19.7344C20.433 22 21 21.4378 21 20.7426V15.5832C21 15.1473 20.8076 14.7326 20.4735 14.4499L16.5686 11.1414ZM15.474 11.992C15.5249 11.949 15.5895 11.9254 15.6562 11.9254C15.723 11.9254 15.7876 11.949 15.8385 11.992L19.7423 15.3004C19.7838 15.3351 19.8173 15.3783 19.8402 15.4272C19.8631 15.476 19.875 15.5293 19.875 15.5832V20.7426C19.875 20.8208 19.812 20.8823 19.7344 20.8823H17.7656C17.7283 20.8823 17.6926 20.8676 17.6662 20.8414C17.6398 20.8152 17.625 20.7796 17.625 20.7426V18.7877C17.625 18.0936 17.058 17.5303 16.3594 17.5303H14.9531C14.2545 17.5303 13.6875 18.0936 13.6875 18.7877V20.7437C13.6872 20.7806 13.6723 20.8158 13.6459 20.8418C13.6196 20.8677 13.584 20.8823 13.5469 20.8823H11.5781C11.5408 20.8823 11.5051 20.8676 11.4787 20.8414C11.4523 20.8152 11.4375 20.7796 11.4375 20.7426V15.5832C11.4375 15.4748 11.4859 15.3708 11.5691 15.3004L15.474 11.992ZM6.9375 6.07371C6.9375 6.29604 6.84861 6.50926 6.69037 6.66647C6.53214 6.82368 6.31753 6.91199 6.09375 6.91199C5.86997 6.91199 5.65536 6.82368 5.49713 6.66647C5.33889 6.50926 5.25 6.29604 5.25 6.07371C5.25 5.85138 5.33889 5.63816 5.49713 5.48095C5.65536 5.32374 5.86997 5.23543 6.09375 5.23543C6.31753 5.23543 6.53214 5.32374 6.69037 5.48095C6.84861 5.63816 6.9375 5.85138 6.9375 6.07371ZM6.09375 9.42685C6.31753 9.42685 6.53214 9.33853 6.69037 9.18132C6.84861 9.02411 6.9375 8.81089 6.9375 8.58856C6.9375 8.36624 6.84861 8.15302 6.69037 7.99581C6.53214 7.8386 6.31753 7.75028 6.09375 7.75028C5.86997 7.75028 5.65536 7.8386 5.49713 7.99581C5.33889 8.15302 5.25 8.36624 5.25 8.58856C5.25 8.81089 5.33889 9.02411 5.49713 9.18132C5.65536 9.33853 5.86997 9.42685 6.09375 9.42685ZM6.9375 11.1034C6.9375 11.3257 6.84861 11.539 6.69037 11.6962C6.53214 11.8534 6.31753 11.9417 6.09375 11.9417C5.86997 11.9417 5.65536 11.8534 5.49713 11.6962C5.33889 11.539 5.25 11.3257 5.25 11.1034C5.25 10.8811 5.33889 10.6679 5.49713 10.5107C5.65536 10.3535 5.86997 10.2651 6.09375 10.2651C6.31753 10.2651 6.53214 10.3535 6.69037 10.5107C6.84861 10.6679 6.9375 10.8811 6.9375 11.1034ZM8.90625 6.91199C9.13003 6.91199 9.34464 6.82368 9.50287 6.66647C9.66111 6.50926 9.75 6.29604 9.75 6.07371C9.75 5.85138 9.66111 5.63816 9.50287 5.48095C9.34464 5.32374 9.13003 5.23543 8.90625 5.23543C8.68247 5.23543 8.46786 5.32374 8.30963 5.48095C8.15139 5.63816 8.0625 5.85138 8.0625 6.07371C8.0625 6.29604 8.15139 6.50926 8.30963 6.66647C8.46786 6.82368 8.68247 6.91199 8.90625 6.91199ZM9.75 8.58856C9.75 8.81089 9.66111 9.02411 9.50287 9.18132C9.34464 9.33853 9.13003 9.42685 8.90625 9.42685C8.68247 9.42685 8.46786 9.33853 8.30963 9.18132C8.15139 9.02411 8.0625 8.81089 8.0625 8.58856C8.0625 8.36624 8.15139 8.15302 8.30963 7.99581C8.46786 7.8386 8.68247 7.75028 8.90625 7.75028C9.13003 7.75028 9.34464 7.8386 9.50287 7.99581C9.66111 8.15302 9.75 8.36624 9.75 8.58856ZM8.90625 11.9417C9.13003 11.9417 9.34464 11.8534 9.50287 11.6962C9.66111 11.539 9.75 11.3257 9.75 11.1034C9.75 10.8811 9.66111 10.6679 9.50287 10.5107C9.34464 10.3535 9.13003 10.2651 8.90625 10.2651C8.68247 10.2651 8.46786 10.3535 8.30963 10.5107C8.15139 10.6679 8.0625 10.8811 8.0625 11.1034C8.0625 11.3257 8.15139 11.539 8.30963 11.6962C8.46786 11.8534 8.68247 11.9417 8.90625 11.9417Z" fill="white" fill-opacity="0.4"/>
<defs>
<linearGradient id="paint0_linear_6306_16481" x1="2.99988" y1="12.4775" x2="21.0001" y2="12.4778" gradientUnits="userSpaceOnUse">
<stop offset="0.0001" stop-color="#FF541F"/>
<stop offset="0.5001" stop-color="#F29120"/>
<stop offset="1" stop-color="#FFDC5F"/>
</linearGradient>
</defs>
</svg>
