<svg width="20" height="20" viewBox="0 0 20 20" fill="none" xmlns="http://www.w3.org/2000/svg">
<path d="M15 10.8333V15.8333C15 16.2754 14.8244 16.6993 14.5118 17.0118C14.1993 17.3244 13.7754 17.5 13.3333 17.5H4.16667C3.72464 17.5 3.30072 17.3244 2.98816 17.0118C2.67559 16.6993 2.5 16.2754 2.5 15.8333V6.66667C2.5 6.22464 2.67559 5.80072 2.98816 5.48816C3.30072 5.17559 3.72464 5 4.16667 5H9.16667" stroke="url(#paint0_linear_6242_5406)" stroke-width="1.25" stroke-linecap="round" stroke-linejoin="round"/>
<path d="M15 10.8333V15.8333C15 16.2754 14.8244 16.6993 14.5118 17.0118C14.1993 17.3244 13.7754 17.5 13.3333 17.5H4.16667C3.72464 17.5 3.30072 17.3244 2.98816 17.0118C2.67559 16.6993 2.5 16.2754 2.5 15.8333V6.66667C2.5 6.22464 2.67559 5.80072 2.98816 5.48816C3.30072 5.17559 3.72464 5 4.16667 5H9.16667" stroke="white" stroke-opacity="0.4" stroke-width="1.25" stroke-linecap="round" stroke-linejoin="round"/>
<path d="M12.5 2.5H17.5V7.5" stroke="url(#paint1_linear_6242_5406)" stroke-width="1.25" stroke-linecap="round" stroke-linejoin="round"/>
<path d="M12.5 2.5H17.5V7.5" stroke="white" stroke-opacity="0.4" stroke-width="1.25" stroke-linecap="round" stroke-linejoin="round"/>
<path d="M8.3335 11.6667L17.5002 2.5" stroke="url(#paint2_linear_6242_5406)" stroke-width="1.25" stroke-linecap="round" stroke-linejoin="round"/>
<path d="M8.3335 11.6667L17.5002 2.5" stroke="white" stroke-opacity="0.4" stroke-width="1.25" stroke-linecap="round" stroke-linejoin="round"/>
<defs>
<linearGradient id="paint0_linear_6242_5406" x1="2.49992" y1="11.2352" x2="15.0001" y2="11.2354" gradientUnits="userSpaceOnUse">
<stop offset="0.0001" stop-color="#FF541F"/>
<stop offset="0.5001" stop-color="#F29120"/>
<stop offset="1" stop-color="#FFDC5F"/>
</linearGradient>
<linearGradient id="paint1_linear_6242_5406" x1="12.5" y1="4.99409" x2="17.5" y2="4.99415" gradientUnits="userSpaceOnUse">
<stop offset="0.0001" stop-color="#FF541F"/>
<stop offset="0.5001" stop-color="#F29120"/>
<stop offset="1" stop-color="#FFDC5F"/>
</linearGradient>
<linearGradient id="paint2_linear_6242_5406" x1="8.33344" y1="7.07249" x2="17.5002" y2="7.07261" gradientUnits="userSpaceOnUse">
<stop offset="0.0001" stop-color="#FF541F"/>
<stop offset="0.5001" stop-color="#F29120"/>
<stop offset="1" stop-color="#FFDC5F"/>
</linearGradient>
</defs>
</svg>
