<svg width="16" height="16" viewBox="0 0 16 16" fill="none" xmlns="http://www.w3.org/2000/svg">
<path d="M9.21554 8.15603C9.20487 8.38937 9.12887 8.6147 8.99487 8.80603C8.86045 9.00362 8.66702 9.15365 8.44221 9.2347C8.21964 9.32528 7.97472 9.34574 7.74021 9.29337C7.50456 9.24327 7.28946 9.1234 7.12287 8.94937C6.95799 8.76732 6.84959 8.54125 6.81087 8.2987C6.76764 8.06371 6.79718 7.82112 6.89554 7.60337C6.99154 7.38537 7.14887 7.19937 7.35021 7.07003C7.55487 6.94337 7.79154 6.87603 8.03287 6.87537C8.35087 6.8927 8.65021 7.03003 8.87154 7.2587C8.98601 7.37764 9.07544 7.51834 9.13453 7.67248C9.19362 7.82662 9.22117 7.99105 9.21554 8.15603Z" fill="url(#paint0_linear_6242_5487)"/>
<path d="M11.5102 5.33465C11.4344 5.14725 11.3217 4.97701 11.1787 4.83408C11.0358 4.69114 10.8656 4.57843 10.6782 4.50265C10.4894 4.42953 10.2892 4.39004 10.0868 4.38599H5.97882C5.57247 4.38757 5.18321 4.54969 4.89587 4.83703C4.60853 5.12437 4.4464 5.51363 4.44482 5.91999V10.106C4.44541 10.3079 4.48588 10.5078 4.5639 10.694C4.64192 10.8803 4.75597 11.0493 4.89949 11.1913C5.18673 11.4763 5.57421 11.6374 5.97882 11.64H10.0868C10.3894 11.638 10.6848 11.5474 10.9364 11.3792C11.1879 11.2111 11.3846 10.9728 11.5022 10.694C11.58 10.5077 11.6204 10.3079 11.6208 10.106V5.92599C11.6187 5.72393 11.5812 5.52381 11.5102 5.33465ZM9.88549 8.96199C9.78796 9.20554 9.64189 9.42669 9.45616 9.61199C9.26949 9.80065 9.04882 9.95199 8.80616 10.0607C8.54328 10.1709 8.2606 10.2261 7.97556 10.2229C7.69051 10.2197 7.40915 10.1581 7.14882 10.042C6.73009 9.85348 6.38663 9.53006 6.17332 9.1234C5.96002 8.71673 5.88919 8.25031 5.97216 7.79865C6.0516 7.39987 6.24335 7.0321 6.52482 6.73865C6.81147 6.45135 7.17614 6.2545 7.57361 6.17249C7.97108 6.09049 8.38387 6.12694 8.76082 6.27732C9.13882 6.43065 9.46082 6.69599 9.68349 7.03799C9.90851 7.36775 10.0308 7.75679 10.0348 8.15599C10.0442 8.43265 9.99282 8.70732 9.88549 8.96199ZM10.6002 5.75065C10.6064 5.80261 10.6016 5.8553 10.586 5.90526C10.5704 5.95521 10.5444 6.00129 10.5097 6.04045C10.475 6.07961 10.4323 6.11095 10.3846 6.13242C10.3369 6.15389 10.2852 6.16499 10.2328 6.16499C10.1805 6.16499 10.1288 6.15389 10.081 6.13242C10.0333 6.11095 9.99068 6.07961 9.95596 6.04045C9.92125 6.00129 9.89523 5.95521 9.87964 5.90526C9.86404 5.8553 9.85922 5.80261 9.86549 5.75065C9.85768 5.69787 9.86134 5.64402 9.87621 5.59278C9.89109 5.54153 9.91683 5.4941 9.95169 5.4537C9.98655 5.4133 10.0297 5.38089 10.0782 5.35868C10.1267 5.33646 10.1795 5.32496 10.2328 5.32496C10.2862 5.32496 10.3389 5.33646 10.3874 5.35868C10.4359 5.38089 10.4791 5.4133 10.514 5.4537C10.5488 5.4941 10.5746 5.54153 10.5894 5.59278C10.6043 5.64402 10.608 5.69787 10.6002 5.75065Z" fill="url(#paint1_linear_6242_5487)"/>
<path d="M11.25 1.5H4.75C3.88805 1.5 3.0614 1.84241 2.4519 2.4519C1.84241 3.0614 1.5 3.88805 1.5 4.75V11.25C1.5 11.6768 1.58406 12.0994 1.74739 12.4937C1.91072 12.888 2.15011 13.2463 2.4519 13.5481C3.0614 14.1576 3.88805 14.5 4.75 14.5H11.25C11.6768 14.5 12.0994 14.4159 12.4937 14.2526C12.888 14.0893 13.2463 13.8499 13.5481 13.5481C13.8499 13.2463 14.0893 12.888 14.2526 12.4937C14.4159 12.0994 14.5 11.6768 14.5 11.25V4.75C14.5 4.3232 14.4159 3.90059 14.2526 3.50628C14.0893 3.11197 13.8499 2.75369 13.5481 2.4519C13.2463 2.15011 12.888 1.91072 12.4937 1.74739C12.0994 1.58406 11.6768 1.5 11.25 1.5ZM12.628 10.0413C12.6347 10.3813 12.57 10.7207 12.4393 11.0353C12.1756 11.6669 11.6735 12.1689 11.042 12.4327C10.7267 12.5633 10.3887 12.6273 10.0473 12.6213H6.05C5.70917 12.6262 5.37086 12.5623 5.05533 12.4333C4.74276 12.3019 4.45812 12.1121 4.21667 11.874C3.97753 11.6336 3.78775 11.3486 3.658 11.0353C3.52038 10.7218 3.44955 10.3831 3.45 10.0407V6.012C3.44532 5.67113 3.50949 5.33282 3.63867 5.01733C3.89651 4.38315 4.39406 3.87626 5.02333 3.60667C5.35023 3.47957 5.69945 3.41993 6.05 3.43133H10.08C10.4179 3.42823 10.753 3.49276 11.0655 3.6211C11.3781 3.74945 11.6618 3.93902 11.9 4.17867C12.138 4.42 12.3273 4.70533 12.4587 5.01733C12.5887 5.33267 12.6533 5.67067 12.6473 6.012L12.628 10.0413Z" fill="url(#paint2_linear_6242_5487)"/>
<defs>
<linearGradient id="paint0_linear_6242_5487" x1="7.35565" y1="6.87537" x2="9.5783" y2="9.36633" gradientUnits="userSpaceOnUse">
<stop offset="0.139423" stop-color="#F0642E"/>
<stop offset="0.356931" stop-color="#EE201C"/>
<stop offset="0.678768" stop-color="#F29120"/>
</linearGradient>
<linearGradient id="paint1_linear_6242_5487" x1="6.11441" y1="4.38599" x2="12.7065" y2="11.7595" gradientUnits="userSpaceOnUse">
<stop offset="0.139423" stop-color="#F0642E"/>
<stop offset="0.356931" stop-color="#EE201C"/>
<stop offset="0.678768" stop-color="#F29120"/>
</linearGradient>
<linearGradient id="paint2_linear_6242_5487" x1="4.52462" y1="1.5" x2="16.3234" y2="14.841" gradientUnits="userSpaceOnUse">
<stop offset="0.139423" stop-color="#F0642E"/>
<stop offset="0.356931" stop-color="#EE201C"/>
<stop offset="0.678768" stop-color="#F29120"/>
</linearGradient>
</defs>
</svg>
