<svg width="16" height="16" viewBox="0 0 16 16" fill="none" xmlns="http://www.w3.org/2000/svg">
<path d="M13.4352 1H3.56376C2.42869 1 1.5 1.92869 1.5 3.06376V12.9362C1.5 14.0713 2.42869 15 3.56376 15H13.4362C14.5713 15 15.5 14.0713 15.5 12.9362V3.06376C15.499 1.92869 14.5713 1 13.4352 1ZM13.3026 8.47234H11.6413V14.483H9.1555V8.47234H7.91209V6.40033H9.1555V5.15692C9.1555 3.4667 9.85718 2.46114 11.8539 2.46114H13.5136V4.53263H12.4756C11.6996 4.53263 11.648 4.82311 11.648 5.3633L11.6413 6.40033H13.5219L13.3026 8.47234Z" fill="url(#paint0_linear_6242_5470)"/>
<defs>
<linearGradient id="paint0_linear_6242_5470" x1="4.75728" y1="1" x2="17.4637" y2="15.3672" gradientUnits="userSpaceOnUse">
<stop offset="0.139423" stop-color="#F0642E"/>
<stop offset="0.356931" stop-color="#EE201C"/>
<stop offset="0.678768" stop-color="#F29120"/>
</linearGradient>
</defs>
</svg>
