<svg width="16" height="16" viewBox="0 0 16 16" fill="none" xmlns="http://www.w3.org/2000/svg">
<path fill-rule="evenodd" clip-rule="evenodd" d="M3.33317 0.666687C2.62593 0.666687 1.94765 0.947639 1.44755 1.44774C0.947456 1.94783 0.666504 2.62611 0.666504 3.33335V12.6667C0.666504 13.3739 0.947456 14.0522 1.44755 14.5523C1.94765 15.0524 2.62593 15.3334 3.33317 15.3334H12.6665C13.3737 15.3334 14.052 15.0524 14.5521 14.5523C15.0522 14.0522 15.3332 13.3739 15.3332 12.6667V3.33335C15.3332 2.62611 15.0522 1.94783 14.5521 1.44774C14.052 0.947639 13.3737 0.666687 12.6665 0.666687H3.33317ZM4.1365 5.27335C4.43797 5.27335 4.72708 5.1536 4.94025 4.94043C5.15342 4.72727 5.27317 4.43815 5.27317 4.13669C5.27317 3.83522 5.15342 3.54611 4.94025 3.33294C4.72708 3.11978 4.43797 3.00002 4.1365 3.00002C3.83504 3.00002 3.54593 3.11978 3.33276 3.33294C3.11959 3.54611 2.99984 3.83522 2.99984 4.13669C2.99984 4.43815 3.11959 4.72727 3.33276 4.94043C3.54593 5.1536 3.83504 5.27335 4.1365 5.27335ZM5.2725 13V6.18202H2.99984V13H5.2725ZM8.22717 6.18202H6.18184V13H8.22717V8.88669C8.4905 8.45869 8.94517 8.00002 9.5905 8.00002C10.4998 8.00002 10.7272 8.90935 10.7272 9.36402V13H12.9998V9.36402C12.9998 8.14535 12.4685 6.18202 10.4998 6.18202C9.24784 6.18202 8.55317 6.63869 8.2265 7.06669L8.22717 6.18202Z" fill="url(#paint0_linear_6242_5474)"/>
<defs>
<linearGradient id="paint0_linear_6242_5474" x1="4.07889" y1="0.666687" x2="17.3903" y2="15.7181" gradientUnits="userSpaceOnUse">
<stop offset="0.139423" stop-color="#F0642E"/>
<stop offset="0.356931" stop-color="#EE201C"/>
<stop offset="0.678768" stop-color="#F29120"/>
</linearGradient>
</defs>
</svg>
