<svg width="16" height="16" viewBox="0 0 16 16" fill="none" xmlns="http://www.w3.org/2000/svg">
<path fill-rule="evenodd" clip-rule="evenodd" d="M3.33317 0.666626C2.62593 0.666626 1.94765 0.947578 1.44755 1.44767C0.947456 1.94777 0.666504 2.62605 0.666504 3.33329V12.6666C0.666504 13.3739 0.947456 14.0521 1.44755 14.5522C1.94765 15.0523 2.62593 15.3333 3.33317 15.3333H12.6665C13.3737 15.3333 14.052 15.0523 14.5521 14.5522C15.0522 14.0521 15.3332 13.3739 15.3332 12.6666V3.33329C15.3332 2.62605 15.0522 1.94777 14.5521 1.44767C14.052 0.947578 13.3737 0.666626 12.6665 0.666626H3.33317ZM7.75717 3.75729V4.84863H6.6665C6.45082 4.84863 6.23998 4.78468 6.06063 4.66486C5.88129 4.54505 5.74149 4.37475 5.65892 4.17549C5.57635 3.97624 5.55472 3.75698 5.59675 3.54543C5.63878 3.33388 5.74259 3.13954 5.89505 2.98698C6.04752 2.83442 6.24179 2.73049 6.45332 2.68833C6.66484 2.64617 6.88412 2.66768 7.08342 2.75012C7.28273 2.83257 7.45311 2.97226 7.57304 3.15153C7.69296 3.3308 7.75704 3.54161 7.75717 3.75729ZM2.6665 6.54529C2.6665 5.87596 3.20917 5.33329 3.8785 5.33329H6.54517C6.86661 5.33329 7.17489 5.46099 7.40218 5.68828C7.62948 5.91557 7.75717 6.22385 7.75717 6.54529C7.75717 6.86673 7.62948 7.17501 7.40218 7.40231C7.17489 7.6296 6.86661 7.75729 6.54517 7.75729H3.8785C3.55717 7.75694 3.2491 7.62913 3.02188 7.40192C2.79466 7.1747 2.66686 6.86663 2.6665 6.54529ZM8.2425 9.45463C8.2425 8.78529 8.78517 8.24263 9.4545 8.24263H12.1212C12.4426 8.24263 12.7509 8.37032 12.9782 8.59761C13.2055 8.82491 13.3332 9.13318 13.3332 9.45463C13.3332 9.77607 13.2055 10.0843 12.9782 10.3116C12.7509 10.5389 12.4426 10.6666 12.1212 10.6666H9.4545C9.13317 10.6663 8.8251 10.5385 8.59788 10.3112C8.37066 10.084 8.24286 9.77596 8.2425 9.45463ZM9.33317 11.1513H8.2425V12.2426C8.24264 12.4583 8.30671 12.6691 8.42664 12.8484C8.54656 13.0277 8.71695 13.1673 8.91625 13.2498C9.11556 13.3322 9.33483 13.3537 9.54636 13.3116C9.75788 13.2694 9.95216 13.1655 10.1046 13.0129C10.2571 12.8604 10.3609 12.666 10.4029 12.4545C10.445 12.2429 10.4233 12.0237 10.3408 11.8244C10.2582 11.6252 10.1184 11.4549 9.93904 11.3351C9.7597 11.2152 9.54886 11.1513 9.33317 11.1513ZM12.2425 7.75796H11.1512V6.66663C11.1512 6.45094 11.2151 6.2401 11.3349 6.06075C11.4547 5.88141 11.625 5.74162 11.8243 5.65905C12.0236 5.57648 12.2428 5.55484 12.4544 5.59687C12.6659 5.6389 12.8603 5.74271 13.0128 5.89517C13.1654 6.04764 13.2693 6.24191 13.3115 6.45344C13.3536 6.66496 13.3321 6.88424 13.2497 7.08354C13.1672 7.28285 13.0275 7.45323 12.8483 7.57316C12.669 7.69308 12.4582 7.75716 12.2425 7.75729V7.75796ZM4.8485 8.24263H3.75717C3.54149 8.24276 3.33068 8.30684 3.15141 8.42676C2.97214 8.54668 2.83245 8.71707 2.75 8.91637C2.66755 9.11568 2.64605 9.33496 2.68821 9.54648C2.73037 9.758 2.8343 9.95228 2.98686 10.1047C3.13941 10.2572 3.33375 10.361 3.5453 10.4031C3.75685 10.4451 3.97612 10.4234 4.17537 10.3409C4.37463 10.2583 4.54493 10.1185 4.66474 9.93917C4.78455 9.75982 4.8485 9.54898 4.8485 9.33329V8.24263ZM10.6665 3.87863V6.54529C10.6665 6.86673 10.5388 7.17501 10.3115 7.40231C10.0842 7.6296 9.77595 7.75729 9.4545 7.75729C9.13306 7.75729 8.82478 7.6296 8.59749 7.40231C8.3702 7.17501 8.2425 6.86673 8.2425 6.54529V3.87863C8.2425 3.55718 8.3702 3.24891 8.59749 3.02161C8.82478 2.79432 9.13306 2.66663 9.4545 2.66663C9.77595 2.66663 10.0842 2.79432 10.3115 3.02161C10.5388 3.24891 10.6665 3.55718 10.6665 3.87863ZM7.75717 12.1213V9.45463C7.75717 9.13318 7.62948 8.82491 7.40218 8.59761C7.17489 8.37032 6.86661 8.24263 6.54517 8.24263C6.22373 8.24263 5.91545 8.37032 5.68816 8.59761C5.46086 8.82491 5.33317 9.13318 5.33317 9.45463V12.1213C5.33317 12.4427 5.46086 12.751 5.68816 12.9783C5.91545 13.2056 6.22373 13.3333 6.54517 13.3333C6.86661 13.3333 7.17489 13.2056 7.40218 12.9783C7.62948 12.751 7.75717 12.4427 7.75717 12.1213Z" fill="url(#paint0_linear_6242_5476)"/>
<defs>
<linearGradient id="paint0_linear_6242_5476" x1="4.07889" y1="0.666626" x2="17.3903" y2="15.718" gradientUnits="userSpaceOnUse">
<stop offset="0.139423" stop-color="#F0642E"/>
<stop offset="0.356931" stop-color="#EE201C"/>
<stop offset="0.678768" stop-color="#F29120"/>
</linearGradient>
</defs>
</svg>
