<svg width="68" height="39" viewBox="0 0 68 39" fill="none" xmlns="http://www.w3.org/2000/svg">
<path d="M62.4839 4.44756C56.3134 -1.33926 48.0363 0.267326 40.4759 0.0528547L40.9453 0.403805C42.4952 1.10181 43.9796 2.05719 45.3658 3.35571C46.6683 4.58015 47.778 6.07365 48.6803 7.76992C49.9173 7.75432 51.3799 7.68413 51.9147 7.73092C56.87 8.17546 59.8862 11.9151 60.541 17.0156C61.4142 23.7929 58.7365 30.4922 51.74 31.1278C50.7541 31.2175 49.6408 31.1941 48.5493 31.1629C47.6797 32.7812 46.6283 34.2162 45.4131 35.386C43.7904 36.9536 42.0149 38.0299 40.1558 38.7669C47.8107 38.6148 56.3789 40.2214 62.5166 34.3059C69.7786 27.3024 69.8878 11.3925 62.4839 4.44756Z" fill="#F29121"/>
<path d="M22.9721 2.10873C21.7387 1.31323 18.5953 0.0498047 17.2054 0.0498047H0V38.7989H7.16013V7.72397H16.8525C18.3806 7.94234 19.1119 8.75734 19.6467 9.22138C22.4118 11.6235 20.8474 16.9345 20.5854 17.3323C19.563 18.8804 17.8494 20.2647 15.9793 20.2647H8.90651V27.9389C11.1368 27.8531 13.3961 27.9545 15.63 27.9389C21.0729 27.896 23.718 25.1585 24.1873 24.753C30.4633 19.3366 29.9903 6.63213 22.9685 2.10484L22.9721 2.10873Z" fill="#F29121"/>
<path d="M44.4708 4.44814C38.5404 -1.11252 29.5757 0.150921 22.1754 0.0690317C22.7721 0.345895 23.296 0.622757 23.6707 0.860625C25.9992 2.36192 27.7966 4.77179 28.8589 7.6769C29.623 7.89137 33.0211 7.64961 33.9016 7.7276C38.8569 8.17214 41.8731 11.9117 42.528 17.0122C43.4011 23.7895 40.7234 30.4888 33.727 31.1245C32.1625 31.2648 30.2706 31.1245 28.6625 31.1245C28.6443 31.1245 28.4005 30.8632 28.4005 30.8437V21.3212C27.5783 23.111 26.4468 24.6747 25.0387 25.8875C25.0169 25.907 24.9878 25.9342 24.9514 25.9654C23.718 27.0885 22.3828 27.8567 21.0657 28.3753V38.7947C28.9863 38.4399 38.0783 40.4949 44.5035 34.2986C51.7655 27.2952 51.8747 11.3853 44.4708 4.44034V4.44814Z" fill="#F29121"/>
</svg>
