<svg width="265" height="61" viewBox="0 0 265 61" fill="none" xmlns="http://www.w3.org/2000/svg">
<mask id="path-1-inside-1_6585_24968" fill="white">
<path d="M265 49C265 55.6275 259.627 61 253 61L12 61C5.37259 61 4.69686e-07 55.6274 1.04907e-06 49L4.28372e-06 12C4.8631e-06 5.37259 5.37259 4.69686e-07 12 1.04907e-06L253 2.2118e-05C259.627 2.26973e-05 265 5.3726 265 12L265 49Z"/>
</mask>
<path d="M265 49C265 55.6275 259.627 61 253 61L12 61C5.37259 61 4.69686e-07 55.6274 1.04907e-06 49L4.28372e-06 12C4.8631e-06 5.37259 5.37259 4.69686e-07 12 1.04907e-06L253 2.2118e-05C259.627 2.26973e-05 265 5.3726 265 12L265 49Z" fill="#F0642E"/>
<path d="M265 61L0 61L265 61ZM4.28372e-06 12C4.91139e-06 4.8203 5.82032 -0.999999 13 -0.999999L253 -0.999978C260.18 -0.999977 266 4.82032 266 12L264 12C264 5.92489 259.075 1.00002 253 1.00002L12 1C5.37259 1 4.81482e-06 5.92487 4.28372e-06 12ZM253 -0.999978C260.18 -0.999977 266 4.82032 266 12L266 48C266 55.1797 260.18 61 253 61C259.075 61 264 55.6275 264 49L264 12C264 5.92489 259.075 1.00002 253 1.00002L253 -0.999978ZM0 61L5.33279e-06 0L0 61Z" fill="url(#paint0_linear_6585_24968)" mask="url(#path-1-inside-1_6585_24968)"/>
<g clip-path="url(#clip0_6585_24968)">
<path d="M20.7535 38.7011C19.7206 35.0765 15.9442 31.3143 12.3059 30.2853C11.898 30.1542 11.898 29.8658 12.3059 29.7282C15.9507 28.6926 19.7206 24.9369 20.76 21.3058C20.8719 20.9059 21.1416 20.9059 21.2535 21.3058C22.2864 24.9369 26.0628 28.6926 29.6945 29.7282C30.1024 29.8593 30.1024 30.1542 29.6945 30.2853C26.0562 31.3143 22.2798 35.0765 21.2469 38.7011C21.1351 39.1075 20.8653 39.1075 20.7535 38.7011Z" fill="url(#paint1_linear_6585_24968)"/>
</g>
<path d="M42.192 17.928V16.968L43.008 16.584V12.324H44.184V16.02L46.236 15.036V15.996L44.184 16.98V19.908H48V21H43.008V17.544L42.192 17.928ZM50.8015 21.144C49.5415 21.144 48.7975 20.436 48.7975 19.368C48.7975 18.288 49.6015 17.616 50.9815 17.508L52.8295 17.364V17.196C52.8295 16.212 52.2415 15.864 51.4495 15.864C50.5015 15.864 49.9615 16.284 49.9615 16.992H48.9775C48.9775 15.768 49.9855 14.964 51.4975 14.964C52.9495 14.964 53.9335 15.732 53.9335 17.316V21H52.9735L52.8535 20.052C52.5535 20.724 51.7495 21.144 50.8015 21.144ZM51.1255 20.268C52.1935 20.268 52.8415 19.572 52.8415 18.468V18.156L51.3415 18.276C50.3455 18.372 49.9375 18.756 49.9375 19.332C49.9375 19.956 50.3935 20.268 51.1255 20.268ZM57.0579 21H55.9299V16.08H54.7779V15.132H55.9299V13.296H57.0579V15.132H58.2099V16.08H57.0579V21ZM60.4823 21L58.5623 15.132H59.7263L60.6983 18.18C60.8303 18.612 60.9503 19.056 61.0583 19.572C61.1543 19.056 61.3103 18.564 61.4423 18.18L62.4263 15.132H63.5783L64.5503 18.18C64.6463 18.468 64.8383 19.152 64.9343 19.572C65.0303 19.104 65.1383 18.696 65.3063 18.18L66.2903 15.132H67.4663L65.4622 21H64.3943L63.3743 17.856C63.1823 17.268 63.0623 16.812 63.0023 16.488C62.9423 16.776 62.8343 17.16 62.6183 17.868L61.5983 21H60.4823ZM70.6957 21.144C68.9677 21.144 67.7797 19.896 67.7797 18.072C67.7797 16.236 68.9437 14.964 70.6477 14.964C72.3157 14.964 73.4077 16.116 73.4077 17.856V18.276L68.8717 18.288C68.9557 19.524 69.6037 20.208 70.7197 20.208C71.5957 20.208 72.1717 19.848 72.3637 19.176H73.4197C73.1317 20.436 72.1477 21.144 70.6957 21.144ZM70.6477 15.912C69.6637 15.912 69.0397 16.5 68.8957 17.532H72.2797C72.2797 16.56 71.6437 15.912 70.6477 15.912ZM79.1008 21H77.9728V12.168H79.1008V21ZM80.3773 18.06C80.3773 16.248 81.6733 14.976 83.4373 14.976C85.1893 14.976 86.4853 16.248 86.4853 18.06C86.4853 19.872 85.1893 21.144 83.4373 21.144C81.6733 21.144 80.3773 19.872 80.3773 18.06ZM81.5173 18.06C81.5173 19.284 82.2973 20.136 83.4373 20.136C84.5653 20.136 85.3573 19.284 85.3573 18.06C85.3573 16.836 84.5653 15.984 83.4373 15.984C82.2973 15.984 81.5173 16.836 81.5173 18.06ZM87.362 17.916C87.362 16.26 88.43 14.964 90.134 14.964C91.082 14.964 91.814 15.396 92.186 16.128L92.27 15.132H93.278V20.76C93.278 22.608 92.138 23.784 90.338 23.784C88.742 23.784 87.65 22.884 87.434 21.396H88.562C88.706 22.26 89.354 22.764 90.338 22.764C91.442 22.764 92.162 22.044 92.162 20.928V19.752C91.778 20.436 91.01 20.844 90.086 20.844C88.418 20.844 87.362 19.56 87.362 17.916ZM88.49 17.892C88.49 18.996 89.174 19.86 90.278 19.86C91.418 19.86 92.114 19.044 92.114 17.892C92.114 16.764 91.442 15.948 90.29 15.948C89.162 15.948 88.49 16.812 88.49 17.892ZM94.5218 18.06C94.5218 16.248 95.8178 14.976 97.5818 14.976C99.3338 14.976 100.63 16.248 100.63 18.06C100.63 19.872 99.3338 21.144 97.5818 21.144C95.8178 21.144 94.5218 19.872 94.5218 18.06ZM95.6618 18.06C95.6618 19.284 96.4418 20.136 97.5818 20.136C98.7098 20.136 99.5018 19.284 99.5018 18.06C99.5018 16.836 98.7098 15.984 97.5818 15.984C96.4418 15.984 95.6618 16.836 95.6618 18.06ZM102.869 21L100.949 15.132H102.113L103.085 18.18C103.217 18.612 103.337 19.056 103.445 19.572C103.541 19.056 103.697 18.564 103.829 18.18L104.813 15.132H105.965L106.937 18.18C107.033 18.468 107.225 19.152 107.321 19.572C107.417 19.104 107.525 18.696 107.693 18.18L108.677 15.132H109.853L107.849 21H106.781L105.761 17.856C105.569 17.268 105.449 16.812 105.389 16.488C105.329 16.776 105.221 17.16 105.005 17.868L103.985 21H102.869ZM112.266 21.144C111.006 21.144 110.262 20.436 110.262 19.368C110.262 18.288 111.066 17.616 112.446 17.508L114.294 17.364V17.196C114.294 16.212 113.706 15.864 112.914 15.864C111.966 15.864 111.426 16.284 111.426 16.992H110.442C110.442 15.768 111.45 14.964 112.962 14.964C114.414 14.964 115.398 15.732 115.398 17.316V21H114.438L114.318 20.052C114.018 20.724 113.214 21.144 112.266 21.144ZM112.59 20.268C113.658 20.268 114.306 19.572 114.306 18.468V18.156L112.806 18.276C111.81 18.372 111.402 18.756 111.402 19.332C111.402 19.956 111.858 20.268 112.59 20.268ZM118.089 21H116.961V15.132H117.981L118.101 16.032C118.473 15.36 119.217 14.964 120.045 14.964C121.593 14.964 122.301 15.912 122.301 17.412V21H121.173V17.664C121.173 16.476 120.621 15.996 119.757 15.996C118.701 15.996 118.089 16.752 118.089 17.892V21ZM124.415 13.74C124.007 13.74 123.671 13.404 123.671 12.996C123.671 12.576 124.007 12.252 124.415 12.252C124.823 12.252 125.159 12.576 125.159 12.996C125.159 13.404 124.823 13.74 124.415 13.74ZM123.863 21V15.132H124.991V21H123.863ZM129.161 21.144C127.433 21.144 126.245 19.896 126.245 18.072C126.245 16.236 127.409 14.964 129.113 14.964C130.781 14.964 131.872 16.116 131.872 17.856V18.276L127.337 18.288C127.421 19.524 128.069 20.208 129.185 20.208C130.061 20.208 130.637 19.848 130.829 19.176H131.885C131.597 20.436 130.613 21.144 129.161 21.144ZM129.113 15.912C128.129 15.912 127.505 16.5 127.361 17.532H130.745C130.745 16.56 130.109 15.912 129.113 15.912ZM138.766 21.144C137.062 21.144 136.03 19.872 136.03 18.084C136.03 16.284 137.074 14.964 138.814 14.964C139.714 14.964 140.47 15.36 140.866 16.08V12.168H141.982V21H140.974L140.878 19.932C140.494 20.736 139.702 21.144 138.766 21.144ZM138.994 20.124C140.146 20.124 140.854 19.272 140.854 18.048C140.854 16.848 140.146 15.984 138.994 15.984C137.842 15.984 137.17 16.848 137.17 18.048C137.17 19.26 137.842 20.124 138.994 20.124ZM144.761 21H143.633V12.168H144.761V21ZM148.137 21.144C146.877 21.144 146.133 20.436 146.133 19.368C146.133 18.288 146.937 17.616 148.317 17.508L150.165 17.364V17.196C150.165 16.212 149.577 15.864 148.785 15.864C147.837 15.864 147.297 16.284 147.297 16.992H146.313C146.313 15.768 147.321 14.964 148.833 14.964C150.285 14.964 151.269 15.732 151.269 17.316V21H150.309L150.189 20.052C149.889 20.724 149.085 21.144 148.137 21.144ZM148.461 20.268C149.529 20.268 150.177 19.572 150.177 18.468V18.156L148.677 18.276C147.681 18.372 147.273 18.756 147.273 19.332C147.273 19.956 147.729 20.268 148.461 20.268ZM159.905 21.132C157.433 21.132 155.789 19.356 155.789 16.668C155.789 13.992 157.481 12.18 159.965 12.18C161.921 12.18 163.421 13.344 163.745 15.12H162.485C162.161 13.992 161.189 13.308 159.929 13.308C158.177 13.308 157.025 14.628 157.025 16.656C157.025 18.684 158.177 20.004 159.929 20.004C161.201 20.004 162.209 19.32 162.533 18.252H163.781C163.409 19.98 161.861 21.132 159.905 21.132ZM165.583 13.74C165.175 13.74 164.839 13.404 164.839 12.996C164.839 12.576 165.175 12.252 165.583 12.252C165.991 12.252 166.327 12.576 166.327 12.996C166.327 13.404 165.991 13.74 165.583 13.74ZM165.031 21V15.132H166.159V21H165.031ZM170.328 21.144C168.6 21.144 167.412 19.896 167.412 18.072C167.412 16.236 168.576 14.964 170.28 14.964C171.948 14.964 173.04 16.116 173.04 17.856V18.276L168.504 18.288C168.588 19.524 169.236 20.208 170.352 20.208C171.228 20.208 171.804 19.848 171.996 19.176H173.052C172.764 20.436 171.78 21.144 170.328 21.144ZM170.28 15.912C169.296 15.912 168.672 16.5 168.528 17.532H171.912C171.912 16.56 171.276 15.912 170.28 15.912ZM175.32 21H174.3V12.168H175.428V16.14C175.812 15.372 176.604 14.964 177.564 14.964C179.244 14.964 180.252 16.284 180.252 18.096C180.252 19.872 179.196 21.144 177.492 21.144C176.568 21.144 175.788 20.736 175.404 19.932L175.32 21ZM175.44 18.048C175.44 19.272 176.136 20.124 177.288 20.124C178.44 20.124 179.124 19.26 179.124 18.048C179.124 16.848 178.44 15.984 177.288 15.984C176.136 15.984 175.44 16.848 175.44 18.048ZM182.048 13.74C181.64 13.74 181.304 13.404 181.304 12.996C181.304 12.576 181.64 12.252 182.048 12.252C182.456 12.252 182.792 12.576 182.792 12.996C182.792 13.404 182.456 13.74 182.048 13.74ZM181.496 21V15.132H182.624V21H181.496ZM186.793 21.144C185.065 21.144 183.877 19.896 183.877 18.072C183.877 16.236 185.041 14.964 186.745 14.964C188.413 14.964 189.505 16.116 189.505 17.856V18.276L184.969 18.288C185.053 19.524 185.701 20.208 186.817 20.208C187.693 20.208 188.269 19.848 188.461 19.176H189.517C189.229 20.436 188.245 21.144 186.793 21.144ZM186.745 15.912C185.761 15.912 185.137 16.5 184.993 17.532H188.377C188.377 16.56 187.741 15.912 186.745 15.912ZM192.094 20.532C192.094 21.396 191.446 22.116 190.594 22.224V21.72C191.086 21.636 191.434 21.312 191.434 20.94C191.35 20.988 191.254 21.012 191.11 21.012C190.714 21.012 190.378 20.724 190.378 20.28C190.378 19.8 190.702 19.452 191.182 19.452C191.686 19.452 192.094 19.872 192.094 20.532ZM42.168 26.404V25.324H48.564V26.404H45.96V34H44.784V26.404H42.168ZM50.3455 34L48.4255 28.132H49.5895L50.5615 31.18C50.6935 31.612 50.8135 32.056 50.9215 32.572C51.0175 32.056 51.1735 31.564 51.3055 31.18L52.2895 28.132H53.4415L54.4135 31.18C54.5095 31.468 54.7015 32.152 54.7975 32.572C54.8935 32.104 55.0015 31.696 55.1695 31.18L56.1535 28.132H57.3295L55.3255 34H54.2575L53.2375 30.856C53.0455 30.268 52.9255 29.812 52.8655 29.488C52.8055 29.776 52.6975 30.16 52.4815 30.868L51.4615 34H50.3455ZM57.6429 31.06C57.6429 29.248 58.9389 27.976 60.7029 27.976C62.4549 27.976 63.7509 29.248 63.7509 31.06C63.7509 32.872 62.4549 34.144 60.7029 34.144C58.9389 34.144 57.6429 32.872 57.6429 31.06ZM58.7829 31.06C58.7829 32.284 59.5629 33.136 60.7029 33.136C61.8309 33.136 62.6229 32.284 62.6229 31.06C62.6229 29.836 61.8309 28.984 60.7029 28.984C59.5629 28.984 58.7829 29.836 58.7829 31.06ZM65.5636 26.74C65.1436 26.74 64.8196 26.404 64.8196 25.996C64.8196 25.576 65.1436 25.252 65.5636 25.252C65.9596 25.252 66.3076 25.576 66.3076 25.996C66.3076 26.404 65.9596 26.74 65.5636 26.74ZM63.5116 36.664L63.7036 35.644C63.9316 35.704 64.0636 35.728 64.2436 35.728C64.7836 35.728 64.9996 35.416 64.9996 34.756V28.132H66.1276V34.864C66.1276 36.04 65.4796 36.772 64.3396 36.772C64.0396 36.772 63.8476 36.76 63.5116 36.664ZM70.2972 34.144C68.5692 34.144 67.3812 32.896 67.3812 31.072C67.3812 29.236 68.5452 27.964 70.2492 27.964C71.9172 27.964 73.0092 29.116 73.0092 30.856V31.276L68.4732 31.288C68.5572 32.524 69.2052 33.208 70.3212 33.208C71.1972 33.208 71.7732 32.848 71.9652 32.176H73.0212C72.7332 33.436 71.7492 34.144 70.2972 34.144ZM70.2492 28.912C69.2652 28.912 68.6412 29.5 68.4972 30.532H71.8812C71.8812 29.56 71.2452 28.912 70.2492 28.912ZM73.8971 30.916C73.8971 29.26 74.9651 27.964 76.6691 27.964C77.6171 27.964 78.3491 28.396 78.7211 29.128L78.8051 28.132H79.8131V33.76C79.8131 35.608 78.6731 36.784 76.8731 36.784C75.2771 36.784 74.1851 35.884 73.9691 34.396H75.0971C75.2411 35.26 75.8891 35.764 76.8731 35.764C77.9771 35.764 78.6971 35.044 78.6971 33.928V32.752C78.3131 33.436 77.5451 33.844 76.6211 33.844C74.9531 33.844 73.8971 32.56 73.8971 30.916ZM75.0251 30.892C75.0251 31.996 75.7091 32.86 76.8131 32.86C77.9531 32.86 78.6491 32.044 78.6491 30.892C78.6491 29.764 77.9771 28.948 76.8251 28.948C75.6971 28.948 75.0251 29.812 75.0251 30.892ZM81.057 31.06C81.057 29.248 82.353 27.976 84.117 27.976C85.869 27.976 87.165 29.248 87.165 31.06C87.165 32.872 85.869 34.144 84.117 34.144C82.353 34.144 81.057 32.872 81.057 31.06ZM82.197 31.06C82.197 32.284 82.977 33.136 84.117 33.136C85.245 33.136 86.037 32.284 86.037 31.06C86.037 29.836 85.245 28.984 84.117 28.984C82.977 28.984 82.197 29.836 82.197 31.06ZM92.9549 34L91.0349 28.132H92.1989L93.1709 31.18C93.3029 31.612 93.4229 32.056 93.5309 32.572C93.6269 32.056 93.7829 31.564 93.9149 31.18L94.8989 28.132H96.0509L97.0229 31.18C97.1189 31.468 97.3109 32.152 97.4069 32.572C97.5029 32.104 97.6109 31.696 97.7789 31.18L98.7629 28.132H99.9389L97.9349 34H96.8669L95.8469 30.856C95.6549 30.268 95.5349 29.812 95.4749 29.488C95.4149 29.776 95.3069 30.16 95.0909 30.868L94.0709 34H92.9549ZM100.344 32.296H101.424C101.424 32.896 101.88 33.256 102.624 33.256C103.416 33.256 103.872 32.932 103.872 32.392C103.872 31.996 103.68 31.756 103.068 31.6L102.036 31.36C100.992 31.108 100.5 30.592 100.5 29.728C100.5 28.648 101.412 27.964 102.708 27.964C103.992 27.964 104.832 28.684 104.856 29.8H103.776C103.752 29.212 103.356 28.84 102.672 28.84C101.964 28.84 101.568 29.152 101.568 29.692C101.568 30.088 101.856 30.352 102.432 30.496L103.464 30.748C104.46 30.988 104.952 31.444 104.952 32.32C104.952 33.436 103.992 34.144 102.6 34.144C101.22 34.144 100.344 33.412 100.344 32.296ZM106.203 36.628V28.132H107.223L107.307 29.188C107.703 28.384 108.495 27.964 109.431 27.964C111.111 27.964 112.155 29.224 112.155 31.024C112.155 32.812 111.171 34.156 109.431 34.156C108.495 34.156 107.715 33.76 107.331 33.04V36.628H106.203ZM107.343 31.072C107.343 32.272 108.039 33.136 109.191 33.136C110.343 33.136 111.027 32.272 111.027 31.072C111.027 29.86 110.343 28.996 109.191 28.996C108.039 28.996 107.343 29.848 107.343 31.072ZM117.562 25.852L116.518 27.448H115.654L116.458 25.852H117.562ZM113.014 31.06C113.014 29.248 114.31 27.976 116.074 27.976C117.826 27.976 119.122 29.248 119.122 31.06C119.122 32.872 117.826 34.144 116.074 34.144C114.31 34.144 113.014 32.872 113.014 31.06ZM114.154 31.06C114.154 32.284 114.934 33.136 116.074 33.136C117.202 33.136 117.994 32.284 117.994 31.06C117.994 29.836 117.202 28.984 116.074 28.984C114.934 28.984 114.154 29.836 114.154 31.06ZM121.523 34H120.395V25.168H121.523V34ZM124.311 34H123.183V28.132H124.203L124.323 29.032C124.695 28.36 125.439 27.964 126.267 27.964C127.815 27.964 128.523 28.912 128.523 30.412V34H127.395V30.664C127.395 29.476 126.843 28.996 125.979 28.996C124.923 28.996 124.311 29.752 124.311 30.892V34ZM130.638 26.74C130.23 26.74 129.894 26.404 129.894 25.996C129.894 25.576 130.23 25.252 130.638 25.252C131.046 25.252 131.382 25.576 131.382 25.996C131.382 26.404 131.046 26.74 130.638 26.74ZM130.086 34V28.132H131.214V34H130.086ZM134.003 34H132.875V25.168H134.003V30.892L136.607 28.132H138.023L135.779 30.472L138.011 34H136.715L134.999 31.288L134.003 32.332V34ZM140.52 34.144C139.26 34.144 138.516 33.436 138.516 32.368C138.516 31.288 139.32 30.616 140.7 30.508L142.548 30.364V30.196C142.548 29.212 141.96 28.864 141.168 28.864C140.22 28.864 139.68 29.284 139.68 29.992H138.696C138.696 28.768 139.704 27.964 141.216 27.964C142.668 27.964 143.652 28.732 143.652 30.316V34H142.692L142.572 33.052C142.272 33.724 141.468 34.144 140.52 34.144ZM140.844 33.268C141.912 33.268 142.56 32.572 142.56 31.468V31.156L141.06 31.276C140.064 31.372 139.656 31.756 139.656 32.332C139.656 32.956 140.112 33.268 140.844 33.268ZM149.048 26.74C148.64 26.74 148.304 26.404 148.304 25.996C148.304 25.576 148.64 25.252 149.048 25.252C149.456 25.252 149.792 25.576 149.792 25.996C149.792 26.404 149.456 26.74 149.048 26.74ZM148.496 34V28.132H149.624V34H148.496ZM154.543 36.628V28.132H155.563L155.647 29.188C156.043 28.384 156.835 27.964 157.771 27.964C159.451 27.964 160.495 29.224 160.495 31.024C160.495 32.812 159.511 34.156 157.771 34.156C156.835 34.156 156.055 33.76 155.671 33.04V36.628H154.543ZM155.683 31.072C155.683 32.272 156.379 33.136 157.531 33.136C158.683 33.136 159.367 32.272 159.367 31.072C159.367 29.86 158.683 28.996 157.531 28.996C156.379 28.996 155.683 29.848 155.683 31.072ZM165.098 28.084V29.116H164.594C163.526 29.116 162.866 29.764 162.866 30.892V34H161.738V28.144H162.794L162.866 29.032C163.106 28.42 163.694 28.012 164.498 28.012C164.702 28.012 164.87 28.036 165.098 28.084ZM167.637 34.144C166.377 34.144 165.633 33.436 165.633 32.368C165.633 31.288 166.437 30.616 167.817 30.508L169.665 30.364V30.196C169.665 29.212 169.077 28.864 168.285 28.864C167.337 28.864 166.797 29.284 166.797 29.992H165.813C165.813 28.768 166.821 27.964 168.333 27.964C169.785 27.964 170.769 28.732 170.769 30.316V34H169.809L169.689 33.052C169.389 33.724 168.585 34.144 167.637 34.144ZM167.961 33.268C169.029 33.268 169.677 32.572 169.677 31.468V31.156L168.177 31.276C167.181 31.372 166.773 31.756 166.773 32.332C166.773 32.956 167.229 33.268 167.961 33.268ZM171.948 31.072C171.948 29.236 173.112 27.964 174.828 27.964C176.304 27.964 177.336 28.804 177.54 30.112H176.412C176.22 29.368 175.62 28.972 174.864 28.972C173.796 28.972 173.064 29.788 173.064 31.06C173.064 32.32 173.748 33.136 174.816 33.136C175.62 33.136 176.22 32.716 176.424 32.02H177.552C177.324 33.292 176.232 34.144 174.816 34.144C173.088 34.144 171.948 32.92 171.948 31.072ZM178.358 31.06C178.358 29.248 179.654 27.976 181.418 27.976C183.17 27.976 184.466 29.248 184.466 31.06C184.466 32.872 183.17 34.144 181.418 34.144C179.654 34.144 178.358 32.872 178.358 31.06ZM179.498 31.06C179.498 32.284 180.278 33.136 181.418 33.136C182.546 33.136 183.338 32.284 183.338 31.06C183.338 29.836 182.546 28.984 181.418 28.984C180.278 28.984 179.498 29.836 179.498 31.06ZM186.705 34L184.785 28.132H185.949L186.921 31.18C187.053 31.612 187.173 32.056 187.281 32.572C187.377 32.056 187.533 31.564 187.665 31.18L188.649 28.132H189.801L190.773 31.18C190.869 31.468 191.061 32.152 191.157 32.572C191.253 32.104 191.361 31.696 191.529 31.18L192.513 28.132H193.689L191.685 34H190.617L189.597 30.856C189.405 30.268 189.285 29.812 189.225 29.488C189.165 29.776 189.057 30.16 188.841 30.868L187.821 34H186.705ZM195.784 34H194.656V28.132H195.676L195.796 29.032C196.168 28.36 196.912 27.964 197.74 27.964C199.288 27.964 199.996 28.912 199.996 30.412V34H198.868V30.664C198.868 29.476 198.316 28.996 197.452 28.996C196.396 28.996 195.784 29.752 195.784 30.892V34ZM202.11 26.74C201.702 26.74 201.366 26.404 201.366 25.996C201.366 25.576 201.702 25.252 202.11 25.252C202.518 25.252 202.854 25.576 202.854 25.996C202.854 26.404 202.518 26.74 202.11 26.74ZM201.558 34V28.132H202.686V34H201.558ZM205.476 34H204.348V25.168H205.476V30.892L208.08 28.132H209.496L207.252 30.472L209.484 34H208.188L206.472 31.288L205.476 32.332V34ZM211.993 34.144C210.733 34.144 209.989 33.436 209.989 32.368C209.989 31.288 210.793 30.616 212.173 30.508L214.021 30.364V30.196C214.021 29.212 213.433 28.864 212.641 28.864C211.693 28.864 211.153 29.284 211.153 29.992H210.169C210.169 28.768 211.177 27.964 212.689 27.964C214.141 27.964 215.125 28.732 215.125 30.316V34H214.165L214.045 33.052C213.745 33.724 212.941 34.144 211.993 34.144ZM212.317 33.268C213.385 33.268 214.033 32.572 214.033 31.468V31.156L212.533 31.276C211.537 31.372 211.129 31.756 211.129 32.332C211.129 32.956 211.585 33.268 212.317 33.268Z" fill="white"/>
<path d="M42.8807 49V41.7273H45.3381C45.9086 41.7273 46.375 41.8303 46.7372 42.0363C47.1018 42.2399 47.3717 42.5157 47.5469 42.8637C47.7221 43.2117 47.8097 43.5999 47.8097 44.0285C47.8097 44.457 47.7221 44.8464 47.5469 45.1968C47.3741 45.5472 47.1065 45.8265 46.7443 46.0348C46.3821 46.2408 45.9181 46.3438 45.3523 46.3438H43.5909V45.5625H45.3239C45.7145 45.5625 46.0282 45.4951 46.2649 45.3601C46.5017 45.2252 46.6733 45.0429 46.7798 44.8133C46.8887 44.5812 46.9432 44.3196 46.9432 44.0285C46.9432 43.7373 46.8887 43.4768 46.7798 43.2472C46.6733 43.0176 46.5005 42.8376 46.2614 42.7074C46.0223 42.5749 45.705 42.5086 45.3097 42.5086H43.7614V49H42.8807ZM49.1147 49V43.5455H49.9244V44.3694H49.9812C50.0806 44.0995 50.2605 43.8805 50.521 43.7124C50.7814 43.5443 51.0749 43.4603 51.4016 43.4603C51.4632 43.4603 51.5401 43.4615 51.6325 43.4638C51.7248 43.4662 51.7946 43.4697 51.842 43.4745V44.3267C51.8136 44.3196 51.7485 44.309 51.6467 44.2948C51.5472 44.2782 51.4419 44.2699 51.3306 44.2699C51.0655 44.2699 50.8287 44.3256 50.6204 44.4368C50.4144 44.5457 50.2511 44.6972 50.1303 44.8914C50.012 45.0831 49.9528 45.3021 49.9528 45.5483V49H49.1147ZM52.6792 49V48.3608L55.7757 44.3836V44.3267H52.7786V43.5455H56.8553V44.2131L53.8439 48.162V48.2188H56.9547V49H52.6792ZM58.7853 51.0455C58.6433 51.0455 58.5166 51.0337 58.4054 51.01C58.2941 50.9887 58.2172 50.9674 58.1745 50.9461L58.3876 50.2074C58.5912 50.2595 58.7711 50.2785 58.9274 50.2642C59.0836 50.25 59.2221 50.1802 59.3429 50.0547C59.466 49.9316 59.5784 49.7316 59.6802 49.4546L59.8365 49.0285L57.8194 43.5455H58.7285L60.2342 47.8921H60.291L61.7967 43.5455H62.7058L60.3904 49.7955C60.2863 50.0772 60.1573 50.3104 60.0034 50.4951C59.8495 50.6821 59.6708 50.8206 59.4672 50.9106C59.2659 51.0005 59.0386 51.0455 58.7853 51.0455ZM67.6756 44.7671L66.9228 44.9802C66.8754 44.8547 66.8056 44.7328 66.7132 44.6144C66.6233 44.4937 66.5002 44.3942 66.3439 44.3161C66.1877 44.238 65.9876 44.1989 65.7438 44.1989C65.41 44.1989 65.1318 44.2758 64.9093 44.4297C64.6891 44.5812 64.579 44.7742 64.579 45.0086C64.579 45.2169 64.6548 45.3814 64.8063 45.5022C64.9578 45.6229 65.1945 45.7235 65.5165 45.804L66.3262 46.0029C66.8139 46.1213 67.1773 46.3024 67.4164 46.5462C67.6555 46.7877 67.775 47.099 67.775 47.4802C67.775 47.7927 67.6851 48.072 67.5051 48.3182C67.3276 48.5644 67.079 48.7586 66.7594 48.9006C66.4398 49.0427 66.0681 49.1137 65.6444 49.1137C65.088 49.1137 64.6275 48.9929 64.263 48.7515C63.8984 48.51 63.6676 48.1572 63.5705 47.6932L64.3659 47.4944C64.4417 47.7879 64.5849 48.0081 64.7956 48.1549C65.0087 48.3017 65.2869 48.375 65.6301 48.375C66.0208 48.375 66.3309 48.2922 66.5605 48.1265C66.7926 47.9584 66.9086 47.7571 66.9086 47.5228C66.9086 47.3334 66.8423 47.1748 66.7097 47.0469C66.5771 46.9167 66.3735 46.8196 66.0989 46.7557L65.1898 46.5427C64.6903 46.4243 64.3233 46.2408 64.089 45.9922C63.8569 45.7413 63.7409 45.4276 63.7409 45.0512C63.7409 44.7434 63.8274 44.4712 64.0002 44.2344C64.1754 43.9977 64.4133 43.8118 64.714 43.6769C65.017 43.5419 65.3603 43.4745 65.7438 43.4745C66.2836 43.4745 66.7073 43.5928 67.0151 43.8296C67.3252 44.0663 67.5454 44.3788 67.6756 44.7671ZM71.4087 43.5455V44.2557H68.582V43.5455H71.4087ZM69.4059 42.2387H70.244V47.4375C70.244 47.6743 70.2783 47.8518 70.3469 47.9702C70.418 48.0862 70.5079 48.1643 70.6168 48.2046C70.7281 48.2425 70.8453 48.2614 70.9684 48.2614C71.0607 48.2614 71.1365 48.2567 71.1957 48.2472C71.2549 48.2354 71.3022 48.2259 71.3377 48.2188L71.5082 48.9716C71.4513 48.9929 71.372 49.0142 71.2702 49.0356C71.1684 49.0592 71.0394 49.0711 70.8832 49.0711C70.6464 49.0711 70.4144 49.0202 70.1871 48.9184C69.9622 48.8166 69.7752 48.6615 69.6261 48.4532C69.4793 48.2448 69.4059 47.982 69.4059 47.6648V42.2387ZM74.2745 49.1279C73.9289 49.1279 73.6152 49.0628 73.3335 48.9326C73.0517 48.8 72.828 48.6094 72.6623 48.3608C72.4966 48.1099 72.4137 47.8069 72.4137 47.4517C72.4137 47.1392 72.4753 46.8859 72.5984 46.6918C72.7215 46.4953 72.886 46.3414 73.092 46.2302C73.2979 46.1189 73.5252 46.036 73.7738 45.9816C74.0247 45.9248 74.2769 45.8798 74.5302 45.8466C74.8616 45.804 75.1303 45.7721 75.3363 45.7508C75.5446 45.7271 75.6961 45.688 75.7908 45.6336C75.8879 45.5791 75.9364 45.4844 75.9364 45.3495V45.3211C75.9364 44.9707 75.8406 44.6984 75.6488 44.5043C75.4594 44.3102 75.1718 44.2131 74.7859 44.2131C74.3858 44.2131 74.0721 44.3007 73.8448 44.4759C73.6175 44.6511 73.4577 44.8381 73.3654 45.037L72.57 44.7529C72.712 44.4214 72.9014 44.1634 73.1381 43.9787C73.3772 43.7917 73.6377 43.6615 73.9194 43.5881C74.2035 43.5124 74.4828 43.4745 74.7575 43.4745C74.9326 43.4745 75.1339 43.4958 75.3612 43.5384C75.5908 43.5786 75.8121 43.6627 76.0252 43.7905C76.2406 43.9184 76.4194 44.1113 76.5614 44.3694C76.7035 44.6274 76.7745 44.9731 76.7745 45.4063V49H75.9364V48.2614H75.8938C75.837 48.3798 75.7423 48.5064 75.6097 48.6414C75.4772 48.7763 75.3008 48.8911 75.0806 48.9858C74.8604 49.0805 74.5917 49.1279 74.2745 49.1279ZM74.4023 48.375C74.7338 48.375 75.0131 48.3099 75.2404 48.1797C75.4701 48.0495 75.6429 47.8814 75.7589 47.6755C75.8772 47.4695 75.9364 47.2529 75.9364 47.0256V46.2586C75.9009 46.3012 75.8228 46.3402 75.7021 46.3758C75.5837 46.4089 75.4464 46.4385 75.2901 46.4645C75.1362 46.4882 74.9859 46.5095 74.8391 46.5285C74.6947 46.545 74.5775 46.5592 74.4876 46.5711C74.2698 46.5995 74.0662 46.6456 73.8768 46.7096C73.6897 46.7711 73.5382 46.8646 73.4222 46.9901C73.3086 47.1132 73.2518 47.2813 73.2518 47.4944C73.2518 47.7856 73.3595 48.0057 73.5749 48.1549C73.7927 48.3017 74.0685 48.375 74.4023 48.375ZM76.1069 51.1307C75.8157 51.1307 75.5742 51.0502 75.3825 50.8892C75.1931 50.7306 75.0984 50.4986 75.0984 50.1932C75.0984 50.018 75.141 49.8428 75.2262 49.6677C75.3114 49.4925 75.4487 49.3232 75.6381 49.1598C75.8275 48.9965 76.0785 48.8438 76.391 48.7017L76.7745 49C76.5614 49.1563 76.3709 49.322 76.2028 49.4972C76.0347 49.6724 75.9506 49.8665 75.9506 50.0796C75.9506 50.1861 75.9767 50.269 76.0288 50.3282C76.0808 50.3897 76.1779 50.4205 76.32 50.4205C76.4265 50.4205 76.5212 50.4063 76.604 50.3779C76.6869 50.3495 76.7532 50.3211 76.8029 50.2927L76.8597 50.9177C76.7816 50.9674 76.6786 51.0147 76.5508 51.0597C76.4253 51.107 76.2773 51.1307 76.1069 51.1307ZM78.3042 51.0455V43.5455H79.1138V44.412H79.2132C79.2748 44.3173 79.36 44.1965 79.4689 44.0498C79.5802 43.9006 79.7388 43.768 79.9448 43.652C80.1531 43.5337 80.4348 43.4745 80.79 43.4745C81.2492 43.4745 81.6541 43.5893 82.0044 43.8189C82.3548 44.0486 82.6283 44.3741 82.8248 44.7955C83.0212 45.2169 83.1195 45.7141 83.1195 46.287C83.1195 46.8646 83.0212 47.3653 82.8248 47.7891C82.6283 48.2105 82.356 48.5372 82.008 48.7692C81.66 48.9989 81.2587 49.1137 80.8042 49.1137C80.4538 49.1137 80.1732 49.0557 79.9625 48.9397C79.7518 48.8213 79.5897 48.6875 79.476 48.5384C79.3624 48.3869 79.2748 48.2614 79.2132 48.162H79.1422V51.0455H78.3042ZM79.128 46.2728C79.128 46.6847 79.1884 47.0481 79.3091 47.363C79.4299 47.6755 79.6062 47.9205 79.8382 48.0981C80.0703 48.2732 80.3543 48.3608 80.6905 48.3608C81.0409 48.3608 81.3333 48.2685 81.5676 48.0838C81.8044 47.8968 81.9819 47.6459 82.1003 47.331C82.2211 47.0138 82.2814 46.661 82.2814 46.2728C82.2814 45.8892 82.2222 45.5436 82.1039 45.2358C81.9879 44.9257 81.8115 44.6807 81.5748 44.5008C81.3404 44.3185 81.0456 44.2273 80.6905 44.2273C80.3496 44.2273 80.0632 44.3137 79.8311 44.4865C79.5991 44.657 79.4239 44.8961 79.3056 45.2039C79.1872 45.5093 79.128 45.8656 79.128 46.2728ZM88.0485 45.7188V49H87.2104V43.5455H88.0201V44.3978H88.0911C88.2189 44.1208 88.4131 43.8982 88.6735 43.7302C88.9339 43.5597 89.2701 43.4745 89.682 43.4745C90.0513 43.4745 90.3745 43.5502 90.6515 43.7017C90.9284 43.8509 91.1439 44.0782 91.2978 44.3836C91.4516 44.6866 91.5286 45.0701 91.5286 45.5341V49H90.6905V45.591C90.6905 45.1624 90.5792 44.8286 90.3567 44.5895C90.1342 44.3481 89.8288 44.2273 89.4405 44.2273C89.173 44.2273 88.9339 44.2853 88.7232 44.4013C88.5149 44.5173 88.3503 44.6866 88.2296 44.9091C88.1088 45.1317 88.0485 45.4016 88.0485 45.7188ZM94.6651 49.1279C94.3195 49.1279 94.0058 49.0628 93.7241 48.9326C93.4424 48.8 93.2186 48.6094 93.0529 48.3608C92.8872 48.1099 92.8043 47.8069 92.8043 47.4517C92.8043 47.1392 92.8659 46.8859 92.989 46.6918C93.1121 46.4953 93.2766 46.3414 93.4826 46.2302C93.6886 46.1189 93.9158 46.036 94.1644 45.9816C94.4154 45.9248 94.6675 45.8798 94.9208 45.8466C95.2522 45.804 95.521 45.7721 95.7269 45.7508C95.9353 45.7271 96.0868 45.688 96.1815 45.6336C96.2785 45.5791 96.3271 45.4844 96.3271 45.3495V45.3211C96.3271 44.9707 96.2312 44.6984 96.0394 44.5043C95.85 44.3102 95.5624 44.2131 95.1765 44.2131C94.7764 44.2131 94.4627 44.3007 94.2354 44.4759C94.0082 44.6511 93.8484 44.8381 93.756 45.037L92.9606 44.7529C93.1026 44.4214 93.292 44.1634 93.5288 43.9787C93.7679 43.7917 94.0283 43.6615 94.31 43.5881C94.5941 43.5124 94.8735 43.4745 95.1481 43.4745C95.3233 43.4745 95.5245 43.4958 95.7518 43.5384C95.9814 43.5786 96.2028 43.6627 96.4158 43.7905C96.6313 43.9184 96.81 44.1113 96.9521 44.3694C97.0941 44.6274 97.1651 44.9731 97.1651 45.4063V49H96.3271V48.2614H96.2844C96.2276 48.3798 96.1329 48.5064 96.0004 48.6414C95.8678 48.7763 95.6914 48.8911 95.4712 48.9858C95.2511 49.0805 94.9824 49.1279 94.6651 49.1279ZM94.793 48.375C95.1244 48.375 95.4038 48.3099 95.631 48.1797C95.8607 48.0495 96.0335 47.8814 96.1495 47.6755C96.2679 47.4695 96.3271 47.2529 96.3271 47.0256V46.2586C96.2915 46.3012 96.2134 46.3402 96.0927 46.3758C95.9743 46.4089 95.837 46.4385 95.6808 46.4645C95.5269 46.4882 95.3765 46.5095 95.2298 46.5285C95.0853 46.545 94.9682 46.5592 94.8782 46.5711C94.6604 46.5995 94.4568 46.6456 94.2674 46.7096C94.0804 46.7711 93.9289 46.8646 93.8129 46.9901C93.6992 47.1132 93.6424 47.2813 93.6424 47.4944C93.6424 47.7856 93.7501 48.0057 93.9656 48.1549C94.1834 48.3017 94.4592 48.375 94.793 48.375ZM101.067 43.5455V44.2557H98.2402V43.5455H101.067ZM99.0641 42.2387H99.9022V47.4375C99.9022 47.6743 99.9365 47.8518 100.005 47.9702C100.076 48.0862 100.166 48.1643 100.275 48.2046C100.386 48.2425 100.503 48.2614 100.627 48.2614C100.719 48.2614 100.795 48.2567 100.854 48.2472C100.913 48.2354 100.96 48.2259 100.996 48.2188L101.166 48.9716C101.11 48.9929 101.03 49.0142 100.928 49.0356C100.827 49.0592 100.698 49.0711 100.541 49.0711C100.305 49.0711 100.073 49.0202 99.8453 48.9184C99.6204 48.8166 99.4334 48.6615 99.2843 48.4532C99.1375 48.2448 99.0641 47.982 99.0641 47.6648V42.2387ZM102.867 51.0455C102.725 51.0455 102.599 51.0337 102.487 51.01C102.376 50.9887 102.299 50.9674 102.257 50.9461L102.47 50.2074C102.673 50.2595 102.853 50.2785 103.009 50.2642C103.166 50.25 103.304 50.1802 103.425 50.0547C103.548 49.9316 103.66 49.7316 103.762 49.4546L103.919 49.0285L101.901 43.5455H102.811L104.316 47.8921H104.373L105.879 43.5455H106.788L104.472 49.7955C104.368 50.0772 104.239 50.3104 104.085 50.4951C103.932 50.6821 103.753 50.8206 103.549 50.9106C103.348 51.0005 103.121 51.0455 102.867 51.0455ZM109.915 49.1137C109.403 49.1137 108.963 48.9929 108.594 48.7515C108.224 48.51 107.94 48.1774 107.741 47.7536C107.542 47.3298 107.443 46.8457 107.443 46.3012C107.443 45.7472 107.545 45.2583 107.748 44.8346C107.954 44.4084 108.241 44.0758 108.608 43.8367C108.977 43.5952 109.408 43.4745 109.9 43.4745C110.284 43.4745 110.63 43.5455 110.937 43.6875C111.245 43.8296 111.497 44.0285 111.694 44.2841C111.89 44.5398 112.012 44.8381 112.059 45.179H111.221C111.157 44.9304 111.015 44.7103 110.795 44.5185C110.577 44.3244 110.284 44.2273 109.915 44.2273C109.588 44.2273 109.301 44.3125 109.055 44.483C108.811 44.6511 108.621 44.889 108.483 45.1968C108.349 45.5022 108.281 45.8608 108.281 46.2728C108.281 46.6942 108.347 47.0611 108.48 47.3736C108.615 47.6861 108.804 47.9288 109.048 48.1016C109.294 48.2744 109.583 48.3608 109.915 48.3608C110.132 48.3608 110.33 48.323 110.508 48.2472C110.685 48.1714 110.836 48.0625 110.959 47.9205C111.082 47.7785 111.169 47.608 111.221 47.4091H112.059C112.012 47.7311 111.895 48.0211 111.708 48.2792C111.523 48.5348 111.278 48.7384 110.973 48.89C110.67 49.0391 110.317 49.1137 109.915 49.1137ZM114.123 45.7188V49H113.285V41.7273H114.123V44.3978H114.194C114.322 44.116 114.513 43.8923 114.769 43.7266C115.027 43.5585 115.37 43.4745 115.799 43.4745C116.171 43.4745 116.496 43.549 116.775 43.6982C117.055 43.845 117.271 44.0711 117.425 44.3765C117.581 44.6795 117.66 45.0654 117.66 45.5341V49H116.822V45.591C116.822 45.1577 116.709 44.8227 116.484 44.586C116.262 44.3469 115.953 44.2273 115.557 44.2273C115.283 44.2273 115.037 44.2853 114.819 44.4013C114.603 44.5173 114.433 44.6866 114.307 44.9091C114.184 45.1317 114.123 45.4016 114.123 45.7188ZM119.193 49V43.5455H120.002V44.3978H120.074C120.187 44.1066 120.371 43.8805 120.624 43.7195C120.877 43.5562 121.181 43.4745 121.537 43.4745C121.896 43.4745 122.196 43.5562 122.435 43.7195C122.676 43.8805 122.865 44.1066 123 44.3978H123.056C123.196 44.116 123.406 43.8923 123.685 43.7266C123.964 43.5585 124.299 43.4745 124.69 43.4745C125.178 43.4745 125.577 43.6272 125.887 43.9326C126.197 44.2356 126.352 44.7079 126.352 45.3495V49H125.514V45.3495C125.514 44.947 125.404 44.6594 125.184 44.4865C124.963 44.3137 124.704 44.2273 124.406 44.2273C124.022 44.2273 123.725 44.3433 123.515 44.5753C123.304 44.805 123.199 45.0962 123.199 45.4489V49H122.346V45.2642C122.346 44.9541 122.246 44.7044 122.044 44.515C121.843 44.3232 121.584 44.2273 121.267 44.2273C121.049 44.2273 120.845 44.2853 120.656 44.4013C120.469 44.5173 120.317 44.6783 120.201 44.8843C120.088 45.0879 120.031 45.3234 120.031 45.591V49H119.193ZM127.884 49V43.5455H128.722V49H127.884ZM128.31 42.6364C128.147 42.6364 128.006 42.5808 127.888 42.4695C127.772 42.3582 127.714 42.2245 127.714 42.0682C127.714 41.912 127.772 41.7782 127.888 41.6669C128.006 41.5557 128.147 41.5 128.31 41.5C128.474 41.5 128.613 41.5557 128.729 41.6669C128.848 41.7782 128.907 41.912 128.907 42.0682C128.907 42.2245 128.848 42.3582 128.729 42.4695C128.613 42.5808 128.474 42.6364 128.31 42.6364ZM131.862 49.1279C131.517 49.1279 131.203 49.0628 130.921 48.9326C130.64 48.8 130.416 48.6094 130.25 48.3608C130.084 48.1099 130.002 47.8069 130.002 47.4517C130.002 47.1392 130.063 46.8859 130.186 46.6918C130.309 46.4953 130.474 46.3414 130.68 46.2302C130.886 46.1189 131.113 46.036 131.362 45.9816C131.613 45.9248 131.865 45.8798 132.118 45.8466C132.45 45.804 132.718 45.7721 132.924 45.7508C133.133 45.7271 133.284 45.688 133.379 45.6336C133.476 45.5791 133.524 45.4844 133.524 45.3495V45.3211C133.524 44.9707 133.428 44.6984 133.237 44.5043C133.047 44.3102 132.76 44.2131 132.374 44.2131C131.974 44.2131 131.66 44.3007 131.433 44.4759C131.205 44.6511 131.046 44.8381 130.953 45.037L130.158 44.7529C130.3 44.4214 130.489 44.1634 130.726 43.9787C130.965 43.7917 131.226 43.6615 131.507 43.5881C131.791 43.5124 132.071 43.4745 132.345 43.4745C132.521 43.4745 132.722 43.4958 132.949 43.5384C133.179 43.5786 133.4 43.6627 133.613 43.7905C133.829 43.9184 134.007 44.1113 134.149 44.3694C134.291 44.6274 134.362 44.9731 134.362 45.4063V49H133.524V48.2614H133.482C133.425 48.3798 133.33 48.5064 133.198 48.6414C133.065 48.7763 132.889 48.8911 132.669 48.9858C132.448 49.0805 132.18 49.1279 131.862 49.1279ZM131.99 48.375C132.322 48.375 132.601 48.3099 132.828 48.1797C133.058 48.0495 133.231 47.8814 133.347 47.6755C133.465 47.4695 133.524 47.2529 133.524 47.0256V46.2586C133.489 46.3012 133.411 46.3402 133.29 46.3758C133.172 46.4089 133.034 46.4385 132.878 46.4645C132.724 46.4882 132.574 46.5095 132.427 46.5285C132.283 46.545 132.165 46.5592 132.075 46.5711C131.858 46.5995 131.654 46.6456 131.465 46.7096C131.278 46.7711 131.126 46.8646 131.01 46.9901C130.896 47.1132 130.84 47.2813 130.84 47.4944C130.84 47.7856 130.947 48.0057 131.163 48.1549C131.381 48.3017 131.656 48.375 131.99 48.375ZM139.756 44.7671L139.003 44.9802C138.955 44.8547 138.886 44.7328 138.793 44.6144C138.703 44.4937 138.58 44.3942 138.424 44.3161C138.268 44.238 138.068 44.1989 137.824 44.1989C137.49 44.1989 137.212 44.2758 136.989 44.4297C136.769 44.5812 136.659 44.7742 136.659 45.0086C136.659 45.2169 136.735 45.3814 136.886 45.5022C137.038 45.6229 137.275 45.7235 137.597 45.804L138.406 46.0029C138.894 46.1213 139.257 46.3024 139.496 46.5462C139.736 46.7877 139.855 47.099 139.855 47.4802C139.855 47.7927 139.765 48.072 139.585 48.3182C139.408 48.5644 139.159 48.7586 138.839 48.9006C138.52 49.0427 138.148 49.1137 137.724 49.1137C137.168 49.1137 136.708 48.9929 136.343 48.7515C135.978 48.51 135.748 48.1572 135.651 47.6932L136.446 47.4944C136.522 47.7879 136.665 48.0081 136.876 48.1549C137.089 48.3017 137.367 48.375 137.71 48.375C138.101 48.375 138.411 48.2922 138.641 48.1265C138.873 47.9584 138.989 47.7571 138.989 47.5228C138.989 47.3334 138.922 47.1748 138.79 47.0469C138.657 46.9167 138.454 46.8196 138.179 46.7557L137.27 46.5427C136.77 46.4243 136.403 46.2408 136.169 45.9922C135.937 45.7413 135.821 45.4276 135.821 45.0512C135.821 44.7434 135.907 44.4712 136.08 44.2344C136.255 43.9977 136.493 43.8118 136.794 43.6769C137.097 43.5419 137.44 43.4745 137.824 43.4745C138.364 43.4745 138.787 43.5928 139.095 43.8296C139.405 44.0663 139.625 44.3788 139.756 44.7671ZM143.489 43.5455V44.2557H140.662V43.5455H143.489ZM141.486 42.2387H142.324V47.4375C142.324 47.6743 142.358 47.8518 142.427 47.9702C142.498 48.0862 142.588 48.1643 142.697 48.2046C142.808 48.2425 142.925 48.2614 143.048 48.2614C143.141 48.2614 143.217 48.2567 143.276 48.2472C143.335 48.2354 143.382 48.2259 143.418 48.2188L143.588 48.9716C143.531 48.9929 143.452 49.0142 143.35 49.0356C143.249 49.0592 143.119 49.0711 142.963 49.0711C142.727 49.0711 142.494 49.0202 142.267 48.9184C142.042 48.8166 141.855 48.6615 141.706 48.4532C141.559 48.2448 141.486 47.982 141.486 47.6648V42.2387ZM149.622 49.1137C149.167 49.1137 148.766 48.9989 148.418 48.7692C148.07 48.5372 147.798 48.2105 147.601 47.7891C147.405 47.3653 147.306 46.8646 147.306 46.287C147.306 45.7141 147.405 45.2169 147.601 44.7955C147.798 44.3741 148.071 44.0486 148.421 43.8189C148.772 43.5893 149.177 43.4745 149.636 43.4745C149.991 43.4745 150.271 43.5337 150.477 43.652C150.686 43.768 150.844 43.9006 150.953 44.0498C151.065 44.1965 151.151 44.3173 151.213 44.412H151.284V41.7273H152.122V49H151.312V48.162H151.213C151.151 48.2614 151.063 48.3869 150.95 48.5384C150.836 48.6875 150.674 48.8213 150.463 48.9397C150.253 49.0557 149.972 49.1137 149.622 49.1137ZM149.735 48.3608C150.071 48.3608 150.356 48.2732 150.588 48.0981C150.82 47.9205 150.996 47.6755 151.117 47.363C151.237 47.0481 151.298 46.6847 151.298 46.2728C151.298 45.8656 151.239 45.5093 151.12 45.2039C151.002 44.8961 150.827 44.657 150.595 44.4865C150.363 44.3137 150.076 44.2273 149.735 44.2273C149.38 44.2273 149.084 44.3185 148.847 44.5008C148.613 44.6807 148.437 44.9257 148.318 45.2358C148.202 45.5436 148.144 45.8892 148.144 46.2728C148.144 46.661 148.204 47.0138 148.322 47.331C148.443 47.6459 148.62 47.8968 148.855 48.0838C149.091 48.2685 149.385 48.3608 149.735 48.3608ZM155.989 49.1137C155.496 49.1137 155.064 48.9965 154.693 48.7621C154.323 48.5277 154.035 48.1999 153.826 47.7785C153.62 47.357 153.517 46.8646 153.517 46.3012C153.517 45.733 153.62 45.237 153.826 44.8133C154.035 44.3895 154.323 44.0604 154.693 43.826C155.064 43.5917 155.496 43.4745 155.989 43.4745C156.481 43.4745 156.912 43.5917 157.281 43.826C157.653 44.0604 157.942 44.3895 158.148 44.8133C158.356 45.237 158.46 45.733 158.46 46.3012C158.46 46.8646 158.356 47.357 158.148 47.7785C157.942 48.1999 157.653 48.5277 157.281 48.7621C156.912 48.9965 156.481 49.1137 155.989 49.1137ZM155.989 48.3608C156.363 48.3608 156.671 48.265 156.912 48.0732C157.154 47.8814 157.332 47.6293 157.448 47.3168C157.564 47.0043 157.622 46.6658 157.622 46.3012C157.622 45.9366 157.564 45.5969 157.448 45.282C157.332 44.9671 157.154 44.7126 156.912 44.5185C156.671 44.3244 156.363 44.2273 155.989 44.2273C155.615 44.2273 155.307 44.3244 155.066 44.5185C154.824 44.7126 154.645 44.9671 154.529 45.282C154.413 45.5969 154.355 45.9366 154.355 46.3012C154.355 46.6658 154.413 47.0043 154.529 47.3168C154.645 47.6293 154.824 47.8814 155.066 48.0732C155.307 48.265 155.615 48.3608 155.989 48.3608ZM164.612 49.1137C164.157 49.1137 163.756 48.9989 163.408 48.7692C163.06 48.5372 162.788 48.2105 162.591 47.7891C162.395 47.3653 162.297 46.8646 162.297 46.287C162.297 45.7141 162.395 45.2169 162.591 44.7955C162.788 44.3741 163.061 44.0486 163.412 43.8189C163.762 43.5893 164.167 43.4745 164.626 43.4745C164.981 43.4745 165.262 43.5337 165.468 43.652C165.676 43.768 165.835 43.9006 165.944 44.0498C166.055 44.1965 166.141 44.3173 166.203 44.412H166.274V41.7273H167.112V49H166.302V48.162H166.203C166.141 48.2614 166.054 48.3869 165.94 48.5384C165.826 48.6875 165.664 48.8213 165.453 48.9397C165.243 49.0557 164.962 49.1137 164.612 49.1137ZM164.725 48.3608C165.062 48.3608 165.346 48.2732 165.578 48.0981C165.81 47.9205 165.986 47.6755 166.107 47.363C166.228 47.0481 166.288 46.6847 166.288 46.2728C166.288 45.8656 166.229 45.5093 166.11 45.2039C165.992 44.8961 165.817 44.657 165.585 44.4865C165.353 44.3137 165.066 44.2273 164.725 44.2273C164.37 44.2273 164.074 44.3185 163.838 44.5008C163.603 44.6807 163.427 44.9257 163.309 45.2358C163.193 45.5436 163.135 45.8892 163.135 46.2728C163.135 46.661 163.194 47.0138 163.312 47.331C163.433 47.6459 163.61 47.8968 163.845 48.0838C164.082 48.2685 164.375 48.3608 164.725 48.3608ZM170.979 49.1137C170.487 49.1137 170.055 48.9965 169.683 48.7621C169.314 48.5277 169.025 48.1999 168.816 47.7785C168.61 47.357 168.507 46.8646 168.507 46.3012C168.507 45.733 168.61 45.237 168.816 44.8133C169.025 44.3895 169.314 44.0604 169.683 43.826C170.055 43.5917 170.487 43.4745 170.979 43.4745C171.471 43.4745 171.902 43.5917 172.272 43.826C172.643 44.0604 172.932 44.3895 173.138 44.8133C173.346 45.237 173.451 45.733 173.451 46.3012C173.451 46.8646 173.346 47.357 173.138 47.7785C172.932 48.1999 172.643 48.5277 172.272 48.7621C171.902 48.9965 171.471 49.1137 170.979 49.1137ZM170.979 48.3608C171.353 48.3608 171.661 48.265 171.902 48.0732C172.144 47.8814 172.323 47.6293 172.439 47.3168C172.555 47.0043 172.613 46.6658 172.613 46.3012C172.613 45.9366 172.555 45.5969 172.439 45.282C172.323 44.9671 172.144 44.7126 171.902 44.5185C171.661 44.3244 171.353 44.2273 170.979 44.2273C170.605 44.2273 170.297 44.3244 170.056 44.5185C169.814 44.7126 169.636 44.9671 169.52 45.282C169.404 45.5969 169.346 45.9366 169.346 46.3012C169.346 46.6658 169.404 47.0043 169.52 47.3168C169.636 47.6293 169.814 47.8814 170.056 48.0732C170.297 48.265 170.605 48.3608 170.979 48.3608ZM176.79 49.1137C176.335 49.1137 175.934 48.9989 175.586 48.7692C175.238 48.5372 174.965 48.2105 174.769 47.7891C174.573 47.3653 174.474 46.8646 174.474 46.287C174.474 45.7141 174.573 45.2169 174.769 44.7955C174.965 44.3741 175.239 44.0486 175.589 43.8189C175.94 43.5893 176.345 43.4745 176.804 43.4745C177.159 43.4745 177.439 43.5337 177.645 43.652C177.854 43.768 178.012 43.9006 178.121 44.0498C178.233 44.1965 178.319 44.3173 178.381 44.412H178.452V41.7273H179.29V49H178.48V48.162H178.381C178.319 48.2614 178.231 48.3869 178.118 48.5384C178.004 48.6875 177.842 48.8213 177.631 48.9397C177.421 49.0557 177.14 49.1137 176.79 49.1137ZM176.903 48.3608C177.239 48.3608 177.523 48.2732 177.756 48.0981C177.988 47.9205 178.164 47.6755 178.285 47.363C178.405 47.0481 178.466 46.6847 178.466 46.2728C178.466 45.8656 178.407 45.5093 178.288 45.2039C178.17 44.8961 177.995 44.657 177.763 44.4865C177.531 44.3137 177.244 44.2273 176.903 44.2273C176.548 44.2273 176.252 44.3185 176.015 44.5008C175.781 44.6807 175.605 44.9257 175.486 45.2358C175.37 45.5436 175.312 45.8892 175.312 46.2728C175.312 46.661 175.372 47.0138 175.49 47.331C175.611 47.6459 175.788 47.8968 176.023 48.0838C176.259 48.2685 176.553 48.3608 176.903 48.3608ZM182.546 49.1279C182.2 49.1279 181.887 49.0628 181.605 48.9326C181.323 48.8 181.099 48.6094 180.934 48.3608C180.768 48.1099 180.685 47.8069 180.685 47.4517C180.685 47.1392 180.747 46.8859 180.87 46.6918C180.993 46.4953 181.157 46.3414 181.363 46.2302C181.569 46.1189 181.797 46.036 182.045 45.9816C182.296 45.9248 182.548 45.8798 182.802 45.8466C183.133 45.804 183.402 45.7721 183.608 45.7508C183.816 45.7271 183.968 45.688 184.062 45.6336C184.159 45.5791 184.208 45.4844 184.208 45.3495V45.3211C184.208 44.9707 184.112 44.6984 183.92 44.5043C183.731 44.3102 183.443 44.2131 183.057 44.2131C182.657 44.2131 182.344 44.3007 182.116 44.4759C181.889 44.6511 181.729 44.8381 181.637 45.037L180.841 44.7529C180.983 44.4214 181.173 44.1634 181.41 43.9787C181.649 43.7917 181.909 43.6615 182.191 43.5881C182.475 43.5124 182.754 43.4745 183.029 43.4745C183.204 43.4745 183.405 43.4958 183.633 43.5384C183.862 43.5786 184.084 43.6627 184.297 43.7905C184.512 43.9184 184.691 44.1113 184.833 44.3694C184.975 44.6274 185.046 44.9731 185.046 45.4063V49H184.208V48.2614H184.165C184.108 48.3798 184.014 48.5064 183.881 48.6414C183.749 48.7763 183.572 48.8911 183.352 48.9858C183.132 49.0805 182.863 49.1279 182.546 49.1279ZM182.674 48.375C183.005 48.375 183.285 48.3099 183.512 48.1797C183.742 48.0495 183.914 47.8814 184.03 47.6755C184.149 47.4695 184.208 47.2529 184.208 47.0256V46.2586C184.172 46.3012 184.094 46.3402 183.974 46.3758C183.855 46.4089 183.718 46.4385 183.562 46.4645C183.408 46.4882 183.257 46.5095 183.111 46.5285C182.966 46.545 182.849 46.5592 182.759 46.5711C182.541 46.5995 182.338 46.6456 182.148 46.7096C181.961 46.7711 181.81 46.8646 181.694 46.9901C181.58 47.1132 181.523 47.2813 181.523 47.4944C181.523 47.7856 181.631 48.0057 181.846 48.1549C182.064 48.3017 182.34 48.375 182.674 48.375ZM187.811 49L186.15 43.5455H187.03L188.209 47.7216H188.266L189.431 43.5455H190.326L191.476 47.7074H191.533L192.712 43.5455H193.593L191.931 49H191.107L189.914 44.8097H189.828L188.635 49H187.811ZM196.306 49.1279C195.96 49.1279 195.646 49.0628 195.365 48.9326C195.083 48.8 194.859 48.6094 194.694 48.3608C194.528 48.1099 194.445 47.8069 194.445 47.4517C194.445 47.1392 194.507 46.8859 194.63 46.6918C194.753 46.4953 194.917 46.3414 195.123 46.2302C195.329 46.1189 195.556 46.036 195.805 45.9816C196.056 45.9248 196.308 45.8798 196.561 45.8466C196.893 45.804 197.162 45.7721 197.368 45.7508C197.576 45.7271 197.727 45.688 197.822 45.6336C197.919 45.5791 197.968 45.4844 197.968 45.3495V45.3211C197.968 44.9707 197.872 44.6984 197.68 44.5043C197.491 44.3102 197.203 44.2131 196.817 44.2131C196.417 44.2131 196.103 44.3007 195.876 44.4759C195.649 44.6511 195.489 44.8381 195.397 45.037L194.601 44.7529C194.743 44.4214 194.933 44.1634 195.169 43.9787C195.408 43.7917 195.669 43.6615 195.951 43.5881C196.235 43.5124 196.514 43.4745 196.789 43.4745C196.964 43.4745 197.165 43.4958 197.392 43.5384C197.622 43.5786 197.843 43.6627 198.056 43.7905C198.272 43.9184 198.451 44.1113 198.593 44.3694C198.735 44.6274 198.806 44.9731 198.806 45.4063V49H197.968V48.2614H197.925C197.868 48.3798 197.774 48.5064 197.641 48.6414C197.508 48.7763 197.332 48.8911 197.112 48.9858C196.892 49.0805 196.623 49.1279 196.306 49.1279ZM196.434 48.375C196.765 48.375 197.044 48.3099 197.272 48.1797C197.501 48.0495 197.674 47.8814 197.79 47.6755C197.908 47.4695 197.968 47.2529 197.968 47.0256V46.2586C197.932 46.3012 197.854 46.3402 197.733 46.3758C197.615 46.4089 197.478 46.4385 197.321 46.4645C197.167 46.4882 197.017 46.5095 196.87 46.5285C196.726 46.545 196.609 46.5592 196.519 46.5711C196.301 46.5995 196.097 46.6456 195.908 46.7096C195.721 46.7711 195.569 46.8646 195.453 46.9901C195.34 47.1132 195.283 47.2813 195.283 47.4944C195.283 47.7856 195.391 48.0057 195.606 48.1549C195.824 48.3017 196.1 48.375 196.434 48.375ZM201.173 45.7188V49H200.335V43.5455H201.145V44.3978H201.216C201.344 44.1208 201.538 43.8982 201.798 43.7302C202.059 43.5597 202.395 43.4745 202.807 43.4745C203.176 43.4745 203.499 43.5502 203.776 43.7017C204.053 43.8509 204.269 44.0782 204.423 44.3836C204.577 44.6866 204.654 45.0701 204.654 45.5341V49H203.816V45.591C203.816 45.1624 203.704 44.8286 203.482 44.5895C203.259 44.3481 202.954 44.2273 202.566 44.2273C202.298 44.2273 202.059 44.2853 201.848 44.4013C201.64 44.5173 201.475 44.6866 201.355 44.9091C201.234 45.1317 201.173 45.4016 201.173 45.7188ZM206.185 49V43.5455H207.023V49H206.185ZM206.611 42.6364C206.448 42.6364 206.307 42.5808 206.189 42.4695C206.073 42.3582 206.015 42.2245 206.015 42.0682C206.015 41.912 206.073 41.7782 206.189 41.6669C206.307 41.5557 206.448 41.5 206.611 41.5C206.775 41.5 206.914 41.5557 207.03 41.6669C207.149 41.7782 207.208 41.912 207.208 42.0682C207.208 42.2245 207.149 42.3582 207.03 42.4695C206.914 42.5808 206.775 42.6364 206.611 42.6364ZM210.163 49.1279C209.818 49.1279 209.504 49.0628 209.222 48.9326C208.94 48.8 208.717 48.6094 208.551 48.3608C208.385 48.1099 208.302 47.8069 208.302 47.4517C208.302 47.1392 208.364 46.8859 208.487 46.6918C208.61 46.4953 208.775 46.3414 208.981 46.2302C209.187 46.1189 209.414 46.036 209.662 45.9816C209.913 45.9248 210.166 45.8798 210.419 45.8466C210.75 45.804 211.019 45.7721 211.225 45.7508C211.433 45.7271 211.585 45.688 211.68 45.6336C211.777 45.5791 211.825 45.4844 211.825 45.3495V45.3211C211.825 44.9707 211.729 44.6984 211.537 44.5043C211.348 44.3102 211.06 44.2131 210.675 44.2131C210.274 44.2131 209.961 44.3007 209.733 44.4759C209.506 44.6511 209.346 44.8381 209.254 45.037L208.459 44.7529C208.601 44.4214 208.79 44.1634 209.027 43.9787C209.266 43.7917 209.526 43.6615 209.808 43.5881C210.092 43.5124 210.372 43.4745 210.646 43.4745C210.821 43.4745 211.023 43.4958 211.25 43.5384C211.479 43.5786 211.701 43.6627 211.914 43.7905C212.129 43.9184 212.308 44.1113 212.45 44.3694C212.592 44.6274 212.663 44.9731 212.663 45.4063V49H211.825V48.2614H211.782C211.726 48.3798 211.631 48.5064 211.498 48.6414C211.366 48.7763 211.189 48.8911 210.969 48.9858C210.749 49.0805 210.48 49.1279 210.163 49.1279ZM210.291 48.375C210.622 48.375 210.902 48.3099 211.129 48.1797C211.359 48.0495 211.532 47.8814 211.648 47.6755C211.766 47.4695 211.825 47.2529 211.825 47.0256V46.2586C211.79 46.3012 211.711 46.3402 211.591 46.3758C211.472 46.4089 211.335 46.4385 211.179 46.4645C211.025 46.4882 210.875 46.5095 210.728 46.5285C210.583 46.545 210.466 46.5592 210.376 46.5711C210.158 46.5995 209.955 46.6456 209.765 46.7096C209.578 46.7711 209.427 46.8646 209.311 46.9901C209.197 47.1132 209.14 47.2813 209.14 47.4944C209.14 47.7856 209.248 48.0057 209.464 48.1549C209.681 48.3017 209.957 48.375 210.291 48.375ZM217.843 41.7273V49H217.005V41.7273H217.843ZM221.594 49.1137C221.102 49.1137 220.67 48.9965 220.298 48.7621C219.929 48.5277 219.64 48.1999 219.432 47.7785C219.226 47.357 219.123 46.8646 219.123 46.3012C219.123 45.733 219.226 45.237 219.432 44.8133C219.64 44.3895 219.929 44.0604 220.298 43.826C220.67 43.5917 221.102 43.4745 221.594 43.4745C222.087 43.4745 222.518 43.5917 222.887 43.826C223.259 44.0604 223.547 44.3895 223.753 44.8133C223.962 45.237 224.066 45.733 224.066 46.3012C224.066 46.8646 223.962 47.357 223.753 47.7785C223.547 48.1999 223.259 48.5277 222.887 48.7621C222.518 48.9965 222.087 49.1137 221.594 49.1137ZM221.594 48.3608C221.968 48.3608 222.276 48.265 222.518 48.0732C222.759 47.8814 222.938 47.6293 223.054 47.3168C223.17 47.0043 223.228 46.6658 223.228 46.3012C223.228 45.9366 223.17 45.5969 223.054 45.282C222.938 44.9671 222.759 44.7126 222.518 44.5185C222.276 44.3244 221.968 44.2273 221.594 44.2273C221.22 44.2273 220.912 44.3244 220.671 44.5185C220.43 44.7126 220.251 44.9671 220.135 45.282C220.019 45.5969 219.961 45.9366 219.961 46.3012C219.961 46.6658 220.019 47.0043 220.135 47.3168C220.251 47.6293 220.43 47.8814 220.671 48.0732C220.912 48.265 221.22 48.3608 221.594 48.3608ZM226.126 47.0114L226.112 45.9745H226.283L228.669 43.5455H229.706L227.163 46.1165H227.092L226.126 47.0114ZM225.345 49V41.7273H226.183V49H225.345ZM228.811 49L226.68 46.3012L227.277 45.7188L229.876 49H228.811ZM232.39 49.1279C232.044 49.1279 231.73 49.0628 231.449 48.9326C231.167 48.8 230.943 48.6094 230.778 48.3608C230.612 48.1099 230.529 47.8069 230.529 47.4517C230.529 47.1392 230.59 46.8859 230.714 46.6918C230.837 46.4953 231.001 46.3414 231.207 46.2302C231.413 46.1189 231.64 46.036 231.889 45.9816C232.14 45.9248 232.392 45.8798 232.645 45.8466C232.977 45.804 233.246 45.7721 233.452 45.7508C233.66 45.7271 233.811 45.688 233.906 45.6336C234.003 45.5791 234.052 45.4844 234.052 45.3495V45.3211C234.052 44.9707 233.956 44.6984 233.764 44.5043C233.575 44.3102 233.287 44.2131 232.901 44.2131C232.501 44.2131 232.187 44.3007 231.96 44.4759C231.733 44.6511 231.573 44.8381 231.481 45.037L230.685 44.7529C230.827 44.4214 231.017 44.1634 231.253 43.9787C231.492 43.7917 231.753 43.6615 232.035 43.5881C232.319 43.5124 232.598 43.4745 232.873 43.4745C233.048 43.4745 233.249 43.4958 233.476 43.5384C233.706 43.5786 233.927 43.6627 234.14 43.7905C234.356 43.9184 234.535 44.1113 234.677 44.3694C234.819 44.6274 234.89 44.9731 234.89 45.4063V49H234.052V48.2614H234.009C233.952 48.3798 233.858 48.5064 233.725 48.6414C233.592 48.7763 233.416 48.8911 233.196 48.9858C232.976 49.0805 232.707 49.1279 232.39 49.1279ZM232.518 48.375C232.849 48.375 233.128 48.3099 233.356 48.1797C233.585 48.0495 233.758 47.8814 233.874 47.6755C233.992 47.4695 234.052 47.2529 234.052 47.0256V46.2586C234.016 46.3012 233.938 46.3402 233.817 46.3758C233.699 46.4089 233.562 46.4385 233.405 46.4645C233.251 46.4882 233.101 46.5095 232.954 46.5285C232.81 46.545 232.693 46.5592 232.603 46.5711C232.385 46.5995 232.181 46.6456 231.992 46.7096C231.805 46.7711 231.653 46.8646 231.537 46.9901C231.424 47.1132 231.367 47.2813 231.367 47.4944C231.367 47.7856 231.475 48.0057 231.69 48.1549C231.908 48.3017 232.184 48.375 232.518 48.375ZM237.257 41.7273V49H236.419V41.7273H237.257ZM238.792 49V43.5455H239.631V49H238.792ZM239.219 42.6364C239.055 42.6364 238.914 42.5808 238.796 42.4695C238.68 42.3582 238.622 42.2245 238.622 42.0682C238.622 41.912 238.68 41.7782 238.796 41.6669C238.914 41.5557 239.055 41.5 239.219 41.5C239.382 41.5 239.522 41.5557 239.638 41.6669C239.756 41.7782 239.815 41.912 239.815 42.0682C239.815 42.2245 239.756 42.3582 239.638 42.4695C239.522 42.5808 239.382 42.6364 239.219 42.6364Z" fill="white"/>
<defs>
<linearGradient id="paint0_linear_6585_24968" x1="265.002" y1="30.5722" x2="-0.0017056" y2="30.5573" gradientUnits="userSpaceOnUse">
<stop offset="0.0001" stop-color="#FE9A79"/>
<stop offset="0.5001" stop-color="#F8C07D"/>
<stop offset="1" stop-color="#FEE298"/>
</linearGradient>
<linearGradient id="paint1_linear_6585_24968" x1="11.9999" y1="29.9846" x2="30.0005" y2="29.9849" gradientUnits="userSpaceOnUse">
<stop offset="0.0001" stop-color="#FE9A79"/>
<stop offset="0.5001" stop-color="#F8C07D"/>
<stop offset="1" stop-color="#FEE298"/>
</linearGradient>
<clipPath id="clip0_6585_24968">
<rect width="18" height="19" fill="white" transform="translate(12 21)"/>
</clipPath>
</defs>
</svg>
