<svg width="199" height="48" viewBox="0 0 199 48" fill="none" xmlns="http://www.w3.org/2000/svg">
<mask id="path-1-inside-1_6585_25519" fill="white">
<path d="M199 40C199 44.4183 195.418 48 191 48L8 48C3.58173 48 3.13124e-07 44.4183 6.99382e-07 40L3.49691e-06 8C3.88317e-06 3.58173 3.58173 3.13125e-07 8 6.99383e-07L191 1.66978e-05C195.418 1.7084e-05 199 3.58174 199 8.00002L199 40Z"/>
</mask>
<path d="M199 40C199 44.4183 195.418 48 191 48L8 48C3.58173 48 3.13124e-07 44.4183 6.99382e-07 40L3.49691e-06 8C3.88317e-06 3.58173 3.58173 3.13125e-07 8 6.99383e-07L191 1.66978e-05C195.418 1.7084e-05 199 3.58174 199 8.00002L199 40Z" fill="#F0642E"/>
<path d="M199 48L0 48L199 48ZM3.49691e-06 8C3.93145e-06 3.02944 4.02944 -1 9 -0.999999L191 -0.999983C195.971 -0.999983 200 3.02946 200 8.00002L198 8.00002C198 4.13402 194.866 1.00002 191 1.00002L8 1C3.58173 1 3.83489e-06 4.13401 3.49691e-06 8ZM191 -0.999983C195.971 -0.999983 200 3.02946 200 8.00002L200 39C200 43.9706 195.971 48 191 48C194.866 48 198 44.4183 198 40L198 8.00002C198 4.13402 194.866 1.00002 191 1.00002L191 -0.999983ZM0 48L4.19629e-06 0L0 48Z" fill="url(#paint0_linear_6585_25519)" mask="url(#path-1-inside-1_6585_25519)"/>
<g clip-path="url(#clip0_6585_25519)">
<path d="M20.7535 32.2011C19.7206 28.5765 15.9442 24.8143 12.3059 23.7853C11.898 23.6542 11.898 23.3658 12.3059 23.2282C15.9507 22.1926 19.7206 18.4369 20.76 14.8058C20.8719 14.4059 21.1416 14.4059 21.2535 14.8058C22.2864 18.4369 26.0628 22.1926 29.6945 23.2282C30.1024 23.3592 30.1024 23.6542 29.6945 23.7853C26.0562 24.8143 22.2798 28.5765 21.2469 32.2011C21.1351 32.6075 20.8653 32.6075 20.7535 32.2011Z" fill="url(#paint1_linear_6585_25519)"/>
</g>
<path d="M48.564 21H42.432V19.908L47.088 13.404H42.504V12.324H48.552V13.38L43.86 19.908H48.564V21ZM51.575 21.144C50.315 21.144 49.571 20.436 49.571 19.368C49.571 18.288 50.375 17.616 51.755 17.508L53.603 17.364V17.196C53.603 16.212 53.015 15.864 52.223 15.864C51.275 15.864 50.735 16.284 50.735 16.992H49.751C49.751 15.768 50.759 14.964 52.271 14.964C53.723 14.964 54.707 15.732 54.707 17.316V21H53.747L53.627 20.052C53.327 20.724 52.523 21.144 51.575 21.144ZM51.899 20.268C52.967 20.268 53.615 19.572 53.615 18.468V18.156L52.115 18.276C51.119 18.372 50.711 18.756 50.711 19.332C50.711 19.956 51.167 20.268 51.899 20.268ZM59.6291 15.084V16.116H59.1251C58.0571 16.116 57.3971 16.764 57.3971 17.892V21H56.2691V15.144H57.3251L57.3971 16.032C57.6371 15.42 58.2251 15.012 59.0291 15.012C59.2331 15.012 59.4011 15.036 59.6291 15.084ZM65.0514 21H60.4794V20.088L63.6474 16.08H60.4794V15.132H65.0514V16.056L61.8594 20.052H65.0514V21ZM68.0398 21.144C66.7798 21.144 66.0358 20.436 66.0358 19.368C66.0358 18.288 66.8398 17.616 68.2198 17.508L70.0678 17.364V17.196C70.0678 16.212 69.4798 15.864 68.6878 15.864C67.7398 15.864 67.1998 16.284 67.1998 16.992H66.2158C66.2158 15.768 67.2238 14.964 68.7358 14.964C70.1878 14.964 71.1718 15.732 71.1718 17.316V21C70.6438 21.204 70.4038 21.552 70.4038 21.84C70.4038 22.104 70.5838 22.248 70.8478 22.248C70.9318 22.248 71.0278 22.236 71.1358 22.188V22.992C70.9798 23.052 70.8118 23.076 70.6198 23.076C69.9958 23.076 69.5998 22.656 69.5998 22.104C69.5998 21.672 69.8758 21.24 70.4398 21H70.2118L70.0918 20.052C69.7918 20.724 68.9878 21.144 68.0398 21.144ZM68.3638 20.268C69.4318 20.268 70.0798 19.572 70.0798 18.468V18.156L68.5798 18.276C67.5838 18.372 67.1758 18.756 67.1758 19.332C67.1758 19.956 67.6318 20.268 68.3638 20.268ZM75.086 21.144C73.382 21.144 72.35 19.872 72.35 18.084C72.35 16.284 73.394 14.964 75.134 14.964C76.034 14.964 76.79 15.36 77.186 16.08V12.168H78.302V21H77.294L77.198 19.932C76.814 20.736 76.022 21.144 75.086 21.144ZM75.314 20.124C76.466 20.124 77.174 19.272 77.174 18.048C77.174 16.848 76.466 15.984 75.314 15.984C74.162 15.984 73.49 16.848 73.49 18.048C73.49 19.26 74.162 20.124 75.314 20.124ZM84.1413 21H79.5693V20.088L82.7373 16.08H79.5693V15.132H84.1413V16.056L80.9493 20.052H84.1413V21ZM87.1297 21.144C85.8697 21.144 85.1257 20.436 85.1257 19.368C85.1257 18.288 85.9297 17.616 87.3097 17.508L89.1577 17.364V17.196C89.1577 16.212 88.5697 15.864 87.7777 15.864C86.8297 15.864 86.2897 16.284 86.2897 16.992H85.3057C85.3057 15.768 86.3137 14.964 87.8257 14.964C89.2777 14.964 90.2617 15.732 90.2617 17.316V21H89.3017L89.1817 20.052C88.8817 20.724 88.0777 21.144 87.1297 21.144ZM87.4537 20.268C88.5217 20.268 89.1697 19.572 89.1697 18.468V18.156L87.6697 18.276C86.6737 18.372 86.2657 18.756 86.2657 19.332C86.2657 19.956 86.7217 20.268 87.4537 20.268ZM92.3878 13.74C91.9678 13.74 91.6438 13.404 91.6438 12.996C91.6438 12.576 91.9678 12.252 92.3878 12.252C92.7838 12.252 93.1318 12.576 93.1318 12.996C93.1318 13.404 92.7838 13.74 92.3878 13.74ZM90.3358 23.664L90.5278 22.644C90.7558 22.704 90.8878 22.728 91.0678 22.728C91.6078 22.728 91.8238 22.416 91.8238 21.756V15.132H92.9518V21.864C92.9518 23.04 92.3038 23.772 91.1638 23.772C90.8638 23.772 90.6718 23.76 90.3358 23.664ZM100.931 21H98.0627V12.324H100.883C103.475 12.324 105.227 14.076 105.227 16.668C105.227 19.248 103.499 21 100.931 21ZM100.799 13.404H99.2387V19.908H100.847C102.779 19.908 104.003 18.66 104.003 16.668C104.003 14.652 102.779 13.404 100.799 13.404ZM109.063 21.144C107.335 21.144 106.147 19.896 106.147 18.072C106.147 16.236 107.311 14.964 109.015 14.964C110.683 14.964 111.775 16.116 111.775 17.856V18.276L107.239 18.288C107.323 19.524 107.971 20.208 109.087 20.208C109.963 20.208 110.539 19.848 110.731 19.176H111.787C111.499 20.436 110.515 21.144 109.063 21.144ZM109.015 15.912C108.031 15.912 107.407 16.5 107.263 17.532H110.647C110.647 16.56 110.011 15.912 109.015 15.912ZM114.096 21L112.176 15.132H113.34L114.312 18.18C114.444 18.612 114.564 19.056 114.672 19.572C114.768 19.056 114.924 18.564 115.056 18.18L116.04 15.132H117.192L118.164 18.18C118.26 18.468 118.452 19.152 118.548 19.572C118.644 19.104 118.752 18.696 118.92 18.18L119.904 15.132H121.08L119.076 21H118.008L116.988 17.856C116.796 17.268 116.676 16.812 116.616 16.488C116.556 16.776 116.448 17.16 116.232 17.868L115.212 21H114.096ZM124.309 21.144C122.581 21.144 121.393 19.896 121.393 18.072C121.393 16.236 122.557 14.964 124.261 14.964C125.929 14.964 127.021 16.116 127.021 17.856V18.276L122.485 18.288C122.569 19.524 123.217 20.208 124.333 20.208C125.209 20.208 125.785 19.848 125.977 19.176H127.033C126.745 20.436 125.761 21.144 124.309 21.144ZM124.261 15.912C123.277 15.912 122.653 16.5 122.509 17.532H125.893C125.893 16.56 125.257 15.912 124.261 15.912ZM129.433 21H128.305V12.168H129.433V21ZM130.709 18.06C130.709 16.248 132.005 14.976 133.769 14.976C135.521 14.976 136.817 16.248 136.817 18.06C136.817 19.872 135.521 21.144 133.769 21.144C132.005 21.144 130.709 19.872 130.709 18.06ZM131.849 18.06C131.849 19.284 132.629 20.136 133.769 20.136C134.897 20.136 135.689 19.284 135.689 18.06C135.689 16.836 134.897 15.984 133.769 15.984C132.629 15.984 131.849 16.836 131.849 18.06ZM138.066 23.628V15.132H139.086L139.17 16.188C139.566 15.384 140.358 14.964 141.294 14.964C142.974 14.964 144.018 16.224 144.018 18.024C144.018 19.812 143.034 21.156 141.294 21.156C140.358 21.156 139.578 20.76 139.194 20.04V23.628H138.066ZM139.206 18.072C139.206 19.272 139.902 20.136 141.054 20.136C142.206 20.136 142.89 19.272 142.89 18.072C142.89 16.86 142.206 15.996 141.054 15.996C139.902 15.996 139.206 16.848 139.206 18.072ZM147.793 21.144C146.065 21.144 144.877 19.896 144.877 18.072C144.877 16.236 146.041 14.964 147.745 14.964C149.413 14.964 150.505 16.116 150.505 17.856V18.276L145.969 18.288C146.053 19.524 146.701 20.208 147.817 20.208C148.693 20.208 149.269 19.848 149.461 19.176H150.517C150.229 20.436 149.245 21.144 147.793 21.144ZM147.745 15.912C146.761 15.912 146.137 16.5 145.993 17.532H149.377C149.377 16.56 148.741 15.912 147.745 15.912ZM155.125 15.084V16.116H154.621C153.553 16.116 152.893 16.764 152.893 17.892V21H151.765V15.144H152.821L152.893 16.032C153.133 15.42 153.721 15.012 154.525 15.012C154.729 15.012 154.897 15.036 155.125 15.084ZM157.665 21.144C156.405 21.144 155.661 20.436 155.661 19.368C155.661 18.288 156.465 17.616 157.845 17.508L159.693 17.364V17.196C159.693 16.212 159.105 15.864 158.313 15.864C157.365 15.864 156.825 16.284 156.825 16.992H155.841C155.841 15.768 156.849 14.964 158.361 14.964C159.813 14.964 160.797 15.732 160.797 17.316V21H159.837L159.717 20.052C159.417 20.724 158.613 21.144 157.665 21.144ZM157.989 20.268C159.057 20.268 159.705 19.572 159.705 18.468V18.156L158.205 18.276C157.209 18.372 156.801 18.756 156.801 19.332C156.801 19.956 157.257 20.268 157.989 20.268ZM163.487 21H162.359V15.132H163.367L163.475 15.9C163.775 15.348 164.399 14.964 165.227 14.964C166.139 14.964 166.787 15.42 167.087 16.152C167.363 15.42 168.071 14.964 168.983 14.964C170.327 14.964 171.143 15.804 171.143 17.16V21H170.039V17.436C170.039 16.512 169.523 15.984 168.731 15.984C167.879 15.984 167.315 16.584 167.315 17.52V21H166.199V17.424C166.199 16.5 165.695 15.996 164.903 15.996C164.051 15.996 163.487 16.584 163.487 17.52V21ZM173.259 13.74C172.851 13.74 172.515 13.404 172.515 12.996C172.515 12.576 172.851 12.252 173.259 12.252C173.667 12.252 174.003 12.576 174.003 12.996C174.003 13.404 173.667 13.74 173.259 13.74ZM172.707 21V15.132H173.835V21H172.707Z" fill="white"/>
<path d="M46.858 30.5455C46.8153 30.1856 46.6425 29.9063 46.3395 29.7074C46.0365 29.5086 45.6648 29.4091 45.2244 29.4091C44.9025 29.4091 44.6207 29.4612 44.3793 29.5654C44.1402 29.6695 43.9531 29.8128 43.8182 29.9951C43.6856 30.1774 43.6193 30.3845 43.6193 30.6165C43.6193 30.8106 43.6655 30.9775 43.7578 31.1172C43.8525 31.2545 43.9732 31.3694 44.12 31.4617C44.2668 31.5516 44.4207 31.6262 44.5817 31.6854C44.7427 31.7422 44.8906 31.7884 45.0256 31.8239L45.7642 32.0228C45.9536 32.0725 46.1643 32.1411 46.3963 32.2287C46.6307 32.3163 46.8544 32.4359 47.0675 32.5874C47.2829 32.7365 47.4605 32.9283 47.6001 33.1627C47.7398 33.397 47.8097 33.6847 47.8097 34.0256C47.8097 34.4186 47.7067 34.7737 47.5007 35.0909C47.2971 35.4082 46.9988 35.6603 46.6058 35.8473C46.2152 36.0344 45.7405 36.1279 45.1818 36.1279C44.661 36.1279 44.21 36.0438 43.8288 35.8757C43.45 35.7077 43.1518 35.4733 42.9339 35.1726C42.7185 34.872 42.5966 34.5228 42.5682 34.125H43.4773C43.5009 34.3997 43.5933 34.6269 43.7543 34.8069C43.9176 34.9844 44.1236 35.117 44.3722 35.2046C44.6231 35.2898 44.893 35.3324 45.1818 35.3324C45.518 35.3324 45.8198 35.278 46.0874 35.1691C46.3549 35.0578 46.5668 34.9039 46.723 34.7074C46.8793 34.5086 46.9574 34.2765 46.9574 34.0114C46.9574 33.7699 46.8899 33.5734 46.755 33.4219C46.62 33.2704 46.4425 33.1473 46.2223 33.0526C46.0021 32.9579 45.7642 32.875 45.5085 32.804L44.6136 32.5483C44.0455 32.385 43.5956 32.1518 43.2642 31.8488C42.9328 31.5457 42.767 31.1492 42.767 30.6591C42.767 30.2519 42.8771 29.8968 43.0973 29.5938C43.3198 29.2884 43.6181 29.0516 43.9922 28.8836C44.3686 28.7131 44.7888 28.6279 45.2528 28.6279C45.7216 28.6279 46.1383 28.7119 46.5028 28.88C46.8674 29.0457 47.1563 29.273 47.3693 29.5618C47.5848 29.8506 47.6984 30.1785 47.7102 30.5455H46.858ZM48.9877 36V35.3608L52.0843 31.3836V31.3267H49.0872V30.5455H53.1639V31.2131L50.1525 35.162V35.2188H53.2633V36H48.9877ZM55.0939 38.0455C54.9519 38.0455 54.8252 38.0337 54.714 38.01C54.6027 37.9887 54.5257 37.9674 54.4831 37.9461L54.6962 37.2074C54.8998 37.2595 55.0797 37.2784 55.236 37.2642C55.3922 37.25 55.5307 37.1802 55.6515 37.0547C55.7746 36.9316 55.887 36.7316 55.9888 36.4546L56.1451 36.0284L54.128 30.5455H55.0371L56.5428 34.8921H56.5996L58.1053 30.5455H59.0144L56.699 36.7955C56.5949 37.0772 56.4658 37.3104 56.312 37.4951C56.1581 37.6821 55.9793 37.8206 55.7757 37.9105C55.5745 38.0005 55.3472 38.0455 55.0939 38.0455ZM60.2342 36V28.7273H61.0723V31.412H61.1433C61.2048 31.3173 61.2901 31.1965 61.399 31.0497C61.5102 30.9006 61.6689 30.768 61.8748 30.652C62.0832 30.5337 62.3649 30.4745 62.72 30.4745C63.1793 30.4745 63.5841 30.5893 63.9345 30.8189C64.2849 31.0486 64.5583 31.3741 64.7548 31.7955C64.9513 32.2169 65.0495 32.714 65.0495 33.287C65.0495 33.8646 64.9513 34.3653 64.7548 34.7891C64.5583 35.2105 64.286 35.5372 63.938 35.7692C63.59 35.9988 63.1887 36.1137 62.7342 36.1137C62.3838 36.1137 62.1033 36.0557 61.8926 35.9397C61.6819 35.8213 61.5197 35.6875 61.4061 35.5384C61.2924 35.3869 61.2048 35.2614 61.1433 35.162H61.0439V36H60.2342ZM61.0581 33.2728C61.0581 33.6847 61.1184 34.0481 61.2392 34.363C61.3599 34.6755 61.5363 34.9205 61.7683 35.098C62.0003 35.2732 62.2844 35.3608 62.6206 35.3608C62.9709 35.3608 63.2633 35.2685 63.4977 35.0838C63.7344 34.8968 63.912 34.6459 64.0304 34.331C64.1511 34.0138 64.2115 33.661 64.2115 33.2728C64.2115 32.8892 64.1523 32.5436 64.0339 32.2358C63.9179 31.9257 63.7415 31.6807 63.5048 31.5007C63.2704 31.3185 62.9757 31.2273 62.6206 31.2273C62.2797 31.2273 61.9932 31.3137 61.7612 31.4865C61.5292 31.657 61.354 31.8961 61.2356 32.2039C61.1172 32.5093 61.0581 32.8656 61.0581 33.2728ZM67.1127 34.0114L67.0985 32.9745H67.269L69.6554 30.5455H70.6923L68.1497 33.1165H68.0787L67.1127 34.0114ZM66.3315 36V28.7273H67.1696V36H66.3315ZM69.7974 36L67.6667 33.3012L68.2633 32.7188L70.8627 36H69.7974ZM71.771 36V30.5455H72.609V36H71.771ZM72.1971 29.6364C72.0337 29.6364 71.8929 29.5808 71.7745 29.4695C71.6585 29.3582 71.6005 29.2245 71.6005 29.0682C71.6005 28.912 71.6585 28.7782 71.7745 28.6669C71.8929 28.5557 72.0337 28.5 72.1971 28.5C72.3604 28.5 72.5001 28.5557 72.6161 28.6669C72.7345 28.7782 72.7937 28.912 72.7937 29.0682C72.7937 29.2245 72.7345 29.3582 72.6161 29.4695C72.5001 29.5808 72.3604 29.6364 72.1971 29.6364ZM76.4309 36.1137C75.9054 36.1137 75.452 35.9977 75.0708 35.7657C74.6921 35.5313 74.3997 35.2046 74.1937 34.7855C73.9901 34.3641 73.8883 33.8741 73.8883 33.3154C73.8883 32.7567 73.9901 32.2642 74.1937 31.8381C74.3997 31.4096 74.6861 31.0758 75.0531 30.8367C75.4224 30.5952 75.8533 30.4745 76.3457 30.4745C76.6298 30.4745 76.9103 30.5218 77.1873 30.6165C77.4643 30.7112 77.7164 30.8651 77.9437 31.0782C78.171 31.2889 78.3521 31.5682 78.487 31.9162C78.622 32.2642 78.6895 32.6927 78.6895 33.2017V33.5569H74.4849V32.8324H77.8372C77.8372 32.5247 77.7756 32.25 77.6525 32.0086C77.5318 31.7671 77.359 31.5765 77.1341 31.4368C76.9115 31.2971 76.6487 31.2273 76.3457 31.2273C76.0119 31.2273 75.7231 31.3102 75.4792 31.4759C75.2377 31.6392 75.0519 31.8523 74.9217 32.1151C74.7915 32.3779 74.7264 32.6596 74.7264 32.9603V33.4432C74.7264 33.8551 74.7974 34.2043 74.9395 34.4908C75.0839 34.7749 75.2839 34.9915 75.5396 35.1407C75.7953 35.2874 76.0924 35.3608 76.4309 35.3608C76.6511 35.3608 76.85 35.3301 77.0275 35.2685C77.2074 35.2046 77.3625 35.1099 77.4927 34.9844C77.6229 34.8566 77.7235 34.6979 77.7946 34.5086L78.6042 34.7358C78.519 35.0104 78.3758 35.2519 78.1745 35.4603C77.9733 35.6662 77.7247 35.8272 77.4288 35.9432C77.1329 36.0569 76.8002 36.1137 76.4309 36.1137ZM84.8365 36.1137C84.3819 36.1137 83.9806 35.9988 83.6326 35.7692C83.2846 35.5372 83.0124 35.2105 82.8159 34.7891C82.6194 34.3653 82.5211 33.8646 82.5211 33.287C82.5211 32.714 82.6194 32.2169 82.8159 31.7955C83.0124 31.3741 83.2858 31.0486 83.6362 30.8189C83.9866 30.5893 84.3914 30.4745 84.8507 30.4745C85.2058 30.4745 85.4863 30.5337 85.6923 30.652C85.9006 30.768 86.0592 30.9006 86.1681 31.0497C86.2794 31.1965 86.3658 31.3173 86.4274 31.412H86.4984V28.7273H87.3365V36H86.5268V35.162H86.4274C86.3658 35.2614 86.2782 35.3869 86.1646 35.5384C86.051 35.6875 85.8888 35.8213 85.6781 35.9397C85.4674 36.0557 85.1868 36.1137 84.8365 36.1137ZM84.9501 35.3608C85.2863 35.3608 85.5704 35.2732 85.8024 35.098C86.0344 34.9205 86.2108 34.6755 86.3315 34.363C86.4522 34.0481 86.5126 33.6847 86.5126 33.2728C86.5126 32.8656 86.4534 32.5093 86.335 32.2039C86.2167 31.8961 86.0415 31.657 85.8095 31.4865C85.5775 31.3137 85.291 31.2273 84.9501 31.2273C84.595 31.2273 84.2991 31.3185 84.0623 31.5007C83.8279 31.6807 83.6516 31.9257 83.5332 32.2358C83.4172 32.5436 83.3592 32.8892 83.3592 33.2728C83.3592 33.661 83.4184 34.0138 83.5368 34.331C83.6575 34.6459 83.835 34.8968 84.0694 35.0838C84.3062 35.2685 84.5997 35.3608 84.9501 35.3608ZM91.2037 36.1137C90.7112 36.1137 90.2792 35.9965 89.9075 35.7621C89.5382 35.5277 89.2493 35.1998 89.041 34.7784C88.835 34.357 88.7321 33.8646 88.7321 33.3012C88.7321 32.733 88.835 32.237 89.041 31.8132C89.2493 31.3895 89.5382 31.0604 89.9075 30.826C90.2792 30.5917 90.7112 30.4745 91.2037 30.4745C91.6961 30.4745 92.127 30.5917 92.4963 30.826C92.868 31.0604 93.1568 31.3895 93.3627 31.8132C93.5711 32.237 93.6752 32.733 93.6752 33.3012C93.6752 33.8646 93.5711 34.357 93.3627 34.7784C93.1568 35.1998 92.868 35.5277 92.4963 35.7621C92.127 35.9965 91.6961 36.1137 91.2037 36.1137ZM91.2037 35.3608C91.5777 35.3608 91.8855 35.2649 92.127 35.0732C92.3684 34.8814 92.5472 34.6293 92.6632 34.3168C92.7792 34.0043 92.8372 33.6658 92.8372 33.3012C92.8372 32.9366 92.7792 32.5969 92.6632 32.282C92.5472 31.9671 92.3684 31.7126 92.127 31.5185C91.8855 31.3244 91.5777 31.2273 91.2037 31.2273C90.8296 31.2273 90.5218 31.3244 90.2804 31.5185C90.0389 31.7126 89.8601 31.9671 89.7441 32.282C89.6281 32.5969 89.5701 32.9366 89.5701 33.3012C89.5701 33.6658 89.6281 34.0043 89.7441 34.3168C89.8601 34.6293 90.0389 34.8814 90.2804 35.0732C90.5218 35.2649 90.8296 35.3608 91.2037 35.3608ZM97.0142 36.1137C96.5597 36.1137 96.1584 35.9988 95.8104 35.7692C95.4624 35.5372 95.1901 35.2105 94.9936 34.7891C94.7971 34.3653 94.6989 33.8646 94.6989 33.287C94.6989 32.714 94.7971 32.2169 94.9936 31.7955C95.1901 31.3741 95.4635 31.0486 95.8139 30.8189C96.1643 30.5893 96.5691 30.4745 97.0284 30.4745C97.3835 30.4745 97.6641 30.5337 97.87 30.652C98.0784 30.768 98.237 30.9006 98.3459 31.0497C98.4571 31.1965 98.5436 31.3173 98.6051 31.412H98.6761V28.7273H99.5142V36H98.7045V35.162H98.6051C98.5436 35.2614 98.456 35.3869 98.3423 35.5384C98.2287 35.6875 98.0665 35.8213 97.8558 35.9397C97.6451 36.0557 97.3646 36.1137 97.0142 36.1137ZM97.1278 35.3608C97.464 35.3608 97.7481 35.2732 97.9801 35.098C98.2121 34.9205 98.3885 34.6755 98.5092 34.363C98.63 34.0481 98.6903 33.6847 98.6903 33.2728C98.6903 32.8656 98.6312 32.5093 98.5128 32.2039C98.3944 31.8961 98.2192 31.657 97.9872 31.4865C97.7552 31.3137 97.4688 31.2273 97.1278 31.2273C96.7727 31.2273 96.4768 31.3185 96.2401 31.5007C96.0057 31.6807 95.8293 31.9257 95.7109 32.2358C95.5949 32.5436 95.5369 32.8892 95.5369 33.2728C95.5369 33.661 95.5961 34.0138 95.7145 34.331C95.8352 34.6459 96.0128 34.8968 96.2472 35.0838C96.4839 35.2685 96.7775 35.3608 97.1278 35.3608ZM102.771 36.1279C102.425 36.1279 102.111 36.0628 101.83 35.9326C101.548 35.8 101.324 35.6094 101.158 35.3608C100.993 35.1099 100.91 34.8069 100.91 34.4517C100.91 34.1392 100.971 33.8859 101.094 33.6918C101.218 33.4953 101.382 33.3414 101.588 33.2301C101.794 33.1189 102.021 33.036 102.27 32.9816C102.521 32.9247 102.773 32.8798 103.026 32.8466C103.358 32.804 103.626 32.772 103.832 32.7507C104.041 32.7271 104.192 32.688 104.287 32.6336C104.384 32.5791 104.433 32.4844 104.433 32.3495V32.3211C104.433 31.9707 104.337 31.6984 104.145 31.5043C103.955 31.3102 103.668 31.2131 103.282 31.2131C102.882 31.2131 102.568 31.3007 102.341 31.4759C102.114 31.6511 101.954 31.8381 101.862 32.037L101.066 31.7529C101.208 31.4214 101.397 31.1634 101.634 30.9787C101.873 30.7917 102.134 30.6615 102.415 30.5881C102.7 30.5123 102.979 30.4745 103.254 30.4745C103.429 30.4745 103.63 30.4958 103.857 30.5384C104.087 30.5786 104.308 30.6627 104.521 30.7905C104.737 30.9184 104.915 31.1113 105.058 31.3694C105.2 31.6274 105.271 31.973 105.271 32.4063V36H104.433V35.2614H104.39C104.333 35.3798 104.238 35.5064 104.106 35.6414C103.973 35.7763 103.797 35.8911 103.577 35.9858C103.357 36.0805 103.088 36.1279 102.771 36.1279ZM102.898 35.375C103.23 35.375 103.509 35.3099 103.737 35.1797C103.966 35.0495 104.139 34.8814 104.255 34.6755C104.373 34.4695 104.433 34.2529 104.433 34.0256V33.2586C104.397 33.3012 104.319 33.3402 104.198 33.3757C104.08 33.4089 103.942 33.4385 103.786 33.4645C103.632 33.4882 103.482 33.5095 103.335 33.5284C103.191 33.545 103.074 33.5592 102.984 33.5711C102.766 33.5995 102.562 33.6456 102.373 33.7095C102.186 33.7711 102.034 33.8646 101.918 33.9901C101.805 34.1132 101.748 34.2813 101.748 34.4944C101.748 34.7855 101.856 35.0057 102.071 35.1549C102.289 35.3016 102.565 35.375 102.898 35.375ZM108.036 36L106.374 30.5455H107.255L108.434 34.7216H108.491L109.655 30.5455H110.55L111.701 34.7074H111.758L112.937 30.5455H113.817L112.155 36H111.331L110.138 31.8097H110.053L108.86 36H108.036ZM116.53 36.1279C116.185 36.1279 115.871 36.0628 115.589 35.9326C115.308 35.8 115.084 35.6094 114.918 35.3608C114.752 35.1099 114.67 34.8069 114.67 34.4517C114.67 34.1392 114.731 33.8859 114.854 33.6918C114.977 33.4953 115.142 33.3414 115.348 33.2301C115.554 33.1189 115.781 33.036 116.03 32.9816C116.281 32.9247 116.533 32.8798 116.786 32.8466C117.117 32.804 117.386 32.772 117.592 32.7507C117.8 32.7271 117.952 32.688 118.047 32.6336C118.144 32.5791 118.192 32.4844 118.192 32.3495V32.3211C118.192 31.9707 118.096 31.6984 117.905 31.5043C117.715 31.3102 117.428 31.2131 117.042 31.2131C116.642 31.2131 116.328 31.3007 116.101 31.4759C115.873 31.6511 115.714 31.8381 115.621 32.037L114.826 31.7529C114.968 31.4214 115.157 31.1634 115.394 30.9787C115.633 30.7917 115.894 30.6615 116.175 30.5881C116.459 30.5123 116.739 30.4745 117.013 30.4745C117.189 30.4745 117.39 30.4958 117.617 30.5384C117.847 30.5786 118.068 30.6627 118.281 30.7905C118.497 30.9184 118.675 31.1113 118.817 31.3694C118.959 31.6274 119.03 31.973 119.03 32.4063V36H118.192V35.2614H118.15C118.093 35.3798 117.998 35.5064 117.866 35.6414C117.733 35.7763 117.557 35.8911 117.336 35.9858C117.116 36.0805 116.848 36.1279 116.53 36.1279ZM116.658 35.375C116.99 35.375 117.269 35.3099 117.496 35.1797C117.726 35.0495 117.899 34.8814 118.015 34.6755C118.133 34.4695 118.192 34.2529 118.192 34.0256V33.2586C118.157 33.3012 118.079 33.3402 117.958 33.3757C117.84 33.4089 117.702 33.4385 117.546 33.4645C117.392 33.4882 117.242 33.5095 117.095 33.5284C116.951 33.545 116.833 33.5592 116.743 33.5711C116.526 33.5995 116.322 33.6456 116.133 33.7095C115.946 33.7711 115.794 33.8646 115.678 33.9901C115.564 34.1132 115.508 34.2813 115.508 34.4944C115.508 34.7855 115.615 35.0057 115.831 35.1549C116.049 35.3016 116.324 35.375 116.658 35.375ZM121.398 32.7188V36H120.56V30.5455H121.37V31.3978H121.441C121.569 31.1208 121.763 30.8982 122.023 30.7301C122.283 30.5597 122.62 30.4745 123.032 30.4745C123.401 30.4745 123.724 30.5502 124.001 30.7017C124.278 30.8509 124.493 31.0782 124.647 31.3836C124.801 31.6866 124.878 32.0701 124.878 32.5341V36H124.04V32.5909C124.04 32.1624 123.929 31.8286 123.706 31.5895C123.484 31.348 123.178 31.2273 122.79 31.2273C122.523 31.2273 122.283 31.2853 122.073 31.4013C121.864 31.5173 121.7 31.6866 121.579 31.9091C121.458 32.1317 121.398 32.4015 121.398 32.7188ZM126.41 36V30.5455H127.248V36H126.41ZM126.836 29.6364C126.672 29.6364 126.532 29.5808 126.413 29.4695C126.297 29.3582 126.239 29.2245 126.239 29.0682C126.239 28.912 126.297 28.7782 126.413 28.6669C126.532 28.5557 126.672 28.5 126.836 28.5C126.999 28.5 127.139 28.5557 127.255 28.6669C127.373 28.7782 127.432 28.912 127.432 29.0682C127.432 29.2245 127.373 29.3582 127.255 29.4695C127.139 29.5808 126.999 29.6364 126.836 29.6364ZM131.07 36.1137C130.544 36.1137 130.091 35.9977 129.71 35.7657C129.331 35.5313 129.038 35.2046 128.832 34.7855C128.629 34.3641 128.527 33.8741 128.527 33.3154C128.527 32.7567 128.629 32.2642 128.832 31.8381C129.038 31.4096 129.325 31.0758 129.692 30.8367C130.061 30.5952 130.492 30.4745 130.984 30.4745C131.268 30.4745 131.549 30.5218 131.826 30.6165C132.103 30.7112 132.355 30.8651 132.582 31.0782C132.81 31.2889 132.991 31.5682 133.126 31.9162C133.261 32.2642 133.328 32.6927 133.328 33.2017V33.5569H129.124V32.8324H132.476C132.476 32.5247 132.414 32.25 132.291 32.0086C132.17 31.7671 131.998 31.5765 131.773 31.4368C131.55 31.2971 131.287 31.2273 130.984 31.2273C130.651 31.2273 130.362 31.3102 130.118 31.4759C129.876 31.6392 129.691 31.8523 129.56 32.1151C129.43 32.3779 129.365 32.6596 129.365 32.9603V33.4432C129.365 33.8551 129.436 34.2043 129.578 34.4908C129.723 34.7749 129.923 34.9915 130.178 35.1407C130.434 35.2874 130.731 35.3608 131.07 35.3608C131.29 35.3608 131.489 35.3301 131.666 35.2685C131.846 35.2046 132.001 35.1099 132.131 34.9844C132.262 34.8566 132.362 34.6979 132.433 34.5086L133.243 34.7358C133.158 35.0104 133.014 35.2519 132.813 35.4603C132.612 35.6662 132.363 35.8272 132.067 35.9432C131.772 36.0569 131.439 36.1137 131.07 36.1137ZM137.415 36V30.5455H138.254V36H137.415ZM137.842 29.6364C137.678 29.6364 137.537 29.5808 137.419 29.4695C137.303 29.3582 137.245 29.2245 137.245 29.0682C137.245 28.912 137.303 28.7782 137.419 28.6669C137.537 28.5557 137.678 28.5 137.842 28.5C138.005 28.5 138.145 28.5557 138.261 28.6669C138.379 28.7782 138.438 28.912 138.438 29.0682C138.438 29.2245 138.379 29.3582 138.261 29.4695C138.145 29.5808 138.005 29.6364 137.842 29.6364ZM144.888 36.1137C144.362 36.1137 143.909 35.9977 143.528 35.7657C143.149 35.5313 142.857 35.2046 142.651 34.7855C142.447 34.3641 142.345 33.8741 142.345 33.3154C142.345 32.7567 142.447 32.2642 142.651 31.8381C142.857 31.4096 143.143 31.0758 143.51 30.8367C143.879 30.5952 144.31 30.4745 144.803 30.4745C145.087 30.4745 145.367 30.5218 145.644 30.6165C145.921 30.7112 146.173 30.8651 146.401 31.0782C146.628 31.2889 146.809 31.5682 146.944 31.9162C147.079 32.2642 147.146 32.6927 147.146 33.2017V33.5569H142.942V32.8324H146.294C146.294 32.5247 146.233 32.25 146.11 32.0086C145.989 31.7671 145.816 31.5765 145.591 31.4368C145.369 31.2971 145.106 31.2273 144.803 31.2273C144.469 31.2273 144.18 31.3102 143.936 31.4759C143.695 31.6392 143.509 31.8523 143.379 32.1151C143.249 32.3779 143.183 32.6596 143.183 32.9603V33.4432C143.183 33.8551 143.254 34.2043 143.396 34.4908C143.541 34.7749 143.741 34.9915 143.997 35.1407C144.252 35.2874 144.549 35.3608 144.888 35.3608C145.108 35.3608 145.307 35.3301 145.485 35.2685C145.664 35.2046 145.82 35.1099 145.95 34.9844C146.08 34.8566 146.181 34.6979 146.252 34.5086L147.061 34.7358C146.976 35.0104 146.833 35.2519 146.632 35.4603C146.43 35.6662 146.182 35.8272 145.886 35.9432C145.59 36.0569 145.257 36.1137 144.888 36.1137ZM150.481 36.1137C150.026 36.1137 149.625 35.9988 149.277 35.7692C148.929 35.5372 148.657 35.2105 148.46 34.7891C148.264 34.3653 148.166 33.8646 148.166 33.287C148.166 32.714 148.264 32.2169 148.46 31.7955C148.657 31.3741 148.93 31.0486 149.281 30.8189C149.631 30.5893 150.036 30.4745 150.495 30.4745C150.85 30.4745 151.131 30.5337 151.337 30.652C151.545 30.768 151.704 30.9006 151.813 31.0497C151.924 31.1965 152.01 31.3173 152.072 31.412H152.143V28.7273H152.981V36H152.171V35.162H152.072C152.01 35.2614 151.923 35.3869 151.809 35.5384C151.695 35.6875 151.533 35.8213 151.323 35.9397C151.112 36.0557 150.831 36.1137 150.481 36.1137ZM150.595 35.3608C150.931 35.3608 151.215 35.2732 151.447 35.098C151.679 34.9205 151.855 34.6755 151.976 34.363C152.097 34.0481 152.157 33.6847 152.157 33.2728C152.157 32.8656 152.098 32.5093 151.98 32.2039C151.861 31.8961 151.686 31.657 151.454 31.4865C151.222 31.3137 150.936 31.2273 150.595 31.2273C150.24 31.2273 149.944 31.3185 149.707 31.5007C149.472 31.6807 149.296 31.9257 149.178 32.2358C149.062 32.5436 149.004 32.8892 149.004 33.2728C149.004 33.661 149.063 34.0138 149.181 34.331C149.302 34.6459 149.48 34.8968 149.714 35.0838C149.951 35.2685 150.244 35.3608 150.595 35.3608ZM155.172 38.0455C155.03 38.0455 154.903 38.0337 154.792 38.01C154.681 37.9887 154.604 37.9674 154.561 37.9461L154.774 37.2074C154.978 37.2595 155.158 37.2784 155.314 37.2642C155.47 37.25 155.609 37.1802 155.73 37.0547C155.853 36.9316 155.965 36.7316 156.067 36.4546L156.223 36.0284L154.206 30.5455H155.115L156.621 34.8921H156.678L158.183 30.5455H159.093L156.777 36.7955C156.673 37.0772 156.544 37.3104 156.39 37.4951C156.236 37.6821 156.057 37.8206 155.854 37.9105C155.653 38.0005 155.425 38.0455 155.172 38.0455ZM162.219 36.1137C161.708 36.1137 161.268 35.9929 160.898 35.7515C160.529 35.51 160.245 35.1774 160.046 34.7536C159.847 34.3298 159.748 33.8457 159.748 33.3012C159.748 32.7472 159.849 32.2583 160.053 31.8345C160.259 31.4084 160.546 31.0758 160.912 30.8367C161.282 30.5952 161.713 30.4745 162.205 30.4745C162.589 30.4745 162.934 30.5455 163.242 30.6875C163.55 30.8296 163.802 31.0284 163.998 31.2841C164.195 31.5398 164.317 31.8381 164.364 32.179H163.526C163.462 31.9304 163.32 31.7103 163.1 31.5185C162.882 31.3244 162.589 31.2273 162.219 31.2273C161.893 31.2273 161.606 31.3125 161.36 31.483C161.116 31.6511 160.925 31.889 160.788 32.1968C160.653 32.5022 160.586 32.8608 160.586 33.2728C160.586 33.6942 160.652 34.0611 160.785 34.3736C160.92 34.6861 161.109 34.9288 161.353 35.1016C161.599 35.2744 161.888 35.3608 162.219 35.3608C162.437 35.3608 162.635 35.3229 162.812 35.2472C162.99 35.1714 163.14 35.0625 163.263 34.9205C163.386 34.7784 163.474 34.608 163.526 34.4091H164.364C164.317 34.7311 164.2 35.0211 164.013 35.2792C163.828 35.5348 163.583 35.7384 163.278 35.8899C162.974 36.0391 162.622 36.1137 162.219 36.1137ZM165.589 30.5455H166.427V36.3978C166.427 36.7339 166.369 37.0251 166.253 37.2713C166.14 37.5176 165.967 37.7081 165.735 37.8431C165.505 37.978 165.215 38.0455 164.865 38.0455C164.836 38.0455 164.808 38.0455 164.78 38.0455C164.751 38.0455 164.723 38.0455 164.694 38.0455V37.2642C164.723 37.2642 164.749 37.2642 164.773 37.2642C164.796 37.2642 164.822 37.2642 164.851 37.2642C165.106 37.2642 165.293 37.1885 165.412 37.037C165.53 36.8878 165.589 36.6747 165.589 36.3978V30.5455ZM166.001 29.6364C165.838 29.6364 165.697 29.5808 165.579 29.4695C165.463 29.3582 165.405 29.2245 165.405 29.0682C165.405 28.912 165.463 28.7782 165.579 28.6669C165.697 28.5557 165.838 28.5 166.001 28.5C166.165 28.5 166.304 28.5557 166.42 28.6669C166.539 28.7782 166.598 28.912 166.598 29.0682C166.598 29.2245 166.539 29.3582 166.42 29.4695C166.304 29.5808 166.165 29.6364 166.001 29.6364ZM169.567 36.1279C169.222 36.1279 168.908 36.0628 168.626 35.9326C168.345 35.8 168.121 35.6094 167.955 35.3608C167.79 35.1099 167.707 34.8069 167.707 34.4517C167.707 34.1392 167.768 33.8859 167.891 33.6918C168.014 33.4953 168.179 33.3414 168.385 33.2301C168.591 33.1189 168.818 33.036 169.067 32.9816C169.318 32.9247 169.57 32.8798 169.823 32.8466C170.155 32.804 170.423 32.772 170.629 32.7507C170.838 32.7271 170.989 32.688 171.084 32.6336C171.181 32.5791 171.229 32.4844 171.229 32.3495V32.3211C171.229 31.9707 171.134 31.6984 170.942 31.5043C170.752 31.3102 170.465 31.2131 170.079 31.2131C169.679 31.2131 169.365 31.3007 169.138 31.4759C168.911 31.6511 168.751 31.8381 168.658 32.037L167.863 31.7529C168.005 31.4214 168.194 31.1634 168.431 30.9787C168.67 30.7917 168.931 30.6615 169.212 30.5881C169.496 30.5123 169.776 30.4745 170.05 30.4745C170.226 30.4745 170.427 30.4958 170.654 30.5384C170.884 30.5786 171.105 30.6627 171.318 30.7905C171.534 30.9184 171.712 31.1113 171.854 31.3694C171.996 31.6274 172.067 31.973 172.067 32.4063V36H171.229V35.2614H171.187C171.13 35.3798 171.035 35.5064 170.903 35.6414C170.77 35.7763 170.594 35.8911 170.374 35.9858C170.153 36.0805 169.885 36.1279 169.567 36.1279ZM169.695 35.375C170.027 35.375 170.306 35.3099 170.533 35.1797C170.763 35.0495 170.936 34.8814 171.052 34.6755C171.17 34.4695 171.229 34.2529 171.229 34.0256V33.2586C171.194 33.3012 171.116 33.3402 170.995 33.3757C170.877 33.4089 170.739 33.4385 170.583 33.4645C170.429 33.4882 170.279 33.5095 170.132 33.5284C169.988 33.545 169.871 33.5592 169.781 33.5711C169.563 33.5995 169.359 33.6456 169.17 33.7095C168.983 33.7711 168.831 33.8646 168.715 33.9901C168.602 34.1132 168.545 34.2813 168.545 34.4944C168.545 34.7855 168.652 35.0057 168.868 35.1549C169.086 35.3016 169.362 35.375 169.695 35.375Z" fill="white"/>
<defs>
<linearGradient id="paint0_linear_6585_25519" x1="199.001" y1="24.0568" x2="-0.00128077" y2="24.0461" gradientUnits="userSpaceOnUse">
<stop offset="0.0001" stop-color="#FE9A79"/>
<stop offset="0.5001" stop-color="#F8C07D"/>
<stop offset="1" stop-color="#FEE298"/>
</linearGradient>
<linearGradient id="paint1_linear_6585_25519" x1="11.9999" y1="23.4846" x2="30.0005" y2="23.4849" gradientUnits="userSpaceOnUse">
<stop offset="0.0001" stop-color="#FE9A79"/>
<stop offset="0.5001" stop-color="#F8C07D"/>
<stop offset="1" stop-color="#FEE298"/>
</linearGradient>
<clipPath id="clip0_6585_25519">
<rect width="18" height="19" fill="white" transform="translate(12 14.5)"/>
</clipPath>
</defs>
</svg>
