<svg width="290" height="48" viewBox="0 0 290 48" fill="none" xmlns="http://www.w3.org/2000/svg">
<mask id="path-1-inside-1_6585_26139" fill="white">
<path d="M290 40C290 44.4183 286.418 48 282 48L8 48C3.58173 48 3.13124e-07 44.4183 6.99382e-07 40L3.49691e-06 8C3.88317e-06 3.58173 3.58173 3.13124e-07 8 6.99382e-07L282 2.46532e-05C286.418 2.50395e-05 290 3.58175 290 8.00003L290 40Z"/>
</mask>
<path d="M290 40C290 44.4183 286.418 48 282 48L8 48C3.58173 48 3.13124e-07 44.4183 6.99382e-07 40L3.49691e-06 8C3.88317e-06 3.58173 3.58173 3.13124e-07 8 6.99382e-07L282 2.46532e-05C286.418 2.50395e-05 290 3.58175 290 8.00003L290 40Z" fill="#F0642E"/>
<path d="M290 48L0 48L290 48ZM3.49691e-06 8C3.93145e-06 3.02944 4.02945 -1 9 -0.999999L282 -0.999975C286.971 -0.999975 291 3.02946 291 8.00003L289 8.00003C289 4.13403 285.866 1.00002 282 1.00002L8 1C3.58173 1 3.83489e-06 4.13401 3.49691e-06 8ZM282 -0.999975C286.971 -0.999975 291 3.02946 291 8.00003L291 39C291 43.9706 286.971 48 282 48C285.866 48 289 44.4183 289 40L289 8.00003C289 4.13403 285.866 1.00002 282 1.00002L282 -0.999975ZM0 48L4.1963e-06 0L0 48Z" fill="url(#paint0_linear_6585_26139)" mask="url(#path-1-inside-1_6585_26139)"/>
<g clip-path="url(#clip0_6585_26139)">
<path d="M20.7535 32.2011C19.7206 28.5765 15.9442 24.8143 12.3059 23.7853C11.898 23.6542 11.898 23.3658 12.3059 23.2282C15.9507 22.1926 19.7206 18.4369 20.76 14.8058C20.8719 14.406 21.1416 14.406 21.2535 14.8058C22.2864 18.4369 26.0628 22.1926 29.6945 23.2282C30.1024 23.3593 30.1024 23.6542 29.6945 23.7853C26.0562 24.8143 22.2798 28.5765 21.2469 32.2011C21.1351 32.6075 20.8653 32.6075 20.7535 32.2011Z" fill="url(#paint1_linear_6585_26139)"/>
</g>
<path d="M46.38 17.904H44.184V21H43.008V12.324H46.38C48.084 12.324 49.176 13.44 49.176 15.108C49.176 16.728 48.072 17.904 46.38 17.904ZM46.176 13.38H44.184V16.848H46.128C47.292 16.848 47.94 16.164 47.94 15.096C47.94 14.004 47.28 13.38 46.176 13.38ZM53.676 15.084V16.116H53.172C52.104 16.116 51.444 16.764 51.444 17.892V21H50.316V15.144H51.372L51.444 16.032C51.684 15.42 52.272 15.012 53.076 15.012C53.28 15.012 53.448 15.036 53.676 15.084ZM59.0983 21H54.5263V20.088L57.6943 16.08H54.5263V15.132H59.0983V16.056L55.9063 20.052H59.0983V21ZM59.8067 23.628V22.704H60.5627C61.1027 22.704 61.5347 22.62 61.8107 21.876L62.0147 21.312L59.6507 15.132H60.8387L62.5427 19.86L64.2827 15.132H65.4467L62.6747 22.32C62.2787 23.328 61.6907 23.748 60.7907 23.748C60.4187 23.748 60.1067 23.7 59.8067 23.628ZM68.4766 21.144C66.7726 21.144 65.7406 19.872 65.7406 18.084C65.7406 16.284 66.7846 14.964 68.5246 14.964C69.4246 14.964 70.1806 15.36 70.5766 16.08V12.168H71.6926V21H70.6846L70.5886 19.932C70.2046 20.736 69.4126 21.144 68.4766 21.144ZM68.7046 20.124C69.8566 20.124 70.5646 19.272 70.5646 18.048C70.5646 16.848 69.8566 15.984 68.7046 15.984C67.5526 15.984 66.8806 16.848 66.8806 18.048C66.8806 19.26 67.5526 20.124 68.7046 20.124ZM77.5319 21H72.9599V20.088L76.1279 16.08H72.9599V15.132H77.5319V16.056L74.3399 20.052H77.5319V21ZM79.3563 13.74C78.9483 13.74 78.6123 13.404 78.6123 12.996C78.6123 12.576 78.9483 12.252 79.3563 12.252C79.7643 12.252 80.1003 12.576 80.1003 12.996C80.1003 13.404 79.7643 13.74 79.3563 13.74ZM78.8043 21V15.132H79.9323V21H78.8043ZM84.1019 21.144C82.3739 21.144 81.1859 19.896 81.1859 18.072C81.1859 16.236 82.3499 14.964 84.0539 14.964C85.7219 14.964 86.8139 16.116 86.8139 17.856V18.276L82.2779 18.288C82.3619 19.524 83.0099 20.208 84.1259 20.208C85.0019 20.208 85.5779 19.848 85.7699 19.176H86.8259C86.5379 20.436 85.5539 21.144 84.1019 21.144ZM84.0539 15.912C83.0699 15.912 82.4459 16.5 82.3019 17.532H85.6859C85.6859 16.56 85.0499 15.912 84.0539 15.912ZM89.2258 21H88.0978V12.168H89.2258V21ZM93.6876 19.296H94.7676C94.7676 19.896 95.2236 20.256 95.9676 20.256C96.7596 20.256 97.2156 19.932 97.2156 19.392C97.2156 18.996 97.0236 18.756 96.4116 18.6L95.3796 18.36C94.3356 18.108 93.8436 17.592 93.8436 16.728C93.8436 15.648 94.7556 14.964 96.0516 14.964C97.3356 14.964 98.1756 15.684 98.1996 16.8H97.1196C97.0956 16.212 96.6996 15.84 96.0156 15.84C95.3076 15.84 94.9116 16.152 94.9116 16.692C94.9116 17.088 95.1996 17.352 95.7756 17.496L96.8076 17.748C97.8036 17.988 98.2956 18.444 98.2956 19.32C98.2956 20.436 97.3356 21.144 95.9436 21.144C94.5636 21.144 93.6876 20.412 93.6876 19.296ZM100.666 21L98.7458 15.132H99.9098L100.882 18.18C101.014 18.612 101.134 19.056 101.242 19.572C101.338 19.056 101.494 18.564 101.626 18.18L102.61 15.132H103.762L104.734 18.18C104.83 18.468 105.022 19.152 105.118 19.572C105.214 19.104 105.322 18.696 105.49 18.18L106.474 15.132H107.65L105.646 21H104.578L103.558 17.856C103.366 17.268 103.246 16.812 103.186 16.488C103.126 16.776 103.018 17.16 102.802 17.868L101.782 21H100.666ZM107.963 18.06C107.963 16.248 109.259 14.976 111.023 14.976C112.775 14.976 114.071 16.248 114.071 18.06C114.071 19.872 112.775 21.144 111.023 21.144C109.259 21.144 107.963 19.872 107.963 18.06ZM109.103 18.06C109.103 19.284 109.883 20.136 111.023 20.136C112.151 20.136 112.943 19.284 112.943 18.06C112.943 16.836 112.151 15.984 111.023 15.984C109.883 15.984 109.103 16.836 109.103 18.06ZM115.884 13.74C115.464 13.74 115.14 13.404 115.14 12.996C115.14 12.576 115.464 12.252 115.884 12.252C116.28 12.252 116.628 12.576 116.628 12.996C116.628 13.404 116.28 13.74 115.884 13.74ZM113.832 23.664L114.024 22.644C114.252 22.704 114.384 22.728 114.564 22.728C115.104 22.728 115.32 22.416 115.32 21.756V15.132H116.448V21.864C116.448 23.04 115.8 23.772 114.66 23.772C114.36 23.772 114.168 23.76 113.832 23.664ZM120.618 21.144C118.89 21.144 117.702 19.896 117.702 18.072C117.702 16.236 118.866 14.964 120.57 14.964C122.238 14.964 123.33 16.116 123.33 17.856V18.276L118.794 18.288C118.878 19.524 119.526 20.208 120.642 20.208C121.518 20.208 122.094 19.848 122.286 19.176H123.342C123.054 20.436 122.07 21.144 120.618 21.144ZM120.57 15.912C119.586 15.912 118.962 16.5 118.818 17.532H122.202C122.202 16.56 121.566 15.912 120.57 15.912ZM125.717 21H124.589V15.132H125.597L125.705 15.9C126.005 15.348 126.629 14.964 127.457 14.964C128.369 14.964 129.017 15.42 129.317 16.152C129.593 15.42 130.301 14.964 131.213 14.964C132.557 14.964 133.373 15.804 133.373 17.16V21H132.269V17.436C132.269 16.512 131.753 15.984 130.961 15.984C130.109 15.984 129.545 16.584 129.545 17.52V21H128.429V17.424C128.429 16.5 127.925 15.996 127.133 15.996C126.281 15.996 125.717 16.584 125.717 17.52V21ZM138.993 15.132H140.109V21H139.101L138.981 20.112C138.645 20.724 137.865 21.144 137.001 21.144C135.633 21.144 134.865 20.22 134.865 18.78V15.132H135.993V18.408C135.993 19.668 136.533 20.148 137.397 20.148C138.429 20.148 138.993 19.488 138.993 18.228V15.132ZM149.239 21H144.667V20.088L147.835 16.08H144.667V15.132H149.239V16.056L146.047 20.052H149.239V21ZM152.914 21.144C151.186 21.144 149.998 19.896 149.998 18.072C149.998 16.236 151.162 14.964 152.866 14.964C154.534 14.964 155.626 16.116 155.626 17.856V18.276L151.09 18.288C151.174 19.524 151.822 20.208 152.938 20.208C153.814 20.208 154.39 19.848 154.582 19.176H155.638C155.35 20.436 154.366 21.144 152.914 21.144ZM152.866 15.912C151.882 15.912 151.258 16.5 151.114 17.532H154.498C154.498 16.56 153.862 15.912 152.866 15.912ZM156.406 19.296H157.486C157.486 19.896 157.942 20.256 158.686 20.256C159.478 20.256 159.934 19.932 159.934 19.392C159.934 18.996 159.742 18.756 159.13 18.6L158.098 18.36C157.054 18.108 156.562 17.592 156.562 16.728C156.562 15.648 157.474 14.964 158.77 14.964C160.054 14.964 160.894 15.684 160.918 16.8H159.838C159.814 16.212 159.418 15.84 158.734 15.84C158.026 15.84 157.63 16.152 157.63 16.692C157.63 17.088 157.918 17.352 158.494 17.496L159.526 17.748C160.522 17.988 161.014 18.444 161.014 19.32C161.014 20.436 160.054 21.144 158.662 21.144C157.282 21.144 156.406 20.412 156.406 19.296ZM162.265 23.628V15.132H163.285L163.369 16.188C163.765 15.384 164.557 14.964 165.493 14.964C167.173 14.964 168.217 16.224 168.217 18.024C168.217 19.812 167.233 21.156 165.493 21.156C164.557 21.156 163.777 20.76 163.393 20.04V23.628H162.265ZM163.405 18.072C163.405 19.272 164.101 20.136 165.253 20.136C166.405 20.136 167.089 19.272 167.089 18.072C167.089 16.86 166.405 15.996 165.253 15.996C164.101 15.996 163.405 16.848 163.405 18.072ZM169.077 18.06C169.077 16.248 170.373 14.976 172.137 14.976C173.889 14.976 175.185 16.248 175.185 18.06C175.185 19.872 173.889 21.144 172.137 21.144C170.373 21.144 169.077 19.872 169.077 18.06ZM170.217 18.06C170.217 19.284 170.997 20.136 172.137 20.136C173.265 20.136 174.057 19.284 174.057 18.06C174.057 16.836 173.265 15.984 172.137 15.984C170.997 15.984 170.217 16.836 170.217 18.06ZM177.585 21H176.457V17.088L175.761 17.424V16.572L176.457 16.236V12.168H177.585V15.696L178.293 15.36V16.212L177.585 16.548V21ZM178.862 18.06C178.862 16.248 180.158 14.976 181.922 14.976C183.674 14.976 184.97 16.248 184.97 18.06C184.97 19.872 183.674 21.144 181.922 21.144C180.158 21.144 178.862 19.872 178.862 18.06ZM180.002 18.06C180.002 19.284 180.782 20.136 181.922 20.136C183.05 20.136 183.842 19.284 183.842 18.06C183.842 16.836 183.05 15.984 181.922 15.984C180.782 15.984 180.002 16.836 180.002 18.06ZM187.209 21L185.289 15.132H186.453L187.425 18.18C187.557 18.612 187.677 19.056 187.785 19.572C187.881 19.056 188.037 18.564 188.169 18.18L189.153 15.132H190.305L191.277 18.18C191.373 18.468 191.565 19.152 191.661 19.572C191.757 19.104 191.865 18.696 192.033 18.18L193.017 15.132H194.193L192.189 21H191.121L190.101 17.856C189.909 17.268 189.789 16.812 189.729 16.488C189.669 16.776 189.561 17.16 189.345 17.868L188.325 21H187.209ZM195.712 13.74C195.304 13.74 194.968 13.404 194.968 12.996C194.968 12.576 195.304 12.252 195.712 12.252C196.12 12.252 196.456 12.576 196.456 12.996C196.456 13.404 196.12 13.74 195.712 13.74ZM195.16 21V15.132H196.288V21H195.16ZM200.823 18.06C200.823 16.248 202.119 14.976 203.883 14.976C205.635 14.976 206.931 16.248 206.931 18.06C206.931 19.872 205.635 21.144 203.883 21.144C202.119 21.144 200.823 19.872 200.823 18.06ZM201.963 18.06C201.963 19.284 202.743 20.136 203.883 20.136C205.011 20.136 205.803 19.284 205.803 18.06C205.803 16.836 205.011 15.984 203.883 15.984C202.743 15.984 201.963 16.836 201.963 18.06ZM207.699 19.296H208.779C208.779 19.896 209.235 20.256 209.979 20.256C210.771 20.256 211.227 19.932 211.227 19.392C211.227 18.996 211.035 18.756 210.423 18.6L209.391 18.36C208.347 18.108 207.855 17.592 207.855 16.728C207.855 15.648 208.767 14.964 210.063 14.964C211.347 14.964 212.187 15.684 212.211 16.8H211.131C211.107 16.212 210.711 15.84 210.027 15.84C209.319 15.84 208.923 16.152 208.923 16.692C208.923 17.088 209.211 17.352 209.787 17.496L210.819 17.748C211.815 17.988 212.307 18.444 212.307 19.32C212.307 20.436 211.347 21.144 209.955 21.144C208.575 21.144 207.699 20.412 207.699 19.296ZM213.174 18.06C213.174 16.248 214.47 14.976 216.234 14.976C217.986 14.976 219.282 16.248 219.282 18.06C219.282 19.872 217.986 21.144 216.234 21.144C214.47 21.144 213.174 19.872 213.174 18.06ZM214.314 18.06C214.314 19.284 215.094 20.136 216.234 20.136C217.362 20.136 218.154 19.284 218.154 18.06C218.154 16.836 217.362 15.984 216.234 15.984C215.094 15.984 214.314 16.836 214.314 18.06ZM221.551 21H220.531V12.168H221.659V16.14C222.043 15.372 222.835 14.964 223.795 14.964C225.475 14.964 226.483 16.284 226.483 18.096C226.483 19.872 225.427 21.144 223.723 21.144C222.799 21.144 222.019 20.736 221.635 19.932L221.551 21ZM221.671 18.048C221.671 19.272 222.367 20.124 223.519 20.124C224.671 20.124 225.355 19.26 225.355 18.048C225.355 16.848 224.671 15.984 223.519 15.984C222.367 15.984 221.671 16.848 221.671 18.048ZM228.854 21H227.726V15.132H228.746L228.866 16.032C229.238 15.36 229.982 14.964 230.81 14.964C232.358 14.964 233.066 15.912 233.066 17.412V21H231.938V17.664C231.938 16.476 231.386 15.996 230.522 15.996C229.466 15.996 228.854 16.752 228.854 17.892V21ZM237.161 21.144C235.433 21.144 234.245 19.896 234.245 18.072C234.245 16.236 235.409 14.964 237.113 14.964C238.781 14.964 239.872 16.116 239.872 17.856V18.276L235.337 18.288C235.421 19.524 236.069 20.208 237.185 20.208C238.061 20.208 238.637 19.848 238.829 19.176H239.885C239.597 20.436 238.613 21.144 237.161 21.144ZM237.113 15.912C236.129 15.912 235.505 16.5 235.361 17.532H238.745C238.745 16.56 238.109 15.912 237.113 15.912ZM245.566 21H244.438V12.168H245.566V17.892L248.17 15.132H249.586L247.342 17.472L249.574 21H248.278L246.562 18.288L245.566 19.332V21ZM249.901 18.06C249.901 16.248 251.197 14.976 252.961 14.976C254.713 14.976 256.009 16.248 256.009 18.06C256.009 19.872 254.713 21.144 252.961 21.144C251.197 21.144 249.901 19.872 249.901 18.06ZM251.041 18.06C251.041 19.284 251.821 20.136 252.961 20.136C254.089 20.136 254.881 19.284 254.881 18.06C254.881 16.836 254.089 15.984 252.961 15.984C251.821 15.984 251.041 16.836 251.041 18.06ZM258.385 21H257.257V15.132H258.277L258.397 16.032C258.769 15.36 259.513 14.964 260.341 14.964C261.889 14.964 262.597 15.912 262.597 17.412V21H261.469V17.664C261.469 16.476 260.917 15.996 260.053 15.996C258.997 15.996 258.385 16.752 258.385 17.892V21ZM265.816 21H264.688V16.08H263.536V15.132H264.688V13.296H265.816V15.132H266.968V16.08H265.816V21ZM269.626 21.144C268.366 21.144 267.622 20.436 267.622 19.368C267.622 18.288 268.426 17.616 269.806 17.508L271.654 17.364V17.196C271.654 16.212 271.066 15.864 270.274 15.864C269.326 15.864 268.786 16.284 268.786 16.992H267.802C267.802 15.768 268.81 14.964 270.322 14.964C271.774 14.964 272.758 15.732 272.758 17.316V21H271.798L271.678 20.052C271.378 20.724 270.574 21.144 269.626 21.144ZM269.95 20.268C271.018 20.268 271.666 19.572 271.666 18.468V18.156L270.166 18.276C269.17 18.372 268.762 18.756 268.762 19.332C268.762 19.956 269.218 20.268 269.95 20.268Z" fill="white"/>
<path d="M42.6392 36V35.3608L46.5597 29.5086H42.5966V28.7273H47.6108V29.3665L43.6903 35.2188H47.6534V36H42.6392ZM49.5568 38.0455C49.4148 38.0455 49.2881 38.0337 49.1768 38.01C49.0656 37.9887 48.9886 37.9674 48.946 37.9461L49.1591 37.2074C49.3627 37.2595 49.5426 37.2785 49.6989 37.2643C49.8551 37.25 49.9936 37.1802 50.1143 37.0547C50.2375 36.9316 50.3499 36.7316 50.4517 36.4546L50.608 36.0285L48.5909 30.5455H49.5L51.0057 34.8921H51.0625L52.5682 30.5455H53.4773L51.1619 36.7955C51.0578 37.0772 50.9287 37.3104 50.7749 37.4951C50.621 37.6821 50.4422 37.8206 50.2386 37.9106C50.0374 38.0005 49.8101 38.0455 49.5568 38.0455ZM58.4471 31.7671L57.6942 31.9802C57.6469 31.8547 57.5771 31.7328 57.4847 31.6144C57.3948 31.4937 57.2717 31.3942 57.1154 31.3161C56.9592 31.238 56.7591 31.1989 56.5153 31.1989C56.1815 31.1989 55.9033 31.2759 55.6808 31.4297C55.4606 31.5813 55.3505 31.7742 55.3505 32.0086C55.3505 32.2169 55.4263 32.3814 55.5778 32.5022C55.7293 32.6229 55.966 32.7235 56.288 32.804L57.0977 33.0029C57.5853 33.1213 57.9487 33.3024 58.1879 33.5462C58.427 33.7877 58.5465 34.099 58.5465 34.4802C58.5465 34.7927 58.4566 35.072 58.2766 35.3182C58.0991 35.5644 57.8505 35.7586 57.5309 35.9006C57.2113 36.0427 56.8396 36.1137 56.4158 36.1137C55.8595 36.1137 55.399 35.9929 55.0344 35.7515C54.6699 35.51 54.439 35.1572 54.342 34.6932L55.1374 34.4944C55.2132 34.7879 55.3564 35.0081 55.5671 35.1549C55.7802 35.3017 56.0584 35.375 56.4016 35.375C56.7923 35.375 57.1024 35.2922 57.332 35.1265C57.564 34.9584 57.68 34.7572 57.68 34.5228C57.68 34.3334 57.6138 34.1748 57.4812 34.0469C57.3486 33.9167 57.145 33.8197 56.8704 33.7557L55.9613 33.5427C55.4618 33.4243 55.0948 33.2408 54.8604 32.9922C54.6284 32.7413 54.5124 32.4276 54.5124 32.0512C54.5124 31.7434 54.5988 31.4712 54.7717 31.2344C54.9469 30.9977 55.1848 30.8118 55.4854 30.6769C55.7885 30.542 56.1317 30.4745 56.5153 30.4745C57.055 30.4745 57.4788 30.5929 57.7866 30.8296C58.0967 31.0663 58.3169 31.3788 58.4471 31.7671ZM60.5893 34.0114L60.5751 32.9745H60.7456L63.1319 30.5455H64.1689L61.6262 33.1165H61.5552L60.5893 34.0114ZM59.8081 36V28.7273H60.6461V36H59.8081ZM63.274 36L61.1433 33.3012L61.7399 32.7188L64.3393 36H63.274ZM66.8526 36.1279C66.507 36.1279 66.1933 36.0628 65.9116 35.9326C65.6299 35.8 65.4061 35.6094 65.2404 35.3608C65.0747 35.1099 64.9918 34.8069 64.9918 34.4518C64.9918 34.1393 65.0534 33.8859 65.1765 33.6918C65.2996 33.4953 65.4641 33.3414 65.6701 33.2302C65.8761 33.1189 66.1033 33.036 66.3519 32.9816C66.6029 32.9248 66.855 32.8798 67.1083 32.8466C67.4397 32.804 67.7085 32.7721 67.9144 32.7508C68.1228 32.7271 68.2743 32.688 68.369 32.6336C68.466 32.5791 68.5146 32.4844 68.5146 32.3495V32.3211C68.5146 31.9707 68.4187 31.6984 68.2269 31.5043C68.0375 31.3102 67.7499 31.2131 67.364 31.2131C66.9639 31.2131 66.6502 31.3007 66.4229 31.4759C66.1957 31.6511 66.0359 31.8381 65.9435 32.037L65.1481 31.7529C65.2901 31.4214 65.4795 31.1634 65.7163 30.9787C65.9554 30.7917 66.2158 30.6615 66.4975 30.5881C66.7816 30.5124 67.061 30.4745 67.3356 30.4745C67.5108 30.4745 67.712 30.4958 67.9393 30.5384C68.1689 30.5786 68.3903 30.6627 68.6033 30.7905C68.8188 30.9184 68.9975 31.1113 69.1396 31.3694C69.2816 31.6274 69.3526 31.9731 69.3526 32.4063V36H68.5146V35.2614H68.4719C68.4151 35.3798 68.3204 35.5064 68.1879 35.6414C68.0553 35.7763 67.8789 35.8911 67.6587 35.9858C67.4386 36.0805 67.1699 36.1279 66.8526 36.1279ZM66.9805 35.375C67.3119 35.375 67.5913 35.3099 67.8185 35.1797C68.0482 35.0495 68.221 34.8814 68.337 34.6755C68.4554 34.4695 68.5146 34.2529 68.5146 34.0256V33.2586C68.479 33.3012 68.4009 33.3402 68.2802 33.3758C68.1618 33.4089 68.0245 33.4385 67.8683 33.4645C67.7144 33.4882 67.564 33.5095 67.4173 33.5285C67.2728 33.545 67.1557 33.5592 67.0657 33.5711C66.8479 33.5995 66.6443 33.6456 66.4549 33.7096C66.2679 33.7711 66.1164 33.8646 66.0004 33.9901C65.8867 34.1132 65.8299 34.2813 65.8299 34.4944C65.8299 34.7856 65.9376 35.0057 66.1531 35.1549C66.3709 35.3017 66.6467 35.375 66.9805 35.375ZM70.8823 30.5455H71.7203V36.3978C71.7203 36.7339 71.6623 37.0251 71.5463 37.2714C71.4327 37.5176 71.2599 37.7081 71.0279 37.8431C70.7982 37.978 70.5082 38.0455 70.1578 38.0455C70.1294 38.0455 70.101 38.0455 70.0726 38.0455C70.0442 38.0455 70.0158 38.0455 69.9874 38.0455V37.2643C70.0158 37.2643 70.0418 37.2643 70.0655 37.2643C70.0892 37.2643 70.1152 37.2643 70.1436 37.2643C70.3993 37.2643 70.5864 37.1885 70.7047 37.037C70.8231 36.8878 70.8823 36.6748 70.8823 36.3978V30.5455ZM71.2942 29.6364C71.1309 29.6364 70.99 29.5808 70.8716 29.4695C70.7556 29.3582 70.6976 29.2245 70.6976 29.0682C70.6976 28.912 70.7556 28.7782 70.8716 28.667C70.99 28.5557 71.1309 28.5 71.2942 28.5C71.4576 28.5 71.5972 28.5557 71.7132 28.667C71.8316 28.7782 71.8908 28.912 71.8908 29.0682C71.8908 29.2245 71.8316 29.3582 71.7132 29.4695C71.5972 29.5808 71.4576 29.6364 71.2942 29.6364ZM79.9315 31.7671L79.1786 31.9802C79.1313 31.8547 79.0614 31.7328 78.9691 31.6144C78.8791 31.4937 78.756 31.3942 78.5998 31.3161C78.4435 31.238 78.2435 31.1989 77.9996 31.1989C77.6658 31.1989 77.3877 31.2759 77.1651 31.4297C76.945 31.5813 76.8349 31.7742 76.8349 32.0086C76.8349 32.2169 76.9106 32.3814 77.0621 32.5022C77.2137 32.6229 77.4504 32.7235 77.7724 32.804L78.582 33.0029C79.0697 33.1213 79.4331 33.3024 79.6722 33.5462C79.9113 33.7877 80.0309 34.099 80.0309 34.4802C80.0309 34.7927 79.9409 35.072 79.761 35.3182C79.5835 35.5644 79.3349 35.7586 79.0153 35.9006C78.6957 36.0427 78.324 36.1137 77.9002 36.1137C77.3439 36.1137 76.8834 35.9929 76.5188 35.7515C76.1542 35.51 75.9234 35.1572 75.8263 34.6932L76.6218 34.4944C76.6976 34.7879 76.8408 35.0081 77.0515 35.1549C77.2646 35.3017 77.5427 35.375 77.886 35.375C78.2766 35.375 78.5868 35.2922 78.8164 35.1265C79.0484 34.9584 79.1644 34.7572 79.1644 34.5228C79.1644 34.3334 79.0981 34.1748 78.9656 34.0469C78.833 33.9167 78.6294 33.8197 78.3548 33.7557L77.4457 33.5427C76.9461 33.4243 76.5792 33.2408 76.3448 32.9922C76.1128 32.7413 75.9968 32.4276 75.9968 32.0512C75.9968 31.7434 76.0832 31.4712 76.256 31.2344C76.4312 30.9977 76.6692 30.8118 76.9698 30.6769C77.2728 30.542 77.6161 30.4745 77.9996 30.4745C78.5394 30.4745 78.9632 30.5929 79.271 30.8296C79.5811 31.0663 79.8013 31.3788 79.9315 31.7671ZM81.2924 38.0455V30.5455H82.1021V31.412H82.2015C82.2631 31.3173 82.3483 31.1965 82.4572 31.0498C82.5685 30.9006 82.7271 30.768 82.9331 30.652C83.1414 30.5337 83.4231 30.4745 83.7782 30.4745C84.2375 30.4745 84.6423 30.5893 84.9927 30.8189C85.3431 31.0486 85.6165 31.3741 85.813 31.7955C86.0095 32.2169 86.1078 32.7141 86.1078 33.287C86.1078 33.8646 86.0095 34.3653 85.813 34.7891C85.6165 35.2105 85.3443 35.5372 84.9963 35.7692C84.6483 35.9989 84.247 36.1137 83.7924 36.1137C83.4421 36.1137 83.1615 36.0557 82.9508 35.9397C82.7401 35.8213 82.5779 35.6875 82.4643 35.5384C82.3507 35.3869 82.2631 35.2614 82.2015 35.162H82.1305V38.0455H81.2924ZM82.1163 33.2728C82.1163 33.6847 82.1767 34.0481 82.2974 34.363C82.4181 34.6755 82.5945 34.9205 82.8265 35.0981C83.0585 35.2732 83.3426 35.3608 83.6788 35.3608C84.0292 35.3608 84.3216 35.2685 84.5559 35.0839C84.7927 34.8968 84.9702 34.6459 85.0886 34.331C85.2093 34.0138 85.2697 33.661 85.2697 33.2728C85.2697 32.8893 85.2105 32.5436 85.0922 32.2358C84.9761 31.9257 84.7998 31.6807 84.563 31.5008C84.3287 31.3185 84.0339 31.2273 83.6788 31.2273C83.3379 31.2273 83.0514 31.3137 82.8194 31.4866C82.5874 31.657 82.4122 31.8961 82.2939 32.2039C82.1755 32.5093 82.1163 32.8656 82.1163 33.2728ZM87.3862 36V30.5455H88.1958V31.3694H88.2527C88.3521 31.0995 88.532 30.8805 88.7924 30.7124C89.0529 30.5443 89.3464 30.4603 89.6731 30.4603C89.7347 30.4603 89.8116 30.4615 89.9039 30.4638C89.9963 30.4662 90.0661 30.4697 90.1135 30.4745V31.3268C90.085 31.3197 90.0199 31.309 89.9181 31.2948C89.8187 31.2782 89.7134 31.2699 89.6021 31.2699C89.3369 31.2699 89.1002 31.3256 88.8919 31.4368C88.6859 31.5457 88.5225 31.6973 88.4018 31.8914C88.2834 32.0831 88.2243 32.3021 88.2243 32.5483V36H87.3862ZM92.712 36.1279C92.3664 36.1279 92.0527 36.0628 91.771 35.9326C91.4892 35.8 91.2655 35.6094 91.0998 35.3608C90.9341 35.1099 90.8512 34.8069 90.8512 34.4518C90.8512 34.1393 90.9128 33.8859 91.0359 33.6918C91.159 33.4953 91.3235 33.3414 91.5295 33.2302C91.7354 33.1189 91.9627 33.036 92.2113 32.9816C92.4622 32.9248 92.7144 32.8798 92.9677 32.8466C93.2991 32.804 93.5678 32.7721 93.7738 32.7508C93.9821 32.7271 94.1336 32.688 94.2283 32.6336C94.3254 32.5791 94.3739 32.4844 94.3739 32.3495V32.3211C94.3739 31.9707 94.2781 31.6984 94.0863 31.5043C93.8969 31.3102 93.6093 31.2131 93.2234 31.2131C92.8233 31.2131 92.5096 31.3007 92.2823 31.4759C92.055 31.6511 91.8952 31.8381 91.8029 32.037L91.0075 31.7529C91.1495 31.4214 91.3389 31.1634 91.5756 30.9787C91.8147 30.7917 92.0752 30.6615 92.3569 30.5881C92.641 30.5124 92.9203 30.4745 93.195 30.4745C93.3701 30.4745 93.5714 30.4958 93.7987 30.5384C94.0283 30.5786 94.2496 30.6627 94.4627 30.7905C94.6781 30.9184 94.8569 31.1113 94.9989 31.3694C95.141 31.6274 95.212 31.9731 95.212 32.4063V36H94.3739V35.2614H94.3313C94.2745 35.3798 94.1798 35.5064 94.0472 35.6414C93.9147 35.7763 93.7383 35.8911 93.5181 35.9858C93.2979 36.0805 93.0292 36.1279 92.712 36.1279ZM92.8398 35.375C93.1713 35.375 93.4506 35.3099 93.6779 35.1797C93.9076 35.0495 94.0804 34.8814 94.1964 34.6755C94.3147 34.4695 94.3739 34.2529 94.3739 34.0256V33.2586C94.3384 33.3012 94.2603 33.3402 94.1396 33.3758C94.0212 33.4089 93.8839 33.4385 93.7276 33.4645C93.5737 33.4882 93.4234 33.5095 93.2766 33.5285C93.1322 33.545 93.015 33.5592 92.9251 33.5711C92.7073 33.5995 92.5037 33.6456 92.3143 33.7096C92.1272 33.7711 91.9757 33.8646 91.8597 33.9901C91.7461 34.1132 91.6893 34.2813 91.6893 34.4944C91.6893 34.7856 91.797 35.0057 92.0124 35.1549C92.2302 35.3017 92.506 35.375 92.8398 35.375ZM97.9775 36L96.3155 30.5455H97.1962L98.3752 34.7216H98.432L99.5968 30.5455H100.492L101.642 34.7074H101.699L102.878 30.5455H103.759L102.097 36H101.273L100.08 31.8097H99.9945L98.8013 36H97.9775ZM105.705 32.7188V36H104.867V30.5455H105.676V31.3978H105.747C105.875 31.1208 106.069 30.8982 106.33 30.7302C106.59 30.5597 106.926 30.4745 107.338 30.4745C107.708 30.4745 108.031 30.5502 108.308 30.7018C108.585 30.8509 108.8 31.0782 108.954 31.3836C109.108 31.6866 109.185 32.0701 109.185 32.5341V36H108.347V32.591C108.347 32.1625 108.235 31.8286 108.013 31.5895C107.79 31.3481 107.485 31.2273 107.097 31.2273C106.829 31.2273 106.59 31.2853 106.379 31.4013C106.171 31.5173 106.007 31.6866 105.886 31.9091C105.765 32.1317 105.705 32.4016 105.705 32.7188ZM113.003 36.1137C112.478 36.1137 112.024 35.9977 111.643 35.7657C111.264 35.5313 110.972 35.2046 110.766 34.7856C110.562 34.3642 110.461 33.8741 110.461 33.3154C110.461 32.7567 110.562 32.2643 110.766 31.8381C110.972 31.4096 111.258 31.0758 111.625 30.8367C111.995 30.5952 112.426 30.4745 112.918 30.4745C113.202 30.4745 113.483 30.5218 113.76 30.6165C114.037 30.7112 114.289 30.8651 114.516 31.0782C114.743 31.2889 114.924 31.5682 115.059 31.9162C115.194 32.2643 115.262 32.6928 115.262 33.2018V33.5569H111.057V32.8324H114.409C114.409 32.5247 114.348 32.25 114.225 32.0086C114.104 31.7671 113.931 31.5765 113.706 31.4368C113.484 31.2972 113.221 31.2273 112.918 31.2273C112.584 31.2273 112.295 31.3102 112.051 31.4759C111.81 31.6393 111.624 31.8523 111.494 32.1151C111.364 32.3779 111.299 32.6596 111.299 32.9603V33.4432C111.299 33.8552 111.37 34.2044 111.512 34.4908C111.656 34.7749 111.856 34.9915 112.112 35.1407C112.368 35.2875 112.665 35.3608 113.003 35.3608C113.223 35.3608 113.422 35.3301 113.6 35.2685C113.78 35.2046 113.935 35.1099 114.065 34.9844C114.195 34.8566 114.296 34.698 114.367 34.5086L115.176 34.7358C115.091 35.0105 114.948 35.2519 114.747 35.4603C114.546 35.6662 114.297 35.8272 114.001 35.9432C113.705 36.0569 113.373 36.1137 113.003 36.1137ZM119.349 36V30.5455H120.159V31.3694H120.216C120.315 31.0995 120.495 30.8805 120.755 30.7124C121.016 30.5443 121.309 30.4603 121.636 30.4603C121.698 30.4603 121.775 30.4615 121.867 30.4638C121.959 30.4662 122.029 30.4697 122.076 30.4745V31.3268C122.048 31.3197 121.983 31.309 121.881 31.2948C121.782 31.2782 121.676 31.2699 121.565 31.2699C121.3 31.2699 121.063 31.3256 120.855 31.4368C120.649 31.5457 120.485 31.6973 120.365 31.8914C120.246 32.0831 120.187 32.3021 120.187 32.5483V36H119.349ZM125.191 36.1137C124.665 36.1137 124.212 35.9977 123.831 35.7657C123.452 35.5313 123.159 35.2046 122.953 34.7856C122.75 34.3642 122.648 33.8741 122.648 33.3154C122.648 32.7567 122.75 32.2643 122.953 31.8381C123.159 31.4096 123.446 31.0758 123.813 30.8367C124.182 30.5952 124.613 30.4745 125.105 30.4745C125.39 30.4745 125.67 30.5218 125.947 30.6165C126.224 30.7112 126.476 30.8651 126.703 31.0782C126.931 31.2889 127.112 31.5682 127.247 31.9162C127.382 32.2643 127.449 32.6928 127.449 33.2018V33.5569H123.245V32.8324H126.597C126.597 32.5247 126.535 32.25 126.412 32.0086C126.292 31.7671 126.119 31.5765 125.894 31.4368C125.671 31.2972 125.408 31.2273 125.105 31.2273C124.772 31.2273 124.483 31.3102 124.239 31.4759C123.998 31.6393 123.812 31.8523 123.681 32.1151C123.551 32.3779 123.486 32.6596 123.486 32.9603V33.4432C123.486 33.8552 123.557 34.2044 123.699 34.4908C123.844 34.7749 124.044 34.9915 124.299 35.1407C124.555 35.2875 124.852 35.3608 125.191 35.3608C125.411 35.3608 125.61 35.3301 125.787 35.2685C125.967 35.2046 126.122 35.1099 126.252 34.9844C126.383 34.8566 126.483 34.698 126.554 34.5086L127.364 34.7358C127.279 35.0105 127.136 35.2519 126.934 35.4603C126.733 35.6662 126.484 35.8272 126.189 35.9432C125.893 36.0569 125.56 36.1137 125.191 36.1137ZM125.219 38.1307C124.928 38.1307 124.686 38.0502 124.495 37.8893C124.305 37.7306 124.211 37.4986 124.211 37.1932C124.211 37.018 124.253 36.8429 124.338 36.6677C124.424 36.4925 124.561 36.3232 124.75 36.1598C124.94 35.9965 125.191 35.8438 125.503 35.7018L125.887 36C125.674 36.1563 125.483 36.322 125.315 36.4972C125.147 36.6724 125.063 36.8665 125.063 37.0796C125.063 37.1861 125.089 37.269 125.141 37.3282C125.193 37.3897 125.29 37.4205 125.432 37.4205C125.539 37.4205 125.633 37.4063 125.716 37.3779C125.799 37.3495 125.865 37.3211 125.915 37.2927L125.972 37.9177C125.894 37.9674 125.791 38.0147 125.663 38.0597C125.538 38.1071 125.39 38.1307 125.219 38.1307ZM130.94 36.1137C130.429 36.1137 129.988 35.9929 129.619 35.7515C129.25 35.51 128.966 35.1774 128.767 34.7536C128.568 34.3298 128.468 33.8457 128.468 33.3012C128.468 32.7472 128.57 32.2583 128.774 31.8346C128.98 31.4084 129.266 31.0758 129.633 30.8367C130.002 30.5952 130.433 30.4745 130.926 30.4745C131.309 30.4745 131.655 30.5455 131.963 30.6875C132.27 30.8296 132.523 31.0285 132.719 31.2841C132.916 31.5398 133.038 31.8381 133.085 32.179H132.247C132.183 31.9304 132.041 31.7103 131.821 31.5185C131.603 31.3244 131.309 31.2273 130.94 31.2273C130.613 31.2273 130.327 31.3125 130.081 31.483C129.837 31.6511 129.646 31.889 129.509 32.1968C129.374 32.5022 129.306 32.8608 129.306 33.2728C129.306 33.6942 129.373 34.0611 129.505 34.3736C129.64 34.6861 129.83 34.9288 130.074 35.1016C130.32 35.2744 130.609 35.3608 130.94 35.3608C131.158 35.3608 131.355 35.323 131.533 35.2472C131.711 35.1714 131.861 35.0625 131.984 34.9205C132.107 34.7785 132.195 34.608 132.247 34.4091H133.085C133.038 34.7311 132.92 35.0211 132.733 35.2792C132.549 35.5348 132.304 35.7384 131.998 35.89C131.695 36.0391 131.342 36.1137 130.94 36.1137ZM136.597 36.1137C136.071 36.1137 135.618 35.9977 135.237 35.7657C134.858 35.5313 134.566 35.2046 134.36 34.7856C134.156 34.3642 134.054 33.8741 134.054 33.3154C134.054 32.7567 134.156 32.2643 134.36 31.8381C134.566 31.4096 134.852 31.0758 135.219 30.8367C135.588 30.5952 136.019 30.4745 136.512 30.4745C136.796 30.4745 137.076 30.5218 137.353 30.6165C137.63 30.7112 137.882 30.8651 138.11 31.0782C138.337 31.2889 138.518 31.5682 138.653 31.9162C138.788 32.2643 138.855 32.6928 138.855 33.2018V33.5569H134.651V32.8324H138.003C138.003 32.5247 137.942 32.25 137.819 32.0086C137.698 31.7671 137.525 31.5765 137.3 31.4368C137.078 31.2972 136.815 31.2273 136.512 31.2273C136.178 31.2273 135.889 31.3102 135.645 31.4759C135.404 31.6393 135.218 31.8523 135.088 32.1151C134.958 32.3779 134.892 32.6596 134.892 32.9603V33.4432C134.892 33.8552 134.963 34.2044 135.105 34.4908C135.25 34.7749 135.45 34.9915 135.706 35.1407C135.961 35.2875 136.258 35.3608 136.597 35.3608C136.817 35.3608 137.016 35.3301 137.194 35.2685C137.373 35.2046 137.529 35.1099 137.659 34.9844C137.789 34.8566 137.89 34.698 137.961 34.5086L138.77 34.7358C138.685 35.0105 138.542 35.2519 138.341 35.4603C138.139 35.6662 137.891 35.8272 137.595 35.9432C137.299 36.0569 136.966 36.1137 136.597 36.1137ZM145.002 36.1137C144.548 36.1137 144.147 35.9989 143.799 35.7692C143.451 35.5372 143.178 35.2105 142.982 34.7891C142.785 34.3653 142.687 33.8646 142.687 33.287C142.687 32.7141 142.785 32.2169 142.982 31.7955C143.178 31.3741 143.452 31.0486 143.802 30.8189C144.153 30.5893 144.557 30.4745 145.017 30.4745C145.372 30.4745 145.652 30.5337 145.858 30.652C146.067 30.768 146.225 30.9006 146.334 31.0498C146.445 31.1965 146.532 31.3173 146.593 31.412H146.664V28.7273H147.502V36H146.693V35.162H146.593C146.532 35.2614 146.444 35.3869 146.331 35.5384C146.217 35.6875 146.055 35.8213 145.844 35.9397C145.633 36.0557 145.353 36.1137 145.002 36.1137ZM145.116 35.3608C145.452 35.3608 145.736 35.2732 145.968 35.0981C146.2 34.9205 146.377 34.6755 146.498 34.363C146.618 34.0481 146.679 33.6847 146.679 33.2728C146.679 32.8656 146.619 32.5093 146.501 32.2039C146.383 31.8961 146.208 31.657 145.975 31.4866C145.743 31.3137 145.457 31.2273 145.116 31.2273C144.761 31.2273 144.465 31.3185 144.228 31.5008C143.994 31.6807 143.818 31.9257 143.699 32.2358C143.583 32.5436 143.525 32.8893 143.525 33.2728C143.525 33.661 143.584 34.0138 143.703 34.331C143.824 34.6459 144.001 34.8968 144.235 35.0839C144.472 35.2685 144.766 35.3608 145.116 35.3608ZM151.37 36.1137C150.877 36.1137 150.445 35.9965 150.074 35.7621C149.704 35.5277 149.415 35.1999 149.207 34.7785C149.001 34.3571 148.898 33.8646 148.898 33.3012C148.898 32.733 149.001 32.237 149.207 31.8133C149.415 31.3895 149.704 31.0604 150.074 30.826C150.445 30.5917 150.877 30.4745 151.37 30.4745C151.862 30.4745 152.293 30.5917 152.662 30.826C153.034 31.0604 153.323 31.3895 153.529 31.8133C153.737 32.237 153.841 32.733 153.841 33.3012C153.841 33.8646 153.737 34.3571 153.529 34.7785C153.323 35.1999 153.034 35.5277 152.662 35.7621C152.293 35.9965 151.862 36.1137 151.37 36.1137ZM151.37 35.3608C151.744 35.3608 152.051 35.265 152.293 35.0732C152.534 34.8814 152.713 34.6293 152.829 34.3168C152.945 34.0043 153.003 33.6658 153.003 33.3012C153.003 32.9366 152.945 32.5969 152.829 32.282C152.713 31.9671 152.534 31.7126 152.293 31.5185C152.051 31.3244 151.744 31.2273 151.37 31.2273C150.996 31.2273 150.688 31.3244 150.446 31.5185C150.205 31.7126 150.026 31.9671 149.91 32.282C149.794 32.5969 149.736 32.9366 149.736 33.3012C149.736 33.6658 149.794 34.0043 149.91 34.3168C150.026 34.6293 150.205 34.8814 150.446 35.0732C150.688 35.265 150.996 35.3608 151.37 35.3608ZM157.933 38.0455V30.5455H158.743V31.412H158.842C158.904 31.3173 158.989 31.1965 159.098 31.0498C159.209 30.9006 159.368 30.768 159.574 30.652C159.782 30.5337 160.064 30.4745 160.419 30.4745C160.878 30.4745 161.283 30.5893 161.633 30.8189C161.984 31.0486 162.257 31.3741 162.454 31.7955C162.65 32.2169 162.748 32.7141 162.748 33.287C162.748 33.8646 162.65 34.3653 162.454 34.7891C162.257 35.2105 161.985 35.5372 161.637 35.7692C161.289 35.9989 160.888 36.1137 160.433 36.1137C160.083 36.1137 159.802 36.0557 159.591 35.9397C159.381 35.8213 159.219 35.6875 159.105 35.5384C158.991 35.3869 158.904 35.2614 158.842 35.162H158.771V38.0455H157.933ZM158.757 33.2728C158.757 33.6847 158.817 34.0481 158.938 34.363C159.059 34.6755 159.235 34.9205 159.467 35.0981C159.699 35.2732 159.983 35.3608 160.319 35.3608C160.67 35.3608 160.962 35.2685 161.197 35.0839C161.433 34.8968 161.611 34.6459 161.729 34.331C161.85 34.0138 161.91 33.661 161.91 33.2728C161.91 32.8893 161.851 32.5436 161.733 32.2358C161.617 31.9257 161.44 31.6807 161.204 31.5008C160.969 31.3185 160.675 31.2273 160.319 31.2273C159.979 31.2273 159.692 31.3137 159.46 31.4866C159.228 31.657 159.053 31.8961 158.934 32.2039C158.816 32.5093 158.757 32.8656 158.757 33.2728ZM164.027 36V30.5455H164.836V31.3694H164.893C164.993 31.0995 165.173 30.8805 165.433 30.7124C165.693 30.5443 165.987 30.4603 166.314 30.4603C166.375 30.4603 166.452 30.4615 166.545 30.4638C166.637 30.4662 166.707 30.4697 166.754 30.4745V31.3268C166.726 31.3197 166.661 31.309 166.559 31.2948C166.459 31.2782 166.354 31.2699 166.243 31.2699C165.978 31.2699 165.741 31.3256 165.532 31.4368C165.327 31.5457 165.163 31.6973 165.042 31.8914C164.924 32.0831 164.865 32.3021 164.865 32.5483V36H164.027ZM169.353 36.1279C169.007 36.1279 168.693 36.0628 168.412 35.9326C168.13 35.8 167.906 35.6094 167.74 35.3608C167.575 35.1099 167.492 34.8069 167.492 34.4518C167.492 34.1393 167.553 33.8859 167.676 33.6918C167.8 33.4953 167.964 33.3414 168.17 33.2302C168.376 33.1189 168.603 33.036 168.852 32.9816C169.103 32.9248 169.355 32.8798 169.608 32.8466C169.94 32.804 170.208 32.7721 170.414 32.7508C170.623 32.7271 170.774 32.688 170.869 32.6336C170.966 32.5791 171.015 32.4844 171.015 32.3495V32.3211C171.015 31.9707 170.919 31.6984 170.727 31.5043C170.538 31.3102 170.25 31.2131 169.864 31.2131C169.464 31.2131 169.15 31.3007 168.923 31.4759C168.696 31.6511 168.536 31.8381 168.444 32.037L167.648 31.7529C167.79 31.4214 167.98 31.1634 168.216 30.9787C168.455 30.7917 168.716 30.6615 168.998 30.5881C169.282 30.5124 169.561 30.4745 169.836 30.4745C170.011 30.4745 170.212 30.4958 170.439 30.5384C170.669 30.5786 170.89 30.6627 171.103 30.7905C171.319 30.9184 171.498 31.1113 171.64 31.3694C171.782 31.6274 171.853 31.9731 171.853 32.4063V36H171.015V35.2614H170.972C170.915 35.3798 170.82 35.5064 170.688 35.6414C170.555 35.7763 170.379 35.8911 170.159 35.9858C169.939 36.0805 169.67 36.1279 169.353 36.1279ZM169.48 35.375C169.812 35.375 170.091 35.3099 170.319 35.1797C170.548 35.0495 170.721 34.8814 170.837 34.6755C170.955 34.4695 171.015 34.2529 171.015 34.0256V33.2586C170.979 33.3012 170.901 33.3402 170.78 33.3758C170.662 33.4089 170.525 33.4385 170.368 33.4645C170.214 33.4882 170.064 33.5095 169.917 33.5285C169.773 33.545 169.656 33.5592 169.566 33.5711C169.348 33.5995 169.144 33.6456 168.955 33.7096C168.768 33.7711 168.616 33.8646 168.5 33.9901C168.387 34.1132 168.33 34.2813 168.33 34.4944C168.33 34.7856 168.438 35.0057 168.653 35.1549C168.871 35.3017 169.147 35.375 169.48 35.375ZM175.598 36.1137C175.087 36.1137 174.646 35.9929 174.277 35.7515C173.908 35.51 173.624 35.1774 173.425 34.7536C173.226 34.3298 173.127 33.8457 173.127 33.3012C173.127 32.7472 173.228 32.2583 173.432 31.8346C173.638 31.4084 173.924 31.0758 174.291 30.8367C174.661 30.5952 175.092 30.4745 175.584 30.4745C175.968 30.4745 176.313 30.5455 176.621 30.6875C176.929 30.8296 177.181 31.0285 177.377 31.2841C177.574 31.5398 177.696 31.8381 177.743 32.179H176.905C176.841 31.9304 176.699 31.7103 176.479 31.5185C176.261 31.3244 175.968 31.2273 175.598 31.2273C175.271 31.2273 174.985 31.3125 174.739 31.483C174.495 31.6511 174.304 31.889 174.167 32.1968C174.032 32.5022 173.965 32.8608 173.965 33.2728C173.965 33.6942 174.031 34.0611 174.164 34.3736C174.298 34.6861 174.488 34.9288 174.732 35.1016C174.978 35.2744 175.267 35.3608 175.598 35.3608C175.816 35.3608 176.014 35.323 176.191 35.2472C176.369 35.1714 176.519 35.0625 176.642 34.9205C176.765 34.7785 176.853 34.608 176.905 34.4091H177.743C177.696 34.7311 177.579 35.0211 177.392 35.2792C177.207 35.5348 176.962 35.7384 176.656 35.89C176.353 36.0391 176.001 36.1137 175.598 36.1137ZM179.508 38.0455C179.366 38.0455 179.239 38.0337 179.128 38.01C179.017 37.9887 178.94 37.9674 178.897 37.9461L179.11 37.2074C179.314 37.2595 179.494 37.2785 179.65 37.2643C179.806 37.25 179.945 37.1802 180.066 37.0547C180.189 36.9316 180.301 36.7316 180.403 36.4546L180.559 36.0285L178.542 30.5455H179.451L180.957 34.8921H181.014L182.519 30.5455H183.428L181.113 36.7955C181.009 37.0772 180.88 37.3104 180.726 37.4951C180.572 37.6821 180.393 37.8206 180.19 37.9106C179.989 38.0005 179.761 38.0455 179.508 38.0455Z" fill="white"/>
<defs>
<linearGradient id="paint0_linear_6585_26139" x1="290.002" y1="24.0568" x2="-0.00186647" y2="24.0342" gradientUnits="userSpaceOnUse">
<stop offset="0.0001" stop-color="#FE9A79"/>
<stop offset="0.5001" stop-color="#F8C07D"/>
<stop offset="1" stop-color="#FEE298"/>
</linearGradient>
<linearGradient id="paint1_linear_6585_26139" x1="11.9999" y1="23.4846" x2="30.0005" y2="23.4849" gradientUnits="userSpaceOnUse">
<stop offset="0.0001" stop-color="#FE9A79"/>
<stop offset="0.5001" stop-color="#F8C07D"/>
<stop offset="1" stop-color="#FEE298"/>
</linearGradient>
<clipPath id="clip0_6585_26139">
<rect width="18" height="19" fill="white" transform="translate(12 14.5)"/>
</clipPath>
</defs>
</svg>
