<svg width="270" height="61" viewBox="0 0 270 61" fill="none" xmlns="http://www.w3.org/2000/svg">
<mask id="path-1-inside-1_6585_26610" fill="white">
<path d="M270 49C270 55.6275 264.627 61 258 61L12 61C5.37259 61 4.69686e-07 55.6274 1.04907e-06 49L4.28372e-06 12C4.8631e-06 5.37259 5.37259 4.69687e-07 12 1.04907e-06L258 2.25551e-05C264.627 2.31345e-05 270 5.37261 270 12L270 49Z"/>
</mask>
<path d="M270 49C270 55.6275 264.627 61 258 61L12 61C5.37259 61 4.69686e-07 55.6274 1.04907e-06 49L4.28372e-06 12C4.8631e-06 5.37259 5.37259 4.69687e-07 12 1.04907e-06L258 2.25551e-05C264.627 2.31345e-05 270 5.37261 270 12L270 49Z" fill="#F0642E"/>
<path d="M270 61L0 61L270 61ZM4.28372e-06 12C4.91139e-06 4.8203 5.82032 -0.999999 13 -0.999999L258 -0.999977C265.18 -0.999977 271 4.82032 271 12L269 12C269 5.92489 264.075 1.00002 258 1.00002L12 1C5.37259 1 4.81482e-06 5.92487 4.28372e-06 12ZM258 -0.999977C265.18 -0.999977 271 4.82032 271 12L271 48C271 55.1797 265.18 61 258 61C264.075 61 269 55.6275 269 49L269 12C269 5.92489 264.075 1.00002 258 1.00002L258 -0.999977ZM0 61L5.33279e-06 0L0 61Z" fill="url(#paint0_linear_6585_26610)" mask="url(#path-1-inside-1_6585_26610)"/>
<g clip-path="url(#clip0_6585_26610)">
<path d="M20.7535 38.7011C19.7206 35.0765 15.9442 31.3143 12.3059 30.2853C11.898 30.1542 11.898 29.8658 12.3059 29.7282C15.9507 28.6926 19.7206 24.9369 20.76 21.3058C20.8719 20.906 21.1416 20.906 21.2535 21.3058C22.2864 24.9369 26.0628 28.6926 29.6945 29.7282C30.1024 29.8593 30.1024 30.1542 29.6945 30.2853C26.0562 31.3143 22.2798 35.0765 21.2469 38.7011C21.1351 39.1075 20.8653 39.1075 20.7535 38.7011Z" fill="url(#paint1_linear_6585_26610)"/>
</g>
<path d="M42.504 14.664C42.504 13.176 43.704 12.168 45.492 12.168C47.148 12.168 48.216 13.092 48.312 14.592H47.124C47.064 13.728 46.452 13.224 45.48 13.224C44.388 13.224 43.68 13.776 43.68 14.628C43.68 15.324 44.076 15.744 44.892 15.936L46.32 16.272C47.736 16.596 48.456 17.364 48.456 18.588C48.456 20.148 47.244 21.144 45.396 21.144C43.632 21.144 42.456 20.22 42.384 18.732H43.584C43.608 19.56 44.304 20.088 45.396 20.088C46.548 20.088 47.28 19.548 47.28 18.684C47.28 18 46.908 17.568 46.08 17.376L44.652 17.052C43.236 16.728 42.504 15.912 42.504 14.664ZM49.1778 23.628V22.704H49.9338C50.4738 22.704 50.9058 22.62 51.1818 21.876L51.3858 21.312L49.0218 15.132H50.2098L51.9138 19.86L53.6538 15.132H54.8178L52.0458 22.32C51.6498 23.328 51.0618 23.748 50.1618 23.748C49.7898 23.748 49.4778 23.7 49.1778 23.628ZM56.8463 21H55.7183V15.132H56.7383L56.8583 16.032C57.2303 15.36 57.9743 14.964 58.8023 14.964C60.3503 14.964 61.0583 15.912 61.0583 17.412V21H59.9303V17.664C59.9303 16.476 59.3783 15.996 58.5143 15.996C57.4583 15.996 56.8463 16.752 56.8463 17.892V21ZM62.2367 18.072C62.2367 16.236 63.4007 14.964 65.1167 14.964C66.5927 14.964 67.6247 15.804 67.8287 17.112H66.7007C66.5087 16.368 65.9087 15.972 65.1527 15.972C64.0847 15.972 63.3527 16.788 63.3527 18.06C63.3527 19.32 64.0367 20.136 65.1047 20.136C65.9087 20.136 66.5087 19.716 66.7127 19.02H67.8407C67.6127 20.292 66.5207 21.144 65.1047 21.144C63.3767 21.144 62.2367 19.92 62.2367 18.072ZM70.1588 20.988H69.0308V12.168H70.1588V16.032C70.5308 15.396 71.2388 14.964 72.1508 14.964C73.6508 14.964 74.3708 15.912 74.3708 17.412V21H73.2428V17.664C73.2428 16.476 72.6788 15.996 71.8388 15.996C70.7468 15.996 70.1588 16.788 70.1588 17.796V20.988ZM79.2932 15.084V16.116H78.7892C77.7212 16.116 77.0612 16.764 77.0612 17.892V21H75.9332V15.144H76.9892L77.0612 16.032C77.3012 15.42 77.8892 15.012 78.6932 15.012C78.8972 15.012 79.0652 15.036 79.2932 15.084ZM79.7562 18.06C79.7562 16.248 81.0522 14.976 82.8162 14.976C84.5682 14.976 85.8642 16.248 85.8642 18.06C85.8642 19.872 84.5682 21.144 82.8162 21.144C81.0522 21.144 79.7562 19.872 79.7562 18.06ZM80.8962 18.06C80.8962 19.284 81.6762 20.136 82.8162 20.136C83.9442 20.136 84.7362 19.284 84.7362 18.06C84.7362 16.836 83.9442 15.984 82.8162 15.984C81.6762 15.984 80.8962 16.836 80.8962 18.06ZM88.2409 21H87.1129V15.132H88.1329L88.2529 16.032C88.6249 15.36 89.3689 14.964 90.1969 14.964C91.7449 14.964 92.4529 15.912 92.4529 17.412V21H91.3249V17.664C91.3249 16.476 90.7729 15.996 89.9089 15.996C88.8529 15.996 88.2409 16.752 88.2409 17.892V21ZM94.5672 13.74C94.1592 13.74 93.8232 13.404 93.8232 12.996C93.8232 12.576 94.1592 12.252 94.5672 12.252C94.9752 12.252 95.3112 12.576 95.3112 12.996C95.3112 13.404 94.9752 13.74 94.5672 13.74ZM94.0152 21V15.132H95.1432V21H94.0152ZM100.993 21H96.4208V20.088L99.5888 16.08H96.4208V15.132H100.993V16.056L97.8008 20.052H100.993V21ZM103.981 21.144C102.721 21.144 101.977 20.436 101.977 19.368C101.977 18.288 102.781 17.616 104.161 17.508L106.009 17.364V17.196C106.009 16.212 105.421 15.864 104.629 15.864C103.681 15.864 103.141 16.284 103.141 16.992H102.157C102.157 15.768 103.165 14.964 104.677 14.964C106.129 14.964 107.113 15.732 107.113 17.316V21H106.153L106.033 20.052C105.733 20.724 104.929 21.144 103.981 21.144ZM104.305 20.268C105.373 20.268 106.021 19.572 106.021 18.468V18.156L104.521 18.276C103.525 18.372 103.117 18.756 103.117 19.332C103.117 19.956 103.573 20.268 104.305 20.268ZM108.291 18.072C108.291 16.236 109.455 14.964 111.171 14.964C112.647 14.964 113.679 15.804 113.883 17.112H112.755C112.563 16.368 111.963 15.972 111.207 15.972C110.139 15.972 109.407 16.788 109.407 18.06C109.407 19.32 110.091 20.136 111.159 20.136C111.963 20.136 112.563 19.716 112.767 19.02H113.895C113.667 20.292 112.575 21.144 111.159 21.144C109.431 21.144 108.291 19.92 108.291 18.072ZM115.65 13.74C115.23 13.74 114.906 13.404 114.906 12.996C114.906 12.576 115.23 12.252 115.65 12.252C116.046 12.252 116.394 12.576 116.394 12.996C116.394 13.404 116.046 13.74 115.65 13.74ZM113.598 23.664L113.79 22.644C114.018 22.704 114.15 22.728 114.33 22.728C114.87 22.728 115.086 22.416 115.086 21.756V15.132H116.214V21.864C116.214 23.04 115.566 23.772 114.426 23.772C114.126 23.772 113.934 23.76 113.598 23.664ZM119.567 21.144C118.307 21.144 117.563 20.436 117.563 19.368C117.563 18.288 118.367 17.616 119.747 17.508L121.595 17.364V17.196C121.595 16.212 121.007 15.864 120.215 15.864C119.267 15.864 118.727 16.284 118.727 16.992H117.743C117.743 15.768 118.751 14.964 120.263 14.964C121.715 14.964 122.699 15.732 122.699 17.316V21H121.739L121.619 20.052C121.319 20.724 120.515 21.144 119.567 21.144ZM119.891 20.268C120.959 20.268 121.607 19.572 121.607 18.468V18.156L120.107 18.276C119.111 18.372 118.703 18.756 118.703 19.332C118.703 19.956 119.159 20.268 119.891 20.268ZM43.368 26.74C42.96 26.74 42.624 26.404 42.624 25.996C42.624 25.576 42.96 25.252 43.368 25.252C43.776 25.252 44.112 25.576 44.112 25.996C44.112 26.404 43.776 26.74 43.368 26.74ZM42.816 34V28.132H43.944V34H42.816ZM48.4789 31.06C48.4789 29.248 49.7749 27.976 51.5389 27.976C53.2909 27.976 54.5869 29.248 54.5869 31.06C54.5869 32.872 53.2909 34.144 51.5389 34.144C49.7749 34.144 48.4789 32.872 48.4789 31.06ZM49.6189 31.06C49.6189 32.284 50.3989 33.136 51.5389 33.136C52.6669 33.136 53.4589 32.284 53.4589 31.06C53.4589 29.836 52.6669 28.984 51.5389 28.984C50.3989 28.984 49.6189 29.836 49.6189 31.06ZM55.3555 32.296H56.4355C56.4355 32.896 56.8915 33.256 57.6355 33.256C58.4275 33.256 58.8835 32.932 58.8835 32.392C58.8835 31.996 58.6915 31.756 58.0795 31.6L57.0475 31.36C56.0035 31.108 55.5115 30.592 55.5115 29.728C55.5115 28.648 56.4235 27.964 57.7195 27.964C59.0035 27.964 59.8435 28.684 59.8675 29.8H58.7875C58.7635 29.212 58.3675 28.84 57.6835 28.84C56.9755 28.84 56.5795 29.152 56.5795 29.692C56.5795 30.088 56.8675 30.352 57.4435 30.496L58.4755 30.748C59.4715 30.988 59.9635 31.444 59.9635 32.32C59.9635 33.436 59.0035 34.144 57.6115 34.144C56.2315 34.144 55.3555 33.412 55.3555 32.296ZM65.3561 34H60.7841V33.088L63.9521 29.08H60.7841V28.132H65.3561V29.056L62.1641 33.052H65.3561V34ZM66.1156 31.072C66.1156 29.236 67.2796 27.964 68.9956 27.964C70.4716 27.964 71.5036 28.804 71.7076 30.112H70.5796C70.3876 29.368 69.7876 28.972 69.0316 28.972C67.9636 28.972 67.2316 29.788 67.2316 31.06C67.2316 32.32 67.9156 33.136 68.9836 33.136C69.7876 33.136 70.3876 32.716 70.5916 32.02H71.7196C71.4916 33.292 70.3996 34.144 68.9836 34.144C67.2556 34.144 66.1156 32.92 66.1156 31.072ZM76.8874 34H72.3154V33.088L75.4834 29.08H72.3154V28.132H76.8874V29.056L73.6954 33.052H76.8874V34ZM80.5628 34.144C78.8348 34.144 77.6468 32.896 77.6468 31.072C77.6468 29.236 78.8108 27.964 80.5148 27.964C82.1828 27.964 83.2748 29.116 83.2748 30.856V31.276L78.7388 31.288C78.8228 32.524 79.4708 33.208 80.5868 33.208C81.4628 33.208 82.0388 32.848 82.2308 32.176H83.2868C83.0708 33.1 82.4828 33.736 81.6068 34H81.6188C81.0788 34.204 80.8508 34.552 80.8508 34.84C80.8508 35.104 81.0308 35.248 81.2948 35.248C81.3788 35.248 81.4748 35.236 81.5708 35.188V35.992C81.4148 36.052 81.2588 36.076 81.0668 36.076C80.4428 36.076 80.0348 35.656 80.0348 35.104C80.0348 34.744 80.2268 34.396 80.6108 34.144H80.5628ZM80.5148 28.912C79.5308 28.912 78.9068 29.5 78.7628 30.532H82.1468C82.1468 29.56 81.5108 28.912 80.5148 28.912ZM86.8867 34.144C85.1828 34.144 84.1508 32.872 84.1508 31.084C84.1508 29.284 85.1948 27.964 86.9348 27.964C87.8348 27.964 88.5908 28.36 88.9868 29.08V25.168H90.1028V34H89.0948L88.9988 32.932C88.6148 33.736 87.8228 34.144 86.8867 34.144ZM87.1148 33.124C88.2668 33.124 88.9748 32.272 88.9748 31.048C88.9748 29.848 88.2668 28.984 87.1148 28.984C85.9628 28.984 85.2908 29.848 85.2908 31.048C85.2908 32.26 85.9628 33.124 87.1148 33.124ZM92.8581 34H91.7301V28.132H92.7501L92.8701 29.032C93.2421 28.36 93.9861 27.964 94.8141 27.964C96.3621 27.964 97.0701 28.912 97.0701 30.412V34H95.9421V30.664C95.9421 29.476 95.3901 28.996 94.5261 28.996C93.4701 28.996 92.8581 29.752 92.8581 30.892V34ZM98.2484 31.06C98.2484 29.248 99.5444 27.976 101.308 27.976C103.06 27.976 104.356 29.248 104.356 31.06C104.356 32.872 103.06 34.144 101.308 34.144C99.5444 34.144 98.2484 32.872 98.2484 31.06ZM99.3884 31.06C99.3884 32.284 100.168 33.136 101.308 33.136C102.436 33.136 103.228 32.284 103.228 31.06C103.228 29.836 102.436 28.984 101.308 28.984C100.168 28.984 99.3884 29.836 99.3884 31.06ZM108.977 25.648L107.945 27.244H107.069L107.873 25.648H108.977ZM105.125 32.296H106.205C106.205 32.896 106.661 33.256 107.405 33.256C108.197 33.256 108.653 32.932 108.653 32.392C108.653 31.996 108.461 31.756 107.849 31.6L106.817 31.36C105.773 31.108 105.281 30.592 105.281 29.728C105.281 28.648 106.193 27.964 107.489 27.964C108.773 27.964 109.613 28.684 109.637 29.8H108.557C108.533 29.212 108.137 28.84 107.453 28.84C106.745 28.84 106.349 29.152 106.349 29.692C106.349 30.088 106.637 30.352 107.213 30.496L108.245 30.748C109.241 30.988 109.733 31.444 109.733 32.32C109.733 33.436 108.773 34.144 107.381 34.144C106.001 34.144 105.125 33.412 105.125 32.296ZM114.908 25.852L113.864 27.448H113L113.804 25.852H114.908ZM110.6 31.072C110.6 29.236 111.764 27.964 113.48 27.964C114.956 27.964 115.988 28.804 116.192 30.112H115.064C114.872 29.368 114.272 28.972 113.516 28.972C112.448 28.972 111.716 29.788 111.716 31.06C111.716 32.32 112.4 33.136 113.468 33.136C114.272 33.136 114.872 32.716 115.076 32.02H116.204C115.976 33.292 114.884 34.144 113.468 34.144C111.74 34.144 110.6 32.92 110.6 31.072ZM120.291 31.072C120.291 29.236 121.455 27.964 123.171 27.964C124.647 27.964 125.679 28.804 125.883 30.112H124.755C124.563 29.368 123.963 28.972 123.207 28.972C122.139 28.972 121.407 29.788 121.407 31.06C121.407 32.32 122.091 33.136 123.159 33.136C123.963 33.136 124.563 32.716 124.767 32.02H125.895C125.667 33.292 124.575 34.144 123.159 34.144C121.431 34.144 120.291 32.92 120.291 31.072ZM131.063 34H126.491V33.088L129.659 29.08H126.491V28.132H131.063V29.056L127.871 33.052H131.063V34ZM134.052 34.144C132.792 34.144 132.048 33.436 132.048 32.368C132.048 31.288 132.852 30.616 134.232 30.508L136.08 30.364V30.196C136.08 29.212 135.492 28.864 134.7 28.864C133.752 28.864 133.212 29.284 133.212 29.992H132.228C132.228 28.768 133.236 27.964 134.748 27.964C136.2 27.964 137.184 28.732 137.184 30.316V34H136.224L136.104 33.052C135.804 33.724 135 34.144 134.052 34.144ZM134.376 33.268C135.444 33.268 136.092 32.572 136.092 31.468V31.156L134.592 31.276C133.596 31.372 133.188 31.756 133.188 32.332C133.188 32.956 133.644 33.268 134.376 33.268ZM138.266 32.296H139.346C139.346 32.896 139.802 33.256 140.546 33.256C141.338 33.256 141.794 32.932 141.794 32.392C141.794 31.996 141.602 31.756 140.99 31.6L139.958 31.36C138.914 31.108 138.422 30.592 138.422 29.728C138.422 28.648 139.334 27.964 140.63 27.964C141.914 27.964 142.754 28.684 142.778 29.8H141.698C141.674 29.212 141.278 28.84 140.594 28.84C139.886 28.84 139.49 29.152 139.49 29.692C139.49 30.088 139.778 30.352 140.354 30.496L141.386 30.748C142.382 30.988 142.874 31.444 142.874 32.32C142.874 33.436 141.914 34.144 140.522 34.144C139.142 34.144 138.266 33.412 138.266 32.296ZM148.181 28.132H149.297V34H148.289L148.169 33.112C147.833 33.724 147.053 34.144 146.189 34.144C144.821 34.144 144.053 33.22 144.053 31.78V28.132H145.181V31.408C145.181 32.668 145.721 33.148 146.585 33.148C147.617 33.148 148.181 32.488 148.181 31.228V28.132Z" fill="white"/>
<path d="M49.017 45.3637C49.017 46.1307 48.8786 46.7936 48.6016 47.3523C48.3246 47.911 47.9446 48.3419 47.4616 48.6449C46.9787 48.948 46.4271 49.0995 45.8068 49.0995C45.1866 49.0995 44.6349 48.948 44.152 48.6449C43.669 48.3419 43.2891 47.911 43.0121 47.3523C42.7351 46.7936 42.5966 46.1307 42.5966 45.3637C42.5966 44.5966 42.7351 43.9338 43.0121 43.375C43.2891 42.8163 43.669 42.3855 44.152 42.0824C44.6349 41.7794 45.1866 41.6279 45.8068 41.6279C46.4271 41.6279 46.9787 41.7794 47.4616 42.0824C47.9446 42.3855 48.3246 42.8163 48.6016 43.375C48.8786 43.9338 49.017 44.5966 49.017 45.3637ZM48.1648 45.3637C48.1648 44.7339 48.0594 44.2025 47.8487 43.7692C47.6404 43.336 47.3575 43.0081 47 42.7856C46.6449 42.563 46.2472 42.4518 45.8068 42.4518C45.3665 42.4518 44.9676 42.563 44.6101 42.7856C44.255 43.0081 43.9721 43.336 43.7614 43.7692C43.553 44.2025 43.4489 44.7339 43.4489 45.3637C43.4489 45.9934 43.553 46.5249 43.7614 46.9581C43.9721 47.3914 44.255 47.7193 44.6101 47.9418C44.9676 48.1643 45.3665 48.2756 45.8068 48.2756C46.2472 48.2756 46.6449 48.1643 47 47.9418C47.3575 47.7193 47.6404 47.3914 47.8487 46.9581C48.0594 46.5249 48.1648 45.9934 48.1648 45.3637ZM54.2479 44.7671L53.495 44.9802C53.4477 44.8547 53.3778 44.7328 53.2855 44.6144C53.1955 44.4937 53.0724 44.3942 52.9162 44.3161C52.7599 44.238 52.5599 44.1989 52.3161 44.1989C51.9822 44.1989 51.7041 44.2759 51.4815 44.4297C51.2614 44.5812 51.1513 44.7742 51.1513 45.0086C51.1513 45.2169 51.227 45.3814 51.3786 45.5022C51.5301 45.6229 51.7668 45.7235 52.0888 45.804L52.8984 46.0029C53.3861 46.1213 53.7495 46.3024 53.9886 46.5462C54.2277 46.7877 54.3473 47.099 54.3473 47.4802C54.3473 47.7927 54.2573 48.072 54.0774 48.3182C53.8999 48.5644 53.6513 48.7586 53.3317 48.9006C53.0121 49.0427 52.6404 49.1137 52.2166 49.1137C51.6603 49.1137 51.1998 48.9929 50.8352 48.7515C50.4706 48.51 50.2398 48.1572 50.1428 47.6932L50.9382 47.4944C51.014 47.7879 51.1572 48.0081 51.3679 48.1549C51.581 48.3017 51.8591 48.375 52.2024 48.375C52.593 48.375 52.9032 48.2922 53.1328 48.1265C53.3648 47.9584 53.4808 47.7571 53.4808 47.5228C53.4808 47.3334 53.4145 47.1748 53.282 47.0469C53.1494 46.9167 52.9458 46.8196 52.6712 46.7557L51.7621 46.5427C51.2625 46.4243 50.8956 46.2408 50.6612 45.9922C50.4292 45.7413 50.3132 45.4276 50.3132 45.0512C50.3132 44.7434 50.3996 44.4712 50.5724 44.2344C50.7476 43.9977 50.9856 43.8118 51.2862 43.6769C51.5893 43.5419 51.9325 43.4745 52.3161 43.4745C52.8558 43.4745 53.2796 43.5928 53.5874 43.8296C53.8975 44.0663 54.1177 44.3788 54.2479 44.7671ZM55.4526 49V48.3608L58.5492 44.3836V44.3268H55.552V43.5455H59.6287V44.2131L56.6174 48.162V48.2188H59.7282V49H55.4526ZM63.0787 49.1137C62.5673 49.1137 62.127 48.9929 61.7576 48.7515C61.3883 48.51 61.1042 48.1774 60.9054 47.7536C60.7065 47.3298 60.6071 46.8457 60.6071 46.3012C60.6071 45.7472 60.7089 45.2583 60.9125 44.8346C61.1184 44.4084 61.4049 44.0758 61.7718 43.8367C62.1412 43.5952 62.572 43.4745 63.0645 43.4745C63.448 43.4745 63.7936 43.5455 64.1014 43.6875C64.4092 43.8296 64.6613 44.0285 64.8578 44.2841C65.0543 44.5398 65.1762 44.8381 65.2235 45.179H64.3855C64.3216 44.9304 64.1795 44.7103 63.9593 44.5185C63.7415 44.3244 63.448 44.2273 63.0787 44.2273C62.752 44.2273 62.4655 44.3125 62.2193 44.483C61.9754 44.6511 61.7849 44.889 61.6475 45.1968C61.5126 45.5022 61.4451 45.8608 61.4451 46.2728C61.4451 46.6942 61.5114 47.0611 61.644 47.3736C61.7789 47.6861 61.9683 47.9288 62.2122 48.1016C62.4584 48.2744 62.7472 48.3608 63.0787 48.3608C63.2965 48.3608 63.4941 48.323 63.6717 48.2472C63.8493 48.1714 63.9996 48.0625 64.1227 47.9205C64.2458 47.7785 64.3334 47.608 64.3855 47.4091H65.2235C65.1762 47.7311 65.059 48.0211 64.872 48.2792C64.6873 48.5348 64.4423 48.7384 64.1369 48.89C63.8339 49.0391 63.4811 49.1137 63.0787 49.1137ZM66.2924 49V48.3608L69.389 44.3836V44.3268H66.3919V43.5455H70.4686V44.2131L67.4572 48.162V48.2188H70.568V49H66.2924ZM73.9895 49.1137C73.464 49.1137 73.0106 48.9977 72.6294 48.7657C72.2507 48.5313 71.9583 48.2046 71.7523 47.7856C71.5487 47.3642 71.4469 46.8741 71.4469 46.3154C71.4469 45.7567 71.5487 45.2643 71.7523 44.8381C71.9583 44.4096 72.2447 44.0758 72.6117 43.8367C72.981 43.5952 73.4119 43.4745 73.9043 43.4745C74.1884 43.4745 74.4689 43.5218 74.7459 43.6165C75.0229 43.7112 75.275 43.8651 75.5023 44.0782C75.7296 44.2889 75.9107 44.5682 76.0456 44.9162C76.1806 45.2643 76.248 45.6928 76.248 46.2018V46.5569H72.0435V45.8324H75.3958C75.3958 45.5247 75.3342 45.25 75.2111 45.0086C75.0904 44.7671 74.9176 44.5765 74.6926 44.4368C74.4701 44.2972 74.2073 44.2273 73.9043 44.2273C73.5705 44.2273 73.2817 44.3102 73.0378 44.4759C72.7963 44.6393 72.6105 44.8523 72.4803 45.1151C72.3501 45.3779 72.285 45.6596 72.285 45.9603V46.4432C72.285 46.8552 72.356 47.2044 72.498 47.4908C72.6425 47.7749 72.8425 47.9915 73.0982 48.1407C73.3539 48.2875 73.651 48.3608 73.9895 48.3608C74.2097 48.3608 74.4086 48.3301 74.5861 48.2685C74.766 48.2046 74.9211 48.1099 75.0513 47.9844C75.1815 47.8566 75.2821 47.698 75.3532 47.5086L76.1628 47.7358C76.0776 48.0105 75.9344 48.2519 75.7331 48.4603C75.5319 48.6662 75.2833 48.8272 74.9874 48.9432C74.6915 49.0569 74.3588 49.1137 73.9895 49.1137ZM74.0179 51.1307C73.7267 51.1307 73.4853 51.0502 73.2935 50.8893C73.1041 50.7306 73.0094 50.4986 73.0094 50.1932C73.0094 50.018 73.052 49.8428 73.1373 49.6677C73.2225 49.4925 73.3598 49.3232 73.5492 49.1598C73.7386 48.9965 73.9895 48.8438 74.302 48.7018L74.6855 49C74.4725 49.1563 74.2819 49.322 74.1138 49.4972C73.9457 49.6724 73.8617 49.8665 73.8617 50.0796C73.8617 50.1861 73.8877 50.269 73.9398 50.3282C73.9919 50.3897 74.089 50.4205 74.231 50.4205C74.3375 50.4205 74.4322 50.4063 74.5151 50.3779C74.598 50.3495 74.6642 50.3211 74.714 50.2927L74.7708 50.9177C74.6926 50.9674 74.5897 51.0147 74.4618 51.0597C74.3364 51.1071 74.1884 51.1307 74.0179 51.1307ZM79.5826 49.1137C79.128 49.1137 78.7267 48.9989 78.3787 48.7692C78.0307 48.5372 77.7585 48.2105 77.562 47.7891C77.3655 47.3653 77.2672 46.8646 77.2672 46.287C77.2672 45.7141 77.3655 45.2169 77.562 44.7955C77.7585 44.3741 78.0319 44.0486 78.3823 43.8189C78.7327 43.5893 79.1375 43.4745 79.5968 43.4745C79.9519 43.4745 80.2324 43.5337 80.4384 43.652C80.6467 43.768 80.8053 43.9006 80.9142 44.0498C81.0255 44.1965 81.1119 44.3173 81.1735 44.412H81.2445V41.7273H82.0826V49H81.2729V48.162H81.1735C81.1119 48.2614 81.0243 48.3869 80.9107 48.5384C80.7971 48.6875 80.6349 48.8213 80.4242 48.9397C80.2135 49.0557 79.9329 49.1137 79.5826 49.1137ZM79.6962 48.3608C80.0324 48.3608 80.3165 48.2732 80.5485 48.0981C80.7805 47.9205 80.9569 47.6755 81.0776 47.363C81.1983 47.0481 81.2587 46.6847 81.2587 46.2728C81.2587 45.8656 81.1995 45.5093 81.0811 45.2039C80.9628 44.8961 80.7876 44.657 80.5556 44.4866C80.3236 44.3137 80.0371 44.2273 79.6962 44.2273C79.3411 44.2273 79.0452 44.3185 78.8084 44.5008C78.574 44.6807 78.3977 44.9257 78.2793 45.2358C78.1633 45.5436 78.1053 45.8893 78.1053 46.2728C78.1053 46.661 78.1645 47.0138 78.2828 47.331C78.4036 47.6459 78.5811 47.8968 78.8155 48.0839C79.0523 48.2685 79.3458 48.3608 79.6962 48.3608ZM83.5776 49V48.3608L86.6742 44.3836V44.3268H83.677V43.5455H87.7537V44.2131L84.7424 48.162V48.2188H87.8532V49H83.5776ZM90.7491 49.1279C90.4035 49.1279 90.0898 49.0628 89.8081 48.9326C89.5263 48.8 89.3026 48.6094 89.1369 48.3608C88.9712 48.1099 88.8883 47.8069 88.8883 47.4518C88.8883 47.1393 88.9499 46.8859 89.073 46.6918C89.1961 46.4953 89.3606 46.3414 89.5666 46.2302C89.7725 46.1189 89.9998 46.036 90.2484 45.9816C90.4993 45.9248 90.7515 45.8798 91.0048 45.8466C91.3362 45.804 91.6049 45.7721 91.8109 45.7508C92.0192 45.7271 92.1708 45.688 92.2654 45.6336C92.3625 45.5791 92.411 45.4844 92.411 45.3495V45.3211C92.411 44.9707 92.3152 44.6984 92.1234 44.5043C91.934 44.3102 91.6464 44.2131 91.2605 44.2131C90.8604 44.2131 90.5467 44.3007 90.3194 44.4759C90.0922 44.6511 89.9324 44.8381 89.84 45.037L89.0446 44.7529C89.1866 44.4214 89.376 44.1634 89.6127 43.9787C89.8519 43.7917 90.1123 43.6615 90.394 43.5881C90.6781 43.5124 90.9574 43.4745 91.2321 43.4745C91.4073 43.4745 91.6085 43.4958 91.8358 43.5384C92.0654 43.5786 92.2868 43.6627 92.4998 43.7905C92.7153 43.9184 92.894 44.1113 93.036 44.3694C93.1781 44.6274 93.2491 44.9731 93.2491 45.4063V49H92.411V48.2614H92.3684C92.3116 48.3798 92.2169 48.5064 92.0843 48.6414C91.9518 48.7763 91.7754 48.8911 91.5552 48.9858C91.335 49.0805 91.0663 49.1279 90.7491 49.1279ZM90.877 48.375C91.2084 48.375 91.4877 48.3099 91.715 48.1797C91.9447 48.0495 92.1175 47.8814 92.2335 47.6755C92.3519 47.4695 92.411 47.2529 92.411 47.0256V46.2586C92.3755 46.3012 92.2974 46.3402 92.1767 46.3758C92.0583 46.4089 91.921 46.4385 91.7647 46.4645C91.6109 46.4882 91.4605 46.5095 91.3137 46.5285C91.1693 46.545 91.0521 46.5592 90.9622 46.5711C90.7444 46.5995 90.5408 46.6456 90.3514 46.7096C90.1644 46.7711 90.0128 46.8646 89.8968 46.9901C89.7832 47.1132 89.7264 47.2813 89.7264 47.4944C89.7264 47.7856 89.8341 48.0057 90.0495 48.1549C90.2673 48.3017 90.5431 48.375 90.877 48.375ZM94.7788 43.5455H95.6168V49.3978C95.6168 49.7339 95.5588 50.0251 95.4428 50.2714C95.3292 50.5176 95.1564 50.7081 94.9244 50.8431C94.6947 50.978 94.4047 51.0455 94.0543 51.0455C94.0259 51.0455 93.9975 51.0455 93.9691 51.0455C93.9407 51.0455 93.9123 51.0455 93.8839 51.0455V50.2643C93.9123 50.2643 93.9383 50.2643 93.962 50.2643C93.9857 50.2643 94.0117 50.2643 94.0401 50.2643C94.2958 50.2643 94.4828 50.1885 94.6012 50.037C94.7196 49.8878 94.7788 49.6748 94.7788 49.3978V43.5455ZM95.1907 42.6364C95.0273 42.6364 94.8865 42.5808 94.7681 42.4695C94.6521 42.3582 94.5941 42.2245 94.5941 42.0682C94.5941 41.912 94.6521 41.7782 94.7681 41.6669C94.8865 41.5557 95.0273 41.5 95.1907 41.5C95.354 41.5 95.4937 41.5557 95.6097 41.6669C95.7281 41.7782 95.7873 41.912 95.7873 42.0682C95.7873 42.2245 95.7281 42.3582 95.6097 42.4695C95.4937 42.5808 95.354 42.6364 95.1907 42.6364ZM102.18 49.1137C101.669 49.1137 101.229 48.9929 100.859 48.7515C100.49 48.51 100.206 48.1774 100.007 47.7536C99.8081 47.3298 99.7086 46.8457 99.7086 46.3012C99.7086 45.7472 99.8104 45.2583 100.014 44.8346C100.22 44.4084 100.506 44.0758 100.873 43.8367C101.243 43.5952 101.674 43.4745 102.166 43.4745C102.55 43.4745 102.895 43.5455 103.203 43.6875C103.511 43.8296 103.763 44.0285 103.959 44.2841C104.156 44.5398 104.278 44.8381 104.325 45.179H103.487C103.423 44.9304 103.281 44.7103 103.061 44.5185C102.843 44.3244 102.55 44.2273 102.18 44.2273C101.854 44.2273 101.567 44.3125 101.321 44.483C101.077 44.6511 100.886 44.889 100.749 45.1968C100.614 45.5022 100.547 45.8608 100.547 46.2728C100.547 46.6942 100.613 47.0611 100.746 47.3736C100.881 47.6861 101.07 47.9288 101.314 48.1016C101.56 48.2744 101.849 48.3608 102.18 48.3608C102.398 48.3608 102.596 48.323 102.773 48.2472C102.951 48.1714 103.101 48.0625 103.224 47.9205C103.347 47.7785 103.435 47.608 103.487 47.4091H104.325C104.278 47.7311 104.161 48.0211 103.974 48.2792C103.789 48.5348 103.544 48.7384 103.238 48.89C102.935 49.0391 102.583 49.1137 102.18 49.1137ZM105.394 49V48.3608L108.491 44.3836V44.3268H105.493V43.5455H109.57V44.2131L106.559 48.162V48.2188H109.67V49H105.394ZM112.566 49.1279C112.22 49.1279 111.906 49.0628 111.624 48.9326C111.343 48.8 111.119 48.6094 110.953 48.3608C110.788 48.1099 110.705 47.8069 110.705 47.4518C110.705 47.1393 110.766 46.8859 110.889 46.6918C111.012 46.4953 111.177 46.3414 111.383 46.2302C111.589 46.1189 111.816 46.036 112.065 45.9816C112.316 45.9248 112.568 45.8798 112.821 45.8466C113.153 45.804 113.421 45.7721 113.627 45.7508C113.836 45.7271 113.987 45.688 114.082 45.6336C114.179 45.5791 114.227 45.4844 114.227 45.3495V45.3211C114.227 44.9707 114.132 44.6984 113.94 44.5043C113.75 44.3102 113.463 44.2131 113.077 44.2131C112.677 44.2131 112.363 44.3007 112.136 44.4759C111.909 44.6511 111.749 44.8381 111.656 45.037L110.861 44.7529C111.003 44.4214 111.192 44.1634 111.429 43.9787C111.668 43.7917 111.929 43.6615 112.21 43.5881C112.494 43.5124 112.774 43.4745 113.048 43.4745C113.224 43.4745 113.425 43.4958 113.652 43.5384C113.882 43.5786 114.103 43.6627 114.316 43.7905C114.532 43.9184 114.71 44.1113 114.852 44.3694C114.994 44.6274 115.066 44.9731 115.066 45.4063V49H114.227V48.2614H114.185C114.128 48.3798 114.033 48.5064 113.901 48.6414C113.768 48.7763 113.592 48.8911 113.372 48.9858C113.151 49.0805 112.883 49.1279 112.566 49.1279ZM112.693 48.375C113.025 48.375 113.304 48.3099 113.531 48.1797C113.761 48.0495 113.934 47.8814 114.05 47.6755C114.168 47.4695 114.227 47.2529 114.227 47.0256V46.2586C114.192 46.3012 114.114 46.3402 113.993 46.3758C113.875 46.4089 113.737 46.4385 113.581 46.4645C113.427 46.4882 113.277 46.5095 113.13 46.5285C112.986 46.545 112.869 46.5592 112.779 46.5711C112.561 46.5995 112.357 46.6456 112.168 46.7096C111.981 46.7711 111.829 46.8646 111.713 46.9901C111.6 47.1132 111.543 47.2813 111.543 47.4944C111.543 47.7856 111.651 48.0057 111.866 48.1549C112.084 48.3017 112.36 48.375 112.693 48.375ZM120.459 44.7671L119.706 44.9802C119.659 44.8547 119.589 44.7328 119.496 44.6144C119.406 44.4937 119.283 44.3942 119.127 44.3161C118.971 44.238 118.771 44.1989 118.527 44.1989C118.193 44.1989 117.915 44.2759 117.692 44.4297C117.472 44.5812 117.362 44.7742 117.362 45.0086C117.362 45.2169 117.438 45.3814 117.589 45.5022C117.741 45.6229 117.978 45.7235 118.3 45.804L119.109 46.0029C119.597 46.1213 119.96 46.3024 120.2 46.5462C120.439 46.7877 120.558 47.099 120.558 47.4802C120.558 47.7927 120.468 48.072 120.288 48.3182C120.111 48.5644 119.862 48.7586 119.543 48.9006C119.223 49.0427 118.851 49.1137 118.428 49.1137C117.871 49.1137 117.411 48.9929 117.046 48.7515C116.682 48.51 116.451 48.1572 116.354 47.6932L117.149 47.4944C117.225 47.7879 117.368 48.0081 117.579 48.1549C117.792 48.3017 118.07 48.375 118.413 48.375C118.804 48.375 119.114 48.2922 119.344 48.1265C119.576 47.9584 119.692 47.7571 119.692 47.5228C119.692 47.3334 119.625 47.1748 119.493 47.0469C119.36 46.9167 119.157 46.8196 118.882 46.7557L117.973 46.5427C117.473 46.4243 117.107 46.2408 116.872 45.9922C116.64 45.7413 116.524 45.4276 116.524 45.0512C116.524 44.7434 116.611 44.4712 116.783 44.2344C116.959 43.9977 117.196 43.8118 117.497 43.6769C117.8 43.5419 118.143 43.4745 118.527 43.4745C119.067 43.4745 119.491 43.5928 119.798 43.8296C120.108 44.0663 120.329 44.3788 120.459 44.7671ZM124.632 49V43.5455H125.47V49H124.632ZM125.058 42.6364C124.895 42.6364 124.754 42.5808 124.636 42.4695C124.52 42.3582 124.462 42.2245 124.462 42.0682C124.462 41.912 124.52 41.7782 124.636 41.6669C124.754 41.5557 124.895 41.5 125.058 41.5C125.222 41.5 125.361 41.5557 125.477 41.6669C125.596 41.7782 125.655 41.912 125.655 42.0682C125.655 42.2245 125.596 42.3582 125.477 42.4695C125.361 42.5808 125.222 42.6364 125.058 42.6364ZM129.818 49V43.5455H130.627V44.3978H130.699C130.812 44.1066 130.996 43.8805 131.249 43.7195C131.502 43.5562 131.806 43.4745 132.162 43.4745C132.521 43.4745 132.821 43.5562 133.06 43.7195C133.301 43.8805 133.49 44.1066 133.625 44.3978H133.681C133.821 44.1161 134.031 43.8923 134.31 43.7266C134.589 43.5585 134.924 43.4745 135.315 43.4745C135.803 43.4745 136.202 43.6272 136.512 43.9326C136.822 44.2356 136.977 44.7079 136.977 45.3495V49H136.139V45.3495C136.139 44.947 136.029 44.6594 135.809 44.4866C135.588 44.3137 135.329 44.2273 135.031 44.2273C134.647 44.2273 134.35 44.3433 134.14 44.5753C133.929 44.805 133.824 45.0962 133.824 45.4489V49H132.971V45.2643C132.971 44.9541 132.871 44.7044 132.669 44.515C132.468 44.3232 132.209 44.2273 131.892 44.2273C131.674 44.2273 131.47 44.2853 131.281 44.4013C131.094 44.5173 130.942 44.6783 130.826 44.8843C130.713 45.0879 130.656 45.3234 130.656 45.591V49H129.818ZM138.509 49V43.5455H139.347V49H138.509ZM138.935 42.6364C138.772 42.6364 138.631 42.5808 138.513 42.4695C138.397 42.3582 138.339 42.2245 138.339 42.0682C138.339 41.912 138.397 41.7782 138.513 41.6669C138.631 41.5557 138.772 41.5 138.935 41.5C139.099 41.5 139.238 41.5557 139.354 41.6669C139.473 41.7782 139.532 41.912 139.532 42.0682C139.532 42.2245 139.473 42.3582 139.354 42.4695C139.238 42.5808 139.099 42.6364 138.935 42.6364ZM141.72 45.7188V49H140.882V43.5455H141.692V44.3978H141.763C141.891 44.1208 142.085 43.8982 142.345 43.7302C142.606 43.5597 142.942 43.4745 143.354 43.4745C143.723 43.4745 144.046 43.5502 144.323 43.7018C144.6 43.8509 144.816 44.0782 144.97 44.3836C145.124 44.6866 145.2 45.0701 145.2 45.5341V49H144.362V45.591C144.362 45.1625 144.251 44.8286 144.029 44.5895C143.806 44.3481 143.501 44.2273 143.112 44.2273C142.845 44.2273 142.606 44.2853 142.395 44.4013C142.187 44.5173 142.022 44.6866 141.901 44.9091C141.781 45.1317 141.72 45.4016 141.72 45.7188ZM146.732 49V43.5455H147.57V49H146.732ZM147.158 42.6364C146.995 42.6364 146.854 42.5808 146.735 42.4695C146.619 42.3582 146.561 42.2245 146.561 42.0682C146.561 41.912 146.619 41.7782 146.735 41.6669C146.854 41.5557 146.995 41.5 147.158 41.5C147.321 41.5 147.461 41.5557 147.577 41.6669C147.695 41.7782 147.755 41.912 147.755 42.0682C147.755 42.2245 147.695 42.3582 147.577 42.4695C147.461 42.5808 147.321 42.6364 147.158 42.6364ZM149.105 49V43.5455H149.915V44.3978H149.986C150.099 44.1066 150.283 43.8805 150.536 43.7195C150.789 43.5562 151.094 43.4745 151.449 43.4745C151.809 43.4745 152.108 43.5562 152.347 43.7195C152.589 43.8805 152.777 44.1066 152.912 44.3978H152.969C153.108 44.1161 153.318 43.8923 153.597 43.7266C153.876 43.5585 154.211 43.4745 154.602 43.4745C155.09 43.4745 155.489 43.6272 155.799 43.9326C156.109 44.2356 156.264 44.7079 156.264 45.3495V49H155.426V45.3495C155.426 44.947 155.316 44.6594 155.096 44.4866C154.876 44.3137 154.616 44.2273 154.318 44.2273C153.934 44.2273 153.637 44.3433 153.427 44.5753C153.216 44.805 153.111 45.0962 153.111 45.4489V49H152.258V45.2643C152.258 44.9541 152.158 44.7044 151.956 44.515C151.755 44.3232 151.496 44.2273 151.179 44.2273C150.961 44.2273 150.757 44.2853 150.568 44.4013C150.381 44.5173 150.229 44.6783 150.113 44.8843C150 45.0879 149.943 45.3234 149.943 45.591V49H149.105ZM159.401 49.1279C159.056 49.1279 158.742 49.0628 158.46 48.9326C158.179 48.8 157.955 48.6094 157.789 48.3608C157.624 48.1099 157.541 47.8069 157.541 47.4518C157.541 47.1393 157.602 46.8859 157.725 46.6918C157.848 46.4953 158.013 46.3414 158.219 46.2302C158.425 46.1189 158.652 46.036 158.901 45.9816C159.152 45.9248 159.404 45.8798 159.657 45.8466C159.989 45.804 160.257 45.7721 160.463 45.7508C160.672 45.7271 160.823 45.688 160.918 45.6336C161.015 45.5791 161.063 45.4844 161.063 45.3495V45.3211C161.063 44.9707 160.968 44.6984 160.776 44.5043C160.586 44.3102 160.299 44.2131 159.913 44.2131C159.513 44.2131 159.199 44.3007 158.972 44.4759C158.744 44.6511 158.585 44.8381 158.492 45.037L157.697 44.7529C157.839 44.4214 158.028 44.1634 158.265 43.9787C158.504 43.7917 158.765 43.6615 159.046 43.5881C159.33 43.5124 159.61 43.4745 159.884 43.4745C160.06 43.4745 160.261 43.4958 160.488 43.5384C160.718 43.5786 160.939 43.6627 161.152 43.7905C161.368 43.9184 161.546 44.1113 161.688 44.3694C161.83 44.6274 161.901 44.9731 161.901 45.4063V49H161.063V48.2614H161.021C160.964 48.3798 160.869 48.5064 160.737 48.6414C160.604 48.7763 160.428 48.8911 160.208 48.9858C159.987 49.0805 159.719 49.1279 159.401 49.1279ZM159.529 48.375C159.861 48.375 160.14 48.3099 160.367 48.1797C160.597 48.0495 160.77 47.8814 160.886 47.6755C161.004 47.4695 161.063 47.2529 161.063 47.0256V46.2586C161.028 46.3012 160.95 46.3402 160.829 46.3758C160.711 46.4089 160.573 46.4385 160.417 46.4645C160.263 46.4882 160.113 46.5095 159.966 46.5285C159.822 46.545 159.704 46.5592 159.615 46.5711C159.397 46.5995 159.193 46.6456 159.004 46.7096C158.817 46.7711 158.665 46.8646 158.549 46.9901C158.436 47.1132 158.379 47.2813 158.379 47.4944C158.379 47.7856 158.486 48.0057 158.702 48.1549C158.92 48.3017 159.195 48.375 159.529 48.375ZM164.269 41.7273V49H163.431V41.7273H164.269ZM165.804 49V43.5455H166.642V49H165.804ZM166.23 42.6364C166.067 42.6364 165.926 42.5808 165.808 42.4695C165.692 42.3582 165.634 42.2245 165.634 42.0682C165.634 41.912 165.692 41.7782 165.808 41.6669C165.926 41.5557 166.067 41.5 166.23 41.5C166.394 41.5 166.533 41.5557 166.649 41.6669C166.768 41.7782 166.827 41.912 166.827 42.0682C166.827 42.2245 166.768 42.3582 166.649 42.4695C166.533 42.5808 166.394 42.6364 166.23 42.6364ZM168.021 49V48.3608L171.118 44.3836V44.3268H168.12V43.5455H172.197V44.2131L169.186 48.162V48.2188H172.297V49H168.021ZM177.025 46.7699V43.5455H177.863V49H177.025V48.0768H176.968C176.84 48.3537 176.641 48.5893 176.371 48.7834C176.102 48.9752 175.761 49.0711 175.349 49.0711C175.008 49.0711 174.705 48.9965 174.44 48.8473C174.174 48.6958 173.966 48.4686 173.815 48.1655C173.663 47.8601 173.587 47.4754 173.587 47.0114V43.5455H174.425V46.9546C174.425 47.3523 174.537 47.6696 174.759 47.9063C174.984 48.143 175.271 48.2614 175.619 48.2614C175.827 48.2614 176.039 48.2081 176.254 48.1016C176.472 47.9951 176.654 47.8317 176.801 47.6116C176.95 47.3914 177.025 47.1108 177.025 46.7699ZM179.398 43.5455H180.236V49.3978C180.236 49.7339 180.178 50.0251 180.062 50.2714C179.948 50.5176 179.776 50.7081 179.544 50.8431C179.314 50.978 179.024 51.0455 178.673 51.0455C178.645 51.0455 178.617 51.0455 178.588 51.0455C178.56 51.0455 178.531 51.0455 178.503 51.0455V50.2643C178.531 50.2643 178.557 50.2643 178.581 50.2643C178.605 50.2643 178.631 50.2643 178.659 50.2643C178.915 50.2643 179.102 50.1885 179.22 50.037C179.339 49.8878 179.398 49.6748 179.398 49.3978V43.5455ZM179.81 42.6364C179.646 42.6364 179.506 42.5808 179.387 42.4695C179.271 42.3582 179.213 42.2245 179.213 42.0682C179.213 41.912 179.271 41.7782 179.387 41.6669C179.506 41.5557 179.646 41.5 179.81 41.5C179.973 41.5 180.113 41.5557 180.229 41.6669C180.347 41.7782 180.406 41.912 180.406 42.0682C180.406 42.2245 180.347 42.3582 180.229 42.4695C180.113 42.5808 179.973 42.6364 179.81 42.6364ZM184.583 49V43.5455H185.393V44.3694H185.45C185.549 44.0995 185.729 43.8805 185.99 43.7124C186.25 43.5443 186.544 43.4603 186.87 43.4603C186.932 43.4603 187.009 43.4615 187.101 43.4638C187.194 43.4662 187.263 43.4697 187.311 43.4745V44.3268C187.282 44.3196 187.217 44.309 187.115 44.2948C187.016 44.2782 186.911 44.2699 186.799 44.2699C186.534 44.2699 186.297 44.3256 186.089 44.4368C185.883 44.5457 185.72 44.6973 185.599 44.8914C185.481 45.0831 185.422 45.3021 185.422 45.5483V49H184.583ZM189.01 51.0455C188.868 51.0455 188.741 51.0337 188.63 51.01C188.519 50.9887 188.442 50.9674 188.399 50.9461L188.612 50.2074C188.816 50.2595 188.996 50.2785 189.152 50.2643C189.308 50.25 189.447 50.1802 189.567 50.0547C189.691 49.9316 189.803 49.7316 189.905 49.4546L190.061 49.0285L188.044 43.5455H188.953L190.459 47.8921H190.516L192.021 43.5455H192.93L190.615 49.7955C190.511 50.0772 190.382 50.3104 190.228 50.4951C190.074 50.6821 189.895 50.8206 189.692 50.9106C189.491 51.0005 189.263 51.0455 189.01 51.0455ZM193.88 49V48.3608L196.977 44.3836V44.3268H193.98V43.5455H198.056V44.2131L195.045 48.162V48.2188H198.156V49H193.88ZM199.987 51.0455C199.844 51.0455 199.718 51.0337 199.607 51.01C199.495 50.9887 199.418 50.9674 199.376 50.9461L199.589 50.2074C199.792 50.2595 199.972 50.2785 200.129 50.2643C200.285 50.25 200.423 50.1802 200.544 50.0547C200.667 49.9316 200.78 49.7316 200.881 49.4546L201.038 49.0285L199.021 43.5455H199.93L201.435 47.8921H201.492L202.998 43.5455H203.907L201.592 49.7955C201.487 50.0772 201.358 50.3104 201.205 50.4951C201.051 50.6821 200.872 50.8206 200.668 50.9106C200.467 51.0005 200.24 51.0455 199.987 51.0455ZM205.794 47.0114L205.78 45.9745H205.951L208.337 43.5455H209.374L206.831 46.1165H206.76L205.794 47.0114ZM205.013 49V41.7273H205.851V49H205.013ZM208.479 49L206.348 46.3012L206.945 45.7188L209.544 49H208.479ZM212.444 49.1137C211.951 49.1137 211.519 48.9965 211.148 48.7621C210.778 48.5277 210.49 48.1999 210.281 47.7785C210.075 47.3571 209.972 46.8646 209.972 46.3012C209.972 45.733 210.075 45.237 210.281 44.8133C210.49 44.3895 210.778 44.0604 211.148 43.826C211.519 43.5917 211.951 43.4745 212.444 43.4745C212.936 43.4745 213.367 43.5917 213.737 43.826C214.108 44.0604 214.397 44.3895 214.603 44.8133C214.811 45.237 214.915 45.733 214.915 46.3012C214.915 46.8646 214.811 47.3571 214.603 47.7785C214.397 48.1999 214.108 48.5277 213.737 48.7621C213.367 48.9965 212.936 49.1137 212.444 49.1137ZM212.444 48.3608C212.818 48.3608 213.126 48.265 213.367 48.0732C213.609 47.8814 213.787 47.6293 213.903 47.3168C214.019 47.0043 214.077 46.6658 214.077 46.3012C214.077 45.9366 214.019 45.5969 213.903 45.282C213.787 44.9671 213.609 44.7126 213.367 44.5185C213.126 44.3244 212.818 44.2273 212.444 44.2273C212.07 44.2273 211.762 44.3244 211.521 44.5185C211.279 44.7126 211.1 44.9671 210.984 45.282C210.868 45.5969 210.81 45.9366 210.81 46.3012C210.81 46.6658 210.868 47.0043 210.984 47.3168C211.1 47.6293 211.279 47.8814 211.521 48.0732C211.762 48.265 212.07 48.3608 212.444 48.3608ZM219.121 49V41.7273H219.959V44.412H220.03C220.092 44.3173 220.177 44.1965 220.286 44.0498C220.397 43.9006 220.556 43.768 220.762 43.652C220.97 43.5337 221.252 43.4745 221.607 43.4745C222.066 43.4745 222.471 43.5893 222.821 43.8189C223.172 44.0486 223.445 44.3741 223.642 44.7955C223.838 45.2169 223.936 45.7141 223.936 46.287C223.936 46.8646 223.838 47.3653 223.642 47.7891C223.445 48.2105 223.173 48.5372 222.825 48.7692C222.477 48.9989 222.075 49.1137 221.621 49.1137C221.271 49.1137 220.99 49.0557 220.779 48.9397C220.569 48.8213 220.406 48.6875 220.293 48.5384C220.179 48.3869 220.092 48.2614 220.03 48.162H219.931V49H219.121ZM219.945 46.2728C219.945 46.6847 220.005 47.0481 220.126 47.363C220.247 47.6755 220.423 47.9205 220.655 48.0981C220.887 48.2732 221.171 48.3608 221.507 48.3608C221.858 48.3608 222.15 48.2685 222.384 48.0839C222.621 47.8968 222.799 47.6459 222.917 47.331C223.038 47.0138 223.098 46.661 223.098 46.2728C223.098 45.8893 223.039 45.5436 222.921 45.2358C222.805 44.9257 222.628 44.6807 222.392 44.5008C222.157 44.3185 221.862 44.2273 221.507 44.2273C221.166 44.2273 220.88 44.3137 220.648 44.4866C220.416 44.657 220.241 44.8961 220.122 45.2039C220.004 45.5093 219.945 45.8656 219.945 46.2728ZM226.838 44.4546V45.0796L224.437 45.9887V45.3637L226.838 44.4546ZM226.056 41.7273V49H225.218V41.7273H226.056ZM229.878 49.1137C229.353 49.1137 228.899 48.9977 228.518 48.7657C228.139 48.5313 227.847 48.2046 227.641 47.7856C227.437 47.3642 227.336 46.8741 227.336 46.3154C227.336 45.7567 227.437 45.2643 227.641 44.8381C227.847 44.4096 228.133 44.0758 228.5 43.8367C228.87 43.5952 229.301 43.4745 229.793 43.4745C230.077 43.4745 230.358 43.5218 230.635 43.6165C230.912 43.7112 231.164 43.8651 231.391 44.0782C231.618 44.2889 231.799 44.5682 231.934 44.9162C232.069 45.2643 232.137 45.6928 232.137 46.2018V46.5569H227.932V45.8324H231.284C231.284 45.5247 231.223 45.25 231.1 45.0086C230.979 44.7671 230.806 44.5765 230.581 44.4368C230.359 44.2972 230.096 44.2273 229.793 44.2273C229.459 44.2273 229.17 44.3102 228.926 44.4759C228.685 44.6393 228.499 44.8523 228.369 45.1151C228.239 45.3779 228.174 45.6596 228.174 45.9603V46.4432C228.174 46.8552 228.245 47.2044 228.387 47.4908C228.531 47.7749 228.731 47.9915 228.987 48.1407C229.243 48.2875 229.54 48.3608 229.878 48.3608C230.098 48.3608 230.297 48.3301 230.475 48.2685C230.655 48.2046 230.81 48.1099 230.94 47.9844C231.07 47.8566 231.171 47.698 231.242 47.5086L232.051 47.7358C231.966 48.0105 231.823 48.2519 231.622 48.4603C231.421 48.6662 231.172 48.8272 230.876 48.9432C230.58 49.0569 230.248 49.1137 229.878 49.1137ZM229.907 51.1307C229.615 51.1307 229.374 51.0502 229.182 50.8893C228.993 50.7306 228.898 50.4986 228.898 50.1932C228.898 50.018 228.941 49.8428 229.026 49.6677C229.111 49.4925 229.248 49.3232 229.438 49.1598C229.627 48.9965 229.878 48.8438 230.191 48.7018L230.574 49C230.361 49.1563 230.171 49.322 230.002 49.4972C229.834 49.6724 229.75 49.8665 229.75 50.0796C229.75 50.1861 229.776 50.269 229.828 50.3282C229.881 50.3897 229.978 50.4205 230.12 50.4205C230.226 50.4205 230.321 50.4063 230.404 50.3779C230.487 50.3495 230.553 50.3211 230.603 50.2927L230.659 50.9177C230.581 50.9674 230.478 51.0147 230.35 51.0597C230.225 51.1071 230.077 51.1307 229.907 51.1307ZM235.471 49.1137C235.017 49.1137 234.615 48.9989 234.267 48.7692C233.919 48.5372 233.647 48.2105 233.451 47.7891C233.254 47.3653 233.156 46.8646 233.156 46.287C233.156 45.7141 233.254 45.2169 233.451 44.7955C233.647 44.3741 233.921 44.0486 234.271 43.8189C234.621 43.5893 235.026 43.4745 235.485 43.4745C235.841 43.4745 236.121 43.5337 236.327 43.652C236.535 43.768 236.694 43.9006 236.803 44.0498C236.914 44.1965 237.001 44.3173 237.062 44.412H237.133V41.7273H237.971V49H237.162V48.162H237.062C237.001 48.2614 236.913 48.3869 236.799 48.5384C236.686 48.6875 236.524 48.8213 236.313 48.9397C236.102 49.0557 235.822 49.1137 235.471 49.1137ZM235.585 48.3608C235.921 48.3608 236.205 48.2732 236.437 48.0981C236.669 47.9205 236.846 47.6755 236.966 47.363C237.087 47.0481 237.147 46.6847 237.147 46.2728C237.147 45.8656 237.088 45.5093 236.97 45.2039C236.851 44.8961 236.676 44.657 236.444 44.4866C236.212 44.3137 235.926 44.2273 235.585 44.2273C235.23 44.2273 234.934 44.3185 234.697 44.5008C234.463 44.6807 234.286 44.9257 234.168 45.2358C234.052 45.5436 233.994 45.8893 233.994 46.2728C233.994 46.661 234.053 47.0138 234.172 47.331C234.292 47.6459 234.47 47.8968 234.704 48.0839C234.941 48.2685 235.234 48.3608 235.585 48.3608ZM241.838 49.1137C241.346 49.1137 240.914 48.9965 240.542 48.7621C240.173 48.5277 239.884 48.1999 239.676 47.7785C239.47 47.3571 239.367 46.8646 239.367 46.3012C239.367 45.733 239.47 45.237 239.676 44.8133C239.884 44.3895 240.173 44.0604 240.542 43.826C240.914 43.5917 241.346 43.4745 241.838 43.4745C242.331 43.4745 242.762 43.5917 243.131 43.826C243.503 44.0604 243.792 44.3895 243.998 44.8133C244.206 45.237 244.31 45.733 244.31 46.3012C244.31 46.8646 244.206 47.3571 243.998 47.7785C243.792 48.1999 243.503 48.5277 243.131 48.7621C242.762 48.9965 242.331 49.1137 241.838 49.1137ZM241.838 48.3608C242.212 48.3608 242.52 48.265 242.762 48.0732C243.003 47.8814 243.182 47.6293 243.298 47.3168C243.414 47.0043 243.472 46.6658 243.472 46.3012C243.472 45.9366 243.414 45.5969 243.298 45.282C243.182 44.9671 243.003 44.7126 242.762 44.5185C242.52 44.3244 242.212 44.2273 241.838 44.2273C241.464 44.2273 241.157 44.3244 240.915 44.5185C240.674 44.7126 240.495 44.9671 240.379 45.282C240.263 45.5969 240.205 45.9366 240.205 46.3012C240.205 46.6658 240.263 47.0043 240.379 47.3168C240.495 47.6293 240.674 47.8814 240.915 48.0732C241.157 48.265 241.464 48.3608 241.838 48.3608ZM241.455 42.8069L242.321 41.1591H243.301L242.194 42.8069H241.455ZM246.64 49L244.978 43.5455H245.858L247.037 47.7216H247.094L248.259 43.5455H249.154L250.304 47.7074H250.361L251.54 43.5455H252.421L250.759 49H249.935L248.742 44.8097H248.657L247.463 49H246.64Z" fill="white"/>
<defs>
<linearGradient id="paint0_linear_6585_26610" x1="270.002" y1="30.5722" x2="-0.0017378" y2="30.5567" gradientUnits="userSpaceOnUse">
<stop offset="0.0001" stop-color="#FE9A79"/>
<stop offset="0.5001" stop-color="#F8C07D"/>
<stop offset="1" stop-color="#FEE298"/>
</linearGradient>
<linearGradient id="paint1_linear_6585_26610" x1="11.9999" y1="29.9846" x2="30.0005" y2="29.9849" gradientUnits="userSpaceOnUse">
<stop offset="0.0001" stop-color="#FE9A79"/>
<stop offset="0.5001" stop-color="#F8C07D"/>
<stop offset="1" stop-color="#FEE298"/>
</linearGradient>
<clipPath id="clip0_6585_26610">
<rect width="18" height="19" fill="white" transform="translate(12 21)"/>
</clipPath>
</defs>
</svg>
