<svg width="280" height="61" viewBox="0 0 280 61" fill="none" xmlns="http://www.w3.org/2000/svg">
<mask id="path-1-inside-1_6585_26978" fill="white">
<path d="M280 49C280 55.6275 274.627 61 268 61L12 61C5.37259 61 4.69686e-07 55.6274 1.04907e-06 49L4.28372e-06 12C4.8631e-06 5.37259 5.37259 4.69687e-07 12 1.04907e-06L268 2.34293e-05C274.627 2.40087e-05 280 5.37261 280 12L280 49Z"/>
</mask>
<path d="M280 49C280 55.6275 274.627 61 268 61L12 61C5.37259 61 4.69686e-07 55.6274 1.04907e-06 49L4.28372e-06 12C4.8631e-06 5.37259 5.37259 4.69687e-07 12 1.04907e-06L268 2.34293e-05C274.627 2.40087e-05 280 5.37261 280 12L280 49Z" fill="#F0642E"/>
<path d="M280 61L0 61L280 61ZM4.28372e-06 12C4.91139e-06 4.8203 5.82032 -0.999999 13 -0.999999L268 -0.999977C275.18 -0.999976 281 4.82032 281 12L279 12C279 5.92489 274.075 1.00002 268 1.00002L12 1C5.37259 1 4.81482e-06 5.92487 4.28372e-06 12ZM268 -0.999977C275.18 -0.999976 281 4.82032 281 12L281 48C281 55.1797 275.18 61 268 61C274.075 61 279 55.6275 279 49L279 12C279 5.92489 274.075 1.00002 268 1.00002L268 -0.999977ZM0 61L5.33279e-06 0L0 61Z" fill="url(#paint0_linear_6585_26978)" mask="url(#path-1-inside-1_6585_26978)"/>
<g clip-path="url(#clip0_6585_26978)">
<path d="M20.7535 38.7011C19.7206 35.0765 15.9442 31.3143 12.3059 30.2853C11.898 30.1542 11.898 29.8658 12.3059 29.7282C15.9507 28.6926 19.7206 24.9369 20.76 21.3058C20.8719 20.906 21.1416 20.906 21.2535 21.3058C22.2864 24.9369 26.0628 28.6926 29.6945 29.7282C30.1024 29.8593 30.1024 30.1542 29.6945 30.2853C26.0562 31.3143 22.2798 35.0765 21.2469 38.7011C21.1351 39.1075 20.8653 39.1075 20.7535 38.7011Z" fill="url(#paint1_linear_6585_26978)"/>
</g>
<path d="M46.38 17.904H44.184V21H43.008V12.324H46.38C48.084 12.324 49.176 13.44 49.176 15.108C49.176 16.728 48.072 17.904 46.38 17.904ZM46.176 13.38H44.184V16.848H46.128C47.292 16.848 47.94 16.164 47.94 15.096C47.94 14.004 47.28 13.38 46.176 13.38ZM49.6625 18.06C49.6625 16.248 50.9585 14.976 52.7225 14.976C54.4745 14.976 55.7705 16.248 55.7705 18.06C55.7705 19.872 54.4745 21.144 52.7225 21.144C50.9585 21.144 49.6625 19.872 49.6625 18.06ZM50.8025 18.06C50.8025 19.284 51.5825 20.136 52.7225 20.136C53.8505 20.136 54.6425 19.284 54.6425 18.06C54.6425 16.836 53.8505 15.984 52.7225 15.984C51.5825 15.984 50.8025 16.836 50.8025 18.06ZM61.1022 21H56.5302V20.088L59.6982 16.08H56.5302V15.132H61.1022V16.056L57.9102 20.052H61.1022V21ZM63.5026 21H62.3746V15.132H63.3946L63.5146 16.032C63.8866 15.36 64.6306 14.964 65.4586 14.964C67.0066 14.964 67.7146 15.912 67.7146 17.412V21H66.5866V17.664C66.5866 16.476 66.0346 15.996 65.1706 15.996C64.1146 15.996 63.5026 16.752 63.5026 17.892V21ZM70.9929 21.144C69.7329 21.144 68.9889 20.436 68.9889 19.368C68.9889 18.288 69.7929 17.616 71.1729 17.508L73.0209 17.364V17.196C73.0209 16.212 72.4329 15.864 71.6409 15.864C70.6929 15.864 70.1529 16.284 70.1529 16.992H69.1689C69.1689 15.768 70.1769 14.964 71.6889 14.964C73.1409 14.964 74.1249 15.732 74.1249 17.316V21H73.1649L73.0449 20.052C72.7449 20.724 71.9409 21.144 70.9929 21.144ZM71.3169 20.268C72.3849 20.268 73.0329 19.572 73.0329 18.468V18.156L71.5329 18.276C70.5369 18.372 70.1289 18.756 70.1289 19.332C70.1289 19.956 70.5849 20.268 71.3169 20.268ZM76.2511 13.74C75.8311 13.74 75.5071 13.404 75.5071 12.996C75.5071 12.576 75.8311 12.252 76.2511 12.252C76.6471 12.252 76.9951 12.576 76.9951 12.996C76.9951 13.404 76.6471 13.74 76.2511 13.74ZM74.1991 23.664L74.3911 22.644C74.6191 22.704 74.7511 22.728 74.9311 22.728C75.4711 22.728 75.6871 22.416 75.6871 21.756V15.132H76.8151V21.864C76.8151 23.04 76.1671 23.772 75.0271 23.772C74.7271 23.772 74.5351 23.76 74.1991 23.664ZM85.154 12.852L84.11 14.448H83.246L84.05 12.852H85.154ZM85.946 21H81.374V20.088L84.542 16.08H81.374V15.132H85.946V16.056L82.754 20.052H85.946V21ZM90.5783 15.084V16.116H90.0743C89.0063 16.116 88.3463 16.764 88.3463 17.892V21H87.2183V15.144H88.2743L88.3463 16.032C88.5863 15.42 89.1743 15.012 89.9783 15.012C90.1823 15.012 90.3503 15.036 90.5783 15.084ZM95.5894 12.852L94.5454 14.448H93.6814L94.4854 12.852H95.5894ZM91.0414 18.06C91.0414 16.248 92.3374 14.976 94.1014 14.976C95.8534 14.976 97.1494 16.248 97.1494 18.06C97.1494 19.872 95.8534 21.144 94.1014 21.144C92.3374 21.144 91.0414 19.872 91.0414 18.06ZM92.1814 18.06C92.1814 19.284 92.9614 20.136 94.1014 20.136C95.2294 20.136 96.0214 19.284 96.0214 18.06C96.0214 16.836 95.2294 15.984 94.1014 15.984C92.9614 15.984 92.1814 16.836 92.1814 18.06ZM100.75 21.144C99.046 21.144 98.014 19.872 98.014 18.084C98.014 16.284 99.058 14.964 100.798 14.964C101.698 14.964 102.454 15.36 102.85 16.08V12.168H103.966V21H102.958L102.862 19.932C102.478 20.736 101.686 21.144 100.75 21.144ZM100.978 20.124C102.13 20.124 102.838 19.272 102.838 18.048C102.838 16.848 102.13 15.984 100.978 15.984C99.826 15.984 99.154 16.848 99.154 18.048C99.154 19.26 99.826 20.124 100.978 20.124ZM106.745 21H105.617V17.088L104.921 17.424V16.572L105.617 16.236V12.168H106.745V15.696L107.453 15.36V16.212L106.745 16.548V21ZM110.122 21.144C108.862 21.144 108.118 20.436 108.118 19.368C108.118 18.288 108.922 17.616 110.302 17.508L112.15 17.364V17.196C112.15 16.212 111.562 15.864 110.77 15.864C109.822 15.864 109.282 16.284 109.282 16.992H108.298C108.298 15.768 109.306 14.964 110.818 14.964C112.27 14.964 113.254 15.732 113.254 17.316V21H112.294L112.174 20.052C111.874 20.724 111.07 21.144 110.122 21.144ZM110.446 20.268C111.514 20.268 112.162 19.572 112.162 18.468V18.156L110.662 18.276C109.666 18.372 109.258 18.756 109.258 19.332C109.258 19.956 109.714 20.268 110.446 20.268ZM122.309 21H117.737V20.088L120.905 16.08H117.737V15.132H122.309V16.056L119.117 20.052H122.309V21ZM125.298 21.144C124.038 21.144 123.294 20.436 123.294 19.368C123.294 18.288 124.098 17.616 125.478 17.508L127.326 17.364V17.196C127.326 16.212 126.738 15.864 125.946 15.864C124.998 15.864 124.458 16.284 124.458 16.992H123.474C123.474 15.768 124.482 14.964 125.994 14.964C127.446 14.964 128.43 15.732 128.43 17.316V21H127.47L127.35 20.052C127.05 20.724 126.246 21.144 125.298 21.144ZM125.622 20.268C126.69 20.268 127.338 19.572 127.338 18.468V18.156L125.838 18.276C124.842 18.372 124.434 18.756 124.434 19.332C124.434 19.956 124.89 20.268 125.622 20.268ZM129.992 23.628V15.132H131.012L131.096 16.188C131.492 15.384 132.284 14.964 133.22 14.964C134.9 14.964 135.944 16.224 135.944 18.024C135.944 19.812 134.96 21.156 133.22 21.156C132.284 21.156 131.504 20.76 131.12 20.04V23.628H129.992ZM131.132 18.072C131.132 19.272 131.828 20.136 132.98 20.136C134.132 20.136 134.816 19.272 134.816 18.072C134.816 16.86 134.132 15.996 132.98 15.996C131.828 15.996 131.132 16.848 131.132 18.072ZM136.424 23.628V22.704H137.18C137.72 22.704 138.152 22.62 138.428 21.876L138.632 21.312L136.268 15.132H137.456L139.16 19.86L140.9 15.132H142.064L139.292 22.32C138.896 23.328 138.308 23.748 137.408 23.748C137.036 23.748 136.724 23.7 136.424 23.628ZM144.62 21H143.492V16.08H142.34V15.132H143.492V13.296H144.62V15.132H145.772V16.08H144.62V21ZM148.43 21.144C147.17 21.144 146.426 20.436 146.426 19.368C146.426 18.288 147.23 17.616 148.61 17.508L150.458 17.364V17.196C150.458 16.212 149.87 15.864 149.078 15.864C148.13 15.864 147.59 16.284 147.59 16.992H146.606C146.606 15.768 147.614 14.964 149.126 14.964C150.578 14.964 151.562 15.732 151.562 17.316V21H150.602L150.482 20.052C150.182 20.724 149.378 21.144 148.43 21.144ZM148.754 20.268C149.822 20.268 150.47 19.572 150.47 18.468V18.156L148.97 18.276C147.974 18.372 147.566 18.756 147.566 19.332C147.566 19.956 148.022 20.268 148.754 20.268ZM157.301 12.852L156.269 14.448H155.405L156.209 12.852H157.301ZM154.253 21H153.125V15.132H154.145L154.265 16.032C154.637 15.36 155.381 14.964 156.209 14.964C157.757 14.964 158.465 15.912 158.465 17.412V21H157.337V17.664C157.337 16.476 156.785 15.996 155.921 15.996C154.865 15.996 154.253 16.752 154.253 17.892V21Z" fill="white"/>
<path d="M42.756 31.324V30.316H46.416V31.324H42.756ZM52.5252 34L50.6052 28.132H51.7692L52.7412 31.18C52.8732 31.612 52.9932 32.056 53.1012 32.572C53.1972 32.056 53.3532 31.564 53.4852 31.18L54.4692 28.132H55.6212L56.5932 31.18C56.6892 31.468 56.8812 32.152 56.9772 32.572C57.0732 32.104 57.1812 31.696 57.3492 31.18L58.3332 28.132H59.5092L57.5052 34H56.4372L55.4172 30.856C55.2252 30.268 55.1052 29.812 55.0452 29.488C54.9852 29.776 54.8772 30.16 54.6612 30.868L53.6412 34H52.5252ZM61.6282 34H60.5002V25.168H61.6282V30.892L64.2322 28.132H65.6482L63.4042 30.472L65.6362 34H64.3402L62.6242 31.288L61.6282 32.332V34ZM69.9299 28.084V29.116H69.4259C68.3579 29.116 67.6979 29.764 67.6979 30.892V34H66.5699V28.144H67.6259L67.6979 29.032C67.9379 28.42 68.5259 28.012 69.3299 28.012C69.5339 28.012 69.7019 28.036 69.9299 28.084ZM74.9409 25.852L73.8969 27.448H73.0329L73.8369 25.852H74.9409ZM70.3929 31.06C70.3929 29.248 71.6889 27.976 73.4529 27.976C75.2049 27.976 76.5009 29.248 76.5009 31.06C76.5009 32.872 75.2049 34.144 73.4529 34.144C71.6889 34.144 70.3929 32.872 70.3929 31.06ZM71.5329 31.06C71.5329 32.284 72.3129 33.136 73.4529 33.136C74.5809 33.136 75.3729 32.284 75.3729 31.06C75.3729 29.836 74.5809 28.984 73.4529 28.984C72.3129 28.984 71.5329 29.836 71.5329 31.06ZM79.347 34H78.219V29.08H77.067V28.132H78.219V26.296H79.347V28.132H80.499V29.08H79.347V34ZM81.0687 31.072C81.0687 29.236 82.2327 27.964 83.9487 27.964C85.4247 27.964 86.4567 28.804 86.6607 30.112H85.5327C85.3407 29.368 84.7407 28.972 83.9847 28.972C82.9167 28.972 82.1847 29.788 82.1847 31.06C82.1847 32.32 82.8687 33.136 83.9367 33.136C84.7407 33.136 85.3407 32.716 85.5447 32.02H86.6727C86.4447 33.292 85.3527 34.144 83.9367 34.144C82.2087 34.144 81.0687 32.92 81.0687 31.072ZM90.3949 34.144C88.6669 34.144 87.4789 32.896 87.4789 31.072C87.4789 29.236 88.6429 27.964 90.3469 27.964C92.0149 27.964 93.1069 29.116 93.1069 30.856V31.276L88.5709 31.288C88.6549 32.524 89.3029 33.208 90.4189 33.208C91.2949 33.208 91.8709 32.848 92.0629 32.176H93.1189C92.8309 33.436 91.8469 34.144 90.3949 34.144ZM90.3469 28.912C89.3629 28.912 88.7389 29.5 88.5949 30.532H91.9789C91.9789 29.56 91.3429 28.912 90.3469 28.912ZM100 34.144C98.296 34.144 97.264 32.872 97.264 31.084C97.264 29.284 98.308 27.964 100.048 27.964C100.948 27.964 101.704 28.36 102.1 29.08V25.168H103.216V34H102.208L102.112 32.932C101.728 33.736 100.936 34.144 100 34.144ZM100.228 33.124C101.38 33.124 102.088 32.272 102.088 31.048C102.088 29.848 101.38 28.984 100.228 28.984C99.076 28.984 98.404 29.848 98.404 31.048C98.404 32.26 99.076 33.124 100.228 33.124ZM104.459 31.06C104.459 29.248 105.755 27.976 107.519 27.976C109.271 27.976 110.567 29.248 110.567 31.06C110.567 32.872 109.271 34.144 107.519 34.144C105.755 34.144 104.459 32.872 104.459 31.06ZM105.599 31.06C105.599 32.284 106.379 33.136 107.519 33.136C108.647 33.136 109.439 32.284 109.439 31.06C109.439 29.836 108.647 28.984 107.519 28.984C106.379 28.984 105.599 29.836 105.599 31.06ZM111.336 32.296H112.416C112.416 32.896 112.872 33.256 113.616 33.256C114.408 33.256 114.864 32.932 114.864 32.392C114.864 31.996 114.672 31.756 114.06 31.6L113.028 31.36C111.984 31.108 111.492 30.592 111.492 29.728C111.492 28.648 112.404 27.964 113.7 27.964C114.984 27.964 115.824 28.684 115.848 29.8H114.768C114.744 29.212 114.348 28.84 113.664 28.84C112.956 28.84 112.56 29.152 112.56 29.692C112.56 30.088 112.848 30.352 113.424 30.496L114.456 30.748C115.452 30.988 115.944 31.444 115.944 32.32C115.944 33.436 114.984 34.144 113.592 34.144C112.212 34.144 111.336 33.412 111.336 32.296ZM118.851 34H117.723V29.08H116.571V28.132H117.723V26.296H118.851V28.132H120.003V29.08H118.851V34ZM123.489 34.144C121.761 34.144 120.573 32.896 120.573 31.072C120.573 29.236 121.737 27.964 123.441 27.964C125.109 27.964 126.201 29.116 126.201 30.856V31.276L121.665 31.288C121.749 32.524 122.397 33.208 123.513 33.208C124.389 33.208 124.965 32.848 125.157 32.176H126.213C125.997 33.1 125.409 33.736 124.533 34H124.545C124.005 34.204 123.777 34.552 123.777 34.84C123.777 35.104 123.957 35.248 124.221 35.248C124.305 35.248 124.401 35.236 124.497 35.188V35.992C124.341 36.052 124.185 36.076 123.993 36.076C123.369 36.076 122.961 35.656 122.961 35.104C122.961 34.744 123.153 34.396 123.537 34.144H123.489ZM123.441 28.912C122.457 28.912 121.833 29.5 121.689 30.532H125.073C125.073 29.56 124.437 28.912 123.441 28.912ZM127.461 36.628V28.132H128.481L128.565 29.188C128.961 28.384 129.753 27.964 130.689 27.964C132.369 27.964 133.413 29.224 133.413 31.024C133.413 32.812 132.429 34.156 130.689 34.156C129.753 34.156 128.973 33.76 128.589 33.04V36.628H127.461ZM128.601 31.072C128.601 32.272 129.297 33.136 130.449 33.136C131.601 33.136 132.285 32.272 132.285 31.072C132.285 29.86 131.601 28.996 130.449 28.996C129.297 28.996 128.601 29.848 128.601 31.072ZM135.784 34H134.656V28.132H135.676L135.796 29.032C136.168 28.36 136.912 27.964 137.74 27.964C139.288 27.964 139.996 28.912 139.996 30.412V34H138.868V30.664C138.868 29.476 138.316 28.996 137.452 28.996C136.396 28.996 135.784 29.752 135.784 30.892V34ZM144.09 34.144C142.362 34.144 141.174 32.896 141.174 31.072C141.174 29.236 142.338 27.964 144.042 27.964C145.71 27.964 146.802 29.116 146.802 30.856V31.276L142.266 31.288C142.35 32.524 142.998 33.208 144.114 33.208C144.99 33.208 145.566 32.848 145.758 32.176H146.814C146.526 33.436 145.542 34.144 144.09 34.144ZM144.042 28.912C143.058 28.912 142.434 29.5 142.29 30.532H145.674C145.674 29.56 145.038 28.912 144.042 28.912ZM149.442 31.396H148.566C148.446 30.496 148.362 28.9 148.362 27.34V25.324H149.658V27.34C149.658 28.924 149.562 30.508 149.442 31.396ZM149.01 34.168C148.53 34.168 148.146 33.784 148.146 33.316C148.146 32.848 148.53 32.464 149.01 32.464C149.466 32.464 149.862 32.848 149.862 33.316C149.862 33.784 149.466 34.168 149.01 34.168Z" fill="#FEE298"/>
<path d="M46.858 43.5455C46.8153 43.1857 46.6425 42.9063 46.3395 42.7074C46.0365 42.5086 45.6648 42.4091 45.2244 42.4091C44.9025 42.4091 44.6207 42.4612 44.3793 42.5654C44.1402 42.6696 43.9531 42.8128 43.8182 42.9951C43.6856 43.1774 43.6193 43.3845 43.6193 43.6165C43.6193 43.8107 43.6655 43.9776 43.7578 44.1172C43.8525 44.2545 43.9732 44.3694 44.12 44.4617C44.2668 44.5517 44.4207 44.6262 44.5817 44.6854C44.7427 44.7422 44.8906 44.7884 45.0256 44.8239L45.7642 45.0228C45.9536 45.0725 46.1643 45.1411 46.3963 45.2287C46.6307 45.3163 46.8544 45.4359 47.0675 45.5874C47.2829 45.7366 47.4605 45.9283 47.6001 46.1627C47.7398 46.3971 47.8097 46.6847 47.8097 47.0256C47.8097 47.4186 47.7067 47.7737 47.5007 48.091C47.2971 48.4082 46.9988 48.6603 46.6058 48.8473C46.2152 49.0344 45.7405 49.1279 45.1818 49.1279C44.661 49.1279 44.21 49.0438 43.8288 48.8758C43.45 48.7077 43.1518 48.4733 42.9339 48.1726C42.7185 47.872 42.5966 47.5228 42.5682 47.125H43.4773C43.5009 47.3997 43.5933 47.6269 43.7543 47.8069C43.9176 47.9844 44.1236 48.117 44.3722 48.2046C44.6231 48.2898 44.893 48.3324 45.1818 48.3324C45.518 48.3324 45.8198 48.278 46.0874 48.1691C46.3549 48.0578 46.5668 47.9039 46.723 47.7074C46.8793 47.5086 46.9574 47.2766 46.9574 47.0114C46.9574 46.7699 46.8899 46.5734 46.755 46.4219C46.62 46.2704 46.4425 46.1473 46.2223 46.0526C46.0021 45.9579 45.7642 45.875 45.5085 45.804L44.6136 45.5483C44.0455 45.385 43.5956 45.1518 43.2642 44.8488C42.9328 44.5457 42.767 44.1492 42.767 43.6591C42.767 43.2519 42.8771 42.8968 43.0973 42.5938C43.3198 42.2884 43.6181 42.0517 43.9922 41.8836C44.3686 41.7131 44.7888 41.6279 45.2528 41.6279C45.7216 41.6279 46.1383 41.7119 46.5028 41.88C46.8674 42.0457 47.1563 42.273 47.3693 42.5618C47.5848 42.8507 47.6984 43.1786 47.7102 43.5455H46.858ZM44.7983 40.9887L45.6648 39.341H46.6449L45.5369 40.9887H44.7983ZM49.9821 41.7273V49H49.144V41.7273H49.9821ZM53.804 49.1137C53.2784 49.1137 52.825 48.9977 52.4439 48.7657C52.0651 48.5313 51.7727 48.2046 51.5668 47.7856C51.3632 47.3642 51.2614 46.8741 51.2614 46.3154C51.2614 45.7567 51.3632 45.2643 51.5668 44.8381C51.7727 44.4096 52.0592 44.0758 52.4261 43.8367C52.7955 43.5952 53.2263 43.4745 53.7188 43.4745C54.0028 43.4745 54.2834 43.5218 54.5604 43.6165C54.8374 43.7112 55.0895 43.8651 55.3168 44.0782C55.544 44.2889 55.7251 44.5682 55.8601 44.9162C55.995 45.2643 56.0625 45.6928 56.0625 46.2018V46.5569H51.858V45.8324H55.2102C55.2102 45.5247 55.1487 45.25 55.0256 45.0086C54.9048 44.7671 54.732 44.5765 54.5071 44.4368C54.2846 44.2972 54.0218 44.2273 53.7188 44.2273C53.3849 44.2273 53.0961 44.3102 52.8523 44.4759C52.6108 44.6393 52.425 44.8523 52.2947 45.1151C52.1645 45.3779 52.0994 45.6596 52.0994 45.9603V46.4432C52.0994 46.8552 52.1705 47.2044 52.3125 47.4908C52.4569 47.7749 52.657 47.9915 52.9126 48.1407C53.1683 48.2875 53.4654 48.3608 53.804 48.3608C54.0241 48.3608 54.223 48.3301 54.4006 48.2685C54.5805 48.2046 54.7356 48.1099 54.8658 47.9844C54.996 47.8566 55.0966 47.698 55.1676 47.5086L55.9773 47.7358C55.892 48.0105 55.7488 48.2519 55.5476 48.4603C55.3464 48.6662 55.0978 48.8272 54.8018 48.9432C54.5059 49.0569 54.1733 49.1137 53.804 49.1137ZM59.397 49.1137C58.9425 49.1137 58.5412 48.9989 58.1932 48.7692C57.8452 48.5372 57.5729 48.2105 57.3764 47.7891C57.1799 47.3653 57.0817 46.8646 57.0817 46.287C57.0817 45.7141 57.1799 45.2169 57.3764 44.7955C57.5729 44.3741 57.8464 44.0486 58.1967 43.8189C58.5471 43.5893 58.9519 43.4745 59.4112 43.4745C59.7663 43.4745 60.0469 43.5337 60.2528 43.652C60.4612 43.768 60.6198 43.9006 60.7287 44.0498C60.84 44.1965 60.9264 44.3173 60.9879 44.412H61.0589V41.7273H61.897V49H61.0874V48.162H60.9879C60.9264 48.2614 60.8388 48.3869 60.7251 48.5384C60.6115 48.6875 60.4493 48.8213 60.2386 48.9397C60.0279 49.0557 59.7474 49.1137 59.397 49.1137ZM59.5107 48.3608C59.8468 48.3608 60.1309 48.2732 60.3629 48.0981C60.5949 47.9205 60.7713 47.6755 60.892 47.363C61.0128 47.0481 61.0732 46.6847 61.0732 46.2728C61.0732 45.8656 61.014 45.5093 60.8956 45.2039C60.7772 44.8961 60.602 44.657 60.37 44.4866C60.138 44.3137 59.8516 44.2273 59.5107 44.2273C59.1555 44.2273 58.8596 44.3185 58.6229 44.5008C58.3885 44.6807 58.2121 44.9257 58.0938 45.2358C57.9777 45.5436 57.9197 45.8893 57.9197 46.2728C57.9197 46.661 57.9789 47.0138 58.0973 47.331C58.218 47.6459 58.3956 47.8968 58.63 48.0839C58.8667 48.2685 59.1603 48.3608 59.5107 48.3608ZM63.392 49V48.3608L66.4886 44.3836V44.3268H63.4915V43.5455H67.5682V44.2131L64.5568 48.162V48.2188H67.6676V49H63.392ZM65.0966 42.8069L65.9631 41.1591H66.9432L65.8352 42.8069H65.0966ZM70.2085 48.0057L70.1516 48.3893C70.1114 48.6591 70.0498 48.948 69.967 49.2557C69.8865 49.5635 69.8024 49.8535 69.7148 50.1258C69.6272 50.398 69.555 50.6146 69.4982 50.7756H68.859C68.8898 50.6241 68.93 50.4241 68.9798 50.1755C69.0295 49.9269 69.0792 49.6487 69.1289 49.341C69.181 49.0356 69.2236 48.7231 69.2567 48.4035L69.2994 48.0057H70.2085ZM75.3549 47.0114L75.3407 45.9745H75.5112L77.8975 43.5455H78.9345L76.3919 46.1165H76.3208L75.3549 47.0114ZM74.5737 49V41.7273H75.4118V49H74.5737ZM78.0396 49L75.9089 46.3012L76.5055 45.7188L79.1049 49H78.0396ZM82.3853 43.5455V44.2557H79.5586V43.5455H82.3853ZM80.3825 42.2387H81.2205V47.4375C81.2205 47.6743 81.2549 47.8518 81.3235 47.9702C81.3945 48.0862 81.4845 48.1643 81.5934 48.2046C81.7047 48.2425 81.8219 48.2614 81.945 48.2614C82.0373 48.2614 82.113 48.2567 82.1722 48.2472C82.2314 48.2354 82.2788 48.2259 82.3143 48.2188L82.4847 48.9716C82.4279 48.9929 82.3486 49.0143 82.2468 49.0356C82.145 49.0592 82.016 49.0711 81.8597 49.0711C81.623 49.0711 81.391 49.0202 81.1637 48.9184C80.9388 48.8166 80.7518 48.6615 80.6026 48.4532C80.4558 48.2448 80.3825 47.9821 80.3825 47.6648V42.2387ZM85.8033 49.1137C85.3108 49.1137 84.8788 48.9965 84.5071 48.7621C84.1378 48.5277 83.849 48.1999 83.6406 47.7785C83.4347 47.3571 83.3317 46.8646 83.3317 46.3012C83.3317 45.733 83.4347 45.237 83.6406 44.8133C83.849 44.3895 84.1378 44.0604 84.5071 43.826C84.8788 43.5917 85.3108 43.4745 85.8033 43.4745C86.2957 43.4745 86.7266 43.5917 87.0959 43.826C87.4676 44.0604 87.7564 44.3895 87.9624 44.8133C88.1707 45.237 88.2749 45.733 88.2749 46.3012C88.2749 46.8646 88.1707 47.3571 87.9624 47.7785C87.7564 48.1999 87.4676 48.5277 87.0959 48.7621C86.7266 48.9965 86.2957 49.1137 85.8033 49.1137ZM85.8033 48.3608C86.1773 48.3608 86.4851 48.265 86.7266 48.0732C86.968 47.8814 87.1468 47.6293 87.2628 47.3168C87.3788 47.0043 87.4368 46.6658 87.4368 46.3012C87.4368 45.9366 87.3788 45.5969 87.2628 45.282C87.1468 44.9671 86.968 44.7126 86.7266 44.5185C86.4851 44.3244 86.1773 44.2273 85.8033 44.2273C85.4292 44.2273 85.1214 44.3244 84.88 44.5185C84.6385 44.7126 84.4598 44.9671 84.3438 45.282C84.2277 45.5969 84.1697 45.9366 84.1697 46.3012C84.1697 46.6658 84.2277 47.0043 84.3438 47.3168C84.4598 47.6293 84.6385 47.8814 84.88 48.0732C85.1214 48.265 85.4292 48.3608 85.8033 48.3608ZM85.4197 42.8069L86.2862 41.1591H87.2663L86.1584 42.8069H85.4197ZM89.5542 49V43.5455H90.3638V44.3694H90.4206C90.5201 44.0995 90.7 43.8805 90.9604 43.7124C91.2208 43.5443 91.5144 43.4603 91.8411 43.4603C91.9026 43.4603 91.9796 43.4615 92.0719 43.4638C92.1642 43.4662 92.2341 43.4697 92.2814 43.4745V44.3268C92.253 44.3196 92.1879 44.309 92.0861 44.2948C91.9867 44.2782 91.8813 44.2699 91.7701 44.2699C91.5049 44.2699 91.2682 44.3256 91.0598 44.4368C90.8539 44.5457 90.6905 44.6973 90.5698 44.8914C90.4514 45.0831 90.3922 45.3021 90.3922 45.5483V49H89.5542ZM95.3958 49.1137C94.8702 49.1137 94.4168 48.9977 94.0357 48.7657C93.6569 48.5313 93.3645 48.2046 93.1586 47.7856C92.955 47.3642 92.8532 46.8741 92.8532 46.3154C92.8532 45.7567 92.955 45.2643 93.1586 44.8381C93.3645 44.4096 93.651 44.0758 94.0179 43.8367C94.3873 43.5952 94.8181 43.4745 95.3105 43.4745C95.5946 43.4745 95.8752 43.5218 96.1522 43.6165C96.4292 43.7112 96.6813 43.8651 96.9086 44.0782C97.1358 44.2889 97.3169 44.5682 97.4519 44.9162C97.5868 45.2643 97.6543 45.6928 97.6543 46.2018V46.5569H93.4498V45.8324H96.802C96.802 45.5247 96.7405 45.25 96.6174 45.0086C96.4966 44.7671 96.3238 44.5765 96.0989 44.4368C95.8764 44.2972 95.6136 44.2273 95.3105 44.2273C94.9767 44.2273 94.6879 44.3102 94.4441 44.4759C94.2026 44.6393 94.0167 44.8523 93.8865 45.1151C93.7563 45.3779 93.6912 45.6596 93.6912 45.9603V46.4432C93.6912 46.8552 93.7623 47.2044 93.9043 47.4908C94.0487 47.7749 94.2488 47.9915 94.5044 48.1407C94.7601 48.2875 95.0572 48.3608 95.3958 48.3608C95.6159 48.3608 95.8148 48.3301 95.9924 48.2685C96.1723 48.2046 96.3274 48.1099 96.4576 47.9844C96.5878 47.8566 96.6884 47.698 96.7594 47.5086L97.5691 47.7358C97.4838 48.0105 97.3406 48.2519 97.1394 48.4603C96.9382 48.6662 96.6896 48.8272 96.3936 48.9432C96.0977 49.0569 95.7651 49.1137 95.3958 49.1137ZM102.523 47.0114L102.509 45.9745H102.679L105.066 43.5455H106.102L103.56 46.1165H103.489L102.523 47.0114ZM101.742 49V41.7273H102.58V49H101.742ZM105.208 49L103.077 46.3012L103.673 45.7188L106.273 49H105.208ZM108.786 49.1279C108.441 49.1279 108.127 49.0628 107.845 48.9326C107.563 48.8 107.34 48.6094 107.174 48.3608C107.008 48.1099 106.925 47.8069 106.925 47.4518C106.925 47.1393 106.987 46.8859 107.11 46.6918C107.233 46.4953 107.398 46.3414 107.604 46.2302C107.81 46.1189 108.037 46.036 108.286 45.9816C108.536 45.9248 108.789 45.8798 109.042 45.8466C109.373 45.804 109.642 45.7721 109.848 45.7508C110.056 45.7271 110.208 45.688 110.303 45.6336C110.4 45.5791 110.448 45.4844 110.448 45.3495V45.3211C110.448 44.9707 110.352 44.6984 110.161 44.5043C109.971 44.3102 109.683 44.2131 109.298 44.2131C108.897 44.2131 108.584 44.3007 108.357 44.4759C108.129 44.6511 107.969 44.8381 107.877 45.037L107.082 44.7529C107.224 44.4214 107.413 44.1634 107.65 43.9787C107.889 43.7917 108.149 43.6615 108.431 43.5881C108.715 43.5124 108.995 43.4745 109.269 43.4745C109.444 43.4745 109.646 43.4958 109.873 43.5384C110.103 43.5786 110.324 43.6627 110.537 43.7905C110.752 43.9184 110.931 44.1113 111.073 44.3694C111.215 44.6274 111.286 44.9731 111.286 45.4063V49H110.448V48.2614H110.406C110.349 48.3798 110.254 48.5064 110.121 48.6414C109.989 48.7763 109.813 48.8911 109.592 48.9858C109.372 49.0805 109.103 49.1279 108.786 49.1279ZM108.914 48.375C109.246 48.375 109.525 48.3099 109.752 48.1797C109.982 48.0495 110.155 47.8814 110.271 47.6755C110.389 47.4695 110.448 47.2529 110.448 47.0256V46.2586C110.413 46.3012 110.335 46.3402 110.214 46.3758C110.095 46.4089 109.958 46.4385 109.802 46.4645C109.648 46.4882 109.498 46.5095 109.351 46.5285C109.206 46.545 109.089 46.5592 108.999 46.5711C108.781 46.5995 108.578 46.6456 108.388 46.7096C108.201 46.7711 108.05 46.8646 107.934 46.9901C107.82 47.1132 107.763 47.2813 107.763 47.4944C107.763 47.7856 107.871 48.0057 108.087 48.1549C108.304 48.3017 108.58 48.375 108.914 48.375ZM113.654 45.7188V49H112.816V43.5455H113.626V44.3978H113.697C113.824 44.1208 114.019 43.8982 114.279 43.7302C114.539 43.5597 114.876 43.4745 115.287 43.4745C115.657 43.4745 115.98 43.5502 116.257 43.7018C116.534 43.8509 116.749 44.0782 116.903 44.3836C117.057 44.6866 117.134 45.0701 117.134 45.5341V49H116.296V45.591C116.296 45.1625 116.185 44.8286 115.962 44.5895C115.74 44.3481 115.434 44.2273 115.046 44.2273C114.778 44.2273 114.539 44.2853 114.329 44.4013C114.12 44.5173 113.956 44.6866 113.835 44.9091C113.714 45.1317 113.654 45.4016 113.654 45.7188ZM120.271 49.1279C119.925 49.1279 119.611 49.0628 119.33 48.9326C119.048 48.8 118.824 48.6094 118.658 48.3608C118.493 48.1099 118.41 47.8069 118.41 47.4518C118.41 47.1393 118.471 46.8859 118.594 46.6918C118.718 46.4953 118.882 46.3414 119.088 46.2302C119.294 46.1189 119.521 46.036 119.77 45.9816C120.021 45.9248 120.273 45.8798 120.526 45.8466C120.858 45.804 121.126 45.7721 121.332 45.7508C121.541 45.7271 121.692 45.688 121.787 45.6336C121.884 45.5791 121.933 45.4844 121.933 45.3495V45.3211C121.933 44.9707 121.837 44.6984 121.645 44.5043C121.455 44.3102 121.168 44.2131 120.782 44.2131C120.382 44.2131 120.068 44.3007 119.841 44.4759C119.614 44.6511 119.454 44.8381 119.362 45.037L118.566 44.7529C118.708 44.4214 118.897 44.1634 119.134 43.9787C119.373 43.7917 119.634 43.6615 119.915 43.5881C120.2 43.5124 120.479 43.4745 120.754 43.4745C120.929 43.4745 121.13 43.4958 121.357 43.5384C121.587 43.5786 121.808 43.6627 122.021 43.7905C122.237 43.9184 122.415 44.1113 122.558 44.3694C122.7 44.6274 122.771 44.9731 122.771 45.4063V49H121.933V48.2614H121.89C121.833 48.3798 121.738 48.5064 121.606 48.6414C121.473 48.7763 121.297 48.8911 121.077 48.9858C120.857 49.0805 120.588 49.1279 120.271 49.1279ZM120.398 48.375C120.73 48.375 121.009 48.3099 121.237 48.1797C121.466 48.0495 121.639 47.8814 121.755 47.6755C121.873 47.4695 121.933 47.2529 121.933 47.0256V46.2586C121.897 46.3012 121.819 46.3402 121.698 46.3758C121.58 46.4089 121.442 46.4385 121.286 46.4645C121.132 46.4882 120.982 46.5095 120.835 46.5285C120.691 46.545 120.574 46.5592 120.484 46.5711C120.266 46.5995 120.062 46.6456 119.873 46.7096C119.686 46.7711 119.534 46.8646 119.418 46.9901C119.305 47.1132 119.248 47.2813 119.248 47.4944C119.248 47.7856 119.356 48.0057 119.571 48.1549C119.789 48.3017 120.065 48.375 120.398 48.375ZM125.92 44.4546V45.0796L123.519 45.9887V45.3637L125.92 44.4546ZM125.138 41.7273V49H124.3V41.7273H125.138ZM127.213 51.0455C127.071 51.0455 126.944 51.0337 126.833 51.01C126.722 50.9887 126.645 50.9674 126.602 50.9461L126.815 50.2074C127.019 50.2595 127.199 50.2785 127.355 50.2643C127.511 50.25 127.65 50.1802 127.771 50.0547C127.894 49.9316 128.006 49.7316 128.108 49.4546L128.264 49.0285L126.247 43.5455H127.156L128.662 47.8921H128.719L130.224 43.5455H131.134L128.818 49.7955C128.714 50.0772 128.585 50.3104 128.431 50.4951C128.277 50.6821 128.098 50.8206 127.895 50.9106C127.694 51.0005 127.466 51.0455 127.213 51.0455ZM137.254 51.1591C136.849 51.1591 136.501 51.1071 136.21 51.0029C135.919 50.9011 135.676 50.7661 135.482 50.5981C135.29 50.4323 135.137 50.2548 135.024 50.0654L135.691 49.5966C135.767 49.6961 135.863 49.8097 135.979 49.9375C136.095 50.0678 136.254 50.1802 136.455 50.2749C136.658 50.372 136.925 50.4205 137.254 50.4205C137.694 50.4205 138.058 50.314 138.344 50.1009C138.631 49.8878 138.774 49.554 138.774 49.0995V47.9915H138.703C138.641 48.091 138.554 48.2141 138.44 48.3608C138.329 48.5053 138.168 48.6343 137.957 48.7479C137.749 48.8592 137.467 48.9148 137.112 48.9148C136.672 48.9148 136.276 48.8107 135.926 48.6023C135.578 48.394 135.302 48.091 135.098 47.6932C134.897 47.2955 134.797 46.8125 134.797 46.2444C134.797 45.6857 134.895 45.1991 135.091 44.7848C135.288 44.3682 135.561 44.0462 135.912 43.8189C136.262 43.5893 136.667 43.4745 137.126 43.4745C137.481 43.4745 137.763 43.5337 137.971 43.652C138.182 43.768 138.343 43.9006 138.454 44.0498C138.568 44.1965 138.655 44.3173 138.717 44.412H138.802V43.5455H139.612V49.1563C139.612 49.625 139.505 50.0062 139.292 50.2998C139.082 50.5957 138.797 50.8123 138.44 50.9496C138.085 51.0893 137.69 51.1591 137.254 51.1591ZM137.225 48.162C137.562 48.162 137.846 48.085 138.078 47.9312C138.31 47.7773 138.486 47.5559 138.607 47.2671C138.728 46.9783 138.788 46.6326 138.788 46.2302C138.788 45.8372 138.729 45.4903 138.61 45.1897C138.492 44.889 138.317 44.6535 138.085 44.483C137.853 44.3125 137.566 44.2273 137.225 44.2273C136.87 44.2273 136.574 44.3173 136.338 44.4972C136.103 44.6771 135.927 44.9186 135.809 45.2216C135.693 45.5247 135.635 45.8608 135.635 46.2302C135.635 46.6089 135.694 46.9439 135.812 47.2351C135.933 47.524 136.11 47.7512 136.345 47.917C136.582 48.0803 136.875 48.162 137.225 48.162ZM143.433 49.1137C142.907 49.1137 142.454 48.9977 142.073 48.7657C141.694 48.5313 141.402 48.2046 141.196 47.7856C140.992 47.3642 140.89 46.8741 140.89 46.3154C140.89 45.7567 140.992 45.2643 141.196 44.8381C141.402 44.4096 141.688 44.0758 142.055 43.8367C142.424 43.5952 142.855 43.4745 143.348 43.4745C143.632 43.4745 143.912 43.5218 144.189 43.6165C144.466 43.7112 144.718 43.8651 144.946 44.0782C145.173 44.2889 145.354 44.5682 145.489 44.9162C145.624 45.2643 145.691 45.6928 145.691 46.2018V46.5569H141.487V45.8324H144.839C144.839 45.5247 144.778 45.25 144.654 45.0086C144.534 44.7671 144.361 44.5765 144.136 44.4368C143.913 44.2972 143.651 44.2273 143.348 44.2273C143.014 44.2273 142.725 44.3102 142.481 44.4759C142.24 44.6393 142.054 44.8523 141.924 45.1151C141.793 45.3779 141.728 45.6596 141.728 45.9603V46.4432C141.728 46.8552 141.799 47.2044 141.941 47.4908C142.086 47.7749 142.286 47.9915 142.542 48.1407C142.797 48.2875 143.094 48.3608 143.433 48.3608C143.653 48.3608 143.852 48.3301 144.029 48.2685C144.209 48.2046 144.364 48.1099 144.495 47.9844C144.625 47.8566 144.725 47.698 144.797 47.5086L145.606 47.7358C145.521 48.0105 145.378 48.2519 145.176 48.4603C144.975 48.6662 144.727 48.8272 144.431 48.9432C144.135 49.0569 143.802 49.1137 143.433 49.1137ZM147.804 45.7188V49H146.966V43.5455H147.776V44.3978H147.847C147.975 44.1208 148.169 43.8982 148.429 43.7302C148.69 43.5597 149.026 43.4745 149.438 43.4745C149.807 43.4745 150.13 43.5502 150.407 43.7018C150.684 43.8509 150.9 44.0782 151.054 44.3836C151.208 44.6866 151.284 45.0701 151.284 45.5341V49H150.446V45.591C150.446 45.1625 150.335 44.8286 150.113 44.5895C149.89 44.3481 149.585 44.2273 149.196 44.2273C148.929 44.2273 148.69 44.2853 148.479 44.4013C148.271 44.5173 148.106 44.6866 147.985 44.9091C147.865 45.1317 147.804 45.4016 147.804 45.7188ZM155.103 49.1137C154.577 49.1137 154.124 48.9977 153.743 48.7657C153.364 48.5313 153.072 48.2046 152.866 47.7856C152.662 47.3642 152.56 46.8741 152.56 46.3154C152.56 45.7567 152.662 45.2643 152.866 44.8381C153.072 44.4096 153.358 44.0758 153.725 43.8367C154.094 43.5952 154.525 43.4745 155.018 43.4745C155.302 43.4745 155.582 43.5218 155.859 43.6165C156.136 43.7112 156.388 43.8651 156.616 44.0782C156.843 44.2889 157.024 44.5682 157.159 44.9162C157.294 45.2643 157.361 45.6928 157.361 46.2018V46.5569H153.157V45.8324H156.509C156.509 45.5247 156.448 45.25 156.324 45.0086C156.204 44.7671 156.031 44.5765 155.806 44.4368C155.583 44.2972 155.321 44.2273 155.018 44.2273C154.684 44.2273 154.395 44.3102 154.151 44.4759C153.91 44.6393 153.724 44.8523 153.594 45.1151C153.463 45.3779 153.398 45.6596 153.398 45.9603V46.4432C153.398 46.8552 153.469 47.2044 153.611 47.4908C153.756 47.7749 153.956 47.9915 154.211 48.1407C154.467 48.2875 154.764 48.3608 155.103 48.3608C155.323 48.3608 155.522 48.3301 155.699 48.2685C155.879 48.2046 156.034 48.1099 156.165 47.9844C156.295 47.8566 156.395 47.698 156.466 47.5086L157.276 47.7358C157.191 48.0105 157.048 48.2519 156.846 48.4603C156.645 48.6662 156.397 48.8272 156.101 48.9432C155.805 49.0569 155.472 49.1137 155.103 49.1137ZM158.636 49V43.5455H159.446V44.3694H159.503C159.602 44.0995 159.782 43.8805 160.042 43.7124C160.303 43.5443 160.596 43.4603 160.923 43.4603C160.985 43.4603 161.062 43.4615 161.154 43.4638C161.246 43.4662 161.316 43.4697 161.363 43.4745V44.3268C161.335 44.3196 161.27 44.309 161.168 44.2948C161.069 44.2782 160.963 44.2699 160.852 44.2699C160.587 44.2699 160.35 44.3256 160.142 44.4368C159.936 44.5457 159.773 44.6973 159.652 44.8914C159.533 45.0831 159.474 45.3021 159.474 45.5483V49H158.636ZM165.794 46.7699V43.5455H166.632V49H165.794V48.0768H165.738C165.61 48.3537 165.411 48.5893 165.141 48.7834C164.871 48.9752 164.53 49.0711 164.118 49.0711C163.777 49.0711 163.474 48.9965 163.209 48.8473C162.944 48.6958 162.736 48.4686 162.584 48.1655C162.433 47.8601 162.357 47.4754 162.357 47.0114V43.5455H163.195V46.9546C163.195 47.3523 163.306 47.6696 163.529 47.9063C163.754 48.143 164.04 48.2614 164.388 48.2614C164.596 48.2614 164.808 48.2081 165.024 48.1016C165.242 47.9951 165.424 47.8317 165.571 47.6116C165.72 47.3914 165.794 47.1108 165.794 46.7699ZM168.167 43.5455H169.006V49.3978C169.006 49.7339 168.948 50.0251 168.831 50.2714C168.718 50.5176 168.545 50.7081 168.313 50.8431C168.083 50.978 167.793 51.0455 167.443 51.0455C167.415 51.0455 167.386 51.0455 167.358 51.0455C167.329 51.0455 167.301 51.0455 167.273 51.0455V50.2643C167.301 50.2643 167.327 50.2643 167.351 50.2643C167.374 50.2643 167.4 50.2643 167.429 50.2643C167.684 50.2643 167.872 50.1885 167.99 50.037C168.108 49.8878 168.167 49.6748 168.167 49.3978V43.5455ZM168.579 42.6364C168.416 42.6364 168.275 42.5808 168.157 42.4695C168.041 42.3582 167.983 42.2245 167.983 42.0682C167.983 41.912 168.041 41.7782 168.157 41.667C168.275 41.5557 168.416 41.5 168.579 41.5C168.743 41.5 168.882 41.5557 168.998 41.667C169.117 41.7782 169.176 41.912 169.176 42.0682C169.176 42.2245 169.117 42.3582 168.998 42.4695C168.882 42.5808 168.743 42.6364 168.579 42.6364ZM172.146 49.1279C171.8 49.1279 171.486 49.0628 171.205 48.9326C170.923 48.8 170.699 48.6094 170.533 48.3608C170.368 48.1099 170.285 47.8069 170.285 47.4518C170.285 47.1393 170.346 46.8859 170.469 46.6918C170.593 46.4953 170.757 46.3414 170.963 46.2302C171.169 46.1189 171.396 46.036 171.645 45.9816C171.896 45.9248 172.148 45.8798 172.401 45.8466C172.733 45.804 173.001 45.7721 173.207 45.7508C173.416 45.7271 173.567 45.688 173.662 45.6336C173.759 45.5791 173.808 45.4844 173.808 45.3495V45.3211C173.808 44.9707 173.712 44.6984 173.52 44.5043C173.33 44.3102 173.043 44.2131 172.657 44.2131C172.257 44.2131 171.943 44.3007 171.716 44.4759C171.489 44.6511 171.329 44.8381 171.237 45.037L170.441 44.7529C170.583 44.4214 170.772 44.1634 171.009 43.9787C171.248 43.7917 171.509 43.6615 171.79 43.5881C172.075 43.5124 172.354 43.4745 172.629 43.4745C172.804 43.4745 173.005 43.4958 173.232 43.5384C173.462 43.5786 173.683 43.6627 173.896 43.7905C174.112 43.9184 174.29 44.1113 174.433 44.3694C174.575 44.6274 174.646 44.9731 174.646 45.4063V49H173.808V48.2614H173.765C173.708 48.3798 173.613 48.5064 173.481 48.6414C173.348 48.7763 173.172 48.8911 172.952 48.9858C172.732 49.0805 172.463 49.1279 172.146 49.1279ZM172.273 48.375C172.605 48.375 172.884 48.3099 173.112 48.1797C173.341 48.0495 173.514 47.8814 173.63 47.6755C173.748 47.4695 173.808 47.2529 173.808 47.0256V46.2586C173.772 46.3012 173.694 46.3402 173.573 46.3758C173.455 46.4089 173.317 46.4385 173.161 46.4645C173.007 46.4882 172.857 46.5095 172.71 46.5285C172.566 46.545 172.449 46.5592 172.359 46.5711C172.141 46.5995 171.937 46.6456 171.748 46.7096C171.561 46.7711 171.409 46.8646 171.293 46.9901C171.18 47.1132 171.123 47.2813 171.123 47.4944C171.123 47.7856 171.231 48.0057 171.446 48.1549C171.664 48.3017 171.94 48.375 172.273 48.375ZM173.978 51.1307C173.687 51.1307 173.445 51.0502 173.254 50.8893C173.064 50.7306 172.969 50.4986 172.969 50.1932C172.969 50.018 173.012 49.8429 173.097 49.6677C173.183 49.4925 173.32 49.3232 173.509 49.1598C173.699 48.9965 173.95 48.8438 174.262 48.7018L174.646 49C174.433 49.1563 174.242 49.322 174.074 49.4972C173.906 49.6724 173.822 49.8665 173.822 50.0796C173.822 50.1861 173.848 50.269 173.9 50.3282C173.952 50.3897 174.049 50.4205 174.191 50.4205C174.298 50.4205 174.392 50.4063 174.475 50.3779C174.558 50.3495 174.624 50.3211 174.674 50.2927L174.731 50.9177C174.653 50.9674 174.55 51.0147 174.422 51.0597C174.296 51.1071 174.148 51.1307 173.978 51.1307ZM179.826 45.7188V49H178.988V43.5455H179.797V44.3978H179.868C179.996 44.1208 180.19 43.8982 180.451 43.7302C180.711 43.5597 181.047 43.4745 181.459 43.4745C181.829 43.4745 182.152 43.5502 182.429 43.7018C182.706 43.8509 182.921 44.0782 183.075 44.3836C183.229 44.6866 183.306 45.0701 183.306 45.5341V49H182.468V45.591C182.468 45.1625 182.357 44.8286 182.134 44.5895C181.912 44.3481 181.606 44.2273 181.218 44.2273C180.95 44.2273 180.711 44.2853 180.501 44.4013C180.292 44.5173 180.128 44.6866 180.007 44.9091C179.886 45.1317 179.826 45.4016 179.826 45.7188ZM186.442 49.1279C186.097 49.1279 185.783 49.0628 185.501 48.9326C185.22 48.8 184.996 48.6094 184.83 48.3608C184.665 48.1099 184.582 47.8069 184.582 47.4518C184.582 47.1393 184.643 46.8859 184.766 46.6918C184.889 46.4953 185.054 46.3414 185.26 46.2302C185.466 46.1189 185.693 46.036 185.942 45.9816C186.193 45.9248 186.445 45.8798 186.698 45.8466C187.03 45.804 187.298 45.7721 187.504 45.7508C187.713 45.7271 187.864 45.688 187.959 45.6336C188.056 45.5791 188.104 45.4844 188.104 45.3495V45.3211C188.104 44.9707 188.009 44.6984 187.817 44.5043C187.627 44.3102 187.34 44.2131 186.954 44.2131C186.554 44.2131 186.24 44.3007 186.013 44.4759C185.786 44.6511 185.626 44.8381 185.533 45.037L184.738 44.7529C184.88 44.4214 185.069 44.1634 185.306 43.9787C185.545 43.7917 185.806 43.6615 186.087 43.5881C186.371 43.5124 186.651 43.4745 186.925 43.4745C187.101 43.4745 187.302 43.4958 187.529 43.5384C187.759 43.5786 187.98 43.6627 188.193 43.7905C188.409 43.9184 188.587 44.1113 188.729 44.3694C188.871 44.6274 188.942 44.9731 188.942 45.4063V49H188.104V48.2614H188.062C188.005 48.3798 187.91 48.5064 187.778 48.6414C187.645 48.7763 187.469 48.8911 187.249 48.9858C187.028 49.0805 186.76 49.1279 186.442 49.1279ZM186.57 48.375C186.902 48.375 187.181 48.3099 187.408 48.1797C187.638 48.0495 187.811 47.8814 187.927 47.6755C188.045 47.4695 188.104 47.2529 188.104 47.0256V46.2586C188.069 46.3012 187.991 46.3402 187.87 46.3758C187.752 46.4089 187.614 46.4385 187.458 46.4645C187.304 46.4882 187.154 46.5095 187.007 46.5285C186.863 46.545 186.746 46.5592 186.656 46.5711C186.438 46.5995 186.234 46.6456 186.045 46.7096C185.858 46.7711 185.706 46.8646 185.59 46.9901C185.477 47.1132 185.42 47.2813 185.42 47.4944C185.42 47.7856 185.527 48.0057 185.743 48.1549C185.961 48.3017 186.237 48.375 186.57 48.375ZM190.472 43.5455H191.31V49.3978C191.31 49.7339 191.252 50.0251 191.136 50.2714C191.023 50.5176 190.85 50.7081 190.618 50.8431C190.388 50.978 190.098 51.0455 189.748 51.0455C189.719 51.0455 189.691 51.0455 189.662 51.0455C189.634 51.0455 189.606 51.0455 189.577 51.0455V50.2643C189.606 50.2643 189.632 50.2643 189.655 50.2643C189.679 50.2643 189.705 50.2643 189.733 50.2643C189.989 50.2643 190.176 50.1885 190.295 50.037C190.413 49.8878 190.472 49.6748 190.472 49.3978V43.5455ZM190.884 42.6364C190.721 42.6364 190.58 42.5808 190.461 42.4695C190.345 42.3582 190.287 42.2245 190.287 42.0682C190.287 41.912 190.345 41.7782 190.461 41.667C190.58 41.5557 190.721 41.5 190.884 41.5C191.047 41.5 191.187 41.5557 191.303 41.667C191.421 41.7782 191.481 41.912 191.481 42.0682C191.481 42.2245 191.421 42.3582 191.303 42.4695C191.187 42.5808 191.047 42.6364 190.884 42.6364ZM194.081 49L192.419 43.5455H193.3L194.479 47.7216H194.536L195.7 43.5455H196.595L197.746 47.7074H197.803L198.982 43.5455H199.862L198.2 49H197.376L196.183 44.8097H196.098L194.905 49H194.081ZM200.97 49V43.5455H201.808V49H200.97ZM201.396 42.6364C201.233 42.6364 201.092 42.5808 200.974 42.4695C200.858 42.3582 200.8 42.2245 200.8 42.0682C200.8 41.912 200.858 41.7782 200.974 41.667C201.092 41.5557 201.233 41.5 201.396 41.5C201.56 41.5 201.699 41.5557 201.815 41.667C201.934 41.7782 201.993 41.912 201.993 42.0682C201.993 42.2245 201.934 42.3582 201.815 42.4695C201.699 42.5808 201.56 42.6364 201.396 42.6364ZM205.63 49.1137C205.105 49.1137 204.651 48.9977 204.27 48.7657C203.891 48.5313 203.599 48.2046 203.393 47.7856C203.189 47.3642 203.088 46.8741 203.088 46.3154C203.088 45.7567 203.189 45.2643 203.393 44.8381C203.599 44.4096 203.885 44.0758 204.252 43.8367C204.622 43.5952 205.052 43.4745 205.545 43.4745C205.829 43.4745 206.11 43.5218 206.387 43.6165C206.664 43.7112 206.916 43.8651 207.143 44.0782C207.37 44.2889 207.551 44.5682 207.686 44.9162C207.821 45.2643 207.889 45.6928 207.889 46.2018V46.5569H203.684V45.8324H207.036C207.036 45.5247 206.975 45.25 206.852 45.0086C206.731 44.7671 206.558 44.5765 206.333 44.4368C206.111 44.2972 205.848 44.2273 205.545 44.2273C205.211 44.2273 204.922 44.3102 204.678 44.4759C204.437 44.6393 204.251 44.8523 204.121 45.1151C203.991 45.3779 203.926 45.6596 203.926 45.9603V46.4432C203.926 46.8552 203.997 47.2044 204.139 47.4908C204.283 47.7749 204.483 47.9915 204.739 48.1407C204.994 48.2875 205.292 48.3608 205.63 48.3608C205.85 48.3608 206.049 48.3301 206.227 48.2685C206.407 48.2046 206.562 48.1099 206.692 47.9844C206.822 47.8566 206.923 47.698 206.994 47.5086L207.803 47.7358C207.718 48.0105 207.575 48.2519 207.374 48.4603C207.173 48.6662 206.924 48.8272 206.628 48.9432C206.332 49.0569 205.999 49.1137 205.63 49.1137ZM205.659 51.1307C205.367 51.1307 205.126 51.0502 204.934 50.8893C204.745 50.7306 204.65 50.4986 204.65 50.1932C204.65 50.018 204.693 49.8429 204.778 49.6677C204.863 49.4925 205 49.3232 205.19 49.1598C205.379 48.9965 205.63 48.8438 205.943 48.7018L206.326 49C206.113 49.1563 205.923 49.322 205.754 49.4972C205.586 49.6724 205.502 49.8665 205.502 50.0796C205.502 50.1861 205.528 50.269 205.58 50.3282C205.633 50.3897 205.73 50.4205 205.872 50.4205C205.978 50.4205 206.073 50.4063 206.156 50.3779C206.239 50.3495 206.305 50.3211 206.355 50.2927L206.411 50.9177C206.333 50.9674 206.23 51.0147 206.102 51.0597C205.977 51.1071 205.829 51.1307 205.659 51.1307ZM211.379 49.1137C210.868 49.1137 210.428 48.9929 210.058 48.7515C209.689 48.51 209.405 48.1774 209.206 47.7536C209.007 47.3298 208.908 46.8457 208.908 46.3012C208.908 45.7472 209.01 45.2583 209.213 44.8346C209.419 44.4084 209.706 44.0758 210.073 43.8367C210.442 43.5952 210.873 43.4745 211.365 43.4745C211.749 43.4745 212.094 43.5455 212.402 43.6875C212.71 43.8296 212.962 44.0285 213.159 44.2841C213.355 44.5398 213.477 44.8381 213.524 45.179H212.686C212.622 44.9304 212.48 44.7103 212.26 44.5185C212.042 44.3244 211.749 44.2273 211.379 44.2273C211.053 44.2273 210.766 44.3125 210.52 44.483C210.276 44.6511 210.086 44.889 209.948 45.1968C209.813 45.5022 209.746 45.8608 209.746 46.2728C209.746 46.6942 209.812 47.0611 209.945 47.3736C210.08 47.6861 210.269 47.9288 210.513 48.1016C210.759 48.2744 211.048 48.3608 211.379 48.3608C211.597 48.3608 211.795 48.323 211.972 48.2472C212.15 48.1714 212.3 48.0625 212.423 47.9205C212.547 47.7785 212.634 47.608 212.686 47.4091H213.524C213.477 47.7311 213.36 48.0211 213.173 48.2792C212.988 48.5348 212.743 48.7384 212.438 48.89C212.135 49.0391 211.782 49.1137 211.379 49.1137ZM217.036 49.1137C216.511 49.1137 216.057 48.9977 215.676 48.7657C215.298 48.5313 215.005 48.2046 214.799 47.7856C214.596 47.3642 214.494 46.8741 214.494 46.3154C214.494 45.7567 214.596 45.2643 214.799 44.8381C215.005 44.4096 215.292 44.0758 215.659 43.8367C216.028 43.5952 216.459 43.4745 216.951 43.4745C217.235 43.4745 217.516 43.5218 217.793 43.6165C218.07 43.7112 218.322 43.8651 218.549 44.0782C218.776 44.2889 218.958 44.5682 219.093 44.9162C219.227 45.2643 219.295 45.6928 219.295 46.2018V46.5569H215.09V45.8324H218.443C218.443 45.5247 218.381 45.25 218.258 45.0086C218.137 44.7671 217.964 44.5765 217.74 44.4368C217.517 44.2972 217.254 44.2273 216.951 44.2273C216.617 44.2273 216.329 44.3102 216.085 44.4759C215.843 44.6393 215.657 44.8523 215.527 45.1151C215.397 45.3779 215.332 45.6596 215.332 45.9603V46.4432C215.332 46.8552 215.403 47.2044 215.545 47.4908C215.689 47.7749 215.889 47.9915 216.145 48.1407C216.401 48.2875 216.698 48.3608 217.036 48.3608C217.257 48.3608 217.455 48.3301 217.633 48.2685C217.813 48.2046 217.968 48.1099 218.098 47.9844C218.228 47.8566 218.329 47.698 218.4 47.5086L219.21 47.7358C219.124 48.0105 218.981 48.2519 218.78 48.4603C218.579 48.6662 218.33 48.8272 218.034 48.9432C217.738 49.0569 217.406 49.1137 217.036 49.1137ZM220.57 43.5455H221.408V49.3978C221.408 49.7339 221.35 50.0251 221.234 50.2714C221.12 50.5176 220.947 50.7081 220.715 50.8431C220.486 50.978 220.196 51.0455 219.845 51.0455C219.817 51.0455 219.789 51.0455 219.76 51.0455C219.732 51.0455 219.703 51.0455 219.675 51.0455V50.2643C219.703 50.2643 219.729 50.2643 219.753 50.2643C219.777 50.2643 219.803 50.2643 219.831 50.2643C220.087 50.2643 220.274 50.1885 220.392 50.037C220.511 49.8878 220.57 49.6748 220.57 49.3978V43.5455ZM220.982 42.6364C220.818 42.6364 220.677 42.5808 220.559 42.4695C220.443 42.3582 220.385 42.2245 220.385 42.0682C220.385 41.912 220.443 41.7782 220.559 41.667C220.677 41.5557 220.818 41.5 220.982 41.5C221.145 41.5 221.285 41.5557 221.401 41.667C221.519 41.7782 221.578 41.912 221.578 42.0682C221.578 42.2245 221.519 42.3582 221.401 42.4695C221.285 42.5808 221.145 42.6364 220.982 42.6364ZM226.593 41.7273V49H225.755V41.7273H226.593ZM230.415 49.1137C229.89 49.1137 229.436 48.9977 229.055 48.7657C228.676 48.5313 228.384 48.2046 228.178 47.7856C227.974 47.3642 227.873 46.8741 227.873 46.3154C227.873 45.7567 227.974 45.2643 228.178 44.8381C228.384 44.4096 228.671 44.0758 229.037 43.8367C229.407 43.5952 229.838 43.4745 230.33 43.4745C230.614 43.4745 230.895 43.5218 231.172 43.6165C231.449 43.7112 231.701 43.8651 231.928 44.0782C232.155 44.2889 232.336 44.5682 232.471 44.9162C232.606 45.2643 232.674 45.6928 232.674 46.2018V46.5569H228.469V45.8324H231.822C231.822 45.5247 231.76 45.25 231.637 45.0086C231.516 44.7671 231.343 44.5765 231.118 44.4368C230.896 44.2972 230.633 44.2273 230.33 44.2273C229.996 44.2273 229.707 44.3102 229.464 44.4759C229.222 44.6393 229.036 44.8523 228.906 45.1151C228.776 45.3779 228.711 45.6596 228.711 45.9603V46.4432C228.711 46.8552 228.782 47.2044 228.924 47.4908C229.068 47.7749 229.268 47.9915 229.524 48.1407C229.78 48.2875 230.077 48.3608 230.415 48.3608C230.635 48.3608 230.834 48.3301 231.012 48.2685C231.192 48.2046 231.347 48.1099 231.477 47.9844C231.607 47.8566 231.708 47.698 231.779 47.5086L232.589 47.7358C232.503 48.0105 232.36 48.2519 232.159 48.4603C231.958 48.6662 231.709 48.8272 231.413 48.9432C231.117 49.0569 230.785 49.1137 230.415 49.1137ZM235.554 49.1279C235.208 49.1279 234.894 49.0628 234.613 48.9326C234.331 48.8 234.107 48.6094 233.942 48.3608C233.776 48.1099 233.693 47.8069 233.693 47.4518C233.693 47.1393 233.755 46.8859 233.878 46.6918C234.001 46.4953 234.165 46.3414 234.371 46.2302C234.577 46.1189 234.805 46.036 235.053 45.9816C235.304 45.9248 235.556 45.8798 235.809 45.8466C236.141 45.804 236.41 45.7721 236.616 45.7508C236.824 45.7271 236.975 45.688 237.07 45.6336C237.167 45.5791 237.216 45.4844 237.216 45.3495V45.3211C237.216 44.9707 237.12 44.6984 236.928 44.5043C236.739 44.3102 236.451 44.2131 236.065 44.2131C235.665 44.2131 235.351 44.3007 235.124 44.4759C234.897 44.6511 234.737 44.8381 234.645 45.037L233.849 44.7529C233.991 44.4214 234.181 44.1634 234.417 43.9787C234.657 43.7917 234.917 43.6615 235.199 43.5881C235.483 43.5124 235.762 43.4745 236.037 43.4745C236.212 43.4745 236.413 43.4958 236.64 43.5384C236.87 43.5786 237.091 43.6627 237.305 43.7905C237.52 43.9184 237.699 44.1113 237.841 44.3694C237.983 44.6274 238.054 44.9731 238.054 45.4063V49H237.216V48.2614H237.173C237.116 48.3798 237.022 48.5064 236.889 48.6414C236.756 48.7763 236.58 48.8911 236.36 48.9858C236.14 49.0805 235.871 49.1279 235.554 49.1279ZM235.682 48.375C236.013 48.375 236.292 48.3099 236.52 48.1797C236.749 48.0495 236.922 47.8814 237.038 47.6755C237.157 47.4695 237.216 47.2529 237.216 47.0256V46.2586C237.18 46.3012 237.102 46.3402 236.981 46.3758C236.863 46.4089 236.726 46.4385 236.569 46.4645C236.416 46.4882 236.265 46.5095 236.118 46.5285C235.974 46.545 235.857 46.5592 235.767 46.5711C235.549 46.5995 235.345 46.6456 235.156 46.7096C234.969 46.7711 234.818 46.8646 234.702 46.9901C234.588 47.1132 234.531 47.2813 234.531 47.4944C234.531 47.7856 234.639 48.0057 234.854 48.1549C235.072 48.3017 235.348 48.375 235.682 48.375ZM241.643 49.1137C241.189 49.1137 240.787 48.9989 240.439 48.7692C240.091 48.5372 239.819 48.2105 239.623 47.7891C239.426 47.3653 239.328 46.8646 239.328 46.287C239.328 45.7141 239.426 45.2169 239.623 44.7955C239.819 44.3741 240.092 44.0486 240.443 43.8189C240.793 43.5893 241.198 43.4745 241.657 43.4745C242.012 43.4745 242.293 43.5337 242.499 43.652C242.707 43.768 242.866 43.9006 242.975 44.0498C243.086 44.1965 243.172 44.3173 243.234 44.412H243.305V41.7273H244.143V49H243.333V48.162H243.234C243.172 48.2614 243.085 48.3869 242.971 48.5384C242.858 48.6875 242.695 48.8213 242.485 48.9397C242.274 49.0557 241.993 49.1137 241.643 49.1137ZM241.757 48.3608C242.093 48.3608 242.377 48.2732 242.609 48.0981C242.841 47.9205 243.017 47.6755 243.138 47.363C243.259 47.0481 243.319 46.6847 243.319 46.2728C243.319 45.8656 243.26 45.5093 243.142 45.2039C243.023 44.8961 242.848 44.657 242.616 44.4866C242.384 44.3137 242.098 44.2273 241.757 44.2273C241.402 44.2273 241.106 44.3185 240.869 44.5008C240.635 44.6807 240.458 44.9257 240.34 45.2358C240.224 45.5436 240.166 45.8893 240.166 46.2728C240.166 46.661 240.225 47.0138 240.343 47.331C240.464 47.6459 240.642 47.8968 240.876 48.0839C241.113 48.2685 241.406 48.3608 241.757 48.3608ZM248.01 49.1137C247.518 49.1137 247.086 48.9965 246.714 48.7621C246.345 48.5277 246.056 48.1999 245.848 47.7785C245.642 47.3571 245.539 46.8646 245.539 46.3012C245.539 45.733 245.642 45.237 245.848 44.8133C246.056 44.3895 246.345 44.0604 246.714 43.826C247.086 43.5917 247.518 43.4745 248.01 43.4745C248.503 43.4745 248.934 43.5917 249.303 43.826C249.675 44.0604 249.963 44.3895 250.169 44.8133C250.378 45.237 250.482 45.733 250.482 46.3012C250.482 46.8646 250.378 47.3571 250.169 47.7785C249.963 48.1999 249.675 48.5277 249.303 48.7621C248.934 48.9965 248.503 49.1137 248.01 49.1137ZM248.01 48.3608C248.384 48.3608 248.692 48.265 248.934 48.0732C249.175 47.8814 249.354 47.6293 249.47 47.3168C249.586 47.0043 249.644 46.6658 249.644 46.3012C249.644 45.9366 249.586 45.5969 249.47 45.282C249.354 44.9671 249.175 44.7126 248.934 44.5185C248.692 44.3244 248.384 44.2273 248.01 44.2273C247.636 44.2273 247.328 44.3244 247.087 44.5185C246.846 44.7126 246.667 44.9671 246.551 45.282C246.435 45.5969 246.377 45.9366 246.377 46.3012C246.377 46.6658 246.435 47.0043 246.551 47.3168C246.667 47.6293 246.846 47.8814 247.087 48.0732C247.328 48.265 247.636 48.3608 248.01 48.3608ZM247.627 42.8069L248.493 41.1591H249.473L248.365 42.8069H247.627ZM252.811 49L251.15 43.5455H252.03L253.209 47.7216H253.266L254.431 43.5455H255.326L256.476 47.7074H256.533L257.712 43.5455H258.593L256.931 49H256.107L254.914 44.8097H254.828L253.635 49H252.811ZM259.569 49.0569C259.394 49.0569 259.244 48.9941 259.118 48.8687C258.993 48.7432 258.93 48.5929 258.93 48.4177C258.93 48.2425 258.993 48.0921 259.118 47.9667C259.244 47.8412 259.394 47.7785 259.569 47.7785C259.744 47.7785 259.895 47.8412 260.02 47.9667C260.146 48.0921 260.208 48.2425 260.208 48.4177C260.208 48.5337 260.179 48.6402 260.12 48.7373C260.063 48.8343 259.986 48.9125 259.889 48.9716C259.794 49.0285 259.688 49.0569 259.569 49.0569Z" fill="white"/>
<defs>
<linearGradient id="paint0_linear_6585_26978" x1="280.002" y1="30.5722" x2="-0.00180219" y2="30.5556" gradientUnits="userSpaceOnUse">
<stop offset="0.0001" stop-color="#FE9A79"/>
<stop offset="0.5001" stop-color="#F8C07D"/>
<stop offset="1" stop-color="#FEE298"/>
</linearGradient>
<linearGradient id="paint1_linear_6585_26978" x1="11.9999" y1="29.9846" x2="30.0005" y2="29.9849" gradientUnits="userSpaceOnUse">
<stop offset="0.0001" stop-color="#FE9A79"/>
<stop offset="0.5001" stop-color="#F8C07D"/>
<stop offset="1" stop-color="#FEE298"/>
</linearGradient>
<clipPath id="clip0_6585_26978">
<rect width="18" height="19" fill="white" transform="translate(12 21)"/>
</clipPath>
</defs>
</svg>
